<?xml version="1.0" encoding="UTF-8" standalone="no"?><!-- Generator: Gravit.io --><svg xmlns="http://www.w3.org/2000/svg" xmlns:xlink="http://www.w3.org/1999/xlink" style="isolation:isolate" viewBox="347.053 660.065 69.123 103.686" width="69.123pt" height="103.686pt"><g><path d=" M 416.175 761.028 C 416.175 762.532 414.958 763.751 413.453 763.751 L 349.774 763.751 C 348.27 763.751 347.053 762.532 347.053 761.028 L 347.053 662.788 C 347.053 661.284 348.27 660.065 349.774 660.065 L 413.453 660.065 C 414.958 660.065 416.175 661.284 416.175 662.788 L 416.175 761.028 Z " fill="rgb(234,232,232)"/><path d=" M 401.212 714.444 C 401.212 720.55 395.73 723.968 390.376 723.171 C 387.616 722.755 385.578 721.06 383.929 719.015 C 382.368 717.091 381.978 718.331 382.194 719.591 C 383.185 725.415 385.839 728.718 390.779 730.267 C 391.275 730.427 393.352 730.895 391.456 730.895 L 371.78 730.895 C 369.885 730.895 371.962 730.427 372.449 730.267 C 377.389 728.718 380.043 725.415 381.035 719.591 C 381.248 718.331 380.867 717.091 379.305 719.015 C 377.65 721.06 375.621 722.755 372.852 723.171 C 367.505 723.96 362.016 720.55 362.016 714.444 L 362.016 714.438 C 362.016 710.056 365.554 705.185 370.165 705.519 C 370.482 705.546 372.665 706.015 373.343 705.351 C 374.327 704.394 372.953 703.683 372.852 701.505 L 372.852 701.497 C 372.706 696.304 376.271 693.53 380.257 693.028 L 380.257 693.034 C 380.257 693.028 381.123 692.921 381.511 692.921 C 382.221 692.913 382.784 693.02 382.977 693.034 L 382.977 693.028 C 386.958 693.53 390.53 696.312 390.376 701.497 L 390.376 701.505 C 390.275 703.683 388.909 704.394 389.887 705.351 C 390.564 706.015 392.755 705.538 393.063 705.519 C 397.674 705.185 401.212 710.056 401.212 714.438 L 401.212 714.444 Z " fill="rgb(68,66,71)"/><path d=" M 381.572 692.921 C 381.551 692.921 381.53 692.919 381.511 692.921 C 381.123 692.921 380.257 693.028 380.257 693.034 L 380.257 693.028 C 376.271 693.53 372.706 696.304 372.852 701.497 L 372.852 701.505 C 372.953 703.683 374.327 704.394 373.343 705.351 C 372.665 706.015 370.482 705.546 370.165 705.519 C 365.554 705.185 362.016 710.056 362.016 714.438 L 362.016 714.444 C 362.016 720.55 367.505 723.96 372.852 723.169 C 375.621 722.753 377.65 721.058 379.305 719.015 C 380.867 717.091 381.248 718.331 381.035 719.591 C 380.043 725.415 377.389 728.718 372.449 730.267 C 371.962 730.427 369.885 730.895 371.78 730.895 L 381.572 730.895 L 381.572 692.921 Z " fill="rgb(87,86,90)"/><path d=" M 355.745 668.207 L 356.529 670.515 L 357.541 670.515 L 355.037 663.178 L 353.905 663.178 L 351.402 670.515 L 352.381 670.515 L 353.143 668.207 L 355.745 668.207 Z  M 353.339 667.467 L 354.058 665.344 C 354.21 664.898 354.319 664.44 354.428 664.016 L 354.45 664.016 C 354.558 664.44 354.667 664.876 354.831 665.355 L 355.56 667.467 L 353.339 667.467 Z " fill="rgb(68,66,71)"/><path d=" M 407.481 755.607 L 406.697 753.3 L 405.685 753.3 L 408.189 760.636 L 409.321 760.636 L 411.824 753.3 L 410.845 753.3 L 410.083 755.607 L 407.481 755.607 Z  M 409.887 756.347 L 409.168 758.47 C 409.016 758.916 408.907 759.374 408.798 759.798 L 408.776 759.798 C 408.668 759.374 408.559 758.938 408.395 758.459 L 407.666 756.347 L 409.887 756.347 Z " fill="rgb(68,66,71)"/><path d=" M 404.838 746.989 C 404.838 745.776 405.928 745.097 406.992 745.255 C 407.54 745.337 407.945 745.675 408.272 746.081 C 408.583 746.462 408.66 746.216 408.618 745.966 C 408.421 744.808 407.894 744.151 406.911 743.845 C 406.814 743.812 406.4 743.718 406.777 743.718 L 410.688 743.718 C 411.064 743.718 410.651 743.812 410.554 743.845 C 409.573 744.151 409.046 744.808 408.848 745.966 C 408.805 746.216 408.882 746.462 409.193 746.081 C 409.521 745.675 409.924 745.337 410.474 745.255 C 411.539 745.097 412.63 745.776 412.63 746.989 L 412.63 746.989 C 412.63 747.862 411.925 748.829 411.01 748.763 C 410.947 748.757 410.512 748.665 410.377 748.796 C 410.182 748.987 410.454 749.128 410.474 749.562 L 410.474 749.562 C 410.505 750.595 409.795 751.145 409.003 751.245 L 409.003 751.245 C 409.003 751.245 408.832 751.269 408.755 751.269 C 408.612 751.269 408.501 751.247 408.463 751.245 L 408.463 751.245 C 407.671 751.145 406.962 750.593 406.992 749.562 L 406.992 749.562 C 407.012 749.128 407.284 748.987 407.089 748.796 C 406.954 748.665 406.519 748.759 406.458 748.763 C 405.541 748.829 404.838 747.862 404.838 746.989 L 404.838 746.989 Z " fill="rgb(68,66,71)"/><path d=" M 408.742 751.269 C 408.746 751.269 408.75 751.269 408.755 751.269 C 408.832 751.269 409.003 751.245 409.003 751.245 L 409.003 751.245 C 409.795 751.145 410.505 750.595 410.474 749.562 L 410.474 749.562 C 410.454 749.128 410.182 748.987 410.377 748.796 C 410.512 748.665 410.947 748.757 411.01 748.763 C 411.925 748.829 412.63 747.862 412.63 746.989 L 412.63 746.989 C 412.63 745.776 411.539 745.097 410.474 745.255 C 409.924 745.337 409.521 745.675 409.193 746.081 C 408.882 746.462 408.805 746.216 408.848 745.966 C 409.046 744.808 409.573 744.151 410.554 743.845 C 410.651 743.812 411.064 743.718 410.688 743.718 L 408.742 743.718 L 408.742 751.269 Z " fill="rgb(87,86,90)"/><path d=" M 358.304 676.827 C 358.304 678.04 357.216 678.72 356.15 678.562 C 355.602 678.479 355.198 678.142 354.87 677.735 C 354.559 677.353 354.482 677.599 354.525 677.851 C 354.722 679.007 355.248 679.665 356.231 679.972 C 356.329 680.003 356.742 680.097 356.366 680.097 L 352.454 680.097 C 352.078 680.097 352.491 680.003 352.588 679.972 C 353.569 679.665 354.097 679.007 354.295 677.851 C 354.337 677.599 354.261 677.353 353.95 677.735 C 353.621 678.142 353.218 678.479 352.668 678.562 C 351.605 678.718 350.514 678.04 350.514 676.827 L 350.514 676.825 C 350.514 675.954 351.218 674.985 352.134 675.052 C 352.197 675.058 352.631 675.151 352.765 675.019 C 352.961 674.829 352.688 674.688 352.668 674.255 L 352.668 674.253 C 352.637 673.222 353.347 672.669 354.14 672.569 L 354.14 672.571 C 354.14 672.569 354.312 672.548 354.387 672.548 C 354.53 672.546 354.641 672.567 354.679 672.571 L 354.679 672.569 C 355.472 672.669 356.182 673.222 356.15 674.253 L 356.15 674.255 C 356.131 674.688 355.858 674.829 356.054 675.019 C 356.188 675.151 356.625 675.058 356.684 675.052 C 357.601 674.985 358.304 675.954 358.304 676.825 L 358.304 676.827 Z " fill="rgb(68,66,71)"/><path d=" M 354.4 672.548 C 354.396 672.548 354.392 672.548 354.387 672.548 C 354.312 672.548 354.14 672.569 354.14 672.571 L 354.14 672.569 C 353.347 672.669 352.637 673.222 352.668 674.253 L 352.668 674.255 C 352.688 674.688 352.961 674.829 352.765 675.019 C 352.631 675.151 352.197 675.058 352.134 675.052 C 351.218 674.985 350.514 675.954 350.514 676.825 L 350.514 676.827 C 350.514 678.04 351.605 678.718 352.668 678.562 C 353.218 678.479 353.621 678.142 353.95 677.735 C 354.261 677.353 354.337 677.599 354.295 677.851 C 354.097 679.007 353.569 679.665 352.588 679.972 C 352.491 680.003 352.078 680.097 352.454 680.097 L 354.4 680.097 L 354.4 672.548 Z " fill="rgb(87,86,90)"/></g></svg>