<?xml version="1.0" encoding="UTF-8" standalone="no"?><!-- Generator: Gravit.io --><svg xmlns="http://www.w3.org/2000/svg" xmlns:xlink="http://www.w3.org/1999/xlink" style="isolation:isolate" viewBox="238.513 299.191 69.123 103.685" width="69.123pt" height="103.685pt"><g><path d=" M 307.636 400.154 C 307.636 401.657 306.418 402.876 304.915 402.876 L 241.235 402.876 C 239.732 402.876 238.513 401.657 238.513 400.154 L 238.513 301.911 C 238.513 300.409 239.732 299.191 241.235 299.191 L 304.915 299.191 C 306.418 299.191 307.636 300.409 307.636 301.911 L 307.636 400.154 Z " fill="rgb(234,232,232)"/><path d=" M 264.835 322.788 C 264.835 325.132 262.732 326.443 260.677 326.138 C 259.616 325.978 258.835 325.327 258.202 324.544 C 257.604 323.806 257.454 324.28 257.536 324.765 C 257.917 326.999 258.936 328.267 260.831 328.861 C 261.021 328.923 261.819 329.103 261.091 329.103 L 253.54 329.103 C 252.813 329.103 253.61 328.923 253.797 328.861 C 255.693 328.267 256.711 326.999 257.092 324.765 C 257.174 324.28 257.027 323.806 256.428 324.544 C 255.793 325.327 255.014 325.978 253.952 326.138 C 251.9 326.441 249.793 325.132 249.793 322.788 L 249.793 322.786 C 249.793 321.105 251.151 319.236 252.92 319.364 C 253.042 319.374 253.88 319.554 254.14 319.3 C 254.518 318.931 253.99 318.659 253.952 317.823 L 253.952 317.822 C 253.895 315.827 255.264 314.763 256.793 314.57 L 256.793 314.572 C 256.793 314.57 257.125 314.529 257.275 314.529 C 257.547 314.527 257.763 314.568 257.837 314.572 L 257.837 314.57 C 259.365 314.763 260.736 315.829 260.677 317.822 L 260.677 317.823 C 260.638 318.659 260.113 318.931 260.489 319.3 C 260.748 319.554 261.589 319.372 261.708 319.364 C 263.478 319.236 264.835 321.105 264.835 322.786 L 264.835 322.788 Z " fill="rgb(68,66,71)"/><path d=" M 257.298 314.529 C 257.29 314.529 257.281 314.529 257.275 314.529 C 257.125 314.529 256.793 314.57 256.793 314.572 L 256.793 314.57 C 255.264 314.763 253.895 315.827 253.952 317.822 L 253.952 317.823 C 253.99 318.659 254.518 318.931 254.14 319.3 C 253.88 319.554 253.042 319.374 252.92 319.364 C 251.151 319.236 249.793 321.105 249.793 322.786 L 249.793 322.788 C 249.793 325.132 251.9 326.441 253.952 326.138 C 255.014 325.978 255.793 325.327 256.428 324.544 C 257.027 323.806 257.174 324.28 257.092 324.765 C 256.711 326.999 255.693 328.267 253.797 328.861 C 253.61 328.923 252.813 329.103 253.54 329.103 L 257.298 329.103 L 257.298 314.529 Z " fill="rgb(87,86,90)"/><path d=" M 296.292 322.788 C 296.292 325.132 294.188 326.443 292.133 326.138 C 291.073 325.978 290.291 325.327 289.659 324.544 C 289.06 323.806 288.91 324.28 288.993 324.765 C 289.373 326.999 290.392 328.267 292.287 328.861 C 292.478 328.923 293.275 329.103 292.547 329.103 L 284.997 329.103 C 284.269 329.103 285.067 328.923 285.254 328.861 C 287.15 328.267 288.167 326.999 288.549 324.765 C 288.63 324.28 288.484 323.806 287.885 324.544 C 287.249 325.327 286.471 325.978 285.408 326.138 C 283.356 326.441 281.25 325.132 281.25 322.788 L 281.25 322.786 C 281.25 321.105 282.608 319.236 284.377 319.364 C 284.498 319.374 285.336 319.554 285.597 319.3 C 285.974 318.931 285.446 318.659 285.408 317.823 L 285.408 317.822 C 285.352 315.827 286.72 314.763 288.25 314.57 L 288.25 314.572 C 288.25 314.57 288.582 314.529 288.731 314.529 C 289.003 314.527 289.22 314.568 289.294 314.572 L 289.294 314.57 C 290.821 314.763 292.193 315.829 292.133 317.822 L 292.133 317.823 C 292.095 318.659 291.569 318.931 291.945 319.3 C 292.205 319.554 293.046 319.372 293.164 319.364 C 294.934 319.236 296.292 321.105 296.292 322.786 L 296.292 322.788 Z " fill="rgb(68,66,71)"/><path d=" M 288.754 314.529 C 288.746 314.529 288.738 314.529 288.731 314.529 C 288.582 314.529 288.25 314.57 288.25 314.572 L 288.25 314.57 C 286.72 314.763 285.352 315.827 285.408 317.822 L 285.408 317.823 C 285.446 318.659 285.974 318.931 285.597 319.3 C 285.336 319.554 284.498 319.374 284.377 319.364 C 282.608 319.236 281.25 321.105 281.25 322.786 L 281.25 322.788 C 281.25 325.132 283.356 326.441 285.408 326.138 C 286.471 325.978 287.249 325.327 287.885 324.544 C 288.484 323.806 288.63 324.28 288.549 324.765 C 288.167 326.999 287.15 328.267 285.254 328.861 C 285.067 328.923 284.269 329.103 284.997 329.103 L 288.754 329.103 L 288.754 314.529 Z " fill="rgb(87,86,90)"/><path d=" M 296.341 386.114 C 296.341 384.902 297.431 384.222 298.495 384.38 C 299.044 384.462 299.449 384.8 299.777 385.206 C 300.087 385.587 300.164 385.341 300.122 385.091 C 299.925 383.933 299.397 383.277 298.415 382.97 C 298.317 382.937 297.904 382.843 298.28 382.843 L 302.192 382.843 C 302.569 382.843 302.155 382.937 302.059 382.97 C 301.076 383.277 300.549 383.933 300.352 385.091 C 300.31 385.341 300.386 385.587 300.696 385.206 C 301.026 384.8 301.428 384.462 301.979 384.38 C 303.042 384.222 304.133 384.902 304.133 386.114 L 304.133 386.114 C 304.133 386.986 303.429 387.954 302.513 387.888 C 302.45 387.884 302.016 387.79 301.881 387.921 C 301.686 388.113 301.958 388.253 301.979 388.687 L 301.979 388.689 C 302.008 389.72 301.299 390.271 300.507 390.37 L 300.507 390.37 C 300.507 390.37 300.335 390.394 300.258 390.394 C 300.116 390.394 300.005 390.372 299.966 390.37 L 299.966 390.37 C 299.175 390.271 298.465 389.718 298.495 388.689 L 298.495 388.687 C 298.515 388.253 298.787 388.113 298.592 387.921 C 298.458 387.79 298.023 387.884 297.961 387.888 C 297.044 387.954 296.341 386.986 296.341 386.114 L 296.341 386.114 Z " fill="rgb(68,66,71)"/><path d=" M 300.245 390.394 C 300.249 390.394 300.253 390.394 300.258 390.394 C 300.335 390.394 300.507 390.37 300.507 390.37 L 300.507 390.37 C 301.299 390.273 302.008 389.72 301.979 388.689 L 301.979 388.687 C 301.958 388.253 301.686 388.113 301.881 387.921 C 302.016 387.79 302.45 387.884 302.513 387.888 C 303.429 387.954 304.133 386.986 304.133 386.114 L 304.133 386.114 C 304.133 384.902 303.042 384.222 301.979 384.38 C 301.428 384.462 301.026 384.8 300.696 385.206 C 300.386 385.587 300.31 385.341 300.352 385.091 C 300.549 383.933 301.076 383.277 302.059 382.97 C 302.155 382.937 302.569 382.843 302.192 382.843 L 300.245 382.843 L 300.245 390.394 Z " fill="rgb(87,86,90)"/><path d=" M 249.808 315.952 C 249.808 317.165 248.719 317.845 247.654 317.687 C 247.106 317.603 246.701 317.267 246.373 316.861 C 246.063 316.478 245.986 316.724 246.027 316.976 C 246.225 318.132 246.752 318.79 247.735 319.097 C 247.833 319.13 248.246 319.222 247.869 319.222 L 243.958 319.222 C 243.581 319.222 243.994 319.13 244.091 319.097 C 245.072 318.79 245.601 318.132 245.798 316.976 C 245.84 316.724 245.765 316.478 245.454 316.861 C 245.125 317.267 244.722 317.603 244.171 317.687 C 243.109 317.845 242.017 317.165 242.017 315.952 L 242.017 315.95 C 242.017 315.079 242.72 314.111 243.637 314.179 C 243.7 314.183 244.134 314.277 244.269 314.144 C 244.464 313.954 244.191 313.814 244.171 313.38 L 244.171 313.378 C 244.142 312.347 244.851 311.794 245.643 311.695 L 245.643 311.697 C 245.643 311.695 245.816 311.673 245.892 311.673 C 246.033 311.671 246.146 311.695 246.184 311.697 L 246.184 311.695 C 246.975 311.794 247.686 312.347 247.654 313.378 L 247.654 313.38 C 247.634 313.814 247.362 313.954 247.557 314.144 C 247.692 314.277 248.127 314.181 248.189 314.179 C 249.105 314.111 249.808 315.079 249.808 315.95 L 249.808 315.952 Z " fill="rgb(68,66,71)"/><path d=" M 245.904 311.673 C 245.901 311.673 245.896 311.673 245.892 311.673 C 245.816 311.673 245.643 311.695 245.643 311.697 L 245.643 311.695 C 244.851 311.794 244.142 312.347 244.171 313.378 L 244.171 313.38 C 244.191 313.814 244.464 313.954 244.269 314.144 C 244.134 314.277 243.7 314.183 243.637 314.179 C 242.72 314.111 242.017 315.079 242.017 315.95 L 242.017 315.952 C 242.017 317.165 243.109 317.845 244.171 317.687 C 244.722 317.603 245.125 317.267 245.454 316.861 C 245.765 316.478 245.84 316.724 245.798 316.976 C 245.601 318.132 245.072 318.79 244.091 319.097 C 243.994 319.13 243.581 319.222 243.958 319.222 L 245.904 319.222 L 245.904 311.673 Z " fill="rgb(87,86,90)"/><path d=" M 243.584 307.902 L 244.302 307.902 L 244.302 302.419 L 243.669 302.419 L 242.471 303.06 L 242.614 303.625 L 243.568 303.11 L 243.584 303.11 L 243.584 307.902 Z  M 248.14 302.326 C 247.026 302.326 246.225 303.33 246.225 305.177 C 246.242 306.991 246.976 307.995 248.047 307.995 C 249.253 307.995 249.954 306.966 249.954 305.101 C 249.954 303.355 249.287 302.326 248.14 302.326 Z  M 248.089 302.899 C 248.865 302.899 249.203 303.785 249.203 305.135 C 249.203 306.535 248.84 307.421 248.089 307.421 C 247.414 307.421 246.976 306.611 246.976 305.186 C 246.976 303.692 247.448 302.899 248.089 302.899 Z " fill="rgb(68,66,71)"/><path d=" M 302.564 394.163 L 301.846 394.163 L 301.846 399.647 L 302.479 399.647 L 303.677 399.006 L 303.534 398.44 L 302.58 398.955 L 302.564 398.955 L 302.564 394.163 Z  M 298.008 399.74 C 299.122 399.74 299.923 398.736 299.923 396.888 C 299.906 395.074 299.172 394.07 298.101 394.07 C 296.895 394.07 296.194 395.1 296.194 396.964 C 296.194 398.71 296.861 399.74 298.008 399.74 Z  M 298.059 399.166 C 297.283 399.166 296.945 398.28 296.945 396.93 C 296.945 395.53 297.308 394.644 298.059 394.644 C 298.734 394.644 299.172 395.454 299.172 396.88 C 299.172 398.373 298.7 399.166 298.059 399.166 Z " fill="rgb(68,66,71)"/><path d=" M 280.596 332.898 C 280.596 335.241 278.492 336.552 276.437 336.247 C 275.377 336.087 274.596 335.437 273.963 334.652 C 273.363 333.913 273.215 334.39 273.297 334.874 C 273.678 337.109 274.695 338.376 276.591 338.97 C 276.781 339.032 277.579 339.212 276.851 339.212 L 269.301 339.212 C 268.572 339.212 269.37 339.032 269.558 338.97 C 271.453 338.376 272.472 337.109 272.853 334.874 C 272.935 334.39 272.788 333.913 272.189 334.652 C 271.554 335.437 270.775 336.087 269.712 336.247 C 267.66 336.55 265.554 335.241 265.554 332.898 L 265.554 332.896 C 265.554 331.214 266.911 329.345 268.681 329.472 C 268.802 329.484 269.64 329.663 269.901 329.407 C 270.277 329.04 269.751 328.769 269.712 327.933 L 269.712 327.929 C 269.655 325.937 271.025 324.872 272.554 324.679 L 272.554 324.681 C 272.554 324.679 272.886 324.638 273.035 324.638 C 273.307 324.636 273.524 324.677 273.598 324.681 L 273.598 324.679 C 275.125 324.872 276.496 325.939 276.437 327.929 L 276.437 327.933 C 276.399 328.769 275.874 329.04 276.249 329.407 C 276.509 329.663 277.35 329.48 277.468 329.472 C 279.237 329.345 280.596 331.214 280.596 332.896 L 280.596 332.898 Z " fill="rgb(68,66,71)"/><path d=" M 273.058 324.638 C 273.05 324.638 273.042 324.638 273.035 324.638 C 272.886 324.638 272.554 324.679 272.554 324.681 L 272.554 324.679 C 271.025 324.872 269.655 325.937 269.712 327.929 L 269.712 327.933 C 269.751 328.769 270.277 329.04 269.901 329.407 C 269.64 329.663 268.802 329.484 268.681 329.472 C 266.911 329.345 265.554 331.214 265.554 332.896 L 265.554 332.898 C 265.554 335.241 267.66 336.55 269.712 336.247 C 270.775 336.087 271.554 335.437 272.189 334.652 C 272.788 333.913 272.935 334.39 272.853 334.874 C 272.472 337.109 271.453 338.376 269.558 338.97 C 269.37 339.032 268.572 339.212 269.301 339.212 L 273.058 339.212 L 273.058 324.638 Z " fill="rgb(87,86,90)"/><path d=" M 264.835 341.989 C 264.835 344.333 262.732 345.644 260.677 345.337 C 259.616 345.179 258.835 344.529 258.202 343.743 C 257.604 343.005 257.454 343.482 257.536 343.964 C 257.917 346.198 258.936 347.468 260.831 348.062 C 261.021 348.122 261.819 348.302 261.091 348.302 L 253.54 348.302 C 252.813 348.302 253.61 348.122 253.797 348.062 C 255.693 347.468 256.711 346.198 257.092 343.964 C 257.174 343.482 257.027 343.005 256.428 343.743 C 255.793 344.529 255.014 345.179 253.952 345.337 C 251.9 345.642 249.793 344.333 249.793 341.989 L 249.793 341.988 C 249.793 340.306 251.151 338.435 252.92 338.564 C 253.042 338.573 253.88 338.753 254.14 338.499 C 254.518 338.132 253.99 337.859 253.952 337.023 L 253.952 337.021 C 253.895 335.029 255.264 333.964 256.793 333.771 L 256.793 333.773 C 256.793 333.771 257.125 333.73 257.275 333.73 C 257.547 333.726 257.763 333.767 257.837 333.773 L 257.837 333.771 C 259.365 333.964 260.736 335.03 260.677 337.021 L 260.677 337.023 C 260.638 337.859 260.113 338.132 260.489 338.499 C 260.748 338.753 261.589 338.572 261.708 338.564 C 263.478 338.435 264.835 340.306 264.835 341.988 L 264.835 341.989 Z " fill="rgb(68,66,71)"/><path d=" M 257.298 333.73 C 257.29 333.73 257.281 333.73 257.275 333.73 C 257.125 333.73 256.793 333.771 256.793 333.773 L 256.793 333.771 C 255.264 333.964 253.895 335.027 253.952 337.021 L 253.952 337.023 C 253.99 337.859 254.518 338.132 254.14 338.499 C 253.88 338.753 253.042 338.573 252.92 338.564 C 251.151 338.435 249.793 340.306 249.793 341.988 L 249.793 341.989 C 249.793 344.333 251.9 345.642 253.952 345.337 C 255.014 345.179 255.793 344.527 256.428 343.743 C 257.027 343.005 257.174 343.482 257.092 343.964 C 256.711 346.198 255.693 347.468 253.797 348.062 C 253.61 348.122 252.813 348.302 253.54 348.302 L 257.298 348.302 L 257.298 333.73 Z " fill="rgb(87,86,90)"/><path d=" M 296.292 341.989 C 296.292 344.333 294.188 345.644 292.133 345.337 C 291.073 345.179 290.291 344.529 289.659 343.743 C 289.06 343.005 288.91 343.482 288.993 343.964 C 289.373 346.198 290.392 347.468 292.287 348.062 C 292.478 348.122 293.275 348.302 292.547 348.302 L 284.997 348.302 C 284.269 348.302 285.067 348.122 285.254 348.062 C 287.15 347.468 288.167 346.198 288.549 343.964 C 288.63 343.482 288.484 343.005 287.885 343.743 C 287.249 344.529 286.471 345.179 285.408 345.337 C 283.356 345.642 281.25 344.333 281.25 341.989 L 281.25 341.988 C 281.25 340.306 282.608 338.435 284.377 338.564 C 284.498 338.573 285.336 338.753 285.597 338.499 C 285.974 338.132 285.446 337.859 285.408 337.023 L 285.408 337.021 C 285.352 335.029 286.72 333.964 288.25 333.771 L 288.25 333.773 C 288.25 333.771 288.582 333.73 288.731 333.73 C 289.003 333.726 289.22 333.767 289.294 333.773 L 289.294 333.771 C 290.821 333.964 292.193 335.03 292.133 337.021 L 292.133 337.023 C 292.095 337.859 291.569 338.132 291.945 338.499 C 292.205 338.753 293.046 338.572 293.164 338.564 C 294.934 338.435 296.292 340.306 296.292 341.988 L 296.292 341.989 Z " fill="rgb(68,66,71)"/><path d=" M 288.754 333.73 C 288.746 333.73 288.738 333.73 288.731 333.73 C 288.582 333.73 288.25 333.771 288.25 333.773 L 288.25 333.771 C 286.72 333.964 285.352 335.027 285.408 337.021 L 285.408 337.023 C 285.446 337.859 285.974 338.132 285.597 338.499 C 285.336 338.753 284.498 338.573 284.377 338.564 C 282.608 338.435 281.25 340.306 281.25 341.988 L 281.25 341.989 C 281.25 344.333 283.356 345.642 285.408 345.337 C 286.471 345.179 287.249 344.527 287.885 343.743 C 288.484 343.005 288.63 343.482 288.549 343.964 C 288.167 346.198 287.15 347.468 285.254 348.062 C 285.067 348.122 284.269 348.302 284.997 348.302 L 288.754 348.302 L 288.754 333.73 Z " fill="rgb(87,86,90)"/><path d=" M 264.835 361.191 C 264.835 363.532 262.732 364.845 260.677 364.538 C 259.616 364.38 258.835 363.728 258.202 362.945 C 257.604 362.206 257.454 362.681 257.536 363.165 C 257.917 365.4 258.936 366.667 260.831 367.261 C 261.021 367.323 261.819 367.503 261.091 367.503 L 253.54 367.503 C 252.813 367.503 253.61 367.323 253.797 367.261 C 255.693 366.667 256.711 365.4 257.092 363.165 C 257.174 362.681 257.027 362.206 256.428 362.945 C 255.793 363.728 255.014 364.38 253.952 364.538 C 251.9 364.843 249.793 363.532 249.793 361.191 L 249.793 361.187 C 249.793 359.505 251.151 357.636 252.92 357.765 C 253.042 357.775 253.88 357.954 254.14 357.7 C 254.518 357.333 253.99 357.06 253.952 356.224 L 253.952 356.222 C 253.895 354.23 255.264 353.163 256.793 352.972 L 256.793 352.974 C 256.793 352.972 257.125 352.929 257.275 352.929 C 257.547 352.927 257.763 352.968 257.837 352.974 L 257.837 352.972 C 259.365 353.163 260.736 354.232 260.677 356.222 L 260.677 356.224 C 260.638 357.06 260.113 357.333 260.489 357.7 C 260.748 357.954 261.589 357.773 261.708 357.765 C 263.478 357.636 264.835 359.505 264.835 361.187 L 264.835 361.191 Z " fill="rgb(68,66,71)"/><path d=" M 257.298 352.929 C 257.29 352.929 257.281 352.929 257.275 352.929 C 257.125 352.929 256.793 352.972 256.793 352.974 L 256.793 352.972 C 255.264 353.163 253.895 354.228 253.952 356.222 L 253.952 356.224 C 253.99 357.06 254.518 357.333 254.14 357.7 C 253.88 357.954 253.042 357.775 252.92 357.765 C 251.151 357.636 249.793 359.505 249.793 361.187 L 249.793 361.191 C 249.793 363.532 251.9 364.843 253.952 364.538 C 255.014 364.38 255.793 363.728 256.428 362.945 C 257.027 362.206 257.174 362.681 257.092 363.165 C 256.711 365.4 255.693 366.667 253.797 367.261 C 253.61 367.323 252.813 367.503 253.54 367.503 L 257.298 367.503 L 257.298 352.929 Z " fill="rgb(87,86,90)"/><path d=" M 296.292 361.191 C 296.292 363.532 294.188 364.845 292.133 364.538 C 291.073 364.38 290.291 363.728 289.659 362.945 C 289.06 362.206 288.91 362.681 288.993 363.165 C 289.373 365.4 290.392 366.667 292.287 367.261 C 292.478 367.323 293.275 367.503 292.547 367.503 L 284.997 367.503 C 284.269 367.503 285.067 367.323 285.254 367.261 C 287.15 366.667 288.167 365.4 288.549 363.165 C 288.63 362.681 288.484 362.206 287.885 362.945 C 287.249 363.728 286.471 364.38 285.408 364.538 C 283.356 364.843 281.25 363.532 281.25 361.191 L 281.25 361.187 C 281.25 359.505 282.608 357.636 284.377 357.765 C 284.498 357.775 285.336 357.954 285.597 357.7 C 285.974 357.333 285.446 357.06 285.408 356.224 L 285.408 356.222 C 285.352 354.23 286.72 353.163 288.25 352.972 L 288.25 352.974 C 288.25 352.972 288.582 352.929 288.731 352.929 C 289.003 352.927 289.22 352.968 289.294 352.974 L 289.294 352.972 C 290.821 353.163 292.193 354.232 292.133 356.222 L 292.133 356.224 C 292.095 357.06 291.569 357.333 291.945 357.7 C 292.205 357.954 293.046 357.773 293.164 357.765 C 294.934 357.636 296.292 359.505 296.292 361.187 L 296.292 361.191 Z " fill="rgb(68,66,71)"/><path d=" M 288.754 352.929 C 288.746 352.929 288.738 352.929 288.731 352.929 C 288.582 352.929 288.25 352.972 288.25 352.974 L 288.25 352.972 C 286.72 353.163 285.352 354.228 285.408 356.222 L 285.408 356.224 C 285.446 357.06 285.974 357.333 285.597 357.7 C 285.336 357.954 284.498 357.775 284.377 357.765 C 282.608 357.636 281.25 359.505 281.25 361.187 L 281.25 361.191 C 281.25 363.532 283.356 364.843 285.408 364.538 C 286.471 364.38 287.249 363.728 287.885 362.945 C 288.484 362.206 288.63 362.681 288.549 363.165 C 288.167 365.4 287.15 366.667 285.254 367.261 C 285.067 367.323 284.269 367.503 284.997 367.503 L 288.754 367.503 L 288.754 352.929 Z " fill="rgb(87,86,90)"/><path d=" M 264.835 380.39 C 264.835 382.734 262.732 384.044 260.677 383.739 C 259.616 383.579 258.835 382.929 258.202 382.144 C 257.604 381.405 257.454 381.882 257.536 382.366 C 257.917 384.601 258.936 385.868 260.831 386.462 C 261.021 386.525 261.819 386.704 261.091 386.704 L 253.54 386.704 C 252.813 386.704 253.61 386.525 253.797 386.462 C 255.693 385.868 256.711 384.601 257.092 382.366 C 257.174 381.882 257.027 381.405 256.428 382.144 C 255.793 382.929 255.014 383.579 253.952 383.739 C 251.9 384.042 249.793 382.734 249.793 380.39 L 249.793 380.388 C 249.793 378.706 251.151 376.835 252.92 376.964 C 253.042 376.974 253.88 377.155 254.14 376.9 C 254.518 376.532 253.99 376.261 253.952 375.425 L 253.952 375.421 C 253.895 373.429 255.264 372.364 256.793 372.171 L 256.793 372.173 C 256.793 372.171 257.125 372.13 257.275 372.13 C 257.547 372.128 257.763 372.169 257.837 372.173 L 257.837 372.171 C 259.365 372.364 260.736 373.431 260.677 375.421 L 260.677 375.425 C 260.638 376.261 260.113 376.532 260.489 376.9 C 260.748 377.155 261.589 376.972 261.708 376.964 C 263.478 376.835 264.835 378.706 264.835 380.388 L 264.835 380.39 Z " fill="rgb(68,66,71)"/><path d=" M 257.298 372.13 C 257.29 372.13 257.281 372.13 257.275 372.13 C 257.125 372.13 256.793 372.171 256.793 372.173 L 256.793 372.171 C 255.264 372.364 253.895 373.429 253.952 375.421 L 253.952 375.425 C 253.99 376.261 254.518 376.532 254.14 376.9 C 253.88 377.155 253.042 376.974 252.92 376.964 C 251.151 376.835 249.793 378.706 249.793 380.388 L 249.793 380.39 C 249.793 382.734 251.9 384.042 253.952 383.739 C 255.014 383.579 255.793 382.929 256.428 382.144 C 257.027 381.405 257.174 381.882 257.092 382.366 C 256.711 384.601 255.693 385.868 253.797 386.462 C 253.61 386.525 252.813 386.704 253.54 386.704 L 257.298 386.704 L 257.298 372.13 Z " fill="rgb(87,86,90)"/><path d=" M 296.292 380.39 C 296.292 382.734 294.188 384.044 292.133 383.739 C 291.073 383.579 290.291 382.929 289.659 382.144 C 289.06 381.405 288.91 381.882 288.993 382.366 C 289.373 384.601 290.392 385.868 292.287 386.462 C 292.478 386.525 293.275 386.704 292.547 386.704 L 284.997 386.704 C 284.269 386.704 285.067 386.525 285.254 386.462 C 287.15 385.868 288.167 384.601 288.549 382.366 C 288.63 381.882 288.484 381.405 287.885 382.144 C 287.249 382.929 286.471 383.579 285.408 383.739 C 283.356 384.042 281.25 382.734 281.25 380.39 L 281.25 380.388 C 281.25 378.706 282.608 376.835 284.377 376.964 C 284.498 376.974 285.336 377.155 285.597 376.9 C 285.974 376.532 285.446 376.261 285.408 375.425 L 285.408 375.421 C 285.352 373.429 286.72 372.364 288.25 372.171 L 288.25 372.173 C 288.25 372.171 288.582 372.13 288.731 372.13 C 289.003 372.128 289.22 372.169 289.294 372.173 L 289.294 372.171 C 290.821 372.364 292.193 373.431 292.133 375.421 L 292.133 375.425 C 292.095 376.261 291.569 376.532 291.945 376.9 C 292.205 377.155 293.046 376.972 293.164 376.964 C 294.934 376.835 296.292 378.706 296.292 380.388 L 296.292 380.39 Z " fill="rgb(68,66,71)"/><path d=" M 288.754 372.13 C 288.746 372.13 288.738 372.13 288.731 372.13 C 288.582 372.13 288.25 372.171 288.25 372.173 L 288.25 372.171 C 286.72 372.364 285.352 373.429 285.408 375.421 L 285.408 375.425 C 285.446 376.261 285.974 376.532 285.597 376.9 C 285.336 377.155 284.498 376.974 284.377 376.964 C 282.608 376.835 281.25 378.706 281.25 380.388 L 281.25 380.39 C 281.25 382.734 283.356 384.042 285.408 383.739 C 286.471 383.579 287.249 382.929 287.885 382.144 C 288.484 381.405 288.63 381.882 288.549 382.366 C 288.167 384.601 287.15 385.868 285.254 386.462 C 285.067 386.525 284.269 386.704 284.997 386.704 L 288.754 386.704 L 288.754 372.13 Z " fill="rgb(87,86,90)"/><path d=" M 280.596 371.271 C 280.596 373.613 278.492 374.925 276.437 374.618 C 275.377 374.458 274.596 373.808 273.963 373.025 C 273.363 372.286 273.215 372.761 273.297 373.245 C 273.678 375.48 274.695 376.747 276.591 377.341 C 276.781 377.404 277.579 377.583 276.851 377.583 L 269.301 377.583 C 268.572 377.583 269.37 377.404 269.558 377.341 C 271.453 376.747 272.472 375.48 272.853 373.245 C 272.935 372.761 272.788 372.286 272.189 373.025 C 271.554 373.808 270.775 374.458 269.712 374.618 C 267.66 374.921 265.554 373.613 265.554 371.271 L 265.554 371.267 C 265.554 369.585 266.911 367.716 268.681 367.845 C 268.802 367.855 269.64 368.034 269.901 367.78 C 270.277 367.411 269.751 367.14 269.712 366.304 L 269.712 366.302 C 269.655 364.308 271.025 363.243 272.554 363.052 L 272.554 363.054 C 272.554 363.052 272.886 363.009 273.035 363.009 C 273.307 363.007 273.524 363.048 273.598 363.054 L 273.598 363.052 C 275.125 363.243 276.496 364.31 276.437 366.302 L 276.437 366.304 C 276.399 367.14 275.874 367.411 276.249 367.78 C 276.509 368.034 277.35 367.853 277.468 367.845 C 279.237 367.716 280.596 369.585 280.596 371.267 L 280.596 371.271 Z " fill="rgb(68,66,71)"/><path d=" M 273.058 363.009 C 273.05 363.009 273.042 363.009 273.035 363.009 C 272.886 363.009 272.554 363.052 272.554 363.054 L 272.554 363.052 C 271.025 363.243 269.655 364.308 269.712 366.302 L 269.712 366.304 C 269.751 367.14 270.277 367.411 269.901 367.78 C 269.64 368.034 268.802 367.855 268.681 367.845 C 266.911 367.716 265.554 369.585 265.554 371.267 L 265.554 371.271 C 265.554 373.613 267.66 374.921 269.712 374.618 C 270.775 374.458 271.554 373.808 272.189 373.025 C 272.788 372.286 272.935 372.761 272.853 373.245 C 272.472 375.48 271.453 376.747 269.558 377.341 C 269.37 377.404 268.572 377.583 269.301 377.583 L 273.058 377.583 L 273.058 363.009 Z " fill="rgb(87,86,90)"/></g></svg>