<?xml version="1.0" encoding="UTF-8" standalone="no"?><!-- Generator: Gravit.io --><svg xmlns="http://www.w3.org/2000/svg" xmlns:xlink="http://www.w3.org/1999/xlink" style="isolation:isolate" viewBox="730.876 576.228 69.124 103.685" width="69.124pt" height="103.685pt"><g><path d=" M 800 677.191 C 800 678.695 798.781 679.913 797.278 679.913 L 733.598 679.913 C 732.095 679.913 730.876 678.695 730.876 677.191 L 730.876 578.951 C 730.876 577.447 732.095 576.228 733.598 576.228 L 797.278 576.228 C 798.781 576.228 800 577.447 800 578.951 L 800 677.191 Z " fill="rgb(234,232,232)"/><path d=" M 738.59 584.175 C 738.59 585.612 738.1 585.993 737.251 585.993 C 736.924 585.993 736.641 585.928 736.445 585.852 L 736.315 586.625 C 736.543 586.723 736.968 586.799 737.327 586.799 C 738.59 586.799 739.548 586.2 739.548 584.252 L 739.548 579.342 L 738.59 579.342 L 738.59 584.175 Z " fill="rgb(68,66,71)"/><path d=" M 792.286 671.967 C 792.286 670.53 792.776 670.149 793.625 670.149 C 793.952 670.149 794.235 670.214 794.431 670.29 L 794.561 669.517 C 794.333 669.419 793.908 669.343 793.549 669.343 C 792.286 669.343 791.328 669.942 791.328 671.89 L 791.328 676.8 L 792.286 676.8 L 792.286 671.967 Z " fill="rgb(68,66,71)"/><path d=" M 788.662 663.152 C 788.662 661.939 789.751 661.259 790.815 661.417 C 791.364 661.499 791.769 661.837 792.096 662.244 C 792.407 662.626 792.485 662.378 792.442 662.128 C 792.245 660.97 791.717 660.314 790.735 660.007 C 790.637 659.974 790.224 659.88 790.601 659.88 L 794.512 659.88 C 794.888 659.88 794.476 659.974 794.378 660.007 C 793.397 660.314 792.87 660.97 792.672 662.128 C 792.629 662.378 792.706 662.626 793.016 662.244 C 793.345 661.837 793.748 661.499 794.298 661.417 C 795.362 661.259 796.453 661.939 796.453 663.152 L 796.453 663.154 C 796.453 664.025 795.75 664.992 794.833 664.925 C 794.77 664.921 794.335 664.828 794.201 664.96 C 794.005 665.15 794.279 665.29 794.298 665.724 L 794.298 665.726 C 794.328 666.757 793.619 667.308 792.827 667.41 L 792.827 667.408 C 792.827 667.41 792.655 667.431 792.578 667.431 C 792.436 667.431 792.325 667.41 792.286 667.408 L 792.286 667.41 C 791.495 667.308 790.785 666.755 790.815 665.726 L 790.815 665.724 C 790.835 665.29 791.107 665.15 790.913 664.96 C 790.778 664.828 790.342 664.921 790.282 664.925 C 789.365 664.992 788.662 664.025 788.662 663.154 L 788.662 663.152 Z " fill="rgb(68,66,71)"/><path d=" M 792.565 667.431 C 792.57 667.431 792.574 667.431 792.578 667.431 C 792.655 667.431 792.827 667.41 792.827 667.408 L 792.827 667.41 C 793.619 667.31 794.328 666.757 794.298 665.726 L 794.298 665.724 C 794.279 665.29 794.005 665.15 794.201 664.96 C 794.335 664.828 794.77 664.921 794.833 664.925 C 795.75 664.992 796.453 664.025 796.453 663.154 L 796.453 663.152 C 796.453 661.939 795.362 661.259 794.298 661.417 C 793.748 661.499 793.345 661.837 793.016 662.244 C 792.706 662.626 792.629 662.378 792.672 662.128 C 792.87 660.97 793.397 660.314 794.378 660.007 C 794.476 659.974 794.888 659.88 794.512 659.88 L 792.565 659.88 L 792.565 667.431 Z " fill="rgb(87,86,90)"/><path d=" M 742.128 592.99 C 742.128 594.203 741.039 594.882 739.975 594.724 C 739.426 594.642 739.021 594.304 738.693 593.898 C 738.382 593.515 738.306 593.761 738.348 594.013 C 738.545 595.169 739.073 595.828 740.054 596.134 C 740.153 596.167 740.566 596.259 740.189 596.259 L 736.278 596.259 C 735.901 596.259 736.314 596.167 736.412 596.134 C 737.393 595.828 737.921 595.169 738.118 594.013 C 738.161 593.761 738.084 593.515 737.774 593.898 C 737.445 594.304 737.042 594.642 736.491 594.724 C 735.428 594.882 734.337 594.203 734.337 592.99 L 734.337 592.988 C 734.337 592.117 735.041 591.148 735.957 591.216 C 736.02 591.22 736.454 591.314 736.589 591.181 C 736.785 590.992 736.511 590.851 736.491 590.417 L 736.491 590.415 C 736.461 589.384 737.171 588.831 737.963 588.732 L 737.963 588.734 C 737.963 588.732 738.135 588.71 738.212 588.71 C 738.353 588.708 738.465 588.732 738.504 588.734 L 738.504 588.732 C 739.295 588.831 740.005 589.384 739.975 590.415 L 739.975 590.417 C 739.955 590.851 739.683 590.992 739.877 591.181 C 740.012 591.314 740.448 591.22 740.509 591.216 C 741.425 591.148 742.128 592.117 742.128 592.988 L 742.128 592.99 Z " fill="rgb(68,66,71)"/><path d=" M 738.224 588.71 C 738.22 588.71 738.216 588.71 738.212 588.71 C 738.135 588.71 737.963 588.732 737.963 588.734 L 737.963 588.732 C 737.171 588.831 736.461 589.384 736.491 590.415 L 736.491 590.417 C 736.511 590.851 736.785 590.992 736.589 591.181 C 736.454 591.314 736.02 591.22 735.957 591.216 C 735.041 591.148 734.337 592.117 734.337 592.988 L 734.337 592.99 C 734.337 594.203 735.428 594.882 736.491 594.724 C 737.042 594.642 737.445 594.304 737.774 593.898 C 738.084 593.515 738.161 593.761 738.118 594.013 C 737.921 595.169 737.393 595.828 736.412 596.134 C 736.314 596.167 735.901 596.259 736.278 596.259 L 738.224 596.259 L 738.224 588.71 Z " fill="rgb(87,86,90)"/><path d=" M 749.895 649.738 C 749.895 649.738 746.171 648.39 742.704 644.626 L 742.704 640.017 L 749.895 640.017 L 749.895 649.738 Z " fill="rgb(68,66,71)"/><path d=" M 752.851 592.912 L 748.994 587.906 C 748.994 587.906 756.519 582.91 758.037 582.824 C 759.554 582.736 776.709 588.042 776.709 588.042 L 772.836 594.232 L 752.851 592.912 Z " fill="rgb(68,66,71)"/><path d=" M 772.836 586.859 C 772.836 586.859 770.71 593.662 770.161 594.115 C 769.611 594.566 766.812 593.279 766.812 593.279 C 766.812 593.279 768.97 591.144 770.036 586.019 L 772.836 586.859 Z " fill="rgb(166,64,69)"/><path d=" M 742.704 637.726 L 742.704 611.857 C 742.704 611.857 745.956 607.71 752.482 607.097 C 752.482 607.097 752.603 633.3 742.704 637.726 Z " fill="rgb(68,66,71)"/><path d=" M 761.795 608.519 L 765.124 608.519 L 765.124 614.628 L 761.795 614.628 L 761.795 608.519 Z " fill="rgb(48,44,50)"/><path d=" M 755.123 606.41 L 758.451 606.41 L 758.451 612.517 L 755.123 612.517 L 755.123 606.41 Z " fill="rgb(48,44,50)"/><path d=" M 765.148 606.091 L 768.476 606.091 L 768.476 612.201 L 765.148 612.201 L 765.148 606.091 Z " fill="rgb(166,64,69)"/><path d=" M 758.467 608.083 L 761.795 608.083 L 761.795 614.193 L 758.467 614.193 L 758.467 608.083 Z " fill="rgb(166,64,69)"/><path d=" M 768.371 604.251 L 771.7 604.251 L 771.7 610.359 L 768.371 610.359 L 768.371 604.251 Z " fill="rgb(48,44,50)"/><path d=" M 771.724 604.128 L 775.052 604.128 L 775.052 607.931 L 771.724 607.931 L 771.724 604.128 Z " fill="rgb(166,64,69)"/><path d=" M 755.151 604.238 L 755.913 606.96 L 753.354 607.097 L 755.151 604.238 Z " fill="rgb(167,111,73)"/><path d=" M 751.59 607.195 C 751.59 607.195 752.755 624.31 742.704 637.726 C 742.715 638.908 742.722 639.507 742.722 639.507 C 742.722 639.507 748.638 636.726 752.003 625.001 C 755.37 613.275 753.844 607.195 753.844 607.195 L 751.59 607.195 Z " fill="rgb(48,44,50)"/><path d=" M 753.127 607.578 C 753.127 607.578 753.436 618.839 750.657 625.587 C 747.877 632.335 745.943 636.937 742.704 639.478 L 742.704 644.626 C 742.704 644.626 751.835 635.796 754.83 625.851 C 757.824 615.904 757.264 607.204 757.264 607.204 L 753.127 607.578 Z " fill="rgb(69,68,116)"/><path d=" M 752.959 607.279 C 752.959 607.701 753.816 608.044 754.873 608.044 C 755.93 608.044 756.787 607.701 756.787 607.279 C 756.787 606.857 755.93 606.515 754.873 606.515 C 753.816 606.515 752.959 606.857 752.959 607.279 Z " fill="rgb(166,64,69)"/><path d=" M 753.1 608.962 C 753.079 609.374 753.899 609.753 754.932 609.808 C 755.967 609.863 756.823 609.572 756.844 609.16 C 756.867 608.746 756.045 608.367 755.011 608.312 C 753.978 608.257 753.123 608.548 753.1 608.962 Z " fill="rgb(166,64,69)"/><path d=" M 753.129 610.898 C 753.086 611.3 753.87 611.716 754.881 611.826 C 755.891 611.935 756.746 611.695 756.79 611.292 C 756.834 610.888 756.048 610.472 755.039 610.363 C 754.028 610.253 753.173 610.494 753.129 610.898 Z " fill="rgb(166,64,69)"/><path d=" M 753.042 613.046 C 752.976 613.441 753.724 613.892 754.712 614.056 C 755.699 614.22 756.552 614.033 756.618 613.638 C 756.683 613.244 755.935 612.79 754.948 612.626 C 753.96 612.464 753.107 612.652 753.042 613.046 Z " fill="rgb(166,64,69)"/><path d=" M 752.831 615.367 C 752.745 615.753 753.456 616.242 754.419 616.46 C 755.384 616.677 756.236 616.542 756.323 616.156 C 756.41 615.771 755.699 615.283 754.735 615.064 C 753.77 614.847 752.918 614.982 752.831 615.367 Z " fill="rgb(166,64,69)"/><path d=" M 752.493 617.822 C 752.384 618.199 753.058 618.724 754.001 618.996 C 754.941 619.269 755.792 619.185 755.901 618.808 C 756.01 618.433 755.334 617.906 754.394 617.634 C 753.453 617.361 752.602 617.447 752.493 617.822 Z " fill="rgb(166,64,69)"/><path d=" M 752.021 620.371 C 751.89 620.738 752.529 621.298 753.447 621.626 C 754.365 621.953 755.214 621.919 755.345 621.554 C 755.476 621.187 754.837 620.624 753.919 620.298 C 753.001 619.97 752.152 620.003 752.021 620.371 Z " fill="rgb(166,64,69)"/><path d=" M 751.411 622.972 C 751.258 623.329 751.86 623.929 752.755 624.31 C 753.65 624.691 754.499 624.71 754.651 624.353 C 754.803 623.996 754.202 623.396 753.306 623.015 C 752.412 622.634 751.563 622.615 751.411 622.972 Z " fill="rgb(166,64,69)"/><path d=" M 750.657 625.587 C 750.483 625.935 751.048 626.572 751.919 627.007 C 752.792 627.443 753.639 627.513 753.813 627.165 C 753.987 626.818 753.421 626.181 752.549 625.746 C 751.678 625.31 750.831 625.24 750.657 625.587 Z " fill="rgb(166,64,69)"/><path d=" M 749.753 628.177 C 749.558 628.515 750.087 629.189 750.935 629.677 C 751.784 630.167 752.63 630.29 752.826 629.951 C 753.022 629.613 752.493 628.941 751.644 628.451 C 750.795 627.96 749.95 627.837 749.753 628.177 Z " fill="rgb(166,64,69)"/><path d=" M 748.696 630.701 C 748.478 631.031 748.97 631.74 749.796 632.283 C 750.622 632.828 751.466 633.001 751.684 632.671 C 751.902 632.341 751.409 631.634 750.584 631.089 C 749.758 630.544 748.914 630.371 748.696 630.701 Z " fill="rgb(166,64,69)"/><path d=" M 747.478 633.117 C 747.24 633.439 747.695 634.183 748.498 634.783 C 749.299 635.382 750.143 635.607 750.383 635.287 C 750.623 634.966 750.166 634.22 749.365 633.622 C 748.562 633.023 747.717 632.796 747.478 633.117 Z " fill="rgb(166,64,69)"/><path d=" M 746.096 635.39 C 745.835 635.701 746.254 636.482 747.033 637.136 C 747.812 637.79 748.655 638.068 748.917 637.755 C 749.177 637.445 748.757 636.663 747.979 636.009 C 747.2 635.355 746.357 635.079 746.096 635.39 Z " fill="rgb(166,64,69)"/><path d=" M 744.542 637.476 C 744.26 637.779 744.643 638.597 745.399 639.304 C 746.155 640.013 746.997 640.341 747.279 640.04 C 747.562 639.738 747.178 638.919 746.423 638.21 C 745.667 637.503 744.826 637.173 744.542 637.476 Z " fill="rgb(166,64,69)"/><path d=" M 742.814 639.337 C 742.509 639.63 742.856 640.486 743.588 641.247 C 744.321 642.009 745.162 642.39 745.466 642.097 C 745.771 641.806 745.424 640.951 744.692 640.187 C 743.959 639.425 743.119 639.044 742.814 639.337 Z " fill="rgb(166,64,69)"/><path d=" M 762.02 622.171 L 767.31 622.171 L 767.31 616.318 L 762.02 616.318 L 762.02 622.171 Z " fill="rgb(73,93,167)"/><path d=" M 767.083 621.923 L 762.02 621.923 L 762.02 627.232 L 767.083 621.923 Z " fill="rgb(183,151,91)"/><path d=" M 767.265 621.472 L 761.93 621.472 L 761.93 617.128 L 767.265 617.128 L 767.265 621.472 Z " fill="rgb(183,151,91)"/><path d=" M 767.265 616.746 L 762.02 616.746 L 762.02 615.328 L 767.265 612.154 L 767.265 616.746 Z " fill="rgb(183,151,91)"/><path d=" M 760.998 627.738 L 761.201 615.421 L 756.86 612.968 C 756.86 612.968 756.006 623.169 754.976 625.001 C 753.945 626.831 760.998 627.738 760.998 627.738 Z " fill="rgb(68,66,71)"/><path d=" M 760.922 627.775 L 762.211 627.136 L 762.211 614.531 L 760.922 614.531 L 760.922 627.775 Z " fill="rgb(218,226,242)"/><path d=" M 760.506 628.257 L 761.795 627.619 L 761.795 615.013 L 760.506 615.013 L 760.506 628.257 Z " fill="rgb(48,44,50)"/><path d=" M 752.073 632.533 C 752.51 631.429 753.251 630.406 753.798 629.353 C 754.69 627.636 755.326 625.818 755.617 623.925 C 755.643 623.925 755.669 623.923 755.697 623.923 C 758.364 623.923 760.645 625.576 761.576 627.91 C 761.378 628.134 761.186 628.365 760.94 628.572 C 760.497 628.945 759.974 629.24 759.512 629.593 C 758.39 630.454 757.533 631.64 756.278 632.314 C 755.332 632.824 754.326 633.175 753.318 633.54 C 752.886 633.699 752.448 633.855 751.999 633.96 C 751.863 633.939 751.727 633.919 751.59 633.9 C 751.756 633.439 751.899 632.968 752.073 632.533 Z " fill="rgb(48,44,50)"/><path d=" M 752.073 632.533 C 752.51 631.429 753.251 630.406 753.798 629.353 C 754.611 627.787 755.211 626.136 755.532 624.423 C 755.586 624.423 755.641 624.419 755.697 624.419 C 758.242 624.419 760.405 626.05 761.201 628.324 C 761.119 628.41 761.035 628.492 760.94 628.572 C 760.497 628.945 759.974 629.24 759.512 629.593 C 758.39 630.454 757.533 631.64 756.278 632.314 C 755.332 632.824 754.326 633.175 753.318 633.54 C 752.886 633.699 752.448 633.855 751.999 633.96 C 751.863 633.939 751.726 633.919 751.59 633.9 C 751.756 633.439 751.899 632.968 752.073 632.533 Z " fill="rgb(183,151,91)"/><path d=" M 753.798 629.353 C 754.156 628.663 754.47 627.958 754.74 627.24 C 755.042 627.144 755.363 627.091 755.697 627.091 C 757.409 627.091 758.8 628.456 758.851 630.156 C 758.023 630.917 757.276 631.777 756.278 632.314 C 755.676 632.638 755.05 632.898 754.416 633.138 C 753.611 632.781 752.985 632.099 752.703 631.257 C 753.065 630.619 753.467 629.99 753.798 629.353 Z " fill="rgb(73,93,167)"/><path d=" M 773.546 617.792 L 768.368 620.781 L 768.105 611.138 L 773.546 608.142 L 773.546 617.792 Z " fill="rgb(68,66,71)"/><path d=" M 767.083 621.331 L 768.371 621.331 L 768.371 611.574 L 767.083 611.574 L 767.083 621.331 Z " fill="rgb(218,226,242)"/><path d=" M 778.474 605.208 C 778.474 605.208 776.247 603.956 773.948 603.636 L 773.67 617.617 C 773.67 617.617 777.197 616.31 778.782 616.369 L 778.474 605.208 Z " fill="rgb(185,200,230)"/><path d=" M 778.474 605.208 L 779.277 605.513 L 779.277 616.273 L 778.474 616.273 L 778.474 605.208 Z " fill="rgb(117,98,98)"/><path d=" M 779.277 605.513 C 779.277 605.513 780.465 606.007 780.98 606.404 L 780.98 616.124 L 779.277 616.124 L 779.277 605.513 Z " fill="rgb(48,44,50)"/><path d=" M 780.98 606.404 C 780.98 606.404 784.705 607.751 788.171 611.515 L 788.171 616.124 L 780.98 616.124 L 780.98 606.404 Z " fill="rgb(68,66,71)"/><path d=" M 767.56 620.896 L 768.85 620.896 L 768.85 611.138 L 767.56 611.138 L 767.56 620.896 Z " fill="rgb(48,44,50)"/><path d=" M 773.145 603.636 L 773.948 603.636 L 773.948 617.351 L 773.145 617.351 L 773.145 603.636 Z " fill="rgb(117,98,98)"/><path d=" M 752.639 634.132 C 753.124 634.132 753.753 634.037 754.545 633.738 C 757.167 632.744 760.374 630.007 764.074 625.607 C 768.532 620.306 772.914 618.201 775.805 617.367 C 778.932 616.464 782.486 616.632 782.507 616.634 L 782.661 615.773 C 782.569 615.755 778.926 615.564 775.62 616.507 C 772.597 617.369 768.025 619.548 763.404 625.042 C 755.089 634.929 751.919 633.13 751.888 633.111 L 751.393 633.833 C 751.457 633.878 751.853 634.132 752.639 634.132 Z " fill="rgb(164,121,83)"/><path d=" M 773.145 607.587 C 773.145 607.587 762.43 614.576 761.418 614.576 C 760.407 614.576 757.371 612.449 757.371 612.449 L 757.371 613.683 C 757.371 613.683 761.032 616.124 761.508 616.124 C 761.984 616.124 773.145 608.892 773.145 608.892 L 773.145 607.587 Z " fill="rgb(218,226,242)"/><path d=" M 771.948 604.238 C 771.948 604.238 762.892 610.894 761.607 610.894 C 760.322 610.894 756.594 607.566 756.594 607.566 L 771.948 604.238 Z " fill="rgb(183,151,91)"/><path d=" M 773.145 606.738 C 773.145 606.738 762.43 613.845 761.418 613.845 C 760.407 613.845 757.371 611.449 757.371 611.449 L 757.371 612.648 C 757.371 612.648 761.032 615.013 761.508 615.013 C 761.984 615.013 773.145 608.003 773.145 608.003 L 773.145 606.738 Z " fill="rgb(183,151,91)"/><path d=" M 757.663 608.058 C 757.663 608.058 757.689 619.365 755.043 626.822 C 752.399 634.281 745.742 644.767 743.785 645.72 L 742.704 644.626 C 742.704 644.626 747.388 640.765 754.091 626.273 C 755.836 619.099 755.896 622.203 756.74 607.587 C 757.583 592.97 757.663 608.058 757.663 608.058 Z " fill="rgb(164,121,83)"/><path d=" M 765.995 606.738 C 765.995 606.738 762.291 609.462 761.503 609.462 C 760.716 609.462 759.037 607.929 759.037 607.929 C 759.037 607.929 764.164 604.511 765.573 604.994 C 766.982 605.476 765.995 606.738 765.995 606.738 Z " fill="rgb(206,214,231)"/><path d=" M 755.68 593.378 C 755.68 593.378 753.932 595.122 754.378 599.652 C 754.825 604.181 755.202 608.718 751.888 607.333 C 748.575 605.949 751.439 602.419 753.438 604.283 C 753.438 604.283 753.427 602.05 753.138 599.111 C 752.848 596.171 753.06 593.357 755.68 593.378 Z " fill="rgb(202,131,78)"/><path d=" M 753.929 594.115 C 753.929 594.115 753.443 596.837 753.929 597.394 C 754.416 597.949 753.963 598.81 753.929 599.474 C 753.894 600.138 753.199 605.732 757.021 607.747 C 760.843 609.763 760.531 606.978 765.221 605.208 C 765.221 605.208 765.951 594.3 762.754 593.398 C 762.754 593.398 756.396 592.849 753.929 594.115 Z " fill="rgb(218,226,242)"/><path d=" M 769.541 594.814 C 769.541 594.814 770.781 595.829 770.781 598.783 C 770.781 601.738 772.312 604.826 774.365 603.722 C 776.417 602.615 774.342 600.519 773.169 601.849 C 773.169 601.849 773.035 600.406 773.035 598.488 C 773.035 596.572 771.962 594.335 769.541 594.814 Z " fill="rgb(163,109,72)"/><path d=" M 768.363 594.126 C 768.363 594.126 769.797 595.302 769.797 598.72 C 769.797 602.138 770.568 605.728 772.943 604.449 C 775.318 603.169 772.917 600.742 771.56 602.283 C 771.56 602.283 771.403 600.611 771.403 598.394 C 771.403 596.175 770.32 593.917 768.363 594.126 Z " fill="rgb(167,111,73)"/><path d=" M 766.812 593.755 C 766.812 593.755 768.173 596.158 768.173 599.835 C 768.173 603.513 769.2 606.22 771.754 604.845 C 774.309 603.468 771.727 600.857 770.267 602.513 C 770.267 602.513 770.098 600.718 770.098 598.331 C 770.098 595.945 768.917 593.531 766.812 593.755 Z " fill="rgb(172,114,74)"/><path d=" M 765.573 593.572 C 765.573 593.572 766.542 595.203 766.542 599.304 C 766.542 603.406 767.357 607.283 770.206 605.747 C 773.054 604.214 770.174 601.304 768.546 603.15 C 768.546 603.15 768.358 601.146 768.358 598.486 C 768.358 595.826 767.92 593.322 765.573 593.572 Z " fill="rgb(177,117,75)"/><path d=" M 763.93 593.392 C 763.93 593.392 765.767 594.896 765.767 599.271 C 765.767 603.648 765.834 608.023 768.874 606.386 C 771.914 604.749 768.84 601.642 767.104 603.615 C 767.104 603.615 766.903 601.476 766.903 598.636 C 766.903 595.798 766.435 593.126 763.93 593.392 Z " fill="rgb(182,120,76)"/><path d=" M 762.754 593.398 C 762.754 593.398 764.666 594.96 764.666 599.513 C 764.666 604.064 764.734 608.617 767.896 606.913 C 771.058 605.21 767.862 601.98 766.055 604.031 C 766.055 604.031 765.847 601.806 765.847 598.853 C 765.847 595.9 765.361 593.121 762.754 593.398 Z " fill="rgb(202,131,78)"/><path d=" M 772.387 596.031 C 772.387 596.031 765.211 592.072 753.542 594.593 L 752.851 592.912 C 752.851 592.912 761.896 589.367 772.836 594.232 L 772.387 596.031 Z " fill="rgb(68,66,71)"/><path d=" M 756.842 597.028 C 756.842 597.028 756.652 596.989 756.366 596.967 C 756.223 596.953 756.056 596.947 755.878 596.945 C 755.702 596.932 755.514 596.958 755.329 596.971 C 755.144 596.99 754.973 597.06 754.807 597.085 C 754.654 597.141 754.506 597.178 754.371 597.209 C 754.151 597.334 753.943 597.406 753.943 597.406 L 753.916 597.382 C 753.916 597.382 754.004 597.207 754.233 596.968 C 754.367 596.894 754.529 596.796 754.716 596.732 C 754.908 596.711 755.114 596.678 755.314 596.692 C 756.123 596.7 756.852 596.995 756.852 596.995 L 756.842 597.028 Z " fill="rgb(202,131,78)"/><path d=" M 760.04 596.995 C 760.04 596.995 760.769 596.7 761.578 596.692 C 761.778 596.678 761.984 596.711 762.175 596.732 C 762.363 596.796 762.525 596.894 762.659 596.967 C 762.887 597.206 762.976 597.382 762.976 597.382 L 762.949 597.406 C 762.949 597.406 762.741 597.334 762.521 597.209 C 762.385 597.178 762.238 597.14 762.084 597.085 C 761.918 597.06 761.748 596.99 761.563 596.971 C 761.377 596.958 761.191 596.932 761.013 596.945 C 760.835 596.947 760.668 596.953 760.526 596.967 C 760.24 596.99 760.049 597.028 760.049 597.028 L 760.04 596.995 Z " fill="rgb(202,131,78)"/><path d=" M 759.048 598.319 C 759.048 598.319 759.238 598.481 759.571 598.63 C 759.65 598.673 759.749 598.694 759.845 598.73 C 759.944 598.761 760.042 598.806 760.156 598.818 C 760.377 598.86 760.61 598.904 760.849 598.882 C 761.086 598.893 761.318 598.843 761.534 598.793 C 761.753 598.768 761.96 598.748 762.132 598.689 C 762.483 598.609 762.747 598.593 762.747 598.593 L 762.762 598.624 C 762.762 598.624 762.563 598.779 762.217 598.954 C 762.048 599.051 761.835 599.124 761.592 599.154 C 761.352 599.196 761.094 599.205 760.836 599.162 C 760.578 599.157 760.33 599.083 760.1 599.013 C 759.872 598.947 759.676 598.829 759.512 598.738 C 759.191 598.535 759.025 598.344 759.025 598.344 L 759.048 598.319 Z " fill="rgb(69,71,97)"/><path d=" M 756.755 598.344 C 756.755 598.345 756.636 598.483 756.408 598.635 C 756.294 598.712 756.152 598.79 755.992 598.857 C 755.827 598.908 755.652 598.986 755.463 598.997 C 755.277 599.035 755.087 599.058 754.91 599.028 C 754.732 599.007 754.572 598.963 754.449 598.888 C 754.198 598.752 754.062 598.624 754.061 598.624 L 754.077 598.593 C 754.076 598.593 754.276 598.581 754.528 598.621 C 754.651 598.658 754.8 598.648 754.954 598.665 C 755.105 598.704 755.269 598.722 755.438 598.718 C 755.608 598.735 755.771 598.687 755.93 598.663 C 756.083 598.622 756.229 598.579 756.348 598.528 C 756.59 598.428 756.732 598.319 756.732 598.319 L 756.755 598.344 Z " fill="rgb(69,71,97)"/><path d=" M 757.421 597.773 C 757.421 597.773 757.493 598.285 757.478 599.059 C 757.471 599.447 757.435 599.899 757.342 600.38 C 757.295 600.62 757.211 600.861 757.143 601.111 C 757.035 601.341 756.924 601.576 756.814 601.809 C 756.703 602.047 756.734 602.192 756.878 602.349 C 757.024 602.485 757.232 602.573 757.443 602.62 C 757.655 602.667 757.87 602.68 758.072 602.665 C 758.272 602.654 758.466 602.617 758.62 602.539 C 758.778 602.472 758.92 602.387 759.006 602.277 C 759.116 602.179 759.153 602.056 759.211 601.965 C 759.275 601.763 759.296 601.632 759.296 601.632 L 759.332 601.632 C 759.332 601.632 759.343 601.76 759.328 601.996 C 759.295 602.11 759.275 602.264 759.166 602.399 C 759.08 602.546 758.929 602.69 758.746 602.787 C 758.565 602.899 758.343 602.963 758.109 603 C 757.873 603.044 757.619 603.022 757.361 602.976 C 757.107 602.907 756.839 602.797 756.632 602.569 C 756.587 602.503 756.542 602.438 756.503 602.37 L 756.447 602.131 C 756.453 601.96 756.494 601.783 756.56 601.691 C 756.68 601.467 756.8 601.243 756.919 601.022 C 756.995 600.788 757.087 600.563 757.145 600.334 C 757.254 599.874 757.323 599.434 757.356 599.053 C 757.421 598.289 757.386 597.777 757.386 597.777 L 757.421 597.773 Z " fill="rgb(69,71,97)"/><path d=" M 760.322 604.255 C 760.322 604.255 759.28 604.332 758.237 604.378 C 757.715 604.423 757.194 604.437 756.803 604.376 C 756.413 604.331 756.152 604.255 756.152 604.255 L 756.152 604.22 C 756.152 604.22 756.413 604.144 756.803 604.099 C 757.194 604.038 757.715 604.052 758.237 604.097 C 759.28 604.143 760.322 604.22 760.322 604.22 L 760.322 604.255 Z " fill="rgb(69,71,97)"/><path d=" M 758.758 605.226 C 758.758 605.226 758.385 605.303 758.011 605.349 C 757.825 605.394 757.637 605.408 757.498 605.347 C 757.358 605.302 757.264 605.226 757.264 605.226 L 757.264 605.191 C 757.264 605.191 757.358 605.115 757.498 605.07 C 757.637 605.009 757.825 605.023 758.011 605.068 C 758.385 605.114 758.758 605.191 758.758 605.191 L 758.758 605.226 Z " fill="rgb(69,71,97)"/><path d=" M 778.024 663.232 L 781.882 668.238 C 781.882 668.238 774.357 673.232 772.839 673.32 C 771.321 673.408 754.167 668.099 754.167 668.099 L 758.04 661.91 L 778.024 663.232 Z " fill="rgb(68,66,71)"/><path d=" M 758.04 669.283 C 758.04 669.283 760.165 662.48 760.715 662.027 C 761.265 661.576 764.064 662.863 764.064 662.863 C 764.064 662.863 761.906 664.999 760.84 670.122 L 758.04 669.283 Z " fill="rgb(166,64,69)"/><path d=" M 788.171 618.417 L 788.171 644.287 C 788.171 644.287 784.919 648.431 778.394 649.044 C 778.394 649.044 778.273 622.841 788.171 618.417 Z " fill="rgb(68,66,71)"/><path d=" M 769.081 647.622 L 765.752 647.622 L 765.752 641.515 L 769.081 641.515 L 769.081 647.622 Z " fill="rgb(48,44,50)"/><path d=" M 775.752 649.734 L 772.424 649.734 L 772.424 643.624 L 775.752 643.624 L 775.752 649.734 Z " fill="rgb(48,44,50)"/><path d=" M 765.727 650.05 L 762.399 650.05 L 762.399 643.941 L 765.727 643.941 L 765.727 650.05 Z " fill="rgb(166,64,69)"/><path d=" M 772.409 648.058 L 769.081 648.058 L 769.081 641.949 L 772.409 641.949 L 772.409 648.058 Z " fill="rgb(166,64,69)"/><path d=" M 762.504 651.892 L 759.176 651.892 L 759.176 645.783 L 762.504 645.783 L 762.504 651.892 Z " fill="rgb(48,44,50)"/><path d=" M 759.152 652.013 L 755.824 652.013 L 755.824 648.21 L 759.152 648.21 L 759.152 652.013 Z " fill="rgb(166,64,69)"/><path d=" M 775.724 651.904 L 774.963 649.183 L 777.521 649.044 L 775.724 651.904 Z " fill="rgb(167,111,73)"/><path d=" M 779.286 648.947 C 779.286 648.947 778.121 631.831 788.171 618.417 C 788.16 617.234 788.154 616.634 788.154 616.634 C 788.154 616.634 782.238 619.415 778.872 631.142 C 775.505 642.867 777.031 648.947 777.031 648.947 L 779.286 648.947 Z " fill="rgb(48,44,50)"/><path d=" M 777.749 648.564 C 777.749 648.564 777.439 637.302 780.218 630.554 C 782.998 623.806 784.933 619.204 788.171 616.663 L 788.171 611.515 C 788.171 611.515 783.174 612.531 776.046 630.29 C 773.051 640.238 773.612 648.937 773.612 648.937 L 777.749 648.564 Z " fill="rgb(69,68,116)"/><path d=" M 777.917 648.863 C 777.917 648.441 777.06 648.097 776.002 648.097 C 774.946 648.097 774.088 648.441 774.088 648.863 C 774.088 649.285 774.946 649.628 776.002 649.628 C 777.06 649.628 777.917 649.285 777.917 648.863 Z " fill="rgb(166,64,69)"/><path d=" M 777.775 647.179 C 777.797 646.767 776.977 646.388 775.943 646.333 C 774.909 646.279 774.053 646.57 774.032 646.982 C 774.009 647.396 774.831 647.775 775.864 647.829 C 776.898 647.884 777.754 647.593 777.775 647.179 Z " fill="rgb(166,64,69)"/><path d=" M 777.747 645.246 C 777.791 644.841 777.005 644.425 775.995 644.316 C 774.984 644.206 774.129 644.447 774.086 644.851 C 774.042 645.253 774.827 645.669 775.837 645.779 C 776.848 645.888 777.703 645.648 777.747 645.246 Z " fill="rgb(166,64,69)"/><path d=" M 777.834 643.097 C 777.899 642.701 777.152 642.249 776.165 642.085 C 775.176 641.921 774.323 642.111 774.257 642.505 C 774.193 642.9 774.94 643.351 775.927 643.515 C 776.916 643.679 777.769 643.492 777.834 643.097 Z " fill="rgb(166,64,69)"/><path d=" M 778.044 640.775 C 778.131 640.388 777.42 639.9 776.457 639.683 C 775.492 639.464 774.639 639.601 774.552 639.986 C 774.465 640.371 775.176 640.861 776.141 641.078 C 777.106 641.296 777.958 641.16 778.044 640.775 Z " fill="rgb(166,64,69)"/><path d=" M 778.383 638.32 C 778.492 637.943 777.817 637.417 776.876 637.146 C 775.935 636.874 775.084 636.958 774.975 637.333 C 774.866 637.71 775.541 638.236 776.482 638.507 C 777.423 638.781 778.274 638.697 778.383 638.32 Z " fill="rgb(166,64,69)"/><path d=" M 778.854 635.771 C 778.985 635.404 778.347 634.843 777.429 634.515 C 776.511 634.189 775.661 634.222 775.531 634.587 C 775.4 634.954 776.039 635.517 776.956 635.845 C 777.875 636.171 778.724 636.138 778.854 635.771 Z " fill="rgb(166,64,69)"/><path d=" M 779.465 633.169 C 779.617 632.812 779.015 632.214 778.121 631.831 C 777.226 631.451 776.376 631.433 776.225 631.788 C 776.073 632.148 776.674 632.746 777.569 633.126 C 778.463 633.507 779.313 633.527 779.465 633.169 Z " fill="rgb(166,64,69)"/><path d=" M 780.218 630.554 C 780.393 630.206 779.828 629.57 778.956 629.136 C 778.084 628.699 777.237 628.628 777.063 628.978 C 776.889 629.326 777.455 629.96 778.326 630.396 C 779.197 630.831 780.044 630.902 780.218 630.554 Z " fill="rgb(166,64,69)"/><path d=" M 781.122 627.964 C 781.318 627.626 780.789 626.954 779.94 626.464 C 779.092 625.974 778.246 625.851 778.05 626.191 C 777.854 626.529 778.383 627.201 779.231 627.691 C 780.08 628.181 780.926 628.304 781.122 627.964 Z " fill="rgb(166,64,69)"/><path d=" M 782.18 625.441 C 782.398 625.111 781.905 624.404 781.08 623.859 C 780.254 623.314 779.41 623.14 779.192 623.47 C 778.974 623.8 779.466 624.507 780.292 625.052 C 781.117 625.597 781.962 625.771 782.18 625.441 Z " fill="rgb(166,64,69)"/><path d=" M 783.397 623.025 C 783.636 622.703 783.18 621.958 782.377 621.359 C 781.577 620.759 780.732 620.535 780.493 620.855 C 780.253 621.175 780.709 621.921 781.511 622.521 C 782.314 623.119 783.158 623.345 783.397 623.025 Z " fill="rgb(166,64,69)"/><path d=" M 784.78 620.751 C 785.041 620.441 784.622 619.66 783.842 619.005 C 783.064 618.353 782.22 618.076 781.959 618.386 C 781.699 618.697 782.119 619.48 782.897 620.132 C 783.675 620.787 784.519 621.064 784.78 620.751 Z " fill="rgb(166,64,69)"/><path d=" M 786.333 618.665 C 786.616 618.363 786.232 617.544 785.476 616.837 C 784.721 616.13 783.879 615.8 783.596 616.103 C 783.314 616.404 783.697 617.222 784.453 617.931 C 785.209 618.638 786.05 618.968 786.333 618.665 Z " fill="rgb(166,64,69)"/><path d=" M 788.061 616.804 C 788.366 616.511 788.019 615.656 787.287 614.894 C 786.554 614.132 785.714 613.751 785.409 614.044 C 785.104 614.337 785.452 615.193 786.183 615.954 C 786.916 616.716 787.756 617.097 788.061 616.804 Z " fill="rgb(166,64,69)"/><path d=" M 768.855 633.972 L 763.566 633.972 L 763.566 639.824 L 768.855 639.824 L 768.855 633.972 Z " fill="rgb(73,93,167)"/><path d=" M 763.793 634.218 L 768.855 634.218 L 768.855 628.91 L 763.793 634.218 Z " fill="rgb(183,151,91)"/><path d=" M 763.611 634.669 L 768.946 634.669 L 768.946 639.013 L 763.611 639.013 L 763.611 634.669 Z " fill="rgb(183,151,91)"/><path d=" M 763.611 639.396 L 768.855 639.396 L 768.855 640.814 L 763.611 643.988 L 763.611 639.396 Z " fill="rgb(183,151,91)"/><path d=" M 769.878 628.404 L 769.674 640.72 L 774.016 643.173 C 774.016 643.173 774.869 632.972 775.9 631.142 C 776.931 629.31 769.878 628.404 769.878 628.404 Z " fill="rgb(68,66,71)"/><path d=" M 769.954 628.367 L 768.664 629.005 L 768.664 641.611 L 769.954 641.611 L 769.954 628.367 Z " fill="rgb(218,226,242)"/><path d=" M 770.37 627.884 L 769.081 628.523 L 769.081 641.128 L 770.37 641.128 L 770.37 627.884 Z " fill="rgb(48,44,50)"/><path d=" M 778.802 623.611 C 778.366 624.712 777.625 625.736 777.077 626.79 C 776.186 628.507 775.55 630.326 775.259 632.216 C 775.233 632.216 775.207 632.218 775.179 632.218 C 772.511 632.218 770.231 630.568 769.299 628.232 C 769.498 628.007 769.69 627.777 769.936 627.57 C 770.378 627.197 770.901 626.902 771.363 626.548 C 772.485 625.689 773.343 624.503 774.598 623.828 C 775.544 623.32 776.55 622.966 777.557 622.601 C 777.99 622.443 778.428 622.287 778.877 622.181 C 779.013 622.203 779.149 622.222 779.286 622.242 C 779.12 622.703 778.976 623.173 778.802 623.611 Z " fill="rgb(48,44,50)"/><path d=" M 778.802 623.611 C 778.366 624.712 777.625 625.736 777.077 626.79 C 776.265 628.355 775.665 630.005 775.344 631.718 C 775.29 631.72 775.235 631.722 775.179 631.722 C 772.634 631.722 770.471 630.091 769.674 627.818 C 769.756 627.732 769.841 627.65 769.936 627.57 C 770.378 627.197 770.901 626.902 771.363 626.548 C 772.485 625.689 773.343 624.503 774.598 623.828 C 775.544 623.32 776.55 622.966 777.557 622.601 C 777.99 622.443 778.428 622.287 778.877 622.181 C 779.013 622.203 779.149 622.222 779.286 622.242 C 779.12 622.703 778.976 623.173 778.802 623.611 Z " fill="rgb(183,151,91)"/><path d=" M 777.077 626.79 C 776.72 627.478 776.405 628.183 776.135 628.902 C 775.834 628.997 775.512 629.05 775.179 629.05 C 773.466 629.05 772.076 627.685 772.025 625.986 C 772.853 625.224 773.6 624.365 774.598 623.828 C 775.2 623.503 775.826 623.244 776.46 623.003 C 777.264 623.361 777.891 624.042 778.173 624.884 C 777.81 625.525 777.409 626.152 777.077 626.79 Z " fill="rgb(73,93,167)"/><path d=" M 757.33 638.349 L 762.507 635.361 L 762.77 645.003 L 757.33 647.999 L 757.33 638.349 Z " fill="rgb(68,66,71)"/><path d=" M 763.793 634.81 L 762.504 634.81 L 762.504 644.568 L 763.793 644.568 L 763.793 634.81 Z " fill="rgb(218,226,242)"/><path d=" M 752.402 650.933 C 752.402 650.933 754.629 652.185 756.928 652.505 L 757.206 638.525 C 757.206 638.525 753.679 639.833 752.094 639.773 L 752.402 650.933 Z " fill="rgb(185,200,230)"/><path d=" M 752.402 650.933 L 751.599 650.628 L 751.599 639.869 L 752.402 639.869 L 752.402 650.933 Z " fill="rgb(117,98,98)"/><path d=" M 751.599 650.628 C 751.599 650.628 750.411 650.134 749.895 649.738 L 749.895 640.017 L 751.599 640.017 L 751.599 650.628 Z " fill="rgb(48,44,50)"/><path d=" M 763.315 635.246 L 762.026 635.246 L 762.026 645.003 L 763.315 645.003 L 763.315 635.246 Z " fill="rgb(48,44,50)"/><path d=" M 757.73 652.505 L 756.928 652.505 L 756.928 638.792 L 757.73 638.792 L 757.73 652.505 Z " fill="rgb(117,98,98)"/><path d=" M 778.236 622.009 C 777.753 622.009 777.123 622.105 776.331 622.406 C 773.709 623.398 770.502 626.134 766.801 630.535 C 762.343 635.835 757.961 637.943 755.071 638.777 C 751.944 639.679 748.544 639.261 748.523 639.257 L 748.37 640.121 C 748.462 640.138 751.949 640.578 755.256 639.634 C 758.279 638.773 762.851 636.593 767.472 631.099 C 775.787 621.212 778.957 623.013 778.987 623.031 L 779.483 622.308 C 779.418 622.263 779.023 622.009 778.236 622.009 Z " fill="rgb(164,121,83)"/><path d=" M 757.73 648.554 C 757.73 648.554 768.446 641.566 769.457 641.566 C 770.468 641.566 773.504 643.693 773.504 643.693 L 773.504 642.456 C 773.504 642.456 769.844 640.017 769.368 640.017 C 768.891 640.017 757.73 647.249 757.73 647.249 L 757.73 648.554 Z " fill="rgb(218,226,242)"/><path d=" M 758.928 651.904 C 758.928 651.904 767.984 645.247 769.269 645.247 C 770.554 645.247 774.281 648.576 774.281 648.576 L 758.928 651.904 Z " fill="rgb(183,151,91)"/><path d=" M 757.73 649.404 C 757.73 649.404 768.446 642.296 769.457 642.296 C 770.468 642.296 773.504 644.693 773.504 644.693 L 773.504 643.494 C 773.504 643.494 769.844 641.128 769.368 641.128 C 768.891 641.128 757.73 648.138 757.73 648.138 L 757.73 649.404 Z " fill="rgb(183,151,91)"/><path d=" M 773.212 648.083 C 773.212 648.083 773.188 636.777 775.833 629.32 C 778.477 621.863 784.523 611.488 787.239 610.562 L 788.171 611.515 C 785.828 612.701 778.209 624.232 776.784 629.869 C 775.039 637.042 774.98 633.939 774.136 648.554 C 773.293 663.171 773.212 648.083 773.212 648.083 Z " fill="rgb(164,121,83)"/><path d=" M 764.881 649.404 C 764.881 649.404 768.584 646.679 769.373 646.679 C 770.16 646.679 771.839 648.212 771.839 648.212 C 771.839 648.212 766.711 651.63 765.303 651.148 C 763.894 650.665 764.881 649.404 764.881 649.404 Z " fill="rgb(206,214,231)"/><path d=" M 775.195 662.763 C 775.195 662.763 776.944 661.019 776.498 656.49 C 776.051 651.96 775.673 647.423 778.988 648.808 C 782.301 650.193 779.437 653.722 777.438 651.859 C 777.438 651.859 777.449 654.091 777.738 657.031 C 778.027 659.97 777.816 662.785 775.195 662.763 Z " fill="rgb(202,131,78)"/><path d=" M 776.947 662.027 C 776.947 662.027 777.433 659.304 776.947 658.749 C 776.46 658.193 776.912 657.331 776.947 656.667 C 776.981 656.003 777.676 650.41 773.855 648.394 C 770.032 646.378 770.345 649.163 765.655 650.933 C 765.655 650.933 764.924 661.841 768.122 662.744 C 768.122 662.744 774.48 663.292 776.947 662.027 Z " fill="rgb(218,226,242)"/><path d=" M 761.335 661.328 C 761.335 661.328 760.095 660.314 760.095 657.359 C 760.095 654.404 758.563 651.316 756.51 652.421 C 754.459 653.527 756.534 655.624 757.706 654.292 C 757.706 654.292 757.842 655.736 757.842 657.654 C 757.842 659.57 758.914 661.806 761.335 661.328 Z " fill="rgb(163,109,72)"/><path d=" M 762.513 662.015 C 762.513 662.015 761.078 660.839 761.078 657.421 C 761.078 654.003 760.308 650.415 757.932 651.693 C 755.558 652.972 757.959 655.4 759.316 653.859 C 759.316 653.859 759.473 655.529 759.473 657.747 C 759.473 659.966 760.555 662.224 762.513 662.015 Z " fill="rgb(167,111,73)"/><path d=" M 764.064 662.386 C 764.064 662.386 762.703 659.984 762.703 656.306 C 762.703 652.628 761.676 649.921 759.121 651.298 C 756.566 652.673 759.149 655.285 760.609 653.628 C 760.609 653.628 760.777 655.423 760.777 657.81 C 760.777 660.197 761.959 662.611 764.064 662.386 Z " fill="rgb(172,114,74)"/><path d=" M 765.303 662.572 C 765.303 662.572 764.334 660.939 764.334 656.837 C 764.334 652.736 763.519 648.859 760.669 650.394 C 757.822 651.927 760.701 654.839 762.33 652.992 C 762.33 652.992 762.517 654.996 762.517 657.656 C 762.517 660.316 762.956 662.822 765.303 662.572 Z " fill="rgb(177,117,75)"/><path d=" M 766.946 662.749 C 766.946 662.749 765.109 661.246 765.109 656.871 C 765.109 652.494 765.042 648.119 762.001 649.755 C 758.962 651.392 762.036 654.499 763.772 652.527 C 763.772 652.527 763.972 654.665 763.972 657.505 C 763.972 660.343 764.44 663.017 766.946 662.749 Z " fill="rgb(182,120,76)"/><path d=" M 768.122 662.744 C 768.122 662.744 766.21 661.181 766.21 656.628 C 766.21 652.078 766.141 647.525 762.979 649.228 C 759.817 650.931 763.014 654.162 764.821 652.113 C 764.821 652.113 765.029 654.335 765.029 657.288 C 765.029 660.244 765.515 663.023 768.122 662.744 Z " fill="rgb(202,131,78)"/><path d=" M 758.489 660.111 C 758.489 660.111 765.664 664.07 777.334 661.548 L 778.024 663.232 C 778.024 663.232 768.979 666.775 758.04 661.91 L 758.489 660.111 Z " fill="rgb(68,66,71)"/><path d=" M 774.033 659.114 C 774.033 659.114 774.223 659.152 774.509 659.174 C 774.652 659.189 774.819 659.195 774.997 659.197 C 775.174 659.21 775.361 659.183 775.546 659.17 C 775.732 659.153 775.902 659.082 776.069 659.057 C 776.221 659.002 776.37 658.964 776.504 658.933 C 776.725 658.809 776.933 658.738 776.933 658.738 L 776.96 658.761 C 776.96 658.761 776.872 658.937 776.642 659.175 C 776.508 659.248 776.346 659.347 776.159 659.411 C 775.967 659.431 775.761 659.463 775.561 659.451 C 774.752 659.442 774.023 659.147 774.023 659.147 L 774.033 659.114 Z " fill="rgb(202,131,78)"/><path d=" M 770.836 659.147 C 770.836 659.147 770.107 659.442 769.298 659.451 C 769.098 659.463 768.892 659.431 768.701 659.411 C 768.513 659.347 768.351 659.248 768.217 659.175 C 767.988 658.937 767.899 658.761 767.899 658.761 L 767.926 658.738 C 767.926 658.738 768.134 658.809 768.354 658.933 C 768.49 658.964 768.638 659.002 768.791 659.057 C 768.958 659.082 769.127 659.153 769.313 659.17 C 769.499 659.183 769.685 659.21 769.863 659.197 C 770.041 659.195 770.208 659.189 770.35 659.174 C 770.636 659.152 770.827 659.114 770.827 659.114 L 770.836 659.147 Z " fill="rgb(202,131,78)"/><path d=" M 771.828 657.823 C 771.828 657.823 771.638 657.662 771.305 657.512 C 771.226 657.469 771.126 657.448 771.031 657.412 C 770.932 657.381 770.834 657.335 770.719 657.325 C 770.499 657.283 770.266 657.239 770.027 657.26 C 769.79 657.249 769.558 657.298 769.342 657.349 C 769.123 657.373 768.916 657.394 768.744 657.453 C 768.393 657.533 768.129 657.548 768.129 657.548 L 768.114 657.517 C 768.114 657.517 768.314 657.363 768.659 657.188 C 768.828 657.091 769.041 657.018 769.284 656.989 C 769.524 656.947 769.782 656.936 770.04 656.98 C 770.298 656.986 770.546 657.059 770.775 657.129 C 771.004 657.195 771.2 657.314 771.364 657.404 C 771.685 657.607 771.851 657.797 771.851 657.797 L 771.828 657.823 Z " fill="rgb(69,71,97)"/><path d=" M 774.121 657.797 C 774.121 657.796 774.24 657.659 774.468 657.506 C 774.581 657.429 774.724 657.35 774.884 657.285 C 775.049 657.234 775.224 657.156 775.413 657.144 C 775.599 657.106 775.789 657.083 775.966 657.114 C 776.144 657.134 776.304 657.179 776.427 657.253 C 776.678 657.389 776.814 657.517 776.815 657.517 L 776.799 657.548 C 776.799 657.548 776.6 657.56 776.348 657.521 C 776.225 657.484 776.076 657.494 775.922 657.476 C 775.771 657.437 775.607 657.419 775.438 657.423 C 775.268 657.407 775.105 657.454 774.946 657.478 C 774.793 657.519 774.647 657.563 774.528 657.614 C 774.286 657.713 774.144 657.823 774.144 657.823 L 774.121 657.797 Z " fill="rgb(69,71,97)"/><path d=" M 773.455 658.369 C 773.455 658.369 773.383 657.857 773.398 657.082 C 773.405 656.695 773.44 656.243 773.533 655.762 C 773.58 655.522 773.665 655.281 773.732 655.031 C 773.841 654.8 773.952 654.567 774.062 654.332 C 774.172 654.094 774.142 653.951 773.998 653.793 C 773.851 653.658 773.643 653.57 773.432 653.522 C 773.22 653.475 773.005 653.462 772.803 653.476 C 772.603 653.489 772.409 653.525 772.255 653.603 C 772.098 653.669 771.955 653.754 771.869 653.865 C 771.759 653.962 771.722 654.085 771.664 654.176 C 771.6 654.378 771.579 654.509 771.579 654.509 L 771.543 654.509 C 771.543 654.509 771.532 654.381 771.547 654.145 C 771.58 654.032 771.6 653.878 771.709 653.743 C 771.795 653.595 771.946 653.453 772.129 653.355 C 772.31 653.243 772.532 653.179 772.766 653.142 C 773.002 653.098 773.256 653.121 773.514 653.166 C 773.768 653.235 774.036 653.345 774.243 653.573 C 774.288 653.638 774.334 653.704 774.373 653.772 L 774.429 654.011 C 774.423 654.181 774.382 654.359 774.316 654.451 C 774.196 654.675 774.075 654.899 773.957 655.12 C 773.881 655.353 773.789 655.579 773.731 655.807 C 773.621 656.267 773.553 656.707 773.52 657.089 C 773.454 657.852 773.49 658.365 773.49 658.365 L 773.455 658.369 Z " fill="rgb(69,71,97)"/><path d=" M 770.553 651.886 C 770.553 651.886 771.596 651.809 772.638 651.763 C 773.16 651.718 773.68 651.704 774.072 651.765 C 774.462 651.81 774.723 651.886 774.723 651.886 L 774.723 651.921 C 774.723 651.921 774.462 651.997 774.072 652.042 C 773.68 652.103 773.16 652.089 772.638 652.044 C 771.596 651.998 770.553 651.921 770.553 651.921 L 770.553 651.886 Z " fill="rgb(69,71,97)"/><path d=" M 772.118 650.915 C 772.118 650.915 772.491 650.838 772.865 650.792 C 773.051 650.747 773.239 650.734 773.378 650.794 C 773.518 650.839 773.612 650.915 773.612 650.915 L 773.612 650.951 C 773.612 650.951 773.518 651.027 773.378 651.072 C 773.239 651.132 773.051 651.119 772.865 651.074 C 772.491 651.028 772.118 650.951 772.118 650.951 L 772.118 650.915 Z " fill="rgb(69,71,97)"/></g></svg>