<?xml version="1.0" encoding="UTF-8" standalone="no"?><!-- Generator: Gravit.io --><svg xmlns="http://www.w3.org/2000/svg" xmlns:xlink="http://www.w3.org/1999/xlink" style="isolation:isolate" viewBox="119.2 537.401 69.123 103.686" width="69.123pt" height="103.686pt"><g><path d=" M 188.323 638.364 C 188.323 639.868 187.105 641.087 185.602 641.087 L 121.922 641.087 C 120.419 641.087 119.2 639.868 119.2 638.364 L 119.2 540.124 C 119.2 538.62 120.419 537.401 121.922 537.401 L 185.602 537.401 C 187.105 537.401 188.323 538.62 188.323 540.124 L 188.323 638.364 Z " fill="rgb(234,232,232)"/><path d=" M 130.011 548.136 C 129.39 548.027 128.596 547.853 127.866 547.668 L 127.866 547.624 C 129.086 547.189 129.956 545.992 129.956 544.097 C 129.956 541.931 128.661 540.385 126.658 540.385 C 124.677 540.385 123.251 541.899 123.251 544.25 C 123.251 546.623 124.731 547.907 126.484 547.973 C 126.625 547.973 126.767 548.027 126.93 548.082 C 127.779 548.376 128.748 548.669 129.739 548.931 L 130.011 548.136 Z  M 126.604 547.2 C 125.101 547.2 124.252 545.796 124.252 544.228 C 124.252 542.639 125.036 541.158 126.636 541.158 C 128.193 541.158 128.955 542.671 128.955 544.152 C 128.955 545.817 128.106 547.2 126.604 547.2 Z " fill="rgb(68,66,71)"/><path d=" M 177.513 630.354 C 178.134 630.463 178.928 630.637 179.658 630.822 L 179.658 630.866 C 178.438 631.301 177.568 632.498 177.568 634.393 C 177.568 636.559 178.863 638.105 180.866 638.105 C 182.847 638.105 184.273 636.591 184.273 634.24 C 184.273 631.867 182.793 630.583 181.04 630.517 C 180.899 630.517 180.757 630.463 180.594 630.408 C 179.745 630.114 178.776 629.821 177.785 629.559 L 177.513 630.354 Z  M 180.92 631.29 C 182.423 631.29 183.272 632.694 183.272 634.262 C 183.272 635.851 182.488 637.332 180.888 637.332 C 179.331 637.332 178.569 635.819 178.569 634.338 C 178.569 632.673 179.418 631.29 180.92 631.29 Z " fill="rgb(68,66,71)"/><path d=" M 176.986 624.325 C 176.986 623.11 178.075 622.433 179.139 622.591 C 179.688 622.673 180.093 623.011 180.421 623.417 C 180.731 623.798 180.809 623.552 180.766 623.302 C 180.569 622.144 180.042 621.487 179.059 621.181 C 178.962 621.147 178.548 621.056 178.925 621.056 L 182.836 621.056 C 183.213 621.056 182.799 621.147 182.703 621.181 C 181.721 621.487 181.194 622.144 180.997 623.302 C 180.954 623.552 181.03 623.798 181.34 623.417 C 181.67 623.011 182.072 622.673 182.623 622.591 C 183.686 622.433 184.777 623.11 184.777 624.325 L 184.777 624.327 C 184.777 625.198 184.073 626.165 183.157 626.099 C 183.094 626.093 182.66 626.001 182.525 626.132 C 182.33 626.323 182.602 626.464 182.623 626.897 L 182.623 626.897 C 182.652 627.931 181.943 628.481 181.151 628.583 L 181.151 628.581 C 181.151 628.583 180.979 628.605 180.902 628.605 C 180.76 628.605 180.649 628.583 180.61 628.581 L 180.61 628.583 C 179.819 628.481 179.109 627.929 179.139 626.897 L 179.139 626.897 C 179.16 626.464 179.431 626.323 179.237 626.132 C 179.102 626.001 178.667 626.095 178.605 626.099 C 177.689 626.165 176.986 625.198 176.986 624.327 L 176.986 624.325 Z " fill="rgb(68,66,71)"/><path d=" M 180.889 628.605 C 180.894 628.605 180.897 628.605 180.902 628.605 C 180.979 628.605 181.151 628.583 181.151 628.581 L 181.151 628.583 C 181.943 628.481 182.652 627.931 182.623 626.897 L 182.623 626.897 C 182.602 626.464 182.33 626.323 182.525 626.132 C 182.66 626.001 183.094 626.093 183.157 626.099 C 184.073 626.165 184.777 625.198 184.777 624.327 L 184.777 624.325 C 184.777 623.11 183.686 622.433 182.623 622.591 C 182.072 622.673 181.67 623.011 181.34 623.417 C 181.03 623.798 180.954 623.552 180.997 623.302 C 181.194 622.144 181.721 621.487 182.703 621.181 C 182.799 621.147 183.213 621.056 182.836 621.056 L 180.889 621.056 L 180.889 628.605 Z " fill="rgb(87,86,90)"/><path d=" M 130.453 554.163 C 130.453 555.376 129.363 556.056 128.298 555.897 C 127.75 555.815 127.345 555.478 127.017 555.071 C 126.707 554.688 126.63 554.937 126.673 555.187 C 126.87 556.343 127.397 557.001 128.379 557.308 C 128.477 557.339 128.89 557.433 128.513 557.433 L 124.602 557.433 C 124.225 557.433 124.638 557.339 124.735 557.308 C 125.717 557.001 126.245 556.343 126.442 555.187 C 126.485 554.937 126.409 554.688 126.098 555.071 C 125.769 555.478 125.366 555.815 124.815 555.897 C 123.753 556.054 122.662 555.376 122.662 554.163 L 122.662 554.161 C 122.662 553.29 123.365 552.321 124.281 552.388 C 124.344 552.394 124.778 552.487 124.913 552.355 C 125.108 552.165 124.836 552.022 124.815 551.591 L 124.815 551.589 C 124.786 550.558 125.495 550.005 126.288 549.905 L 126.288 549.907 C 126.288 549.905 126.46 549.884 126.536 549.884 C 126.677 549.884 126.79 549.903 126.828 549.907 L 126.828 549.905 C 127.62 550.005 128.33 550.558 128.298 551.589 L 128.298 551.591 C 128.278 552.022 128.006 552.165 128.202 552.355 C 128.336 552.487 128.772 552.394 128.833 552.388 C 129.749 552.321 130.453 553.29 130.453 554.161 L 130.453 554.163 Z " fill="rgb(68,66,71)"/><path d=" M 126.548 549.884 C 126.545 549.884 126.541 549.884 126.536 549.884 C 126.46 549.884 126.288 549.905 126.288 549.907 L 126.288 549.905 C 125.495 550.005 124.786 550.558 124.815 551.589 L 124.815 551.591 C 124.836 552.022 125.108 552.165 124.913 552.355 C 124.778 552.487 124.344 552.394 124.281 552.388 C 123.365 552.321 122.662 553.29 122.662 554.161 L 122.662 554.163 C 122.662 555.376 123.753 556.054 124.815 555.897 C 125.366 555.815 125.769 555.478 126.098 555.071 C 126.409 554.688 126.485 554.937 126.442 555.187 C 126.245 556.343 125.717 557.001 124.735 557.308 C 124.638 557.339 124.225 557.433 124.602 557.433 L 126.548 557.433 L 126.548 549.884 Z " fill="rgb(87,86,90)"/><path d=" M 154.34 583.257 L 158.403 583.257 L 158.403 581.88 L 154.34 581.88 L 154.34 583.257 Z " fill="rgb(69,68,116)"/><path d=" M 153.987 581.88 L 158.049 581.88 L 158.049 580.505 L 153.987 580.505 L 153.987 581.88 Z " fill="rgb(166,64,69)"/><path d=" M 153.386 580.505 L 157.449 580.505 L 157.449 579.13 L 153.386 579.13 L 153.386 580.505 Z " fill="rgb(69,68,116)"/><path d=" M 153.033 579.13 L 157.095 579.13 L 157.095 577.755 L 153.033 577.755 L 153.033 579.13 Z " fill="rgb(166,64,69)"/><path d=" M 152.432 577.755 L 156.496 577.755 L 156.496 576.378 L 152.432 576.378 L 152.432 577.755 Z " fill="rgb(69,68,116)"/><path d=" M 152.079 576.378 L 156.142 576.378 L 156.142 575.003 L 152.079 575.003 L 152.079 576.378 Z " fill="rgb(166,64,69)"/><path d=" M 151.479 575.003 L 155.542 575.003 L 155.542 573.628 L 151.479 573.628 L 151.479 575.003 Z " fill="rgb(69,68,116)"/><path d=" M 153.987 583.313 L 151.014 575.61 L 143.304 575.067 L 147.719 583.892 L 153.987 583.313 Z " fill="rgb(68,66,71)"/><path d=" M 163.579 582.821 L 164.658 574.302 L 156.803 574.659 L 156.675 577.798 L 159.379 583.386 L 163.579 582.821 Z " fill="rgb(68,66,71)"/><path d=" M 154.629 574.14 L 158.115 583.161 L 160.674 582.821 C 160.674 582.821 157.091 578.106 157.651 576.315 C 158.212 574.524 162.353 575.61 162.353 575.61 L 164.13 572.435 L 154.629 574.14 Z " fill="rgb(48,44,50)"/><path d=" M 155.189 583.386 L 151.782 574.235 L 143.081 573.585 L 144.23 576.187 C 144.23 576.187 148.966 575.292 150.342 576.411 C 151.717 577.53 153.029 583.257 153.029 583.257 L 155.189 583.386 Z " fill="rgb(48,44,50)"/><path d=" M 146.794 586.622 C 153.897 586.931 164.13 586.005 164.13 586.005 L 164.13 582.821 C 164.13 582.821 153.897 583.745 146.794 583.437" fill="rgb(48,44,50)"/><path d=" M 164.13 582.821 C 164.13 582.821 153.897 583.745 146.794 583.437" fill="none" vector-effect="non-scaling-stroke" stroke-width="0.768" stroke="rgb(164,121,83)" stroke-linejoin="miter" stroke-linecap="butt" stroke-miterlimit="10"/><path d=" M 164.13 586.005 C 164.13 586.005 153.897 586.931 146.794 586.622" fill="none" vector-effect="non-scaling-stroke" stroke-width="0.768" stroke="rgb(164,121,83)" stroke-linejoin="miter" stroke-linecap="butt" stroke-miterlimit="10"/><path d=" M 169.76 576.427 L 164.868 571.935 C 164.868 571.935 161.006 573.931 161.47 577.899 C 161.935 581.87 164.076 583.257 164.076 583.257 L 169.76 576.427 Z " fill="rgb(206,214,231)"/><path d=" M 169.76 576.431 L 165.409 572.435 C 165.409 572.435 161.975 574.21 162.388 577.739 C 162.8 581.271 164.705 582.505 164.705 582.505 L 169.76 576.431 Z " fill="rgb(48,44,50)"/><path d=" M 169.76 576.437 L 166.129 573.101 C 166.129 573.101 163.262 574.583 163.607 577.528 C 163.952 580.476 165.541 581.505 165.541 581.505 L 169.76 576.437 Z " fill="rgb(69,68,116)"/><path d=" M 153.183 595.231 L 149.121 595.231 L 149.121 596.606 L 153.183 596.606 L 153.183 595.231 Z " fill="rgb(69,68,116)"/><path d=" M 153.537 596.606 L 149.473 596.606 L 149.473 597.983 L 153.537 597.983 L 153.537 596.606 Z " fill="rgb(166,64,69)"/><path d=" M 154.137 597.983 L 150.074 597.983 L 150.074 599.358 L 154.137 599.358 L 154.137 597.983 Z " fill="rgb(69,68,116)"/><path d=" M 154.49 599.358 L 150.427 599.358 L 150.427 600.733 L 154.49 600.733 L 154.49 599.358 Z " fill="rgb(166,64,69)"/><path d=" M 155.09 600.733 L 151.028 600.733 L 151.028 602.108 L 155.09 602.108 L 155.09 600.733 Z " fill="rgb(69,68,116)"/><path d=" M 155.444 602.108 L 151.381 602.108 L 151.381 603.483 L 155.444 603.483 L 155.444 602.108 Z " fill="rgb(166,64,69)"/><path d=" M 156.044 603.483 L 151.982 603.483 L 151.982 604.86 L 156.044 604.86 L 156.044 603.483 Z " fill="rgb(69,68,116)"/><path d=" M 153.537 595.175 L 156.509 602.876 L 164.219 603.421 L 159.804 594.597 L 153.537 595.175 Z " fill="rgb(68,66,71)"/><path d=" M 143.945 595.667 L 142.866 604.187 L 150.72 603.827 L 150.847 600.69 L 148.145 595.103 L 143.945 595.667 Z " fill="rgb(68,66,71)"/><path d=" M 152.895 604.349 L 149.409 595.327 L 146.849 595.667 C 146.849 595.667 150.432 600.382 149.872 602.173 C 149.312 603.964 145.17 602.876 145.17 602.876 L 143.394 606.052 L 152.895 604.349 Z " fill="rgb(48,44,50)"/><path d=" M 152.335 595.103 L 155.742 604.251 L 164.443 604.903 L 163.294 602.302 C 163.294 602.302 158.557 603.196 157.181 602.077 C 155.805 600.958 154.495 595.231 154.495 595.231 L 152.335 595.103 Z " fill="rgb(48,44,50)"/><path d=" M 160.729 591.866 C 153.627 591.558 143.394 592.483 143.394 592.483 L 143.394 595.667 C 143.394 595.667 153.627 594.741 160.729 595.05" fill="rgb(48,44,50)"/><path d=" M 143.394 595.667 C 143.394 595.667 153.627 594.741 160.729 595.05" fill="none" vector-effect="non-scaling-stroke" stroke-width="0.768" stroke="rgb(164,121,83)" stroke-linejoin="miter" stroke-linecap="butt" stroke-miterlimit="10"/><path d=" M 143.394 592.483 C 143.394 592.483 153.627 591.558 160.729 591.866" fill="none" vector-effect="non-scaling-stroke" stroke-width="0.768" stroke="rgb(164,121,83)" stroke-linejoin="miter" stroke-linecap="butt" stroke-miterlimit="10"/><path d=" M 179.043 608.546 C 177.638 608.999 176.153 609.243 174.615 609.243 C 165.982 609.243 158.984 601.587 158.984 592.144 C 158.984 582.7 165.982 575.044 174.615 575.044 C 176.153 575.044 177.638 575.288 179.043 575.741 L 179.043 608.546 Z " fill="rgb(218,226,242)"/><path d=" M 179.043 607.8 C 177.643 608.272 176.157 608.528 174.615 608.528 C 166.342 608.528 159.637 601.192 159.637 592.144 C 159.637 583.095 166.342 575.759 174.615 575.759 C 176.157 575.759 177.643 576.015 179.043 576.487 L 179.043 607.8 Z " fill="rgb(206,214,231)"/><path d=" M 179.043 604.241 C 177.673 604.843 176.18 605.175 174.615 605.175 C 168.036 605.175 162.703 599.341 162.703 592.144 C 162.703 584.946 168.036 579.112 174.615 579.112 C 176.18 579.112 177.673 579.444 179.043 580.046 L 179.043 604.241 Z " fill="rgb(164,121,83)"/><path d=" M 179.043 602.864 C 177.692 603.534 176.194 603.909 174.615 603.909 C 168.675 603.909 163.861 598.642 163.861 592.144 C 163.861 585.646 168.675 580.378 174.615 580.378 C 176.194 580.378 177.692 580.753 179.043 581.423 L 179.043 602.864 Z " fill="rgb(183,151,91)"/><path d=" M 179.043 598.872 C 177.797 599.855 176.268 600.437 174.615 600.437 C 170.428 600.437 167.035 596.724 167.035 592.144 C 167.035 587.563 170.428 583.851 174.615 583.851 C 176.268 583.851 177.797 584.433 179.043 585.415 L 179.043 598.872 Z " fill="rgb(218,226,242)"/><path d=" M 179.043 598.345 C 177.822 599.39 176.285 600.015 174.615 600.015 C 170.642 600.015 167.421 596.489 167.421 592.144 C 167.421 587.798 170.642 584.272 174.615 584.272 C 176.285 584.272 177.822 584.897 179.043 585.942 L 179.043 598.345 Z " fill="rgb(68,66,71)"/><path d=" M 179.043 593.343 C 178.792 593.507 178.546 593.677 178.305 593.855 L 178.305 593.855 C 178.06 594.036 177.82 594.224 177.586 594.417 L 177.585 594.419 C 177.352 594.612 177.125 594.812 176.903 595.019 C 176.902 595.021 176.9 595.021 176.898 595.022 C 176.679 595.228 176.466 595.437 176.259 595.653 C 176.255 595.657 176.25 595.663 176.245 595.667 C 176.217 595.444 176.185 595.222 176.147 595.001 C 176.141 594.962 176.132 594.923 176.126 594.886 C 176.094 594.708 176.061 594.532 176.024 594.358 C 176.023 594.353 176.022 594.347 176.02 594.343 C 176.007 594.278 175.991 594.216 175.976 594.151 C 175.945 594.017 175.914 593.88 175.88 593.747 C 175.872 593.72 175.865 593.694 175.858 593.667 C 175.842 593.605 175.823 593.542 175.805 593.478 C 175.77 593.351 175.734 593.222 175.696 593.095 C 175.688 593.069 175.68 593.044 175.673 593.021 C 175.652 592.956 175.631 592.894 175.61 592.829 C 175.568 592.7 175.526 592.571 175.481 592.444 C 175.452 592.362 175.42 592.28 175.389 592.198 C 175.343 592.075 175.298 591.954 175.249 591.833 C 175.214 591.749 175.178 591.665 175.143 591.583 C 175.093 591.466 175.044 591.349 174.991 591.233 C 174.953 591.147 174.912 591.065 174.873 590.981 C 174.819 590.87 174.765 590.757 174.71 590.646 C 174.667 590.562 174.623 590.48 174.579 590.397 C 174.529 590.302 174.478 590.208 174.427 590.116 C 174.417 590.097 174.407 590.077 174.396 590.06 C 174.352 589.98 174.306 589.903 174.261 589.825 C 174.214 589.743 174.166 589.663 174.118 589.583 C 174.09 589.538 174.062 589.491 174.034 589.448 C 173.997 589.388 173.96 589.327 173.922 589.269 C 173.866 589.181 173.809 589.097 173.753 589.011 C 173.713 588.95 173.671 588.89 173.63 588.829 C 173.606 588.796 173.584 588.761 173.559 588.728 C 173.493 588.632 173.424 588.536 173.355 588.442 C 173.288 588.351 173.22 588.261 173.152 588.173 C 173.088 588.087 173.023 588.005 172.957 587.921 C 172.925 587.882 172.893 587.845 172.861 587.804 C 172.805 587.735 172.748 587.667 172.69 587.599 C 172.641 587.54 172.592 587.481 172.542 587.425 C 172.494 587.368 172.444 587.313 172.395 587.257 C 172.315 587.167 172.233 587.079 172.152 586.991 C 172.137 586.976 172.123 586.96 172.109 586.944 C 172.044 586.876 171.979 586.808 171.913 586.741 C 171.812 586.638 171.711 586.536 171.606 586.435 C 171.552 586.384 171.499 586.329 171.444 586.278 C 171.402 586.239 171.359 586.202 171.317 586.161 C 171.224 586.075 171.13 585.991 171.034 585.905 C 171.01 585.886 170.987 585.864 170.964 585.843 C 170.896 585.784 170.826 585.726 170.756 585.669 C 170.649 585.577 170.542 585.489 170.431 585.401 C 170.351 585.337 170.269 585.272 170.187 585.21 C 170.109 585.151 170.032 585.091 169.953 585.034 C 169.857 584.964 169.759 584.894 169.662 584.827 C 169.584 584.771 169.505 584.714 169.423 584.661 C 169.324 584.593 169.222 584.528 169.122 584.462 C 169.041 584.411 168.961 584.358 168.879 584.31 C 168.775 584.245 168.67 584.183 168.565 584.122 C 168.483 584.073 168.402 584.024 168.319 583.98 C 168.211 583.919 168.101 583.86 167.992 583.802 C 167.91 583.759 167.828 583.716 167.746 583.673 C 167.631 583.614 167.516 583.562 167.401 583.505 C 167.32 583.468 167.24 583.427 167.159 583.39 C 167.036 583.335 166.913 583.282 166.789 583.23 C 166.712 583.196 166.636 583.163 166.559 583.132 C 166.422 583.075 166.283 583.024 166.143 582.974 C 166.078 582.948 166.013 582.921 165.948 582.899 C 165.769 582.835 165.589 582.776 165.407 582.718 C 165.38 582.71 165.352 582.7 165.325 582.69 C 165.114 582.626 164.901 582.565 164.686 582.509 C 164.654 582.501 164.622 582.493 164.59 582.485 C 164.409 582.438 164.226 582.396 164.043 582.355 C 163.975 582.341 163.908 582.329 163.84 582.315 C 163.69 582.286 163.54 582.255 163.388 582.23 C 163.309 582.216 163.228 582.206 163.149 582.192 C 162.771 582.136 162.391 582.089 162.006 582.06 C 164.85 577.806 169.444 575.044 174.63 575.044 C 176.162 575.044 177.643 575.286 179.043 575.737 L 179.043 593.343 Z " fill="rgb(164,121,83)"/><path d=" M 179.043 592.163 C 178.882 592.683 178.663 593.083 178.362 593.304 C 177.8 593.911 177.04 594.374 176.458 594.981 C 175.633 588.335 169.986 581.987 163.294 581.474 C 167.041 575.872 178.601 571.556 179.043 580.63 L 179.043 592.163 Z " fill="rgb(183,151,91)"/><path d=" M 150.371 623.542 C 150.371 623.542 145.193 612.099 145.995 608.411 C 146.796 604.726 154.167 615.161 154.167 615.161 L 150.371 623.542 Z " fill="rgb(48,44,50)"/><path d=" M 154.82 634.021 C 154.82 634.021 146.593 632.05 142.819 620.661 C 139.044 609.274 140.771 604.903 140.771 604.903 L 146.506 608.915 C 146.506 608.915 145.98 614.296 149.915 623.605 C 153.849 632.913 154.82 632.063 154.82 632.063 L 154.82 634.021 Z " fill="rgb(68,66,71)"/><path d=" M 159.534 633.022 C 159.534 633.022 151.307 631.052 147.533 619.663 C 143.758 608.276 145.57 606.22 145.57 606.22 L 147.233 606.587 C 147.233 606.587 145.134 610.29 149.068 619.601 C 153.003 628.909 159.534 631.065 159.534 631.065 L 159.534 633.022 Z " fill="rgb(183,151,91)"/><path d=" M 179.043 592.677 L 179.043 603.833 L 173.298 609.151 L 167.45 605.813 L 179.043 592.677 Z " fill="rgb(69,68,116)"/><path d=" M 166.194 605.548 C 166.194 605.548 178.737 591.106 179.043 590.946 L 179.043 593.181 L 168.537 605.813 L 166.194 605.548 Z " fill="rgb(48,44,50)"/><path d=" M 146.914 609.878 L 141.795 605.976 C 141.795 605.976 156.637 600.573 173.975 607.224 L 169.826 612.341 L 146.914 609.878 Z " fill="rgb(164,121,83)"/><path d=" M 147.936 610.683 L 142.819 606.778 C 142.819 606.778 156.637 601.669 173.975 608.317 L 169.826 613.437 L 147.936 610.683 Z " fill="rgb(183,151,91)"/><path d=" M 151.563 615.11 C 151.563 615.009 150.624 612.28 147.936 610.683 C 147.936 610.683 161.454 608.245 169.826 612.343 C 169.826 612.343 168.537 620.642 164.506 618.925 C 160.476 617.208 151.563 615.11 151.563 615.11 Z " fill="rgb(206,214,231)"/><path d=" M 150.062 625.708 C 150.062 625.708 149.722 622.681 150.062 622.231 C 150.403 621.784 150.466 621.433 150.339 620.694 C 150.211 619.958 150.211 616.403 150.787 615.634 C 151.363 614.866 153.798 610.222 155.464 610.188 C 157.129 610.157 164.144 613.04 164.24 616.788 C 164.24 616.788 164.753 616.114 165.424 616.499 C 166.098 616.884 166.194 619.669 166.194 619.669 C 166.194 619.669 160.455 632.194 154.82 631.649 C 154.82 631.649 150.043 628.224 150.062 625.708 Z " fill="rgb(218,226,242)"/><path d=" M 154.82 634.021 C 154.82 634.021 160.78 635.618 165.422 630.673 C 170.063 625.728 175.162 613.856 179.043 612.563 L 179.043 607.661 C 179.043 607.661 169.607 612.485 167.324 619.944 C 165.041 627.401 154.82 634.021 154.82 634.021 Z " fill="rgb(48,44,50)"/><path d=" M 154.82 631.401 C 154.82 631.401 156.346 624.687 162.89 624.458 C 164.716 626.208 158.709 631.401 158.709 631.401 C 158.709 631.401 157.469 632.386 154.82 632.063 L 154.82 631.401 Z " fill="rgb(202,131,78)"/><path d=" M 154.82 632.063 C 154.82 632.063 161.15 630.438 166.399 617.522 C 175.313 603.122 179.043 603.833 179.043 603.833 L 179.043 607.661 C 179.043 607.661 172.575 612.866 168.618 620.021 C 164.661 627.173 162.025 634.021 154.82 634.021 L 154.82 632.063 Z " fill="rgb(68,66,71)"/><path d=" M 154.82 634.021 C 154.82 634.021 146.593 632.05 142.819 620.661 C 139.044 609.274 140.771 604.903 140.771 604.903 L 142.284 605.813 C 142.284 605.813 140.42 611.288 144.354 620.599 C 148.289 629.907 154.82 632.063 154.82 632.063 L 154.82 634.021 Z " fill="rgb(183,151,91)"/><path d=" M 154.82 631.401 C 154.82 631.401 153.809 627.077 149.904 625.647 C 149.904 625.647 148.684 632.69 154.82 632.063 L 154.82 631.401 Z " fill="rgb(182,120,76)"/><path d=" M 137.763 602.06 L 142.656 606.554 C 142.656 606.554 146.517 604.558 146.052 600.589 C 145.589 596.618 143.448 595.231 143.448 595.231 L 137.763 602.06 Z " fill="rgb(206,214,231)"/><path d=" M 137.763 602.058 L 142.115 606.052 C 142.115 606.052 145.548 604.278 145.135 600.747 C 144.722 597.218 142.819 595.983 142.819 595.983 L 137.763 602.058 Z " fill="rgb(48,44,50)"/><path d=" M 137.763 602.052 L 141.395 605.386 C 141.395 605.386 144.261 603.905 143.916 600.96 C 143.572 598.013 141.982 596.983 141.982 596.983 L 137.763 602.052 Z " fill="rgb(69,68,116)"/><path d=" M 150.046 622.683 C 150.046 622.683 150.815 622.886 151.585 622.857 C 151.777 622.845 151.967 622.837 152.143 622.808 C 152.318 622.789 152.489 622.821 152.631 622.802 C 152.918 622.793 153.133 622.834 153.133 622.834 L 153.144 622.871 C 153.143 622.871 152.973 622.991 152.681 623.103 C 152.391 623.218 151.971 623.238 151.569 623.164 C 151.166 623.116 150.773 623.02 150.491 622.913 C 150.208 622.812 150.032 622.718 150.032 622.718 L 150.046 622.683 Z " fill="rgb(202,131,78)"/><path d=" M 159.54 622.883 C 159.54 622.883 159.303 622.981 158.931 623.087 C 158.561 623.198 158.053 623.297 157.537 623.348 C 157.278 623.372 157.018 623.413 156.773 623.396 C 156.528 623.377 156.301 623.351 156.113 623.287 C 155.735 623.167 155.503 623.036 155.503 623.036 L 155.512 622.993 C 155.512 622.993 155.782 622.942 156.157 622.942 C 156.343 622.959 156.564 622.923 156.794 622.941 C 157.025 622.972 157.273 622.982 157.523 622.998 C 158.524 623.034 159.527 622.841 159.527 622.841 L 159.54 622.883 Z " fill="rgb(202,131,78)"/><path d=" M 156.093 621.718 C 156.093 621.718 156.262 621.605 156.548 621.503 C 156.693 621.461 156.863 621.402 157.051 621.377 C 157.239 621.357 157.441 621.324 157.644 621.331 C 158.049 621.335 158.452 621.415 158.735 621.52 C 159.018 621.632 159.196 621.718 159.196 621.718 C 159.196 621.718 158.993 621.7 158.703 621.655 C 158.561 621.617 158.387 621.624 158.208 621.603 C 158.028 621.574 157.835 621.573 157.642 621.578 C 157.256 621.558 156.872 621.607 156.581 621.638 C 156.29 621.673 156.093 621.718 156.093 621.718 Z " fill="rgb(69,71,97)"/><path d=" M 152.797 621.718 C 152.797 621.718 152.643 621.669 152.414 621.631 C 152.185 621.596 151.883 621.544 151.581 621.564 C 151.429 621.559 151.277 621.563 151.137 621.591 C 150.996 621.612 150.858 621.609 150.748 621.647 C 150.521 621.695 150.359 621.718 150.359 621.718 C 150.359 621.718 150.494 621.637 150.713 621.529 C 150.93 621.429 151.253 621.349 151.579 621.346 C 151.742 621.337 151.903 621.371 152.054 621.39 C 152.204 621.417 152.338 621.472 152.45 621.514 C 152.673 621.612 152.797 621.718 152.797 621.718 Z " fill="rgb(69,71,97)"/><path d=" M 154.593 614.173 C 154.593 614.173 155.263 613.757 156.214 614.173" fill="rgb(218,226,242)"/><path d=" M 154.593 614.173 C 154.593 614.173 154.67 614.095 154.818 614.02 C 154.893 613.991 154.981 613.946 155.082 613.93 C 155.184 613.913 155.293 613.893 155.403 613.897 C 155.623 613.901 155.839 613.961 155.982 614.035 C 156.127 614.112 156.214 614.173 156.214 614.173 C 156.214 614.173 156.103 614.164 155.95 614.139 C 155.799 614.116 155.598 614.079 155.4 614.089 C 155.201 614.071 155.003 614.105 154.85 614.122 C 154.698 614.144 154.593 614.173 154.593 614.173 Z " fill="rgb(69,71,97)"/><path d=" M 153.476 615.333 C 153.476 615.333 154.44 615.23 155.403 615.237 C 156.366 615.23 157.33 615.333 157.33 615.333 C 157.33 615.333 156.366 615.437 155.403 615.429 C 154.44 615.437 153.476 615.333 153.476 615.333 Z " fill="rgb(69,71,97)"/><path d=" M 153.927 617.517 C 153.927 617.517 153.933 617.481 153.961 617.423 C 153.987 617.364 154.031 617.278 154.112 617.2 C 154.192 617.12 154.295 617.036 154.424 616.98 C 154.547 616.903 154.696 616.887 154.837 616.837 C 154.982 616.808 155.129 616.812 155.265 616.798 C 155.402 616.78 155.528 616.818 155.636 616.826 C 155.851 616.861 155.99 616.896 155.99 616.896 C 155.99 616.896 155.844 616.918 155.633 616.935 C 155.527 616.941 155.404 616.94 155.276 616.964 C 155.148 616.984 155.007 616.99 154.875 617.024 C 154.747 617.063 154.602 617.069 154.492 617.131 C 154.373 617.175 154.264 617.222 154.182 617.282 C 154.009 617.392 153.927 617.517 153.927 617.517 Z " fill="rgb(69,71,97)"/><path d=" M 128.481 569.942 C 129.885 569.489 131.371 569.245 132.908 569.245 C 141.541 569.245 148.539 576.901 148.539 586.345 C 148.539 595.788 141.541 603.444 132.908 603.444 C 131.371 603.444 129.885 603.2 128.481 602.747 L 128.481 569.942 Z " fill="rgb(218,226,242)"/><path d=" M 128.481 570.688 C 129.881 570.214 131.367 569.96 132.908 569.96 C 141.18 569.96 147.886 577.296 147.886 586.345 C 147.886 595.394 141.18 602.73 132.908 602.73 C 131.367 602.73 129.881 602.474 128.481 602.001 L 128.481 570.688 Z " fill="rgb(206,214,231)"/><path d=" M 128.481 574.247 C 129.85 573.646 131.343 573.312 132.908 573.312 C 139.488 573.312 144.821 579.147 144.821 586.345 C 144.821 593.542 139.488 599.376 132.908 599.376 C 131.343 599.376 129.85 599.042 128.481 598.442 L 128.481 574.247 Z " fill="rgb(164,121,83)"/><path d=" M 128.481 575.624 C 129.832 574.954 131.329 574.579 132.908 574.579 C 138.848 574.579 143.664 579.847 143.664 586.345 C 143.664 592.843 138.848 598.11 132.908 598.11 C 131.329 598.11 129.832 597.733 128.481 597.065 L 128.481 575.624 Z " fill="rgb(183,151,91)"/><path d=" M 128.481 579.616 C 129.727 578.634 131.255 578.052 132.908 578.052 C 137.094 578.052 140.489 581.765 140.489 586.345 C 140.489 590.925 137.094 594.636 132.908 594.636 C 131.255 594.636 129.727 594.056 128.481 593.073 L 128.481 579.616 Z " fill="rgb(218,226,242)"/><path d=" M 128.481 580.144 C 129.702 579.099 131.238 578.474 132.908 578.474 C 136.882 578.474 140.102 581.997 140.102 586.345 C 140.102 590.69 136.882 594.214 132.908 594.214 C 131.238 594.214 129.702 593.591 128.481 592.546 L 128.481 580.144 Z " fill="rgb(68,66,71)"/><path d=" M 128.481 585.146 C 128.731 584.981 128.977 584.812 129.218 584.634 L 129.218 584.634 C 129.464 584.452 129.704 584.265 129.937 584.071 L 129.939 584.069 C 130.172 583.876 130.399 583.677 130.62 583.47 C 130.622 583.468 130.624 583.466 130.626 583.464 C 130.844 583.261 131.056 583.05 131.264 582.835 C 131.269 582.829 131.273 582.825 131.278 582.821 C 131.305 583.044 131.339 583.267 131.376 583.487 C 131.382 583.526 131.39 583.565 131.397 583.603 C 131.429 583.778 131.463 583.956 131.5 584.13 C 131.501 584.136 131.502 584.14 131.503 584.146 C 131.516 584.21 131.533 584.272 131.548 584.335 C 131.579 584.472 131.61 584.606 131.644 584.741 C 131.651 584.769 131.658 584.794 131.665 584.821 C 131.681 584.884 131.701 584.946 131.717 585.009 C 131.754 585.138 131.789 585.267 131.828 585.394 C 131.836 585.417 131.843 585.442 131.851 585.468 C 131.872 585.532 131.893 585.595 131.914 585.659 C 131.956 585.788 131.997 585.915 132.043 586.044 C 132.072 586.126 132.103 586.208 132.134 586.29 C 132.18 586.411 132.226 586.534 132.275 586.655 C 132.309 586.739 132.344 586.821 132.381 586.905 C 132.43 587.022 132.48 587.14 132.532 587.255 C 132.571 587.339 132.611 587.423 132.651 587.505 C 132.705 587.618 132.758 587.731 132.814 587.843 C 132.857 587.927 132.901 588.009 132.945 588.091 C 132.995 588.185 133.045 588.28 133.096 588.372 C 133.106 588.392 133.117 588.411 133.128 588.429 C 133.172 588.507 133.216 588.585 133.261 588.663 C 133.309 588.745 133.357 588.825 133.406 588.905 C 133.433 588.95 133.461 588.995 133.489 589.04 C 133.526 589.101 133.564 589.159 133.602 589.22 C 133.658 589.306 133.714 589.392 133.77 589.478 C 133.811 589.538 133.853 589.599 133.894 589.657 C 133.918 589.692 133.94 589.726 133.964 589.761 C 134.031 589.856 134.099 589.952 134.169 590.046 C 134.235 590.138 134.303 590.228 134.372 590.315 C 134.436 590.399 134.501 590.483 134.567 590.565 C 134.598 590.606 134.631 590.644 134.663 590.683 C 134.718 590.753 134.776 590.821 134.834 590.89 C 134.882 590.948 134.931 591.007 134.981 591.063 C 135.03 591.12 135.079 591.175 135.129 591.23 C 135.209 591.319 135.29 591.409 135.372 591.497 C 135.386 591.513 135.401 591.528 135.415 591.544 C 135.48 591.612 135.545 591.681 135.61 591.747 C 135.711 591.851 135.813 591.952 135.917 592.052 C 135.971 592.105 136.025 592.157 136.08 592.21 C 136.121 592.249 136.164 592.286 136.206 592.325 C 136.299 592.413 136.393 592.497 136.489 592.581 C 136.512 592.603 136.536 592.624 136.559 592.644 C 136.628 592.704 136.698 592.761 136.766 592.819 C 136.875 592.911 136.982 592.999 137.091 593.087 C 137.173 593.151 137.255 593.214 137.337 593.278 C 137.415 593.337 137.492 593.396 137.57 593.454 C 137.666 593.524 137.763 593.593 137.861 593.661 C 137.94 593.718 138.019 593.772 138.099 593.827 C 138.2 593.896 138.3 593.96 138.403 594.024 C 138.483 594.077 138.563 594.13 138.644 594.179 C 138.748 594.243 138.853 594.304 138.959 594.366 C 139.041 594.413 139.122 594.462 139.205 594.509 C 139.313 594.569 139.423 594.628 139.533 594.685 C 139.614 594.73 139.696 594.772 139.778 594.815 C 139.892 594.872 140.007 594.927 140.123 594.981 C 140.204 595.021 140.284 595.062 140.365 595.099 C 140.487 595.153 140.611 595.206 140.734 595.259 C 140.812 595.29 140.887 595.325 140.964 595.356 C 141.102 595.411 141.241 595.464 141.38 595.515 C 141.446 595.54 141.509 595.565 141.576 595.589 C 141.755 595.653 141.935 595.712 142.117 595.771 C 142.144 595.778 142.172 595.788 142.199 595.798 C 142.41 595.862 142.623 595.923 142.838 595.98 C 142.869 595.987 142.902 595.993 142.933 596.003 C 143.115 596.048 143.298 596.093 143.481 596.134 C 143.548 596.147 143.616 596.159 143.683 596.173 C 143.834 596.202 143.984 596.233 144.135 596.259 C 144.214 596.272 144.295 596.282 144.375 596.294 C 144.752 596.353 145.132 596.399 145.517 596.429 C 142.673 600.681 138.079 603.444 132.894 603.444 C 131.362 603.444 129.881 603.2 128.481 602.751 L 128.481 585.146 Z " fill="rgb(164,121,83)"/><path d=" M 128.481 586.325 C 128.641 585.806 128.861 585.405 129.162 585.185 C 129.722 584.577 130.484 584.114 131.066 583.507 C 131.89 590.153 137.538 596.501 144.23 597.013 C 140.482 602.616 128.922 606.933 128.481 597.858 L 128.481 586.325 Z " fill="rgb(183,151,91)"/><path d=" M 128.481 585.812 L 128.481 574.653 L 134.224 569.335 L 140.074 572.675 L 128.481 585.812 Z " fill="rgb(69,68,116)"/><path d=" M 141.33 572.94 C 141.33 572.94 128.787 587.38 128.481 587.542 L 128.481 585.306 L 138.987 572.675 L 141.33 572.94 Z " fill="rgb(48,44,50)"/><path d=" M 157.153 554.944 C 157.153 554.944 162.33 566.39 161.529 570.075 C 160.727 573.763 153.357 563.327 153.357 563.327 L 157.153 554.944 Z " fill="rgb(48,44,50)"/><path d=" M 152.703 544.466 C 152.703 544.466 160.93 546.438 164.705 557.825 C 168.479 569.214 166.752 573.585 166.752 573.585 L 161.017 569.573 C 161.017 569.573 161.544 564.192 157.609 554.884 C 153.674 545.573 152.703 546.425 152.703 546.425 L 152.703 544.466 Z " fill="rgb(68,66,71)"/><path d=" M 147.989 545.464 C 147.989 545.464 156.216 547.437 159.991 558.823 C 163.765 570.212 161.954 572.269 161.954 572.269 L 160.291 571.901 C 160.291 571.901 162.389 568.196 158.455 558.888 C 154.521 549.579 147.989 547.423 147.989 547.423 L 147.989 545.464 Z " fill="rgb(183,151,91)"/><path d=" M 160.61 568.61 L 165.728 572.513 C 165.728 572.513 150.886 577.915 133.548 571.265 L 137.698 566.147 L 160.61 568.61 Z " fill="rgb(164,121,83)"/><path d=" M 159.587 567.806 L 164.705 571.708 C 164.705 571.708 150.886 576.819 133.548 570.169 L 137.698 565.052 L 159.587 567.806 Z " fill="rgb(183,151,91)"/><path d=" M 155.96 563.378 C 155.96 563.48 156.9 566.206 159.587 567.806 C 159.587 567.806 146.07 570.243 137.698 566.146 C 137.698 566.146 138.987 557.847 143.017 559.563 C 147.048 561.28 155.96 563.378 155.96 563.378 Z " fill="rgb(206,214,231)"/><path d=" M 157.461 552.778 C 157.461 552.778 157.801 555.808 157.461 556.255 C 157.121 556.704 157.057 557.056 157.185 557.794 C 157.313 558.53 157.313 562.085 156.736 562.855 C 156.16 563.622 153.725 568.267 152.06 568.3 C 150.395 568.331 143.38 565.448 143.284 561.7 C 143.284 561.7 142.771 562.374 142.098 561.989 C 141.425 561.605 141.33 558.817 141.33 558.817 C 141.33 558.817 147.068 546.294 152.703 546.839 C 152.703 546.839 157.481 550.263 157.461 552.778 Z " fill="rgb(218,226,242)"/><path d=" M 152.703 544.466 C 152.703 544.466 146.744 542.868 142.101 547.815 C 137.46 552.761 132.362 564.632 128.481 565.925 L 128.481 570.827 C 128.481 570.827 137.917 566.001 140.199 558.544 C 142.482 551.087 152.703 544.466 152.703 544.466 Z " fill="rgb(48,44,50)"/><path d=" M 152.703 547.087 C 152.703 547.087 151.177 553.802 144.632 554.03 C 142.806 552.28 148.814 547.087 148.814 547.087 C 148.814 547.087 150.054 546.103 152.703 546.425 L 152.703 547.087 Z " fill="rgb(202,131,78)"/><path d=" M 152.703 546.425 C 152.703 546.425 146.373 548.05 141.125 560.966 C 132.211 575.366 128.481 574.653 128.481 574.653 L 128.481 570.827 C 128.481 570.827 134.949 565.62 138.906 558.468 C 142.863 551.315 145.499 544.466 152.703 544.466 L 152.703 546.425 Z " fill="rgb(68,66,71)"/><path d=" M 152.703 544.466 C 152.703 544.466 160.93 546.438 164.705 557.825 C 168.479 569.214 166.752 573.585 166.752 573.585 L 165.24 572.675 C 165.24 572.675 167.104 567.198 163.17 557.89 C 159.235 548.581 152.703 546.425 152.703 546.425 L 152.703 544.466 Z " fill="rgb(183,151,91)"/><path d=" M 152.703 547.087 C 152.703 547.087 153.714 551.409 157.62 552.839 C 157.62 552.839 158.839 545.796 152.703 546.425 L 152.703 547.087 Z " fill="rgb(182,120,76)"/><path d=" M 157.478 555.806 C 157.478 555.806 156.709 555.603 155.939 555.631 C 155.746 555.644 155.556 555.651 155.381 555.681 C 155.205 555.699 155.034 555.667 154.893 555.687 C 154.606 555.695 154.39 555.654 154.39 555.654 L 154.38 555.617 C 154.381 555.617 154.551 555.497 154.843 555.386 C 155.132 555.271 155.553 555.25 155.955 555.324 C 156.358 555.372 156.751 555.469 157.032 555.575 C 157.316 555.677 157.492 555.771 157.492 555.771 L 157.478 555.806 Z " fill="rgb(202,131,78)"/><path d=" M 147.983 555.605 C 147.983 555.605 148.22 555.507 148.591 555.401 C 148.962 555.291 149.47 555.191 149.986 555.141 C 150.245 555.116 150.506 555.075 150.751 555.092 C 150.995 555.111 151.222 555.138 151.411 555.201 C 151.789 555.321 152.021 555.452 152.021 555.452 L 152.012 555.495 C 152.012 555.495 151.741 555.546 151.366 555.546 C 151.181 555.529 150.96 555.565 150.73 555.547 C 150.499 555.517 150.251 555.506 150.001 555.49 C 149 555.454 147.995 555.647 147.995 555.646 L 147.983 555.605 Z " fill="rgb(202,131,78)"/><path d=" M 151.429 556.771 C 151.429 556.771 151.261 556.883 150.974 556.985 C 150.83 557.027 150.66 557.086 150.472 557.111 C 150.283 557.131 150.082 557.164 149.879 557.157 C 149.473 557.153 149.07 557.073 148.788 556.969 C 148.505 556.856 148.327 556.771 148.327 556.771 C 148.327 556.771 148.53 556.788 148.82 556.833 C 148.962 556.871 149.135 556.863 149.315 556.886 C 149.495 556.914 149.688 556.915 149.881 556.91 C 150.266 556.932 150.651 556.881 150.942 556.851 C 151.233 556.815 151.429 556.771 151.429 556.771 Z " fill="rgb(69,71,97)"/><path d=" M 154.727 556.771 C 154.727 556.771 154.881 556.819 155.11 556.857 C 155.339 556.893 155.64 556.944 155.943 556.924 C 156.094 556.93 156.246 556.926 156.387 556.897 C 156.527 556.876 156.666 556.879 156.776 556.841 C 157.003 556.793 157.165 556.771 157.165 556.771 C 157.165 556.771 157.03 556.852 156.811 556.959 C 156.593 557.06 156.271 557.14 155.945 557.143 C 155.781 557.151 155.62 557.117 155.469 557.099 C 155.319 557.071 155.186 557.017 155.073 556.975 C 154.85 556.876 154.727 556.771 154.727 556.771 Z " fill="rgb(69,71,97)"/><path d=" M 152.93 564.313 C 152.93 564.313 152.26 564.731 151.31 564.313" fill="rgb(218,226,242)"/><path d=" M 152.93 564.313 C 152.93 564.313 152.854 564.392 152.707 564.467 C 152.631 564.496 152.543 564.541 152.442 564.558 C 152.34 564.573 152.231 564.595 152.121 564.59 C 151.901 564.586 151.685 564.526 151.541 564.452 C 151.397 564.374 151.31 564.313 151.31 564.313 C 151.31 564.313 151.421 564.322 151.573 564.349 C 151.725 564.371 151.925 564.408 152.124 564.398 C 152.323 564.416 152.521 564.382 152.673 564.364 C 152.825 564.343 152.93 564.313 152.93 564.313 Z " fill="rgb(69,71,97)"/><path d=" M 154.048 563.155 C 154.048 563.155 153.084 563.259 152.121 563.251 C 151.157 563.259 150.194 563.155 150.194 563.155 C 150.194 563.155 151.157 563.052 152.121 563.06 C 153.084 563.052 154.048 563.155 154.048 563.155 Z " fill="rgb(69,71,97)"/><path d=" M 153.596 560.972 C 153.596 560.972 153.59 561.007 153.563 561.065 C 153.537 561.124 153.492 561.21 153.411 561.287 C 153.331 561.368 153.229 561.452 153.099 561.509 C 152.977 561.585 152.828 561.602 152.687 561.651 C 152.542 561.681 152.395 561.677 152.258 561.69 C 152.121 561.708 151.996 561.67 151.888 561.662 C 151.673 561.627 151.534 561.593 151.534 561.593 C 151.534 561.593 151.679 561.57 151.891 561.554 C 151.996 561.547 152.12 561.548 152.248 561.524 C 152.376 561.504 152.517 561.498 152.648 561.464 C 152.777 561.426 152.922 561.419 153.031 561.357 C 153.151 561.313 153.259 561.267 153.342 561.205 C 153.514 561.097 153.596 560.972 153.596 560.972 Z " fill="rgb(69,71,97)"/></g></svg>