<?xml version="1.0" encoding="UTF-8" standalone="no"?><!-- Generator: Gravit.io --><svg xmlns="http://www.w3.org/2000/svg" xmlns:xlink="http://www.w3.org/1999/xlink" style="isolation:isolate" viewBox="554.33 679.913 69.124 103.686" width="69.124pt" height="103.686pt"><g><path d=" M 623.454 780.876 C 623.454 782.38 622.235 783.599 620.732 783.599 L 557.051 783.599 C 555.548 783.599 554.33 782.38 554.33 780.876 L 554.33 682.636 C 554.33 681.132 555.548 679.913 557.051 679.913 L 620.732 679.913 C 622.235 679.913 623.454 681.132 623.454 682.636 L 623.454 780.876 Z " fill="rgb(234,232,232)"/><path d=" M 559.616 690.364 L 560.563 690.364 L 560.563 687.566 L 561.271 686.761 L 563.677 690.364 L 564.798 690.364 L 561.935 686.14 L 564.591 683.027 L 563.415 683.027 L 561.173 685.781 C 560.988 686.021 560.792 686.282 560.596 686.565 L 560.563 686.565 L 560.563 683.027 L 559.616 683.027 L 559.616 690.364 Z " fill="rgb(68,66,71)"/><path d=" M 618.168 773.148 L 617.221 773.148 L 617.221 775.946 L 616.513 776.751 L 614.107 773.148 L 612.986 773.148 L 615.849 777.372 L 613.193 780.485 L 614.369 780.485 L 616.611 777.731 C 616.796 777.491 616.992 777.23 617.188 776.947 L 617.221 776.947 L 617.221 780.485 L 618.168 780.485 L 618.168 773.148 Z " fill="rgb(68,66,71)"/><path d=" M 612.115 766.837 C 612.115 765.622 613.205 764.945 614.269 765.103 C 614.818 765.185 615.223 765.523 615.55 765.929 C 615.861 766.31 615.938 766.064 615.896 765.814 C 615.699 764.656 615.17 763.999 614.189 763.693 C 614.09 763.659 613.678 763.568 614.055 763.568 L 617.965 763.568 C 618.342 763.568 617.929 763.659 617.832 763.693 C 616.85 763.999 616.323 764.656 616.125 765.814 C 616.083 766.064 616.16 766.31 616.47 765.929 C 616.799 765.523 617.202 765.185 617.752 765.103 C 618.816 764.945 619.907 765.622 619.907 766.837 L 619.907 766.839 C 619.907 767.71 619.203 768.677 618.287 768.611 C 618.224 768.605 617.789 768.513 617.655 768.644 C 617.459 768.835 617.732 768.976 617.752 769.409 L 617.752 769.409 C 617.782 770.443 617.073 770.993 616.281 771.095 L 616.281 771.093 C 616.281 771.095 616.109 771.117 616.032 771.117 C 615.89 771.117 615.779 771.095 615.74 771.093 L 615.74 771.095 C 614.949 770.993 614.239 770.441 614.269 769.409 L 614.269 769.409 C 614.289 768.976 614.561 768.835 614.366 768.644 C 614.232 768.513 613.796 768.607 613.735 768.611 C 612.819 768.677 612.115 767.71 612.115 766.839 L 612.115 766.837 Z " fill="rgb(68,66,71)"/><path d=" M 616.019 771.117 C 616.024 771.117 616.027 771.117 616.032 771.117 C 616.109 771.117 616.281 771.095 616.281 771.093 L 616.281 771.095 C 617.073 770.993 617.782 770.443 617.752 769.409 L 617.752 769.409 C 617.732 768.976 617.459 768.835 617.655 768.644 C 617.789 768.513 618.224 768.605 618.287 768.611 C 619.203 768.677 619.907 767.71 619.907 766.839 L 619.907 766.837 C 619.907 765.622 618.816 764.945 617.752 765.103 C 617.202 765.185 616.799 765.523 616.47 765.929 C 616.16 766.31 616.083 766.064 616.125 765.814 C 616.323 764.656 616.85 763.999 617.832 763.693 C 617.929 763.659 618.342 763.568 617.965 763.568 L 616.019 763.568 L 616.019 771.117 Z " fill="rgb(87,86,90)"/><path d=" M 565.582 696.675 C 565.582 697.888 564.493 698.568 563.428 698.409 C 562.879 698.327 562.475 697.99 562.147 697.583 C 561.836 697.2 561.759 697.449 561.802 697.699 C 561.999 698.855 562.526 699.513 563.508 699.82 C 563.607 699.851 564.02 699.945 563.643 699.945 L 559.732 699.945 C 559.355 699.945 559.768 699.851 559.865 699.82 C 560.847 699.513 561.374 698.855 561.572 697.699 C 561.614 697.449 561.538 697.2 561.228 697.583 C 560.899 697.99 560.496 698.327 559.945 698.409 C 558.882 698.566 557.791 697.888 557.791 696.675 L 557.791 696.673 C 557.791 695.802 558.495 694.833 559.411 694.9 C 559.474 694.906 559.908 694.999 560.042 694.867 C 560.238 694.677 559.965 694.534 559.945 694.103 L 559.945 694.101 C 559.915 693.07 560.624 692.517 561.417 692.417 L 561.417 692.419 C 561.417 692.417 561.589 692.396 561.665 692.396 C 561.807 692.396 561.919 692.415 561.957 692.419 L 561.957 692.417 C 562.749 692.517 563.459 693.07 563.428 694.101 L 563.428 694.103 C 563.409 694.534 563.136 694.677 563.331 694.867 C 563.465 694.999 563.902 694.906 563.962 694.9 C 564.879 694.833 565.582 695.802 565.582 696.673 L 565.582 696.675 Z " fill="rgb(68,66,71)"/><path d=" M 561.678 692.396 C 561.674 692.396 561.67 692.396 561.665 692.396 C 561.589 692.396 561.417 692.417 561.417 692.419 L 561.417 692.417 C 560.624 692.517 559.915 693.07 559.945 694.101 L 559.945 694.103 C 559.965 694.534 560.238 694.677 560.042 694.867 C 559.908 694.999 559.474 694.906 559.411 694.9 C 558.495 694.833 557.791 695.802 557.791 696.673 L 557.791 696.675 C 557.791 697.888 558.882 698.566 559.945 698.409 C 560.496 698.327 560.899 697.99 561.228 697.583 C 561.538 697.2 561.614 697.449 561.572 697.699 C 561.374 698.855 560.847 699.513 559.865 699.82 C 559.768 699.851 559.355 699.945 559.732 699.945 L 561.678 699.945 L 561.678 692.396 Z " fill="rgb(87,86,90)"/><path d=" M 605.807 755.322 C 605.807 755.322 609.861 753.855 613.634 749.759 L 613.634 744.742 L 605.807 744.742 L 605.807 755.322 Z " fill="rgb(68,66,71)"/><path d=" M 613.634 742.247 L 613.634 714.093 C 613.634 714.093 610.095 709.581 602.993 708.913 C 602.993 708.913 602.861 737.431 613.634 742.247 Z " fill="rgb(68,66,71)"/><path d=" M 592.856 710.46 L 589.234 710.46 L 589.234 717.109 L 592.856 717.109 L 592.856 710.46 Z " fill="rgb(48,44,50)"/><path d=" M 600.118 708.165 L 596.496 708.165 L 596.496 714.814 L 600.118 714.814 L 600.118 708.165 Z " fill="rgb(48,44,50)"/><path d=" M 589.206 707.82 L 585.585 707.82 L 585.585 714.468 L 589.206 714.468 L 589.206 707.82 Z " fill="rgb(166,64,69)"/><path d=" M 596.478 709.988 L 592.856 709.988 L 592.856 716.636 L 596.478 716.636 L 596.478 709.988 Z " fill="rgb(166,64,69)"/><path d=" M 585.7 705.816 L 582.077 705.816 L 582.077 712.464 L 585.7 712.464 L 585.7 705.816 Z " fill="rgb(48,44,50)"/><path d=" M 582.05 705.683 L 578.427 705.683 L 578.427 709.822 L 582.05 709.822 L 582.05 705.683 Z " fill="rgb(166,64,69)"/><path d=" M 603.962 709.021 C 603.962 709.021 602.695 727.646 613.634 742.247 C 613.621 743.534 613.614 744.187 613.614 744.187 C 613.614 744.187 607.175 741.159 603.512 728.398 C 599.849 715.638 601.509 709.021 601.509 709.021 L 603.962 709.021 Z " fill="rgb(48,44,50)"/><path d=" M 602.289 709.437 C 602.289 709.437 601.954 721.693 604.978 729.038 C 608.003 736.382 610.109 741.39 613.634 744.156 L 613.634 749.759 C 613.634 749.759 603.696 740.15 600.437 729.325 C 597.178 718.499 597.787 709.033 597.787 709.033 L 602.289 709.437 Z " fill="rgb(234,232,232)"/><path d=" M 602.473 709.113 C 602.473 709.572 601.54 709.945 600.39 709.945 C 599.239 709.945 598.307 709.572 598.307 709.113 C 598.307 708.652 599.239 708.279 600.39 708.279 C 601.54 708.279 602.473 708.652 602.473 709.113 Z " fill="rgb(166,64,69)"/><path d=" M 602.319 710.943 C 602.342 711.394 601.451 711.806 600.325 711.865 C 599.2 711.925 598.268 711.607 598.245 711.158 C 598.22 710.708 599.114 710.296 600.24 710.236 C 601.364 710.177 602.295 710.493 602.319 710.943 Z " fill="rgb(166,64,69)"/><path d=" M 602.288 713.05 C 602.334 713.49 601.481 713.943 600.381 714.06 C 599.282 714.179 598.351 713.919 598.304 713.48 C 598.256 713.038 599.11 712.587 600.209 712.468 C 601.309 712.351 602.24 712.611 602.288 713.05 Z " fill="rgb(166,64,69)"/><path d=" M 602.383 715.388 C 602.455 715.818 601.64 716.31 600.565 716.488 C 599.491 716.665 598.562 716.462 598.491 716.033 C 598.419 715.603 599.233 715.111 600.309 714.933 C 601.383 714.755 602.312 714.958 602.383 715.388 Z " fill="rgb(166,64,69)"/><path d=" M 602.612 717.915 C 602.706 718.335 601.932 718.867 600.883 719.103 C 599.833 719.339 598.906 719.193 598.812 718.773 C 598.717 718.355 599.491 717.822 600.539 717.585 C 601.59 717.347 602.518 717.495 602.612 717.915 Z " fill="rgb(166,64,69)"/><path d=" M 602.98 720.587 C 603.099 720.995 602.365 721.568 601.339 721.865 C 600.316 722.159 599.389 722.07 599.271 721.659 C 599.153 721.249 599.887 720.679 600.911 720.382 C 601.935 720.085 602.862 720.177 602.98 720.587 Z " fill="rgb(166,64,69)"/><path d=" M 603.493 723.361 C 603.635 723.759 602.941 724.37 601.942 724.726 C 600.943 725.081 600.018 725.046 599.876 724.648 C 599.734 724.247 600.428 723.636 601.427 723.281 C 602.426 722.925 603.352 722.96 603.493 723.361 Z " fill="rgb(166,64,69)"/><path d=" M 604.158 726.191 C 604.323 726.579 603.668 727.232 602.695 727.646 C 601.721 728.062 600.796 728.083 600.631 727.693 C 600.465 727.304 601.121 726.654 602.094 726.238 C 603.068 725.824 603.993 725.802 604.158 726.191 Z " fill="rgb(166,64,69)"/><path d=" M 604.978 729.038 C 605.168 729.417 604.552 730.109 603.604 730.581 C 602.655 731.056 601.733 731.134 601.543 730.755 C 601.354 730.376 601.969 729.685 602.918 729.21 C 603.867 728.736 604.789 728.659 604.978 729.038 Z " fill="rgb(166,64,69)"/><path d=" M 605.961 731.855 C 606.174 732.224 605.598 732.956 604.675 733.49 C 603.751 734.023 602.83 734.156 602.618 733.786 C 602.405 733.419 602.981 732.687 603.903 732.154 C 604.827 731.62 605.748 731.488 605.961 731.855 Z " fill="rgb(166,64,69)"/><path d=" M 607.113 734.603 C 607.349 734.96 606.814 735.732 605.915 736.325 C 605.017 736.917 604.097 737.107 603.861 736.747 C 603.623 736.39 604.16 735.618 605.057 735.025 C 605.955 734.433 606.875 734.243 607.113 734.603 Z " fill="rgb(166,64,69)"/><path d=" M 608.438 737.234 C 608.698 737.581 608.202 738.394 607.329 739.044 C 606.455 739.697 605.537 739.943 605.276 739.595 C 605.016 739.245 605.512 738.433 606.385 737.783 C 607.258 737.13 608.177 736.884 608.438 737.234 Z " fill="rgb(166,64,69)"/><path d=" M 609.942 739.706 C 610.225 740.044 609.77 740.896 608.922 741.607 C 608.074 742.318 607.157 742.62 606.872 742.281 C 606.588 741.943 607.045 741.091 607.893 740.38 C 608.741 739.669 609.658 739.367 609.942 739.706 Z " fill="rgb(166,64,69)"/><path d=" M 611.632 741.976 C 611.94 742.304 611.523 743.197 610.7 743.966 C 609.878 744.738 608.961 745.095 608.655 744.767 C 608.346 744.439 608.763 743.546 609.585 742.777 C 610.409 742.007 611.325 741.648 611.632 741.976 Z " fill="rgb(166,64,69)"/><path d=" M 613.513 744.001 C 613.845 744.32 613.468 745.251 612.67 746.081 C 611.873 746.911 610.958 747.325 610.626 747.007 C 610.295 746.689 610.673 745.757 611.47 744.927 C 612.268 744.097 613.182 743.683 613.513 744.001 Z " fill="rgb(166,64,69)"/><path d=" M 592.611 725.32 L 586.854 725.32 L 586.854 718.949 L 592.611 718.949 L 592.611 725.32 Z " fill="rgb(73,93,167)"/><path d=" M 587.102 725.05 L 592.611 725.05 L 592.611 730.827 L 587.102 725.05 Z " fill="rgb(183,151,91)"/><path d=" M 586.903 724.56 L 592.709 724.56 L 592.709 719.831 L 586.903 719.831 L 586.903 724.56 Z " fill="rgb(183,151,91)"/><path d=" M 586.903 719.415 L 592.611 719.415 L 592.611 717.87 L 586.903 714.417 L 586.903 719.415 Z " fill="rgb(183,151,91)"/><path d=" M 593.724 731.378 L 593.502 717.974 L 598.227 715.304 C 598.227 715.304 599.156 726.406 600.278 728.398 C 601.4 730.394 593.724 731.378 593.724 731.378 Z " fill="rgb(68,66,71)"/><path d=" M 593.806 731.419 L 592.403 730.724 L 592.403 717.005 L 593.806 717.005 L 593.806 731.419 Z " fill="rgb(218,226,242)"/><path d=" M 594.258 731.945 L 592.856 731.247 L 592.856 717.531 L 594.258 717.531 L 594.258 731.945 Z " fill="rgb(48,44,50)"/><path d=" M 603.437 736.595 C 602.961 735.396 602.155 734.283 601.559 733.136 C 600.589 731.267 599.897 729.288 599.58 727.228 C 599.551 727.228 599.523 727.226 599.494 727.226 C 596.59 727.226 594.108 729.025 593.094 731.566 C 593.309 731.81 593.519 732.06 593.787 732.286 C 594.269 732.693 594.837 733.013 595.34 733.398 C 596.561 734.333 597.496 735.624 598.861 736.359 C 599.891 736.913 600.986 737.296 602.081 737.695 C 602.552 737.865 603.029 738.036 603.518 738.15 C 603.666 738.126 603.814 738.107 603.962 738.085 C 603.782 737.583 603.626 737.072 603.437 736.595 Z " fill="rgb(48,44,50)"/><path d=" M 603.437 736.595 C 602.961 735.396 602.155 734.283 601.559 733.136 C 600.675 731.431 600.022 729.636 599.672 727.771 C 599.614 727.769 599.554 727.767 599.494 727.767 C 596.724 727.767 594.37 729.542 593.502 732.017 C 593.591 732.109 593.684 732.199 593.787 732.286 C 594.269 732.693 594.837 733.013 595.34 733.398 C 596.561 734.333 597.496 735.624 598.861 736.359 C 599.891 736.913 600.986 737.296 602.081 737.695 C 602.552 737.865 603.029 738.036 603.518 738.15 C 603.666 738.126 603.815 738.107 603.962 738.085 C 603.782 737.583 603.626 737.072 603.437 736.595 Z " fill="rgb(183,151,91)"/><path d=" M 601.559 733.136 C 601.17 732.386 600.828 731.618 600.535 730.837 C 600.206 730.732 599.857 730.675 599.494 730.675 C 597.63 730.675 596.116 732.159 596.061 734.009 C 596.961 734.839 597.774 735.775 598.861 736.359 C 599.515 736.71 600.197 736.993 600.888 737.255 C 601.763 736.867 602.445 736.124 602.752 735.208 C 602.357 734.513 601.919 733.829 601.559 733.136 Z " fill="rgb(73,93,167)"/><path d=" M 580.067 720.554 L 585.703 723.806 L 585.989 713.312 L 580.067 710.05 L 580.067 720.554 Z " fill="rgb(68,66,71)"/><path d=" M 587.102 724.406 L 585.7 724.406 L 585.7 713.784 L 587.102 713.784 L 587.102 724.406 Z " fill="rgb(218,226,242)"/><path d=" M 574.704 706.859 C 574.704 706.859 577.129 705.497 579.63 705.146 L 579.932 720.363 C 579.932 720.363 576.094 718.939 574.37 719.005 L 574.704 706.859 Z " fill="rgb(185,200,230)"/><path d=" M 574.704 706.859 L 573.83 707.191 L 573.83 718.9 L 574.704 718.9 L 574.704 706.859 Z " fill="rgb(117,98,98)"/><path d=" M 573.83 707.191 C 573.83 707.191 572.537 707.73 571.976 708.159 L 571.976 718.74 L 573.83 718.74 L 573.83 707.191 Z " fill="rgb(48,44,50)"/><path d=" M 571.976 708.159 C 571.976 708.159 567.922 709.626 564.149 713.722 L 564.149 718.74 L 571.976 718.74 L 571.976 708.159 Z " fill="rgb(68,66,71)"/><path d=" M 586.581 723.933 L 585.178 723.933 L 585.178 713.312 L 586.581 713.312 L 586.581 723.933 Z " fill="rgb(48,44,50)"/><path d=" M 580.503 705.146 L 579.63 705.146 L 579.63 720.074 L 580.503 720.074 L 580.503 705.146 Z " fill="rgb(117,98,98)"/><path d=" M 602.821 738.337 C 602.294 738.337 601.608 738.234 600.746 737.908 C 597.893 736.825 594.404 733.849 590.375 729.058 C 585.524 723.29 580.755 720.997 577.609 720.089 C 574.205 719.107 570.337 719.29 570.314 719.294 L 570.148 718.355 C 570.247 718.337 574.211 718.128 577.81 719.156 C 581.1 720.093 586.077 722.466 591.106 728.445 C 600.155 739.204 603.605 737.247 603.638 737.226 L 604.177 738.011 C 604.108 738.06 603.676 738.337 602.821 738.337 Z " fill="rgb(164,121,83)"/><path d=" M 580.503 709.447 C 580.503 709.447 592.165 717.052 593.266 717.052 C 594.367 717.052 597.671 714.738 597.671 714.738 L 597.671 716.083 C 597.671 716.083 593.687 718.74 593.168 718.74 C 592.651 718.74 580.503 710.868 580.503 710.868 L 580.503 709.447 Z " fill="rgb(218,226,242)"/><path d=" M 581.807 705.802 C 581.807 705.802 591.663 713.048 593.061 713.048 C 594.459 713.048 598.516 709.425 598.516 709.425 L 581.807 705.802 Z " fill="rgb(183,151,91)"/><path d=" M 580.503 708.523 C 580.503 708.523 592.165 716.259 593.266 716.259 C 594.367 716.259 597.671 713.652 597.671 713.652 L 597.671 714.954 C 597.671 714.954 593.687 717.531 593.168 717.531 C 592.651 717.531 580.503 709.9 580.503 709.9 L 580.503 708.523 Z " fill="rgb(183,151,91)"/><path d=" M 597.353 709.96 C 597.353 709.96 597.326 722.265 600.204 730.382 C 603.081 738.497 610.327 749.911 612.457 750.949 L 613.634 749.759 C 613.634 749.759 608.536 745.556 601.24 729.784 C 599.341 721.978 599.276 725.353 598.358 709.447 C 597.441 693.54 597.353 709.96 597.353 709.96 Z " fill="rgb(164,121,83)"/><path d=" M 564.149 721.234 L 564.149 749.388 C 564.149 749.388 567.689 753.9 574.79 754.568 C 574.79 754.568 574.922 726.05 564.149 721.234 Z " fill="rgb(68,66,71)"/><path d=" M 584.927 753.021 L 588.549 753.021 L 588.549 746.372 L 584.927 746.372 L 584.927 753.021 Z " fill="rgb(48,44,50)"/><path d=" M 577.665 755.316 L 581.288 755.316 L 581.288 748.667 L 577.665 748.667 L 577.665 755.316 Z " fill="rgb(48,44,50)"/><path d=" M 588.577 755.661 L 592.199 755.661 L 592.199 749.013 L 588.577 749.013 L 588.577 755.661 Z " fill="rgb(166,64,69)"/><path d=" M 581.305 753.493 L 584.927 753.493 L 584.927 746.845 L 581.305 746.845 L 581.305 753.493 Z " fill="rgb(166,64,69)"/><path d=" M 592.083 757.665 L 595.706 757.665 L 595.706 751.017 L 592.083 751.017 L 592.083 757.665 Z " fill="rgb(48,44,50)"/><path d=" M 595.733 757.798 L 599.356 757.798 L 599.356 753.658 L 595.733 753.658 L 595.733 757.798 Z " fill="rgb(166,64,69)"/><path d=" M 573.821 754.46 C 573.821 754.46 575.089 735.833 564.149 721.234 C 564.163 719.947 564.168 719.294 564.168 719.294 C 564.168 719.294 570.608 722.322 574.271 735.081 C 577.935 747.843 576.274 754.46 576.274 754.46 L 573.821 754.46 Z " fill="rgb(48,44,50)"/><path d=" M 575.495 754.044 C 575.495 754.044 575.83 741.788 572.805 734.445 C 569.781 727.099 567.674 722.091 564.149 719.325 L 564.149 713.722 C 564.149 713.722 569.588 714.827 577.346 734.158 C 580.605 744.982 579.996 754.449 579.996 754.449 L 575.495 754.044 Z " fill="rgb(234,232,232)"/><path d=" M 575.311 754.368 C 575.311 753.909 576.243 753.536 577.393 753.536 C 578.544 753.536 579.477 753.909 579.477 754.368 C 579.477 754.829 578.544 755.2 577.393 755.2 C 576.243 755.2 575.311 754.829 575.311 754.368 Z " fill="rgb(166,64,69)"/><path d=" M 575.464 752.538 C 575.441 752.087 576.333 751.675 577.458 751.617 C 578.584 751.558 579.515 751.874 579.539 752.324 C 579.563 752.773 578.669 753.185 577.544 753.243 C 576.419 753.304 575.488 752.988 575.464 752.538 Z " fill="rgb(166,64,69)"/><path d=" M 575.496 750.431 C 575.448 749.992 576.302 749.54 577.402 749.421 C 578.501 749.302 579.432 749.562 579.48 750.001 C 579.527 750.441 578.673 750.894 577.574 751.013 C 576.473 751.132 575.543 750.87 575.496 750.431 Z " fill="rgb(166,64,69)"/><path d=" M 575.4 748.093 C 575.33 747.663 576.143 747.171 577.218 746.993 C 578.292 746.816 579.222 747.019 579.293 747.449 C 579.363 747.878 578.55 748.37 577.475 748.548 C 576.4 748.726 575.471 748.523 575.4 748.093 Z " fill="rgb(166,64,69)"/><path d=" M 575.171 745.566 C 575.078 745.146 575.851 744.615 576.9 744.378 C 577.95 744.14 578.877 744.288 578.971 744.708 C 579.067 745.128 578.293 745.659 577.244 745.896 C 576.194 746.134 575.266 745.986 575.171 745.566 Z " fill="rgb(166,64,69)"/><path d=" M 574.803 742.894 C 574.685 742.486 575.418 741.913 576.443 741.617 C 577.467 741.322 578.395 741.413 578.512 741.822 C 578.631 742.232 577.896 742.802 576.872 743.099 C 575.848 743.396 574.922 743.304 574.803 742.894 Z " fill="rgb(166,64,69)"/><path d=" M 574.289 740.122 C 574.148 739.722 574.842 739.111 575.841 738.755 C 576.84 738.4 577.765 738.435 577.908 738.833 C 578.049 739.234 577.355 739.845 576.357 740.2 C 575.357 740.556 574.432 740.521 574.289 740.122 Z " fill="rgb(166,64,69)"/><path d=" M 573.625 737.29 C 573.46 736.902 574.115 736.249 575.089 735.833 C 576.062 735.419 576.987 735.4 577.152 735.786 C 577.318 736.177 576.663 736.827 575.689 737.243 C 574.715 737.658 573.79 737.679 573.625 737.29 Z " fill="rgb(166,64,69)"/><path d=" M 572.805 734.445 C 572.616 734.064 573.231 733.372 574.18 732.898 C 575.128 732.425 576.05 732.347 576.24 732.726 C 576.429 733.105 575.814 733.798 574.865 734.271 C 573.916 734.745 572.995 734.822 572.805 734.445 Z " fill="rgb(166,64,69)"/><path d=" M 571.822 731.624 C 571.609 731.257 572.185 730.525 573.109 729.992 C 574.031 729.458 574.953 729.325 575.165 729.695 C 575.378 730.064 574.802 730.794 573.879 731.327 C 572.956 731.861 572.036 731.995 571.822 731.624 Z " fill="rgb(166,64,69)"/><path d=" M 570.67 728.88 C 570.434 728.521 570.97 727.749 571.869 727.156 C 572.766 726.564 573.686 726.374 573.922 726.734 C 574.16 727.093 573.623 727.863 572.725 728.456 C 571.828 729.048 570.908 729.238 570.67 728.88 Z " fill="rgb(166,64,69)"/><path d=" M 569.346 726.247 C 569.085 725.9 569.582 725.087 570.455 724.435 C 571.328 723.784 572.246 723.538 572.506 723.888 C 572.767 724.236 572.27 725.046 571.398 725.699 C 570.526 726.351 569.606 726.597 569.346 726.247 Z " fill="rgb(166,64,69)"/><path d=" M 567.841 723.775 C 567.557 723.437 568.014 722.585 568.861 721.874 C 569.709 721.163 570.626 720.861 570.911 721.2 C 571.195 721.538 570.738 722.39 569.89 723.101 C 569.042 723.812 568.125 724.115 567.841 723.775 Z " fill="rgb(166,64,69)"/><path d=" M 566.151 721.505 C 565.843 721.175 566.26 720.284 567.082 719.515 C 567.905 718.743 568.821 718.386 569.129 718.714 C 569.436 719.044 569.019 719.935 568.198 720.704 C 567.375 721.474 566.458 721.833 566.151 721.505 Z " fill="rgb(166,64,69)"/><path d=" M 564.27 719.48 C 563.938 719.159 564.316 718.23 565.113 717.4 C 565.91 716.57 566.824 716.156 567.157 716.474 C 567.488 716.792 567.11 717.724 566.313 718.554 C 565.516 719.382 564.601 719.796 564.27 719.48 Z " fill="rgb(166,64,69)"/><path d=" M 585.172 738.161 L 590.929 738.161 L 590.929 744.533 L 585.172 744.533 L 585.172 738.161 Z " fill="rgb(73,93,167)"/><path d=" M 590.681 738.431 L 585.172 738.431 L 585.172 732.654 L 590.681 738.431 Z " fill="rgb(183,151,91)"/><path d=" M 590.88 738.921 L 585.074 738.921 L 585.074 743.65 L 590.88 743.65 L 590.88 738.921 Z " fill="rgb(183,151,91)"/><path d=" M 590.88 744.066 L 585.172 744.066 L 585.172 745.609 L 590.88 749.064 L 590.88 744.066 Z " fill="rgb(183,151,91)"/><path d=" M 584.059 732.103 L 584.281 745.507 L 579.556 748.177 C 579.556 748.177 578.628 737.075 577.505 735.081 C 576.383 733.089 584.059 732.103 584.059 732.103 Z " fill="rgb(68,66,71)"/><path d=" M 583.977 732.062 L 585.381 732.757 L 585.381 746.476 L 583.977 746.476 L 583.977 732.062 Z " fill="rgb(218,226,242)"/><path d=" M 583.524 731.536 L 584.927 732.232 L 584.927 745.952 L 583.524 745.952 L 583.524 731.536 Z " fill="rgb(48,44,50)"/><path d=" M 574.346 726.886 C 574.823 728.085 575.628 729.199 576.224 730.347 C 577.194 732.214 577.886 734.193 578.203 736.253 C 578.232 736.253 578.26 736.255 578.289 736.255 C 581.193 736.255 583.675 734.458 584.689 731.915 C 584.474 731.671 584.264 731.421 583.996 731.195 C 583.514 730.788 582.946 730.468 582.443 730.083 C 581.222 729.148 580.288 727.857 578.922 727.122 C 577.893 726.57 576.798 726.185 575.702 725.786 C 575.231 725.617 574.754 725.445 574.265 725.331 C 574.117 725.355 573.969 725.376 573.821 725.396 C 574.001 725.898 574.157 726.409 574.346 726.886 Z " fill="rgb(48,44,50)"/><path d=" M 574.346 726.886 C 574.823 728.085 575.628 729.199 576.224 730.347 C 577.108 732.05 577.761 733.845 578.111 735.71 C 578.17 735.712 578.229 735.714 578.289 735.714 C 581.06 735.714 583.414 733.939 584.281 731.464 C 584.191 731.372 584.099 731.283 583.996 731.195 C 583.514 730.788 582.946 730.468 582.443 730.083 C 581.222 729.148 580.288 727.857 578.922 727.122 C 577.893 726.57 576.798 726.185 575.702 725.786 C 575.231 725.617 574.754 725.445 574.265 725.331 C 574.117 725.355 573.969 725.376 573.821 725.396 C 574.001 725.898 574.157 726.409 574.346 726.886 Z " fill="rgb(183,151,91)"/><path d=" M 576.224 730.347 C 576.614 731.095 576.955 731.863 577.248 732.644 C 577.578 732.747 577.926 732.806 578.289 732.806 C 580.154 732.806 581.667 731.322 581.723 729.47 C 580.822 728.642 580.008 727.706 578.922 727.122 C 578.268 726.771 577.586 726.488 576.896 726.224 C 576.021 726.615 575.339 727.357 575.032 728.273 C 575.426 728.968 575.864 729.652 576.224 730.347 Z " fill="rgb(73,93,167)"/><path d=" M 597.716 742.927 L 592.08 739.675 L 591.795 750.169 L 597.716 753.431 L 597.716 742.927 Z " fill="rgb(68,66,71)"/><path d=" M 590.681 739.075 L 592.083 739.075 L 592.083 749.697 L 590.681 749.697 L 590.681 739.075 Z " fill="rgb(218,226,242)"/><path d=" M 603.08 756.622 C 603.08 756.622 600.655 757.984 598.154 758.333 L 597.851 743.118 C 597.851 743.118 601.69 744.54 603.414 744.476 L 603.08 756.622 Z " fill="rgb(185,200,230)"/><path d=" M 603.08 756.622 L 603.953 756.292 L 603.953 744.579 L 603.08 744.579 L 603.08 756.622 Z " fill="rgb(117,98,98)"/><path d=" M 603.953 756.292 C 603.953 756.292 605.246 755.753 605.807 755.322 L 605.807 744.742 L 603.953 744.742 L 603.953 756.292 Z " fill="rgb(48,44,50)"/><path d=" M 591.203 739.548 L 592.605 739.548 L 592.605 750.169 L 591.203 750.169 L 591.203 739.548 Z " fill="rgb(48,44,50)"/><path d=" M 597.28 758.333 L 598.154 758.333 L 598.154 743.408 L 597.28 743.408 L 597.28 758.333 Z " fill="rgb(117,98,98)"/><path d=" M 574.963 725.144 C 575.489 725.144 576.175 725.247 577.037 725.574 C 579.891 726.656 583.379 729.632 587.409 734.421 C 592.259 740.191 597.028 742.484 600.174 743.392 C 603.578 744.374 607.277 743.921 607.3 743.915 L 607.467 744.855 C 607.367 744.872 603.573 745.351 599.973 744.325 C 596.684 743.388 591.706 741.017 586.678 735.036 C 577.629 724.277 574.179 726.236 574.145 726.255 L 573.606 725.47 C 573.675 725.421 574.107 725.144 574.963 725.144 Z " fill="rgb(164,121,83)"/><path d=" M 597.28 754.034 C 597.28 754.034 585.619 746.429 584.518 746.429 C 583.416 746.429 580.112 748.743 580.112 748.743 L 580.112 747.398 C 580.112 747.398 584.096 744.742 584.615 744.742 C 585.133 744.742 597.28 752.613 597.28 752.613 L 597.28 754.034 Z " fill="rgb(218,226,242)"/><path d=" M 595.977 757.679 C 595.977 757.679 586.121 750.435 584.722 750.435 C 583.324 750.435 579.268 754.056 579.268 754.056 L 595.977 757.679 Z " fill="rgb(183,151,91)"/><path d=" M 597.28 754.958 C 597.28 754.958 585.619 747.224 584.518 747.224 C 583.416 747.224 580.112 749.829 580.112 749.829 L 580.112 748.527 C 580.112 748.527 584.096 745.952 584.615 745.952 C 585.133 745.952 597.28 753.581 597.28 753.581 L 597.28 754.958 Z " fill="rgb(183,151,91)"/><path d=" M 580.43 753.521 C 580.43 753.521 580.457 741.216 577.58 733.099 C 574.701 724.984 568.12 713.691 565.165 712.687 L 564.149 713.722 C 566.701 715.013 574.994 727.562 576.543 733.697 C 578.442 741.503 578.507 738.128 579.424 754.034 C 580.343 769.941 580.43 753.521 580.43 753.521 Z " fill="rgb(164,121,83)"/><path d=" M 598.781 692.902 C 598.781 692.902 598.154 698.736 598.781 699.933 C 599.407 701.128 600.602 703.775 600.602 703.775 C 600.602 703.775 598.011 702.835 597.955 705.511 C 597.898 708.187 600.089 708.044 600.887 708.044 C 601.684 708.044 603.99 707.107 602.481 703.406 C 600.972 699.704 600.704 701.185 600.467 698.509 C 600.232 695.833 600.467 693.072 600.467 693.072 L 598.781 692.902 Z " fill="rgb(221,220,219)"/><path d=" M 599.606 691.187 C 599.606 691.187 598.98 697.023 599.606 698.218 C 600.232 699.413 601.427 702.06 601.427 702.06 C 601.427 702.06 598.837 701.122 598.78 703.798 C 598.723 706.474 600.914 706.331 601.712 706.331 C 602.509 706.331 604.815 705.392 603.306 701.691 C 601.798 697.99 601.529 699.47 601.293 696.794 C 601.057 694.118 601.293 691.357 601.293 691.357 L 599.606 691.187 Z " fill="rgb(234,232,232)"/><path d=" M 600.7 699.585 C 600.7 699.585 605.174 716.624 595.016 716.624 C 584.858 716.624 586.064 703.622 589.239 699.044 C 592.413 694.466 600.7 699.585 600.7 699.585 Z " fill="rgb(221,220,219)"/><path d=" M 600.479 692.484 C 600.479 692.484 601.227 695.32 600.775 696.226 C 600.322 697.132 600.782 698.689 600.7 699.585 C 600.617 700.482 599.396 702.017 596.737 700.204 C 596.737 700.204 589.882 703.868 589.823 699.142 C 589.764 694.413 590.099 691.894 590.099 691.894 C 590.099 691.894 598.371 690.968 600.479 692.484 Z " fill="rgb(218,226,242)"/><path d=" M 581.891 690.39 C 581.891 690.39 582.518 696.226 581.891 697.421 C 581.265 698.617 580.07 701.263 580.07 701.263 C 580.07 701.263 582.661 700.325 582.717 703.001 C 582.775 705.677 580.582 705.534 579.785 705.534 C 578.988 705.534 576.682 704.595 578.191 700.894 C 579.7 697.193 579.968 698.673 580.205 695.997 C 580.44 693.322 580.205 690.56 580.205 690.56 L 581.891 690.39 Z " fill="rgb(107,107,110)"/><path d=" M 582.689 691.187 C 582.689 691.187 583.315 697.023 582.689 698.218 C 582.063 699.413 580.867 702.06 580.867 702.06 C 580.867 702.06 583.457 701.122 583.514 703.798 C 583.572 706.474 581.379 706.331 580.582 706.331 C 579.785 706.331 577.479 705.392 578.988 701.691 C 580.496 697.99 580.766 699.47 581.001 696.794 C 581.237 694.118 581.001 691.357 581.001 691.357 L 582.689 691.187 Z " fill="rgb(130,132,134)"/><path d=" M 583.856 692.013 C 583.856 692.013 584.482 697.847 583.856 699.044 C 583.23 700.24 582.034 702.886 582.034 702.886 C 582.034 702.886 584.624 701.947 584.681 704.622 C 584.739 707.298 582.546 707.156 581.749 707.156 C 580.952 707.156 578.646 706.218 580.156 702.517 C 581.664 698.816 581.933 700.296 582.168 697.62 C 582.404 694.945 582.168 692.183 582.168 692.183 L 583.856 692.013 Z " fill="rgb(149,153,154)"/><path d=" M 585.553 692.269 C 585.553 692.269 586.18 698.105 585.553 699.3 C 584.927 700.495 583.732 703.144 583.732 703.144 C 583.732 703.144 586.323 702.202 586.379 704.88 C 586.436 707.556 584.245 707.413 583.447 707.413 C 582.65 707.413 580.344 706.474 581.853 702.773 C 583.362 699.072 583.63 700.552 583.866 697.876 C 584.101 695.2 583.866 692.439 583.866 692.439 L 585.553 692.269 Z " fill="rgb(171,174,175)"/><path d=" M 587.205 692.013 C 587.205 692.013 587.83 697.847 587.205 699.044 C 586.579 700.24 585.383 702.886 585.383 702.886 C 585.383 702.886 587.973 701.947 588.03 704.622 C 588.087 707.298 585.896 707.156 585.098 707.156 C 584.301 707.156 581.996 706.218 583.504 702.517 C 585.012 698.816 585.282 700.296 585.517 697.62 C 585.752 694.945 585.517 692.183 585.517 692.183 L 587.205 692.013 Z " fill="rgb(196,196,195)"/><path d=" M 588.884 691.784 C 588.884 691.784 589.51 697.62 588.884 698.816 C 588.258 700.011 587.062 702.659 587.062 702.659 C 587.062 702.659 589.653 701.72 589.71 704.396 C 589.767 707.072 587.575 706.929 586.778 706.929 C 585.98 706.929 583.674 705.99 585.184 702.288 C 586.692 698.589 586.961 700.068 587.197 697.392 C 587.432 694.716 587.197 691.956 587.197 691.956 L 588.884 691.784 Z " fill="rgb(221,220,219)"/><path d=" M 590.393 691.472 C 590.393 691.472 591.019 697.306 590.393 698.503 C 589.767 699.699 588.571 702.345 588.571 702.345 C 588.571 702.345 591.162 701.406 591.218 704.081 C 591.276 706.759 589.083 706.617 588.286 706.617 C 587.489 706.617 585.184 705.677 586.692 701.976 C 588.201 698.275 588.469 699.755 588.705 697.079 C 588.941 694.404 588.705 691.642 588.705 691.642 L 590.393 691.472 Z " fill="rgb(234,232,232)"/><path d=" M 596.737 700.204 C 596.737 700.204 599.478 700.445 600.467 702.115 C 600.467 702.115 599.014 703.517 596.896 702.472 C 596.896 702.472 594.496 703.39 592.301 702.751 C 592.301 702.751 593.821 700.441 596.737 700.204 Z " fill="rgb(234,232,232)"/><path d=" M 578.686 684.515 L 582.024 683.82 L 582.698 687.066 C 583.539 686.868 584.428 686.708 585.341 686.577 L 584.963 683.484 L 588.502 683.05 L 588.89 686.214 C 589.898 686.146 590.902 686.105 591.876 686.081 L 591.876 682.835 L 595.49 682.835 L 595.49 686.077 C 596.585 686.099 597.574 686.138 598.398 686.179 L 598.946 682.923 L 602.832 683.577 L 601.519 691.388 L 600.796 691.267 L 600.788 691.615 L 581.352 692.363 L 581.318 692.056 L 580.297 692.269 L 578.686 684.515 Z " fill="rgb(183,151,91)"/><path d=" M 601.293 692.71 C 601.293 692.71 591.289 691.183 580.307 693.777 L 580.205 692.013 C 580.205 692.013 593.972 688.798 601.574 691.187 L 601.293 692.71 Z " fill="rgb(48,44,50)"/><path d=" M 597.836 695.138 C 597.836 695.138 598.5 694.869 599.236 694.862 C 599.417 694.851 599.607 694.877 599.779 694.906 C 599.951 694.955 600.098 695.046 600.22 695.114 C 600.428 695.331 600.508 695.491 600.508 695.491 L 600.485 695.512 C 600.485 695.512 600.294 695.447 600.094 695.333 C 599.971 695.305 599.836 695.273 599.7 695.213 C 599.545 695.2 599.391 695.132 599.222 695.117 C 598.886 695.079 598.538 695.088 598.279 695.114 C 598.018 695.133 597.844 695.169 597.844 695.169 L 597.836 695.138 Z " fill="rgb(130,132,134)"/><path d=" M 594.925 695.169 C 594.925 695.169 594.751 695.133 594.491 695.114 C 594.231 695.088 593.883 695.079 593.546 695.117 C 593.377 695.132 593.224 695.2 593.07 695.213 C 592.932 695.273 592.797 695.305 592.674 695.333 C 592.474 695.447 592.284 695.512 592.284 695.512 L 592.26 695.491 C 592.26 695.491 592.34 695.331 592.548 695.114 C 592.67 695.046 592.819 694.955 592.991 694.906 C 593.163 694.877 593.352 694.851 593.534 694.862 C 594.269 694.869 594.933 695.138 594.933 695.138 L 594.925 695.169 Z " fill="rgb(130,132,134)"/><path d=" M 595.858 696.367 C 595.858 696.367 595.706 696.539 595.413 696.725 C 595.265 696.807 595.087 696.915 594.878 696.975 C 594.669 697.039 594.444 697.107 594.208 697.112 C 593.973 697.151 593.738 697.146 593.521 697.096 C 593.298 697.079 593.104 697.011 592.951 696.923 C 592.636 696.764 592.455 696.623 592.455 696.623 L 592.468 696.594 C 592.468 696.594 592.708 696.609 593.028 696.681 C 593.185 696.735 593.373 696.751 593.572 696.783 C 593.77 696.818 593.98 696.867 594.197 696.857 C 594.414 696.876 594.626 696.836 594.828 696.797 C 595.028 696.76 595.206 696.684 595.361 696.626 C 595.664 696.491 595.836 696.343 595.836 696.343 L 595.858 696.367 Z " fill="rgb(69,71,97)"/><path d=" M 597.946 696.343 C 597.946 696.343 598.074 696.443 598.294 696.533 C 598.515 696.619 598.816 696.718 599.123 696.708 C 599.278 696.712 599.425 696.692 599.566 696.667 C 599.704 696.642 599.839 696.653 599.953 696.619 C 600.181 696.583 600.363 696.594 600.363 696.594 L 600.376 696.623 C 600.376 696.623 600.252 696.74 600.024 696.863 C 599.912 696.931 599.766 696.973 599.603 696.983 C 599.443 697.021 599.269 696.995 599.1 696.962 C 598.928 696.951 598.769 696.88 598.619 696.834 C 598.473 696.774 598.343 696.702 598.241 696.632 C 598.033 696.492 597.924 696.367 597.924 696.367 L 597.946 696.343 Z " fill="rgb(69,71,97)"/><path d=" M 597.349 695.85 C 597.349 695.85 597.317 696.318 597.377 697.012 C 597.408 697.36 597.469 697.76 597.57 698.179 C 597.621 698.388 597.706 698.593 597.775 698.805 C 597.883 699.006 597.993 699.21 598.102 699.414 C 598.163 699.498 598.201 699.66 598.205 699.816 C 598.188 699.968 598.13 700.103 598.036 700.214 C 597.847 700.423 597.601 700.518 597.371 700.576 C 597.137 700.621 596.907 700.648 596.691 700.607 C 596.478 700.573 596.276 700.514 596.111 700.412 C 595.944 700.324 595.807 700.194 595.729 700.059 C 595.629 699.936 595.611 699.795 595.581 699.693 C 595.568 699.477 595.579 699.361 595.579 699.361 L 595.61 699.361 C 595.61 699.361 595.63 699.48 595.688 699.663 C 595.741 699.747 595.775 699.859 595.873 699.948 C 595.952 700.048 596.082 700.125 596.226 700.187 C 596.366 700.257 596.542 700.29 596.725 700.302 C 596.909 700.314 597.104 700.308 597.299 700.267 C 597.492 700.22 597.678 700.135 597.812 700.013 C 597.944 699.87 597.971 699.739 597.871 699.522 C 597.77 699.309 597.669 699.096 597.571 698.887 C 597.509 698.659 597.432 698.439 597.389 698.221 C 597.305 697.783 597.272 697.371 597.266 697.019 C 597.253 696.313 597.318 695.848 597.318 695.848 L 597.349 695.85 Z " fill="rgb(69,71,97)"/><path d=" M 579.003 770.613 C 579.003 770.613 579.629 764.777 579.003 763.579 C 578.376 762.384 577.181 759.738 577.181 759.738 C 577.181 759.738 579.772 760.677 579.829 757.999 C 579.885 755.325 577.694 755.466 576.897 755.466 C 576.099 755.466 573.793 756.406 575.302 760.107 C 576.811 763.808 577.08 762.327 577.315 765.003 C 577.551 767.679 577.315 770.441 577.315 770.441 L 579.003 770.613 Z " fill="rgb(221,220,219)"/><path d=" M 578.177 772.325 C 578.177 772.325 578.803 766.49 578.177 765.294 C 577.551 764.099 576.356 761.45 576.356 761.45 C 576.356 761.45 578.947 762.39 579.003 759.714 C 579.06 757.038 576.869 757.181 576.071 757.181 C 575.274 757.181 572.968 758.12 574.477 761.822 C 575.986 765.523 576.254 764.042 576.491 766.718 C 576.726 769.394 576.491 772.156 576.491 772.156 L 578.177 772.325 Z " fill="rgb(234,232,232)"/><path d=" M 577.084 763.927 C 577.084 763.927 572.609 746.888 582.767 746.888 C 592.925 746.888 591.719 759.89 588.545 764.468 C 585.371 769.046 577.084 763.927 577.084 763.927 Z " fill="rgb(221,220,219)"/><path d=" M 577.304 771.029 C 577.304 771.029 576.556 768.191 577.009 767.286 C 577.462 766.38 577.001 764.824 577.084 763.927 C 577.166 763.033 578.387 761.495 581.046 763.308 C 581.046 763.308 587.901 759.644 587.96 764.37 C 588.019 769.097 587.684 771.618 587.684 771.618 C 587.684 771.618 579.412 772.544 577.304 771.029 Z " fill="rgb(218,226,242)"/><path d=" M 595.891 773.122 C 595.891 773.122 595.265 767.286 595.891 766.091 C 596.518 764.896 597.714 762.249 597.714 762.249 C 597.714 762.249 595.123 763.189 595.066 760.511 C 595.009 757.835 597.202 757.978 597.998 757.978 C 598.795 757.978 601.101 758.917 599.592 762.618 C 598.083 766.32 597.815 764.839 597.58 767.515 C 597.344 770.191 597.58 772.952 597.58 772.952 L 595.891 773.122 Z " fill="rgb(107,107,110)"/><path d=" M 595.094 772.325 C 595.094 772.325 594.468 766.49 595.094 765.294 C 595.721 764.099 596.916 761.45 596.916 761.45 C 596.916 761.45 594.326 762.39 594.269 759.714 C 594.212 757.038 596.404 757.181 597.202 757.181 C 597.998 757.181 600.304 758.12 598.795 761.822 C 597.287 765.523 597.017 764.042 596.782 766.718 C 596.546 769.394 596.782 772.156 596.782 772.156 L 595.094 772.325 Z " fill="rgb(130,132,134)"/><path d=" M 593.927 771.499 C 593.927 771.499 593.301 765.663 593.927 764.468 C 594.554 763.273 595.749 760.626 595.749 760.626 C 595.749 760.626 593.159 761.566 593.102 758.89 C 593.045 756.214 595.237 756.355 596.034 756.355 C 596.83 756.355 599.137 757.294 597.628 760.995 C 596.12 764.697 595.85 763.216 595.615 765.892 C 595.379 768.568 595.615 771.329 595.615 771.329 L 593.927 771.499 Z " fill="rgb(149,153,154)"/><path d=" M 592.23 771.243 C 592.23 771.243 591.604 765.408 592.23 764.212 C 592.856 763.017 594.051 760.368 594.051 760.368 C 594.051 760.368 591.461 761.31 591.404 758.632 C 591.347 755.956 593.538 756.099 594.336 756.099 C 595.133 756.099 597.439 757.038 595.93 760.74 C 594.421 764.441 594.153 762.96 593.917 765.636 C 593.681 768.312 593.917 771.074 593.917 771.074 L 592.23 771.243 Z " fill="rgb(171,174,175)"/><path d=" M 590.579 771.499 C 590.579 771.499 589.953 765.663 590.579 764.468 C 591.205 763.273 592.4 760.626 592.4 760.626 C 592.4 760.626 589.81 761.566 589.753 758.89 C 589.696 756.214 591.888 756.355 592.685 756.355 C 593.483 756.355 595.788 757.294 594.279 760.995 C 592.77 764.697 592.501 763.216 592.266 765.892 C 592.031 768.568 592.266 771.329 592.266 771.329 L 590.579 771.499 Z " fill="rgb(196,196,195)"/><path d=" M 588.899 771.728 C 588.899 771.728 588.273 765.892 588.899 764.697 C 589.526 763.501 590.721 760.853 590.721 760.853 C 590.721 760.853 588.13 761.792 588.074 759.117 C 588.016 756.441 590.208 756.583 591.006 756.583 C 591.803 756.583 594.109 757.523 592.6 761.224 C 591.091 764.923 590.822 763.445 590.586 766.12 C 590.351 768.796 590.586 771.556 590.586 771.556 L 588.899 771.728 Z " fill="rgb(221,220,219)"/><path d=" M 587.39 772.04 C 587.39 772.04 586.764 766.204 587.39 765.009 C 588.016 763.814 589.212 761.167 589.212 761.167 C 589.212 761.167 586.621 762.105 586.565 759.431 C 586.508 756.755 588.7 756.898 589.496 756.898 C 590.294 756.898 592.6 757.835 591.091 761.536 C 589.582 765.238 589.313 763.757 589.078 766.433 C 588.842 769.109 589.078 771.87 589.078 771.87 L 587.39 772.04 Z " fill="rgb(234,232,232)"/><path d=" M 581.046 763.308 C 581.046 763.308 578.305 763.068 577.315 761.398 C 577.315 761.398 578.769 759.995 580.887 761.04 C 580.887 761.04 583.287 760.122 585.482 760.761 C 585.482 760.761 583.962 763.072 581.046 763.308 Z " fill="rgb(234,232,232)"/><path d=" M 599.097 778.997 L 595.76 779.691 L 595.085 776.447 C 594.244 776.644 593.356 776.804 592.442 776.935 L 592.821 780.029 L 589.281 780.462 L 588.893 777.298 C 587.885 777.367 586.881 777.408 585.907 777.431 L 585.907 780.677 L 582.293 780.677 L 582.293 777.435 C 581.198 777.413 580.209 777.374 579.385 777.333 L 578.838 780.589 L 574.951 779.935 L 576.264 772.124 L 576.987 772.247 L 576.996 771.9 L 596.431 771.15 L 596.465 771.456 L 597.486 771.243 L 599.097 778.997 Z " fill="rgb(183,151,91)"/><path d=" M 576.491 770.802 C 576.491 770.802 586.493 772.329 597.477 769.738 L 597.58 771.499 C 597.58 771.499 583.811 774.714 576.209 772.325 L 576.491 770.802 Z " fill="rgb(48,44,50)"/><path d=" M 579.948 768.374 C 579.948 768.374 579.284 768.643 578.548 768.651 C 578.367 768.661 578.177 768.635 578.005 768.607 C 577.833 768.557 577.685 768.466 577.563 768.399 C 577.355 768.181 577.275 768.022 577.275 768.022 L 577.298 768 C 577.298 768 577.489 768.066 577.689 768.179 C 577.812 768.207 577.947 768.24 578.084 768.299 C 578.238 768.312 578.392 768.38 578.561 768.396 C 578.898 768.433 579.246 768.424 579.505 768.399 C 579.766 768.379 579.94 768.343 579.94 768.343 L 579.948 768.374 Z " fill="rgb(130,132,134)"/><path d=" M 582.858 768.343 C 582.858 768.343 583.032 768.379 583.292 768.399 C 583.552 768.424 583.9 768.433 584.237 768.396 C 584.406 768.38 584.56 768.312 584.713 768.299 C 584.851 768.24 584.986 768.207 585.109 768.179 C 585.309 768.066 585.499 768 585.499 768 L 585.523 768.022 C 585.523 768.022 585.443 768.181 585.235 768.399 C 585.113 768.466 584.964 768.557 584.792 768.607 C 584.621 768.635 584.431 768.661 584.249 768.651 C 583.514 768.643 582.85 768.374 582.85 768.374 L 582.858 768.343 Z " fill="rgb(130,132,134)"/><path d=" M 581.925 767.146 C 581.925 767.146 582.077 766.973 582.37 766.787 C 582.518 766.705 582.696 766.597 582.905 766.537 C 583.114 766.473 583.339 766.406 583.575 766.401 C 583.81 766.362 584.045 766.367 584.262 766.416 C 584.485 766.433 584.679 766.501 584.832 766.589 C 585.147 766.748 585.329 766.889 585.329 766.889 L 585.315 766.918 C 585.315 766.918 585.075 766.904 584.755 766.83 C 584.598 766.778 584.41 766.761 584.211 766.73 C 584.013 766.694 583.803 766.645 583.586 766.656 C 583.369 766.636 583.157 766.676 582.955 766.715 C 582.755 766.752 582.577 766.828 582.422 766.886 C 582.119 767.022 581.947 767.169 581.947 767.169 L 581.925 767.146 Z " fill="rgb(69,71,97)"/><path d=" M 579.838 767.169 C 579.838 767.169 579.71 767.07 579.49 766.979 C 579.269 766.893 578.967 766.794 578.66 766.804 C 578.506 766.799 578.358 766.821 578.218 766.845 C 578.08 766.87 577.944 766.86 577.831 766.893 C 577.602 766.929 577.42 766.918 577.42 766.918 L 577.407 766.889 C 577.407 766.889 577.531 766.773 577.76 766.65 C 577.871 766.581 578.017 766.539 578.18 766.53 C 578.34 766.492 578.514 766.517 578.684 766.55 C 578.855 766.561 579.015 766.632 579.165 766.678 C 579.311 766.739 579.441 766.81 579.543 766.88 C 579.751 767.02 579.86 767.146 579.86 767.146 L 579.838 767.169 Z " fill="rgb(69,71,97)"/><path d=" M 580.434 767.662 C 580.434 767.662 580.466 767.195 580.406 766.5 C 580.376 766.153 580.315 765.752 580.214 765.333 C 580.163 765.125 580.078 764.92 580.009 764.707 C 579.901 764.506 579.791 764.302 579.682 764.098 C 579.621 764.015 579.583 763.853 579.579 763.698 C 579.596 763.545 579.653 763.409 579.747 763.299 C 579.936 763.089 580.183 762.995 580.413 762.937 C 580.646 762.892 580.877 762.866 581.092 762.907 C 581.305 762.941 581.507 762.998 581.672 763.101 C 581.839 763.19 581.976 763.32 582.054 763.453 C 582.154 763.576 582.173 763.717 582.202 763.82 C 582.216 764.035 582.205 764.152 582.205 764.152 L 582.174 764.152 C 582.174 764.152 582.154 764.033 582.096 763.849 C 582.043 763.765 582.008 763.654 581.91 763.566 C 581.831 763.465 581.701 763.388 581.557 763.326 C 581.417 763.255 581.241 763.222 581.058 763.211 C 580.874 763.2 580.679 763.205 580.484 763.245 C 580.291 763.292 580.105 763.377 579.971 763.499 C 579.84 763.642 579.812 763.774 579.913 763.991 C 580.014 764.203 580.115 764.416 580.213 764.626 C 580.275 764.854 580.352 765.074 580.395 765.292 C 580.479 765.73 580.511 766.142 580.518 766.494 C 580.531 767.2 580.465 767.664 580.465 767.664 L 580.434 767.662 Z " fill="rgb(69,71,97)"/></g></svg>