<?xml version="1.0" encoding="UTF-8" standalone="no"?><!-- Generator: Gravit.io --><svg xmlns="http://www.w3.org/2000/svg" xmlns:xlink="http://www.w3.org/1999/xlink" style="isolation:isolate" viewBox="176.62 0 69.123 103.685" width="69.123pt" height="103.685pt"><g><path d=" M 245.743 100.963 C 245.743 102.466 244.525 103.685 243.022 103.685 L 179.342 103.685 C 177.839 103.685 176.62 102.466 176.62 100.963 L 176.62 2.722 C 176.62 1.218 177.839 0 179.342 0 L 243.022 0 C 244.525 0 245.743 1.218 245.743 2.722 L 245.743 100.963 Z " fill="rgb(234,232,232)"/><path d=" M 186.244 10.45 L 186.244 9.655 L 183.076 9.655 L 183.076 9.633 L 183.631 9.111 C 185.123 7.674 186.07 6.618 186.07 5.312 C 186.07 4.299 185.427 3.254 183.903 3.254 C 183.098 3.254 182.39 3.57 181.911 3.973 L 182.216 4.648 C 182.543 4.376 183.076 4.049 183.718 4.049 C 184.774 4.049 185.112 4.713 185.112 5.431 C 185.112 6.498 184.284 7.413 182.477 9.133 L 181.726 9.862 L 181.726 10.45 L 186.244 10.45 Z " fill="rgb(68,66,71)"/><path d=" M 236.118 93.235 L 236.118 94.03 L 239.286 94.03 L 239.286 94.051 L 238.731 94.574 C 237.239 96.011 236.292 97.067 236.292 98.373 C 236.292 99.385 236.935 100.43 238.459 100.43 C 239.264 100.43 239.972 100.115 240.451 99.712 L 240.146 99.037 C 239.819 99.309 239.286 99.636 238.644 99.636 C 237.588 99.636 237.25 98.972 237.25 98.253 C 237.25 97.186 238.078 96.272 239.885 94.552 L 240.636 93.823 L 240.636 93.235 L 236.118 93.235 Z " fill="rgb(68,66,71)"/><path d=" M 234.406 86.923 C 234.406 85.709 235.495 85.03 236.559 85.189 C 237.108 85.272 237.513 85.608 237.841 86.015 C 238.151 86.397 238.229 86.15 238.186 85.899 C 237.989 84.742 237.462 84.086 236.479 83.777 C 236.382 83.746 235.968 83.652 236.345 83.652 L 240.256 83.652 C 240.633 83.652 240.219 83.746 240.123 83.777 C 239.141 84.086 238.614 84.742 238.417 85.899 C 238.374 86.15 238.45 86.397 238.76 86.015 C 239.09 85.608 239.492 85.272 240.043 85.189 C 241.106 85.031 242.197 85.709 242.197 86.923 L 242.197 86.924 C 242.197 87.795 241.493 88.764 240.577 88.697 C 240.514 88.691 240.08 88.599 239.945 88.731 C 239.75 88.921 240.022 89.063 240.043 89.495 L 240.043 89.496 C 240.072 90.528 239.363 91.08 238.571 91.18 L 238.571 91.179 C 238.571 91.18 238.399 91.201 238.322 91.201 C 238.18 91.203 238.069 91.182 238.03 91.179 L 238.03 91.18 C 237.239 91.08 236.529 90.527 236.559 89.496 L 236.559 89.495 C 236.58 89.063 236.851 88.921 236.657 88.731 C 236.522 88.599 236.087 88.693 236.025 88.697 C 235.109 88.764 234.406 87.795 234.406 86.924 L 234.406 86.923 Z " fill="rgb(68,66,71)"/><path d=" M 238.309 91.201 C 238.314 91.201 238.317 91.201 238.322 91.201 C 238.399 91.201 238.571 91.18 238.571 91.179 L 238.571 91.18 C 239.363 91.08 240.072 90.528 240.043 89.496 L 240.043 89.495 C 240.022 89.063 239.75 88.921 239.945 88.731 C 240.08 88.599 240.514 88.691 240.577 88.697 C 241.493 88.764 242.197 87.795 242.197 86.924 L 242.197 86.923 C 242.197 85.709 241.106 85.031 240.043 85.189 C 239.492 85.272 239.09 85.608 238.76 86.015 C 238.45 86.397 238.374 86.15 238.417 85.899 C 238.614 84.742 239.141 84.086 240.123 83.777 C 240.219 83.746 240.633 83.652 240.256 83.652 L 238.309 83.652 L 238.309 91.201 Z " fill="rgb(87,86,90)"/><path d=" M 187.873 16.761 C 187.873 17.975 186.783 18.653 185.718 18.495 C 185.17 18.412 184.765 18.075 184.437 17.669 C 184.127 17.287 184.05 17.533 184.093 17.784 C 184.29 18.941 184.817 19.598 185.799 19.906 C 185.897 19.938 186.31 20.031 185.933 20.031 L 182.022 20.031 C 181.645 20.031 182.058 19.938 182.155 19.906 C 183.137 19.598 183.665 18.941 183.862 17.784 C 183.905 17.533 183.829 17.287 183.518 17.669 C 183.189 18.075 182.786 18.412 182.235 18.495 C 181.173 18.652 180.082 17.975 180.082 16.761 L 180.082 16.76 C 180.082 15.889 180.785 14.92 181.701 14.986 C 181.764 14.992 182.198 15.085 182.333 14.953 C 182.528 14.763 182.256 14.621 182.235 14.188 L 182.235 14.188 C 182.206 13.155 182.915 12.604 183.708 12.504 L 183.708 12.505 C 183.708 12.504 183.88 12.482 183.956 12.482 C 184.097 12.48 184.21 12.502 184.248 12.505 L 184.248 12.504 C 185.04 12.604 185.75 13.156 185.718 14.188 L 185.718 14.188 C 185.698 14.621 185.426 14.763 185.622 14.953 C 185.756 15.085 186.192 14.99 186.253 14.986 C 187.169 14.92 187.873 15.889 187.873 16.76 L 187.873 16.761 Z " fill="rgb(68,66,71)"/><path d=" M 183.968 12.482 C 183.965 12.482 183.961 12.482 183.956 12.482 C 183.88 12.482 183.708 12.504 183.708 12.505 L 183.708 12.504 C 182.915 12.604 182.206 13.155 182.235 14.188 L 182.235 14.188 C 182.256 14.621 182.528 14.763 182.333 14.953 C 182.198 15.085 181.764 14.992 181.701 14.986 C 180.785 14.92 180.082 15.889 180.082 16.76 L 180.082 16.761 C 180.082 17.975 181.173 18.652 182.235 18.495 C 182.786 18.412 183.189 18.075 183.518 17.669 C 183.829 17.287 183.905 17.533 183.862 17.784 C 183.665 18.941 183.137 19.598 182.155 19.906 C 182.058 19.938 181.645 20.031 182.022 20.031 L 183.968 20.031 L 183.968 12.482 Z " fill="rgb(87,86,90)"/><path d=" M 218.703 34.423 C 218.703 36.767 216.599 38.078 214.544 37.771 C 213.484 37.612 212.703 36.962 212.07 36.178 C 211.47 35.439 211.322 35.915 211.404 36.398 C 211.785 38.633 212.802 39.901 214.698 40.495 C 214.888 40.557 215.686 40.737 214.958 40.737 L 207.408 40.737 C 206.679 40.737 207.477 40.557 207.665 40.495 C 209.56 39.901 210.579 38.633 210.96 36.398 C 211.042 35.915 210.895 35.439 210.296 36.178 C 209.66 36.962 208.882 37.612 207.819 37.771 C 205.767 38.075 203.66 36.767 203.66 34.423 L 203.66 34.421 C 203.66 32.739 205.018 30.869 206.788 30.998 C 206.909 31.008 207.747 31.188 208.008 30.934 C 208.384 30.565 207.858 30.293 207.819 29.457 L 207.819 29.455 C 207.762 27.462 209.132 26.397 210.66 26.204 L 210.66 26.206 C 210.66 26.204 210.993 26.163 211.142 26.163 C 211.414 26.16 211.631 26.201 211.705 26.206 L 211.705 26.204 C 213.232 26.397 214.603 27.464 214.544 29.455 L 214.544 29.457 C 214.506 30.293 213.981 30.565 214.356 30.934 C 214.616 31.188 215.457 31.006 215.575 30.998 C 217.344 30.869 218.703 32.739 218.703 34.421 L 218.703 34.423 Z " fill="rgb(68,66,71)"/><path d=" M 211.165 26.163 C 211.157 26.163 211.149 26.163 211.142 26.163 C 210.993 26.163 210.66 26.204 210.66 26.206 L 210.66 26.204 C 209.132 26.397 207.762 27.462 207.819 29.455 L 207.819 29.457 C 207.858 30.293 208.384 30.565 208.008 30.934 C 207.747 31.188 206.909 31.008 206.788 30.998 C 205.018 30.869 203.66 32.739 203.66 34.421 L 203.66 34.423 C 203.66 36.767 205.767 38.075 207.819 37.771 C 208.882 37.612 209.66 36.962 210.296 36.178 C 210.895 35.439 211.042 35.915 210.96 36.398 C 210.579 38.633 209.56 39.901 207.665 40.495 C 207.477 40.557 206.679 40.737 207.408 40.737 L 211.165 40.737 L 211.165 26.163 Z " fill="rgb(87,86,90)"/><path d=" M 218.703 71.207 C 218.703 73.55 216.599 74.861 214.544 74.556 C 213.484 74.397 212.703 73.746 212.07 72.962 C 211.47 72.224 211.322 72.699 211.404 73.183 C 211.785 75.417 212.802 76.686 214.698 77.279 C 214.888 77.341 215.686 77.521 214.958 77.521 L 207.408 77.521 C 206.679 77.521 207.477 77.341 207.665 77.279 C 209.56 76.686 210.579 75.417 210.96 73.183 C 211.042 72.699 210.895 72.224 210.296 72.962 C 209.66 73.746 208.882 74.397 207.819 74.556 C 205.767 74.859 203.66 73.55 203.66 71.207 L 203.66 71.205 C 203.66 69.522 205.018 67.653 206.788 67.782 C 206.909 67.792 207.747 67.972 208.008 67.718 C 208.384 67.35 207.858 67.077 207.819 66.241 L 207.819 66.239 C 207.762 64.246 209.132 63.182 210.66 62.988 L 210.66 62.99 C 210.66 62.988 210.993 62.947 211.142 62.947 C 211.414 62.944 211.631 62.985 211.705 62.99 L 211.705 62.988 C 213.232 63.182 214.603 64.248 214.544 66.239 L 214.544 66.241 C 214.506 67.077 213.981 67.35 214.356 67.718 C 214.616 67.972 215.457 67.79 215.575 67.782 C 217.344 67.653 218.703 69.522 218.703 71.205 L 218.703 71.207 Z " fill="rgb(68,66,71)"/><path d=" M 211.165 62.947 C 211.157 62.947 211.149 62.947 211.142 62.947 C 210.993 62.947 210.66 62.988 210.66 62.99 L 210.66 62.988 C 209.132 63.182 207.762 64.246 207.819 66.239 L 207.819 66.241 C 207.858 67.077 208.384 67.35 208.008 67.718 C 207.747 67.972 206.909 67.792 206.788 67.782 C 205.018 67.653 203.66 69.522 203.66 71.205 L 203.66 71.207 C 203.66 73.55 205.767 74.859 207.819 74.556 C 208.882 74.397 209.66 73.745 210.296 72.962 C 210.895 72.224 211.042 72.699 210.96 73.183 C 210.579 75.417 209.56 76.686 207.665 77.279 C 207.477 77.341 206.679 77.521 207.408 77.521 L 211.165 77.521 L 211.165 62.947 Z " fill="rgb(87,86,90)"/></g></svg>