<?xml version="1.0" encoding="UTF-8" standalone="no"?><!-- Generator: Gravit.io --><svg xmlns="http://www.w3.org/2000/svg" xmlns:xlink="http://www.w3.org/1999/xlink" style="isolation:isolate" viewBox="564.938 25.977 69.124 103.685" width="69.124pt" height="103.685pt"><g><path d=" M 634.062 126.94 C 634.062 128.443 632.843 129.662 631.34 129.662 L 567.66 129.662 C 566.157 129.662 564.938 128.443 564.938 126.94 L 564.938 28.699 C 564.938 27.195 566.157 25.977 567.66 25.977 L 631.34 25.977 C 632.843 25.977 634.062 27.195 634.062 28.699 L 634.062 126.94 Z " fill="rgb(234,232,232)"/><path d=" M 622.767 112.9 C 622.767 111.686 623.856 111.007 624.92 111.166 C 625.469 111.249 625.874 111.585 626.201 111.992 C 626.512 112.374 626.59 112.127 626.547 111.876 C 626.35 110.719 625.822 110.063 624.841 109.754 C 624.742 109.723 624.329 109.629 624.706 109.629 L 628.617 109.629 C 628.993 109.629 628.581 109.723 628.483 109.754 C 627.502 110.063 626.975 110.719 626.777 111.876 C 626.734 112.127 626.811 112.374 627.121 111.992 C 627.45 111.585 627.853 111.249 628.403 111.166 C 629.467 111.008 630.558 111.686 630.558 112.9 L 630.558 112.901 C 630.558 113.772 629.854 114.741 628.938 114.674 C 628.875 114.668 628.44 114.576 628.306 114.708 C 628.11 114.898 628.384 115.04 628.403 115.472 L 628.403 115.473 C 628.433 116.505 627.724 117.057 626.932 117.157 L 626.932 117.156 C 626.932 117.157 626.76 117.178 626.683 117.178 C 626.541 117.18 626.43 117.159 626.391 117.156 L 626.391 117.157 C 625.6 117.057 624.89 116.504 624.92 115.473 L 624.92 115.472 C 624.94 115.04 625.212 114.898 625.018 114.708 C 624.883 114.576 624.447 114.67 624.387 114.674 C 623.47 114.741 622.767 113.772 622.767 112.901 L 622.767 112.9 Z " fill="rgb(68,66,71)"/><path d=" M 626.671 117.178 C 626.675 117.178 626.679 117.178 626.683 117.178 C 626.76 117.178 626.932 117.157 626.932 117.156 L 626.932 117.157 C 627.724 117.057 628.433 116.505 628.403 115.473 L 628.403 115.472 C 628.384 115.04 628.11 114.898 628.306 114.708 C 628.44 114.576 628.875 114.668 628.938 114.674 C 629.854 114.741 630.558 113.772 630.558 112.901 L 630.558 112.9 C 630.558 111.686 629.467 111.008 628.403 111.166 C 627.853 111.249 627.45 111.585 627.121 111.992 C 626.811 112.374 626.734 112.127 626.777 111.876 C 626.975 110.719 627.502 110.063 628.483 109.754 C 628.581 109.723 628.993 109.629 628.617 109.629 L 626.671 109.629 L 626.671 117.178 Z " fill="rgb(87,86,90)"/><path d=" M 576.233 42.738 C 576.233 43.952 575.144 44.63 574.079 44.472 C 573.531 44.389 573.126 44.052 572.798 43.646 C 572.487 43.264 572.41 43.51 572.453 43.761 C 572.65 44.918 573.178 45.575 574.159 45.883 C 574.258 45.915 574.671 46.008 574.294 46.008 L 570.383 46.008 C 570.006 46.008 570.419 45.915 570.517 45.883 C 571.498 45.575 572.025 44.918 572.223 43.761 C 572.266 43.51 572.189 43.264 571.879 43.646 C 571.55 44.052 571.146 44.389 570.596 44.472 C 569.533 44.629 568.442 43.952 568.442 42.738 L 568.442 42.737 C 568.442 41.866 569.146 40.897 570.062 40.963 C 570.125 40.969 570.559 41.062 570.693 40.93 C 570.89 40.74 570.616 40.598 570.596 40.165 L 570.596 40.165 C 570.566 39.132 571.275 38.581 572.068 38.481 L 572.068 38.482 C 572.068 38.481 572.24 38.46 572.317 38.46 C 572.458 38.457 572.57 38.479 572.608 38.482 L 572.608 38.481 C 573.4 38.581 574.11 39.133 574.079 40.165 L 574.079 40.165 C 574.06 40.598 573.788 40.74 573.982 40.93 C 574.116 41.062 574.553 40.967 574.613 40.963 C 575.53 40.897 576.233 41.866 576.233 42.737 L 576.233 42.738 Z " fill="rgb(68,66,71)"/><path d=" M 572.329 38.46 C 572.325 38.46 572.321 38.46 572.317 38.46 C 572.24 38.46 572.068 38.481 572.068 38.482 L 572.068 38.481 C 571.275 38.581 570.566 39.132 570.596 40.165 L 570.596 40.165 C 570.616 40.598 570.89 40.74 570.693 40.93 C 570.559 41.062 570.125 40.969 570.062 40.963 C 569.146 40.897 568.442 41.866 568.442 42.737 L 568.442 42.738 C 568.442 43.952 569.533 44.629 570.596 44.472 C 571.146 44.389 571.55 44.052 571.879 43.646 C 572.189 43.264 572.266 43.51 572.223 43.761 C 572.025 44.918 571.498 45.575 570.517 45.883 C 570.419 45.915 570.006 46.008 570.383 46.008 L 572.329 46.008 L 572.329 38.46 Z " fill="rgb(87,86,90)"/><path d=" M 570.011 36.068 C 570.36 36.297 571.056 36.547 571.851 36.547 C 573.538 36.547 574.431 35.557 574.431 34.425 C 574.42 33.434 573.723 32.781 572.852 32.618 L 572.852 32.596 C 573.712 32.28 574.159 31.66 574.159 30.92 C 574.159 30.06 573.527 29.232 572.134 29.232 C 571.372 29.232 570.653 29.504 570.272 29.777 L 570.534 30.473 C 570.839 30.256 571.383 30.005 571.949 30.005 C 572.831 30.005 573.19 30.506 573.19 31.072 C 573.19 31.91 572.308 32.269 571.611 32.269 L 571.078 32.269 L 571.078 32.988 L 571.611 32.988 C 572.537 32.988 573.429 33.412 573.44 34.403 C 573.451 35.002 573.059 35.775 571.84 35.775 C 571.165 35.775 570.545 35.502 570.272 35.339 L 570.011 36.068 Z " fill="rgb(68,66,71)"/><path d=" M 628.988 119.571 C 628.639 119.343 627.943 119.092 627.148 119.092 C 625.461 119.092 624.568 120.083 624.568 121.215 C 624.579 122.206 625.276 122.859 626.147 123.022 L 626.147 123.044 C 625.287 123.359 624.84 123.98 624.84 124.72 C 624.84 125.58 625.472 126.407 626.865 126.407 C 627.627 126.407 628.346 126.135 628.727 125.863 L 628.465 125.166 C 628.16 125.384 627.616 125.635 627.05 125.635 C 626.168 125.635 625.809 125.134 625.809 124.568 C 625.809 123.73 626.691 123.37 627.388 123.37 L 627.921 123.37 L 627.921 122.652 L 627.388 122.652 C 626.462 122.652 625.57 122.227 625.559 121.237 C 625.548 120.638 625.94 119.865 627.159 119.865 C 627.834 119.865 628.454 120.137 628.727 120.301 L 628.988 119.571 Z " fill="rgb(68,66,71)"/><path d=" M 622.766 54.268 C 622.766 56.611 620.661 57.923 618.606 57.617 C 617.548 57.457 616.765 56.807 616.133 56.023 C 615.533 55.285 615.384 55.76 615.467 56.244 C 615.848 58.478 616.865 59.747 618.761 60.34 C 618.952 60.402 619.748 60.582 619.021 60.582 L 611.471 60.582 C 610.742 60.582 611.54 60.402 611.728 60.34 C 613.623 59.747 614.642 58.478 615.022 56.244 C 615.104 55.76 614.958 55.285 614.358 56.023 C 613.723 56.807 612.944 57.457 611.882 57.617 C 609.83 57.92 607.724 56.611 607.724 54.268 L 607.724 54.266 C 607.724 52.583 609.081 50.714 610.851 50.843 C 610.972 50.853 611.81 51.034 612.07 50.779 C 612.447 50.411 611.921 50.138 611.882 49.302 L 611.882 49.3 C 611.825 47.307 613.193 46.243 614.724 46.049 L 614.724 46.051 C 614.724 46.049 615.056 46.008 615.204 46.008 C 615.478 46.005 615.692 46.046 615.768 46.051 L 615.768 46.049 C 617.296 46.243 618.666 47.309 618.606 49.3 L 618.606 49.302 C 618.568 50.138 618.043 50.411 618.419 50.779 C 618.679 51.034 619.52 50.851 619.638 50.843 C 621.407 50.714 622.766 52.583 622.766 54.266 L 622.766 54.268 Z " fill="rgb(68,66,71)"/><path d=" M 615.228 46.008 C 615.22 46.008 615.212 46.008 615.204 46.008 C 615.056 46.008 614.724 46.049 614.724 46.051 L 614.724 46.049 C 613.193 46.243 611.825 47.307 611.882 49.3 L 611.882 49.302 C 611.921 50.138 612.447 50.411 612.07 50.779 C 611.81 51.034 610.972 50.853 610.851 50.843 C 609.081 50.714 607.724 52.583 607.724 54.266 L 607.724 54.268 C 607.724 56.611 609.83 57.92 611.882 57.617 C 612.944 57.457 613.723 56.807 614.358 56.023 C 614.958 55.285 615.104 55.76 615.022 56.244 C 614.642 58.478 613.623 59.747 611.728 60.34 C 611.54 60.402 610.742 60.582 611.471 60.582 L 615.228 60.582 L 615.228 46.008 Z " fill="rgb(87,86,90)"/><path d=" M 607.038 78.793 C 607.038 81.135 604.934 82.447 602.879 82.14 C 601.819 81.982 601.037 81.331 600.404 80.546 C 599.806 79.808 599.656 80.284 599.738 80.767 C 600.119 83.001 601.138 84.27 603.033 84.864 C 603.224 84.926 604.021 85.106 603.293 85.106 L 595.743 85.106 C 595.015 85.106 595.812 84.926 595.999 84.864 C 597.895 84.27 598.913 83.001 599.294 80.767 C 599.376 80.284 599.229 79.808 598.631 80.546 C 597.995 81.331 597.216 81.982 596.154 82.14 C 594.102 82.444 591.995 81.135 591.995 78.793 L 591.995 78.79 C 591.995 77.108 593.353 75.238 595.122 75.367 C 595.244 75.376 596.082 75.557 596.343 75.302 C 596.72 74.935 596.192 74.662 596.154 73.826 L 596.154 73.824 C 596.098 71.831 597.466 70.766 598.995 70.573 L 598.995 70.576 C 598.995 70.573 599.328 70.532 599.477 70.532 C 599.749 70.529 599.965 70.57 600.04 70.576 L 600.04 70.573 C 601.567 70.766 602.938 71.833 602.879 73.824 L 602.879 73.826 C 602.84 74.662 602.315 74.935 602.691 75.302 C 602.95 75.557 603.792 75.375 603.91 75.367 C 605.68 75.238 607.038 77.108 607.038 78.79 L 607.038 78.793 Z " fill="rgb(68,66,71)"/><path d=" M 599.5 70.532 C 599.492 70.532 599.484 70.532 599.477 70.532 C 599.328 70.532 598.995 70.573 598.995 70.576 L 598.995 70.573 C 597.466 70.766 596.098 71.831 596.154 73.824 L 596.154 73.826 C 596.192 74.662 596.72 74.935 596.343 75.302 C 596.082 75.557 595.244 75.376 595.122 75.367 C 593.353 75.238 591.995 77.108 591.995 78.79 L 591.995 78.793 C 591.995 81.135 594.102 82.444 596.154 82.14 C 597.216 81.981 597.995 81.331 598.631 80.546 C 599.229 79.808 599.376 80.284 599.294 80.767 C 598.913 83.001 597.895 84.27 595.999 84.864 C 595.812 84.926 595.015 85.106 595.743 85.106 L 599.5 85.106 L 599.5 70.532 Z " fill="rgb(87,86,90)"/><path d=" M 591.293 103.316 C 591.293 105.659 589.189 106.97 587.134 106.665 C 586.075 106.505 585.292 105.855 584.66 105.07 C 584.061 104.332 583.911 104.808 583.994 105.292 C 584.375 107.526 585.393 108.793 587.288 109.388 C 587.479 109.45 588.276 109.629 587.548 109.629 L 579.998 109.629 C 579.27 109.629 580.067 109.45 580.255 109.388 C 582.15 108.793 583.169 107.526 583.55 105.292 C 583.632 104.808 583.485 104.332 582.886 105.07 C 582.251 105.855 581.472 106.505 580.409 106.665 C 578.357 106.968 576.251 105.659 576.251 103.316 L 576.251 103.314 C 576.251 101.631 577.608 99.762 579.378 99.89 C 579.499 99.901 580.337 100.081 580.598 99.827 C 580.975 99.458 580.448 99.186 580.409 98.35 L 580.409 98.347 C 580.353 96.355 581.722 95.29 583.251 95.097 L 583.251 95.099 C 583.251 95.097 583.583 95.056 583.731 95.056 C 584.005 95.053 584.221 95.094 584.295 95.099 L 584.295 95.097 C 585.823 95.29 587.193 96.357 587.134 98.347 L 587.134 98.35 C 587.096 99.186 586.571 99.458 586.946 99.827 C 587.206 100.081 588.048 99.898 588.165 99.89 C 589.935 99.762 591.293 101.631 591.293 103.314 L 591.293 103.316 Z " fill="rgb(68,66,71)"/><path d=" M 583.755 95.056 C 583.747 95.056 583.739 95.055 583.731 95.056 C 583.583 95.056 583.251 95.097 583.251 95.099 L 583.251 95.097 C 581.722 95.29 580.353 96.354 580.409 98.347 L 580.409 98.35 C 580.448 99.186 580.975 99.458 580.598 99.827 C 580.337 100.081 579.499 99.9 579.378 99.89 C 577.608 99.761 576.251 101.631 576.251 103.314 L 576.251 103.316 C 576.251 105.659 578.357 106.968 580.409 106.665 C 581.472 106.505 582.251 105.854 582.886 105.07 C 583.485 104.332 583.632 104.808 583.55 105.292 C 583.169 107.526 582.15 108.793 580.255 109.388 C 580.067 109.45 579.27 109.629 579.998 109.629 L 583.755 109.629 L 583.755 95.056 Z " fill="rgb(87,86,90)"/></g></svg>