<?xml version="1.0" encoding="UTF-8" standalone="no"?><!-- Generator: Gravit.io --><svg xmlns="http://www.w3.org/2000/svg" xmlns:xlink="http://www.w3.org/1999/xlink" style="isolation:isolate" viewBox="239.215 132.707 69.123 103.683" width="69.123pt" height="103.683pt"><g><path d=" M 308.338 233.669 C 308.338 235.172 307.12 236.39 305.617 236.39 L 241.937 236.39 C 240.434 236.39 239.215 235.172 239.215 233.669 L 239.215 135.427 C 239.215 133.925 240.434 132.707 241.937 132.707 L 305.617 132.707 C 307.12 132.707 308.338 133.925 308.338 135.427 L 308.338 233.669 Z " fill="rgb(234,232,232)"/><path d=" M 265.537 160.998 C 265.537 163.341 263.434 164.653 261.379 164.346 C 260.318 164.187 259.537 163.537 258.904 162.752 C 258.306 162.014 258.156 162.49 258.238 162.973 C 258.619 165.208 259.638 166.476 261.533 167.07 C 261.723 167.131 262.521 167.312 261.793 167.312 L 254.242 167.312 C 253.515 167.312 254.312 167.131 254.499 167.07 C 256.395 166.476 257.413 165.208 257.794 162.973 C 257.876 162.49 257.729 162.014 257.13 162.752 C 256.495 163.537 255.716 164.187 254.654 164.346 C 252.602 164.65 250.495 163.341 250.495 160.998 L 250.495 160.996 C 250.495 159.314 251.853 157.444 253.622 157.573 C 253.744 157.583 254.582 157.763 254.842 157.508 C 255.22 157.14 254.692 156.868 254.654 156.032 L 254.654 156.03 C 254.597 154.037 255.966 152.972 257.495 152.779 L 257.495 152.781 C 257.495 152.779 257.827 152.738 257.977 152.738 C 258.249 152.735 258.465 152.776 258.539 152.781 L 258.539 152.779 C 260.067 152.972 261.438 154.039 261.379 156.03 L 261.379 156.032 C 261.34 156.868 260.815 157.14 261.191 157.508 C 261.45 157.763 262.291 157.581 262.41 157.573 C 264.18 157.444 265.537 159.314 265.537 160.996 L 265.537 160.998 Z " fill="rgb(68,66,71)"/><path d=" M 258 152.738 C 257.992 152.738 257.983 152.738 257.977 152.738 C 257.827 152.738 257.495 152.779 257.495 152.781 L 257.495 152.779 C 255.966 152.972 254.597 154.037 254.654 156.03 L 254.654 156.032 C 254.692 156.868 255.22 157.14 254.842 157.508 C 254.582 157.763 253.744 157.583 253.622 157.573 C 251.853 157.444 250.495 159.314 250.495 160.996 L 250.495 160.998 C 250.495 163.341 252.602 164.65 254.654 164.346 C 255.716 164.187 256.495 163.537 257.13 162.752 C 257.729 162.014 257.876 162.49 257.794 162.973 C 257.413 165.208 256.395 166.476 254.499 167.07 C 254.312 167.131 253.515 167.312 254.242 167.312 L 258 167.312 L 258 152.738 Z " fill="rgb(87,86,90)"/><path d=" M 296.994 160.998 C 296.994 163.341 294.89 164.653 292.835 164.346 C 291.775 164.187 290.993 163.537 290.361 162.752 C 289.762 162.014 289.612 162.49 289.695 162.973 C 290.075 165.208 291.094 166.476 292.989 167.07 C 293.18 167.131 293.977 167.312 293.249 167.312 L 285.699 167.312 C 284.971 167.312 285.769 167.131 285.956 167.07 C 287.852 166.476 288.869 165.208 289.251 162.973 C 289.332 162.49 289.186 162.014 288.587 162.752 C 287.951 163.537 287.173 164.187 286.11 164.346 C 284.058 164.65 281.952 163.341 281.952 160.998 L 281.952 160.996 C 281.952 159.314 283.31 157.444 285.079 157.573 C 285.2 157.583 286.038 157.763 286.299 157.508 C 286.676 157.14 286.148 156.868 286.11 156.032 L 286.11 156.03 C 286.054 154.037 287.422 152.972 288.952 152.779 L 288.952 152.781 C 288.952 152.779 289.284 152.738 289.433 152.738 C 289.705 152.735 289.922 152.776 289.996 152.781 L 289.996 152.779 C 291.523 152.972 292.895 154.039 292.835 156.03 L 292.835 156.032 C 292.797 156.868 292.271 157.14 292.647 157.508 C 292.907 157.763 293.748 157.581 293.866 157.573 C 295.636 157.444 296.994 159.314 296.994 160.996 L 296.994 160.998 Z " fill="rgb(68,66,71)"/><path d=" M 289.456 152.738 C 289.448 152.738 289.44 152.738 289.433 152.738 C 289.284 152.738 288.952 152.779 288.952 152.781 L 288.952 152.779 C 287.422 152.972 286.054 154.037 286.11 156.03 L 286.11 156.032 C 286.148 156.868 286.676 157.14 286.299 157.508 C 286.038 157.763 285.2 157.583 285.079 157.573 C 283.31 157.444 281.952 159.314 281.952 160.996 L 281.952 160.998 C 281.952 163.341 284.058 164.65 286.11 164.346 C 287.173 164.187 287.951 163.537 288.587 162.752 C 289.186 162.014 289.332 162.49 289.251 162.973 C 288.869 165.208 287.852 166.476 285.956 167.07 C 285.769 167.131 284.971 167.312 285.699 167.312 L 289.456 167.312 L 289.456 152.738 Z " fill="rgb(87,86,90)"/><path d=" M 265.537 210.045 C 265.537 212.388 263.434 213.701 261.379 213.394 C 260.318 213.235 259.537 212.584 258.904 211.8 C 258.306 211.062 258.156 211.538 258.238 212.021 C 258.619 214.255 259.638 215.524 261.533 216.118 C 261.723 216.179 262.521 216.36 261.793 216.36 L 254.242 216.36 C 253.515 216.36 254.312 216.179 254.499 216.118 C 256.395 215.524 257.413 214.255 257.794 212.021 C 257.876 211.538 257.729 211.062 257.13 211.8 C 256.495 212.584 255.716 213.235 254.654 213.394 C 252.602 213.698 250.495 212.388 250.495 210.045 L 250.495 210.043 C 250.495 208.361 251.853 206.492 253.622 206.621 C 253.744 206.63 254.582 206.811 254.842 206.556 C 255.22 206.188 254.692 205.916 254.654 205.08 L 254.654 205.078 C 254.597 203.084 255.966 202.02 257.495 201.827 L 257.495 201.829 C 257.495 201.827 257.827 201.786 257.977 201.786 C 258.249 201.783 258.465 201.824 258.539 201.829 L 258.539 201.827 C 260.067 202.02 261.438 203.086 261.379 205.078 L 261.379 205.08 C 261.34 205.916 260.815 206.188 261.191 206.556 C 261.45 206.811 262.291 206.628 262.41 206.621 C 264.18 206.492 265.537 208.361 265.537 210.043 L 265.537 210.045 Z " fill="rgb(68,66,71)"/><path d=" M 258 201.786 C 257.992 201.786 257.983 201.786 257.977 201.786 C 257.827 201.786 257.495 201.827 257.495 201.829 L 257.495 201.827 C 255.966 202.02 254.597 203.084 254.654 205.078 L 254.654 205.08 C 254.692 205.916 255.22 206.188 254.842 206.556 C 254.582 206.811 253.744 206.63 253.622 206.621 C 251.853 206.492 250.495 208.361 250.495 210.043 L 250.495 210.045 C 250.495 212.388 252.602 213.698 254.654 213.394 C 255.716 213.235 256.495 212.584 257.13 211.8 C 257.729 211.062 257.876 211.538 257.794 212.021 C 257.413 214.255 256.395 215.524 254.499 216.118 C 254.312 216.179 253.515 216.36 254.242 216.36 L 258 216.36 L 258 201.786 Z " fill="rgb(87,86,90)"/><path d=" M 296.994 210.045 C 296.994 212.388 294.89 213.701 292.835 213.394 C 291.775 213.235 290.993 212.584 290.361 211.8 C 289.762 211.062 289.612 211.538 289.695 212.021 C 290.075 214.255 291.094 215.524 292.989 216.118 C 293.18 216.179 293.977 216.36 293.249 216.36 L 285.699 216.36 C 284.971 216.36 285.769 216.179 285.956 216.118 C 287.852 215.524 288.869 214.255 289.251 212.021 C 289.332 211.538 289.186 211.062 288.587 211.8 C 287.951 212.584 287.173 213.235 286.11 213.394 C 284.058 213.698 281.952 212.388 281.952 210.045 L 281.952 210.043 C 281.952 208.361 283.31 206.492 285.079 206.621 C 285.2 206.63 286.038 206.811 286.299 206.556 C 286.676 206.188 286.148 205.916 286.11 205.08 L 286.11 205.078 C 286.054 203.084 287.422 202.02 288.952 201.827 L 288.952 201.829 C 288.952 201.827 289.284 201.786 289.433 201.786 C 289.705 201.783 289.922 201.824 289.996 201.829 L 289.996 201.827 C 291.523 202.02 292.895 203.086 292.835 205.078 L 292.835 205.08 C 292.797 205.916 292.271 206.188 292.647 206.556 C 292.907 206.811 293.748 206.628 293.866 206.621 C 295.636 206.492 296.994 208.361 296.994 210.043 L 296.994 210.045 Z " fill="rgb(68,66,71)"/><path d=" M 289.456 201.786 C 289.448 201.786 289.44 201.786 289.433 201.786 C 289.284 201.786 288.952 201.827 288.952 201.829 L 288.952 201.827 C 287.422 202.02 286.054 203.084 286.11 205.078 L 286.11 205.08 C 286.148 205.916 286.676 206.188 286.299 206.556 C 286.038 206.811 285.2 206.63 285.079 206.621 C 283.31 206.492 281.952 208.361 281.952 210.043 L 281.952 210.045 C 281.952 212.388 284.058 213.698 286.11 213.394 C 287.173 213.235 287.951 212.584 288.587 211.8 C 289.186 211.062 289.332 211.538 289.251 212.021 C 288.869 214.255 287.852 215.524 285.956 216.118 C 285.769 216.179 284.971 216.36 285.699 216.36 L 289.456 216.36 L 289.456 201.786 Z " fill="rgb(87,86,90)"/><path d=" M 297.043 219.629 C 297.043 218.417 298.133 217.737 299.197 217.895 C 299.746 217.978 300.151 218.315 300.479 218.721 C 300.789 219.103 300.866 218.857 300.824 218.607 C 300.627 217.449 300.099 216.792 299.117 216.485 C 299.019 216.453 298.606 216.36 298.982 216.36 L 302.894 216.36 C 303.271 216.36 302.857 216.453 302.761 216.485 C 301.778 216.792 301.251 217.449 301.054 218.607 C 301.012 218.857 301.088 219.103 301.398 218.721 C 301.728 218.315 302.13 217.978 302.681 217.895 C 303.744 217.738 304.835 218.417 304.835 219.629 L 304.835 219.631 C 304.835 220.502 304.131 221.47 303.215 221.404 C 303.152 221.399 302.718 221.305 302.583 221.437 C 302.388 221.627 302.66 221.769 302.681 222.202 L 302.681 222.204 C 302.71 223.236 302.001 223.787 301.209 223.887 L 301.209 223.885 C 301.209 223.887 301.037 223.909 300.96 223.909 C 300.818 223.91 300.707 223.888 300.668 223.885 L 300.668 223.887 C 299.877 223.787 299.167 223.234 299.197 222.204 L 299.197 222.202 C 299.217 221.769 299.489 221.627 299.294 221.437 C 299.16 221.305 298.725 221.4 298.663 221.404 C 297.746 221.47 297.043 220.502 297.043 219.631 L 297.043 219.629 Z " fill="rgb(68,66,71)"/><path d=" M 300.947 223.909 C 300.951 223.909 300.955 223.909 300.96 223.909 C 301.037 223.909 301.209 223.887 301.209 223.885 L 301.209 223.887 C 302.001 223.788 302.71 223.236 302.681 222.204 L 302.681 222.202 C 302.66 221.769 302.388 221.627 302.583 221.437 C 302.718 221.305 303.152 221.399 303.215 221.404 C 304.131 221.47 304.835 220.502 304.835 219.631 L 304.835 219.629 C 304.835 218.417 303.744 217.738 302.681 217.895 C 302.13 217.978 301.728 218.315 301.398 218.721 C 301.088 219.103 301.012 218.857 301.054 218.607 C 301.251 217.449 301.778 216.792 302.761 216.485 C 302.857 216.453 303.271 216.36 302.894 216.36 L 300.947 216.36 L 300.947 223.909 Z " fill="rgb(87,86,90)"/><path d=" M 250.51 149.467 C 250.51 150.681 249.421 151.361 248.356 151.202 C 247.808 151.12 247.403 150.783 247.075 150.376 C 246.765 149.994 246.688 150.24 246.729 150.491 C 246.927 151.648 247.454 152.305 248.437 152.613 C 248.535 152.644 248.948 152.738 248.571 152.738 L 244.66 152.738 C 244.283 152.738 244.696 152.644 244.793 152.613 C 245.774 152.305 246.303 151.648 246.5 150.491 C 246.542 150.24 246.467 149.994 246.156 150.376 C 245.827 150.783 245.424 151.12 244.873 151.202 C 243.811 151.359 242.719 150.681 242.719 149.467 L 242.719 149.466 C 242.719 148.595 243.422 147.626 244.339 147.694 C 244.402 147.699 244.836 147.792 244.971 147.66 C 245.166 147.469 244.893 147.329 244.873 146.895 L 244.873 146.894 C 244.844 145.862 245.553 145.31 246.345 145.21 L 246.345 145.211 C 246.345 145.21 246.518 145.189 246.594 145.189 C 246.735 145.188 246.848 145.209 246.886 145.211 L 246.886 145.21 C 247.677 145.31 248.388 145.863 248.356 146.894 L 248.356 146.895 C 248.336 147.329 248.064 147.469 248.259 147.66 C 248.394 147.792 248.829 147.698 248.891 147.694 C 249.807 147.626 250.51 148.595 250.51 149.466 L 250.51 149.467 Z " fill="rgb(68,66,71)"/><path d=" M 246.606 145.189 C 246.603 145.189 246.598 145.189 246.594 145.189 C 246.518 145.189 246.345 145.21 246.345 145.211 L 246.345 145.21 C 245.553 145.31 244.844 145.862 244.873 146.894 L 244.873 146.895 C 244.893 147.329 245.166 147.469 244.971 147.66 C 244.836 147.792 244.402 147.699 244.339 147.694 C 243.422 147.626 242.719 148.595 242.719 149.466 L 242.719 149.467 C 242.719 150.681 243.811 151.359 244.873 151.202 C 245.424 151.12 245.827 150.783 246.156 150.376 C 246.467 149.994 246.542 150.24 246.5 150.491 C 246.303 151.648 245.774 152.305 244.793 152.613 C 244.696 152.644 244.283 152.738 244.66 152.738 L 246.606 152.738 L 246.606 145.189 Z " fill="rgb(87,86,90)"/><path d=" M 248.186 143.156 L 248.186 141.218 L 249.177 141.218 L 249.177 140.478 L 248.186 140.478 L 248.186 136.08 L 247.152 136.08 L 243.995 140.598 L 243.995 141.218 L 247.283 141.218 L 247.283 143.156 L 248.186 143.156 Z  M 244.964 140.478 L 244.964 140.456 L 246.695 138.051 C 246.891 137.724 247.065 137.419 247.283 137.006 L 247.315 137.006 C 247.294 137.376 247.283 137.746 247.283 138.116 L 247.283 140.478 L 244.964 140.478 Z " fill="rgb(68,66,71)"/><path d=" M 299.367 225.939 L 299.367 227.877 L 298.376 227.877 L 298.376 228.617 L 299.367 228.617 L 299.367 233.015 L 300.401 233.015 L 303.558 228.497 L 303.558 227.877 L 300.27 227.877 L 300.27 225.939 L 299.367 225.939 Z  M 302.589 228.617 L 302.589 228.639 L 300.858 231.044 C 300.662 231.371 300.488 231.676 300.27 232.089 L 300.238 232.089 C 300.259 231.719 300.27 231.349 300.27 230.979 L 300.27 228.617 L 302.589 228.617 Z " fill="rgb(68,66,71)"/></g></svg>