<?xml version="1.0" encoding="UTF-8" standalone="no"?><!-- Generator: Gravit.io --><svg xmlns="http://www.w3.org/2000/svg" xmlns:xlink="http://www.w3.org/1999/xlink" style="isolation:isolate" viewBox="564.938 132.382 69.124 103.685" width="69.124pt" height="103.685pt"><g><path d=" M 634.062 233.345 C 634.062 234.848 632.843 236.067 631.34 236.067 L 567.66 236.067 C 566.157 236.067 564.938 234.848 564.938 233.345 L 564.938 135.104 C 564.938 133.601 566.157 132.382 567.66 132.382 L 631.34 132.382 C 632.843 132.382 634.062 133.601 634.062 135.104 L 634.062 233.345 Z " fill="rgb(234,232,232)"/><path d=" M 591.261 160.674 C 591.261 163.017 589.156 164.329 587.102 164.023 C 586.042 163.864 585.26 163.212 584.628 162.428 C 584.028 161.69 583.879 162.166 583.962 162.65 C 584.342 164.884 585.36 166.152 587.256 166.746 C 587.446 166.808 588.243 166.988 587.516 166.988 L 579.966 166.988 C 579.237 166.988 580.034 166.808 580.223 166.746 C 582.118 166.152 583.136 164.884 583.518 162.65 C 583.599 162.166 583.452 161.69 582.854 162.428 C 582.218 163.212 581.438 163.864 580.377 164.023 C 578.324 164.326 576.219 163.017 576.219 160.674 L 576.219 160.671 C 576.219 158.99 577.576 157.121 579.346 157.249 C 579.467 157.259 580.305 157.439 580.565 157.184 C 580.942 156.817 580.415 156.544 580.377 155.708 L 580.377 155.706 C 580.32 153.712 581.688 152.648 583.219 152.456 L 583.219 152.458 C 583.219 152.456 583.551 152.414 583.699 152.414 C 583.972 152.412 584.188 152.453 584.263 152.458 L 584.263 152.456 C 585.79 152.648 587.161 153.715 587.102 155.706 L 587.102 155.708 C 587.063 156.544 586.538 156.817 586.914 157.184 C 587.174 157.439 588.015 157.256 588.133 157.249 C 589.902 157.121 591.261 158.99 591.261 160.671 L 591.261 160.674 Z " fill="rgb(68,66,71)"/><path d=" M 583.723 152.414 C 583.715 152.414 583.707 152.414 583.699 152.414 C 583.551 152.414 583.219 152.456 583.219 152.458 L 583.219 152.456 C 581.688 152.648 580.32 153.712 580.377 155.706 L 580.377 155.708 C 580.415 156.544 580.942 156.817 580.565 157.184 C 580.305 157.439 579.467 157.258 579.346 157.249 C 577.576 157.12 576.219 158.99 576.219 160.671 L 576.219 160.674 C 576.219 163.017 578.324 164.326 580.377 164.023 C 581.438 163.863 582.218 163.212 582.854 162.428 C 583.452 161.69 583.599 162.166 583.518 162.65 C 583.136 164.884 582.118 166.152 580.223 166.746 C 580.034 166.808 579.237 166.988 579.966 166.988 L 583.723 166.988 L 583.723 152.414 Z " fill="rgb(87,86,90)"/><path d=" M 622.717 160.674 C 622.717 163.017 620.613 164.329 618.559 164.023 C 617.498 163.864 616.717 163.212 616.084 162.428 C 615.485 161.69 615.336 162.166 615.418 162.65 C 615.799 164.884 616.817 166.152 618.713 166.746 C 618.902 166.808 619.7 166.988 618.973 166.988 L 611.422 166.988 C 610.694 166.988 611.491 166.808 611.679 166.746 C 613.574 166.152 614.593 164.884 614.974 162.65 C 615.056 162.166 614.909 161.69 614.31 162.428 C 613.675 163.212 612.896 163.864 611.833 164.023 C 609.78 164.326 607.675 163.017 607.675 160.674 L 607.675 160.671 C 607.675 158.99 609.032 157.121 610.802 157.249 C 610.924 157.259 611.761 157.439 612.021 157.184 C 612.399 156.817 611.872 156.544 611.833 155.708 L 611.833 155.706 C 611.776 153.712 613.146 152.648 614.675 152.456 L 614.675 152.458 C 614.675 152.456 615.007 152.414 615.156 152.414 C 615.428 152.412 615.645 152.453 615.719 152.458 L 615.719 152.456 C 617.246 152.648 618.617 153.715 618.559 155.706 L 618.559 155.708 C 618.52 156.544 617.995 156.817 618.371 157.184 C 618.63 157.439 619.471 157.256 619.59 157.249 C 621.358 157.121 622.717 158.99 622.717 160.671 L 622.717 160.674 Z " fill="rgb(68,66,71)"/><path d=" M 615.18 152.414 C 615.172 152.414 615.163 152.414 615.156 152.414 C 615.007 152.414 614.675 152.456 614.675 152.458 L 614.675 152.456 C 613.146 152.648 611.776 153.712 611.833 155.706 L 611.833 155.708 C 611.872 156.544 612.399 156.817 612.021 157.184 C 611.761 157.439 610.924 157.258 610.802 157.249 C 609.032 157.12 607.675 158.99 607.675 160.671 L 607.675 160.674 C 607.675 163.017 609.78 164.326 611.833 164.023 C 612.896 163.863 613.675 163.212 614.31 162.428 C 614.909 161.69 615.056 162.166 614.974 162.65 C 614.593 164.884 613.574 166.152 611.679 166.746 C 611.491 166.808 610.694 166.988 611.422 166.988 L 615.18 166.988 L 615.18 152.414 Z " fill="rgb(87,86,90)"/><path d=" M 591.261 209.722 C 591.261 212.065 589.156 213.376 587.102 213.071 C 586.042 212.911 585.26 212.26 584.628 211.476 C 584.028 210.738 583.879 211.213 583.962 211.697 C 584.342 213.931 585.36 215.2 587.256 215.793 C 587.446 215.856 588.243 216.036 587.516 216.036 L 579.966 216.036 C 579.237 216.036 580.034 215.856 580.223 215.793 C 582.118 215.2 583.136 213.931 583.518 211.697 C 583.599 211.213 583.452 210.738 582.854 211.476 C 582.218 212.26 581.438 212.911 580.377 213.071 C 578.324 213.375 576.219 212.065 576.219 209.722 L 576.219 209.719 C 576.219 208.038 577.576 206.167 579.346 206.296 C 579.467 206.306 580.305 206.487 580.565 206.232 C 580.942 205.864 580.415 205.592 580.377 204.755 L 580.377 204.753 C 580.32 202.76 581.688 201.696 583.219 201.503 L 583.219 201.505 C 583.219 201.503 583.551 201.461 583.699 201.461 C 583.972 201.458 584.188 201.5 584.263 201.505 L 584.263 201.503 C 585.79 201.696 587.161 202.763 587.102 204.753 L 587.102 204.755 C 587.063 205.592 586.538 205.864 586.914 206.232 C 587.174 206.487 588.015 206.304 588.133 206.296 C 589.902 206.167 591.261 208.038 591.261 209.719 L 591.261 209.722 Z " fill="rgb(68,66,71)"/><path d=" M 583.723 201.461 C 583.715 201.461 583.707 201.461 583.699 201.461 C 583.551 201.461 583.219 201.503 583.219 201.505 L 583.219 201.503 C 581.688 201.696 580.32 202.76 580.377 204.753 L 580.377 204.755 C 580.415 205.592 580.942 205.864 580.565 206.232 C 580.305 206.487 579.467 206.306 579.346 206.296 C 577.576 206.167 576.219 208.038 576.219 209.719 L 576.219 209.722 C 576.219 212.065 578.324 213.375 580.377 213.071 C 581.438 212.911 582.218 212.26 582.854 211.476 C 583.452 210.738 583.599 211.213 583.518 211.697 C 583.136 213.931 582.118 215.2 580.223 215.793 C 580.034 215.856 579.237 216.036 579.966 216.036 L 583.723 216.036 L 583.723 201.461 Z " fill="rgb(87,86,90)"/><path d=" M 622.717 209.722 C 622.717 212.065 620.613 213.376 618.559 213.071 C 617.498 212.911 616.717 212.26 616.084 211.476 C 615.485 210.738 615.336 211.213 615.418 211.697 C 615.799 213.931 616.817 215.2 618.713 215.793 C 618.902 215.856 619.7 216.036 618.973 216.036 L 611.422 216.036 C 610.694 216.036 611.491 215.856 611.679 215.793 C 613.574 215.2 614.593 213.931 614.974 211.697 C 615.056 211.213 614.909 210.738 614.31 211.476 C 613.675 212.26 612.896 212.911 611.833 213.071 C 609.78 213.375 607.675 212.065 607.675 209.722 L 607.675 209.719 C 607.675 208.038 609.032 206.167 610.802 206.296 C 610.924 206.306 611.761 206.487 612.021 206.232 C 612.399 205.864 611.872 205.592 611.833 204.755 L 611.833 204.753 C 611.776 202.76 613.146 201.696 614.675 201.503 L 614.675 201.505 C 614.675 201.503 615.007 201.461 615.156 201.461 C 615.428 201.458 615.645 201.5 615.719 201.505 L 615.719 201.503 C 617.246 201.696 618.617 202.763 618.559 204.753 L 618.559 204.755 C 618.52 205.592 617.995 205.864 618.371 206.232 C 618.63 206.487 619.471 206.304 619.59 206.296 C 621.358 206.167 622.717 208.038 622.717 209.719 L 622.717 209.722 Z " fill="rgb(68,66,71)"/><path d=" M 615.18 201.461 C 615.172 201.461 615.163 201.461 615.156 201.461 C 615.007 201.461 614.675 201.503 614.675 201.505 L 614.675 201.503 C 613.146 201.696 611.776 202.76 611.833 204.753 L 611.833 204.755 C 611.872 205.592 612.399 205.864 612.021 206.232 C 611.761 206.487 610.924 206.306 610.802 206.296 C 609.032 206.167 607.675 208.038 607.675 209.719 L 607.675 209.722 C 607.675 212.065 609.78 213.375 611.833 213.071 C 612.896 212.911 613.675 212.26 614.31 211.476 C 614.909 210.738 615.056 211.213 614.974 211.697 C 614.593 213.931 613.574 215.2 611.679 215.793 C 611.491 215.856 610.694 216.036 611.422 216.036 L 615.18 216.036 L 615.18 201.461 Z " fill="rgb(87,86,90)"/><path d=" M 622.767 219.306 C 622.767 218.092 623.856 217.413 624.92 217.572 C 625.469 217.654 625.874 217.991 626.201 218.397 C 626.512 218.78 626.59 218.533 626.547 218.283 C 626.35 217.125 625.822 216.468 624.841 216.161 C 624.742 216.128 624.329 216.036 624.706 216.036 L 628.617 216.036 C 628.993 216.036 628.581 216.128 628.483 216.161 C 627.502 216.468 626.975 217.125 626.777 218.283 C 626.734 218.533 626.811 218.78 627.121 218.397 C 627.45 217.991 627.853 217.654 628.403 217.572 C 629.467 217.414 630.558 218.092 630.558 219.306 L 630.558 219.307 C 630.558 220.178 629.854 221.146 628.938 221.08 C 628.875 221.075 628.44 220.982 628.306 221.114 C 628.11 221.304 628.384 221.445 628.403 221.877 L 628.403 221.879 C 628.433 222.912 627.724 223.462 626.932 223.563 L 626.932 223.562 C 626.932 223.563 626.76 223.584 626.683 223.584 C 626.541 223.585 626.43 223.564 626.391 223.562 L 626.391 223.563 C 625.6 223.462 624.89 222.91 624.92 221.879 L 624.92 221.877 C 624.94 221.445 625.212 221.304 625.018 221.114 C 624.883 220.982 624.447 221.076 624.387 221.08 C 623.47 221.146 622.767 220.178 622.767 219.307 L 622.767 219.306 Z " fill="rgb(68,66,71)"/><path d=" M 626.671 223.584 C 626.675 223.584 626.679 223.584 626.683 223.584 C 626.76 223.584 626.932 223.563 626.932 223.562 L 626.932 223.563 C 627.724 223.463 628.433 222.912 628.403 221.879 L 628.403 221.877 C 628.384 221.445 628.11 221.304 628.306 221.114 C 628.44 220.982 628.875 221.075 628.938 221.08 C 629.854 221.146 630.558 220.178 630.558 219.307 L 630.558 219.306 C 630.558 218.092 629.467 217.414 628.403 217.572 C 627.853 217.654 627.45 217.991 627.121 218.397 C 626.811 218.78 626.734 218.533 626.777 218.283 C 626.975 217.125 627.502 216.468 628.483 216.161 C 628.581 216.128 628.993 216.036 628.617 216.036 L 626.671 216.036 L 626.671 223.584 Z " fill="rgb(87,86,90)"/><path d=" M 576.233 149.144 C 576.233 150.357 575.144 151.037 574.079 150.878 C 573.531 150.795 573.126 150.458 572.798 150.052 C 572.487 149.67 572.41 149.917 572.453 150.167 C 572.65 151.325 573.178 151.981 574.159 152.289 C 574.258 152.321 574.671 152.414 574.294 152.414 L 570.383 152.414 C 570.006 152.414 570.419 152.321 570.517 152.289 C 571.498 151.981 572.025 151.325 572.223 150.167 C 572.266 149.917 572.189 149.67 571.879 150.052 C 571.55 150.458 571.146 150.795 570.596 150.878 C 569.533 151.036 568.442 150.357 568.442 149.144 L 568.442 149.142 C 568.442 148.271 569.146 147.303 570.062 147.37 C 570.125 147.375 570.559 147.468 570.693 147.336 C 570.89 147.146 570.616 147.004 570.596 146.572 L 570.596 146.57 C 570.566 145.538 571.275 144.987 572.068 144.886 L 572.068 144.888 C 572.068 144.886 572.24 144.865 572.317 144.865 C 572.458 144.864 572.57 144.885 572.608 144.888 L 572.608 144.886 C 573.4 144.987 574.11 145.54 574.079 146.57 L 574.079 146.572 C 574.06 147.004 573.788 147.146 573.982 147.336 C 574.116 147.468 574.553 147.374 574.613 147.37 C 575.53 147.303 576.233 148.271 576.233 149.142 L 576.233 149.144 Z " fill="rgb(68,66,71)"/><path d=" M 572.329 144.865 C 572.325 144.865 572.321 144.865 572.317 144.865 C 572.24 144.865 572.068 144.886 572.068 144.888 L 572.068 144.886 C 571.275 144.986 570.566 145.538 570.596 146.57 L 570.596 146.572 C 570.616 147.004 570.89 147.146 570.693 147.336 C 570.559 147.468 570.125 147.375 570.062 147.37 C 569.146 147.303 568.442 148.271 568.442 149.142 L 568.442 149.144 C 568.442 150.357 569.533 151.036 570.596 150.878 C 571.146 150.795 571.55 150.458 571.879 150.052 C 572.189 149.67 572.266 149.917 572.223 150.167 C 572.025 151.325 571.498 151.981 570.517 152.289 C 570.419 152.321 570.006 152.414 570.383 152.414 L 572.329 152.414 L 572.329 144.865 Z " fill="rgb(87,86,90)"/><path d=" M 574.268 135.757 L 570.883 135.757 L 570.426 139.154 C 570.687 139.121 571.003 139.088 571.416 139.088 C 572.821 139.088 573.441 139.731 573.441 140.645 C 573.452 141.592 572.668 142.18 571.776 142.18 C 571.123 142.18 570.546 141.962 570.252 141.788 L 570.012 142.517 C 570.361 142.735 571.003 142.953 571.776 142.953 C 573.311 142.953 574.41 141.919 574.41 140.536 C 574.41 139.654 573.953 139.034 573.398 138.729 C 572.962 138.457 572.429 138.348 571.874 138.348 C 571.612 138.348 571.46 138.359 571.297 138.381 L 571.569 136.563 L 574.268 136.563 L 574.268 135.757 Z " fill="rgb(68,66,71)"/><path d=" M 624.732 232.693 L 628.117 232.693 L 628.574 229.296 C 628.313 229.329 627.997 229.362 627.584 229.362 C 626.179 229.362 625.559 228.719 625.559 227.805 C 625.548 226.858 626.332 226.27 627.224 226.27 C 627.877 226.27 628.454 226.488 628.748 226.662 L 628.988 225.933 C 628.639 225.715 627.997 225.497 627.224 225.497 C 625.689 225.497 624.59 226.531 624.59 227.914 C 624.59 228.796 625.047 229.416 625.602 229.721 C 626.038 229.993 626.571 230.102 627.126 230.102 C 627.388 230.102 627.54 230.091 627.703 230.069 L 627.431 231.887 L 624.732 231.887 L 624.732 232.693 Z " fill="rgb(68,66,71)"/><path d=" M 607.038 184.668 C 607.038 187.011 604.934 188.323 602.879 188.017 C 601.819 187.858 601.037 187.207 600.404 186.422 C 599.806 185.684 599.656 186.16 599.738 186.643 C 600.119 188.878 601.138 190.146 603.033 190.74 C 603.224 190.802 604.021 190.982 603.293 190.982 L 595.743 190.982 C 595.015 190.982 595.812 190.802 595.999 190.74 C 597.895 190.146 598.913 188.878 599.294 186.643 C 599.376 186.16 599.229 185.684 598.631 186.422 C 597.995 187.207 597.216 187.858 596.154 188.017 C 594.102 188.32 591.995 187.011 591.995 184.668 L 591.995 184.666 C 591.995 182.984 593.353 181.114 595.122 181.243 C 595.244 181.252 596.082 181.433 596.343 181.178 C 596.72 180.81 596.192 180.539 596.154 179.702 L 596.154 179.7 C 596.098 177.707 597.466 176.642 598.995 176.449 L 598.995 176.452 C 598.995 176.449 599.328 176.408 599.477 176.408 C 599.749 176.406 599.965 176.446 600.04 176.452 L 600.04 176.449 C 601.567 176.642 602.938 177.709 602.879 179.7 L 602.879 179.702 C 602.84 180.539 602.315 180.81 602.691 181.178 C 602.95 181.433 603.792 181.25 603.91 181.243 C 605.68 181.114 607.038 182.984 607.038 184.666 L 607.038 184.668 Z " fill="rgb(68,66,71)"/><path d=" M 599.5 176.408 C 599.492 176.408 599.484 176.408 599.477 176.408 C 599.328 176.408 598.995 176.449 598.995 176.452 L 598.995 176.449 C 597.466 176.642 596.098 177.707 596.154 179.7 L 596.154 179.702 C 596.192 180.539 596.72 180.81 596.343 181.178 C 596.082 181.433 595.244 181.252 595.122 181.243 C 593.353 181.114 591.995 182.984 591.995 184.666 L 591.995 184.668 C 591.995 187.011 594.102 188.32 596.154 188.017 C 597.216 187.857 597.995 187.207 598.631 186.422 C 599.229 185.684 599.376 186.16 599.294 186.643 C 598.913 188.878 597.895 190.146 595.999 190.74 C 595.812 190.802 595.015 190.982 595.743 190.982 L 599.5 190.982 L 599.5 176.408 Z " fill="rgb(87,86,90)"/></g></svg>