<?xml version="1.0" encoding="UTF-8" standalone="no"?><!-- Generator: Gravit.io --><svg xmlns="http://www.w3.org/2000/svg" xmlns:xlink="http://www.w3.org/1999/xlink" style="isolation:isolate" viewBox="119.2 190.982 69.123 103.683" width="69.123pt" height="103.683pt"><g><path d=" M 188.323 291.944 C 188.323 293.447 187.105 294.665 185.602 294.665 L 121.922 294.665 C 120.419 294.665 119.2 293.447 119.2 291.944 L 119.2 193.702 C 119.2 192.199 120.419 190.982 121.922 190.982 L 185.602 190.982 C 187.105 190.982 188.323 192.199 188.323 193.702 L 188.323 291.944 Z " fill="rgb(234,232,232)"/><path d=" M 145.522 219.273 C 145.522 221.615 143.419 222.927 141.364 222.621 C 140.303 222.462 139.522 221.812 138.889 221.027 C 138.291 220.289 138.141 220.765 138.223 221.248 C 138.604 223.483 139.623 224.751 141.518 225.345 C 141.708 225.406 142.506 225.586 141.778 225.586 L 134.227 225.586 C 133.5 225.586 134.297 225.406 134.484 225.345 C 136.38 224.751 137.398 223.483 137.779 221.248 C 137.861 220.765 137.714 220.289 137.115 221.027 C 136.48 221.812 135.701 222.462 134.639 222.621 C 132.587 222.925 130.48 221.615 130.48 219.273 L 130.48 219.271 C 130.48 217.588 131.838 215.719 133.607 215.848 C 133.729 215.858 134.567 216.037 134.827 215.783 C 135.205 215.415 134.677 215.143 134.639 214.307 L 134.639 214.305 C 134.582 212.312 135.951 211.247 137.48 211.054 L 137.48 211.056 C 137.48 211.054 137.812 211.013 137.962 211.013 C 138.234 211.01 138.45 211.051 138.524 211.056 L 138.524 211.054 C 140.052 211.247 141.423 212.314 141.364 214.305 L 141.364 214.307 C 141.325 215.143 140.8 215.415 141.176 215.783 C 141.435 216.037 142.276 215.855 142.395 215.848 C 144.165 215.719 145.522 217.588 145.522 219.271 L 145.522 219.273 Z " fill="rgb(68,66,71)"/><path d=" M 137.985 211.013 C 137.977 211.013 137.968 211.013 137.962 211.013 C 137.812 211.013 137.48 211.054 137.48 211.056 L 137.48 211.054 C 135.951 211.247 134.582 212.312 134.639 214.305 L 134.639 214.307 C 134.677 215.143 135.205 215.415 134.827 215.783 C 134.567 216.037 133.729 215.858 133.607 215.848 C 131.838 215.719 130.48 217.588 130.48 219.271 L 130.48 219.273 C 130.48 221.615 132.587 222.925 134.639 222.621 C 135.701 222.462 136.48 221.811 137.115 221.027 C 137.714 220.289 137.861 220.765 137.779 221.248 C 137.398 223.483 136.38 224.751 134.484 225.345 C 134.297 225.406 133.5 225.586 134.227 225.586 L 137.985 225.586 L 137.985 211.013 Z " fill="rgb(87,86,90)"/><path d=" M 176.979 219.273 C 176.979 221.615 174.875 222.927 172.82 222.621 C 171.76 222.462 170.978 221.812 170.346 221.027 C 169.747 220.289 169.597 220.765 169.68 221.248 C 170.06 223.483 171.079 224.751 172.974 225.345 C 173.165 225.406 173.962 225.586 173.234 225.586 L 165.684 225.586 C 164.956 225.586 165.754 225.406 165.941 225.345 C 167.837 224.751 168.854 223.483 169.236 221.248 C 169.317 220.765 169.171 220.289 168.572 221.027 C 167.936 221.812 167.158 222.462 166.095 222.621 C 164.043 222.925 161.937 221.615 161.937 219.273 L 161.937 219.271 C 161.937 217.588 163.295 215.719 165.064 215.848 C 165.185 215.858 166.023 216.037 166.284 215.783 C 166.661 215.415 166.133 215.143 166.095 214.307 L 166.095 214.305 C 166.039 212.312 167.407 211.247 168.937 211.054 L 168.937 211.056 C 168.937 211.054 169.269 211.013 169.418 211.013 C 169.69 211.01 169.907 211.051 169.981 211.056 L 169.981 211.054 C 171.508 211.247 172.88 212.314 172.82 214.305 L 172.82 214.307 C 172.782 215.143 172.256 215.415 172.632 215.783 C 172.892 216.037 173.733 215.855 173.851 215.848 C 175.621 215.719 176.979 217.588 176.979 219.271 L 176.979 219.273 Z " fill="rgb(68,66,71)"/><path d=" M 169.441 211.013 C 169.433 211.013 169.425 211.013 169.418 211.013 C 169.269 211.013 168.937 211.054 168.937 211.056 L 168.937 211.054 C 167.407 211.247 166.039 212.312 166.095 214.305 L 166.095 214.307 C 166.133 215.143 166.661 215.415 166.284 215.783 C 166.023 216.037 165.185 215.858 165.064 215.848 C 163.295 215.719 161.937 217.588 161.937 219.271 L 161.937 219.273 C 161.937 221.615 164.043 222.925 166.095 222.621 C 167.158 222.462 167.936 221.811 168.572 221.027 C 169.171 220.289 169.317 220.765 169.236 221.248 C 168.854 223.483 167.837 224.751 165.941 225.345 C 165.754 225.406 164.956 225.586 165.684 225.586 L 169.441 225.586 L 169.441 211.013 Z " fill="rgb(87,86,90)"/><path d=" M 145.522 243.797 C 145.522 246.14 143.419 247.451 141.364 247.146 C 140.303 246.986 139.522 246.335 138.889 245.551 C 138.291 244.813 138.141 245.288 138.223 245.773 C 138.604 248.007 139.623 249.275 141.518 249.868 C 141.708 249.931 142.506 250.11 141.778 250.11 L 134.227 250.11 C 133.5 250.11 134.297 249.931 134.484 249.868 C 136.38 249.275 137.398 248.007 137.779 245.773 C 137.861 245.288 137.714 244.813 137.115 245.551 C 136.48 246.335 135.701 246.986 134.639 247.146 C 132.587 247.448 130.48 246.14 130.48 243.797 L 130.48 243.794 C 130.48 242.112 131.838 240.242 133.607 240.371 C 133.729 240.381 134.567 240.562 134.827 240.307 C 135.205 239.94 134.677 239.667 134.639 238.831 L 134.639 238.828 C 134.582 236.835 135.951 235.771 137.48 235.577 L 137.48 235.58 C 137.48 235.577 137.812 235.536 137.962 235.536 C 138.234 235.534 138.45 235.575 138.524 235.58 L 138.524 235.577 C 140.052 235.771 141.423 236.838 141.364 238.828 L 141.364 238.831 C 141.325 239.667 140.8 239.94 141.176 240.307 C 141.435 240.562 142.276 240.379 142.395 240.371 C 144.165 240.242 145.522 242.112 145.522 243.794 L 145.522 243.797 Z " fill="rgb(68,66,71)"/><path d=" M 137.985 235.536 C 137.977 235.536 137.968 235.536 137.962 235.536 C 137.812 235.536 137.48 235.577 137.48 235.58 L 137.48 235.577 C 135.951 235.771 134.582 236.835 134.639 238.828 L 134.639 238.831 C 134.677 239.667 135.205 239.94 134.827 240.307 C 134.567 240.562 133.729 240.381 133.607 240.371 C 131.838 240.242 130.48 242.112 130.48 243.794 L 130.48 243.797 C 130.48 246.14 132.587 247.448 134.639 247.146 C 135.701 246.985 136.48 246.335 137.115 245.551 C 137.714 244.813 137.861 245.288 137.779 245.773 C 137.398 248.007 136.38 249.275 134.484 249.868 C 134.297 249.931 133.5 250.11 134.227 250.11 L 137.985 250.11 L 137.985 235.536 Z " fill="rgb(87,86,90)"/><path d=" M 176.979 243.797 C 176.979 246.14 174.875 247.451 172.82 247.146 C 171.76 246.986 170.978 246.335 170.346 245.551 C 169.747 244.813 169.597 245.288 169.68 245.773 C 170.06 248.007 171.079 249.275 172.974 249.868 C 173.165 249.931 173.962 250.11 173.234 250.11 L 165.684 250.11 C 164.956 250.11 165.754 249.931 165.941 249.868 C 167.837 249.275 168.854 248.007 169.236 245.773 C 169.317 245.288 169.171 244.813 168.572 245.551 C 167.936 246.335 167.158 246.986 166.095 247.146 C 164.043 247.448 161.937 246.14 161.937 243.797 L 161.937 243.794 C 161.937 242.112 163.295 240.242 165.064 240.371 C 165.185 240.381 166.023 240.562 166.284 240.307 C 166.661 239.94 166.133 239.667 166.095 238.831 L 166.095 238.828 C 166.039 236.835 167.407 235.771 168.937 235.577 L 168.937 235.58 C 168.937 235.577 169.269 235.536 169.418 235.536 C 169.69 235.534 169.907 235.575 169.981 235.58 L 169.981 235.577 C 171.508 235.771 172.88 236.838 172.82 238.828 L 172.82 238.831 C 172.782 239.667 172.256 239.94 172.632 240.307 C 172.892 240.562 173.733 240.379 173.851 240.371 C 175.621 240.242 176.979 242.112 176.979 243.794 L 176.979 243.797 Z " fill="rgb(68,66,71)"/><path d=" M 169.441 235.536 C 169.433 235.536 169.425 235.536 169.418 235.536 C 169.269 235.536 168.937 235.577 168.937 235.58 L 168.937 235.577 C 167.407 235.771 166.039 236.835 166.095 238.828 L 166.095 238.831 C 166.133 239.667 166.661 239.94 166.284 240.307 C 166.023 240.562 165.185 240.381 165.064 240.371 C 163.295 240.242 161.937 242.112 161.937 243.794 L 161.937 243.797 C 161.937 246.14 164.043 247.448 166.095 247.146 C 167.158 246.985 167.936 246.335 168.572 245.551 C 169.171 244.813 169.317 245.288 169.236 245.773 C 168.854 248.007 167.837 249.275 165.941 249.868 C 165.754 249.931 164.956 250.11 165.684 250.11 L 169.441 250.11 L 169.441 235.536 Z " fill="rgb(87,86,90)"/><path d=" M 145.522 268.32 C 145.522 270.663 143.419 271.975 141.364 271.669 C 140.303 271.51 139.522 270.86 138.889 270.075 C 138.291 269.337 138.141 269.813 138.223 270.296 C 138.604 272.53 139.623 273.798 141.518 274.393 C 141.708 274.454 142.506 274.634 141.778 274.634 L 134.227 274.634 C 133.5 274.634 134.297 274.454 134.484 274.393 C 136.38 273.798 137.398 272.53 137.779 270.296 C 137.861 269.813 137.714 269.337 137.115 270.075 C 136.48 270.86 135.701 271.51 134.639 271.669 C 132.587 271.973 130.48 270.663 130.48 268.32 L 130.48 268.318 C 130.48 266.636 131.838 264.767 133.607 264.896 C 133.729 264.905 134.567 265.085 134.827 264.831 C 135.205 264.463 134.677 264.191 134.639 263.355 L 134.639 263.353 C 134.582 261.36 135.951 260.295 137.48 260.102 L 137.48 260.104 C 137.48 260.102 137.812 260.061 137.962 260.061 C 138.234 260.058 138.45 260.099 138.524 260.104 L 138.524 260.102 C 140.052 260.295 141.423 261.361 141.364 263.353 L 141.364 263.355 C 141.325 264.191 140.8 264.463 141.176 264.831 C 141.435 265.085 142.276 264.902 142.395 264.896 C 144.165 264.767 145.522 266.636 145.522 268.318 L 145.522 268.32 Z " fill="rgb(68,66,71)"/><path d=" M 137.985 260.061 C 137.977 260.061 137.968 260.06 137.962 260.061 C 137.812 260.061 137.48 260.102 137.48 260.104 L 137.48 260.102 C 135.951 260.295 134.582 261.359 134.639 263.353 L 134.639 263.355 C 134.677 264.191 135.205 264.463 134.827 264.831 C 134.567 265.085 133.729 264.905 133.607 264.896 C 131.838 264.767 130.48 266.636 130.48 268.318 L 130.48 268.32 C 130.48 270.663 132.587 271.973 134.639 271.669 C 135.701 271.51 136.48 270.859 137.115 270.075 C 137.714 269.337 137.861 269.813 137.779 270.296 C 137.398 272.53 136.38 273.798 134.484 274.393 C 134.297 274.454 133.5 274.634 134.227 274.634 L 137.985 274.634 L 137.985 260.061 Z " fill="rgb(87,86,90)"/><path d=" M 176.979 268.32 C 176.979 270.663 174.875 271.975 172.82 271.669 C 171.76 271.51 170.978 270.86 170.346 270.075 C 169.747 269.337 169.597 269.813 169.68 270.296 C 170.06 272.53 171.079 273.798 172.974 274.393 C 173.165 274.454 173.962 274.634 173.234 274.634 L 165.684 274.634 C 164.956 274.634 165.754 274.454 165.941 274.393 C 167.837 273.798 168.854 272.53 169.236 270.296 C 169.317 269.813 169.171 269.337 168.572 270.075 C 167.936 270.86 167.158 271.51 166.095 271.669 C 164.043 271.973 161.937 270.663 161.937 268.32 L 161.937 268.318 C 161.937 266.636 163.295 264.767 165.064 264.896 C 165.185 264.905 166.023 265.085 166.284 264.831 C 166.661 264.463 166.133 264.191 166.095 263.355 L 166.095 263.353 C 166.039 261.36 167.407 260.295 168.937 260.102 L 168.937 260.104 C 168.937 260.102 169.269 260.061 169.418 260.061 C 169.69 260.058 169.907 260.099 169.981 260.104 L 169.981 260.102 C 171.508 260.295 172.88 261.361 172.82 263.353 L 172.82 263.355 C 172.782 264.191 172.256 264.463 172.632 264.831 C 172.892 265.085 173.733 264.902 173.851 264.896 C 175.621 264.767 176.979 266.636 176.979 268.318 L 176.979 268.32 Z " fill="rgb(68,66,71)"/><path d=" M 169.441 260.061 C 169.433 260.061 169.425 260.06 169.418 260.061 C 169.269 260.061 168.937 260.102 168.937 260.104 L 168.937 260.102 C 167.407 260.295 166.039 261.359 166.095 263.353 L 166.095 263.355 C 166.133 264.191 166.661 264.463 166.284 264.831 C 166.023 265.085 165.185 264.905 165.064 264.896 C 163.295 264.767 161.937 266.636 161.937 268.318 L 161.937 268.32 C 161.937 270.663 164.043 271.973 166.095 271.669 C 167.158 271.51 167.936 270.859 168.572 270.075 C 169.171 269.337 169.317 269.813 169.236 270.296 C 168.854 272.53 167.837 273.798 165.941 274.393 C 165.754 274.454 164.956 274.634 165.684 274.634 L 169.441 274.634 L 169.441 260.061 Z " fill="rgb(87,86,90)"/><path d=" M 177.028 277.904 C 177.028 276.691 178.118 276.012 179.182 276.17 C 179.731 276.253 180.136 276.59 180.464 276.996 C 180.774 277.378 180.851 277.132 180.809 276.882 C 180.612 275.724 180.084 275.068 179.102 274.76 C 179.004 274.728 178.591 274.634 178.967 274.634 L 182.879 274.634 C 183.256 274.634 182.842 274.728 182.746 274.76 C 181.763 275.068 181.236 275.724 181.039 276.882 C 180.997 277.132 181.073 277.378 181.383 276.996 C 181.713 276.59 182.115 276.253 182.666 276.17 C 183.729 276.013 184.82 276.691 184.82 277.904 L 184.82 277.905 C 184.82 278.776 184.116 279.745 183.2 279.679 C 183.137 279.673 182.703 279.58 182.568 279.712 C 182.373 279.902 182.645 280.044 182.666 280.477 L 182.666 280.478 C 182.695 281.51 181.986 282.062 181.194 282.161 L 181.194 282.16 C 181.194 282.161 181.022 282.183 180.945 282.183 C 180.803 282.185 180.692 282.163 180.653 282.16 L 180.653 282.161 C 179.862 282.062 179.152 281.509 179.182 280.478 L 179.182 280.477 C 179.202 280.044 179.474 279.902 179.279 279.712 C 179.145 279.58 178.71 279.675 178.648 279.679 C 177.731 279.745 177.028 278.776 177.028 277.905 L 177.028 277.904 Z " fill="rgb(68,66,71)"/><path d=" M 180.932 282.183 C 180.936 282.183 180.94 282.183 180.945 282.183 C 181.022 282.183 181.194 282.161 181.194 282.16 L 181.194 282.161 C 181.986 282.062 182.695 281.51 182.666 280.478 L 182.666 280.477 C 182.645 280.044 182.373 279.902 182.568 279.712 C 182.703 279.58 183.137 279.673 183.2 279.679 C 184.116 279.745 184.82 278.776 184.82 277.905 L 184.82 277.904 C 184.82 276.691 183.729 276.013 182.666 276.17 C 182.115 276.253 181.713 276.59 181.383 276.996 C 181.073 277.378 180.997 277.132 181.039 276.882 C 181.236 275.724 181.763 275.068 182.746 274.76 C 182.842 274.728 183.256 274.634 182.879 274.634 L 180.932 274.634 L 180.932 282.183 Z " fill="rgb(87,86,90)"/><path d=" M 130.495 207.742 C 130.495 208.956 129.406 209.635 128.341 209.477 C 127.793 209.394 127.388 209.057 127.06 208.651 C 126.75 208.269 126.673 208.515 126.714 208.766 C 126.912 209.923 127.439 210.579 128.422 210.888 C 128.52 210.919 128.933 211.013 128.556 211.013 L 124.645 211.013 C 124.268 211.013 124.681 210.919 124.778 210.888 C 125.759 210.579 126.288 209.923 126.485 208.766 C 126.527 208.515 126.452 208.269 126.141 208.651 C 125.812 209.057 125.409 209.394 124.858 209.477 C 123.796 209.634 122.704 208.956 122.704 207.742 L 122.704 207.741 C 122.704 206.87 123.407 205.901 124.324 205.968 C 124.387 205.974 124.821 206.067 124.956 205.935 C 125.151 205.744 124.878 205.603 124.858 205.17 L 124.858 205.169 C 124.829 204.137 125.538 203.585 126.33 203.485 L 126.33 203.486 C 126.33 203.485 126.503 203.464 126.579 203.464 C 126.72 203.462 126.833 203.484 126.871 203.486 L 126.871 203.485 C 127.662 203.585 128.373 204.138 128.341 205.169 L 128.341 205.17 C 128.321 205.603 128.049 205.744 128.244 205.935 C 128.379 206.067 128.814 205.972 128.876 205.968 C 129.792 205.901 130.495 206.87 130.495 207.741 L 130.495 207.742 Z " fill="rgb(68,66,71)"/><path d=" M 126.591 203.464 C 126.588 203.464 126.583 203.464 126.579 203.464 C 126.503 203.464 126.33 203.485 126.33 203.486 L 126.33 203.485 C 125.538 203.585 124.829 204.137 124.858 205.169 L 124.858 205.17 C 124.878 205.603 125.151 205.744 124.956 205.935 C 124.821 206.067 124.387 205.974 124.324 205.968 C 123.407 205.901 122.704 206.87 122.704 207.741 L 122.704 207.742 C 122.704 208.956 123.796 209.634 124.858 209.477 C 125.409 209.394 125.812 209.057 126.141 208.651 C 126.452 208.269 126.527 208.515 126.485 208.766 C 126.288 209.923 125.759 210.579 124.778 210.888 C 124.681 210.919 124.268 211.013 124.645 211.013 L 126.591 211.013 L 126.591 203.464 Z " fill="rgb(87,86,90)"/><path d=" M 128.345 194.247 C 128.171 194.247 127.932 194.257 127.649 194.301 C 126.756 194.41 125.972 194.769 125.385 195.346 C 124.677 196.043 124.187 197.142 124.187 198.535 C 124.187 200.375 125.178 201.551 126.68 201.551 C 128.16 201.551 129.042 200.353 129.042 199.047 C 129.042 197.675 128.16 196.761 126.909 196.761 C 126.125 196.761 125.526 197.131 125.189 197.588 L 125.167 197.588 C 125.33 196.413 126.114 195.324 127.627 195.085 C 127.899 195.041 128.149 195.019 128.345 195.03 L 128.345 194.247 Z  M 126.702 200.811 C 125.689 200.811 125.145 199.94 125.134 198.775 C 125.134 198.601 125.178 198.47 125.232 198.361 C 125.493 197.839 126.038 197.49 126.615 197.49 C 127.496 197.49 128.073 198.1 128.073 199.112 C 128.073 200.125 127.518 200.811 126.702 200.811 Z " fill="rgb(68,66,71)"/><path d=" M 179.178 291.399 C 179.352 291.399 179.591 291.389 179.874 291.345 C 180.767 291.236 181.551 290.877 182.138 290.3 C 182.846 289.603 183.336 288.504 183.336 287.111 C 183.336 285.271 182.345 284.095 180.843 284.095 C 179.363 284.095 178.481 285.293 178.481 286.599 C 178.481 287.971 179.363 288.885 180.614 288.885 C 181.398 288.885 181.997 288.515 182.334 288.058 L 182.356 288.058 C 182.193 289.233 181.409 290.322 179.896 290.561 C 179.624 290.605 179.374 290.627 179.178 290.616 L 179.178 291.399 Z  M 180.821 284.835 C 181.834 284.835 182.378 285.706 182.389 286.871 C 182.389 287.045 182.345 287.176 182.291 287.285 C 182.03 287.807 181.485 288.156 180.908 288.156 C 180.027 288.156 179.45 287.546 179.45 286.534 C 179.45 285.521 180.005 284.835 180.821 284.835 Z " fill="rgb(68,66,71)"/></g></svg>