<?xml version="1.0" encoding="UTF-8" standalone="no"?><!-- Generator: Gravit.io --><svg xmlns="http://www.w3.org/2000/svg" xmlns:xlink="http://www.w3.org/1999/xlink" style="isolation:isolate" viewBox="512.643 365.345 69.124 103.683" width="69.124pt" height="103.683pt"><g><path d=" M 581.767 466.307 C 581.767 467.81 580.548 469.028 579.045 469.028 L 515.365 469.028 C 513.862 469.028 512.643 467.81 512.643 466.307 L 512.643 368.065 C 512.643 366.562 513.862 365.345 515.365 365.345 L 579.045 365.345 C 580.548 365.345 581.767 366.562 581.767 368.065 L 581.767 466.307 Z " fill="rgb(234,232,232)"/><path d=" M 538.966 393.636 C 538.966 395.978 536.861 397.29 534.807 396.984 C 533.747 396.825 532.965 396.175 532.333 395.39 C 531.733 394.652 531.584 395.128 531.667 395.611 C 532.047 397.846 533.065 399.114 534.961 399.708 C 535.151 399.769 535.948 399.949 535.221 399.949 L 527.671 399.949 C 526.942 399.949 527.739 399.769 527.928 399.708 C 529.823 399.114 530.841 397.846 531.223 395.611 C 531.304 395.128 531.157 394.652 530.559 395.39 C 529.923 396.175 529.143 396.825 528.082 396.984 C 526.029 397.288 523.924 395.978 523.924 393.636 L 523.924 393.634 C 523.924 391.951 525.281 390.082 527.051 390.211 C 527.172 390.221 528.01 390.4 528.27 390.146 C 528.647 389.778 528.12 389.506 528.082 388.67 L 528.082 388.668 C 528.025 386.675 529.393 385.61 530.924 385.417 L 530.924 385.419 C 530.924 385.417 531.256 385.376 531.404 385.376 C 531.677 385.373 531.893 385.414 531.968 385.419 L 531.968 385.417 C 533.495 385.61 534.866 386.677 534.807 388.668 L 534.807 388.67 C 534.768 389.506 534.243 389.778 534.619 390.146 C 534.879 390.4 535.72 390.218 535.838 390.211 C 537.607 390.082 538.966 391.951 538.966 393.634 L 538.966 393.636 Z " fill="rgb(68,66,71)"/><path d=" M 531.428 385.376 C 531.42 385.376 531.412 385.376 531.404 385.376 C 531.256 385.376 530.924 385.417 530.924 385.419 L 530.924 385.417 C 529.393 385.61 528.025 386.675 528.082 388.668 L 528.082 388.67 C 528.12 389.506 528.647 389.778 528.27 390.146 C 528.01 390.4 527.172 390.221 527.051 390.211 C 525.281 390.082 523.924 391.951 523.924 393.634 L 523.924 393.636 C 523.924 395.978 526.029 397.288 528.082 396.984 C 529.143 396.825 529.923 396.174 530.559 395.39 C 531.157 394.652 531.304 395.128 531.223 395.611 C 530.841 397.846 529.823 399.114 527.928 399.708 C 527.739 399.769 526.942 399.949 527.671 399.949 L 531.428 399.949 L 531.428 385.376 Z " fill="rgb(87,86,90)"/><path d=" M 570.422 393.636 C 570.422 395.978 568.318 397.29 566.264 396.984 C 565.203 396.825 564.422 396.175 563.789 395.39 C 563.19 394.652 563.041 395.128 563.123 395.611 C 563.504 397.846 564.522 399.114 566.418 399.708 C 566.607 399.769 567.405 399.949 566.678 399.949 L 559.127 399.949 C 558.399 399.949 559.196 399.769 559.384 399.708 C 561.279 399.114 562.298 397.846 562.679 395.611 C 562.761 395.128 562.614 394.652 562.015 395.39 C 561.38 396.175 560.601 396.825 559.538 396.984 C 557.485 397.288 555.38 395.978 555.38 393.636 L 555.38 393.634 C 555.38 391.951 556.737 390.082 558.507 390.211 C 558.629 390.221 559.466 390.4 559.726 390.146 C 560.104 389.778 559.577 389.506 559.538 388.67 L 559.538 388.668 C 559.481 386.675 560.851 385.61 562.38 385.417 L 562.38 385.419 C 562.38 385.417 562.712 385.376 562.861 385.376 C 563.133 385.373 563.35 385.414 563.424 385.419 L 563.424 385.417 C 564.951 385.61 566.322 386.677 566.264 388.668 L 566.264 388.67 C 566.225 389.506 565.7 389.778 566.076 390.146 C 566.335 390.4 567.176 390.218 567.295 390.211 C 569.063 390.082 570.422 391.951 570.422 393.634 L 570.422 393.636 Z " fill="rgb(68,66,71)"/><path d=" M 562.885 385.376 C 562.877 385.376 562.868 385.376 562.861 385.376 C 562.712 385.376 562.38 385.417 562.38 385.419 L 562.38 385.417 C 560.851 385.61 559.481 386.675 559.538 388.668 L 559.538 388.67 C 559.577 389.506 560.104 389.778 559.726 390.146 C 559.466 390.4 558.629 390.221 558.507 390.211 C 556.737 390.082 555.38 391.951 555.38 393.634 L 555.38 393.636 C 555.38 395.978 557.485 397.288 559.538 396.984 C 560.601 396.825 561.38 396.174 562.015 395.39 C 562.614 394.652 562.761 395.128 562.679 395.611 C 562.298 397.846 561.279 399.114 559.384 399.708 C 559.196 399.769 558.399 399.949 559.127 399.949 L 562.885 399.949 L 562.885 385.376 Z " fill="rgb(87,86,90)"/><path d=" M 538.966 418.16 C 538.966 420.503 536.861 421.814 534.807 421.509 C 533.747 421.349 532.965 420.698 532.333 419.914 C 531.733 419.176 531.584 419.651 531.667 420.136 C 532.047 422.37 533.065 423.638 534.961 424.231 C 535.151 424.294 535.948 424.473 535.221 424.473 L 527.671 424.473 C 526.942 424.473 527.739 424.294 527.928 424.231 C 529.823 423.638 530.841 422.37 531.223 420.136 C 531.304 419.651 531.157 419.176 530.559 419.914 C 529.923 420.698 529.143 421.349 528.082 421.509 C 526.029 421.811 523.924 420.503 523.924 418.16 L 523.924 418.157 C 523.924 416.475 525.281 414.605 527.051 414.734 C 527.172 414.744 528.01 414.925 528.27 414.67 C 528.647 414.303 528.12 414.03 528.082 413.194 L 528.082 413.191 C 528.025 411.198 529.393 410.134 530.924 409.94 L 530.924 409.943 C 530.924 409.94 531.256 409.899 531.404 409.899 C 531.677 409.897 531.893 409.938 531.968 409.943 L 531.968 409.94 C 533.495 410.134 534.866 411.201 534.807 413.191 L 534.807 413.194 C 534.768 414.03 534.243 414.303 534.619 414.67 C 534.879 414.925 535.72 414.742 535.838 414.734 C 537.607 414.605 538.966 416.475 538.966 418.157 L 538.966 418.16 Z " fill="rgb(68,66,71)"/><path d=" M 531.428 409.899 C 531.42 409.899 531.412 409.899 531.404 409.899 C 531.256 409.899 530.924 409.94 530.924 409.943 L 530.924 409.94 C 529.393 410.134 528.025 411.198 528.082 413.191 L 528.082 413.194 C 528.12 414.03 528.647 414.303 528.27 414.67 C 528.01 414.925 527.172 414.744 527.051 414.734 C 525.281 414.605 523.924 416.475 523.924 418.157 L 523.924 418.16 C 523.924 420.503 526.029 421.811 528.082 421.509 C 529.143 421.348 529.923 420.698 530.559 419.914 C 531.157 419.176 531.304 419.651 531.223 420.136 C 530.841 422.37 529.823 423.638 527.928 424.231 C 527.739 424.294 526.942 424.473 527.671 424.473 L 531.428 424.473 L 531.428 409.899 Z " fill="rgb(87,86,90)"/><path d=" M 570.422 418.16 C 570.422 420.503 568.318 421.814 566.264 421.509 C 565.203 421.349 564.422 420.698 563.789 419.914 C 563.19 419.176 563.041 419.651 563.123 420.136 C 563.504 422.37 564.522 423.638 566.418 424.231 C 566.607 424.294 567.405 424.473 566.678 424.473 L 559.127 424.473 C 558.399 424.473 559.196 424.294 559.384 424.231 C 561.279 423.638 562.298 422.37 562.679 420.136 C 562.761 419.651 562.614 419.176 562.015 419.914 C 561.38 420.698 560.601 421.349 559.538 421.509 C 557.485 421.811 555.38 420.503 555.38 418.16 L 555.38 418.157 C 555.38 416.475 556.737 414.605 558.507 414.734 C 558.629 414.744 559.466 414.925 559.726 414.67 C 560.104 414.303 559.577 414.03 559.538 413.194 L 559.538 413.191 C 559.481 411.198 560.851 410.134 562.38 409.94 L 562.38 409.943 C 562.38 409.94 562.712 409.899 562.861 409.899 C 563.133 409.897 563.35 409.938 563.424 409.943 L 563.424 409.94 C 564.951 410.134 566.322 411.201 566.264 413.191 L 566.264 413.194 C 566.225 414.03 565.7 414.303 566.076 414.67 C 566.335 414.925 567.176 414.742 567.295 414.734 C 569.063 414.605 570.422 416.475 570.422 418.157 L 570.422 418.16 Z " fill="rgb(68,66,71)"/><path d=" M 562.885 409.899 C 562.877 409.899 562.868 409.899 562.861 409.899 C 562.712 409.899 562.38 409.94 562.38 409.943 L 562.38 409.94 C 560.851 410.134 559.481 411.198 559.538 413.191 L 559.538 413.194 C 559.577 414.03 560.104 414.303 559.726 414.67 C 559.466 414.925 558.629 414.744 558.507 414.734 C 556.737 414.605 555.38 416.475 555.38 418.157 L 555.38 418.16 C 555.38 420.503 557.485 421.811 559.538 421.509 C 560.601 421.348 561.38 420.698 562.015 419.914 C 562.614 419.176 562.761 419.651 562.679 420.136 C 562.298 422.37 561.279 423.638 559.384 424.231 C 559.196 424.294 558.399 424.473 559.127 424.473 L 562.885 424.473 L 562.885 409.899 Z " fill="rgb(87,86,90)"/><path d=" M 538.966 442.683 C 538.966 445.026 536.861 446.338 534.807 446.032 C 533.747 445.873 532.965 445.223 532.333 444.438 C 531.733 443.7 531.584 444.176 531.667 444.659 C 532.047 446.893 533.065 448.161 534.961 448.756 C 535.151 448.817 535.948 448.997 535.221 448.997 L 527.671 448.997 C 526.942 448.997 527.739 448.817 527.928 448.756 C 529.823 448.161 530.841 446.893 531.223 444.659 C 531.304 444.176 531.157 443.7 530.559 444.438 C 529.923 445.223 529.143 445.873 528.082 446.032 C 526.029 446.336 523.924 445.026 523.924 442.683 L 523.924 442.681 C 523.924 440.999 525.281 439.13 527.051 439.259 C 527.172 439.268 528.01 439.448 528.27 439.194 C 528.647 438.826 528.12 438.554 528.082 437.718 L 528.082 437.716 C 528.025 435.723 529.393 434.658 530.924 434.465 L 530.924 434.467 C 530.924 434.465 531.256 434.424 531.404 434.424 C 531.677 434.421 531.893 434.462 531.968 434.467 L 531.968 434.465 C 533.495 434.658 534.866 435.724 534.807 437.716 L 534.807 437.718 C 534.768 438.554 534.243 438.826 534.619 439.194 C 534.879 439.448 535.72 439.265 535.838 439.259 C 537.607 439.13 538.966 440.999 538.966 442.681 L 538.966 442.683 Z " fill="rgb(68,66,71)"/><path d=" M 531.428 434.424 C 531.42 434.424 531.412 434.423 531.404 434.424 C 531.256 434.424 530.924 434.465 530.924 434.467 L 530.924 434.465 C 529.393 434.658 528.025 435.722 528.082 437.716 L 528.082 437.718 C 528.12 438.554 528.647 438.826 528.27 439.194 C 528.01 439.448 527.172 439.268 527.051 439.259 C 525.281 439.13 523.924 440.999 523.924 442.681 L 523.924 442.683 C 523.924 445.026 526.029 446.336 528.082 446.032 C 529.143 445.873 529.923 445.222 530.559 444.438 C 531.157 443.7 531.304 444.176 531.223 444.659 C 530.841 446.893 529.823 448.161 527.928 448.756 C 527.739 448.817 526.942 448.997 527.671 448.997 L 531.428 448.997 L 531.428 434.424 Z " fill="rgb(87,86,90)"/><path d=" M 570.422 442.683 C 570.422 445.026 568.318 446.338 566.264 446.032 C 565.203 445.873 564.422 445.223 563.789 444.438 C 563.19 443.7 563.041 444.176 563.123 444.659 C 563.504 446.893 564.522 448.161 566.418 448.756 C 566.607 448.817 567.405 448.997 566.678 448.997 L 559.127 448.997 C 558.399 448.997 559.196 448.817 559.384 448.756 C 561.279 448.161 562.298 446.893 562.679 444.659 C 562.761 444.176 562.614 443.7 562.015 444.438 C 561.38 445.223 560.601 445.873 559.538 446.032 C 557.485 446.336 555.38 445.026 555.38 442.683 L 555.38 442.681 C 555.38 440.999 556.737 439.13 558.507 439.259 C 558.629 439.268 559.466 439.448 559.726 439.194 C 560.104 438.826 559.577 438.554 559.538 437.718 L 559.538 437.716 C 559.481 435.723 560.851 434.658 562.38 434.465 L 562.38 434.467 C 562.38 434.465 562.712 434.424 562.861 434.424 C 563.133 434.421 563.35 434.462 563.424 434.467 L 563.424 434.465 C 564.951 434.658 566.322 435.724 566.264 437.716 L 566.264 437.718 C 566.225 438.554 565.7 438.826 566.076 439.194 C 566.335 439.448 567.176 439.265 567.295 439.259 C 569.063 439.13 570.422 440.999 570.422 442.681 L 570.422 442.683 Z " fill="rgb(68,66,71)"/><path d=" M 562.885 434.424 C 562.877 434.424 562.868 434.423 562.861 434.424 C 562.712 434.424 562.38 434.465 562.38 434.467 L 562.38 434.465 C 560.851 434.658 559.481 435.722 559.538 437.716 L 559.538 437.718 C 559.577 438.554 560.104 438.826 559.726 439.194 C 559.466 439.448 558.629 439.268 558.507 439.259 C 556.737 439.13 555.38 440.999 555.38 442.681 L 555.38 442.683 C 555.38 445.026 557.485 446.336 559.538 446.032 C 560.601 445.873 561.38 445.222 562.015 444.438 C 562.614 443.7 562.761 444.176 562.679 444.659 C 562.298 446.893 561.279 448.161 559.384 448.756 C 559.196 448.817 558.399 448.997 559.127 448.997 L 562.885 448.997 L 562.885 434.424 Z " fill="rgb(87,86,90)"/><path d=" M 570.472 452.267 C 570.472 451.054 571.561 450.375 572.625 450.533 C 573.174 450.616 573.579 450.953 573.906 451.359 C 574.217 451.741 574.295 451.495 574.252 451.245 C 574.055 450.087 573.527 449.431 572.546 449.123 C 572.447 449.091 572.034 448.997 572.411 448.997 L 576.322 448.997 C 576.698 448.997 576.286 449.091 576.188 449.123 C 575.207 449.431 574.68 450.087 574.482 451.245 C 574.439 451.495 574.516 451.741 574.826 451.359 C 575.155 450.953 575.558 450.616 576.108 450.533 C 577.172 450.376 578.263 451.054 578.263 452.267 L 578.263 452.268 C 578.263 453.139 577.559 454.108 576.643 454.042 C 576.58 454.036 576.145 453.943 576.011 454.075 C 575.815 454.265 576.089 454.407 576.108 454.84 L 576.108 454.841 C 576.138 455.873 575.429 456.425 574.637 456.524 L 574.637 456.523 C 574.637 456.524 574.465 456.546 574.388 456.546 C 574.246 456.548 574.135 456.526 574.096 456.523 L 574.096 456.524 C 573.305 456.425 572.595 455.872 572.625 454.841 L 572.625 454.84 C 572.645 454.407 572.917 454.265 572.723 454.075 C 572.588 453.943 572.152 454.038 572.092 454.042 C 571.175 454.108 570.472 453.139 570.472 452.268 L 570.472 452.267 Z " fill="rgb(68,66,71)"/><path d=" M 574.376 456.546 C 574.38 456.546 574.384 456.546 574.388 456.546 C 574.465 456.546 574.637 456.524 574.637 456.523 L 574.637 456.524 C 575.429 456.425 576.138 455.873 576.108 454.841 L 576.108 454.84 C 576.089 454.407 575.815 454.265 576.011 454.075 C 576.145 453.943 576.58 454.036 576.643 454.042 C 577.559 454.108 578.263 453.139 578.263 452.268 L 578.263 452.267 C 578.263 451.054 577.172 450.376 576.108 450.533 C 575.558 450.616 575.155 450.953 574.826 451.359 C 574.516 451.741 574.439 451.495 574.482 451.245 C 574.68 450.087 575.207 449.431 576.188 449.123 C 576.286 449.091 576.698 448.997 576.322 448.997 L 574.376 448.997 L 574.376 456.546 Z " fill="rgb(87,86,90)"/><path d=" M 523.938 382.105 C 523.938 383.319 522.849 383.998 521.784 383.84 C 521.236 383.757 520.831 383.42 520.503 383.014 C 520.192 382.632 520.115 382.878 520.158 383.129 C 520.355 384.286 520.883 384.942 521.864 385.251 C 521.963 385.282 522.376 385.376 521.999 385.376 L 518.088 385.376 C 517.711 385.376 518.124 385.282 518.222 385.251 C 519.203 384.942 519.73 384.286 519.928 383.129 C 519.971 382.878 519.894 382.632 519.584 383.014 C 519.255 383.42 518.851 383.757 518.301 383.84 C 517.238 383.997 516.147 383.319 516.147 382.105 L 516.147 382.104 C 516.147 381.233 516.851 380.264 517.767 380.331 C 517.83 380.337 518.264 380.43 518.398 380.298 C 518.595 380.107 518.321 379.966 518.301 379.533 L 518.301 379.532 C 518.271 378.5 518.98 377.948 519.773 377.848 L 519.773 377.849 C 519.773 377.848 519.945 377.827 520.022 377.827 C 520.163 377.825 520.275 377.847 520.313 377.849 L 520.313 377.848 C 521.105 377.948 521.815 378.501 521.784 379.532 L 521.784 379.533 C 521.765 379.966 521.493 380.107 521.687 380.298 C 521.821 380.43 522.258 380.335 522.318 380.331 C 523.235 380.264 523.938 381.233 523.938 382.104 L 523.938 382.105 Z " fill="rgb(68,66,71)"/><path d=" M 520.034 377.827 C 520.03 377.827 520.026 377.827 520.022 377.827 C 519.945 377.827 519.773 377.848 519.773 377.849 L 519.773 377.848 C 518.98 377.948 518.271 378.5 518.301 379.532 L 518.301 379.533 C 518.321 379.966 518.595 380.107 518.398 380.298 C 518.264 380.43 517.83 380.337 517.767 380.331 C 516.851 380.264 516.147 381.233 516.147 382.104 L 516.147 382.105 C 516.147 383.319 517.238 383.997 518.301 383.84 C 518.851 383.757 519.255 383.42 519.584 383.014 C 519.894 382.632 519.971 382.878 519.928 383.129 C 519.73 384.286 519.203 384.942 518.222 385.251 C 518.124 385.282 517.711 385.376 518.088 385.376 L 520.034 385.376 L 520.034 377.827 Z " fill="rgb(87,86,90)"/><path d=" M 517.88 368.718 L 517.88 369.513 L 521.342 369.513 L 521.342 369.535 L 518.272 375.794 L 519.263 375.794 L 522.344 369.35 L 522.344 368.718 L 517.88 368.718 Z " fill="rgb(68,66,71)"/><path d=" M 576.53 465.654 L 576.53 464.859 L 573.068 464.859 L 573.068 464.837 L 576.138 458.578 L 575.147 458.578 L 572.066 465.022 L 572.066 465.654 L 576.53 465.654 Z " fill="rgb(68,66,71)"/><path d=" M 554.726 404.728 C 554.726 407.071 552.622 408.383 550.567 408.077 C 549.508 407.918 548.726 407.267 548.093 406.483 C 547.494 405.745 547.345 406.221 547.428 406.704 C 547.808 408.938 548.826 410.206 550.722 410.801 C 550.912 410.862 551.709 411.042 550.981 411.042 L 543.431 411.042 C 542.703 411.042 543.5 410.862 543.687 410.801 C 545.583 410.206 546.601 408.938 546.982 406.704 C 547.064 406.221 546.918 405.745 546.319 406.483 C 545.684 407.267 544.904 407.918 543.843 408.077 C 541.79 408.381 539.684 407.071 539.684 404.728 L 539.684 404.726 C 539.684 403.044 541.041 401.175 542.81 401.304 C 542.933 401.313 543.77 401.493 544.03 401.239 C 544.408 400.871 543.881 400.598 543.843 399.763 L 543.843 399.761 C 543.785 397.767 545.154 396.703 546.684 396.51 L 546.684 396.512 C 546.684 396.51 547.017 396.469 547.165 396.469 C 547.437 396.466 547.653 396.507 547.728 396.512 L 547.728 396.51 C 549.256 396.703 550.626 397.769 550.567 399.761 L 550.567 399.763 C 550.528 400.598 550.004 400.871 550.38 401.239 C 550.639 401.493 551.48 401.31 551.599 401.304 C 553.368 401.175 554.726 403.044 554.726 404.726 L 554.726 404.728 Z " fill="rgb(68,66,71)"/><path d=" M 547.188 396.469 C 547.181 396.469 547.173 396.468 547.165 396.469 C 547.017 396.469 546.684 396.51 546.684 396.512 L 546.684 396.51 C 545.154 396.703 543.785 397.766 543.843 399.761 L 543.843 399.763 C 543.881 400.598 544.408 400.871 544.03 401.239 C 543.77 401.493 542.933 401.313 542.81 401.304 C 541.041 401.175 539.684 403.044 539.684 404.726 L 539.684 404.728 C 539.684 407.071 541.79 408.381 543.843 408.077 C 544.904 407.918 545.684 407.266 546.319 406.483 C 546.918 405.745 547.064 406.221 546.982 406.704 C 546.601 408.938 545.583 410.206 543.687 410.801 C 543.5 410.862 542.703 411.042 543.431 411.042 L 547.188 411.042 L 547.188 396.469 Z " fill="rgb(87,86,90)"/></g></svg>