<?xml version="1.0" encoding="UTF-8" standalone="no"?><!-- Generator: Gravit.io --><svg xmlns="http://www.w3.org/2000/svg" xmlns:xlink="http://www.w3.org/1999/xlink" style="isolation:isolate" viewBox="666.055 283.343 69.124 103.684" width="69.124pt" height="103.684pt"><g><path d=" M 735.179 384.306 C 735.179 385.81 733.96 387.027 732.457 387.027 L 668.777 387.027 C 667.274 387.027 666.055 385.81 666.055 384.306 L 666.055 286.064 C 666.055 284.561 667.274 283.343 668.777 283.343 L 732.457 283.343 C 733.96 283.343 735.179 284.561 735.179 286.064 L 735.179 384.306 Z " fill="rgb(234,232,232)"/><path d=" M 692.378 306.941 C 692.378 309.284 690.273 310.595 688.219 310.29 C 687.159 310.131 686.377 309.479 685.745 308.695 C 685.145 307.957 684.996 308.432 685.079 308.917 C 685.459 311.151 686.477 312.419 688.373 313.012 C 688.563 313.075 689.36 313.255 688.633 313.255 L 681.083 313.255 C 680.354 313.255 681.151 313.075 681.34 313.012 C 683.235 312.419 684.253 311.151 684.635 308.917 C 684.716 308.432 684.569 307.957 683.971 308.695 C 683.335 309.479 682.555 310.131 681.494 310.29 C 679.441 310.593 677.336 309.284 677.336 306.941 L 677.336 306.938 C 677.336 305.257 678.693 303.386 680.463 303.515 C 680.584 303.525 681.422 303.706 681.682 303.451 C 682.059 303.084 681.532 302.811 681.494 301.975 L 681.494 301.972 C 681.437 299.98 682.805 298.915 684.336 298.722 L 684.336 298.724 C 684.336 298.722 684.668 298.68 684.816 298.68 C 685.089 298.678 685.305 298.719 685.38 298.724 L 685.38 298.722 C 686.907 298.915 688.278 299.982 688.219 301.972 L 688.219 301.975 C 688.18 302.811 687.655 303.084 688.031 303.451 C 688.291 303.706 689.132 303.523 689.25 303.515 C 691.019 303.386 692.378 305.257 692.378 306.938 L 692.378 306.941 Z " fill="rgb(68,66,71)"/><path d=" M 684.84 298.68 C 684.832 298.68 684.824 298.68 684.816 298.68 C 684.668 298.68 684.336 298.722 684.336 298.724 L 684.336 298.722 C 682.805 298.915 681.437 299.979 681.494 301.972 L 681.494 301.975 C 681.532 302.811 682.059 303.084 681.682 303.451 C 681.422 303.706 680.584 303.525 680.463 303.515 C 678.693 303.386 677.336 305.257 677.336 306.938 L 677.336 306.941 C 677.336 309.284 679.441 310.593 681.494 310.29 C 682.555 310.131 683.335 309.479 683.971 308.695 C 684.569 307.957 684.716 308.432 684.635 308.917 C 684.253 311.151 683.235 312.419 681.34 313.012 C 681.151 313.075 680.354 313.255 681.083 313.255 L 684.84 313.255 L 684.84 298.68 Z " fill="rgb(87,86,90)"/><path d=" M 723.834 306.941 C 723.834 309.284 721.73 310.595 719.676 310.29 C 718.615 310.131 717.834 309.479 717.201 308.695 C 716.602 307.957 716.453 308.432 716.535 308.917 C 716.916 311.151 717.934 312.419 719.83 313.012 C 720.019 313.075 720.817 313.255 720.09 313.255 L 712.539 313.255 C 711.811 313.255 712.608 313.075 712.796 313.012 C 714.691 312.419 715.71 311.151 716.091 308.917 C 716.173 308.432 716.026 307.957 715.427 308.695 C 714.792 309.479 714.013 310.131 712.95 310.29 C 710.897 310.593 708.792 309.284 708.792 306.941 L 708.792 306.938 C 708.792 305.257 710.149 303.386 711.919 303.515 C 712.041 303.525 712.878 303.706 713.138 303.451 C 713.516 303.084 712.989 302.811 712.95 301.975 L 712.95 301.972 C 712.893 299.98 714.263 298.915 715.792 298.722 L 715.792 298.724 C 715.792 298.722 716.124 298.68 716.273 298.68 C 716.545 298.678 716.762 298.719 716.836 298.724 L 716.836 298.722 C 718.363 298.915 719.734 299.982 719.676 301.972 L 719.676 301.975 C 719.637 302.811 719.112 303.084 719.488 303.451 C 719.747 303.706 720.588 303.523 720.707 303.515 C 722.475 303.386 723.834 305.257 723.834 306.938 L 723.834 306.941 Z " fill="rgb(68,66,71)"/><path d=" M 716.297 298.68 C 716.289 298.68 716.28 298.68 716.273 298.68 C 716.124 298.68 715.792 298.722 715.792 298.724 L 715.792 298.722 C 714.263 298.915 712.893 299.979 712.95 301.972 L 712.95 301.975 C 712.989 302.811 713.516 303.084 713.138 303.451 C 712.878 303.706 712.041 303.525 711.919 303.515 C 710.149 303.386 708.792 305.257 708.792 306.938 L 708.792 306.941 C 708.792 309.284 710.897 310.593 712.95 310.29 C 714.013 310.131 714.792 309.479 715.427 308.695 C 716.026 307.957 716.173 308.432 716.091 308.917 C 715.71 311.151 714.691 312.419 712.796 313.012 C 712.608 313.075 711.811 313.255 712.539 313.255 L 716.297 313.255 L 716.297 298.68 Z " fill="rgb(87,86,90)"/><path d=" M 723.884 370.267 C 723.884 369.052 724.973 368.374 726.037 368.532 C 726.586 368.614 726.991 368.952 727.318 369.359 C 727.629 369.739 727.707 369.493 727.664 369.243 C 727.467 368.085 726.939 367.429 725.958 367.12 C 725.859 367.089 725.446 366.995 725.823 366.995 L 729.734 366.995 C 730.11 366.995 729.698 367.089 729.6 367.12 C 728.619 367.429 728.092 368.085 727.894 369.243 C 727.851 369.493 727.928 369.739 728.238 369.359 C 728.567 368.952 728.97 368.614 729.52 368.532 C 730.584 368.374 731.675 369.052 731.675 370.267 L 731.675 370.267 C 731.675 371.138 730.971 372.107 730.055 372.04 C 729.992 372.034 729.557 371.943 729.423 372.073 C 729.227 372.265 729.501 372.406 729.52 372.839 L 729.52 372.839 C 729.55 373.872 728.841 374.423 728.049 374.523 L 728.049 374.523 C 728.049 374.523 727.877 374.544 727.8 374.544 C 727.658 374.546 727.547 374.525 727.508 374.523 L 727.508 374.523 C 726.717 374.423 726.007 373.87 726.037 372.839 L 726.037 372.839 C 726.057 372.406 726.329 372.265 726.135 372.073 C 726 371.943 725.564 372.036 725.504 372.04 C 724.587 372.107 723.884 371.138 723.884 370.267 L 723.884 370.267 Z " fill="rgb(68,66,71)"/><path d=" M 727.788 374.544 C 727.792 374.544 727.796 374.544 727.8 374.544 C 727.877 374.544 728.049 374.523 728.049 374.523 L 728.049 374.523 C 728.841 374.423 729.55 373.872 729.52 372.839 L 729.52 372.839 C 729.501 372.406 729.227 372.265 729.423 372.073 C 729.557 371.943 729.992 372.034 730.055 372.04 C 730.971 372.107 731.675 371.138 731.675 370.267 L 731.675 370.267 C 731.675 369.052 730.584 368.374 729.52 368.532 C 728.97 368.614 728.567 368.952 728.238 369.359 C 727.928 369.739 727.851 369.493 727.894 369.243 C 728.092 368.085 728.619 367.429 729.6 367.12 C 729.698 367.089 730.11 366.995 729.734 366.995 L 727.788 366.995 L 727.788 374.544 Z " fill="rgb(87,86,90)"/><path d=" M 677.35 300.104 C 677.35 301.317 676.261 301.997 675.196 301.839 C 674.648 301.756 674.243 301.419 673.915 301.012 C 673.604 300.631 673.527 300.877 673.57 301.127 C 673.767 302.285 674.295 302.941 675.276 303.249 C 675.375 303.281 675.788 303.375 675.411 303.375 L 671.5 303.375 C 671.123 303.375 671.536 303.281 671.634 303.249 C 672.615 302.941 673.142 302.285 673.34 301.127 C 673.383 300.877 673.306 300.631 672.996 301.012 C 672.667 301.419 672.263 301.756 671.713 301.839 C 670.65 301.996 669.559 301.317 669.559 300.104 L 669.559 300.103 C 669.559 299.231 670.263 298.263 671.179 298.33 C 671.242 298.336 671.676 298.428 671.81 298.297 C 672.007 298.106 671.733 297.965 671.713 297.532 L 671.713 297.53 C 671.683 296.499 672.392 295.947 673.185 295.846 L 673.185 295.848 C 673.185 295.846 673.357 295.825 673.434 295.825 C 673.575 295.824 673.687 295.845 673.725 295.848 L 673.725 295.846 C 674.517 295.947 675.227 296.5 675.196 297.53 L 675.196 297.532 C 675.177 297.965 674.905 298.106 675.099 298.297 C 675.233 298.428 675.67 298.334 675.73 298.33 C 676.647 298.263 677.35 299.231 677.35 300.103 L 677.35 300.104 Z " fill="rgb(68,66,71)"/><path d=" M 673.446 295.825 C 673.442 295.825 673.438 295.825 673.434 295.825 C 673.357 295.825 673.185 295.846 673.185 295.848 L 673.185 295.846 C 672.392 295.947 671.683 296.499 671.713 297.53 L 671.713 297.532 C 671.733 297.965 672.007 298.106 671.81 298.297 C 671.676 298.428 671.242 298.336 671.179 298.33 C 670.263 298.263 669.559 299.231 669.559 300.103 L 669.559 300.104 C 669.559 301.317 670.65 301.996 671.713 301.839 C 672.263 301.756 672.667 301.419 672.996 301.012 C 673.306 300.631 673.383 300.877 673.34 301.127 C 673.142 302.285 672.615 302.941 671.634 303.249 C 671.536 303.281 671.123 303.375 671.5 303.375 L 673.446 303.375 L 673.446 295.825 Z " fill="rgb(87,86,90)"/><path d=" M 671.717 293.902 C 671.946 293.913 672.25 293.902 672.599 293.847 C 673.361 293.76 674.112 293.434 674.656 292.9 C 675.353 292.225 675.875 291.137 675.875 289.591 C 675.875 287.762 674.983 286.598 673.535 286.598 C 672.087 286.598 671.118 287.773 671.118 289.112 C 671.118 290.32 671.935 291.278 673.197 291.278 C 673.916 291.278 674.482 291.006 674.874 290.527 L 674.906 290.527 C 674.776 291.355 674.438 291.975 673.97 292.4 C 673.568 292.791 673.045 293.009 672.49 293.085 C 672.163 293.118 671.924 293.14 671.717 293.118 L 671.717 293.902 Z  M 673.448 287.327 C 674.46 287.327 674.906 288.252 674.906 289.46 C 674.906 289.624 674.874 289.722 674.819 289.82 C 674.569 290.244 674.068 290.56 673.426 290.56 C 672.599 290.56 672.065 289.939 672.065 289.058 C 672.065 288.045 672.642 287.327 673.448 287.327 Z " fill="rgb(68,66,71)"/><path d=" M 729.517 376.468 C 729.288 376.457 728.984 376.468 728.635 376.523 C 727.873 376.61 727.122 376.936 726.578 377.47 C 725.881 378.144 725.359 379.233 725.359 380.779 C 725.359 382.608 726.251 383.772 727.699 383.772 C 729.147 383.772 730.116 382.597 730.116 381.258 C 730.116 380.049 729.299 379.092 728.037 379.092 C 727.318 379.092 726.752 379.364 726.36 379.843 L 726.328 379.843 C 726.458 379.015 726.796 378.395 727.264 377.97 C 727.666 377.578 728.189 377.361 728.744 377.284 C 729.071 377.252 729.31 377.23 729.517 377.252 L 729.517 376.468 Z  M 727.786 383.043 C 726.774 383.043 726.328 382.118 726.328 380.909 C 726.328 380.746 726.36 380.648 726.415 380.55 C 726.665 380.126 727.166 379.81 727.808 379.81 C 728.635 379.81 729.169 380.43 729.169 381.312 C 729.169 382.325 728.592 383.043 727.786 383.043 Z " fill="rgb(68,66,71)"/><path d=" M 708.138 336.158 C 708.138 338.501 706.034 339.812 703.979 339.507 C 702.92 339.347 702.138 338.697 701.505 337.912 C 700.906 337.174 700.757 337.649 700.84 338.134 C 701.22 340.368 702.238 341.636 704.134 342.23 C 704.324 342.292 705.121 342.472 704.393 342.472 L 696.843 342.472 C 696.115 342.472 696.912 342.292 697.099 342.23 C 698.995 341.636 700.013 340.368 700.394 338.134 C 700.476 337.649 700.33 337.174 699.731 337.912 C 699.096 338.697 698.316 339.347 697.255 339.507 C 695.202 339.81 693.096 338.501 693.096 336.158 L 693.096 336.156 C 693.096 334.473 694.453 332.604 696.222 332.732 C 696.345 332.743 697.182 332.923 697.442 332.668 C 697.82 332.301 697.293 332.028 697.255 331.192 L 697.255 331.189 C 697.197 329.197 698.566 328.133 700.096 327.939 L 700.096 327.941 C 700.096 327.939 700.429 327.897 700.577 327.897 C 700.849 327.895 701.065 327.936 701.14 327.941 L 701.14 327.939 C 702.668 328.133 704.038 329.199 703.979 331.189 L 703.979 331.192 C 703.94 332.028 703.416 332.301 703.792 332.668 C 704.051 332.923 704.892 332.74 705.011 332.732 C 706.78 332.604 708.138 334.473 708.138 336.156 L 708.138 336.158 Z " fill="rgb(68,66,71)"/><path d=" M 700.6 327.897 C 700.593 327.897 700.585 327.897 700.577 327.897 C 700.429 327.897 700.096 327.939 700.096 327.941 L 700.096 327.939 C 698.566 328.133 697.197 329.196 697.255 331.189 L 697.255 331.192 C 697.293 332.028 697.82 332.301 697.442 332.668 C 697.182 332.923 696.345 332.743 696.222 332.732 C 694.453 332.604 693.096 334.473 693.096 336.156 L 693.096 336.158 C 693.096 338.501 695.202 339.81 697.255 339.507 C 698.316 339.347 699.096 338.696 699.731 337.912 C 700.33 337.174 700.476 337.649 700.394 338.134 C 700.013 340.368 698.995 341.636 697.099 342.23 C 696.912 342.292 696.115 342.472 696.843 342.472 L 700.6 342.472 L 700.6 327.897 Z " fill="rgb(87,86,90)"/><path d=" M 692.378 326.141 C 692.378 328.484 690.273 329.796 688.219 329.49 C 687.159 329.331 686.377 328.68 685.745 327.895 C 685.145 327.157 684.996 327.633 685.079 328.117 C 685.459 330.351 686.477 331.62 688.373 332.214 C 688.563 332.275 689.36 332.455 688.633 332.455 L 681.083 332.455 C 680.354 332.455 681.151 332.275 681.34 332.214 C 683.235 331.62 684.253 330.351 684.635 328.117 C 684.716 327.633 684.569 327.157 683.971 327.895 C 683.335 328.68 682.555 329.331 681.494 329.49 C 679.441 329.794 677.336 328.484 677.336 326.141 L 677.336 326.139 C 677.336 324.457 678.693 322.588 680.463 322.716 C 680.584 322.726 681.422 322.906 681.682 322.651 C 682.059 322.284 681.532 322.011 681.494 321.176 L 681.494 321.173 C 681.437 319.18 682.805 318.116 684.336 317.923 L 684.336 317.925 C 684.336 317.923 684.668 317.882 684.816 317.882 C 685.089 317.879 685.305 317.92 685.38 317.925 L 685.38 317.923 C 686.907 318.116 688.278 319.182 688.219 321.173 L 688.219 321.176 C 688.18 322.011 687.655 322.284 688.031 322.651 C 688.291 322.906 689.132 322.723 689.25 322.716 C 691.019 322.588 692.378 324.457 692.378 326.139 L 692.378 326.141 Z " fill="rgb(68,66,71)"/><path d=" M 684.84 317.882 C 684.832 317.882 684.824 317.882 684.816 317.882 C 684.668 317.882 684.336 317.923 684.336 317.925 L 684.336 317.923 C 682.805 318.116 681.437 319.179 681.494 321.173 L 681.494 321.176 C 681.532 322.011 682.059 322.284 681.682 322.651 C 681.422 322.906 680.584 322.726 680.463 322.716 C 678.693 322.588 677.336 324.457 677.336 326.139 L 677.336 326.141 C 677.336 328.484 679.441 329.794 681.494 329.49 C 682.555 329.331 683.335 328.679 683.971 327.895 C 684.569 327.157 684.716 327.633 684.635 328.117 C 684.253 330.351 683.235 331.62 681.34 332.214 C 681.151 332.275 680.354 332.455 681.083 332.455 L 684.84 332.455 L 684.84 317.882 Z " fill="rgb(87,86,90)"/><path d=" M 723.834 326.141 C 723.834 328.484 721.73 329.796 719.676 329.49 C 718.615 329.331 717.834 328.68 717.201 327.895 C 716.602 327.157 716.453 327.633 716.535 328.117 C 716.916 330.351 717.934 331.62 719.83 332.214 C 720.019 332.275 720.817 332.455 720.09 332.455 L 712.539 332.455 C 711.811 332.455 712.608 332.275 712.796 332.214 C 714.691 331.62 715.71 330.351 716.091 328.117 C 716.173 327.633 716.026 327.157 715.427 327.895 C 714.792 328.68 714.013 329.331 712.95 329.49 C 710.897 329.794 708.792 328.484 708.792 326.141 L 708.792 326.139 C 708.792 324.457 710.149 322.588 711.919 322.716 C 712.041 322.726 712.878 322.906 713.138 322.651 C 713.516 322.284 712.989 322.011 712.95 321.176 L 712.95 321.173 C 712.893 319.18 714.263 318.116 715.792 317.923 L 715.792 317.925 C 715.792 317.923 716.124 317.882 716.273 317.882 C 716.545 317.879 716.762 317.92 716.836 317.925 L 716.836 317.923 C 718.363 318.116 719.734 319.182 719.676 321.173 L 719.676 321.176 C 719.637 322.011 719.112 322.284 719.488 322.651 C 719.747 322.906 720.588 322.723 720.707 322.716 C 722.475 322.588 723.834 324.457 723.834 326.139 L 723.834 326.141 Z " fill="rgb(68,66,71)"/><path d=" M 716.297 317.882 C 716.289 317.882 716.28 317.882 716.273 317.882 C 716.124 317.882 715.792 317.923 715.792 317.925 L 715.792 317.923 C 714.263 318.116 712.893 319.179 712.95 321.173 L 712.95 321.176 C 712.989 322.011 713.516 322.284 713.138 322.651 C 712.878 322.906 712.041 322.726 711.919 322.716 C 710.149 322.588 708.792 324.457 708.792 326.139 L 708.792 326.141 C 708.792 328.484 710.897 329.794 712.95 329.49 C 714.013 329.331 714.792 328.679 715.427 327.895 C 716.026 327.157 716.173 327.633 716.091 328.117 C 715.71 330.351 714.691 331.62 712.796 332.214 C 712.608 332.275 711.811 332.455 712.539 332.455 L 716.297 332.455 L 716.297 317.882 Z " fill="rgb(87,86,90)"/><path d=" M 692.378 345.341 C 692.378 347.685 690.273 348.995 688.219 348.691 C 687.159 348.531 686.377 347.88 685.745 347.095 C 685.145 346.357 684.996 346.833 685.079 347.318 C 685.459 349.552 686.477 350.82 688.373 351.413 C 688.563 351.476 689.36 351.656 688.633 351.656 L 681.083 351.656 C 680.354 351.656 681.151 351.476 681.34 351.413 C 683.235 350.82 684.253 349.552 684.635 347.318 C 684.716 346.833 684.569 346.357 683.971 347.095 C 683.335 347.88 682.555 348.531 681.494 348.691 C 679.441 348.993 677.336 347.685 677.336 345.341 L 677.336 345.339 C 677.336 343.657 678.693 341.788 680.463 341.915 C 680.584 341.927 681.422 342.107 681.682 341.853 C 682.059 341.484 681.532 341.212 681.494 340.376 L 681.494 340.372 C 681.437 338.381 682.805 337.316 684.336 337.123 L 684.336 337.125 C 684.336 337.123 684.668 337.082 684.816 337.082 C 685.089 337.079 685.305 337.12 685.38 337.125 L 685.38 337.123 C 686.907 337.316 688.278 338.383 688.219 340.372 L 688.219 340.376 C 688.18 341.212 687.655 341.484 688.031 341.853 C 688.291 342.107 689.132 341.925 689.25 341.915 C 691.019 341.788 692.378 343.657 692.378 345.339 L 692.378 345.341 Z " fill="rgb(68,66,71)"/><path d=" M 684.84 337.082 C 684.832 337.082 684.824 337.082 684.816 337.082 C 684.668 337.082 684.336 337.123 684.336 337.125 L 684.336 337.123 C 682.805 337.316 681.437 338.38 681.494 340.372 L 681.494 340.376 C 681.532 341.212 682.059 341.484 681.682 341.853 C 681.422 342.107 680.584 341.927 680.463 341.915 C 678.693 341.788 677.336 343.657 677.336 345.339 L 677.336 345.341 C 677.336 347.685 679.441 348.993 681.494 348.691 C 682.555 348.531 683.335 347.88 683.971 347.095 C 684.569 346.357 684.716 346.833 684.635 347.318 C 684.253 349.552 683.235 350.82 681.34 351.413 C 681.151 351.476 680.354 351.656 681.083 351.656 L 684.84 351.656 L 684.84 337.082 Z " fill="rgb(87,86,90)"/><path d=" M 723.834 345.341 C 723.834 347.685 721.73 348.995 719.676 348.691 C 718.615 348.531 717.834 347.88 717.201 347.095 C 716.602 346.357 716.453 346.833 716.535 347.318 C 716.916 349.552 717.934 350.82 719.83 351.413 C 720.019 351.476 720.817 351.656 720.09 351.656 L 712.539 351.656 C 711.811 351.656 712.608 351.476 712.796 351.413 C 714.691 350.82 715.71 349.552 716.091 347.318 C 716.173 346.833 716.026 346.357 715.427 347.095 C 714.792 347.88 714.013 348.531 712.95 348.691 C 710.897 348.993 708.792 347.685 708.792 345.341 L 708.792 345.339 C 708.792 343.657 710.149 341.788 711.919 341.915 C 712.041 341.927 712.878 342.107 713.138 341.853 C 713.516 341.484 712.989 341.212 712.95 340.376 L 712.95 340.372 C 712.893 338.381 714.263 337.316 715.792 337.123 L 715.792 337.125 C 715.792 337.123 716.124 337.082 716.273 337.082 C 716.545 337.079 716.762 337.12 716.836 337.125 L 716.836 337.123 C 718.363 337.316 719.734 338.383 719.676 340.372 L 719.676 340.376 C 719.637 341.212 719.112 341.484 719.488 341.853 C 719.747 342.107 720.588 341.925 720.707 341.915 C 722.475 341.788 723.834 343.657 723.834 345.339 L 723.834 345.341 Z " fill="rgb(68,66,71)"/><path d=" M 716.297 337.082 C 716.289 337.082 716.28 337.082 716.273 337.082 C 716.124 337.082 715.792 337.123 715.792 337.125 L 715.792 337.123 C 714.263 337.316 712.893 338.38 712.95 340.372 L 712.95 340.376 C 712.989 341.212 713.516 341.484 713.138 341.853 C 712.878 342.107 712.041 341.927 711.919 341.915 C 710.149 341.788 708.792 343.657 708.792 345.339 L 708.792 345.341 C 708.792 347.685 710.897 348.993 712.95 348.691 C 714.013 348.531 714.792 347.88 715.427 347.095 C 716.026 346.357 716.173 346.833 716.091 347.318 C 715.71 349.552 714.691 350.82 712.796 351.413 C 712.608 351.476 711.811 351.656 712.539 351.656 L 716.297 351.656 L 716.297 337.082 Z " fill="rgb(87,86,90)"/><path d=" M 692.378 364.542 C 692.378 366.886 690.273 368.197 688.219 367.892 C 687.159 367.732 686.377 367.081 685.745 366.296 C 685.145 365.558 684.996 366.034 685.079 366.517 C 685.459 368.753 686.477 370.021 688.373 370.614 C 688.563 370.677 689.36 370.857 688.633 370.857 L 681.083 370.857 C 680.354 370.857 681.151 370.677 681.34 370.614 C 683.235 370.021 684.253 368.753 684.635 366.517 C 684.716 366.034 684.569 365.558 683.971 366.296 C 683.335 367.081 682.555 367.732 681.494 367.892 C 679.441 368.195 677.336 366.886 677.336 364.542 L 677.336 364.54 C 677.336 362.859 678.693 360.988 680.463 361.116 C 680.584 361.126 681.422 361.308 681.682 361.052 C 682.059 360.685 681.532 360.413 681.494 359.577 L 681.494 359.573 C 681.437 357.581 682.805 356.517 684.336 356.323 L 684.336 356.325 C 684.336 356.323 684.668 356.282 684.816 356.282 C 685.089 356.281 685.305 356.32 685.38 356.325 L 685.38 356.323 C 686.907 356.517 688.278 357.583 688.219 359.573 L 688.219 359.577 C 688.18 360.413 687.655 360.685 688.031 361.052 C 688.291 361.308 689.132 361.124 689.25 361.116 C 691.019 360.988 692.378 362.859 692.378 364.54 L 692.378 364.542 Z " fill="rgb(68,66,71)"/><path d=" M 684.84 356.282 C 684.832 356.282 684.824 356.282 684.816 356.282 C 684.668 356.282 684.336 356.323 684.336 356.325 L 684.336 356.323 C 682.805 356.517 681.437 357.581 681.494 359.573 L 681.494 359.577 C 681.532 360.413 682.059 360.685 681.682 361.052 C 681.422 361.308 680.584 361.126 680.463 361.116 C 678.693 360.988 677.336 362.859 677.336 364.54 L 677.336 364.542 C 677.336 366.886 679.441 368.195 681.494 367.892 C 682.555 367.732 683.335 367.081 683.971 366.296 C 684.569 365.558 684.716 366.034 684.635 366.517 C 684.253 368.753 683.235 370.021 681.34 370.614 C 681.151 370.677 680.354 370.857 681.083 370.857 L 684.84 370.857 L 684.84 356.282 Z " fill="rgb(87,86,90)"/><path d=" M 723.834 364.542 C 723.834 366.886 721.73 368.197 719.676 367.892 C 718.615 367.732 717.834 367.081 717.201 366.296 C 716.602 365.558 716.453 366.034 716.535 366.517 C 716.916 368.753 717.934 370.021 719.83 370.614 C 720.019 370.677 720.817 370.857 720.09 370.857 L 712.539 370.857 C 711.811 370.857 712.608 370.677 712.796 370.614 C 714.691 370.021 715.71 368.753 716.091 366.517 C 716.173 366.034 716.026 365.558 715.427 366.296 C 714.792 367.081 714.013 367.732 712.95 367.892 C 710.897 368.195 708.792 366.886 708.792 364.542 L 708.792 364.54 C 708.792 362.859 710.149 360.988 711.919 361.116 C 712.041 361.126 712.878 361.308 713.138 361.052 C 713.516 360.685 712.989 360.413 712.95 359.577 L 712.95 359.573 C 712.893 357.581 714.263 356.517 715.792 356.323 L 715.792 356.325 C 715.792 356.323 716.124 356.282 716.273 356.282 C 716.545 356.281 716.762 356.32 716.836 356.325 L 716.836 356.323 C 718.363 356.517 719.734 357.583 719.676 359.573 L 719.676 359.577 C 719.637 360.413 719.112 360.685 719.488 361.052 C 719.747 361.308 720.588 361.124 720.707 361.116 C 722.475 360.988 723.834 362.859 723.834 364.54 L 723.834 364.542 Z " fill="rgb(68,66,71)"/><path d=" M 716.297 356.282 C 716.289 356.282 716.28 356.282 716.273 356.282 C 716.124 356.282 715.792 356.323 715.792 356.325 L 715.792 356.323 C 714.263 356.517 712.893 357.581 712.95 359.573 L 712.95 359.577 C 712.989 360.413 713.516 360.685 713.138 361.052 C 712.878 361.308 712.041 361.126 711.919 361.116 C 710.149 360.988 708.792 362.859 708.792 364.54 L 708.792 364.542 C 708.792 366.886 710.897 368.195 712.95 367.892 C 714.013 367.732 714.792 367.081 715.427 366.296 C 716.026 365.558 716.173 366.034 716.091 366.517 C 715.71 368.753 714.691 370.021 712.796 370.614 C 712.608 370.677 711.811 370.857 712.539 370.857 L 716.297 370.857 L 716.297 356.282 Z " fill="rgb(87,86,90)"/></g></svg>