<?xml version="1.0" encoding="UTF-8" standalone="no"?><!-- Generator: Gravit.io --><svg xmlns="http://www.w3.org/2000/svg" xmlns:xlink="http://www.w3.org/1999/xlink" style="isolation:isolate" viewBox="168.316 670.066 69.123 103.686" width="69.123pt" height="103.686pt"><g><path d=" M 237.439 771.029 C 237.439 772.533 236.221 773.752 234.718 773.752 L 171.038 773.752 C 169.535 773.752 168.316 772.533 168.316 771.029 L 168.316 672.789 C 168.316 671.285 169.535 670.066 171.038 670.066 L 234.718 670.066 C 236.221 670.066 237.439 671.285 237.439 672.789 L 237.439 771.029 Z " fill="rgb(234,232,232)"/><path d=" M 202.878 741.168 L 188.719 721.908 L 202.878 702.65 L 217.037 721.908 L 202.878 741.168 Z " fill="rgb(125,60,64)"/><path d=" M 202.834 702.711 L 188.719 721.908 L 202.834 741.107 L 202.834 702.711 Z " fill="rgb(147,67,72)"/><path d=" M 229.987 753.699 L 232.776 757.494 L 229.987 761.289 L 227.197 757.494 L 229.987 753.699 Z " fill="rgb(125,60,64)"/><path d=" M 229.996 761.277 L 232.776 757.494 L 229.996 753.711 L 229.996 761.277 Z " fill="rgb(147,67,72)"/><path d=" M 177.009 678.208 L 177.793 680.516 L 178.806 680.516 L 176.302 673.179 L 175.17 673.179 L 172.666 680.516 L 173.646 680.516 L 174.408 678.208 L 177.009 678.208 Z  M 174.604 677.468 L 175.322 675.345 C 175.475 674.899 175.583 674.442 175.692 674.017 L 175.714 674.017 C 175.823 674.442 175.932 674.877 176.095 675.356 L 176.824 677.468 L 174.604 677.468 Z " fill="rgb(125,60,64)"/><path d=" M 228.747 765.609 L 227.963 763.301 L 226.95 763.301 L 229.454 770.638 L 230.586 770.638 L 233.09 763.301 L 232.11 763.301 L 231.348 765.609 L 228.747 765.609 Z  M 231.152 766.349 L 230.434 768.472 C 230.281 768.918 230.173 769.375 230.064 769.8 L 230.042 769.8 C 229.933 769.375 229.824 768.94 229.661 768.461 L 228.932 766.349 L 231.152 766.349 Z " fill="rgb(125,60,64)"/><path d=" M 175.681 690.139 L 172.891 686.344 L 175.681 682.549 L 178.471 686.344 L 175.681 690.139 Z " fill="rgb(125,60,64)"/><path d=" M 175.672 682.561 L 172.891 686.344 L 175.672 690.127 L 175.672 682.561 Z " fill="rgb(147,67,72)"/></g></svg>