<?xml version="1.0" encoding="UTF-8" standalone="no"?><!-- Generator: Gravit.io --><svg xmlns="http://www.w3.org/2000/svg" xmlns:xlink="http://www.w3.org/1999/xlink" style="isolation:isolate" viewBox="261.942 410.724 69.124 103.685" width="69.124pt" height="103.685pt"><g><path d=" M 331.066 511.687 C 331.066 513.19 329.847 514.409 328.344 514.409 L 264.664 514.409 C 263.161 514.409 261.942 513.19 261.942 511.687 L 261.942 413.444 C 261.942 411.942 263.161 410.724 264.664 410.724 L 328.344 410.724 C 329.847 410.724 331.066 411.942 331.066 413.444 L 331.066 511.687 Z " fill="rgb(234,232,232)"/><path d=" M 280.76 440.397 L 275.489 433.23 L 280.76 426.062 L 286.029 433.23 L 280.76 440.397 Z " fill="rgb(125,60,64)"/><path d=" M 280.743 426.085 L 275.489 433.23 L 280.743 440.376 L 280.743 426.085 Z " fill="rgb(147,67,72)"/><path d=" M 312.216 440.397 L 306.945 433.23 L 312.216 426.062 L 317.486 433.23 L 312.216 440.397 Z " fill="rgb(125,60,64)"/><path d=" M 312.199 426.085 L 306.945 433.23 L 312.199 440.376 L 312.199 426.085 Z " fill="rgb(147,67,72)"/><path d=" M 280.76 459.925 L 275.489 452.757 L 280.76 445.589 L 286.029 452.757 L 280.76 459.925 Z " fill="rgb(125,60,64)"/><path d=" M 280.743 445.612 L 275.489 452.757 L 280.743 459.903 L 280.743 445.612 Z " fill="rgb(147,67,72)"/><path d=" M 312.216 459.925 L 306.945 452.757 L 312.216 445.589 L 317.486 452.757 L 312.216 459.925 Z " fill="rgb(125,60,64)"/><path d=" M 312.199 445.612 L 306.945 452.757 L 312.199 459.903 L 312.199 445.612 Z " fill="rgb(147,67,72)"/><path d=" M 280.76 479.454 L 275.489 472.286 L 280.76 465.118 L 286.029 472.286 L 280.76 479.454 Z " fill="rgb(125,60,64)"/><path d=" M 280.743 465.14 L 275.489 472.286 L 280.743 479.431 L 280.743 465.14 Z " fill="rgb(147,67,72)"/><path d=" M 312.216 479.454 L 306.945 472.286 L 312.216 465.118 L 317.486 472.286 L 312.216 479.454 Z " fill="rgb(125,60,64)"/><path d=" M 312.199 465.14 L 306.945 472.286 L 312.199 479.431 L 312.199 465.14 Z " fill="rgb(147,67,72)"/><path d=" M 280.76 498.981 L 275.489 491.813 L 280.76 484.646 L 286.029 491.813 L 280.76 498.981 Z " fill="rgb(125,60,64)"/><path d=" M 280.743 484.669 L 275.489 491.813 L 280.743 498.96 L 280.743 484.669 Z " fill="rgb(147,67,72)"/><path d=" M 312.216 498.981 L 306.945 491.813 L 312.216 484.646 L 317.486 491.813 L 312.216 498.981 Z " fill="rgb(125,60,64)"/><path d=" M 312.199 484.669 L 306.945 491.813 L 312.199 498.96 L 312.199 484.669 Z " fill="rgb(147,67,72)"/><path d=" M 267.014 419.435 L 267.731 419.435 L 267.731 413.951 L 267.098 413.951 L 265.9 414.593 L 266.044 415.158 L 266.997 414.643 L 267.014 414.643 L 267.014 419.435 Z  M 271.569 413.859 C 270.456 413.859 269.654 414.863 269.654 416.71 C 269.671 418.524 270.405 419.528 271.477 419.528 C 272.683 419.528 273.383 418.499 273.383 416.634 C 273.383 414.888 272.717 413.859 271.569 413.859 Z  M 271.519 414.432 C 272.295 414.432 272.632 415.318 272.632 416.668 C 272.632 418.068 272.27 418.954 271.519 418.954 C 270.844 418.954 270.405 418.144 270.405 416.719 C 270.405 415.225 270.878 414.432 271.519 414.432 Z " fill="rgb(125,60,64)"/><path d=" M 325.992 505.696 L 325.275 505.696 L 325.275 511.18 L 325.908 511.18 L 327.106 510.538 L 326.962 509.973 L 326.009 510.488 L 325.992 510.488 L 325.992 505.696 Z  M 321.437 511.272 C 322.55 511.272 323.352 510.268 323.352 508.421 C 323.335 506.607 322.601 505.603 321.529 505.603 C 320.323 505.603 319.623 506.632 319.623 508.497 C 319.623 510.243 320.289 511.272 321.437 511.272 Z  M 321.487 510.699 C 320.711 510.699 320.374 509.813 320.374 508.463 C 320.374 507.063 320.736 506.177 321.487 506.177 C 322.162 506.177 322.601 506.987 322.601 508.412 C 322.601 509.906 322.128 510.699 321.487 510.699 Z " fill="rgb(125,60,64)"/><path d=" M 323.657 494.257 L 326.446 498.052 L 323.657 501.847 L 320.867 498.052 L 323.657 494.257 Z " fill="rgb(125,60,64)"/><path d=" M 323.665 501.833 L 326.446 498.052 L 323.665 494.269 L 323.665 501.833 Z " fill="rgb(147,67,72)"/><path d=" M 269.35 430.694 L 266.561 426.901 L 269.35 423.106 L 272.14 426.901 L 269.35 430.694 Z " fill="rgb(125,60,64)"/><path d=" M 269.341 423.118 L 266.561 426.901 L 269.341 430.683 L 269.341 423.118 Z " fill="rgb(147,67,72)"/><path d=" M 296.504 450.626 L 291.233 443.458 L 296.504 436.29 L 301.775 443.458 L 296.504 450.626 Z " fill="rgb(125,60,64)"/><path d=" M 296.488 436.313 L 291.233 443.458 L 296.488 450.605 L 296.488 436.313 Z " fill="rgb(147,67,72)"/><path d=" M 296.504 488.997 L 291.233 481.829 L 296.504 474.661 L 301.775 481.829 L 296.504 488.997 Z " fill="rgb(125,60,64)"/><path d=" M 296.488 474.685 L 291.233 481.829 L 296.488 488.976 L 296.488 474.685 Z " fill="rgb(147,67,72)"/></g></svg>