<?xml version="1.0" encoding="UTF-8" standalone="no"?><!-- Generator: Gravit.io --><svg xmlns="http://www.w3.org/2000/svg" xmlns:xlink="http://www.w3.org/1999/xlink" style="isolation:isolate" viewBox="514.329 565.253 69.122 103.685" width="69.122pt" height="103.685pt"><g><path d=" M 583.451 666.216 C 583.451 667.72 582.232 668.938 580.73 668.938 L 517.05 668.938 C 515.547 668.938 514.329 667.72 514.329 666.216 L 514.329 567.976 C 514.329 566.472 515.547 565.253 517.05 565.253 L 580.73 565.253 C 582.232 565.253 583.451 566.472 583.451 567.976 L 583.451 666.216 Z " fill="rgb(234,232,232)"/><path d=" M 576 648.886 L 578.789 652.681 L 576 656.476 L 573.21 652.681 L 576 648.886 Z " fill="rgb(125,60,64)"/><path d=" M 576.008 656.464 L 578.789 652.681 L 576.008 648.897 L 576.008 656.464 Z " fill="rgb(147,67,72)"/><path d=" M 522.041 573.201 C 522.041 574.638 521.551 575.019 520.702 575.019 C 520.376 575.019 520.093 574.953 519.897 574.877 L 519.766 575.65 C 519.995 575.748 520.419 575.824 520.779 575.824 C 522.041 575.824 522.999 575.225 522.999 573.277 L 522.999 568.367 L 522.041 568.367 L 522.041 573.201 Z " fill="rgb(125,60,64)"/><path d=" M 575.738 660.992 C 575.738 659.555 576.228 659.174 577.077 659.174 C 577.404 659.174 577.687 659.239 577.882 659.316 L 578.013 658.543 C 577.785 658.445 577.36 658.369 577.001 658.369 C 575.738 658.369 574.78 658.967 574.78 660.916 L 574.78 665.825 L 575.738 665.825 L 575.738 660.992 Z " fill="rgb(125,60,64)"/><path d=" M 521.692 585.325 L 518.903 581.53 L 521.692 577.735 L 524.482 581.53 L 521.692 585.325 Z " fill="rgb(125,60,64)"/><path d=" M 521.684 577.747 L 518.903 581.53 L 521.684 585.313 L 521.684 577.747 Z " fill="rgb(147,67,72)"/><path d=" M 533.348 638.763 C 533.348 638.763 529.623 637.415 526.156 633.651 L 526.156 629.042 L 533.348 629.042 L 533.348 638.763 Z " fill="rgb(166,64,69)"/><path d=" M 536.304 581.937 L 532.446 576.931 C 532.446 576.931 539.972 571.935 541.489 571.849 C 543.007 571.761 560.161 577.067 560.161 577.067 L 556.289 583.257 L 536.304 581.937 Z " fill="rgb(166,64,69)"/><path d=" M 556.289 575.884 C 556.289 575.884 554.163 582.687 553.613 583.14 C 553.063 583.591 550.265 582.304 550.265 582.304 C 550.265 582.304 552.423 580.169 553.487 575.044 L 556.289 575.884 Z " fill="rgb(69,68,116)"/><path d=" M 526.156 626.751 L 526.156 600.882 C 526.156 600.882 529.408 596.735 535.934 596.122 C 535.934 596.122 536.056 622.325 526.156 626.751 Z " fill="rgb(166,64,69)"/><path d=" M 545.248 597.544 L 548.576 597.544 L 548.576 603.653 L 545.248 603.653 L 545.248 597.544 Z " fill="rgb(48,44,50)"/><path d=" M 538.575 595.435 L 541.903 595.435 L 541.903 601.542 L 538.575 601.542 L 538.575 595.435 Z " fill="rgb(48,44,50)"/><path d=" M 548.601 595.116 L 551.929 595.116 L 551.929 601.226 L 548.601 601.226 L 548.601 595.116 Z " fill="rgb(166,64,69)"/><path d=" M 541.92 597.108 L 545.248 597.108 L 545.248 603.218 L 541.92 603.218 L 541.92 597.108 Z " fill="rgb(166,64,69)"/><path d=" M 551.823 593.276 L 555.151 593.276 L 555.151 599.384 L 551.823 599.384 L 551.823 593.276 Z " fill="rgb(48,44,50)"/><path d=" M 555.176 593.153 L 558.505 593.153 L 558.505 596.956 L 555.176 596.956 L 555.176 593.153 Z " fill="rgb(166,64,69)"/><path d=" M 538.604 593.263 L 539.365 595.985 L 536.807 596.122 L 538.604 593.263 Z " fill="rgb(167,111,73)"/><path d=" M 535.043 596.22 C 535.043 596.22 536.208 613.335 526.156 626.751 C 526.168 627.933 526.174 628.532 526.174 628.532 C 526.174 628.532 532.09 625.751 535.456 614.026 C 538.822 602.3 537.297 596.22 537.297 596.22 L 535.043 596.22 Z " fill="rgb(48,44,50)"/><path d=" M 536.58 596.603 C 536.58 596.603 536.889 607.864 534.109 614.612 C 531.329 621.36 529.396 625.962 526.156 628.503 L 526.156 633.651 C 526.156 633.651 535.288 624.821 538.282 614.876 C 541.276 604.929 540.717 596.229 540.717 596.229 L 536.58 596.603 Z " fill="rgb(69,68,116)"/><path d=" M 536.411 596.304 C 536.411 596.726 537.269 597.069 538.325 597.069 C 539.383 597.069 540.239 596.726 540.239 596.304 C 540.239 595.882 539.383 595.54 538.325 595.54 C 537.269 595.54 536.411 595.882 536.411 596.304 Z " fill="rgb(166,64,69)"/><path d=" M 536.553 597.987 C 536.531 598.399 537.352 598.778 538.385 598.833 C 539.419 598.888 540.275 598.597 540.296 598.185 C 540.318 597.771 539.498 597.392 538.464 597.337 C 537.431 597.282 536.574 597.573 536.553 597.987 Z " fill="rgb(166,64,69)"/><path d=" M 536.581 599.923 C 536.538 600.325 537.322 600.741 538.333 600.851 C 539.344 600.96 540.198 600.72 540.242 600.317 C 540.285 599.913 539.501 599.497 538.49 599.388 C 537.48 599.278 536.626 599.519 536.581 599.923 Z " fill="rgb(166,64,69)"/><path d=" M 536.494 602.071 C 536.429 602.466 537.176 602.917 538.164 603.081 C 539.151 603.245 540.005 603.058 540.07 602.663 C 540.135 602.269 539.388 601.815 538.399 601.651 C 537.413 601.489 536.56 601.677 536.494 602.071 Z " fill="rgb(166,64,69)"/><path d=" M 536.283 604.392 C 536.196 604.778 536.908 605.267 537.872 605.485 C 538.836 605.702 539.688 605.567 539.775 605.181 C 539.862 604.796 539.151 604.308 538.188 604.089 C 537.223 603.872 536.37 604.007 536.283 604.392 Z " fill="rgb(166,64,69)"/><path d=" M 535.945 606.847 C 535.836 607.224 536.511 607.749 537.453 608.021 C 538.394 608.294 539.245 608.21 539.354 607.833 C 539.462 607.458 538.787 606.931 537.847 606.659 C 536.905 606.386 536.055 606.472 535.945 606.847 Z " fill="rgb(166,64,69)"/><path d=" M 535.474 609.396 C 535.343 609.763 535.981 610.323 536.899 610.651 C 537.817 610.978 538.667 610.944 538.797 610.579 C 538.928 610.212 538.29 609.649 537.372 609.323 C 536.454 608.995 535.604 609.028 535.474 609.396 Z " fill="rgb(166,64,69)"/><path d=" M 534.863 611.997 C 534.711 612.354 535.313 612.954 536.208 613.335 C 537.102 613.716 537.951 613.735 538.104 613.378 C 538.256 613.021 537.654 612.421 536.759 612.04 C 535.864 611.659 535.015 611.64 534.863 611.997 Z " fill="rgb(166,64,69)"/><path d=" M 534.109 614.612 C 533.936 614.96 534.501 615.597 535.372 616.032 C 536.244 616.468 537.091 616.538 537.266 616.19 C 537.439 615.843 536.874 615.206 536.002 614.771 C 535.131 614.335 534.283 614.265 534.109 614.612 Z " fill="rgb(166,64,69)"/><path d=" M 533.206 617.202 C 533.01 617.54 533.539 618.214 534.388 618.702 C 535.236 619.192 536.082 619.315 536.278 618.976 C 536.475 618.638 535.944 617.966 535.097 617.476 C 534.248 616.985 533.402 616.862 533.206 617.202 Z " fill="rgb(166,64,69)"/><path d=" M 532.148 619.726 C 531.931 620.056 532.423 620.765 533.248 621.308 C 534.074 621.853 534.919 622.026 535.137 621.696 C 535.355 621.366 534.861 620.659 534.036 620.114 C 533.211 619.569 532.366 619.396 532.148 619.726 Z " fill="rgb(166,64,69)"/><path d=" M 530.931 622.142 C 530.691 622.464 531.147 623.208 531.95 623.808 C 532.752 624.407 533.596 624.632 533.836 624.312 C 534.075 623.991 533.618 623.245 532.816 622.647 C 532.015 622.048 531.17 621.821 530.931 622.142 Z " fill="rgb(166,64,69)"/><path d=" M 529.549 624.415 C 529.287 624.726 529.707 625.507 530.485 626.161 C 531.265 626.815 532.107 627.093 532.369 626.78 C 532.63 626.47 532.21 625.688 531.431 625.034 C 530.652 624.38 529.81 624.104 529.549 624.415 Z " fill="rgb(166,64,69)"/><path d=" M 527.995 626.501 C 527.713 626.804 528.096 627.622 528.852 628.329 C 529.606 629.038 530.449 629.366 530.731 629.065 C 531.015 628.763 530.631 627.944 529.876 627.235 C 529.12 626.528 528.278 626.198 527.995 626.501 Z " fill="rgb(166,64,69)"/><path d=" M 526.267 628.362 C 525.962 628.655 526.309 629.511 527.041 630.272 C 527.773 631.034 528.614 631.415 528.919 631.122 C 529.224 630.831 528.877 629.976 528.145 629.212 C 527.412 628.45 526.571 628.069 526.267 628.362 Z " fill="rgb(166,64,69)"/><path d=" M 545.473 611.196 L 550.763 611.196 L 550.763 605.343 L 545.473 605.343 L 545.473 611.196 Z " fill="rgb(73,93,167)"/><path d=" M 550.534 610.948 L 545.473 610.948 L 545.473 616.257 L 550.534 610.948 Z " fill="rgb(183,151,91)"/><path d=" M 550.717 610.497 L 545.383 610.497 L 545.383 606.153 L 550.717 606.153 L 550.717 610.497 Z " fill="rgb(183,151,91)"/><path d=" M 550.717 605.771 L 545.473 605.771 L 545.473 604.353 L 550.717 601.179 L 550.717 605.771 Z " fill="rgb(183,151,91)"/><path d=" M 544.45 616.763 L 544.653 604.446 L 540.313 601.993 C 540.313 601.993 539.459 612.194 538.429 614.026 C 537.397 615.856 544.45 616.763 544.45 616.763 Z " fill="rgb(166,64,69)"/><path d=" M 544.375 616.8 L 545.664 616.161 L 545.664 603.556 L 544.375 603.556 L 544.375 616.8 Z " fill="rgb(218,226,242)"/><path d=" M 543.959 617.282 L 545.248 616.644 L 545.248 604.038 L 543.959 604.038 L 543.959 617.282 Z " fill="rgb(48,44,50)"/><path d=" M 535.525 621.558 C 535.963 620.454 536.704 619.431 537.251 618.378 C 538.142 616.661 538.777 614.843 539.069 612.95 C 539.096 612.95 539.122 612.948 539.148 612.948 C 541.816 612.948 544.098 614.601 545.028 616.935 C 544.831 617.159 544.639 617.39 544.393 617.597 C 543.949 617.97 543.427 618.265 542.965 618.618 C 541.843 619.479 540.985 620.665 539.73 621.339 C 538.784 621.849 537.778 622.2 536.771 622.565 C 536.339 622.724 535.9 622.88 535.451 622.985 C 535.314 622.964 535.18 622.944 535.043 622.925 C 535.209 622.464 535.352 621.993 535.525 621.558 Z " fill="rgb(48,44,50)"/><path d=" M 535.525 621.558 C 535.963 620.454 536.704 619.431 537.251 618.378 C 538.063 616.812 538.663 615.161 538.984 613.448 C 539.039 613.448 539.094 613.444 539.148 613.444 C 541.693 613.444 543.857 615.075 544.653 617.349 C 544.571 617.435 544.486 617.517 544.393 617.597 C 543.949 617.97 543.427 618.265 542.965 618.618 C 541.843 619.479 540.985 620.665 539.73 621.339 C 538.784 621.849 537.778 622.2 536.771 622.565 C 536.339 622.724 535.9 622.88 535.451 622.985 C 535.314 622.964 535.179 622.944 535.043 622.925 C 535.209 622.464 535.352 621.993 535.525 621.558 Z " fill="rgb(183,151,91)"/><path d=" M 537.251 618.378 C 537.607 617.688 537.923 616.983 538.192 616.265 C 538.494 616.169 538.815 616.116 539.148 616.116 C 540.861 616.116 542.252 617.481 542.304 619.181 C 541.476 619.942 540.729 620.802 539.73 621.339 C 539.129 621.663 538.503 621.923 537.868 622.163 C 537.063 621.806 536.438 621.124 536.154 620.282 C 536.518 619.644 536.92 619.015 537.251 618.378 Z " fill="rgb(73,93,167)"/><path d=" M 556.999 606.817 L 551.82 609.806 L 551.558 600.163 L 556.999 597.167 L 556.999 606.817 Z " fill="rgb(166,64,69)"/><path d=" M 550.534 610.356 L 551.823 610.356 L 551.823 600.599 L 550.534 600.599 L 550.534 610.356 Z " fill="rgb(218,226,242)"/><path d=" M 561.927 594.233 C 561.927 594.233 559.698 592.981 557.4 592.661 L 557.123 606.642 C 557.123 606.642 560.649 605.335 562.233 605.394 L 561.927 594.233 Z " fill="rgb(185,200,230)"/><path d=" M 561.927 594.233 L 562.73 594.538 L 562.73 605.298 L 561.927 605.298 L 561.927 594.233 Z " fill="rgb(117,98,98)"/><path d=" M 562.73 594.538 C 562.73 594.538 563.918 595.032 564.433 595.429 L 564.433 605.149 L 562.73 605.149 L 562.73 594.538 Z " fill="rgb(48,44,50)"/><path d=" M 564.433 595.429 C 564.433 595.429 568.157 596.776 571.624 600.54 L 571.624 605.149 L 564.433 605.149 L 564.433 595.429 Z " fill="rgb(166,64,69)"/><path d=" M 551.013 609.921 L 552.303 609.921 L 552.303 600.163 L 551.013 600.163 L 551.013 609.921 Z " fill="rgb(48,44,50)"/><path d=" M 556.598 592.661 L 557.4 592.661 L 557.4 606.376 L 556.598 606.376 L 556.598 592.661 Z " fill="rgb(117,98,98)"/><path d=" M 536.092 623.157 C 536.575 623.157 537.206 623.062 537.997 622.763 C 540.619 621.769 543.825 619.032 547.526 614.632 C 551.984 609.331 556.366 607.226 559.257 606.392 C 562.384 605.489 565.938 605.657 565.96 605.659 L 566.113 604.798 C 566.021 604.78 562.379 604.589 559.072 605.532 C 556.05 606.394 551.477 608.573 546.856 614.067 C 538.542 623.954 535.372 622.155 535.341 622.136 L 534.846 622.858 C 534.909 622.903 535.306 623.157 536.092 623.157 Z " fill="rgb(164,121,83)"/><path d=" M 556.598 596.612 C 556.598 596.612 545.883 603.601 544.871 603.601 C 543.859 603.601 540.823 601.474 540.823 601.474 L 540.823 602.708 C 540.823 602.708 544.484 605.149 544.96 605.149 C 545.437 605.149 556.598 597.917 556.598 597.917 L 556.598 596.612 Z " fill="rgb(218,226,242)"/><path d=" M 555.4 593.263 C 555.4 593.263 546.345 599.919 545.06 599.919 C 543.774 599.919 540.047 596.591 540.047 596.591 L 555.4 593.263 Z " fill="rgb(183,151,91)"/><path d=" M 556.598 595.763 C 556.598 595.763 545.883 602.87 544.871 602.87 C 543.859 602.87 540.823 600.474 540.823 600.474 L 540.823 601.673 C 540.823 601.673 544.484 604.038 544.96 604.038 C 545.437 604.038 556.598 597.028 556.598 597.028 L 556.598 595.763 Z " fill="rgb(183,151,91)"/><path d=" M 541.115 597.083 C 541.115 597.083 541.141 608.39 538.496 615.847 C 535.852 623.306 529.194 633.792 527.237 634.745 L 526.156 633.651 C 526.156 633.651 530.841 629.79 537.544 615.298 C 539.289 608.124 539.349 611.228 540.192 596.612 C 541.035 581.995 541.115 597.083 541.115 597.083 Z " fill="rgb(164,121,83)"/><path d=" M 549.447 595.763 C 549.447 595.763 545.743 598.487 544.956 598.487 C 544.168 598.487 542.489 596.954 542.489 596.954 C 542.489 596.954 547.616 593.536 549.025 594.019 C 550.434 594.501 549.447 595.763 549.447 595.763 Z " fill="rgb(206,214,231)"/><path d=" M 539.133 582.403 C 539.133 582.403 537.385 584.147 537.83 588.677 C 538.277 593.206 538.654 597.743 535.341 596.358 C 532.027 594.974 534.892 591.444 536.891 593.308 C 536.891 593.308 536.88 591.075 536.591 588.136 C 536.301 585.196 536.513 582.382 539.133 582.403 Z " fill="rgb(202,131,78)"/><path d=" M 537.382 583.14 C 537.382 583.14 536.896 585.862 537.382 586.419 C 537.868 586.974 537.416 587.835 537.382 588.499 C 537.347 589.163 536.651 594.757 540.474 596.772 C 544.296 598.788 543.982 596.003 548.674 594.233 C 548.674 594.233 549.402 583.325 546.207 582.423 C 546.207 582.423 539.849 581.874 537.382 583.14 Z " fill="rgb(218,226,242)"/><path d=" M 552.993 583.839 C 552.993 583.839 554.233 584.854 554.233 587.808 C 554.233 590.763 555.765 593.851 557.817 592.747 C 559.869 591.64 557.795 589.544 556.622 590.874 C 556.622 590.874 556.486 589.431 556.486 587.513 C 556.486 585.597 555.414 583.36 552.993 583.839 Z " fill="rgb(163,109,72)"/><path d=" M 551.814 583.151 C 551.814 583.151 553.25 584.327 553.25 587.745 C 553.25 591.163 554.021 594.753 556.395 593.474 C 558.77 592.194 556.369 589.767 555.012 591.308 C 555.012 591.308 554.855 589.636 554.855 587.419 C 554.855 585.2 553.772 582.942 551.814 583.151 Z " fill="rgb(167,111,73)"/><path d=" M 550.265 582.78 C 550.265 582.78 551.626 585.183 551.626 588.86 C 551.626 592.538 552.652 595.245 555.207 593.87 C 557.762 592.493 555.179 589.882 553.72 591.538 C 553.72 591.538 553.551 589.743 553.551 587.356 C 553.551 584.97 552.37 582.556 550.265 582.78 Z " fill="rgb(172,114,74)"/><path d=" M 549.025 582.597 C 549.025 582.597 549.994 584.228 549.994 588.329 C 549.994 592.431 550.809 596.308 553.658 594.772 C 556.507 593.239 553.626 590.329 551.999 592.175 C 551.999 592.175 551.811 590.171 551.811 587.511 C 551.811 584.851 551.373 582.347 549.025 582.597 Z " fill="rgb(177,117,75)"/><path d=" M 547.383 582.417 C 547.383 582.417 549.22 583.921 549.22 588.296 C 549.22 592.673 549.286 597.048 552.326 595.411 C 555.366 593.774 552.293 590.667 550.557 592.64 C 550.557 592.64 550.355 590.501 550.355 587.661 C 550.355 584.823 549.888 582.151 547.383 582.417 Z " fill="rgb(182,120,76)"/><path d=" M 546.207 582.423 C 546.207 582.423 548.117 583.985 548.117 588.538 C 548.117 593.089 548.187 597.642 551.349 595.938 C 554.511 594.235 551.314 591.005 549.508 593.056 C 549.508 593.056 549.299 590.831 549.299 587.878 C 549.299 584.925 548.813 582.146 546.207 582.423 Z " fill="rgb(202,131,78)"/><path d=" M 555.84 585.056 C 555.84 585.056 548.664 581.097 536.994 583.618 L 536.304 581.937 C 536.304 581.937 545.349 578.392 556.289 583.257 L 555.84 585.056 Z " fill="rgb(68,66,71)"/><path d=" M 540.295 586.053 C 540.295 586.053 540.105 586.015 539.818 585.992 C 539.676 585.978 539.509 585.972 539.331 585.97 C 539.153 585.957 538.967 585.983 538.781 585.996 C 538.597 586.015 538.426 586.085 538.26 586.11 C 538.106 586.165 537.959 586.203 537.823 586.234 C 537.604 586.359 537.396 586.431 537.396 586.431 L 537.368 586.407 C 537.368 586.407 537.457 586.231 537.686 585.992 C 537.819 585.919 537.981 585.821 538.169 585.757 C 538.36 585.736 538.566 585.703 538.767 585.717 C 539.575 585.725 540.305 586.02 540.305 586.02 L 540.295 586.053 Z " fill="rgb(202,131,78)"/><path d=" M 543.491 586.02 C 543.491 586.02 544.222 585.725 545.029 585.717 C 545.23 585.703 545.436 585.736 545.628 585.757 C 545.814 585.821 545.977 585.919 546.111 585.992 C 546.34 586.231 546.429 586.407 546.429 586.407 L 546.401 586.431 C 546.401 586.431 546.193 586.359 545.974 586.234 C 545.838 586.203 545.69 586.165 545.537 586.11 C 545.371 586.085 545.2 586.015 545.015 585.996 C 544.829 585.983 544.643 585.957 544.465 585.97 C 544.287 585.972 544.12 585.978 543.978 585.992 C 543.691 586.015 543.501 586.053 543.501 586.053 L 543.491 586.02 Z " fill="rgb(202,131,78)"/><path d=" M 542.501 587.344 C 542.501 587.344 542.69 587.506 543.023 587.655 C 543.103 587.698 543.201 587.719 543.298 587.755 C 543.396 587.786 543.495 587.831 543.608 587.843 C 543.83 587.885 544.063 587.929 544.302 587.907 C 544.539 587.918 544.771 587.868 544.986 587.818 C 545.206 587.793 545.413 587.773 545.585 587.714 C 545.936 587.634 546.199 587.618 546.199 587.618 L 546.215 587.649 C 546.215 587.649 546.015 587.804 545.67 587.979 C 545.501 588.076 545.288 588.149 545.045 588.179 C 544.805 588.221 544.547 588.23 544.289 588.187 C 544.03 588.182 543.782 588.108 543.553 588.038 C 543.324 587.972 543.129 587.854 542.965 587.763 C 542.644 587.56 542.478 587.369 542.478 587.369 L 542.501 587.344 Z " fill="rgb(69,71,97)"/><path d=" M 540.207 587.369 C 540.207 587.37 540.088 587.508 539.859 587.66 C 539.747 587.737 539.605 587.815 539.444 587.882 C 539.279 587.933 539.105 588.011 538.916 588.022 C 538.73 588.061 538.539 588.083 538.362 588.053 C 538.185 588.032 538.024 587.988 537.901 587.913 C 537.65 587.777 537.515 587.649 537.515 587.649 L 537.528 587.618 C 537.528 587.618 537.729 587.606 537.98 587.646 C 538.104 587.683 538.253 587.673 538.405 587.69 C 538.558 587.729 538.722 587.747 538.89 587.743 C 539.06 587.76 539.223 587.712 539.382 587.688 C 539.534 587.647 539.681 587.604 539.8 587.553 C 540.043 587.453 540.184 587.344 540.184 587.344 L 540.207 587.369 Z " fill="rgb(69,71,97)"/><path d=" M 540.873 586.798 C 540.873 586.798 540.944 587.31 540.93 588.084 C 540.923 588.472 540.888 588.924 540.795 589.405 C 540.748 589.645 540.663 589.887 540.595 590.137 C 540.486 590.366 540.376 590.601 540.266 590.834 C 540.155 591.072 540.186 591.217 540.33 591.374 C 540.477 591.51 540.685 591.598 540.896 591.645 C 541.107 591.692 541.322 591.705 541.524 591.69 C 541.725 591.679 541.919 591.642 542.072 591.564 C 542.23 591.497 542.373 591.412 542.459 591.302 C 542.568 591.204 542.605 591.082 542.664 590.99 C 542.728 590.788 542.749 590.657 542.749 590.657 L 542.784 590.657 C 542.784 590.657 542.796 590.785 542.78 591.021 C 542.748 591.135 542.728 591.289 542.618 591.424 C 542.532 591.571 542.382 591.715 542.198 591.812 C 542.018 591.924 541.796 591.988 541.562 592.025 C 541.325 592.069 541.071 592.047 540.813 592.001 C 540.56 591.932 540.292 591.822 540.085 591.594 C 540.04 591.529 539.994 591.463 539.955 591.396 L 539.898 591.156 C 539.904 590.986 539.945 590.809 540.012 590.716 C 540.132 590.492 540.253 590.268 540.371 590.047 C 540.446 589.813 540.539 589.589 540.597 589.359 C 540.707 588.899 540.774 588.459 540.808 588.078 C 540.874 587.314 540.838 586.802 540.838 586.802 L 540.873 586.798 Z " fill="rgb(69,71,97)"/><path d=" M 543.774 593.28 C 543.774 593.28 542.731 593.357 541.689 593.403 C 541.168 593.448 540.647 593.462 540.256 593.401 C 539.865 593.356 539.605 593.28 539.605 593.28 L 539.605 593.245 C 539.605 593.245 539.865 593.169 540.256 593.124 C 540.647 593.063 541.168 593.077 541.689 593.122 C 542.731 593.168 543.774 593.245 543.774 593.245 L 543.774 593.28 Z " fill="rgb(69,71,97)"/><path d=" M 542.211 594.251 C 542.211 594.251 541.837 594.328 541.464 594.374 C 541.277 594.419 541.091 594.433 540.95 594.372 C 540.811 594.327 540.717 594.251 540.717 594.251 L 540.717 594.216 C 540.717 594.216 540.811 594.14 540.95 594.095 C 541.091 594.034 541.277 594.048 541.464 594.093 C 541.837 594.139 542.211 594.216 542.211 594.216 L 542.211 594.251 Z " fill="rgb(69,71,97)"/><path d=" M 561.477 652.257 L 565.334 657.263 C 565.334 657.263 557.809 662.257 556.291 662.345 C 554.773 662.433 537.619 657.124 537.619 657.124 L 541.492 650.935 L 561.477 652.257 Z " fill="rgb(166,64,69)"/><path d=" M 541.492 658.308 C 541.492 658.308 543.617 651.505 544.167 651.052 C 544.718 650.601 547.516 651.888 547.516 651.888 C 547.516 651.888 545.358 654.024 544.293 659.147 L 541.492 658.308 Z " fill="rgb(69,68,116)"/><path d=" M 571.624 607.442 L 571.624 633.312 C 571.624 633.312 568.372 637.456 561.847 638.069 C 561.847 638.069 561.726 611.866 571.624 607.442 Z " fill="rgb(166,64,69)"/><path d=" M 552.532 636.647 L 549.205 636.647 L 549.205 630.54 L 552.532 630.54 L 552.532 636.647 Z " fill="rgb(48,44,50)"/><path d=" M 559.205 638.759 L 555.877 638.759 L 555.877 632.649 L 559.205 632.649 L 559.205 638.759 Z " fill="rgb(48,44,50)"/><path d=" M 549.18 639.075 L 545.852 639.075 L 545.852 632.966 L 549.18 632.966 L 549.18 639.075 Z " fill="rgb(166,64,69)"/><path d=" M 555.861 637.083 L 552.532 637.083 L 552.532 630.974 L 555.861 630.974 L 555.861 637.083 Z " fill="rgb(166,64,69)"/><path d=" M 545.957 640.917 L 542.629 640.917 L 542.629 634.808 L 545.957 634.808 L 545.957 640.917 Z " fill="rgb(48,44,50)"/><path d=" M 542.605 641.038 L 539.275 641.038 L 539.275 637.235 L 542.605 637.235 L 542.605 641.038 Z " fill="rgb(166,64,69)"/><path d=" M 559.177 640.929 L 558.415 638.208 L 560.974 638.069 L 559.177 640.929 Z " fill="rgb(167,111,73)"/><path d=" M 562.737 637.972 C 562.737 637.972 561.572 620.856 571.624 607.442 C 571.612 606.259 571.606 605.659 571.606 605.659 C 571.606 605.659 565.689 608.44 562.323 620.167 C 558.958 631.892 560.483 637.972 560.483 637.972 L 562.737 637.972 Z " fill="rgb(48,44,50)"/><path d=" M 561.2 637.589 C 561.2 637.589 560.892 626.327 563.671 619.579 C 566.45 612.831 568.385 608.229 571.624 605.688 L 571.624 600.54 C 571.624 600.54 566.627 601.556 559.499 619.315 C 556.504 629.263 557.063 637.962 557.063 637.962 L 561.2 637.589 Z " fill="rgb(69,68,116)"/><path d=" M 561.369 637.888 C 561.369 637.466 560.512 637.122 559.455 637.122 C 558.397 637.122 557.541 637.466 557.541 637.888 C 557.541 638.31 558.397 638.653 559.455 638.653 C 560.512 638.653 561.369 638.31 561.369 637.888 Z " fill="rgb(166,64,69)"/><path d=" M 561.228 636.204 C 561.249 635.792 560.43 635.413 559.396 635.358 C 558.361 635.304 557.506 635.595 557.483 636.007 C 557.462 636.421 558.282 636.8 559.316 636.854 C 560.35 636.909 561.206 636.618 561.228 636.204 Z " fill="rgb(166,64,69)"/><path d=" M 561.199 634.271 C 561.242 633.866 560.457 633.45 559.447 633.341 C 558.437 633.231 557.582 633.472 557.538 633.876 C 557.495 634.278 558.279 634.694 559.29 634.804 C 560.3 634.913 561.154 634.673 561.199 634.271 Z " fill="rgb(166,64,69)"/><path d=" M 561.287 632.122 C 561.352 631.726 560.605 631.274 559.616 631.11 C 558.629 630.946 557.775 631.136 557.71 631.53 C 557.646 631.925 558.393 632.376 559.38 632.54 C 560.368 632.704 561.222 632.517 561.287 632.122 Z " fill="rgb(166,64,69)"/><path d=" M 561.496 629.8 C 561.584 629.413 560.873 628.925 559.908 628.708 C 558.944 628.489 558.092 628.626 558.005 629.011 C 557.918 629.396 558.629 629.886 559.593 630.103 C 560.558 630.321 561.41 630.185 561.496 629.8 Z " fill="rgb(166,64,69)"/><path d=" M 561.835 627.345 C 561.944 626.968 561.27 626.442 560.328 626.171 C 559.387 625.899 558.535 625.983 558.427 626.358 C 558.318 626.735 558.993 627.261 559.934 627.532 C 560.875 627.806 561.727 627.722 561.835 627.345 Z " fill="rgb(166,64,69)"/><path d=" M 562.307 624.796 C 562.438 624.429 561.799 623.868 560.881 623.54 C 559.963 623.214 559.113 623.247 558.983 623.612 C 558.853 623.979 559.49 624.542 560.408 624.87 C 561.326 625.196 562.177 625.163 562.307 624.796 Z " fill="rgb(166,64,69)"/><path d=" M 562.917 622.194 C 563.069 621.837 562.468 621.239 561.572 620.856 C 560.679 620.476 559.829 620.458 559.677 620.813 C 559.524 621.173 560.127 621.771 561.021 622.151 C 561.916 622.532 562.766 622.552 562.917 622.194 Z " fill="rgb(166,64,69)"/><path d=" M 563.671 619.579 C 563.846 619.231 563.28 618.595 562.408 618.161 C 561.536 617.724 560.689 617.653 560.515 618.003 C 560.341 618.351 560.906 618.985 561.778 619.421 C 562.649 619.856 563.497 619.927 563.671 619.579 Z " fill="rgb(166,64,69)"/><path d=" M 564.574 616.989 C 564.771 616.651 564.241 615.979 563.393 615.489 C 562.544 614.999 561.698 614.876 561.502 615.216 C 561.307 615.554 561.836 616.226 562.684 616.716 C 563.532 617.206 564.379 617.329 564.574 616.989 Z " fill="rgb(166,64,69)"/><path d=" M 565.633 614.466 C 565.85 614.136 565.357 613.429 564.531 612.884 C 563.707 612.339 562.861 612.165 562.645 612.495 C 562.426 612.825 562.919 613.532 563.744 614.077 C 564.569 614.622 565.414 614.796 565.633 614.466 Z " fill="rgb(166,64,69)"/><path d=" M 566.85 612.05 C 567.089 611.728 566.633 610.983 565.83 610.384 C 565.028 609.784 564.185 609.56 563.945 609.88 C 563.705 610.2 564.162 610.946 564.964 611.546 C 565.766 612.144 566.61 612.37 566.85 612.05 Z " fill="rgb(166,64,69)"/><path d=" M 568.232 609.776 C 568.493 609.466 568.073 608.685 567.295 608.03 C 566.516 607.378 565.673 607.101 565.412 607.411 C 565.15 607.722 565.57 608.505 566.35 609.157 C 567.128 609.812 567.971 610.089 568.232 609.776 Z " fill="rgb(166,64,69)"/><path d=" M 569.785 607.69 C 570.068 607.388 569.685 606.569 568.929 605.862 C 568.174 605.155 567.332 604.825 567.049 605.128 C 566.766 605.429 567.149 606.247 567.904 606.956 C 568.66 607.663 569.502 607.993 569.785 607.69 Z " fill="rgb(166,64,69)"/><path d=" M 571.514 605.829 C 571.818 605.536 571.472 604.681 570.739 603.919 C 570.007 603.157 569.166 602.776 568.861 603.069 C 568.557 603.362 568.904 604.218 569.636 604.979 C 570.368 605.741 571.209 606.122 571.514 605.829 Z " fill="rgb(166,64,69)"/><path d=" M 552.308 622.997 L 547.018 622.997 L 547.018 628.849 L 552.308 628.849 L 552.308 622.997 Z " fill="rgb(73,93,167)"/><path d=" M 547.246 623.243 L 552.308 623.243 L 552.308 617.935 L 547.246 623.243 Z " fill="rgb(183,151,91)"/><path d=" M 547.063 623.694 L 552.398 623.694 L 552.398 628.038 L 547.063 628.038 L 547.063 623.694 Z " fill="rgb(183,151,91)"/><path d=" M 547.063 628.421 L 552.308 628.421 L 552.308 629.839 L 547.063 633.013 L 547.063 628.421 Z " fill="rgb(183,151,91)"/><path d=" M 553.33 617.429 L 553.127 629.745 L 557.468 632.198 C 557.468 632.198 558.32 621.997 559.352 620.167 C 560.383 618.335 553.33 617.429 553.33 617.429 Z " fill="rgb(166,64,69)"/><path d=" M 553.406 617.392 L 552.116 618.03 L 552.116 630.636 L 553.406 630.636 L 553.406 617.392 Z " fill="rgb(218,226,242)"/><path d=" M 553.822 616.909 L 552.532 617.548 L 552.532 630.153 L 553.822 630.153 L 553.822 616.909 Z " fill="rgb(48,44,50)"/><path d=" M 562.255 612.636 C 561.817 613.737 561.076 614.761 560.529 615.815 C 559.639 617.532 559.003 619.351 558.711 621.241 C 558.685 621.241 558.659 621.243 558.632 621.243 C 555.964 621.243 553.684 619.593 552.752 617.257 C 552.949 617.032 553.143 616.802 553.389 616.595 C 553.831 616.222 554.354 615.927 554.815 615.573 C 555.938 614.714 556.795 613.528 558.05 612.853 C 558.996 612.345 560.002 611.991 561.01 611.626 C 561.441 611.468 561.88 611.312 562.329 611.206 C 562.466 611.228 562.602 611.247 562.737 611.267 C 562.572 611.728 562.429 612.198 562.255 612.636 Z " fill="rgb(48,44,50)"/><path d=" M 562.255 612.636 C 561.817 613.737 561.076 614.761 560.529 615.815 C 559.717 617.38 559.117 619.03 558.797 620.743 C 558.742 620.745 558.687 620.747 558.632 620.747 C 556.086 620.747 553.924 619.116 553.127 616.843 C 553.209 616.757 553.294 616.675 553.389 616.595 C 553.831 616.222 554.354 615.927 554.815 615.573 C 555.938 614.714 556.795 613.528 558.05 612.853 C 558.996 612.345 560.002 611.991 561.01 611.626 C 561.441 611.468 561.88 611.312 562.329 611.206 C 562.466 611.228 562.602 611.247 562.737 611.267 C 562.572 611.728 562.429 612.198 562.255 612.636 Z " fill="rgb(183,151,91)"/><path d=" M 560.529 615.815 C 560.172 616.503 559.857 617.208 559.588 617.927 C 559.286 618.022 558.965 618.075 558.632 618.075 C 556.919 618.075 555.528 616.71 555.478 615.011 C 556.305 614.249 557.052 613.39 558.05 612.853 C 558.652 612.528 559.278 612.269 559.913 612.028 C 560.717 612.386 561.343 613.067 561.626 613.909 C 561.262 614.55 560.861 615.177 560.529 615.815 Z " fill="rgb(73,93,167)"/><path d=" M 540.781 627.374 L 545.96 624.386 L 546.223 634.028 L 540.781 637.024 L 540.781 627.374 Z " fill="rgb(166,64,69)"/><path d=" M 547.246 623.835 L 545.957 623.835 L 545.957 633.593 L 547.246 633.593 L 547.246 623.835 Z " fill="rgb(218,226,242)"/><path d=" M 535.854 639.958 C 535.854 639.958 538.082 641.21 540.38 641.53 L 540.658 627.55 C 540.658 627.55 537.132 628.858 535.547 628.798 L 535.854 639.958 Z " fill="rgb(185,200,230)"/><path d=" M 535.854 639.958 L 535.051 639.653 L 535.051 628.894 L 535.854 628.894 L 535.854 639.958 Z " fill="rgb(117,98,98)"/><path d=" M 535.051 639.653 C 535.051 639.653 533.862 639.159 533.348 638.763 L 533.348 629.042 L 535.051 629.042 L 535.051 639.653 Z " fill="rgb(48,44,50)"/><path d=" M 546.767 624.271 L 545.479 624.271 L 545.479 634.028 L 546.767 634.028 L 546.767 624.271 Z " fill="rgb(48,44,50)"/><path d=" M 541.183 641.53 L 540.38 641.53 L 540.38 627.817 L 541.183 627.817 L 541.183 641.53 Z " fill="rgb(117,98,98)"/><path d=" M 561.688 611.034 C 561.205 611.034 560.574 611.13 559.783 611.431 C 557.16 612.423 553.955 615.159 550.253 619.56 C 545.796 624.86 541.414 626.968 538.523 627.802 C 535.396 628.704 531.997 628.286 531.976 628.282 L 531.822 629.146 C 531.914 629.163 535.401 629.603 538.709 628.659 C 541.73 627.798 546.304 625.618 550.924 620.124 C 559.238 610.237 562.408 612.038 562.439 612.056 L 562.935 611.333 C 562.871 611.288 562.475 611.034 561.688 611.034 Z " fill="rgb(164,121,83)"/><path d=" M 541.183 637.579 C 541.183 637.579 551.897 630.591 552.909 630.591 C 553.921 630.591 556.957 632.718 556.957 632.718 L 556.957 631.481 C 556.957 631.481 553.296 629.042 552.82 629.042 C 552.344 629.042 541.183 636.274 541.183 636.274 L 541.183 637.579 Z " fill="rgb(218,226,242)"/><path d=" M 542.381 640.929 C 542.381 640.929 551.436 634.272 552.721 634.272 C 554.006 634.272 557.733 637.601 557.733 637.601 L 542.381 640.929 Z " fill="rgb(183,151,91)"/><path d=" M 541.183 638.429 C 541.183 638.429 551.897 631.321 552.909 631.321 C 553.921 631.321 556.957 633.718 556.957 633.718 L 556.957 632.519 C 556.957 632.519 553.296 630.153 552.82 630.153 C 552.344 630.153 541.183 637.163 541.183 637.163 L 541.183 638.429 Z " fill="rgb(183,151,91)"/><path d=" M 556.665 637.108 C 556.665 637.108 556.64 625.802 559.284 618.345 C 561.93 610.888 567.977 600.513 570.69 599.587 L 571.624 600.54 C 569.28 601.726 561.66 613.257 560.236 618.894 C 558.491 626.067 558.432 622.964 557.589 637.579 C 556.745 652.196 556.665 637.108 556.665 637.108 Z " fill="rgb(164,121,83)"/><path d=" M 548.333 638.429 C 548.333 638.429 552.037 635.704 552.825 635.704 C 553.612 635.704 555.292 637.237 555.292 637.237 C 555.292 637.237 550.164 640.655 548.756 640.173 C 547.347 639.69 548.333 638.429 548.333 638.429 Z " fill="rgb(206,214,231)"/><path d=" M 558.647 651.788 C 558.647 651.788 560.396 650.044 559.95 645.515 C 559.503 640.985 559.126 636.448 562.44 637.833 C 565.754 639.218 562.889 642.747 560.891 640.884 C 560.891 640.884 560.9 643.116 561.189 646.056 C 561.48 648.995 561.268 651.81 558.647 651.788 Z " fill="rgb(202,131,78)"/><path d=" M 560.399 651.052 C 560.399 651.052 560.886 648.329 560.399 647.774 C 559.913 647.218 560.364 646.356 560.399 645.692 C 560.434 645.028 561.129 639.435 557.307 637.419 C 553.484 635.403 553.798 638.188 549.106 639.958 C 549.106 639.958 548.377 650.866 551.573 651.769 C 551.573 651.769 557.933 652.317 560.399 651.052 Z " fill="rgb(218,226,242)"/><path d=" M 544.788 650.353 C 544.788 650.353 543.548 649.339 543.548 646.384 C 543.548 643.429 542.016 640.341 539.963 641.446 C 537.911 642.552 539.986 644.649 541.158 643.317 C 541.158 643.317 541.295 644.761 541.295 646.679 C 541.295 648.595 542.366 650.831 544.788 650.353 Z " fill="rgb(163,109,72)"/><path d=" M 545.966 651.04 C 545.966 651.04 544.53 649.864 544.53 646.446 C 544.53 643.028 543.76 639.44 541.385 640.718 C 539.011 641.997 541.411 644.425 542.769 642.884 C 542.769 642.884 542.925 644.554 542.925 646.772 C 542.925 648.991 544.008 651.249 545.966 651.04 Z " fill="rgb(167,111,73)"/><path d=" M 547.516 651.411 C 547.516 651.411 546.154 649.009 546.154 645.331 C 546.154 641.653 545.128 638.946 542.573 640.323 C 540.019 641.698 542.602 644.31 544.061 642.653 C 544.061 642.653 544.23 644.448 544.23 646.835 C 544.23 649.222 545.41 651.636 547.516 651.411 Z " fill="rgb(172,114,74)"/><path d=" M 548.756 651.597 C 548.756 651.597 547.786 649.964 547.786 645.862 C 547.786 641.761 546.972 637.884 544.122 639.419 C 541.273 640.952 544.153 643.864 545.781 642.017 C 545.781 642.017 545.97 644.021 545.97 646.681 C 545.97 649.341 546.408 651.847 548.756 651.597 Z " fill="rgb(177,117,75)"/><path d=" M 550.397 651.774 C 550.397 651.774 548.561 650.271 548.561 645.896 C 548.561 641.519 548.494 637.144 545.454 638.78 C 542.414 640.417 545.487 643.524 547.225 641.552 C 547.225 641.552 547.425 643.69 547.425 646.53 C 547.425 649.368 547.893 652.042 550.397 651.774 Z " fill="rgb(182,120,76)"/><path d=" M 551.573 651.769 C 551.573 651.769 549.663 650.206 549.663 645.653 C 549.663 641.103 549.593 636.55 546.432 638.253 C 543.27 639.956 546.466 643.187 548.272 641.138 C 548.272 641.138 548.481 643.36 548.481 646.313 C 548.481 649.269 548.968 652.048 551.573 651.769 Z " fill="rgb(202,131,78)"/><path d=" M 541.94 649.136 C 541.94 649.136 549.116 653.095 560.786 650.573 L 561.477 652.257 C 561.477 652.257 552.432 655.8 541.492 650.935 L 541.94 649.136 Z " fill="rgb(68,66,71)"/><path d=" M 557.485 648.139 C 557.485 648.139 557.676 648.177 557.962 648.199 C 558.105 648.214 558.271 648.22 558.449 648.222 C 558.627 648.235 558.813 648.208 558.999 648.195 C 559.185 648.178 559.355 648.107 559.521 648.082 C 559.674 648.027 559.822 647.989 559.958 647.958 C 560.178 647.834 560.386 647.763 560.386 647.763 L 560.413 647.786 C 560.413 647.786 560.324 647.962 560.095 648.2 C 559.961 648.273 559.799 648.372 559.611 648.436 C 559.42 648.456 559.214 648.488 559.014 648.476 C 558.205 648.467 557.476 648.172 557.476 648.172 L 557.485 648.139 Z " fill="rgb(202,131,78)"/><path d=" M 554.289 648.172 C 554.289 648.172 553.56 648.467 552.751 648.476 C 552.551 648.488 552.345 648.456 552.153 648.436 C 551.966 648.372 551.804 648.273 551.67 648.2 C 551.44 647.962 551.352 647.786 551.352 647.786 L 551.379 647.763 C 551.379 647.763 551.587 647.834 551.808 647.958 C 551.942 647.989 552.091 648.027 552.243 648.082 C 552.41 648.107 552.58 648.178 552.766 648.195 C 552.951 648.208 553.138 648.235 553.315 648.222 C 553.493 648.22 553.66 648.214 553.803 648.199 C 554.089 648.177 554.279 648.139 554.279 648.139 L 554.289 648.172 Z " fill="rgb(202,131,78)"/><path d=" M 555.28 646.848 C 555.28 646.848 555.091 646.687 554.758 646.537 C 554.678 646.494 554.579 646.473 554.482 646.437 C 554.384 646.406 554.285 646.36 554.172 646.35 C 553.951 646.308 553.718 646.264 553.479 646.285 C 553.241 646.274 553.01 646.323 552.794 646.374 C 552.575 646.398 552.367 646.419 552.195 646.478 C 551.845 646.558 551.581 646.573 551.581 646.573 L 551.565 646.542 C 551.565 646.542 551.766 646.388 552.11 646.213 C 552.279 646.116 552.492 646.043 552.735 646.014 C 552.976 645.971 553.233 645.962 553.491 646.005 C 553.751 646.011 553.998 646.084 554.228 646.154 C 554.457 646.22 554.652 646.339 554.815 646.429 C 555.138 646.632 555.304 646.822 555.304 646.822 L 555.28 646.848 Z " fill="rgb(69,71,97)"/><path d=" M 557.573 646.822 C 557.573 646.821 557.692 646.684 557.921 646.531 C 558.033 646.454 558.176 646.376 558.336 646.31 C 558.501 646.259 558.676 646.181 558.864 646.169 C 559.051 646.131 559.241 646.108 559.418 646.139 C 559.596 646.159 559.756 646.204 559.879 646.278 C 560.13 646.414 560.266 646.542 560.267 646.542 L 560.251 646.573 C 560.252 646.573 560.052 646.585 559.801 646.546 C 559.677 646.509 559.527 646.519 559.375 646.501 C 559.223 646.462 559.06 646.444 558.891 646.448 C 558.721 646.432 558.558 646.479 558.398 646.503 C 558.246 646.544 558.1 646.588 557.98 646.639 C 557.737 646.738 557.597 646.848 557.597 646.848 L 557.573 646.822 Z " fill="rgb(69,71,97)"/><path d=" M 556.907 647.394 C 556.907 647.394 556.836 646.882 556.851 646.107 C 556.857 645.72 556.893 645.268 556.985 644.787 C 557.032 644.547 557.117 644.306 557.185 644.056 C 557.294 643.825 557.404 643.592 557.515 643.357 C 557.625 643.119 557.595 642.976 557.45 642.818 C 557.304 642.683 557.096 642.595 556.885 642.547 C 556.673 642.5 556.458 642.487 556.256 642.501 C 556.056 642.514 555.861 642.55 555.708 642.628 C 555.551 642.694 555.407 642.779 555.321 642.89 C 555.212 642.987 555.175 643.11 555.116 643.201 C 555.053 643.403 555.031 643.534 555.031 643.534 L 554.996 643.534 C 554.996 643.534 554.984 643.406 555 643.17 C 555.032 643.057 555.053 642.903 555.162 642.768 C 555.248 642.62 555.398 642.478 555.582 642.38 C 555.763 642.268 555.984 642.204 556.22 642.167 C 556.455 642.123 556.709 642.146 556.967 642.191 C 557.221 642.26 557.488 642.37 557.695 642.598 C 557.74 642.663 557.786 642.729 557.825 642.797 L 557.882 643.036 C 557.876 643.206 557.835 643.384 557.769 643.476 C 557.648 643.7 557.527 643.924 557.409 644.145 C 557.334 644.378 557.241 644.604 557.184 644.832 C 557.073 645.292 557.006 645.732 556.973 646.114 C 556.906 646.877 556.942 647.39 556.942 647.39 L 556.907 647.394 Z " fill="rgb(69,71,97)"/><path d=" M 554.006 640.911 C 554.006 640.911 555.048 640.834 556.091 640.788 C 556.612 640.743 557.134 640.729 557.524 640.79 C 557.915 640.835 558.176 640.911 558.176 640.911 L 558.176 640.946 C 558.176 640.946 557.915 641.022 557.524 641.067 C 557.134 641.128 556.612 641.114 556.091 641.069 C 555.048 641.023 554.006 640.946 554.006 640.946 L 554.006 640.911 Z " fill="rgb(69,71,97)"/><path d=" M 555.569 639.94 C 555.569 639.94 555.942 639.863 556.316 639.817 C 556.503 639.772 556.69 639.759 556.83 639.819 C 556.97 639.864 557.063 639.94 557.063 639.94 L 557.063 639.976 C 557.063 639.976 556.97 640.052 556.83 640.097 C 556.69 640.157 556.503 640.144 556.316 640.099 C 555.942 640.053 555.569 639.976 555.569 639.976 L 555.569 639.94 Z " fill="rgb(69,71,97)"/></g></svg>