<?xml version="1.0" encoding="UTF-8" standalone="no"?><!-- Generator: Gravit.io --><svg xmlns="http://www.w3.org/2000/svg" xmlns:xlink="http://www.w3.org/1999/xlink" style="isolation:isolate" viewBox="157.434 450.108 69.124 103.686" width="69.124pt" height="103.686pt"><g><path d=" M 226.558 551.071 C 226.558 552.575 225.339 553.794 223.836 553.794 L 160.156 553.794 C 158.653 553.794 157.434 552.575 157.434 551.071 L 157.434 452.831 C 157.434 451.327 158.653 450.108 160.156 450.108 L 223.836 450.108 C 225.339 450.108 226.558 451.327 226.558 452.831 L 226.558 551.071 Z " fill="rgb(234,232,232)"/><path d=" M 219.105 533.741 L 221.895 537.536 L 219.105 541.331 L 216.315 537.536 L 219.105 533.741 Z " fill="rgb(125,60,64)"/><path d=" M 219.114 541.319 L 221.895 537.536 L 219.114 533.753 L 219.114 541.319 Z " fill="rgb(147,67,72)"/><path d=" M 168.245 460.843 C 167.624 460.734 166.83 460.56 166.1 460.375 L 166.1 460.331 C 167.319 459.896 168.19 458.698 168.19 456.804 C 168.19 454.638 166.895 453.092 164.892 453.092 C 162.911 453.092 161.485 454.605 161.485 456.956 C 161.485 459.33 162.965 460.614 164.718 460.679 C 164.859 460.679 165.001 460.734 165.164 460.788 C 166.013 461.082 166.982 461.376 167.973 461.637 L 168.245 460.843 Z  M 164.838 459.906 C 163.335 459.906 162.486 458.502 162.486 456.935 C 162.486 455.345 163.27 453.865 164.87 453.865 C 166.427 453.865 167.189 455.378 167.189 456.858 C 167.189 458.524 166.34 459.906 164.838 459.906 Z " fill="rgb(125,60,64)"/><path d=" M 215.746 543.061 C 216.366 543.169 217.161 543.344 217.89 543.529 L 217.89 543.572 C 216.671 544.008 215.8 545.205 215.8 547.099 C 215.8 549.265 217.096 550.811 219.099 550.811 C 221.08 550.811 222.506 549.298 222.506 546.947 C 222.506 544.574 221.026 543.289 219.273 543.224 C 219.131 543.224 218.99 543.169 218.827 543.115 C 217.978 542.821 217.009 542.527 216.018 542.266 L 215.746 543.061 Z  M 219.153 543.997 C 220.655 543.997 221.505 545.401 221.505 546.968 C 221.505 548.558 220.721 550.038 219.121 550.038 C 217.564 550.038 216.802 548.525 216.802 547.045 C 216.802 545.379 217.651 543.997 219.153 543.997 Z " fill="rgb(125,60,64)"/><path d=" M 164.799 470.181 L 162.009 466.386 L 164.799 462.591 L 167.588 466.386 L 164.799 470.181 Z " fill="rgb(125,60,64)"/><path d=" M 164.79 462.603 L 162.009 466.386 L 164.79 470.169 L 164.79 462.603 Z " fill="rgb(147,67,72)"/><path d=" M 192.575 495.964 L 196.638 495.964 L 196.638 494.587 L 192.575 494.587 L 192.575 495.964 Z " fill="rgb(69,68,116)"/><path d=" M 192.222 494.587 L 196.284 494.587 L 196.284 493.212 L 192.222 493.212 L 192.222 494.587 Z " fill="rgb(166,64,69)"/><path d=" M 191.621 493.212 L 195.684 493.212 L 195.684 491.837 L 191.621 491.837 L 191.621 493.212 Z " fill="rgb(69,68,116)"/><path d=" M 191.267 491.837 L 195.33 491.837 L 195.33 490.462 L 191.267 490.462 L 191.267 491.837 Z " fill="rgb(166,64,69)"/><path d=" M 190.667 490.462 L 194.73 490.462 L 194.73 489.085 L 190.667 489.085 L 190.667 490.462 Z " fill="rgb(69,68,116)"/><path d=" M 190.313 489.085 L 194.377 489.085 L 194.377 487.71 L 190.313 487.71 L 190.313 489.085 Z " fill="rgb(166,64,69)"/><path d=" M 189.714 487.71 L 193.776 487.71 L 193.776 486.335 L 189.714 486.335 L 189.714 487.71 Z " fill="rgb(69,68,116)"/><path d=" M 192.222 496.02 L 189.248 488.317 L 181.539 487.774 L 185.953 496.599 L 192.222 496.02 Z " fill="rgb(166,64,69)"/><path d=" M 201.813 495.528 L 202.892 487.009 L 195.038 487.366 L 194.91 490.505 L 197.613 496.093 L 201.813 495.528 Z " fill="rgb(166,64,69)"/><path d=" M 192.863 486.847 L 196.35 495.868 L 198.909 495.528 C 198.909 495.528 195.326 490.813 195.886 489.022 C 196.445 487.231 200.588 488.317 200.588 488.317 L 202.363 485.142 L 192.863 486.847 Z " fill="rgb(48,44,50)"/><path d=" M 193.424 496.093 L 190.016 486.942 L 181.314 486.292 L 182.464 488.894 C 182.464 488.894 187.201 487.999 188.576 489.118 C 189.952 490.237 191.264 495.964 191.264 495.964 L 193.424 496.093 Z " fill="rgb(48,44,50)"/><path d=" M 185.028 499.329 C 192.132 499.638 202.363 498.712 202.363 498.712 L 202.363 495.528 C 202.363 495.528 192.132 496.452 185.028 496.144" fill="rgb(48,44,50)"/><path d=" M 202.363 495.528 C 202.363 495.528 192.132 496.452 185.028 496.144" fill="none" vector-effect="non-scaling-stroke" stroke-width="0.768" stroke="rgb(164,121,83)" stroke-linejoin="miter" stroke-linecap="butt" stroke-miterlimit="10"/><path d=" M 202.363 498.712 C 202.363 498.712 192.132 499.638 185.028 499.329" fill="none" vector-effect="non-scaling-stroke" stroke-width="0.768" stroke="rgb(164,121,83)" stroke-linejoin="miter" stroke-linecap="butt" stroke-miterlimit="10"/><path d=" M 207.995 489.134 L 203.102 484.642 C 203.102 484.642 199.241 486.638 199.705 490.606 C 200.169 494.577 202.309 495.964 202.309 495.964 L 207.995 489.134 Z " fill="rgb(206,214,231)"/><path d=" M 207.995 489.138 L 203.643 485.142 C 203.643 485.142 200.209 486.917 200.622 490.446 C 201.035 493.978 202.939 495.212 202.939 495.212 L 207.995 489.138 Z " fill="rgb(48,44,50)"/><path d=" M 207.995 489.144 L 204.362 485.808 C 204.362 485.808 201.497 487.29 201.842 490.235 C 202.186 493.183 203.775 494.212 203.775 494.212 L 207.995 489.144 Z " fill="rgb(69,68,116)"/><path d=" M 191.417 507.938 L 187.354 507.938 L 187.354 509.313 L 191.417 509.313 L 191.417 507.938 Z " fill="rgb(69,68,116)"/><path d=" M 191.77 509.313 L 187.708 509.313 L 187.708 510.69 L 191.77 510.69 L 191.77 509.313 Z " fill="rgb(166,64,69)"/><path d=" M 192.371 510.69 L 188.309 510.69 L 188.309 512.065 L 192.371 512.065 L 192.371 510.69 Z " fill="rgb(69,68,116)"/><path d=" M 192.725 512.065 L 188.662 512.065 L 188.662 513.44 L 192.725 513.44 L 192.725 512.065 Z " fill="rgb(166,64,69)"/><path d=" M 193.325 513.44 L 189.263 513.44 L 189.263 514.815 L 193.325 514.815 L 193.325 513.44 Z " fill="rgb(69,68,116)"/><path d=" M 193.679 514.815 L 189.616 514.815 L 189.616 516.19 L 193.679 516.19 L 193.679 514.815 Z " fill="rgb(166,64,69)"/><path d=" M 194.278 516.19 L 190.216 516.19 L 190.216 517.567 L 194.278 517.567 L 194.278 516.19 Z " fill="rgb(69,68,116)"/><path d=" M 191.77 507.882 L 194.744 515.583 L 202.453 516.128 L 198.039 507.304 L 191.77 507.882 Z " fill="rgb(166,64,69)"/><path d=" M 182.179 508.374 L 181.1 516.894 L 188.954 516.534 L 189.082 513.397 L 186.379 507.81 L 182.179 508.374 Z " fill="rgb(166,64,69)"/><path d=" M 191.129 517.056 L 187.642 508.034 L 185.083 508.374 C 185.083 508.374 188.666 513.089 188.106 514.88 C 187.547 516.671 183.404 515.583 183.404 515.583 L 181.629 518.759 L 191.129 517.056 Z " fill="rgb(48,44,50)"/><path d=" M 190.568 507.81 L 193.975 516.958 L 202.677 517.61 L 201.528 515.009 C 201.528 515.009 196.791 515.903 195.416 514.784 C 194.04 513.665 192.728 507.938 192.728 507.938 L 190.568 507.81 Z " fill="rgb(48,44,50)"/><path d=" M 198.964 504.573 C 191.86 504.265 181.629 505.19 181.629 505.19 L 181.629 508.374 C 181.629 508.374 191.86 507.448 198.964 507.757" fill="rgb(48,44,50)"/><path d=" M 181.629 508.374 C 181.629 508.374 191.86 507.448 198.964 507.757" fill="none" vector-effect="non-scaling-stroke" stroke-width="0.768" stroke="rgb(164,121,83)" stroke-linejoin="miter" stroke-linecap="butt" stroke-miterlimit="10"/><path d=" M 181.629 505.19 C 181.629 505.19 191.86 504.265 198.964 504.573" fill="none" vector-effect="non-scaling-stroke" stroke-width="0.768" stroke="rgb(164,121,83)" stroke-linejoin="miter" stroke-linecap="butt" stroke-miterlimit="10"/><path d=" M 217.277 521.253 C 215.873 521.706 214.388 521.95 212.85 521.95 C 204.217 521.95 197.219 514.294 197.219 504.851 C 197.219 495.407 204.217 487.751 212.85 487.751 C 214.388 487.751 215.873 487.995 217.277 488.448 L 217.277 521.253 Z " fill="rgb(218,226,242)"/><path d=" M 217.277 520.507 C 215.878 520.979 214.391 521.235 212.85 521.235 C 204.577 521.235 197.872 513.899 197.872 504.851 C 197.872 495.802 204.577 488.466 212.85 488.466 C 214.391 488.466 215.878 488.722 217.277 489.194 L 217.277 520.507 Z " fill="rgb(206,214,231)"/><path d=" M 217.277 516.948 C 215.907 517.55 214.415 517.882 212.85 517.882 C 206.27 517.882 200.936 512.048 200.936 504.851 C 200.936 497.653 206.27 491.819 212.85 491.819 C 214.415 491.819 215.907 492.151 217.277 492.753 L 217.277 516.948 Z " fill="rgb(164,121,83)"/><path d=" M 217.277 515.571 C 215.927 516.241 214.429 516.616 212.85 516.616 C 206.91 516.616 202.095 511.349 202.095 504.851 C 202.095 498.353 206.91 493.085 212.85 493.085 C 214.429 493.085 215.927 493.46 217.277 494.13 L 217.277 515.571 Z " fill="rgb(183,151,91)"/><path d=" M 217.277 511.579 C 216.031 512.562 214.503 513.144 212.85 513.144 C 208.663 513.144 205.268 509.431 205.268 504.851 C 205.268 500.27 208.663 496.558 212.85 496.558 C 214.503 496.558 216.031 497.14 217.277 498.122 L 217.277 511.579 Z " fill="rgb(218,226,242)"/><path d=" M 217.277 511.052 C 216.057 512.097 214.519 512.722 212.85 512.722 C 208.876 512.722 205.655 509.196 205.655 504.851 C 205.655 500.505 208.876 496.979 212.85 496.979 C 214.519 496.979 216.057 497.604 217.277 498.649 L 217.277 511.052 Z " fill="rgb(166,64,69)"/><path d=" M 217.277 506.05 C 217.026 506.214 216.78 506.384 216.539 506.562 L 216.539 506.562 C 216.295 506.743 216.055 506.931 215.82 507.124 L 215.819 507.126 C 215.586 507.319 215.359 507.519 215.138 507.726 C 215.136 507.728 215.134 507.728 215.132 507.729 C 214.914 507.935 214.701 508.144 214.494 508.36 C 214.489 508.364 214.484 508.37 214.479 508.374 C 214.452 508.151 214.42 507.929 214.382 507.708 C 214.375 507.669 214.367 507.63 214.36 507.593 C 214.328 507.415 214.296 507.239 214.259 507.065 C 214.258 507.06 214.256 507.054 214.255 507.05 C 214.242 506.985 214.225 506.923 214.211 506.858 C 214.18 506.724 214.147 506.587 214.113 506.454 C 214.106 506.427 214.1 506.401 214.093 506.374 C 214.076 506.312 214.058 506.249 214.04 506.185 C 214.005 506.058 213.969 505.929 213.93 505.802 C 213.923 505.776 213.914 505.751 213.906 505.728 C 213.887 505.663 213.865 505.601 213.844 505.536 C 213.803 505.407 213.761 505.278 213.716 505.151 C 213.686 505.069 213.654 504.987 213.623 504.905 C 213.578 504.782 213.531 504.661 213.483 504.54 C 213.449 504.456 213.413 504.372 213.378 504.29 C 213.328 504.173 213.277 504.056 213.225 503.94 C 213.187 503.854 213.146 503.772 213.107 503.688 C 213.054 503.577 213 503.464 212.943 503.353 C 212.901 503.269 212.857 503.187 212.812 503.104 C 212.764 503.009 212.713 502.915 212.661 502.823 C 212.651 502.804 212.642 502.784 212.63 502.767 C 212.587 502.687 212.541 502.61 212.496 502.532 C 212.448 502.45 212.4 502.37 212.351 502.29 C 212.324 502.245 212.297 502.198 212.268 502.155 C 212.231 502.095 212.193 502.034 212.156 501.976 C 212.1 501.888 212.044 501.804 211.987 501.718 C 211.946 501.657 211.905 501.597 211.864 501.536 C 211.841 501.503 211.817 501.468 211.794 501.435 C 211.726 501.339 211.658 501.243 211.589 501.149 C 211.522 501.058 211.455 500.968 211.386 500.88 C 211.322 500.794 211.257 500.712 211.19 500.628 C 211.159 500.589 211.127 500.552 211.096 500.511 C 211.039 500.442 210.981 500.374 210.925 500.306 C 210.876 500.247 210.826 500.188 210.776 500.132 C 210.727 500.075 210.679 500.02 210.63 499.964 C 210.55 499.874 210.468 499.786 210.386 499.698 C 210.372 499.683 210.357 499.667 210.343 499.651 C 210.278 499.583 210.214 499.515 210.147 499.448 C 210.047 499.345 209.944 499.243 209.841 499.142 C 209.786 499.091 209.733 499.036 209.678 498.985 C 209.637 498.946 209.594 498.909 209.552 498.868 C 209.458 498.782 209.364 498.698 209.268 498.612 C 209.245 498.593 209.222 498.571 209.198 498.55 C 209.13 498.491 209.06 498.433 208.991 498.376 C 208.884 498.284 208.775 498.196 208.666 498.108 C 208.585 498.044 208.503 497.979 208.421 497.917 C 208.344 497.858 208.266 497.798 208.187 497.741 C 208.092 497.671 207.994 497.601 207.896 497.534 C 207.817 497.478 207.738 497.421 207.658 497.368 C 207.559 497.3 207.457 497.235 207.355 497.169 C 207.275 497.118 207.194 497.065 207.113 497.017 C 207.01 496.952 206.904 496.89 206.799 496.829 C 206.718 496.78 206.636 496.731 206.554 496.687 C 206.445 496.626 206.336 496.567 206.225 496.509 C 206.143 496.466 206.062 496.423 205.979 496.38 C 205.866 496.321 205.75 496.269 205.636 496.212 C 205.555 496.175 205.475 496.134 205.392 496.097 C 205.27 496.042 205.146 495.989 205.023 495.937 C 204.946 495.903 204.871 495.87 204.793 495.839 C 204.656 495.782 204.517 495.731 204.378 495.681 C 204.312 495.655 204.248 495.628 204.182 495.606 C 204.004 495.542 203.822 495.483 203.642 495.425 C 203.614 495.417 203.587 495.407 203.559 495.397 C 203.348 495.333 203.135 495.272 202.921 495.216 C 202.889 495.208 202.856 495.2 202.824 495.192 C 202.642 495.145 202.461 495.103 202.276 495.062 C 202.21 495.048 202.142 495.036 202.075 495.022 C 201.925 494.993 201.774 494.962 201.622 494.937 C 201.544 494.923 201.463 494.913 201.383 494.899 C 201.006 494.843 200.626 494.796 200.241 494.767 C 203.085 490.513 207.679 487.751 212.864 487.751 C 214.396 487.751 215.877 487.993 217.277 488.444 L 217.277 506.05 Z " fill="rgb(164,121,83)"/><path d=" M 217.277 504.87 C 217.116 505.39 216.897 505.79 216.597 506.011 C 216.035 506.618 215.273 507.081 214.692 507.688 C 213.867 501.042 208.221 494.694 201.528 494.181 C 205.275 488.579 216.836 484.263 217.277 493.337 L 217.277 504.87 Z " fill="rgb(183,151,91)"/><path d=" M 188.605 536.249 C 188.605 536.249 183.428 524.806 184.228 521.118 C 185.03 517.433 192.4 527.868 192.4 527.868 L 188.605 536.249 Z " fill="rgb(48,44,50)"/><path d=" M 193.055 546.728 C 193.055 546.728 184.828 544.757 181.054 533.368 C 177.278 521.981 179.006 517.61 179.006 517.61 L 184.74 521.622 C 184.74 521.622 184.215 527.003 188.149 536.312 C 192.083 545.62 193.055 544.77 193.055 544.77 L 193.055 546.728 Z " fill="rgb(166,64,69)"/><path d=" M 197.768 545.729 C 197.768 545.729 189.542 543.759 185.767 532.37 C 181.993 520.983 183.805 518.927 183.805 518.927 L 185.468 519.294 C 185.468 519.294 183.368 522.997 187.303 532.308 C 191.237 541.616 197.768 543.772 197.768 543.772 L 197.768 545.729 Z " fill="rgb(183,151,91)"/><path d=" M 217.277 505.384 L 217.277 516.54 L 211.533 521.858 L 205.684 518.52 L 217.277 505.384 Z " fill="rgb(69,68,116)"/><path d=" M 204.428 518.255 C 204.428 518.255 216.972 503.813 217.277 503.653 L 217.277 505.888 L 206.771 518.52 L 204.428 518.255 Z " fill="rgb(48,44,50)"/><path d=" M 185.147 522.585 L 180.029 518.683 C 180.029 518.683 194.871 513.28 212.209 519.931 L 208.059 525.048 L 185.147 522.585 Z " fill="rgb(164,121,83)"/><path d=" M 186.171 523.39 L 181.054 519.485 C 181.054 519.485 194.871 514.376 212.209 521.024 L 208.059 526.144 L 186.171 523.39 Z " fill="rgb(183,151,91)"/><path d=" M 189.798 527.817 C 189.798 527.716 188.858 524.987 186.171 523.39 C 186.171 523.39 199.688 520.952 208.059 525.05 C 208.059 525.05 206.771 533.349 202.74 531.632 C 198.711 529.915 189.798 527.817 189.798 527.817 Z " fill="rgb(206,214,231)"/><path d=" M 188.297 538.415 C 188.297 538.415 187.957 535.388 188.297 534.938 C 188.637 534.491 188.701 534.14 188.573 533.401 C 188.444 532.665 188.444 529.11 189.021 528.341 C 189.598 527.573 192.032 522.929 193.698 522.895 C 195.363 522.864 202.378 525.747 202.475 529.495 C 202.475 529.495 202.986 528.821 203.659 529.206 C 204.332 529.591 204.428 532.376 204.428 532.376 C 204.428 532.376 198.689 544.901 193.055 544.356 C 193.055 544.356 188.277 540.931 188.297 538.415 Z " fill="rgb(218,226,242)"/><path d=" M 193.055 546.728 C 193.055 546.728 199.014 548.325 203.656 543.38 C 208.298 538.435 213.396 526.563 217.277 525.27 L 217.277 520.368 C 217.277 520.368 207.842 525.192 205.559 532.651 C 203.275 540.108 193.055 546.728 193.055 546.728 Z " fill="rgb(48,44,50)"/><path d=" M 193.055 544.108 C 193.055 544.108 194.581 537.394 201.125 537.165 C 202.951 538.915 196.943 544.108 196.943 544.108 C 196.943 544.108 195.704 545.093 193.055 544.77 L 193.055 544.108 Z " fill="rgb(202,131,78)"/><path d=" M 193.055 544.77 C 193.055 544.77 199.385 543.145 204.633 530.229 C 213.547 515.829 217.277 516.54 217.277 516.54 L 217.277 520.368 C 217.277 520.368 210.809 525.573 206.852 532.728 C 202.895 539.88 200.259 546.728 193.055 546.728 L 193.055 544.77 Z " fill="rgb(166,64,69)"/><path d=" M 193.055 546.728 C 193.055 546.728 184.828 544.757 181.054 533.368 C 177.278 521.981 179.006 517.61 179.006 517.61 L 180.517 518.52 C 180.517 518.52 178.654 523.995 182.589 533.306 C 186.523 542.614 193.055 544.77 193.055 544.77 L 193.055 546.728 Z " fill="rgb(183,151,91)"/><path d=" M 193.055 544.108 C 193.055 544.108 192.043 539.784 188.139 538.354 C 188.139 538.354 186.918 545.397 193.055 544.77 L 193.055 544.108 Z " fill="rgb(182,120,76)"/><path d=" M 175.998 514.767 L 180.891 519.261 C 180.891 519.261 184.751 517.265 184.287 513.296 C 183.823 509.325 181.683 507.938 181.683 507.938 L 175.998 514.767 Z " fill="rgb(206,214,231)"/><path d=" M 175.998 514.765 L 180.35 518.759 C 180.35 518.759 183.783 516.985 183.37 513.454 C 182.957 509.925 181.054 508.69 181.054 508.69 L 175.998 514.765 Z " fill="rgb(48,44,50)"/><path d=" M 175.998 514.759 L 179.63 518.093 C 179.63 518.093 182.495 516.612 182.15 513.667 C 181.806 510.72 180.217 509.69 180.217 509.69 L 175.998 514.759 Z " fill="rgb(69,68,116)"/><path d=" M 188.279 535.39 C 188.28 535.39 189.048 535.593 189.819 535.564 C 190.011 535.552 190.201 535.544 190.377 535.515 C 190.552 535.496 190.723 535.528 190.865 535.509 C 191.152 535.5 191.367 535.541 191.367 535.541 L 191.377 535.578 C 191.377 535.578 191.206 535.698 190.914 535.81 C 190.625 535.925 190.204 535.945 189.803 535.871 C 189.399 535.823 189.006 535.727 188.725 535.62 C 188.442 535.519 188.266 535.425 188.266 535.425 L 188.279 535.39 Z " fill="rgb(202,131,78)"/><path d=" M 197.775 535.59 C 197.775 535.59 197.538 535.688 197.166 535.794 C 196.796 535.905 196.288 536.004 195.771 536.055 C 195.513 536.079 195.252 536.12 195.007 536.103 C 194.763 536.084 194.536 536.058 194.347 535.994 C 193.968 535.874 193.737 535.743 193.737 535.743 L 193.746 535.7 C 193.746 535.7 194.016 535.649 194.391 535.649 C 194.577 535.666 194.798 535.63 195.028 535.648 C 195.258 535.679 195.507 535.689 195.757 535.705 C 196.758 535.741 197.762 535.548 197.762 535.548 L 197.775 535.59 Z " fill="rgb(202,131,78)"/><path d=" M 194.328 534.425 C 194.328 534.425 194.496 534.312 194.783 534.21 C 194.928 534.168 195.098 534.109 195.286 534.084 C 195.474 534.064 195.675 534.031 195.878 534.038 C 196.284 534.042 196.687 534.122 196.97 534.227 C 197.252 534.339 197.431 534.425 197.431 534.425 C 197.431 534.425 197.227 534.407 196.937 534.362 C 196.796 534.324 196.622 534.332 196.442 534.31 C 196.263 534.281 196.07 534.28 195.877 534.285 C 195.491 534.264 195.107 534.314 194.815 534.345 C 194.524 534.38 194.328 534.425 194.328 534.425 Z " fill="rgb(69,71,97)"/><path d=" M 191.03 534.425 C 191.03 534.425 190.877 534.376 190.648 534.338 C 190.419 534.303 190.118 534.251 189.815 534.271 C 189.663 534.266 189.512 534.27 189.371 534.298 C 189.23 534.319 189.093 534.316 188.983 534.354 C 188.756 534.402 188.594 534.425 188.594 534.425 C 188.594 534.425 188.728 534.344 188.947 534.236 C 189.165 534.136 189.487 534.056 189.813 534.053 C 189.976 534.044 190.138 534.078 190.288 534.097 C 190.438 534.124 190.572 534.179 190.684 534.221 C 190.907 534.319 191.03 534.425 191.03 534.425 Z " fill="rgb(69,71,97)"/><path d=" M 192.828 526.88 C 192.828 526.88 193.498 526.464 194.447 526.88" fill="rgb(218,226,242)"/><path d=" M 192.828 526.88 C 192.828 526.88 192.905 526.802 193.052 526.727 C 193.127 526.698 193.215 526.653 193.317 526.637 C 193.418 526.62 193.527 526.6 193.637 526.604 C 193.857 526.608 194.073 526.667 194.216 526.742 C 194.36 526.819 194.447 526.88 194.447 526.88 C 194.447 526.88 194.336 526.871 194.184 526.846 C 194.033 526.823 193.832 526.786 193.634 526.796 C 193.435 526.778 193.237 526.812 193.085 526.829 C 192.933 526.851 192.828 526.88 192.828 526.88 Z " fill="rgb(69,71,97)"/><path d=" M 191.711 528.04 C 191.711 528.04 192.674 527.937 193.638 527.944 C 194.601 527.937 195.564 528.04 195.564 528.04 C 195.564 528.04 194.601 528.144 193.638 528.136 C 192.674 528.144 191.711 528.04 191.711 528.04 Z " fill="rgb(69,71,97)"/><path d=" M 192.162 530.224 C 192.162 530.224 192.168 530.188 192.195 530.13 C 192.221 530.071 192.266 529.985 192.347 529.908 C 192.427 529.827 192.529 529.743 192.659 529.687 C 192.781 529.61 192.93 529.594 193.071 529.544 C 193.216 529.515 193.363 529.519 193.499 529.505 C 193.636 529.487 193.762 529.525 193.87 529.533 C 194.085 529.568 194.224 529.603 194.224 529.603 C 194.224 529.603 194.078 529.625 193.867 529.642 C 193.762 529.648 193.638 529.647 193.51 529.671 C 193.382 529.691 193.241 529.697 193.109 529.731 C 192.981 529.77 192.836 529.776 192.726 529.838 C 192.607 529.882 192.499 529.929 192.416 529.99 C 192.244 530.099 192.162 530.224 192.162 530.224 Z " fill="rgb(69,71,97)"/><path d=" M 166.715 482.649 C 168.119 482.196 169.604 481.952 171.142 481.952 C 179.775 481.952 186.773 489.608 186.773 499.052 C 186.773 508.495 179.775 516.151 171.142 516.151 C 169.604 516.151 168.119 515.907 166.715 515.454 L 166.715 482.649 Z " fill="rgb(218,226,242)"/><path d=" M 166.715 483.395 C 168.114 482.921 169.601 482.667 171.142 482.667 C 179.415 482.667 186.121 490.003 186.121 499.052 C 186.121 508.101 179.415 515.437 171.142 515.437 C 169.601 515.437 168.114 515.181 166.715 514.708 L 166.715 483.395 Z " fill="rgb(206,214,231)"/><path d=" M 166.715 486.954 C 168.085 486.353 169.577 486.019 171.142 486.019 C 177.722 486.019 183.055 491.854 183.055 499.052 C 183.055 506.249 177.722 512.083 171.142 512.083 C 169.577 512.083 168.085 511.749 166.715 511.149 L 166.715 486.954 Z " fill="rgb(164,121,83)"/><path d=" M 166.715 488.331 C 168.066 487.661 169.563 487.286 171.142 487.286 C 177.082 487.286 181.897 492.554 181.897 499.052 C 181.897 505.55 177.082 510.817 171.142 510.817 C 169.563 510.817 168.066 510.44 166.715 509.772 L 166.715 488.331 Z " fill="rgb(183,151,91)"/><path d=" M 166.715 492.323 C 167.961 491.341 169.489 490.759 171.142 490.759 C 175.329 490.759 178.724 494.472 178.724 499.052 C 178.724 503.632 175.329 507.343 171.142 507.343 C 169.489 507.343 167.961 506.763 166.715 505.78 L 166.715 492.323 Z " fill="rgb(218,226,242)"/><path d=" M 166.715 492.851 C 167.935 491.806 169.473 491.181 171.142 491.181 C 175.116 491.181 178.337 494.704 178.337 499.052 C 178.337 503.397 175.116 506.921 171.142 506.921 C 169.473 506.921 167.935 506.298 166.715 505.253 L 166.715 492.851 Z " fill="rgb(166,64,69)"/><path d=" M 166.715 497.853 C 166.966 497.688 167.212 497.519 167.453 497.341 L 167.453 497.341 C 167.697 497.159 167.937 496.972 168.172 496.778 L 168.173 496.776 C 168.406 496.583 168.633 496.384 168.854 496.177 C 168.856 496.175 168.858 496.173 168.86 496.171 C 169.078 495.968 169.291 495.757 169.498 495.542 C 169.503 495.536 169.508 495.532 169.513 495.528 C 169.54 495.751 169.572 495.974 169.61 496.194 C 169.617 496.233 169.625 496.272 169.632 496.31 C 169.664 496.485 169.696 496.663 169.733 496.837 C 169.735 496.843 169.736 496.847 169.737 496.853 C 169.751 496.917 169.767 496.979 169.781 497.042 C 169.812 497.179 169.845 497.313 169.879 497.448 C 169.886 497.476 169.892 497.501 169.899 497.528 C 169.916 497.591 169.934 497.653 169.952 497.716 C 169.987 497.845 170.023 497.974 170.062 498.101 C 170.07 498.124 170.078 498.149 170.086 498.175 C 170.105 498.239 170.127 498.302 170.148 498.366 C 170.189 498.495 170.231 498.622 170.276 498.751 C 170.306 498.833 170.338 498.915 170.369 498.997 C 170.414 499.118 170.461 499.241 170.509 499.362 C 170.543 499.446 170.579 499.528 170.614 499.612 C 170.664 499.729 170.715 499.847 170.767 499.962 C 170.805 500.046 170.846 500.13 170.885 500.212 C 170.939 500.325 170.992 500.438 171.049 500.55 C 171.091 500.634 171.136 500.716 171.18 500.798 C 171.229 500.892 171.279 500.987 171.331 501.079 C 171.341 501.099 171.35 501.118 171.362 501.136 C 171.405 501.214 171.451 501.292 171.496 501.37 C 171.544 501.452 171.592 501.532 171.641 501.612 C 171.668 501.657 171.695 501.702 171.724 501.747 C 171.761 501.808 171.799 501.866 171.836 501.927 C 171.892 502.013 171.948 502.099 172.005 502.185 C 172.046 502.245 172.087 502.306 172.128 502.364 C 172.151 502.399 172.175 502.433 172.198 502.468 C 172.266 502.563 172.334 502.659 172.403 502.753 C 172.47 502.845 172.537 502.935 172.606 503.022 C 172.67 503.106 172.735 503.19 172.802 503.272 C 172.833 503.313 172.865 503.351 172.896 503.39 C 172.953 503.46 173.011 503.528 173.067 503.597 C 173.117 503.655 173.166 503.714 173.216 503.77 C 173.265 503.827 173.313 503.882 173.362 503.937 C 173.442 504.026 173.524 504.116 173.606 504.204 C 173.62 504.22 173.635 504.235 173.649 504.251 C 173.714 504.319 173.778 504.388 173.845 504.454 C 173.945 504.558 174.048 504.659 174.151 504.759 C 174.206 504.812 174.26 504.864 174.314 504.917 C 174.355 504.956 174.398 504.993 174.44 505.032 C 174.534 505.12 174.628 505.204 174.724 505.288 C 174.747 505.31 174.77 505.331 174.794 505.351 C 174.862 505.411 174.932 505.468 175.001 505.526 C 175.108 505.618 175.217 505.706 175.326 505.794 C 175.407 505.858 175.489 505.921 175.571 505.985 C 175.648 506.044 175.726 506.103 175.805 506.161 C 175.9 506.231 175.998 506.3 176.096 506.368 C 176.175 506.425 176.254 506.479 176.334 506.534 C 176.434 506.603 176.535 506.667 176.637 506.731 C 176.717 506.784 176.798 506.837 176.879 506.886 C 176.982 506.95 177.088 507.011 177.193 507.073 C 177.275 507.12 177.356 507.169 177.438 507.216 C 177.547 507.276 177.656 507.335 177.767 507.392 C 177.849 507.437 177.93 507.479 178.013 507.522 C 178.126 507.579 178.242 507.634 178.356 507.688 C 178.437 507.728 178.517 507.769 178.6 507.806 C 178.722 507.86 178.846 507.913 178.969 507.966 C 179.046 507.997 179.122 508.032 179.199 508.063 C 179.337 508.118 179.475 508.171 179.614 508.222 C 179.681 508.247 179.744 508.272 179.81 508.296 C 179.988 508.36 180.17 508.419 180.35 508.478 C 180.378 508.485 180.405 508.495 180.434 508.505 C 180.644 508.569 180.857 508.63 181.072 508.687 C 181.103 508.694 181.136 508.7 181.168 508.71 C 181.35 508.755 181.532 508.8 181.716 508.841 C 181.782 508.854 181.85 508.866 181.917 508.88 C 182.067 508.909 182.218 508.94 182.369 508.966 C 182.448 508.979 182.529 508.989 182.609 509.001 C 182.986 509.06 183.366 509.106 183.751 509.136 C 180.907 513.388 176.313 516.151 171.128 516.151 C 169.596 516.151 168.115 515.907 166.715 515.458 L 166.715 497.853 Z " fill="rgb(164,121,83)"/><path d=" M 166.715 499.032 C 166.875 498.513 167.095 498.112 167.395 497.892 C 167.957 497.284 168.719 496.821 169.3 496.214 C 170.125 502.86 175.771 509.208 182.464 509.72 C 178.717 515.323 167.156 519.64 166.715 510.565 L 166.715 499.032 Z " fill="rgb(183,151,91)"/><path d=" M 166.715 498.519 L 166.715 487.36 L 172.459 482.042 L 178.309 485.382 L 166.715 498.519 Z " fill="rgb(69,68,116)"/><path d=" M 179.564 485.647 C 179.564 485.647 167.02 500.087 166.715 500.249 L 166.715 498.013 L 177.221 485.382 L 179.564 485.647 Z " fill="rgb(48,44,50)"/><path d=" M 195.387 467.651 C 195.387 467.651 200.564 479.097 199.764 482.782 C 198.962 486.47 191.592 476.034 191.592 476.034 L 195.387 467.651 Z " fill="rgb(48,44,50)"/><path d=" M 190.937 457.173 C 190.937 457.173 199.165 459.145 202.939 470.532 C 206.714 481.921 204.986 486.292 204.986 486.292 L 199.252 482.28 C 199.252 482.28 199.777 476.899 195.844 467.591 C 191.909 458.28 190.937 459.132 190.937 459.132 L 190.937 457.173 Z " fill="rgb(166,64,69)"/><path d=" M 186.224 458.171 C 186.224 458.171 194.45 460.144 198.225 471.53 C 202 482.919 200.187 484.976 200.187 484.976 L 198.524 484.608 C 198.524 484.608 200.624 480.903 196.689 471.595 C 192.755 462.286 186.224 460.13 186.224 460.13 L 186.224 458.171 Z " fill="rgb(183,151,91)"/><path d=" M 198.845 481.317 L 203.963 485.22 C 203.963 485.22 189.121 490.622 171.783 483.972 L 175.933 478.854 L 198.845 481.317 Z " fill="rgb(164,121,83)"/><path d=" M 197.821 480.513 L 202.939 484.415 C 202.939 484.415 189.121 489.526 171.783 482.876 L 175.933 477.759 L 197.821 480.513 Z " fill="rgb(183,151,91)"/><path d=" M 194.194 476.085 C 194.194 476.187 195.134 478.913 197.821 480.513 C 197.821 480.513 184.304 482.95 175.933 478.853 C 175.933 478.853 177.221 470.554 181.252 472.27 C 185.281 473.987 194.194 476.085 194.194 476.085 Z " fill="rgb(206,214,231)"/><path d=" M 195.695 465.485 C 195.695 465.485 196.035 468.515 195.695 468.962 C 195.355 469.411 195.292 469.763 195.419 470.501 C 195.548 471.237 195.548 474.792 194.971 475.562 C 194.394 476.329 191.96 480.974 190.295 481.007 C 188.629 481.038 181.614 478.155 181.517 474.407 C 181.517 474.407 181.006 475.081 180.333 474.696 C 179.66 474.312 179.564 471.524 179.564 471.524 C 179.564 471.524 185.303 459.001 190.937 459.546 C 190.937 459.546 195.716 462.97 195.695 465.485 Z " fill="rgb(218,226,242)"/><path d=" M 190.937 457.173 C 190.937 457.173 184.978 455.575 180.336 460.522 C 175.694 465.468 170.596 477.339 166.715 478.632 L 166.715 483.534 C 166.715 483.534 176.15 478.708 178.434 471.251 C 180.717 463.794 190.937 457.173 190.937 457.173 Z " fill="rgb(48,44,50)"/><path d=" M 190.937 459.794 C 190.937 459.794 189.411 466.509 182.867 466.737 C 181.041 464.987 187.049 459.794 187.049 459.794 C 187.049 459.794 188.288 458.81 190.937 459.132 L 190.937 459.794 Z " fill="rgb(202,131,78)"/><path d=" M 190.937 459.132 C 190.937 459.132 184.607 460.757 179.359 473.673 C 170.445 488.073 166.715 487.36 166.715 487.36 L 166.715 483.534 C 166.715 483.534 173.183 478.327 177.14 471.175 C 181.097 464.022 183.733 457.173 190.937 457.173 L 190.937 459.132 Z " fill="rgb(166,64,69)"/><path d=" M 190.937 457.173 C 190.937 457.173 199.165 459.145 202.939 470.532 C 206.714 481.921 204.986 486.292 204.986 486.292 L 203.474 485.382 C 203.474 485.382 205.339 479.905 201.404 470.597 C 197.47 461.288 190.937 459.132 190.937 459.132 L 190.937 457.173 Z " fill="rgb(183,151,91)"/><path d=" M 190.937 459.794 C 190.937 459.794 191.949 464.116 195.854 465.546 C 195.854 465.546 197.074 458.503 190.937 459.132 L 190.937 459.794 Z " fill="rgb(182,120,76)"/><path d=" M 195.713 468.513 C 195.713 468.513 194.944 468.31 194.173 468.338 C 193.981 468.351 193.791 468.358 193.615 468.388 C 193.44 468.406 193.269 468.374 193.127 468.394 C 192.84 468.402 192.625 468.361 192.625 468.361 L 192.615 468.324 C 192.615 468.324 192.786 468.204 193.078 468.093 C 193.367 467.978 193.788 467.957 194.189 468.031 C 194.593 468.079 194.986 468.176 195.267 468.282 C 195.55 468.384 195.726 468.478 195.726 468.478 L 195.713 468.513 Z " fill="rgb(202,131,78)"/><path d=" M 186.217 468.312 C 186.217 468.312 186.454 468.214 186.826 468.108 C 187.196 467.997 187.704 467.898 188.221 467.848 C 188.479 467.823 188.74 467.782 188.985 467.799 C 189.229 467.818 189.456 467.845 189.645 467.908 C 190.024 468.028 190.255 468.159 190.255 468.159 L 190.246 468.202 C 190.246 468.202 189.976 468.253 189.601 468.253 C 189.415 468.236 189.194 468.272 188.964 468.254 C 188.734 468.224 188.485 468.213 188.235 468.197 C 187.234 468.161 186.23 468.354 186.23 468.353 L 186.217 468.312 Z " fill="rgb(202,131,78)"/><path d=" M 189.664 469.478 C 189.664 469.478 189.496 469.59 189.209 469.692 C 189.064 469.734 188.894 469.793 188.706 469.818 C 188.518 469.838 188.317 469.871 188.114 469.864 C 187.708 469.86 187.305 469.78 187.022 469.676 C 186.74 469.563 186.561 469.478 186.561 469.478 C 186.561 469.478 186.765 469.495 187.055 469.54 C 187.196 469.578 187.37 469.57 187.55 469.593 C 187.729 469.621 187.922 469.622 188.115 469.617 C 188.501 469.639 188.885 469.588 189.177 469.558 C 189.468 469.522 189.664 469.478 189.664 469.478 Z " fill="rgb(69,71,97)"/><path d=" M 192.962 469.478 C 192.962 469.478 193.115 469.526 193.344 469.564 C 193.573 469.6 193.874 469.651 194.177 469.631 C 194.329 469.637 194.48 469.633 194.621 469.604 C 194.762 469.583 194.899 469.586 195.009 469.548 C 195.236 469.5 195.398 469.478 195.398 469.478 C 195.398 469.478 195.264 469.559 195.045 469.666 C 194.827 469.767 194.505 469.847 194.179 469.85 C 194.016 469.858 193.854 469.824 193.704 469.806 C 193.554 469.778 193.42 469.724 193.308 469.682 C 193.085 469.583 192.962 469.478 192.962 469.478 Z " fill="rgb(69,71,97)"/><path d=" M 191.164 477.02 C 191.164 477.02 190.494 477.438 189.545 477.02" fill="rgb(218,226,242)"/><path d=" M 191.164 477.02 C 191.164 477.02 191.088 477.099 190.94 477.174 C 190.865 477.203 190.777 477.248 190.676 477.265 C 190.574 477.28 190.465 477.302 190.355 477.297 C 190.135 477.293 189.919 477.233 189.776 477.159 C 189.632 477.081 189.545 477.02 189.545 477.02 C 189.545 477.02 189.656 477.029 189.808 477.056 C 189.959 477.078 190.16 477.115 190.358 477.105 C 190.557 477.123 190.755 477.089 190.907 477.071 C 191.059 477.05 191.164 477.02 191.164 477.02 Z " fill="rgb(69,71,97)"/><path d=" M 192.281 475.862 C 192.281 475.862 191.318 475.966 190.354 475.958 C 189.391 475.966 188.428 475.862 188.428 475.862 C 188.428 475.862 189.391 475.759 190.354 475.767 C 191.318 475.759 192.281 475.862 192.281 475.862 Z " fill="rgb(69,71,97)"/><path d=" M 191.83 473.679 C 191.83 473.679 191.824 473.714 191.797 473.772 C 191.771 473.831 191.726 473.917 191.645 473.994 C 191.565 474.075 191.463 474.159 191.333 474.216 C 191.211 474.292 191.062 474.309 190.921 474.358 C 190.776 474.388 190.629 474.384 190.493 474.397 C 190.356 474.415 190.23 474.377 190.122 474.369 C 189.907 474.334 189.768 474.3 189.768 474.3 C 189.768 474.3 189.914 474.277 190.125 474.261 C 190.23 474.254 190.354 474.255 190.482 474.231 C 190.61 474.211 190.751 474.205 190.883 474.171 C 191.011 474.133 191.156 474.126 191.266 474.064 C 191.385 474.02 191.493 473.974 191.576 473.912 C 191.748 473.804 191.83 473.679 191.83 473.679 Z " fill="rgb(69,71,97)"/></g></svg>