<?xml version="1.0" encoding="UTF-8" standalone="no"?><!-- Generator: Gravit.io --><svg xmlns="http://www.w3.org/2000/svg" xmlns:xlink="http://www.w3.org/1999/xlink" style="isolation:isolate" viewBox="610.333 638.389 69.123 103.686" width="69.123pt" height="103.686pt"><g><path d=" M 679.456 739.352 C 679.456 740.856 678.237 742.075 676.735 742.075 L 613.055 742.075 C 611.552 742.075 610.333 740.856 610.333 739.352 L 610.333 641.112 C 610.333 639.608 611.552 638.389 613.055 638.389 L 676.735 638.389 C 678.237 638.389 679.456 639.608 679.456 641.112 L 679.456 739.352 Z " fill="rgb(234,232,232)"/><path d=" M 672.005 722.022 L 674.794 725.817 L 672.005 729.612 L 669.215 725.817 L 672.005 722.022 Z " fill="rgb(125,60,64)"/><path d=" M 672.013 729.6 L 674.794 725.817 L 672.013 722.034 L 672.013 729.6 Z " fill="rgb(147,67,72)"/><path d=" M 615.619 648.84 L 616.566 648.84 L 616.566 646.042 L 617.274 645.237 L 619.68 648.84 L 620.801 648.84 L 617.938 644.616 L 620.594 641.503 L 619.418 641.503 L 617.176 644.257 C 616.991 644.497 616.795 644.758 616.599 645.041 L 616.566 645.041 L 616.566 641.503 L 615.619 641.503 L 615.619 648.84 Z " fill="rgb(125,60,64)"/><path d=" M 674.171 731.624 L 673.224 731.624 L 673.224 734.422 L 672.516 735.227 L 670.11 731.624 L 668.989 731.624 L 671.852 735.848 L 669.196 738.961 L 670.372 738.961 L 672.614 736.207 C 672.799 735.967 672.995 735.706 673.191 735.423 L 673.224 735.423 L 673.224 738.961 L 674.171 738.961 L 674.171 731.624 Z " fill="rgb(125,60,64)"/><path d=" M 617.697 658.462 L 614.908 654.667 L 617.697 650.872 L 620.487 654.667 L 617.697 658.462 Z " fill="rgb(125,60,64)"/><path d=" M 617.689 650.884 L 614.908 654.667 L 617.689 658.45 L 617.689 650.884 Z " fill="rgb(147,67,72)"/><path d=" M 661.811 713.798 C 661.811 713.798 665.863 712.331 669.638 708.235 L 669.638 703.218 L 661.811 703.218 L 661.811 713.798 Z " fill="rgb(166,64,69)"/><path d=" M 669.638 700.723 L 669.638 672.569 C 669.638 672.569 666.098 668.057 658.995 667.389 C 658.995 667.389 658.863 695.907 669.638 700.723 Z " fill="rgb(166,64,69)"/><path d=" M 648.86 668.936 L 645.237 668.936 L 645.237 675.585 L 648.86 675.585 L 648.86 668.936 Z " fill="rgb(48,44,50)"/><path d=" M 656.121 666.641 L 652.499 666.641 L 652.499 673.29 L 656.121 673.29 L 656.121 666.641 Z " fill="rgb(48,44,50)"/><path d=" M 645.21 666.296 L 641.589 666.296 L 641.589 672.944 L 645.21 672.944 L 645.21 666.296 Z " fill="rgb(166,64,69)"/><path d=" M 652.482 668.464 L 648.86 668.464 L 648.86 675.112 L 652.482 675.112 L 652.482 668.464 Z " fill="rgb(166,64,69)"/><path d=" M 641.702 664.292 L 638.08 664.292 L 638.08 670.94 L 641.702 670.94 L 641.702 664.292 Z " fill="rgb(48,44,50)"/><path d=" M 638.054 664.159 L 634.431 664.159 L 634.431 668.298 L 638.054 668.298 L 638.054 664.159 Z " fill="rgb(166,64,69)"/><path d=" M 659.966 667.497 C 659.966 667.497 658.698 686.122 669.638 700.723 C 669.624 702.01 669.617 702.663 669.617 702.663 C 669.617 702.663 663.179 699.635 659.516 686.874 C 655.852 674.114 657.513 667.497 657.513 667.497 L 659.966 667.497 Z " fill="rgb(48,44,50)"/><path d=" M 658.292 667.913 C 658.292 667.913 657.957 680.169 660.982 687.514 C 664.007 694.858 666.112 699.866 669.638 702.632 L 669.638 708.235 C 669.638 708.235 659.699 698.626 656.44 687.801 C 653.182 676.975 653.79 667.509 653.79 667.509 L 658.292 667.913 Z " fill="rgb(234,232,232)"/><path d=" M 658.477 667.589 C 658.477 668.048 657.544 668.421 656.394 668.421 C 655.242 668.421 654.31 668.048 654.31 667.589 C 654.31 667.128 655.242 666.755 656.394 666.755 C 657.544 666.755 658.477 667.128 658.477 667.589 Z " fill="rgb(166,64,69)"/><path d=" M 658.322 669.419 C 658.346 669.87 657.453 670.282 656.328 670.341 C 655.202 670.401 654.272 670.083 654.248 669.634 C 654.224 669.184 655.117 668.772 656.243 668.712 C 657.367 668.653 658.299 668.969 658.322 669.419 Z " fill="rgb(166,64,69)"/><path d=" M 658.291 671.526 C 658.338 671.966 657.485 672.419 656.384 672.536 C 655.284 672.655 654.355 672.395 654.308 671.956 C 654.26 671.514 655.113 671.063 656.213 670.944 C 657.313 670.827 658.243 671.087 658.291 671.526 Z " fill="rgb(166,64,69)"/><path d=" M 658.387 673.864 C 658.458 674.294 657.644 674.786 656.568 674.964 C 655.494 675.141 654.566 674.938 654.494 674.509 C 654.423 674.079 655.236 673.587 656.313 673.409 C 657.386 673.231 658.316 673.434 658.387 673.864 Z " fill="rgb(166,64,69)"/><path d=" M 658.615 676.391 C 658.71 676.811 657.936 677.343 656.887 677.579 C 655.837 677.815 654.909 677.669 654.816 677.249 C 654.72 676.831 655.494 676.298 656.543 676.061 C 657.593 675.823 658.521 675.971 658.615 676.391 Z " fill="rgb(166,64,69)"/><path d=" M 658.984 679.063 C 659.102 679.471 658.368 680.044 657.343 680.341 C 656.319 680.635 655.392 680.546 655.275 680.135 C 655.155 679.725 655.891 679.155 656.914 678.858 C 657.939 678.561 658.864 678.653 658.984 679.063 Z " fill="rgb(166,64,69)"/><path d=" M 659.496 681.837 C 659.639 682.235 658.944 682.846 657.945 683.202 C 656.946 683.557 656.022 683.522 655.88 683.124 C 655.737 682.723 656.432 682.112 657.431 681.757 C 658.43 681.401 659.355 681.436 659.496 681.837 Z " fill="rgb(166,64,69)"/><path d=" M 660.161 684.667 C 660.326 685.055 659.672 685.708 658.698 686.122 C 657.725 686.538 656.8 686.559 656.635 686.169 C 656.469 685.78 657.124 685.13 658.098 684.714 C 659.071 684.3 659.996 684.278 660.161 684.667 Z " fill="rgb(166,64,69)"/><path d=" M 660.982 687.514 C 661.171 687.893 660.556 688.585 659.607 689.057 C 658.658 689.532 657.736 689.61 657.547 689.231 C 657.358 688.852 657.973 688.161 658.922 687.686 C 659.87 687.212 660.792 687.135 660.982 687.514 Z " fill="rgb(166,64,69)"/><path d=" M 661.965 690.331 C 662.178 690.7 661.602 691.432 660.679 691.966 C 659.755 692.499 658.834 692.632 658.621 692.262 C 658.408 691.895 658.984 691.163 659.906 690.63 C 660.83 690.096 661.751 689.964 661.965 690.331 Z " fill="rgb(166,64,69)"/><path d=" M 663.116 693.079 C 663.353 693.436 662.818 694.208 661.919 694.801 C 661.021 695.393 660.101 695.583 659.864 695.223 C 659.627 694.866 660.163 694.094 661.061 693.501 C 661.959 692.909 662.879 692.719 663.116 693.079 Z " fill="rgb(166,64,69)"/><path d=" M 664.441 695.71 C 664.701 696.057 664.204 696.87 663.331 697.52 C 662.459 698.173 661.54 698.419 661.279 698.071 C 661.019 697.721 661.516 696.909 662.389 696.259 C 663.261 695.606 664.181 695.36 664.441 695.71 Z " fill="rgb(166,64,69)"/><path d=" M 665.945 698.182 C 666.229 698.52 665.774 699.372 664.926 700.083 C 664.077 700.794 663.159 701.096 662.876 700.757 C 662.592 700.419 663.049 699.567 663.897 698.856 C 664.744 698.145 665.661 697.843 665.945 698.182 Z " fill="rgb(166,64,69)"/><path d=" M 667.636 700.452 C 667.943 700.78 667.526 701.673 666.703 702.442 C 665.882 703.214 664.965 703.571 664.657 703.243 C 664.35 702.915 664.767 702.022 665.589 701.253 C 666.411 700.483 667.328 700.124 667.636 700.452 Z " fill="rgb(166,64,69)"/><path d=" M 669.517 702.477 C 669.849 702.796 669.472 703.727 668.674 704.557 C 667.877 705.387 666.962 705.801 666.63 705.483 C 666.299 705.165 666.677 704.233 667.474 703.403 C 668.271 702.573 669.186 702.159 669.517 702.477 Z " fill="rgb(166,64,69)"/><path d=" M 648.614 683.796 L 642.858 683.796 L 642.858 677.425 L 648.614 677.425 L 648.614 683.796 Z " fill="rgb(73,93,167)"/><path d=" M 643.106 683.526 L 648.614 683.526 L 648.614 689.303 L 643.106 683.526 Z " fill="rgb(183,151,91)"/><path d=" M 642.906 683.036 L 648.712 683.036 L 648.712 678.307 L 642.906 678.307 L 642.906 683.036 Z " fill="rgb(183,151,91)"/><path d=" M 642.906 677.891 L 648.614 677.891 L 648.614 676.346 L 642.906 672.893 L 642.906 677.891 Z " fill="rgb(183,151,91)"/><path d=" M 649.728 689.854 L 649.506 676.45 L 654.231 673.78 C 654.231 673.78 655.159 684.882 656.281 686.874 C 657.403 688.87 649.728 689.854 649.728 689.854 Z " fill="rgb(166,64,69)"/><path d=" M 649.81 689.895 L 648.405 689.2 L 648.405 675.481 L 649.81 675.481 L 649.81 689.895 Z " fill="rgb(218,226,242)"/><path d=" M 650.262 690.421 L 648.86 689.723 L 648.86 676.007 L 650.262 676.007 L 650.262 690.421 Z " fill="rgb(48,44,50)"/><path d=" M 659.441 695.071 C 658.964 693.872 658.158 692.759 657.563 691.612 C 656.592 689.743 655.901 687.764 655.584 685.704 C 655.555 685.704 655.526 685.702 655.497 685.702 C 652.594 685.702 650.111 687.501 649.098 690.042 C 649.313 690.286 649.523 690.536 649.79 690.762 C 650.273 691.169 650.841 691.489 651.344 691.874 C 652.565 692.809 653.498 694.1 654.864 694.835 C 655.894 695.389 656.988 695.772 658.085 696.171 C 658.556 696.341 659.032 696.512 659.522 696.626 C 659.669 696.602 659.818 696.583 659.966 696.561 C 659.785 696.059 659.629 695.548 659.441 695.071 Z " fill="rgb(48,44,50)"/><path d=" M 659.441 695.071 C 658.964 693.872 658.158 692.759 657.563 691.612 C 656.679 689.907 656.026 688.112 655.676 686.247 C 655.616 686.245 655.557 686.243 655.497 686.243 C 652.728 686.243 650.372 688.018 649.506 690.493 C 649.595 690.585 649.688 690.675 649.79 690.762 C 650.273 691.169 650.841 691.489 651.344 691.874 C 652.565 692.809 653.498 694.1 654.864 694.835 C 655.894 695.389 656.988 695.772 658.085 696.171 C 658.556 696.341 659.032 696.512 659.522 696.626 C 659.669 696.602 659.818 696.583 659.966 696.561 C 659.785 696.059 659.629 695.548 659.441 695.071 Z " fill="rgb(183,151,91)"/><path d=" M 657.563 691.612 C 657.174 690.862 656.831 690.094 656.538 689.313 C 656.21 689.208 655.86 689.151 655.497 689.151 C 653.633 689.151 652.119 690.635 652.064 692.485 C 652.965 693.315 653.777 694.251 654.864 694.835 C 655.519 695.186 656.199 695.469 656.892 695.731 C 657.767 695.343 658.447 694.6 658.756 693.684 C 658.36 692.989 657.923 692.305 657.563 691.612 Z " fill="rgb(73,93,167)"/><path d=" M 636.07 679.03 L 641.706 682.282 L 641.992 671.788 L 636.07 668.526 L 636.07 679.03 Z " fill="rgb(166,64,69)"/><path d=" M 643.106 682.882 L 641.702 682.882 L 641.702 672.26 L 643.106 672.26 L 643.106 682.882 Z " fill="rgb(218,226,242)"/><path d=" M 630.707 665.335 C 630.707 665.335 633.132 663.973 635.633 663.622 L 635.935 678.839 C 635.935 678.839 632.098 677.415 630.372 677.481 L 630.707 665.335 Z " fill="rgb(185,200,230)"/><path d=" M 630.707 665.335 L 629.833 665.667 L 629.833 677.376 L 630.707 677.376 L 630.707 665.335 Z " fill="rgb(117,98,98)"/><path d=" M 629.833 665.667 C 629.833 665.667 628.54 666.206 627.98 666.635 L 627.98 677.216 L 629.833 677.216 L 629.833 665.667 Z " fill="rgb(48,44,50)"/><path d=" M 627.98 666.635 C 627.98 666.635 623.926 668.102 620.152 672.198 L 620.152 677.216 L 627.98 677.216 L 627.98 666.635 Z " fill="rgb(166,64,69)"/><path d=" M 642.585 682.409 L 641.182 682.409 L 641.182 671.788 L 642.585 671.788 L 642.585 682.409 Z " fill="rgb(48,44,50)"/><path d=" M 636.507 663.622 L 635.633 663.622 L 635.633 678.55 L 636.507 678.55 L 636.507 663.622 Z " fill="rgb(117,98,98)"/><path d=" M 658.823 696.813 C 658.297 696.813 657.611 696.71 656.75 696.384 C 653.896 695.301 650.407 692.325 646.379 687.534 C 641.527 681.766 636.759 679.473 633.612 678.565 C 630.209 677.583 626.341 677.766 626.318 677.77 L 626.151 676.831 C 626.251 676.813 630.215 676.604 633.814 677.632 C 637.104 678.569 642.08 680.942 647.109 686.921 C 656.157 697.68 659.608 695.723 659.642 695.702 L 660.181 696.487 C 660.11 696.536 659.68 696.813 658.823 696.813 Z " fill="rgb(164,121,83)"/><path d=" M 636.507 667.923 C 636.507 667.923 648.168 675.528 649.27 675.528 C 650.37 675.528 653.675 673.214 653.675 673.214 L 653.675 674.559 C 653.675 674.559 649.691 677.216 649.172 677.216 C 648.653 677.216 636.507 669.344 636.507 669.344 L 636.507 667.923 Z " fill="rgb(218,226,242)"/><path d=" M 637.81 664.278 C 637.81 664.278 647.666 671.524 649.064 671.524 C 650.463 671.524 654.519 667.901 654.519 667.901 L 637.81 664.278 Z " fill="rgb(183,151,91)"/><path d=" M 636.507 666.999 C 636.507 666.999 648.168 674.735 649.27 674.735 C 650.37 674.735 653.675 672.128 653.675 672.128 L 653.675 673.43 C 653.675 673.43 649.691 676.007 649.172 676.007 C 648.653 676.007 636.507 668.376 636.507 668.376 L 636.507 666.999 Z " fill="rgb(183,151,91)"/><path d=" M 653.357 668.436 C 653.357 668.436 653.329 680.741 656.207 688.858 C 659.085 696.973 666.33 708.387 668.461 709.425 L 669.638 708.235 C 669.638 708.235 664.539 704.032 657.243 688.26 C 655.344 680.454 655.279 683.829 654.361 667.923 C 653.443 652.016 653.357 668.436 653.357 668.436 Z " fill="rgb(164,121,83)"/><path d=" M 620.152 679.71 L 620.152 707.864 C 620.152 707.864 623.692 712.376 630.794 713.044 C 630.794 713.044 630.926 684.526 620.152 679.71 Z " fill="rgb(166,64,69)"/><path d=" M 640.931 711.497 L 644.553 711.497 L 644.553 704.848 L 640.931 704.848 L 640.931 711.497 Z " fill="rgb(48,44,50)"/><path d=" M 633.669 713.792 L 637.291 713.792 L 637.291 707.143 L 633.669 707.143 L 633.669 713.792 Z " fill="rgb(48,44,50)"/><path d=" M 644.58 714.137 L 648.201 714.137 L 648.201 707.489 L 644.58 707.489 L 644.58 714.137 Z " fill="rgb(166,64,69)"/><path d=" M 637.309 711.969 L 640.931 711.969 L 640.931 705.321 L 637.309 705.321 L 637.309 711.969 Z " fill="rgb(166,64,69)"/><path d=" M 648.087 716.141 L 651.71 716.141 L 651.71 709.493 L 648.087 709.493 L 648.087 716.141 Z " fill="rgb(48,44,50)"/><path d=" M 651.736 716.274 L 655.359 716.274 L 655.359 712.134 L 651.736 712.134 L 651.736 716.274 Z " fill="rgb(166,64,69)"/><path d=" M 629.824 712.936 C 629.824 712.936 631.092 694.309 620.152 679.71 C 620.165 678.423 620.172 677.77 620.172 677.77 C 620.172 677.77 626.611 680.798 630.275 693.557 C 633.938 706.319 632.277 712.936 632.277 712.936 L 629.824 712.936 Z " fill="rgb(48,44,50)"/><path d=" M 631.497 712.52 C 631.497 712.52 631.833 700.264 628.809 692.921 C 625.783 685.575 623.678 680.567 620.152 677.801 L 620.152 672.198 C 620.152 672.198 625.591 673.303 633.35 692.634 C 636.609 703.458 635.999 712.925 635.999 712.925 L 631.497 712.52 Z " fill="rgb(234,232,232)"/><path d=" M 631.314 712.844 C 631.314 712.385 632.246 712.012 633.397 712.012 C 634.548 712.012 635.48 712.385 635.48 712.844 C 635.48 713.305 634.548 713.676 633.397 713.676 C 632.246 713.676 631.314 713.305 631.314 712.844 Z " fill="rgb(166,64,69)"/><path d=" M 631.468 711.014 C 631.444 710.563 632.337 710.151 633.462 710.093 C 634.587 710.034 635.519 710.35 635.542 710.8 C 635.567 711.249 634.673 711.661 633.548 711.719 C 632.423 711.78 631.491 711.464 631.468 711.014 Z " fill="rgb(166,64,69)"/><path d=" M 631.499 708.907 C 631.451 708.468 632.306 708.016 633.405 707.897 C 634.505 707.778 635.436 708.038 635.483 708.477 C 635.53 708.917 634.677 709.37 633.577 709.489 C 632.477 709.608 631.547 709.346 631.499 708.907 Z " fill="rgb(166,64,69)"/><path d=" M 631.403 706.569 C 631.333 706.139 632.147 705.647 633.222 705.469 C 634.296 705.292 635.225 705.495 635.296 705.925 C 635.366 706.354 634.554 706.846 633.479 707.024 C 632.403 707.202 631.475 706.999 631.403 706.569 Z " fill="rgb(166,64,69)"/><path d=" M 631.175 704.042 C 631.08 703.622 631.855 703.091 632.903 702.854 C 633.953 702.616 634.881 702.764 634.975 703.184 C 635.069 703.604 634.297 704.135 633.247 704.372 C 632.196 704.61 631.27 704.462 631.175 704.042 Z " fill="rgb(166,64,69)"/><path d=" M 630.807 701.37 C 630.688 700.962 631.422 700.389 632.446 700.093 C 633.471 699.798 634.398 699.889 634.516 700.298 C 634.634 700.708 633.9 701.278 632.876 701.575 C 631.852 701.872 630.925 701.78 630.807 701.37 Z " fill="rgb(166,64,69)"/><path d=" M 630.293 698.598 C 630.151 698.198 630.846 697.587 631.845 697.231 C 632.844 696.876 633.769 696.911 633.91 697.309 C 634.053 697.71 633.359 698.321 632.36 698.676 C 631.36 699.032 630.436 698.997 630.293 698.598 Z " fill="rgb(166,64,69)"/><path d=" M 629.629 695.766 C 629.464 695.378 630.118 694.725 631.092 694.309 C 632.066 693.895 632.99 693.876 633.155 694.262 C 633.321 694.653 632.665 695.303 631.693 695.719 C 630.719 696.134 629.794 696.155 629.629 695.766 Z " fill="rgb(166,64,69)"/><path d=" M 628.809 692.921 C 628.618 692.54 629.235 691.848 630.183 691.374 C 631.132 690.901 632.054 690.823 632.243 691.202 C 632.433 691.581 631.818 692.274 630.868 692.747 C 629.92 693.221 628.998 693.298 628.809 692.921 Z " fill="rgb(166,64,69)"/><path d=" M 627.825 690.1 C 627.612 689.733 628.189 689.001 629.111 688.468 C 630.034 687.934 630.956 687.801 631.169 688.171 C 631.382 688.54 630.806 689.27 629.883 689.803 C 628.96 690.337 628.038 690.471 627.825 690.1 Z " fill="rgb(166,64,69)"/><path d=" M 626.674 687.356 C 626.438 686.997 626.974 686.225 627.872 685.632 C 628.77 685.04 629.69 684.85 629.926 685.21 C 630.163 685.569 629.627 686.339 628.729 686.932 C 627.831 687.524 626.911 687.714 626.674 687.356 Z " fill="rgb(166,64,69)"/><path d=" M 625.349 684.723 C 625.089 684.376 625.585 683.563 626.459 682.911 C 627.331 682.26 628.249 682.014 628.51 682.364 C 628.771 682.712 628.274 683.522 627.401 684.175 C 626.528 684.827 625.61 685.073 625.349 684.723 Z " fill="rgb(166,64,69)"/><path d=" M 623.845 682.251 C 623.561 681.913 624.017 681.061 624.864 680.35 C 625.713 679.639 626.63 679.337 626.914 679.676 C 627.198 680.014 626.741 680.866 625.894 681.577 C 625.046 682.288 624.128 682.591 623.845 682.251 Z " fill="rgb(166,64,69)"/><path d=" M 622.154 679.981 C 621.847 679.651 622.264 678.76 623.086 677.991 C 623.908 677.219 624.824 676.862 625.132 677.19 C 625.44 677.52 625.023 678.411 624.201 679.18 C 623.378 679.95 622.462 680.309 622.154 679.981 Z " fill="rgb(166,64,69)"/><path d=" M 620.274 677.956 C 619.942 677.635 620.318 676.706 621.116 675.876 C 621.913 675.046 622.827 674.632 623.159 674.95 C 623.491 675.268 623.113 676.2 622.317 677.03 C 621.52 677.858 620.605 678.272 620.274 677.956 Z " fill="rgb(166,64,69)"/><path d=" M 641.176 696.637 L 646.933 696.637 L 646.933 703.009 L 641.176 703.009 L 641.176 696.637 Z " fill="rgb(73,93,167)"/><path d=" M 646.685 696.907 L 641.176 696.907 L 641.176 691.13 L 646.685 696.907 Z " fill="rgb(183,151,91)"/><path d=" M 646.884 697.397 L 641.077 697.397 L 641.077 702.126 L 646.884 702.126 L 646.884 697.397 Z " fill="rgb(183,151,91)"/><path d=" M 646.884 702.542 L 641.176 702.542 L 641.176 704.085 L 646.884 707.54 L 646.884 702.542 Z " fill="rgb(183,151,91)"/><path d=" M 640.063 690.579 L 640.284 703.983 L 635.56 706.653 C 635.56 706.653 634.632 695.551 633.509 693.557 C 632.387 691.565 640.063 690.579 640.063 690.579 Z " fill="rgb(166,64,69)"/><path d=" M 639.981 690.538 L 641.384 691.233 L 641.384 704.952 L 639.981 704.952 L 639.981 690.538 Z " fill="rgb(218,226,242)"/><path d=" M 639.527 690.012 L 640.931 690.708 L 640.931 704.428 L 639.527 704.428 L 639.527 690.012 Z " fill="rgb(48,44,50)"/><path d=" M 630.35 685.362 C 630.826 686.561 631.632 687.675 632.228 688.823 C 633.197 690.69 633.89 692.669 634.206 694.729 C 634.235 694.729 634.264 694.731 634.293 694.731 C 637.196 694.731 639.679 692.934 640.693 690.391 C 640.478 690.147 640.268 689.897 640 689.671 C 639.518 689.264 638.949 688.944 638.446 688.559 C 637.226 687.624 636.291 686.333 634.926 685.598 C 633.896 685.046 632.801 684.661 631.705 684.262 C 631.235 684.093 630.758 683.921 630.269 683.807 C 630.12 683.831 629.973 683.852 629.824 683.872 C 630.004 684.374 630.16 684.885 630.35 685.362 Z " fill="rgb(48,44,50)"/><path d=" M 630.35 685.362 C 630.826 686.561 631.632 687.675 632.228 688.823 C 633.111 690.526 633.765 692.321 634.114 694.186 C 634.173 694.188 634.233 694.19 634.293 694.19 C 637.064 694.19 639.417 692.415 640.284 689.94 C 640.194 689.848 640.103 689.759 640 689.671 C 639.518 689.264 638.949 688.944 638.446 688.559 C 637.226 687.624 636.291 686.333 634.926 685.598 C 633.896 685.046 632.801 684.661 631.705 684.262 C 631.235 684.093 630.758 683.921 630.269 683.807 C 630.12 683.831 629.973 683.852 629.824 683.872 C 630.004 684.374 630.16 684.885 630.35 685.362 Z " fill="rgb(183,151,91)"/><path d=" M 632.228 688.823 C 632.616 689.571 632.959 690.339 633.252 691.12 C 633.581 691.223 633.93 691.282 634.293 691.282 C 636.157 691.282 637.671 689.798 637.726 687.946 C 636.824 687.118 636.012 686.182 634.926 685.598 C 634.271 685.247 633.59 684.964 632.899 684.7 C 632.025 685.091 631.342 685.833 631.034 686.749 C 631.43 687.444 631.867 688.128 632.228 688.823 Z " fill="rgb(73,93,167)"/><path d=" M 653.72 701.403 L 648.084 698.151 L 647.799 708.645 L 653.72 711.907 L 653.72 701.403 Z " fill="rgb(166,64,69)"/><path d=" M 646.685 697.551 L 648.087 697.551 L 648.087 708.173 L 646.685 708.173 L 646.685 697.551 Z " fill="rgb(218,226,242)"/><path d=" M 659.083 715.098 C 659.083 715.098 656.658 716.46 654.157 716.809 L 653.855 701.594 C 653.855 701.594 657.693 703.016 659.417 702.952 L 659.083 715.098 Z " fill="rgb(185,200,230)"/><path d=" M 659.083 715.098 L 659.956 714.768 L 659.956 703.055 L 659.083 703.055 L 659.083 715.098 Z " fill="rgb(117,98,98)"/><path d=" M 659.956 714.768 C 659.956 714.768 661.25 714.229 661.811 713.798 L 661.811 703.218 L 659.956 703.218 L 659.956 714.768 Z " fill="rgb(48,44,50)"/><path d=" M 647.206 698.024 L 648.609 698.024 L 648.609 708.645 L 647.206 708.645 L 647.206 698.024 Z " fill="rgb(48,44,50)"/><path d=" M 653.283 716.809 L 654.157 716.809 L 654.157 701.884 L 653.283 701.884 L 653.283 716.809 Z " fill="rgb(117,98,98)"/><path d=" M 630.966 683.62 C 631.492 683.62 632.179 683.723 633.04 684.05 C 635.895 685.132 639.383 688.108 643.411 692.897 C 648.263 698.667 653.031 700.96 656.178 701.868 C 659.581 702.85 663.28 702.397 663.304 702.391 L 663.471 703.331 C 663.37 703.348 659.576 703.827 655.976 702.801 C 652.687 701.864 647.71 699.493 642.681 693.512 C 633.632 682.753 630.183 684.712 630.149 684.731 L 629.61 683.946 C 629.679 683.897 630.11 683.62 630.966 683.62 Z " fill="rgb(164,121,83)"/><path d=" M 653.283 712.51 C 653.283 712.51 641.622 704.905 640.521 704.905 C 639.42 704.905 636.115 707.219 636.115 707.219 L 636.115 705.874 C 636.115 705.874 640.1 703.218 640.618 703.218 C 641.137 703.218 653.283 711.089 653.283 711.089 L 653.283 712.51 Z " fill="rgb(218,226,242)"/><path d=" M 651.98 716.155 C 651.98 716.155 642.124 708.911 640.726 708.911 C 639.327 708.911 635.271 712.532 635.271 712.532 L 651.98 716.155 Z " fill="rgb(183,151,91)"/><path d=" M 653.283 713.434 C 653.283 713.434 641.622 705.7 640.521 705.7 C 639.42 705.7 636.115 708.305 636.115 708.305 L 636.115 707.003 C 636.115 707.003 640.1 704.428 640.618 704.428 C 641.137 704.428 653.283 712.057 653.283 712.057 L 653.283 713.434 Z " fill="rgb(183,151,91)"/><path d=" M 636.434 711.997 C 636.434 711.997 636.461 699.692 633.583 691.575 C 630.704 683.46 624.123 672.167 621.168 671.163 L 620.152 672.198 C 622.704 673.489 630.997 686.038 632.547 692.173 C 634.445 699.979 634.511 696.604 635.428 712.51 C 636.347 728.417 636.434 711.997 636.434 711.997 Z " fill="rgb(164,121,83)"/><path d=" M 654.783 651.378 C 654.783 651.378 654.157 657.212 654.783 658.409 C 655.41 659.604 656.606 662.251 656.606 662.251 C 656.606 662.251 654.015 661.311 653.958 663.987 C 653.901 666.663 656.093 666.52 656.89 666.52 C 657.688 666.52 659.993 665.583 658.485 661.882 C 656.976 658.18 656.706 659.661 656.471 656.985 C 656.235 654.309 656.471 651.548 656.471 651.548 L 654.783 651.378 Z " fill="rgb(221,220,219)"/><path d=" M 655.609 649.663 C 655.609 649.663 654.984 655.499 655.609 656.694 C 656.235 657.889 657.431 660.536 657.431 660.536 C 657.431 660.536 654.84 659.598 654.783 662.274 C 654.727 664.95 656.918 664.807 657.715 664.807 C 658.513 664.807 660.818 663.868 659.31 660.167 C 657.801 656.466 657.531 657.946 657.297 655.27 C 657.061 652.594 657.297 649.833 657.297 649.833 L 655.609 649.663 Z " fill="rgb(234,232,232)"/><path d=" M 656.702 658.061 C 656.702 658.061 661.178 675.1 651.02 675.1 C 640.86 675.1 642.068 662.098 645.241 657.52 C 648.416 652.942 656.702 658.061 656.702 658.061 Z " fill="rgb(221,220,219)"/><path d=" M 656.483 650.96 C 656.483 650.96 657.231 653.796 656.777 654.702 C 656.324 655.608 656.785 657.165 656.702 658.061 C 656.62 658.958 655.399 660.493 652.74 658.68 C 652.74 658.68 645.886 662.344 645.826 657.618 C 645.768 652.889 646.103 650.37 646.103 650.37 C 646.103 650.37 654.375 649.444 656.483 650.96 Z " fill="rgb(218,226,242)"/><path d=" M 637.895 648.866 C 637.895 648.866 638.522 654.702 637.895 655.897 C 637.269 657.093 636.073 659.739 636.073 659.739 C 636.073 659.739 638.664 658.801 638.721 661.477 C 638.777 664.153 636.585 664.01 635.788 664.01 C 634.991 664.01 632.686 663.071 634.194 659.37 C 635.703 655.669 635.972 657.149 636.207 654.473 C 636.443 651.798 636.207 649.036 636.207 649.036 L 637.895 648.866 Z " fill="rgb(107,107,110)"/><path d=" M 638.692 649.663 C 638.692 649.663 639.318 655.499 638.692 656.694 C 638.066 657.889 636.87 660.536 636.87 660.536 C 636.87 660.536 639.461 659.598 639.518 662.274 C 639.575 664.95 637.383 664.807 636.585 664.807 C 635.788 664.807 633.483 663.868 634.991 660.167 C 636.5 656.466 636.769 657.946 637.005 655.27 C 637.24 652.594 637.005 649.833 637.005 649.833 L 638.692 649.663 Z " fill="rgb(130,132,134)"/><path d=" M 639.859 650.489 C 639.859 650.489 640.485 656.323 639.859 657.52 C 639.234 658.716 638.037 661.362 638.037 661.362 C 638.037 661.362 640.628 660.423 640.685 663.098 C 640.741 665.774 638.55 665.632 637.753 665.632 C 636.955 665.632 634.65 664.694 636.158 660.993 C 637.667 657.292 637.936 658.772 638.172 656.096 C 638.407 653.421 638.172 650.659 638.172 650.659 L 639.859 650.489 Z " fill="rgb(149,153,154)"/><path d=" M 641.557 650.745 C 641.557 650.745 642.183 656.581 641.557 657.776 C 640.931 658.971 639.735 661.62 639.735 661.62 C 639.735 661.62 642.325 660.678 642.383 663.356 C 642.44 666.032 640.247 665.889 639.45 665.889 C 638.653 665.889 636.348 664.95 637.857 661.249 C 639.365 657.548 639.634 659.028 639.869 656.352 C 640.105 653.676 639.869 650.915 639.869 650.915 L 641.557 650.745 Z " fill="rgb(171,174,175)"/><path d=" M 643.208 650.489 C 643.208 650.489 643.834 656.323 643.208 657.52 C 642.581 658.716 641.386 661.362 641.386 661.362 C 641.386 661.362 643.977 660.423 644.033 663.098 C 644.091 665.774 641.899 665.632 641.102 665.632 C 640.304 665.632 637.998 664.694 639.507 660.993 C 641.016 657.292 641.285 658.772 641.521 656.096 C 641.756 653.421 641.521 650.659 641.521 650.659 L 643.208 650.489 Z " fill="rgb(196,196,195)"/><path d=" M 644.888 650.26 C 644.888 650.26 645.514 656.096 644.888 657.292 C 644.261 658.487 643.066 661.135 643.066 661.135 C 643.066 661.135 645.656 660.196 645.713 662.872 C 645.771 665.548 643.578 665.405 642.78 665.405 C 641.984 665.405 639.678 664.466 641.187 660.764 C 642.695 657.065 642.964 658.544 643.2 655.868 C 643.436 653.192 643.2 650.432 643.2 650.432 L 644.888 650.26 Z " fill="rgb(221,220,219)"/><path d=" M 646.396 649.948 C 646.396 649.948 647.023 655.782 646.396 656.979 C 645.771 658.175 644.574 660.821 644.574 660.821 C 644.574 660.821 647.165 659.882 647.222 662.557 C 647.278 665.235 645.087 665.093 644.289 665.093 C 643.492 665.093 641.187 664.153 642.695 660.452 C 644.204 656.751 644.473 658.231 644.709 655.555 C 644.944 652.88 644.709 650.118 644.709 650.118 L 646.396 649.948 Z " fill="rgb(234,232,232)"/><path d=" M 652.74 658.68 C 652.74 658.68 655.482 658.921 656.471 660.591 C 656.471 660.591 655.018 661.993 652.9 660.948 C 652.9 660.948 650.5 661.866 648.305 661.227 C 648.305 661.227 649.824 658.917 652.74 658.68 Z " fill="rgb(234,232,232)"/><path d=" M 634.69 642.991 L 638.026 642.296 L 638.701 645.542 C 639.543 645.344 640.431 645.184 641.345 645.053 L 640.966 641.96 L 644.506 641.526 L 644.894 644.69 C 645.901 644.622 646.905 644.581 647.88 644.557 L 647.88 641.311 L 651.493 641.311 L 651.493 644.553 C 652.589 644.575 653.577 644.614 654.401 644.655 L 654.948 641.399 L 658.836 642.053 L 657.523 649.864 L 656.8 649.743 L 656.791 650.091 L 637.356 650.839 L 637.321 650.532 L 636.301 650.745 L 634.69 642.991 Z " fill="rgb(183,151,91)"/><path d=" M 657.297 651.186 C 657.297 651.186 647.293 649.659 636.31 652.253 L 636.207 650.489 C 636.207 650.489 649.975 647.274 657.577 649.663 L 657.297 651.186 Z " fill="rgb(48,44,50)"/><path d=" M 653.839 653.614 C 653.839 653.614 654.503 653.345 655.238 653.338 C 655.42 653.327 655.61 653.353 655.781 653.382 C 655.953 653.431 656.102 653.522 656.224 653.59 C 656.432 653.807 656.512 653.967 656.512 653.967 L 656.488 653.988 C 656.488 653.988 656.298 653.923 656.098 653.809 C 655.975 653.781 655.84 653.749 655.702 653.689 C 655.549 653.676 655.395 653.608 655.226 653.593 C 654.889 653.555 654.541 653.564 654.281 653.59 C 654.021 653.609 653.847 653.645 653.847 653.645 L 653.839 653.614 Z " fill="rgb(130,132,134)"/><path d=" M 650.929 653.645 C 650.929 653.645 650.755 653.609 650.494 653.59 C 650.235 653.564 649.887 653.555 649.55 653.593 C 649.381 653.608 649.227 653.676 649.073 653.689 C 648.936 653.749 648.801 653.781 648.678 653.809 C 648.478 653.923 648.287 653.988 648.287 653.988 L 648.264 653.967 C 648.264 653.967 648.344 653.807 648.552 653.59 C 648.674 653.522 648.822 653.431 648.994 653.382 C 649.166 653.353 649.356 653.327 649.537 653.338 C 650.273 653.345 650.937 653.614 650.937 653.614 L 650.929 653.645 Z " fill="rgb(130,132,134)"/><path d=" M 651.861 654.843 C 651.861 654.843 651.71 655.015 651.417 655.201 C 651.269 655.283 651.091 655.391 650.882 655.451 C 650.673 655.515 650.447 655.583 650.212 655.588 C 649.977 655.627 649.741 655.622 649.525 655.572 C 649.302 655.555 649.108 655.487 648.954 655.399 C 648.64 655.24 648.458 655.099 648.458 655.099 L 648.472 655.07 C 648.472 655.07 648.712 655.085 649.031 655.157 C 649.189 655.211 649.377 655.227 649.575 655.259 C 649.774 655.294 649.984 655.343 650.2 655.333 C 650.418 655.352 650.63 655.312 650.831 655.273 C 651.031 655.236 651.21 655.16 651.364 655.102 C 651.668 654.967 651.84 654.819 651.84 654.819 L 651.861 654.843 Z " fill="rgb(69,71,97)"/><path d=" M 653.949 654.819 C 653.949 654.819 654.077 654.919 654.298 655.009 C 654.519 655.095 654.819 655.194 655.127 655.184 C 655.281 655.189 655.429 655.168 655.569 655.143 C 655.707 655.118 655.843 655.129 655.956 655.095 C 656.185 655.059 656.366 655.07 656.366 655.07 L 656.38 655.099 C 656.38 655.099 656.256 655.216 656.027 655.339 C 655.915 655.407 655.77 655.449 655.607 655.459 C 655.446 655.497 655.273 655.471 655.104 655.438 C 654.932 655.427 654.773 655.356 654.622 655.31 C 654.477 655.25 654.347 655.178 654.244 655.108 C 654.036 654.968 653.928 654.843 653.928 654.843 L 653.949 654.819 Z " fill="rgb(69,71,97)"/><path d=" M 653.353 654.326 C 653.353 654.326 653.32 654.794 653.381 655.489 C 653.411 655.836 653.473 656.236 653.573 656.655 C 653.625 656.864 653.71 657.069 653.778 657.282 C 653.887 657.482 653.996 657.686 654.107 657.89 C 654.166 657.974 654.204 658.137 654.208 658.292 C 654.192 658.444 654.134 658.58 654.039 658.69 C 653.851 658.899 653.604 658.994 653.374 659.052 C 653.141 659.097 652.909 659.124 652.694 659.083 C 652.481 659.049 652.279 658.99 652.114 658.888 C 651.947 658.8 651.81 658.67 651.733 658.535 C 651.632 658.412 651.613 658.271 651.584 658.169 C 651.57 657.953 651.581 657.837 651.581 657.837 L 651.612 657.837 C 651.612 657.837 651.633 657.956 651.691 658.139 C 651.743 658.223 651.777 658.335 651.877 658.424 C 651.955 658.524 652.086 658.601 652.229 658.663 C 652.369 658.733 652.546 658.766 652.729 658.778 C 652.911 658.79 653.108 658.784 653.303 658.743 C 653.495 658.696 653.682 658.611 653.816 658.489 C 653.947 658.346 653.975 658.216 653.874 657.999 C 653.774 657.786 653.674 657.573 653.574 657.363 C 653.513 657.135 653.436 656.915 653.393 656.697 C 653.309 656.259 653.276 655.847 653.27 655.495 C 653.257 654.789 653.321 654.324 653.321 654.324 L 653.353 654.326 Z " fill="rgb(69,71,97)"/><path d=" M 635.006 729.089 C 635.006 729.089 635.633 723.253 635.006 722.055 C 634.38 720.86 633.185 718.214 633.185 718.214 C 633.185 718.214 635.775 719.153 635.832 716.475 C 635.889 713.801 633.697 713.942 632.9 713.942 C 632.103 713.942 629.797 714.882 631.306 718.583 C 632.815 722.284 633.083 720.803 633.318 723.479 C 633.555 726.155 633.318 728.917 633.318 728.917 L 635.006 729.089 Z " fill="rgb(221,220,219)"/><path d=" M 634.181 730.801 C 634.181 730.801 634.807 724.966 634.181 723.77 C 633.555 722.575 632.36 719.926 632.36 719.926 C 632.36 719.926 634.949 720.866 635.007 718.19 C 635.064 715.514 632.872 715.657 632.074 715.657 C 631.277 715.657 628.972 716.596 630.481 720.298 C 631.989 723.999 632.258 722.518 632.493 725.194 C 632.729 727.87 632.493 730.632 632.493 730.632 L 634.181 730.801 Z " fill="rgb(234,232,232)"/><path d=" M 633.088 722.403 C 633.088 722.403 628.612 705.364 638.771 705.364 C 648.929 705.364 647.723 718.366 644.548 722.944 C 641.374 727.522 633.088 722.403 633.088 722.403 Z " fill="rgb(221,220,219)"/><path d=" M 633.308 729.505 C 633.308 729.505 632.56 726.667 633.013 725.762 C 633.466 724.856 633.005 723.3 633.088 722.403 C 633.17 721.509 634.391 719.971 637.05 721.784 C 637.05 721.784 643.904 718.12 643.964 722.846 C 644.023 727.573 643.688 730.094 643.688 730.094 C 643.688 730.094 635.415 731.02 633.308 729.505 Z " fill="rgb(218,226,242)"/><path d=" M 651.895 731.598 C 651.895 731.598 651.269 725.762 651.895 724.567 C 652.522 723.372 653.717 720.725 653.717 720.725 C 653.717 720.725 651.126 721.665 651.069 718.987 C 651.013 716.311 653.204 716.454 654.002 716.454 C 654.799 716.454 657.105 717.393 655.596 721.094 C 654.087 724.796 653.818 723.315 653.582 725.991 C 653.347 728.667 653.582 731.428 653.582 731.428 L 651.895 731.598 Z " fill="rgb(107,107,110)"/><path d=" M 651.098 730.801 C 651.098 730.801 650.472 724.966 651.098 723.77 C 651.725 722.575 652.92 719.926 652.92 719.926 C 652.92 719.926 650.329 720.866 650.273 718.19 C 650.215 715.514 652.407 715.657 653.204 715.657 C 654.002 715.657 656.308 716.596 654.799 720.298 C 653.29 723.999 653.021 722.518 652.785 725.194 C 652.55 727.87 652.785 730.632 652.785 730.632 L 651.098 730.801 Z " fill="rgb(130,132,134)"/><path d=" M 649.931 729.975 C 649.931 729.975 649.305 724.139 649.931 722.944 C 650.557 721.749 651.753 719.102 651.753 719.102 C 651.753 719.102 649.162 720.042 649.106 717.366 C 649.048 714.69 651.24 714.831 652.037 714.831 C 652.834 714.831 655.141 715.77 653.631 719.471 C 652.123 723.173 651.854 721.692 651.618 724.368 C 651.383 727.044 651.618 729.805 651.618 729.805 L 649.931 729.975 Z " fill="rgb(149,153,154)"/><path d=" M 648.234 729.719 C 648.234 729.719 647.607 723.884 648.234 722.688 C 648.86 721.493 650.055 718.844 650.055 718.844 C 650.055 718.844 647.464 719.786 647.407 717.108 C 647.351 714.432 649.542 714.575 650.34 714.575 C 651.137 714.575 653.443 715.514 651.934 719.216 C 650.425 722.917 650.155 721.436 649.921 724.112 C 649.685 726.788 649.921 729.55 649.921 729.55 L 648.234 729.719 Z " fill="rgb(171,174,175)"/><path d=" M 646.582 729.975 C 646.582 729.975 645.956 724.139 646.582 722.944 C 647.208 721.749 648.403 719.102 648.403 719.102 C 648.403 719.102 645.814 720.042 645.756 717.366 C 645.699 714.69 647.892 714.831 648.689 714.831 C 649.485 714.831 651.791 715.77 650.282 719.471 C 648.774 723.173 648.505 721.692 648.269 724.368 C 648.034 727.044 648.269 729.805 648.269 729.805 L 646.582 729.975 Z " fill="rgb(196,196,195)"/><path d=" M 644.902 730.204 C 644.902 730.204 644.276 724.368 644.902 723.173 C 645.528 721.977 646.725 719.329 646.725 719.329 C 646.725 719.329 644.134 720.268 644.077 717.593 C 644.02 714.917 646.212 715.059 647.009 715.059 C 647.806 715.059 650.112 715.999 648.604 719.7 C 647.095 723.399 646.825 721.921 646.59 724.596 C 646.355 727.272 646.59 730.032 646.59 730.032 L 644.902 730.204 Z " fill="rgb(221,220,219)"/><path d=" M 643.394 730.516 C 643.394 730.516 642.768 724.68 643.394 723.485 C 644.02 722.29 645.216 719.643 645.216 719.643 C 645.216 719.643 642.625 720.581 642.568 717.907 C 642.511 715.231 644.703 715.374 645.5 715.374 C 646.298 715.374 648.604 716.311 647.095 720.012 C 645.586 723.714 645.317 722.233 645.081 724.909 C 644.846 727.585 645.081 730.346 645.081 730.346 L 643.394 730.516 Z " fill="rgb(234,232,232)"/><path d=" M 637.05 721.784 C 637.05 721.784 634.309 721.544 633.318 719.874 C 633.318 719.874 634.773 718.471 636.891 719.516 C 636.891 719.516 639.29 718.598 641.485 719.237 C 641.485 719.237 639.966 721.548 637.05 721.784 Z " fill="rgb(234,232,232)"/><path d=" M 655.101 737.473 L 651.764 738.167 L 651.089 734.923 C 650.247 735.12 649.36 735.28 648.445 735.411 L 648.823 738.505 L 645.284 738.938 L 644.897 735.774 C 643.889 735.843 642.885 735.884 641.909 735.907 L 641.909 739.153 L 638.297 739.153 L 638.297 735.911 C 637.201 735.889 636.213 735.85 635.389 735.809 L 634.841 739.065 L 630.954 738.411 L 632.267 730.6 L 632.99 730.723 L 632.999 730.376 L 652.435 729.626 L 652.469 729.932 L 653.489 729.719 L 655.101 737.473 Z " fill="rgb(183,151,91)"/><path d=" M 632.493 729.278 C 632.493 729.278 642.496 730.805 653.48 728.214 L 653.582 729.975 C 653.582 729.975 639.815 733.19 632.213 730.801 L 632.493 729.278 Z " fill="rgb(48,44,50)"/><path d=" M 635.95 726.85 C 635.95 726.85 635.286 727.119 634.551 727.127 C 634.369 727.137 634.18 727.111 634.008 727.083 C 633.836 727.033 633.688 726.942 633.566 726.875 C 633.358 726.657 633.277 726.498 633.277 726.498 L 633.301 726.476 C 633.301 726.476 633.491 726.542 633.692 726.655 C 633.815 726.683 633.949 726.716 634.087 726.775 C 634.24 726.788 634.395 726.856 634.564 726.872 C 634.901 726.909 635.248 726.9 635.508 726.875 C 635.769 726.855 635.943 726.819 635.943 726.819 L 635.95 726.85 Z " fill="rgb(130,132,134)"/><path d=" M 638.861 726.819 C 638.861 726.819 639.035 726.855 639.296 726.875 C 639.556 726.9 639.903 726.909 640.24 726.872 C 640.409 726.856 640.563 726.788 640.717 726.775 C 640.855 726.716 640.989 726.683 641.112 726.655 C 641.313 726.542 641.503 726.476 641.503 726.476 L 641.526 726.498 C 641.526 726.498 641.446 726.657 641.238 726.875 C 641.116 726.942 640.968 727.033 640.796 727.083 C 640.624 727.111 640.435 727.137 640.253 727.127 C 639.518 727.119 638.854 726.85 638.854 726.85 L 638.861 726.819 Z " fill="rgb(130,132,134)"/><path d=" M 637.929 725.622 C 637.929 725.622 638.08 725.449 638.373 725.263 C 638.522 725.181 638.699 725.073 638.908 725.013 C 639.117 724.949 639.343 724.882 639.578 724.877 C 639.814 724.838 640.049 724.843 640.266 724.892 C 640.488 724.909 640.683 724.977 640.836 725.065 C 641.151 725.224 641.332 725.365 641.332 725.365 L 641.318 725.394 C 641.318 725.394 641.078 725.38 640.759 725.307 C 640.602 725.254 640.413 725.237 640.215 725.206 C 640.017 725.171 639.807 725.121 639.59 725.132 C 639.372 725.112 639.16 725.152 638.959 725.191 C 638.759 725.228 638.58 725.304 638.426 725.362 C 638.122 725.498 637.95 725.645 637.95 725.645 L 637.929 725.622 Z " fill="rgb(69,71,97)"/><path d=" M 635.841 725.645 C 635.841 725.645 635.713 725.546 635.492 725.455 C 635.272 725.369 634.971 725.27 634.663 725.28 C 634.509 725.276 634.361 725.297 634.221 725.321 C 634.083 725.346 633.947 725.336 633.834 725.369 C 633.606 725.405 633.424 725.394 633.424 725.394 L 633.41 725.365 C 633.41 725.365 633.534 725.249 633.763 725.126 C 633.875 725.057 634.021 725.015 634.184 725.006 C 634.344 724.968 634.518 724.993 634.687 725.026 C 634.859 725.037 635.018 725.108 635.168 725.154 C 635.314 725.215 635.443 725.286 635.546 725.356 C 635.754 725.496 635.862 725.622 635.862 725.622 L 635.841 725.645 Z " fill="rgb(69,71,97)"/><path d=" M 636.438 726.138 C 636.438 726.138 636.47 725.671 636.409 724.976 C 636.379 724.63 636.318 724.228 636.217 723.809 C 636.165 723.601 636.08 723.396 636.012 723.183 C 635.904 722.982 635.794 722.778 635.685 722.575 C 635.624 722.491 635.587 722.329 635.581 722.174 C 635.599 722.021 635.656 721.885 635.751 721.775 C 635.939 721.565 636.186 721.471 636.415 721.413 C 636.649 721.368 636.88 721.342 637.095 721.383 C 637.308 721.417 637.51 721.474 637.675 721.577 C 637.842 721.666 637.979 721.796 638.057 721.929 C 638.156 722.053 638.176 722.193 638.204 722.296 C 638.219 722.511 638.208 722.628 638.208 722.628 L 638.177 722.628 C 638.177 722.628 638.156 722.509 638.099 722.325 C 638.046 722.241 638.011 722.13 637.912 722.042 C 637.834 721.941 637.703 721.863 637.56 721.802 C 637.42 721.731 637.243 721.698 637.061 721.687 C 636.878 721.676 636.682 721.681 636.486 721.721 C 636.294 721.768 636.108 721.854 635.975 721.976 C 635.843 722.119 635.815 722.25 635.916 722.467 C 636.017 722.679 636.117 722.892 636.216 723.102 C 636.277 723.33 636.355 723.55 636.398 723.768 C 636.482 724.206 636.515 724.618 636.521 724.97 C 636.533 725.676 636.469 726.14 636.469 726.14 L 636.438 726.138 Z " fill="rgb(69,71,97)"/></g></svg>