<?xml version="1.0" encoding="UTF-8" standalone="no"?><!-- Generator: Gravit.io --><svg xmlns="http://www.w3.org/2000/svg" xmlns:xlink="http://www.w3.org/1999/xlink" style="isolation:isolate" viewBox="91.933 7.585 69.124 103.685" width="69.124pt" height="103.685pt"><g><g><path d=" M 161.057 108.548 C 161.057 110.051 159.838 111.27 158.335 111.27 L 94.655 111.27 C 93.152 111.27 91.933 110.051 91.933 108.548 L 91.933 10.306 C 91.933 8.802 93.152 7.585 94.655 7.585 L 158.335 7.585 C 159.838 7.585 161.057 8.802 161.057 10.306 L 161.057 108.548 Z " fill="rgb(234,232,232)"/><path d=" M 126.478 48.306 L 121.208 41.138 L 126.478 33.97 L 131.749 41.138 L 126.478 48.306 Z " fill="rgb(125,60,64)"/><path d=" M 126.463 33.993 L 121.208 41.138 L 126.463 48.284 L 126.463 33.993 Z " fill="rgb(147,67,72)"/><path d=" M 126.478 84.883 L 121.208 77.715 L 126.478 70.547 L 131.749 77.715 L 126.478 84.883 Z " fill="rgb(125,60,64)"/><path d=" M 126.463 70.569 L 121.208 77.715 L 126.463 84.86 L 126.463 70.569 Z " fill="rgb(147,67,72)"/><path d=" M 101.557 18.034 L 101.557 17.24 L 98.39 17.24 L 98.39 17.218 L 98.945 16.695 C 100.436 15.259 101.383 14.203 101.383 12.896 C 101.383 11.884 100.741 10.839 99.217 10.839 C 98.411 10.839 97.704 11.155 97.225 11.557 L 97.53 12.232 C 97.856 11.96 98.39 11.634 99.032 11.634 C 100.088 11.634 100.425 12.298 100.425 13.016 C 100.425 14.083 99.598 14.997 97.791 16.717 L 97.04 17.447 L 97.04 18.034 L 101.557 18.034 Z " fill="rgb(125,60,64)"/><path d=" M 151.432 100.82 L 151.432 101.614 L 154.599 101.614 L 154.599 101.636 L 154.044 102.159 C 152.553 103.595 151.606 104.651 151.606 105.958 C 151.606 106.97 152.248 108.015 153.772 108.015 C 154.578 108.015 155.285 107.699 155.764 107.297 L 155.459 106.622 C 155.133 106.894 154.599 107.22 153.957 107.22 C 152.901 107.22 152.564 106.556 152.564 105.838 C 152.564 104.771 153.391 103.857 155.198 102.137 L 155.949 101.407 L 155.949 100.82 L 151.432 100.82 Z " fill="rgb(125,60,64)"/><path d=" M 153.648 91.03 L 156.438 94.825 L 153.648 98.619 L 150.858 94.825 L 153.648 91.03 Z " fill="rgb(125,60,64)"/><path d=" M 153.657 98.608 L 156.438 94.825 L 153.657 91.042 L 153.657 98.608 Z " fill="rgb(147,67,72)"/><path d=" M 99.342 27.468 L 96.552 23.674 L 99.342 19.88 L 102.132 23.674 L 99.342 27.468 Z " fill="rgb(125,60,64)"/><path d=" M 99.333 19.891 L 96.552 23.674 L 99.333 27.457 L 99.333 19.891 Z " fill="rgb(147,67,72)"/></g></g></svg>