<?xml version="1.0" encoding="UTF-8" standalone="no"?><!-- Generator: Gravit.io --><svg xmlns="http://www.w3.org/2000/svg" xmlns:xlink="http://www.w3.org/1999/xlink" style="isolation:isolate" viewBox="491.661 25.977 69.123 103.685" width="69.123pt" height="103.685pt"><g><path d=" M 560.784 126.94 C 560.784 128.443 559.566 129.662 558.063 129.662 L 494.383 129.662 C 492.881 129.662 491.661 128.443 491.661 126.94 L 491.661 28.699 C 491.661 27.195 492.881 25.977 494.383 25.977 L 558.063 25.977 C 559.566 25.977 560.784 27.195 560.784 28.699 L 560.784 126.94 Z " fill="rgb(234,232,232)"/><path d=" M 526.24 84.987 L 520.97 77.819 L 526.24 70.651 L 531.51 77.819 L 526.24 84.987 Z " fill="rgb(125,60,64)"/><path d=" M 526.224 70.673 L 520.97 77.819 L 526.224 84.964 L 526.224 70.673 Z " fill="rgb(147,67,72)"/><path d=" M 541.951 60.463 L 536.681 53.295 L 541.951 46.127 L 547.222 53.295 L 541.951 60.463 Z " fill="rgb(125,60,64)"/><path d=" M 541.936 46.15 L 536.681 53.295 L 541.936 60.441 L 541.936 46.15 Z " fill="rgb(147,67,72)"/><path d=" M 510.479 109.511 L 505.209 102.343 L 510.479 95.174 L 515.749 102.343 L 510.479 109.511 Z " fill="rgb(125,60,64)"/><path d=" M 510.463 95.197 L 505.209 102.343 L 510.463 109.488 L 510.463 95.197 Z " fill="rgb(147,67,72)"/><path d=" M 496.734 36.068 C 497.083 36.297 497.779 36.547 498.574 36.547 C 500.261 36.547 501.154 35.557 501.154 34.425 C 501.143 33.434 500.446 32.781 499.575 32.618 L 499.575 32.596 C 500.435 32.28 500.882 31.66 500.882 30.92 C 500.882 30.06 500.25 29.232 498.857 29.232 C 498.095 29.232 497.376 29.504 496.995 29.777 L 497.257 30.473 C 497.562 30.256 498.106 30.005 498.672 30.005 C 499.554 30.005 499.913 30.506 499.913 31.072 C 499.913 31.91 499.031 32.269 498.334 32.269 L 497.801 32.269 L 497.801 32.988 L 498.334 32.988 C 499.26 32.988 500.152 33.412 500.163 34.403 C 500.174 35.002 499.782 35.775 498.563 35.775 C 497.888 35.775 497.268 35.502 496.995 35.339 L 496.734 36.068 Z " fill="rgb(125,60,64)"/><path d=" M 555.712 119.571 C 555.363 119.343 554.667 119.092 553.872 119.092 C 552.185 119.092 551.292 120.083 551.292 121.215 C 551.303 122.206 552 122.859 552.871 123.022 L 552.871 123.044 C 552.011 123.359 551.564 123.98 551.564 124.72 C 551.564 125.58 552.196 126.407 553.589 126.407 C 554.351 126.407 555.07 126.135 555.451 125.863 L 555.189 125.166 C 554.884 125.384 554.34 125.635 553.774 125.635 C 552.892 125.635 552.533 125.134 552.533 124.568 C 552.533 123.73 553.415 123.37 554.112 123.37 L 554.645 123.37 L 554.645 122.652 L 554.112 122.652 C 553.186 122.652 552.294 122.227 552.283 121.237 C 552.272 120.638 552.664 119.865 553.883 119.865 C 554.558 119.865 555.178 120.137 555.451 120.301 L 555.712 119.571 Z " fill="rgb(125,60,64)"/><path d=" M 553.394 109.599 L 556.183 113.394 L 553.394 117.188 L 550.604 113.394 L 553.394 109.599 Z " fill="rgb(125,60,64)"/><path d=" M 553.401 117.176 L 556.183 113.394 L 553.401 109.611 L 553.401 117.176 Z " fill="rgb(147,67,72)"/><path d=" M 499.086 46.038 L 496.297 42.244 L 499.086 38.449 L 501.876 42.244 L 499.086 46.038 Z " fill="rgb(125,60,64)"/><path d=" M 499.077 38.46 L 496.297 42.244 L 499.077 46.026 L 499.077 38.46 Z " fill="rgb(147,67,72)"/></g></svg>