<?xml version="1.0" encoding="UTF-8" standalone="no"?><!-- Generator: Gravit.io --><svg xmlns="http://www.w3.org/2000/svg" xmlns:xlink="http://www.w3.org/1999/xlink" style="isolation:isolate" viewBox="165.938 132.707 69.124 103.683" width="69.124pt" height="103.683pt"><g><path d=" M 235.062 233.669 C 235.062 235.172 233.843 236.39 232.34 236.39 L 168.66 236.39 C 167.157 236.39 165.938 235.172 165.938 233.669 L 165.938 135.427 C 165.938 133.925 167.157 132.707 168.66 132.707 L 232.34 132.707 C 233.843 132.707 235.062 133.925 235.062 135.427 L 235.062 233.669 Z " fill="rgb(234,232,232)"/><path d=" M 184.756 167.193 L 179.485 160.025 L 184.756 152.857 L 190.025 160.025 L 184.756 167.193 Z " fill="rgb(125,60,64)"/><path d=" M 184.739 152.879 L 179.485 160.025 L 184.739 167.17 L 184.739 152.879 Z " fill="rgb(147,67,72)"/><path d=" M 216.212 167.193 L 210.941 160.025 L 216.212 152.857 L 221.482 160.025 L 216.212 167.193 Z " fill="rgb(125,60,64)"/><path d=" M 216.195 152.879 L 210.941 160.025 L 216.195 167.17 L 216.195 152.879 Z " fill="rgb(147,67,72)"/><path d=" M 184.756 216.241 L 179.485 209.073 L 184.756 201.905 L 190.025 209.073 L 184.756 216.241 Z " fill="rgb(125,60,64)"/><path d=" M 184.739 201.927 L 179.485 209.073 L 184.739 216.218 L 184.739 201.927 Z " fill="rgb(147,67,72)"/><path d=" M 216.212 216.241 L 210.941 209.073 L 216.212 201.905 L 221.482 209.073 L 216.212 216.241 Z " fill="rgb(125,60,64)"/><path d=" M 216.195 201.927 L 210.941 209.073 L 216.195 216.218 L 216.195 201.927 Z " fill="rgb(147,67,72)"/><path d=" M 174.909 143.156 L 174.909 141.218 L 175.9 141.218 L 175.9 140.478 L 174.909 140.478 L 174.909 136.08 L 173.875 136.08 L 170.718 140.598 L 170.718 141.218 L 174.006 141.218 L 174.006 143.156 L 174.909 143.156 Z  M 171.687 140.478 L 171.687 140.456 L 173.418 138.051 C 173.614 137.724 173.788 137.419 174.006 137.006 L 174.038 137.006 C 174.017 137.376 174.006 137.746 174.006 138.116 L 174.006 140.478 L 171.687 140.478 Z " fill="rgb(125,60,64)"/><path d=" M 226.09 225.939 L 226.09 227.877 L 225.099 227.877 L 225.099 228.617 L 226.09 228.617 L 226.09 233.015 L 227.124 233.015 L 230.281 228.497 L 230.281 227.877 L 226.993 227.877 L 226.993 225.939 L 226.09 225.939 Z  M 229.312 228.617 L 229.312 228.639 L 227.581 231.044 C 227.385 231.371 227.211 231.676 226.993 232.089 L 226.961 232.089 C 226.982 231.719 226.993 231.349 226.993 230.979 L 226.993 228.617 L 229.312 228.617 Z " fill="rgb(125,60,64)"/><path d=" M 227.653 216.24 L 230.442 220.034 L 227.653 223.828 L 224.863 220.034 L 227.653 216.24 Z " fill="rgb(125,60,64)"/><path d=" M 227.661 223.816 L 230.442 220.034 L 227.661 216.251 L 227.661 223.816 Z " fill="rgb(147,67,72)"/><path d=" M 173.346 152.677 L 170.557 148.883 L 173.346 145.088 L 176.136 148.883 L 173.346 152.677 Z " fill="rgb(125,60,64)"/><path d=" M 173.337 145.101 L 170.557 148.883 L 173.337 152.666 L 173.337 145.101 Z " fill="rgb(147,67,72)"/></g></svg>