<?xml version="1.0" encoding="UTF-8" standalone="no"?><!-- Generator: Gravit.io --><svg xmlns="http://www.w3.org/2000/svg" xmlns:xlink="http://www.w3.org/1999/xlink" style="isolation:isolate" viewBox="491.661 132.382 69.123 103.685" width="69.123pt" height="103.685pt"><g><path d=" M 560.784 233.345 C 560.784 234.848 559.565 236.067 558.063 236.067 L 494.383 236.067 C 492.88 236.067 491.661 234.848 491.661 233.345 L 491.661 135.104 C 491.661 133.601 492.88 132.382 494.383 132.382 L 558.063 132.382 C 559.565 132.382 560.784 133.601 560.784 135.104 L 560.784 233.345 Z " fill="rgb(234,232,232)"/><path d=" M 510.479 166.869 L 505.208 159.701 L 510.479 152.533 L 515.749 159.701 L 510.479 166.869 Z " fill="rgb(125,60,64)"/><path d=" M 510.462 152.555 L 505.208 159.701 L 510.462 166.846 L 510.462 152.555 Z " fill="rgb(147,67,72)"/><path d=" M 541.936 166.869 L 536.665 159.701 L 541.936 152.533 L 547.205 159.701 L 541.936 166.869 Z " fill="rgb(125,60,64)"/><path d=" M 541.919 152.555 L 536.665 159.701 L 541.919 166.846 L 541.919 152.555 Z " fill="rgb(147,67,72)"/><path d=" M 510.479 215.917 L 505.208 208.749 L 510.479 201.581 L 515.749 208.749 L 510.479 215.917 Z " fill="rgb(125,60,64)"/><path d=" M 510.462 201.603 L 505.208 208.749 L 510.462 215.894 L 510.462 201.603 Z " fill="rgb(147,67,72)"/><path d=" M 541.936 215.917 L 536.665 208.749 L 541.936 201.581 L 547.205 208.749 L 541.936 215.917 Z " fill="rgb(125,60,64)"/><path d=" M 541.919 201.603 L 536.665 208.749 L 541.919 215.894 L 541.919 201.603 Z " fill="rgb(147,67,72)"/><path d=" M 500.99 135.757 L 497.605 135.757 L 497.148 139.154 C 497.409 139.121 497.725 139.088 498.138 139.088 C 499.543 139.088 500.163 139.731 500.163 140.645 C 500.174 141.592 499.39 142.18 498.498 142.18 C 497.845 142.18 497.268 141.962 496.974 141.788 L 496.734 142.517 C 497.083 142.735 497.725 142.953 498.498 142.953 C 500.033 142.953 501.132 141.919 501.132 140.536 C 501.132 139.654 500.675 139.034 500.12 138.729 C 499.684 138.457 499.151 138.348 498.596 138.348 C 498.334 138.348 498.182 138.359 498.019 138.381 L 498.291 136.563 L 500.99 136.563 L 500.99 135.757 Z " fill="rgb(125,60,64)"/><path d=" M 551.454 232.693 L 554.839 232.693 L 555.296 229.296 C 555.035 229.329 554.719 229.362 554.306 229.362 C 552.901 229.362 552.281 228.719 552.281 227.805 C 552.27 226.858 553.054 226.27 553.946 226.27 C 554.599 226.27 555.176 226.488 555.47 226.662 L 555.71 225.933 C 555.361 225.715 554.719 225.497 553.946 225.497 C 552.411 225.497 551.312 226.531 551.312 227.914 C 551.312 228.796 551.769 229.416 552.324 229.721 C 552.76 229.993 553.293 230.102 553.848 230.102 C 554.11 230.102 554.262 230.091 554.425 230.069 L 554.153 231.887 L 551.454 231.887 L 551.454 232.693 Z " fill="rgb(125,60,64)"/><path d=" M 553.376 215.916 L 556.166 219.709 L 553.376 223.504 L 550.586 219.709 L 553.376 215.916 Z " fill="rgb(125,60,64)"/><path d=" M 553.385 223.492 L 556.166 219.709 L 553.385 215.927 L 553.385 223.492 Z " fill="rgb(147,67,72)"/><path d=" M 499.069 152.354 L 496.279 148.559 L 499.069 144.765 L 501.858 148.559 L 499.069 152.354 Z " fill="rgb(125,60,64)"/><path d=" M 499.061 144.777 L 496.279 148.559 L 499.061 152.342 L 499.061 144.777 Z " fill="rgb(147,67,72)"/><path d=" M 526.223 191.393 L 520.953 184.225 L 526.223 177.057 L 531.493 184.225 L 526.223 191.393 Z " fill="rgb(125,60,64)"/><path d=" M 526.207 177.08 L 520.953 184.225 L 526.207 191.37 L 526.207 177.08 Z " fill="rgb(147,67,72)"/></g></svg>