<?xml version="1.0" encoding="UTF-8" standalone="no"?><!-- Generator: Gravit.io --><svg xmlns="http://www.w3.org/2000/svg" xmlns:xlink="http://www.w3.org/1999/xlink" style="isolation:isolate" viewBox="6.876 179.66 69.124 103.683" width="69.124pt" height="103.683pt"><g><path d=" M 76 280.622 C 76 282.125 74.781 283.343 73.278 283.343 L 9.598 283.343 C 8.095 283.343 6.876 282.125 6.876 280.622 L 6.876 182.38 C 6.876 180.877 8.095 179.66 9.598 179.66 L 73.278 179.66 C 74.781 179.66 76 180.877 76 182.38 L 76 280.622 Z " fill="rgb(234,232,232)"/><path d=" M 25.694 214.146 L 20.423 206.978 L 25.694 199.81 L 30.963 206.978 L 25.694 214.146 Z " fill="rgb(125,60,64)"/><path d=" M 25.677 199.832 L 20.423 206.978 L 25.677 214.123 L 25.677 199.832 Z " fill="rgb(147,67,72)"/><path d=" M 57.15 214.146 L 51.879 206.978 L 57.15 199.81 L 62.42 206.978 L 57.15 214.146 Z " fill="rgb(125,60,64)"/><path d=" M 57.133 199.832 L 51.879 206.978 L 57.133 214.123 L 57.133 199.832 Z " fill="rgb(147,67,72)"/><path d=" M 25.694 238.669 L 20.423 231.501 L 25.694 224.333 L 30.963 231.501 L 25.694 238.669 Z " fill="rgb(125,60,64)"/><path d=" M 25.677 224.356 L 20.423 231.501 L 25.677 238.647 L 25.677 224.356 Z " fill="rgb(147,67,72)"/><path d=" M 57.15 238.669 L 51.879 231.501 L 57.15 224.333 L 62.42 231.501 L 57.15 238.669 Z " fill="rgb(125,60,64)"/><path d=" M 57.133 224.356 L 51.879 231.501 L 57.133 238.647 L 57.133 224.356 Z " fill="rgb(147,67,72)"/><path d=" M 25.694 263.194 L 20.423 256.026 L 25.694 248.857 L 30.963 256.026 L 25.694 263.194 Z " fill="rgb(125,60,64)"/><path d=" M 25.677 248.88 L 20.423 256.026 L 25.677 263.171 L 25.677 248.88 Z " fill="rgb(147,67,72)"/><path d=" M 57.15 263.194 L 51.879 256.026 L 57.15 248.857 L 62.42 256.026 L 57.15 263.194 Z " fill="rgb(125,60,64)"/><path d=" M 57.133 248.88 L 51.879 256.026 L 57.133 263.171 L 57.133 248.88 Z " fill="rgb(147,67,72)"/><path d=" M 16.021 182.924 C 15.847 182.924 15.608 182.935 15.325 182.979 C 14.432 183.088 13.648 183.447 13.061 184.024 C 12.353 184.721 11.863 185.82 11.863 187.213 C 11.863 189.053 12.854 190.229 14.356 190.229 C 15.836 190.229 16.718 189.031 16.718 187.725 C 16.718 186.353 15.836 185.439 14.585 185.439 C 13.801 185.439 13.202 185.809 12.865 186.266 L 12.843 186.266 C 13.006 185.091 13.79 184.002 15.303 183.763 C 15.575 183.719 15.825 183.697 16.021 183.708 L 16.021 182.924 Z  M 14.378 189.488 C 13.365 189.488 12.821 188.618 12.81 187.453 C 12.81 187.279 12.854 187.148 12.908 187.039 C 13.169 186.517 13.714 186.168 14.291 186.168 C 15.172 186.168 15.749 186.778 15.749 187.79 C 15.749 188.803 15.194 189.488 14.378 189.488 Z " fill="rgb(125,60,64)"/><path d=" M 66.854 280.077 C 67.028 280.077 67.267 280.067 67.55 280.023 C 68.443 279.914 69.227 279.555 69.814 278.978 C 70.522 278.281 71.012 277.182 71.012 275.788 C 71.012 273.949 70.021 272.773 68.519 272.773 C 67.039 272.773 66.157 273.971 66.157 275.277 C 66.157 276.648 67.039 277.563 68.29 277.563 C 69.074 277.563 69.673 277.193 70.01 276.736 L 70.032 276.736 C 69.869 277.911 69.085 279 67.572 279.239 C 67.3 279.283 67.05 279.305 66.854 279.294 L 66.854 280.077 Z  M 68.497 273.513 C 69.51 273.513 70.054 274.384 70.065 275.549 C 70.065 275.723 70.021 275.854 69.967 275.963 C 69.706 276.485 69.161 276.834 68.584 276.834 C 67.703 276.834 67.126 276.224 67.126 275.212 C 67.126 274.199 67.681 273.513 68.497 273.513 Z " fill="rgb(125,60,64)"/><path d=" M 68.591 263.192 L 71.38 266.987 L 68.591 270.781 L 65.801 266.987 L 68.591 263.192 Z " fill="rgb(125,60,64)"/><path d=" M 68.599 270.769 L 71.38 266.987 L 68.599 263.204 L 68.599 270.769 Z " fill="rgb(147,67,72)"/><path d=" M 14.284 199.63 L 11.495 195.835 L 14.284 192.041 L 17.074 195.835 L 14.284 199.63 Z " fill="rgb(125,60,64)"/><path d=" M 14.275 192.053 L 11.495 195.835 L 14.275 199.619 L 14.275 192.053 Z " fill="rgb(147,67,72)"/></g></svg>