<?xml version="1.0" encoding="UTF-8" standalone="no"?><!-- Generator: Gravit.io --><svg xmlns="http://www.w3.org/2000/svg" xmlns:xlink="http://www.w3.org/1999/xlink" style="isolation:isolate" viewBox="486.392 365.345 69.123 103.683" width="69.123pt" height="103.683pt"><g><path d=" M 555.515 466.307 C 555.515 467.81 554.296 469.028 552.794 469.028 L 489.114 469.028 C 487.612 469.028 486.392 467.81 486.392 466.307 L 486.392 368.065 C 486.392 366.562 487.612 365.345 489.114 365.345 L 552.794 365.345 C 554.296 365.345 555.515 366.562 555.515 368.065 L 555.515 466.307 Z " fill="rgb(234,232,232)"/><path d=" M 505.21 399.831 L 499.939 392.663 L 505.21 385.495 L 510.48 392.663 L 505.21 399.831 Z " fill="rgb(125,60,64)"/><path d=" M 505.193 385.517 L 499.939 392.663 L 505.193 399.808 L 505.193 385.517 Z " fill="rgb(147,67,72)"/><path d=" M 536.667 399.831 L 531.396 392.663 L 536.667 385.495 L 541.936 392.663 L 536.667 399.831 Z " fill="rgb(125,60,64)"/><path d=" M 536.65 385.517 L 531.396 392.663 L 536.65 399.808 L 536.65 385.517 Z " fill="rgb(147,67,72)"/><path d=" M 505.21 424.354 L 499.939 417.186 L 505.21 410.018 L 510.48 417.186 L 505.21 424.354 Z " fill="rgb(125,60,64)"/><path d=" M 505.193 410.041 L 499.939 417.186 L 505.193 424.332 L 505.193 410.041 Z " fill="rgb(147,67,72)"/><path d=" M 536.667 424.354 L 531.396 417.186 L 536.667 410.018 L 541.936 417.186 L 536.667 424.354 Z " fill="rgb(125,60,64)"/><path d=" M 536.65 410.041 L 531.396 417.186 L 536.65 424.332 L 536.65 410.041 Z " fill="rgb(147,67,72)"/><path d=" M 505.21 448.879 L 499.939 441.711 L 505.21 434.542 L 510.48 441.711 L 505.21 448.879 Z " fill="rgb(125,60,64)"/><path d=" M 505.193 434.565 L 499.939 441.711 L 505.193 448.856 L 505.193 434.565 Z " fill="rgb(147,67,72)"/><path d=" M 536.667 448.879 L 531.396 441.711 L 536.667 434.542 L 541.936 441.711 L 536.667 448.879 Z " fill="rgb(125,60,64)"/><path d=" M 536.65 434.565 L 531.396 441.711 L 536.65 448.856 L 536.65 434.565 Z " fill="rgb(147,67,72)"/><path d=" M 491.628 368.718 L 491.628 369.513 L 495.09 369.513 L 495.09 369.535 L 492.02 375.794 L 493.01 375.794 L 496.091 369.35 L 496.091 368.718 L 491.628 368.718 Z " fill="rgb(125,60,64)"/><path d=" M 550.279 465.654 L 550.279 464.859 L 546.817 464.859 L 546.817 464.837 L 549.887 458.578 L 548.897 458.578 L 545.816 465.022 L 545.816 465.654 L 550.279 465.654 Z " fill="rgb(125,60,64)"/><path d=" M 548.107 448.877 L 550.897 452.672 L 548.107 456.466 L 545.317 452.672 L 548.107 448.877 Z " fill="rgb(125,60,64)"/><path d=" M 548.116 456.454 L 550.897 452.672 L 548.116 448.889 L 548.116 456.454 Z " fill="rgb(147,67,72)"/><path d=" M 493.8 385.315 L 491.01 381.52 L 493.8 377.726 L 496.589 381.52 L 493.8 385.315 Z " fill="rgb(125,60,64)"/><path d=" M 493.792 377.738 L 491.01 381.52 L 493.792 385.304 L 493.792 377.738 Z " fill="rgb(147,67,72)"/><path d=" M 520.953 410.923 L 515.684 403.755 L 520.953 396.587 L 526.224 403.755 L 520.953 410.923 Z " fill="rgb(125,60,64)"/><path d=" M 520.938 396.609 L 515.684 403.755 L 520.938 410.9 L 520.938 396.609 Z " fill="rgb(147,67,72)"/></g></svg>