<?xml version="1.0" encoding="UTF-8" standalone="no"?><!-- Generator: Gravit.io --><svg xmlns="http://www.w3.org/2000/svg" xmlns:xlink="http://www.w3.org/1999/xlink" style="isolation:isolate" viewBox="62.726 309.519 69.124 103.684" width="69.124pt" height="103.684pt"><g><path d=" M 131.85 410.482 C 131.85 411.986 130.631 413.203 129.128 413.203 L 65.448 413.203 C 63.945 413.203 62.726 411.986 62.726 410.482 L 62.726 312.24 C 62.726 310.737 63.945 309.519 65.448 309.519 L 129.128 309.519 C 130.631 309.519 131.85 310.737 131.85 312.24 L 131.85 410.482 Z " fill="rgb(234,232,232)"/><path d=" M 81.544 344.005 L 76.273 336.837 L 81.544 329.669 L 86.813 336.837 L 81.544 344.005 Z " fill="rgb(125,60,64)"/><path d=" M 81.527 329.691 L 76.273 336.837 L 81.527 343.982 L 81.527 329.691 Z " fill="rgb(147,67,72)"/><path d=" M 113 344.005 L 107.729 336.837 L 113 329.669 L 118.27 336.837 L 113 344.005 Z " fill="rgb(125,60,64)"/><path d=" M 112.983 329.691 L 107.729 336.837 L 112.983 343.982 L 112.983 329.691 Z " fill="rgb(147,67,72)"/><path d=" M 81.544 368.529 L 76.273 361.36 L 81.544 354.192 L 86.813 361.36 L 81.544 368.529 Z " fill="rgb(125,60,64)"/><path d=" M 81.527 354.216 L 76.273 361.36 L 81.527 368.507 L 81.527 354.216 Z " fill="rgb(147,67,72)"/><path d=" M 113 368.529 L 107.729 361.36 L 113 354.192 L 118.27 361.36 L 113 368.529 Z " fill="rgb(125,60,64)"/><path d=" M 112.983 354.216 L 107.729 361.36 L 112.983 368.507 L 112.983 354.216 Z " fill="rgb(147,67,72)"/><path d=" M 81.544 393.054 L 76.273 385.884 L 81.544 378.716 L 86.813 385.884 L 81.544 393.054 Z " fill="rgb(125,60,64)"/><path d=" M 81.527 378.74 L 76.273 385.884 L 81.527 393.031 L 81.527 378.74 Z " fill="rgb(147,67,72)"/><path d=" M 113 393.054 L 107.729 385.884 L 113 378.716 L 118.27 385.884 L 113 393.054 Z " fill="rgb(125,60,64)"/><path d=" M 112.983 378.74 L 107.729 385.884 L 112.983 393.031 L 112.983 378.74 Z " fill="rgb(147,67,72)"/><path d=" M 69.15 316.279 C 68.279 316.649 67.746 317.291 67.746 318.184 C 67.746 319.218 68.638 320.089 70.119 320.089 C 71.469 320.089 72.525 319.272 72.525 318.031 C 72.525 317.182 71.98 316.551 71.099 316.203 L 71.099 316.17 C 71.969 315.767 72.274 315.114 72.274 314.515 C 72.274 313.623 71.577 312.774 70.206 312.774 C 68.954 312.774 68.007 313.536 68.007 314.657 C 68.007 315.266 68.344 315.876 69.139 316.246 L 69.15 316.279 Z  M 70.141 319.392 C 69.237 319.392 68.693 318.761 68.725 318.053 C 68.725 317.378 69.172 316.823 69.999 316.584 C 70.957 316.856 71.556 317.28 71.556 318.129 C 71.556 318.859 71.001 319.392 70.141 319.392 Z  M 70.151 313.459 C 71.011 313.459 71.349 314.047 71.349 314.613 C 71.349 315.255 70.881 315.691 70.271 315.898 C 69.455 315.68 68.911 315.299 68.921 314.591 C 68.921 313.982 69.357 313.459 70.151 313.459 Z " fill="rgb(125,60,64)"/><path d=" M 125.425 406.443 C 126.296 406.073 126.829 405.431 126.829 404.538 C 126.829 403.504 125.937 402.633 124.456 402.633 C 123.106 402.633 122.05 403.45 122.05 404.691 C 122.05 405.54 122.595 406.171 123.476 406.519 L 123.476 406.552 C 122.606 406.955 122.301 407.608 122.301 408.207 C 122.301 409.099 122.998 409.948 124.369 409.948 C 125.621 409.948 126.568 409.186 126.568 408.065 C 126.568 407.456 126.231 406.846 125.436 406.476 L 125.425 406.443 Z  M 124.434 403.33 C 125.338 403.33 125.882 403.961 125.85 404.669 C 125.85 405.344 125.403 405.899 124.576 406.138 C 123.618 405.866 123.019 405.442 123.019 404.593 C 123.019 403.863 123.574 403.33 124.434 403.33 Z  M 124.424 409.263 C 123.564 409.263 123.226 408.675 123.226 408.109 C 123.226 407.466 123.694 407.031 124.304 406.824 C 125.12 407.042 125.664 407.423 125.654 408.13 C 125.654 408.74 125.218 409.263 124.424 409.263 Z " fill="rgb(125,60,64)"/><path d=" M 124.441 393.052 L 127.23 396.847 L 124.441 400.64 L 121.651 396.847 L 124.441 393.052 Z " fill="rgb(125,60,64)"/><path d=" M 124.449 400.628 L 127.23 396.847 L 124.449 393.064 L 124.449 400.628 Z " fill="rgb(147,67,72)"/><path d=" M 70.134 329.49 L 67.345 325.695 L 70.134 321.901 L 72.924 325.695 L 70.134 329.49 Z " fill="rgb(125,60,64)"/><path d=" M 70.125 321.913 L 67.345 325.695 L 70.125 329.478 L 70.125 321.913 Z " fill="rgb(147,67,72)"/><path d=" M 97.288 355.098 L 92.017 347.93 L 97.288 340.762 L 102.559 347.93 L 97.288 355.098 Z " fill="rgb(125,60,64)"/><path d=" M 97.272 340.784 L 92.017 347.93 L 97.272 355.075 L 97.272 340.784 Z " fill="rgb(147,67,72)"/><path d=" M 97.288 381.13 L 92.017 373.962 L 97.288 366.794 L 102.559 373.962 L 97.288 381.13 Z " fill="rgb(125,60,64)"/><path d=" M 97.272 366.816 L 92.017 373.962 L 97.272 381.107 L 97.272 366.816 Z " fill="rgb(147,67,72)"/></g></svg>