<?xml version="1.0" encoding="UTF-8" standalone="no"?><!-- Generator: Gravit.io --><svg xmlns="http://www.w3.org/2000/svg" xmlns:xlink="http://www.w3.org/1999/xlink" style="isolation:isolate" viewBox="575.771 462.567 69.123 103.684" width="69.123pt" height="103.684pt"><g><path d=" M 644.894 563.53 C 644.894 565.034 643.675 566.251 642.173 566.251 L 578.493 566.251 C 576.991 566.251 575.771 565.034 575.771 563.53 L 575.771 465.288 C 575.771 463.785 576.991 462.567 578.493 462.567 L 642.173 462.567 C 643.675 462.567 644.894 463.785 644.894 465.288 L 644.894 563.53 Z " fill="rgb(234,232,232)"/><path d=" M 594.589 492.241 L 589.318 485.072 L 594.589 477.904 L 599.859 485.072 L 594.589 492.241 Z " fill="rgb(125,60,64)"/><path d=" M 594.572 477.927 L 589.318 485.072 L 594.572 492.219 L 594.572 477.927 Z " fill="rgb(147,67,72)"/><path d=" M 626.046 492.241 L 620.775 485.072 L 626.046 477.904 L 631.315 485.072 L 626.046 492.241 Z " fill="rgb(125,60,64)"/><path d=" M 626.029 477.927 L 620.775 485.072 L 626.029 492.219 L 626.029 477.927 Z " fill="rgb(147,67,72)"/><path d=" M 594.589 511.769 L 589.318 504.601 L 594.589 497.433 L 599.859 504.601 L 594.589 511.769 Z " fill="rgb(125,60,64)"/><path d=" M 594.572 497.455 L 589.318 504.601 L 594.572 511.746 L 594.572 497.455 Z " fill="rgb(147,67,72)"/><path d=" M 626.046 511.769 L 620.775 504.601 L 626.046 497.433 L 631.315 504.601 L 626.046 511.769 Z " fill="rgb(125,60,64)"/><path d=" M 626.029 497.455 L 620.775 504.601 L 626.029 511.746 L 626.029 497.455 Z " fill="rgb(147,67,72)"/><path d=" M 594.589 531.297 L 589.318 524.128 L 594.589 516.96 L 599.859 524.128 L 594.589 531.297 Z " fill="rgb(125,60,64)"/><path d=" M 594.572 516.984 L 589.318 524.128 L 594.572 531.274 L 594.572 516.984 Z " fill="rgb(147,67,72)"/><path d=" M 626.046 531.297 L 620.775 524.128 L 626.046 516.96 L 631.315 524.128 L 626.046 531.297 Z " fill="rgb(125,60,64)"/><path d=" M 626.029 516.984 L 620.775 524.128 L 626.029 531.274 L 626.029 516.984 Z " fill="rgb(147,67,72)"/><path d=" M 594.589 550.825 L 589.318 543.657 L 594.589 536.489 L 599.859 543.657 L 594.589 550.825 Z " fill="rgb(125,60,64)"/><path d=" M 594.572 536.51 L 589.318 543.657 L 594.572 550.801 L 594.572 536.51 Z " fill="rgb(147,67,72)"/><path d=" M 626.046 550.825 L 620.775 543.657 L 626.046 536.489 L 631.315 543.657 L 626.046 550.825 Z " fill="rgb(125,60,64)"/><path d=" M 626.029 536.51 L 620.775 543.657 L 626.029 550.801 L 626.029 536.51 Z " fill="rgb(147,67,72)"/><path d=" M 581.433 473.126 C 581.661 473.137 581.966 473.126 582.314 473.071 C 583.076 472.984 583.827 472.658 584.372 472.124 C 585.068 471.449 585.591 470.361 585.591 468.815 C 585.591 466.986 584.698 465.822 583.25 465.822 C 581.803 465.822 580.834 466.997 580.834 468.336 C 580.834 469.544 581.65 470.502 582.913 470.502 C 583.631 470.502 584.197 470.23 584.589 469.751 L 584.622 469.751 C 584.491 470.579 584.154 471.199 583.686 471.624 C 583.283 472.016 582.761 472.233 582.205 472.309 C 581.879 472.342 581.639 472.364 581.433 472.342 L 581.433 473.126 Z  M 583.163 466.551 C 584.176 466.551 584.622 467.476 584.622 468.685 C 584.622 468.848 584.589 468.946 584.535 469.044 C 584.285 469.468 583.784 469.784 583.142 469.784 C 582.314 469.784 581.781 469.163 581.781 468.282 C 581.781 467.269 582.358 466.551 583.163 466.551 Z " fill="rgb(125,60,64)"/><path d=" M 639.234 555.692 C 639.006 555.681 638.701 555.692 638.353 555.747 C 637.591 555.834 636.84 556.16 636.295 556.694 C 635.599 557.369 635.076 558.457 635.076 560.003 C 635.076 561.832 635.969 562.996 637.417 562.996 C 638.864 562.996 639.833 561.821 639.833 560.482 C 639.833 559.274 639.017 558.316 637.754 558.316 C 637.036 558.316 636.47 558.588 636.078 559.067 L 636.045 559.067 C 636.176 558.239 636.513 557.619 636.981 557.194 C 637.384 556.802 637.906 556.585 638.462 556.509 C 638.788 556.476 639.028 556.454 639.234 556.476 L 639.234 555.692 Z  M 637.504 562.267 C 636.491 562.267 636.045 561.342 636.045 560.133 C 636.045 559.97 636.078 559.872 636.132 559.774 C 636.382 559.35 636.883 559.034 637.525 559.034 C 638.353 559.034 638.886 559.655 638.886 560.536 C 638.886 561.549 638.309 562.267 637.504 562.267 Z " fill="rgb(125,60,64)"/><path d=" M 637.486 546.1 L 640.277 549.895 L 637.486 553.688 L 634.696 549.895 L 637.486 546.1 Z " fill="rgb(125,60,64)"/><path d=" M 637.495 553.676 L 640.277 549.895 L 637.495 546.112 L 637.495 553.676 Z " fill="rgb(147,67,72)"/><path d=" M 583.179 482.538 L 580.389 478.743 L 583.179 474.949 L 585.968 478.743 L 583.179 482.538 Z " fill="rgb(125,60,64)"/><path d=" M 583.171 474.961 L 580.389 478.743 L 583.171 482.526 L 583.171 474.961 Z " fill="rgb(147,67,72)"/><path d=" M 610.333 521.577 L 605.063 514.408 L 610.333 507.24 L 615.603 514.408 L 610.333 521.577 Z " fill="rgb(125,60,64)"/><path d=" M 610.317 507.264 L 605.063 514.408 L 610.317 521.553 L 610.317 507.264 Z " fill="rgb(147,67,72)"/></g></svg>