<?xml version="1.0" encoding="UTF-8" standalone="no"?><!-- Generator: Gravit.io --><svg xmlns="http://www.w3.org/2000/svg" xmlns:xlink="http://www.w3.org/1999/xlink" style="isolation:isolate" viewBox="92.662 670.34 69.123 103.683" width="69.123pt" height="103.683pt"><g><path d=" M 161.785 771.303 C 161.785 772.805 160.566 774.023 159.063 774.023 L 95.383 774.023 C 93.88 774.023 92.662 772.805 92.662 771.303 L 92.662 673.061 C 92.662 671.559 93.88 670.34 95.383 670.34 L 159.063 670.34 C 160.566 670.34 161.785 671.559 161.785 673.061 L 161.785 771.303 Z " fill="rgb(234,232,232)"/><path d=" M 127.223 739.662 L 124.561 737.008 C 114.678 728.268 108.221 722.377 108.221 715.146 C 108.221 709.268 112.785 704.701 118.666 704.701 C 121.908 704.701 125.135 708.156 127.223 710.625 C 129.312 708.156 132.54 704.701 135.778 704.701 C 141.66 704.701 146.226 709.268 146.226 715.146 C 146.226 722.377 139.769 728.268 129.886 737.008 L 127.223 739.662 Z " fill="rgb(125,60,64)"/><path d=" M 127.182 710.598 C 125.093 708.133 121.888 704.721 118.666 704.721 C 112.785 704.721 108.221 709.287 108.221 715.168 C 108.221 722.396 114.678 728.289 124.561 737.027 L 127.182 739.643 L 127.182 710.598 Z " fill="rgb(147,67,72)"/><path d=" M 100.034 690.215 L 99.457 689.639 C 97.314 687.742 95.912 686.465 95.912 684.896 C 95.912 683.621 96.902 682.631 98.178 682.631 C 98.882 682.631 99.582 683.381 100.034 683.916 C 100.487 683.381 101.188 682.631 101.891 682.631 C 103.166 682.631 104.156 683.621 104.156 684.896 C 104.156 686.465 102.756 687.742 100.612 689.639 L 100.034 690.215 Z " fill="rgb(125,60,64)"/><path d=" M 100.025 683.91 C 99.572 683.375 98.878 682.635 98.178 682.635 C 96.902 682.635 95.912 683.625 95.912 684.9 C 95.912 686.469 97.314 687.746 99.457 689.643 L 100.025 690.209 L 100.025 683.91 Z " fill="rgb(147,67,72)"/><path d=" M 154.324 753.975 L 154.901 754.551 C 157.045 756.447 158.446 757.725 158.446 759.293 C 158.446 760.568 157.456 761.559 156.181 761.559 C 155.477 761.559 154.776 760.809 154.324 760.273 C 153.871 760.809 153.17 761.559 152.468 761.559 C 151.192 761.559 150.202 760.568 150.202 759.293 C 150.202 757.725 151.603 756.447 153.746 754.551 L 154.324 753.975 Z " fill="rgb(125,60,64)"/><path d=" M 154.333 760.279 C 154.786 760.814 155.48 761.555 156.181 761.555 C 157.456 761.555 158.446 760.564 158.446 759.289 C 158.446 757.721 157.045 756.441 154.901 754.547 L 154.333 753.979 L 154.333 760.279 Z " fill="rgb(147,67,72)"/><path d=" M 101.355 678.481 L 102.139 680.789 L 103.151 680.789 L 100.647 673.452 L 99.515 673.452 L 97.011 680.789 L 97.991 680.789 L 98.753 678.481 L 101.355 678.481 Z  M 98.949 677.741 L 99.668 675.618 C 99.82 675.172 99.929 674.715 100.038 674.29 L 100.059 674.29 C 100.168 674.715 100.277 675.15 100.44 675.629 L 101.17 677.741 L 98.949 677.741 Z " fill="rgb(125,60,64)"/><path d=" M 153.091 765.881 L 152.307 763.573 L 151.294 763.573 L 153.798 770.91 L 154.93 770.91 L 157.434 763.573 L 156.454 763.573 L 155.692 765.881 L 153.091 765.881 Z  M 155.496 766.621 L 154.778 768.744 C 154.625 769.19 154.517 769.647 154.408 770.072 L 154.386 770.072 C 154.277 769.647 154.168 769.212 154.005 768.733 L 153.276 766.621 L 155.496 766.621 Z " fill="rgb(125,60,64)"/></g></svg>