<?xml version="1.0" encoding="UTF-8" standalone="no"?><!-- Generator: Gravit.io --><svg xmlns="http://www.w3.org/2000/svg" xmlns:xlink="http://www.w3.org/1999/xlink" style="isolation:isolate" viewBox="92.662 450.057 69.123 103.685" width="69.123pt" height="103.685pt"><g><path d=" M 161.785 551.02 C 161.785 552.523 160.566 553.742 159.063 553.742 L 95.383 553.742 C 93.881 553.742 92.662 552.523 92.662 551.02 L 92.662 452.777 C 92.662 451.275 93.881 450.057 95.383 450.057 L 159.063 450.057 C 160.566 450.057 161.785 451.275 161.785 452.777 L 161.785 551.02 Z " fill="rgb(234,232,232)"/><path d=" M 142.951 479.568 L 141.872 478.492 C 137.865 474.949 135.247 472.561 135.247 469.631 C 135.247 467.246 137.099 465.395 139.482 465.395 C 140.797 465.395 142.105 466.797 142.951 467.797 C 143.799 466.797 145.107 465.395 146.42 465.395 C 148.805 465.395 150.656 467.246 150.656 469.631 C 150.656 472.561 148.038 474.949 144.031 478.492 L 142.951 479.568 Z " fill="rgb(125,60,64)"/><path d=" M 142.936 467.785 C 142.088 466.787 140.788 465.404 139.482 465.404 C 137.099 465.404 135.247 467.254 135.247 469.639 C 135.247 472.57 137.865 474.957 141.872 478.502 L 142.936 479.561 L 142.936 467.785 Z " fill="rgb(147,67,72)"/><path d=" M 111.495 479.568 L 110.416 478.492 C 106.408 474.949 103.79 472.561 103.79 469.631 C 103.79 467.246 105.642 465.395 108.025 465.395 C 109.341 465.395 110.648 466.797 111.495 467.797 C 112.342 466.797 113.65 465.395 114.964 465.395 C 117.349 465.395 119.2 467.246 119.2 469.631 C 119.2 472.561 116.581 474.949 112.575 478.492 L 111.495 479.568 Z " fill="rgb(125,60,64)"/><path d=" M 111.479 467.785 C 110.631 466.787 109.332 465.404 108.025 465.404 C 105.642 465.404 103.79 467.254 103.79 469.639 C 103.79 472.57 106.408 474.957 110.416 478.502 L 111.479 479.561 L 111.479 467.785 Z " fill="rgb(147,67,72)"/><path d=" M 142.951 499.178 L 141.872 498.102 C 137.865 494.559 135.247 492.17 135.247 489.238 C 135.247 486.855 137.099 485.004 139.482 485.004 C 140.797 485.004 142.105 486.404 142.951 487.404 C 143.799 486.404 145.107 485.004 146.42 485.004 C 148.805 485.004 150.656 486.855 150.656 489.238 C 150.656 492.17 148.038 494.559 144.031 498.102 L 142.951 499.178 Z " fill="rgb(125,60,64)"/><path d=" M 142.936 487.395 C 142.088 486.395 140.788 485.012 139.482 485.012 C 137.099 485.012 135.247 486.863 135.247 489.248 C 135.247 492.178 137.865 494.566 141.872 498.109 L 142.936 499.17 L 142.936 487.395 Z " fill="rgb(147,67,72)"/><path d=" M 111.495 499.178 L 110.416 498.102 C 106.408 494.559 103.79 492.17 103.79 489.238 C 103.79 486.855 105.642 485.004 108.025 485.004 C 109.341 485.004 110.648 486.404 111.495 487.404 C 112.342 486.404 113.65 485.004 114.964 485.004 C 117.349 485.004 119.2 486.855 119.2 489.238 C 119.2 492.17 116.581 494.559 112.575 498.102 L 111.495 499.178 Z " fill="rgb(125,60,64)"/><path d=" M 111.479 487.395 C 110.631 486.395 109.332 485.012 108.025 485.012 C 105.642 485.012 103.79 486.863 103.79 489.248 C 103.79 492.178 106.408 494.566 110.416 498.109 L 111.479 499.17 L 111.479 487.395 Z " fill="rgb(147,67,72)"/><path d=" M 111.495 518.787 L 110.416 517.711 C 106.408 514.168 103.79 511.779 103.79 508.848 C 103.79 506.465 105.642 504.613 108.025 504.613 C 109.341 504.613 110.648 506.014 111.495 507.014 C 112.342 506.014 113.65 504.613 114.964 504.613 C 117.349 504.613 119.2 506.465 119.2 508.848 C 119.2 511.779 116.581 514.168 112.575 517.711 L 111.495 518.787 Z " fill="rgb(125,60,64)"/><path d=" M 111.479 507.004 C 110.631 506.004 109.332 504.621 108.025 504.621 C 105.642 504.621 103.79 506.473 103.79 508.855 C 103.79 511.787 106.408 514.176 110.416 517.719 L 111.479 518.779 L 111.479 507.004 Z " fill="rgb(147,67,72)"/><path d=" M 142.951 518.787 L 141.872 517.711 C 137.865 514.168 135.247 511.779 135.247 508.848 C 135.247 506.465 137.099 504.613 139.482 504.613 C 140.797 504.613 142.105 506.014 142.951 507.014 C 143.799 506.014 145.107 504.613 146.42 504.613 C 148.805 504.613 150.656 506.465 150.656 508.848 C 150.656 511.779 148.038 514.168 144.031 517.711 L 142.951 518.787 Z " fill="rgb(125,60,64)"/><path d=" M 142.936 507.004 C 142.088 506.004 140.788 504.621 139.482 504.621 C 137.099 504.621 135.247 506.473 135.247 508.855 C 135.247 511.787 137.865 514.176 141.872 517.719 L 142.936 518.779 L 142.936 507.004 Z " fill="rgb(147,67,72)"/><path d=" M 111.495 538.404 L 110.416 537.328 C 106.408 533.785 103.79 531.396 103.79 528.465 C 103.79 526.08 105.642 524.23 108.025 524.23 C 109.341 524.23 110.648 525.631 111.495 526.631 C 112.342 525.631 113.65 524.23 114.964 524.23 C 117.349 524.23 119.2 526.08 119.2 528.465 C 119.2 531.396 116.581 533.785 112.575 537.328 L 111.495 538.404 Z " fill="rgb(125,60,64)"/><path d=" M 111.479 526.619 C 110.631 525.621 109.332 524.238 108.025 524.238 C 105.642 524.238 103.79 526.09 103.79 528.473 C 103.79 531.404 106.408 533.793 110.416 537.336 L 111.479 538.396 L 111.479 526.619 Z " fill="rgb(147,67,72)"/><path d=" M 142.951 538.404 L 141.872 537.328 C 137.865 533.785 135.247 531.396 135.247 528.465 C 135.247 526.08 137.099 524.23 139.482 524.23 C 140.797 524.23 142.105 525.631 142.951 526.631 C 143.799 525.631 145.107 524.23 146.42 524.23 C 148.805 524.23 150.656 526.08 150.656 528.465 C 150.656 531.396 148.038 533.785 144.031 537.328 L 142.951 538.404 Z " fill="rgb(125,60,64)"/><path d=" M 142.936 526.619 C 142.088 525.621 140.788 524.238 139.482 524.238 C 137.099 524.238 135.247 526.09 135.247 528.473 C 135.247 531.404 137.865 533.793 141.872 537.336 L 142.936 538.396 L 142.936 526.619 Z " fill="rgb(147,67,72)"/><path d=" M 97.733 458.768 L 98.45 458.768 L 98.45 453.284 L 97.818 453.284 L 96.62 453.926 L 96.763 454.491 L 97.716 453.976 L 97.733 453.976 L 97.733 458.768 Z  M 102.289 453.192 C 101.175 453.192 100.374 454.196 100.374 456.043 C 100.39 457.857 101.124 458.861 102.196 458.861 C 103.402 458.861 104.102 457.832 104.102 455.967 C 104.102 454.221 103.436 453.192 102.289 453.192 Z  M 102.238 453.765 C 103.014 453.765 103.352 454.651 103.352 456.001 C 103.352 457.401 102.989 458.287 102.238 458.287 C 101.563 458.287 101.124 457.477 101.124 456.052 C 101.124 454.558 101.597 453.765 102.238 453.765 Z " fill="rgb(125,60,64)"/><path d=" M 156.712 545.029 L 155.995 545.029 L 155.995 550.513 L 156.628 550.513 L 157.826 549.871 L 157.682 549.306 L 156.729 549.821 L 156.712 549.821 L 156.712 545.029 Z  M 152.157 550.605 C 153.27 550.605 154.072 549.601 154.072 547.754 C 154.055 545.94 153.321 544.936 152.249 544.936 C 151.043 544.936 150.343 545.965 150.343 547.83 C 150.343 549.576 151.009 550.605 152.157 550.605 Z  M 152.207 550.032 C 151.431 550.032 151.094 549.146 151.094 547.796 C 151.094 546.396 151.456 545.51 152.207 545.51 C 152.882 545.51 153.321 546.32 153.321 547.745 C 153.321 549.239 152.848 550.032 152.207 550.032 Z " fill="rgb(125,60,64)"/><path d=" M 100.079 470.02 L 99.501 469.443 C 97.357 467.547 95.956 466.27 95.956 464.701 C 95.956 463.426 96.946 462.436 98.223 462.436 C 98.926 462.436 99.626 463.184 100.079 463.719 C 100.532 463.184 101.232 462.436 101.936 462.436 C 103.211 462.436 104.201 463.426 104.201 464.701 C 104.201 466.27 102.801 467.547 100.656 469.443 L 100.079 470.02 Z " fill="rgb(125,60,64)"/><path d=" M 100.07 463.713 C 99.616 463.18 98.922 462.439 98.223 462.439 C 96.946 462.439 95.956 463.43 95.956 464.705 C 95.956 466.273 97.357 467.551 99.501 469.447 L 100.07 470.014 L 100.07 463.713 Z " fill="rgb(147,67,72)"/><path d=" M 154.368 533.779 L 154.945 534.355 C 157.089 536.252 158.49 537.529 158.49 539.098 C 158.49 540.373 157.5 541.363 156.225 541.363 C 155.521 541.363 154.82 540.613 154.368 540.078 C 153.915 540.613 153.215 541.363 152.512 541.363 C 151.236 541.363 150.246 540.373 150.246 539.098 C 150.246 537.529 151.646 536.252 153.791 534.355 L 154.368 533.779 Z " fill="rgb(125,60,64)"/><path d=" M 154.377 540.084 C 154.83 540.619 155.525 541.359 156.225 541.359 C 157.5 541.359 158.49 540.369 158.49 539.094 C 158.49 537.525 157.089 536.246 154.945 534.352 L 154.377 533.783 L 154.377 540.084 Z " fill="rgb(147,67,72)"/><path d=" M 127.223 489.879 L 126.145 488.803 C 122.137 485.26 119.519 482.871 119.519 479.939 C 119.519 477.555 121.37 475.705 123.754 475.705 C 125.068 475.705 126.377 477.105 127.223 478.105 C 128.07 477.105 129.379 475.705 130.691 475.705 C 133.077 475.705 134.928 477.555 134.928 479.939 C 134.928 482.871 132.31 485.26 128.303 488.803 L 127.223 489.879 Z " fill="rgb(125,60,64)"/><path d=" M 127.207 478.094 C 126.359 477.096 125.061 475.713 123.754 475.713 C 121.37 475.713 119.519 477.564 119.519 479.947 C 119.519 482.879 122.137 485.268 126.145 488.811 L 127.207 489.871 L 127.207 478.094 Z " fill="rgb(147,67,72)"/><path d=" M 127.223 528.25 L 126.145 527.174 C 122.137 523.631 119.519 521.242 119.519 518.311 C 119.519 515.928 121.37 514.076 123.754 514.076 C 125.068 514.076 126.377 515.477 127.223 516.477 C 128.07 515.477 129.379 514.076 130.691 514.076 C 133.077 514.076 134.928 515.928 134.928 518.311 C 134.928 521.242 132.31 523.631 128.303 527.174 L 127.223 528.25 Z " fill="rgb(125,60,64)"/><path d=" M 127.207 516.467 C 126.359 515.467 125.061 514.084 123.754 514.084 C 121.37 514.084 119.519 515.936 119.519 518.32 C 119.519 521.25 122.137 523.639 126.145 527.182 L 127.207 528.242 L 127.207 516.467 Z " fill="rgb(147,67,72)"/></g></svg>