<?xml version="1.0" encoding="UTF-8" standalone="no"?><!-- Generator: Gravit.io --><svg xmlns="http://www.w3.org/2000/svg" xmlns:xlink="http://www.w3.org/1999/xlink" style="isolation:isolate" viewBox="418.385 450.193 69.123 103.684" width="69.123pt" height="103.684pt"><g><path d=" M 487.508 551.156 C 487.508 552.658 486.289 553.877 484.787 553.877 L 421.106 553.877 C 419.604 553.877 418.385 552.658 418.385 551.156 L 418.385 452.914 C 418.385 451.412 419.604 450.193 421.106 450.193 L 484.787 450.193 C 486.289 450.193 487.508 451.412 487.508 452.914 L 487.508 551.156 Z " fill="rgb(234,232,232)"/><path d=" M 425.758 470.068 L 425.181 469.492 C 423.037 467.596 421.636 466.318 421.636 464.75 C 421.636 463.475 422.626 462.484 423.901 462.484 C 424.605 462.484 425.306 463.234 425.758 463.77 C 426.211 463.234 426.911 462.484 427.614 462.484 C 428.89 462.484 429.88 463.475 429.88 464.75 C 429.88 466.318 428.479 467.596 426.335 469.492 L 425.758 470.068 Z " fill="rgb(125,60,64)"/><path d=" M 425.749 463.764 C 425.296 463.229 424.601 462.488 423.901 462.488 C 422.626 462.488 421.636 463.479 421.636 464.754 C 421.636 466.322 423.037 467.602 425.181 469.496 L 425.749 470.064 L 425.749 463.764 Z " fill="rgb(147,67,72)"/><path d=" M 480.047 533.828 L 480.625 534.404 C 482.769 536.301 484.17 537.578 484.17 539.146 C 484.17 540.422 483.18 541.412 481.903 541.412 C 481.2 541.412 480.5 540.664 480.047 540.129 C 479.595 540.664 478.894 541.412 478.191 541.412 C 476.915 541.412 475.925 540.422 475.925 539.146 C 475.925 537.578 477.325 536.301 479.47 534.404 L 480.047 533.828 Z " fill="rgb(125,60,64)"/><path d=" M 480.056 540.135 C 480.51 540.668 481.204 541.408 481.903 541.408 C 483.18 541.408 484.17 540.418 484.17 539.143 C 484.17 537.574 482.769 536.297 480.625 534.4 L 480.056 533.834 L 480.056 540.135 Z " fill="rgb(147,67,72)"/><path d=" M 426.098 458.14 C 426.098 459.577 425.608 459.958 424.759 459.958 C 424.432 459.958 424.149 459.893 423.953 459.817 L 423.823 460.59 C 424.051 460.688 424.476 460.764 424.835 460.764 C 426.098 460.764 427.056 460.165 427.056 458.217 L 427.056 453.307 L 426.098 453.307 L 426.098 458.14 Z " fill="rgb(125,60,64)"/><path d=" M 479.794 545.93 C 479.794 544.493 480.284 544.112 481.133 544.112 C 481.46 544.112 481.743 544.177 481.939 544.253 L 482.069 543.48 C 481.841 543.382 481.416 543.306 481.057 543.306 C 479.794 543.306 478.836 543.905 478.836 545.853 L 478.836 550.763 L 479.794 550.763 L 479.794 545.93 Z " fill="rgb(125,60,64)"/><path d=" M 468.489 523.703 C 468.489 523.703 472.214 522.355 475.681 518.592 L 475.681 513.98 L 468.489 513.98 L 468.489 523.703 Z " fill="rgb(166,64,69)"/><path d=" M 465.533 466.875 L 469.391 461.869 C 469.391 461.869 461.865 456.875 460.348 456.787 C 458.83 456.699 441.676 462.006 441.676 462.006 L 445.548 468.195 L 465.533 466.875 Z " fill="rgb(166,64,69)"/><path d=" M 445.548 460.824 C 445.548 460.824 447.674 467.627 448.224 468.078 C 448.774 468.531 451.572 467.244 451.572 467.244 C 451.572 467.244 449.414 465.107 448.35 459.984 L 445.548 460.824 Z " fill="rgb(69,68,116)"/><path d=" M 475.681 511.689 L 475.681 485.82 C 475.681 485.82 472.429 481.676 465.902 481.063 C 465.902 481.063 465.781 507.264 475.681 511.689 Z " fill="rgb(166,64,69)"/><path d=" M 456.589 482.482 L 453.261 482.482 L 453.261 488.592 L 456.589 488.592 L 456.589 482.482 Z " fill="rgb(48,44,50)"/><path d=" M 463.262 480.373 L 459.934 480.373 L 459.934 486.482 L 463.262 486.482 L 463.262 480.373 Z " fill="rgb(48,44,50)"/><path d=" M 453.236 480.057 L 449.908 480.057 L 449.908 486.164 L 453.236 486.164 L 453.236 480.057 Z " fill="rgb(166,64,69)"/><path d=" M 459.917 482.049 L 456.589 482.049 L 456.589 488.158 L 459.917 488.158 L 459.917 482.049 Z " fill="rgb(166,64,69)"/><path d=" M 450.014 478.215 L 446.685 478.215 L 446.685 484.324 L 450.014 484.324 L 450.014 478.215 Z " fill="rgb(48,44,50)"/><path d=" M 446.66 478.094 L 443.332 478.094 L 443.332 481.896 L 446.66 481.896 L 446.66 478.094 Z " fill="rgb(166,64,69)"/><path d=" M 463.233 478.203 L 462.472 480.924 L 465.03 481.063 L 463.233 478.203 Z " fill="rgb(167,111,73)"/><path d=" M 466.794 481.16 C 466.794 481.16 465.629 498.273 475.681 511.689 C 475.669 512.871 475.662 513.471 475.662 513.471 C 475.662 513.471 469.747 510.691 466.381 498.965 C 463.015 487.24 464.54 481.16 464.54 481.16 L 466.794 481.16 Z " fill="rgb(48,44,50)"/><path d=" M 465.257 481.541 C 465.257 481.541 464.948 492.805 467.728 499.553 C 470.507 506.301 472.441 510.9 475.681 513.441 L 475.681 518.592 C 475.681 518.592 466.549 509.762 463.555 499.816 C 460.561 489.869 461.12 481.17 461.12 481.17 L 465.257 481.541 Z " fill="rgb(69,68,116)"/><path d=" M 465.426 481.244 C 465.426 481.666 464.568 482.008 463.512 482.008 C 462.454 482.008 461.598 481.666 461.598 481.244 C 461.598 480.82 462.454 480.479 463.512 480.479 C 464.568 480.479 465.426 480.82 465.426 481.244 Z " fill="rgb(166,64,69)"/><path d=" M 465.284 482.926 C 465.306 483.34 464.485 483.719 463.452 483.773 C 462.418 483.828 461.562 483.537 461.541 483.123 C 461.519 482.711 462.339 482.332 463.373 482.277 C 464.406 482.223 465.263 482.514 465.284 482.926 Z " fill="rgb(166,64,69)"/><path d=" M 465.255 484.861 C 465.299 485.266 464.515 485.682 463.504 485.791 C 462.493 485.898 461.639 485.66 461.595 485.256 C 461.551 484.852 462.336 484.438 463.346 484.328 C 464.356 484.219 465.211 484.457 465.255 484.861 Z " fill="rgb(166,64,69)"/><path d=" M 465.343 487.01 C 465.408 487.404 464.66 487.857 463.673 488.021 C 462.686 488.184 461.832 487.996 461.767 487.602 C 461.701 487.207 462.449 486.756 463.437 486.592 C 464.424 486.428 465.277 486.615 465.343 487.01 Z " fill="rgb(166,64,69)"/><path d=" M 465.554 489.332 C 465.641 489.717 464.929 490.207 463.965 490.424 C 463.001 490.643 462.148 490.506 462.062 490.121 C 461.975 489.736 462.686 489.246 463.649 489.029 C 464.614 488.811 465.467 488.947 465.554 489.332 Z " fill="rgb(166,64,69)"/><path d=" M 465.892 491.787 C 466.001 492.162 465.326 492.689 464.384 492.961 C 463.443 493.232 462.592 493.148 462.483 492.773 C 462.374 492.396 463.05 491.871 463.99 491.6 C 464.932 491.326 465.782 491.41 465.892 491.787 Z " fill="rgb(166,64,69)"/><path d=" M 466.363 494.334 C 466.494 494.701 465.855 495.264 464.938 495.59 C 464.02 495.916 463.17 495.885 463.039 495.518 C 462.909 495.15 463.547 494.59 464.465 494.262 C 465.383 493.936 466.232 493.969 466.363 494.334 Z " fill="rgb(166,64,69)"/><path d=" M 466.974 496.936 C 467.126 497.295 466.524 497.893 465.629 498.273 C 464.735 498.656 463.886 498.674 463.733 498.316 C 463.581 497.959 464.183 497.361 465.078 496.98 C 465.973 496.598 466.821 496.58 466.974 496.936 Z " fill="rgb(166,64,69)"/><path d=" M 467.728 499.553 C 467.901 499.9 467.336 500.535 466.465 500.971 C 465.593 501.406 464.746 501.479 464.571 501.129 C 464.397 500.781 464.963 500.146 465.835 499.711 C 466.706 499.275 467.554 499.203 467.728 499.553 Z " fill="rgb(166,64,69)"/><path d=" M 468.631 502.143 C 468.827 502.48 468.297 503.152 467.449 503.643 C 466.601 504.133 465.755 504.256 465.559 503.916 C 465.362 503.578 465.893 502.904 466.74 502.414 C 467.589 501.926 468.435 501.803 468.631 502.143 Z " fill="rgb(166,64,69)"/><path d=" M 469.688 504.664 C 469.906 504.994 469.414 505.703 468.589 506.248 C 467.763 506.793 466.918 506.967 466.7 506.637 C 466.482 506.307 466.976 505.598 467.8 505.053 C 468.626 504.51 469.471 504.336 469.688 504.664 Z " fill="rgb(166,64,69)"/><path d=" M 470.906 507.082 C 471.146 507.402 470.689 508.148 469.887 508.748 C 469.085 509.346 468.241 509.572 468.001 509.252 C 467.762 508.932 468.219 508.186 469.021 507.586 C 469.822 506.988 470.667 506.762 470.906 507.082 Z " fill="rgb(166,64,69)"/><path d=" M 472.288 509.354 C 472.55 509.666 472.13 510.447 471.352 511.102 C 470.572 511.754 469.729 512.031 469.468 511.721 C 469.207 511.41 469.627 510.627 470.406 509.975 C 471.185 509.32 472.027 509.043 472.288 509.354 Z " fill="rgb(166,64,69)"/><path d=" M 473.842 511.441 C 474.124 511.742 473.741 512.561 472.985 513.27 C 472.229 513.977 471.388 514.307 471.105 514.004 C 470.822 513.703 471.206 512.883 471.961 512.176 C 472.717 511.467 473.559 511.139 473.842 511.441 Z " fill="rgb(166,64,69)"/><path d=" M 475.57 513.303 C 475.875 513.594 475.528 514.449 474.796 515.213 C 474.063 515.975 473.223 516.355 472.918 516.063 C 472.613 515.77 472.96 514.914 473.692 514.152 C 474.425 513.391 475.266 513.01 475.57 513.303 Z " fill="rgb(166,64,69)"/><path d=" M 456.364 496.135 L 451.074 496.135 L 451.074 490.283 L 456.364 490.283 L 456.364 496.135 Z " fill="rgb(73,93,167)"/><path d=" M 451.303 495.889 L 456.364 495.889 L 456.364 501.195 L 451.303 495.889 Z " fill="rgb(183,151,91)"/><path d=" M 451.119 495.438 L 456.454 495.438 L 456.454 491.094 L 451.119 491.094 L 451.119 495.438 Z " fill="rgb(183,151,91)"/><path d=" M 451.119 490.711 L 456.364 490.711 L 456.364 489.293 L 451.119 486.119 L 451.119 490.711 Z " fill="rgb(183,151,91)"/><path d=" M 457.387 501.703 L 457.184 489.387 L 461.524 486.934 C 461.524 486.934 462.378 497.133 463.408 498.965 C 464.439 500.797 457.387 501.703 457.387 501.703 Z " fill="rgb(166,64,69)"/><path d=" M 457.462 501.74 L 456.173 501.102 L 456.173 488.496 L 457.462 488.496 L 457.462 501.74 Z " fill="rgb(218,226,242)"/><path d=" M 457.878 502.223 L 456.589 501.584 L 456.589 488.979 L 457.878 488.979 L 457.878 502.223 Z " fill="rgb(48,44,50)"/><path d=" M 466.312 506.496 C 465.874 505.393 465.133 504.371 464.586 503.316 C 463.694 501.6 463.06 499.781 462.768 497.889 C 462.741 497.889 462.715 497.887 462.688 497.887 C 460.021 497.887 457.739 499.539 456.809 501.875 C 457.006 502.1 457.198 502.33 457.444 502.537 C 457.888 502.91 458.41 503.205 458.872 503.559 C 459.994 504.418 460.852 505.604 462.106 506.279 C 463.053 506.787 464.059 507.141 465.066 507.506 C 465.498 507.662 465.937 507.82 466.386 507.924 C 466.522 507.904 466.657 507.885 466.794 507.865 C 466.628 507.404 466.485 506.934 466.312 506.496 Z " fill="rgb(48,44,50)"/><path d=" M 466.312 506.496 C 465.874 505.393 465.133 504.371 464.586 503.316 C 463.774 501.752 463.174 500.102 462.853 498.389 C 462.798 498.387 462.743 498.385 462.688 498.385 C 460.144 498.385 457.979 500.016 457.184 502.289 C 457.266 502.373 457.35 502.457 457.444 502.537 C 457.888 502.91 458.41 503.205 458.872 503.559 C 459.994 504.418 460.852 505.604 462.106 506.279 C 463.053 506.787 464.059 507.141 465.066 507.506 C 465.498 507.662 465.937 507.82 466.386 507.924 C 466.522 507.904 466.658 507.885 466.794 507.865 C 466.628 507.404 466.485 506.934 466.312 506.496 Z " fill="rgb(183,151,91)"/><path d=" M 464.586 503.316 C 464.229 502.629 463.914 501.924 463.645 501.205 C 463.343 501.109 463.021 501.057 462.688 501.057 C 460.976 501.057 459.585 502.42 459.533 504.121 C 460.361 504.883 461.108 505.742 462.106 506.279 C 462.708 506.602 463.334 506.863 463.969 507.104 C 464.773 506.746 465.399 506.063 465.683 505.223 C 465.319 504.582 464.917 503.955 464.586 503.316 Z " fill="rgb(73,93,167)"/><path d=" M 444.838 491.756 L 450.017 494.746 L 450.279 485.104 L 444.838 482.105 L 444.838 491.756 Z " fill="rgb(166,64,69)"/><path d=" M 451.303 495.295 L 450.014 495.295 L 450.014 485.537 L 451.303 485.537 L 451.303 495.295 Z " fill="rgb(218,226,242)"/><path d=" M 439.91 479.174 C 439.91 479.174 442.139 477.922 444.437 477.6 L 444.714 491.582 C 444.714 491.582 441.188 490.273 439.603 490.334 L 439.91 479.174 Z " fill="rgb(185,200,230)"/><path d=" M 439.91 479.174 L 439.107 479.479 L 439.107 490.238 L 439.91 490.238 L 439.91 479.174 Z " fill="rgb(117,98,98)"/><path d=" M 439.107 479.479 C 439.107 479.479 437.919 479.973 437.404 480.369 L 437.404 490.09 L 439.107 490.09 L 439.107 479.479 Z " fill="rgb(48,44,50)"/><path d=" M 437.404 480.369 C 437.404 480.369 433.68 481.715 430.213 485.48 L 430.213 490.09 L 437.404 490.09 L 437.404 480.369 Z " fill="rgb(166,64,69)"/><path d=" M 450.824 494.861 L 449.534 494.861 L 449.534 485.104 L 450.824 485.104 L 450.824 494.861 Z " fill="rgb(48,44,50)"/><path d=" M 445.239 477.6 L 444.437 477.6 L 444.437 491.314 L 445.239 491.314 L 445.239 477.6 Z " fill="rgb(117,98,98)"/><path d=" M 465.745 508.098 C 465.261 508.098 464.631 508.002 463.84 507.701 C 461.218 506.707 458.011 503.973 454.311 499.572 C 449.853 494.271 445.471 492.164 442.579 491.33 C 439.452 490.428 435.898 490.596 435.877 490.6 L 435.724 489.736 C 435.816 489.721 439.458 489.529 442.765 490.471 C 445.787 491.334 450.36 493.514 454.98 499.008 C 463.295 508.895 466.465 507.094 466.496 507.074 L 466.991 507.797 C 466.928 507.844 466.531 508.098 465.745 508.098 Z " fill="rgb(164,121,83)"/><path d=" M 445.239 481.551 C 445.239 481.551 455.954 488.539 456.966 488.539 C 457.978 488.539 461.014 486.412 461.014 486.412 L 461.014 487.648 C 461.014 487.648 457.353 490.09 456.876 490.09 C 456.4 490.09 445.239 482.857 445.239 482.857 L 445.239 481.551 Z " fill="rgb(218,226,242)"/><path d=" M 446.437 478.203 C 446.437 478.203 455.492 484.859 456.777 484.859 C 458.063 484.859 461.79 481.531 461.79 481.531 L 446.437 478.203 Z " fill="rgb(183,151,91)"/><path d=" M 445.239 480.703 C 445.239 480.703 455.954 487.811 456.966 487.811 C 457.978 487.811 461.014 485.414 461.014 485.414 L 461.014 486.611 C 461.014 486.611 457.353 488.979 456.876 488.979 C 456.4 488.979 445.239 481.967 445.239 481.967 L 445.239 480.703 Z " fill="rgb(183,151,91)"/><path d=" M 460.722 482.023 C 460.722 482.023 460.696 493.328 463.341 500.787 C 465.985 508.244 472.643 518.732 474.6 519.684 L 475.681 518.592 C 475.681 518.592 470.996 514.729 464.293 500.238 C 462.548 493.064 462.488 496.166 461.645 481.551 C 460.802 466.936 460.722 482.023 460.722 482.023 Z " fill="rgb(164,121,83)"/><path d=" M 452.39 480.703 C 452.39 480.703 456.094 483.428 456.881 483.428 C 457.668 483.428 459.348 481.895 459.348 481.895 C 459.348 481.895 454.221 478.477 452.812 478.959 C 451.403 479.439 452.39 480.703 452.39 480.703 Z " fill="rgb(206,214,231)"/><path d=" M 462.704 467.344 C 462.704 467.344 464.452 469.086 464.006 473.615 C 463.56 478.146 463.183 482.684 466.496 481.299 C 469.81 479.914 466.945 476.385 464.946 478.248 C 464.946 478.248 464.957 476.014 465.246 473.076 C 465.536 470.137 465.324 467.322 462.704 467.344 Z " fill="rgb(202,131,78)"/><path d=" M 464.455 468.078 C 464.455 468.078 464.941 470.803 464.455 471.357 C 463.969 471.914 464.421 472.775 464.455 473.439 C 464.49 474.104 465.186 479.697 461.363 481.713 C 457.541 483.729 457.854 480.943 453.163 479.174 C 453.163 479.174 452.434 468.266 455.63 467.363 C 455.63 467.363 461.988 466.814 464.455 468.078 Z " fill="rgb(218,226,242)"/><path d=" M 448.844 468.779 C 448.844 468.779 447.604 469.793 447.604 472.748 C 447.604 475.701 446.072 478.791 444.02 477.686 C 441.967 476.58 444.042 474.482 445.215 475.814 C 445.215 475.814 445.351 474.371 445.351 472.453 C 445.351 470.537 446.423 468.301 448.844 468.779 Z " fill="rgb(163,109,72)"/><path d=" M 450.021 468.092 C 450.021 468.092 448.587 469.266 448.587 472.686 C 448.587 476.104 447.816 479.691 445.441 478.412 C 443.067 477.135 445.468 474.707 446.825 476.246 C 446.825 476.246 446.981 474.576 446.981 472.357 C 446.981 470.141 448.064 467.883 450.021 468.092 Z " fill="rgb(167,111,73)"/><path d=" M 451.572 467.721 C 451.572 467.721 450.211 470.123 450.211 473.801 C 450.211 477.477 449.185 480.184 446.63 478.809 C 444.075 477.434 446.658 474.822 448.117 476.479 C 448.117 476.479 448.286 474.682 448.286 472.297 C 448.286 469.91 449.467 467.496 451.572 467.721 Z " fill="rgb(172,114,74)"/><path d=" M 452.812 467.535 C 452.812 467.535 451.843 469.168 451.843 473.27 C 451.843 477.369 451.028 481.246 448.179 479.713 C 445.33 478.18 448.211 475.268 449.838 477.115 C 449.838 477.115 450.026 475.111 450.026 472.451 C 450.026 469.789 450.464 467.285 452.812 467.535 Z " fill="rgb(177,117,75)"/><path d=" M 454.454 467.357 C 454.454 467.357 452.617 468.861 452.617 473.236 C 452.617 477.611 452.551 481.988 449.511 480.352 C 446.471 478.715 449.544 475.607 451.28 477.578 C 451.28 477.578 451.481 475.441 451.481 472.602 C 451.481 469.762 451.949 467.09 454.454 467.357 Z " fill="rgb(182,120,76)"/><path d=" M 455.63 467.363 C 455.63 467.363 453.719 468.926 453.719 473.479 C 453.719 478.029 453.65 482.582 450.488 480.879 C 447.326 479.176 450.522 475.945 452.329 477.994 C 452.329 477.994 452.538 475.771 452.538 472.818 C 452.538 469.863 453.024 467.084 455.63 467.363 Z " fill="rgb(202,131,78)"/><path d=" M 445.997 469.996 C 445.997 469.996 453.173 466.037 464.843 468.559 L 465.533 466.875 C 465.533 466.875 456.488 463.332 445.548 468.195 L 445.997 469.996 Z " fill="rgb(68,66,71)"/><path d=" M 461.532 470.96 C 461.532 470.96 462.262 470.665 463.069 470.656 C 463.27 470.644 463.476 470.676 463.668 470.696 C 463.854 470.76 464.017 470.858 464.15 470.932 C 464.38 471.171 464.469 471.346 464.469 471.346 L 464.441 471.369 C 464.441 471.369 464.233 471.298 464.014 471.174 C 463.878 471.143 463.73 471.104 463.577 471.05 C 463.411 471.024 463.24 470.954 463.055 470.937 C 462.87 470.924 462.683 470.896 462.506 470.91 C 462.328 470.912 462.161 470.918 462.019 470.933 C 461.732 470.955 461.542 470.993 461.542 470.993 L 461.532 470.96 Z " fill="rgb(202,131,78)"/><path d=" M 458.335 470.993 C 458.335 470.993 458.145 470.955 457.858 470.933 C 457.716 470.918 457.549 470.912 457.371 470.91 C 457.194 470.896 457.007 470.924 456.822 470.937 C 456.637 470.954 456.466 471.024 456.3 471.05 C 456.146 471.104 455.999 471.143 455.863 471.174 C 455.644 471.298 455.436 471.369 455.436 471.369 L 455.408 471.346 C 455.408 471.346 455.497 471.171 455.727 470.932 C 455.86 470.858 456.022 470.76 456.209 470.696 C 456.401 470.676 456.607 470.644 456.808 470.656 C 457.615 470.665 458.345 470.96 458.345 470.96 L 458.335 470.993 Z " fill="rgb(202,131,78)"/><path d=" M 459.359 472.31 C 459.359 472.31 459.193 472.5 458.872 472.703 C 458.708 472.793 458.513 472.912 458.283 472.978 C 458.055 473.048 457.807 473.121 457.548 473.127 C 457.29 473.171 457.032 473.16 456.792 473.118 C 456.549 473.089 456.336 473.016 456.167 472.919 C 455.822 472.744 455.622 472.59 455.622 472.59 L 455.638 472.559 C 455.638 472.559 455.901 472.574 456.252 472.654 C 456.424 472.713 456.631 472.733 456.851 472.758 C 457.066 472.809 457.298 472.857 457.535 472.847 C 457.774 472.868 458.007 472.824 458.228 472.782 C 458.342 472.771 458.44 472.726 458.539 472.694 C 458.635 472.659 458.734 472.638 458.813 472.595 C 459.146 472.445 459.336 472.284 459.336 472.284 L 459.359 472.31 Z " fill="rgb(69,71,97)"/><path d=" M 461.652 472.284 C 461.652 472.284 461.794 472.394 462.036 472.493 C 462.155 472.544 462.302 472.588 462.455 472.629 C 462.613 472.652 462.776 472.7 462.947 472.684 C 463.115 472.688 463.279 472.67 463.432 472.631 C 463.584 472.613 463.733 472.623 463.857 472.586 C 464.108 472.547 464.309 472.559 464.309 472.559 L 464.322 472.59 C 464.322 472.59 464.187 472.718 463.936 472.854 C 463.813 472.929 463.652 472.973 463.475 472.993 C 463.297 473.023 463.107 473 462.921 472.963 C 462.732 472.951 462.558 472.873 462.393 472.822 C 462.232 472.756 462.09 472.678 461.977 472.601 C 461.748 472.448 461.629 472.311 461.629 472.31 L 461.652 472.284 Z " fill="rgb(69,71,97)"/><path d=" M 460.998 471.742 C 460.998 471.742 460.963 472.255 461.028 473.018 C 461.062 473.399 461.13 473.839 461.239 474.3 C 461.297 474.528 461.39 474.753 461.465 474.987 C 461.583 475.208 461.704 475.432 461.824 475.656 C 461.891 475.748 461.932 475.926 461.938 476.096 L 461.881 476.335 C 461.842 476.403 461.797 476.469 461.752 476.533 C 461.544 476.762 461.276 476.872 461.023 476.94 C 460.766 476.986 460.512 477.009 460.275 476.965 C 460.041 476.928 459.819 476.864 459.639 476.752 C 459.455 476.654 459.305 476.512 459.219 476.364 C 459.109 476.229 459.089 476.075 459.057 475.962 C 459.041 475.726 459.053 475.598 459.053 475.598 L 459.088 475.598 C 459.088 475.598 459.109 475.729 459.173 475.931 C 459.231 476.021 459.269 476.145 459.378 476.241 C 459.464 476.353 459.607 476.438 459.765 476.504 C 459.918 476.582 460.112 476.618 460.313 476.631 C 460.514 476.645 460.729 476.632 460.941 476.585 C 461.152 476.537 461.36 476.449 461.506 476.313 C 461.65 476.156 461.682 476.013 461.57 475.774 C 461.46 475.54 461.35 475.307 461.241 475.076 C 461.173 474.826 461.089 474.585 461.041 474.345 C 460.949 473.864 460.913 473.412 460.906 473.024 C 460.893 472.25 460.963 471.738 460.963 471.738 L 460.998 471.742 Z " fill="rgb(69,71,97)"/><path d=" M 458.063 478.186 C 458.063 478.186 459.105 478.108 460.147 478.063 C 460.669 478.018 461.189 478.004 461.581 478.064 C 461.972 478.109 462.232 478.186 462.232 478.186 L 462.232 478.221 C 462.232 478.221 461.972 478.297 461.581 478.342 C 461.189 478.402 460.669 478.389 460.147 478.344 C 459.105 478.298 458.063 478.221 458.063 478.221 L 458.063 478.186 Z " fill="rgb(69,71,97)"/><path d=" M 459.626 479.156 C 459.626 479.156 460 479.079 460.373 479.033 C 460.56 478.988 460.746 478.975 460.887 479.035 C 461.026 479.08 461.12 479.156 461.12 479.156 L 461.12 479.191 C 461.12 479.191 461.026 479.268 460.887 479.313 C 460.746 479.373 460.56 479.359 460.373 479.314 C 460 479.269 459.626 479.191 459.626 479.191 L 459.626 479.156 Z " fill="rgb(69,71,97)"/><path d=" M 440.36 537.195 L 436.503 542.201 C 436.503 542.201 444.028 547.195 445.546 547.283 C 447.063 547.371 464.218 542.064 464.218 542.064 L 460.345 535.875 L 440.36 537.195 Z " fill="rgb(166,64,69)"/><path d=" M 460.345 543.246 C 460.345 543.246 458.22 536.443 457.67 535.992 C 457.119 535.541 454.321 536.828 454.321 536.828 C 454.321 536.828 456.479 538.963 457.544 544.088 L 460.345 543.246 Z " fill="rgb(69,68,116)"/><path d=" M 430.213 492.381 L 430.213 518.25 C 430.213 518.25 433.465 522.396 439.99 523.01 C 439.99 523.01 440.111 496.807 430.213 492.381 Z " fill="rgb(166,64,69)"/><path d=" M 449.305 521.588 L 452.632 521.588 L 452.632 515.479 L 449.305 515.479 L 449.305 521.588 Z " fill="rgb(48,44,50)"/><path d=" M 442.632 523.697 L 445.96 523.697 L 445.96 517.588 L 442.632 517.588 L 442.632 523.697 Z " fill="rgb(48,44,50)"/><path d=" M 452.657 524.016 L 455.985 524.016 L 455.985 517.906 L 452.657 517.906 L 452.657 524.016 Z " fill="rgb(166,64,69)"/><path d=" M 445.976 522.023 L 449.305 522.023 L 449.305 515.914 L 445.976 515.914 L 445.976 522.023 Z " fill="rgb(166,64,69)"/><path d=" M 455.88 525.855 L 459.208 525.855 L 459.208 519.748 L 455.88 519.748 L 455.88 525.855 Z " fill="rgb(48,44,50)"/><path d=" M 459.232 525.979 L 462.562 525.979 L 462.562 522.174 L 459.232 522.174 L 459.232 525.979 Z " fill="rgb(166,64,69)"/><path d=" M 442.66 525.869 L 443.422 523.146 L 440.863 523.01 L 442.66 525.869 Z " fill="rgb(167,111,73)"/><path d=" M 439.1 522.912 C 439.1 522.912 440.265 505.797 430.213 492.381 C 430.225 491.199 430.23 490.6 430.23 490.6 C 430.23 490.6 436.147 493.381 439.514 505.105 C 442.879 516.83 441.354 522.912 441.354 522.912 L 439.1 522.912 Z " fill="rgb(48,44,50)"/><path d=" M 440.637 522.529 C 440.637 522.529 440.945 511.268 438.166 504.52 C 435.387 497.771 433.452 493.17 430.213 490.629 L 430.213 485.48 C 430.213 485.48 435.21 486.494 442.338 504.256 C 445.333 514.201 444.773 522.9 444.773 522.9 L 440.637 522.529 Z " fill="rgb(69,68,116)"/><path d=" M 440.468 522.828 C 440.468 522.404 441.324 522.063 442.382 522.063 C 443.439 522.063 444.296 522.404 444.296 522.828 C 444.296 523.25 443.439 523.592 442.382 523.592 C 441.324 523.592 440.468 523.25 440.468 522.828 Z " fill="rgb(166,64,69)"/><path d=" M 440.609 521.145 C 440.587 520.732 441.407 520.354 442.441 520.299 C 443.476 520.244 444.331 520.535 444.354 520.947 C 444.375 521.361 443.555 521.74 442.521 521.795 C 441.486 521.848 440.631 521.559 440.609 521.145 Z " fill="rgb(166,64,69)"/><path d=" M 440.638 519.209 C 440.595 518.805 441.38 518.391 442.39 518.281 C 443.4 518.172 444.255 518.41 444.299 518.814 C 444.342 519.219 443.558 519.635 442.547 519.742 C 441.537 519.852 440.682 519.613 440.638 519.209 Z " fill="rgb(166,64,69)"/><path d=" M 440.55 517.061 C 440.485 516.666 441.232 516.213 442.221 516.051 C 443.208 515.887 444.062 516.074 444.127 516.469 C 444.191 516.863 443.444 517.316 442.457 517.479 C 441.469 517.643 440.615 517.455 440.55 517.061 Z " fill="rgb(166,64,69)"/><path d=" M 440.34 514.74 C 440.253 514.354 440.964 513.865 441.929 513.646 C 442.893 513.43 443.745 513.564 443.832 513.951 C 443.919 514.336 443.208 514.824 442.243 515.043 C 441.279 515.26 440.427 515.125 440.34 514.74 Z " fill="rgb(166,64,69)"/><path d=" M 440.002 512.285 C 439.893 511.908 440.567 511.383 441.509 511.111 C 442.45 510.838 443.302 510.922 443.41 511.299 C 443.519 511.674 442.844 512.201 441.903 512.473 C 440.962 512.744 440.11 512.66 440.002 512.285 Z " fill="rgb(166,64,69)"/><path d=" M 439.53 509.736 C 439.399 509.369 440.038 508.807 440.956 508.48 C 441.874 508.154 442.724 508.186 442.854 508.553 C 442.984 508.92 442.347 509.482 441.429 509.809 C 440.511 510.135 439.66 510.104 439.53 509.736 Z " fill="rgb(166,64,69)"/><path d=" M 438.92 507.135 C 438.768 506.777 439.369 506.178 440.265 505.797 C 441.158 505.416 442.008 505.396 442.159 505.754 C 442.313 506.111 441.71 506.711 440.815 507.092 C 439.921 507.473 439.071 507.492 438.92 507.135 Z " fill="rgb(166,64,69)"/><path d=" M 438.166 504.52 C 437.991 504.17 438.557 503.535 439.429 503.1 C 440.301 502.664 441.147 502.594 441.322 502.941 C 441.496 503.289 440.931 503.926 440.059 504.361 C 439.188 504.797 438.34 504.867 438.166 504.52 Z " fill="rgb(166,64,69)"/><path d=" M 437.263 501.93 C 437.066 501.59 437.596 500.918 438.444 500.428 C 439.293 499.939 440.139 499.816 440.334 500.154 C 440.53 500.494 440.001 501.166 439.153 501.656 C 438.305 502.146 437.458 502.27 437.263 501.93 Z " fill="rgb(166,64,69)"/><path d=" M 436.204 499.406 C 435.987 499.076 436.479 498.367 437.306 497.824 C 438.13 497.279 438.976 497.104 439.192 497.434 C 439.411 497.764 438.918 498.473 438.093 499.018 C 437.268 499.563 436.423 499.736 436.204 499.406 Z " fill="rgb(166,64,69)"/><path d=" M 434.987 496.988 C 434.748 496.668 435.204 495.922 436.007 495.324 C 436.809 494.725 437.652 494.498 437.892 494.82 C 438.131 495.141 437.675 495.885 436.873 496.484 C 436.071 497.084 435.227 497.309 434.987 496.988 Z " fill="rgb(166,64,69)"/><path d=" M 433.604 494.717 C 433.344 494.406 433.764 493.623 434.542 492.971 C 435.321 492.316 436.164 492.039 436.425 492.35 C 436.687 492.662 436.267 493.443 435.487 494.098 C 434.709 494.75 433.866 495.027 433.604 494.717 Z " fill="rgb(166,64,69)"/><path d=" M 432.052 492.631 C 431.769 492.328 432.152 491.51 432.908 490.803 C 433.663 490.094 434.505 489.766 434.788 490.066 C 435.07 490.369 434.688 491.188 433.933 491.895 C 433.177 492.604 432.335 492.932 432.052 492.631 Z " fill="rgb(166,64,69)"/><path d=" M 430.323 490.77 C 430.019 490.477 430.365 489.621 431.098 488.859 C 431.83 488.098 432.671 487.717 432.976 488.01 C 433.28 488.301 432.933 489.156 432.201 489.918 C 431.469 490.682 430.628 491.063 430.323 490.77 Z " fill="rgb(166,64,69)"/><path d=" M 449.529 507.936 L 454.819 507.936 L 454.819 513.789 L 449.529 513.789 L 449.529 507.936 Z " fill="rgb(73,93,167)"/><path d=" M 454.591 508.184 L 449.529 508.184 L 449.529 502.875 L 454.591 508.184 Z " fill="rgb(183,151,91)"/><path d=" M 454.773 508.633 L 449.438 508.633 L 449.438 512.979 L 454.773 512.979 L 454.773 508.633 Z " fill="rgb(183,151,91)"/><path d=" M 454.773 513.361 L 449.529 513.361 L 449.529 514.779 L 454.773 517.953 L 454.773 513.361 Z " fill="rgb(183,151,91)"/><path d=" M 448.507 502.367 L 448.71 514.684 L 444.368 517.137 C 444.368 517.137 443.517 506.938 442.485 505.105 C 441.454 503.273 448.507 502.367 448.507 502.367 Z " fill="rgb(166,64,69)"/><path d=" M 448.431 502.33 L 449.721 502.971 L 449.721 515.574 L 448.431 515.574 L 448.431 502.33 Z " fill="rgb(218,226,242)"/><path d=" M 448.015 501.85 L 449.305 502.488 L 449.305 515.094 L 448.015 515.094 L 448.015 501.85 Z " fill="rgb(48,44,50)"/><path d=" M 439.582 497.574 C 440.02 498.678 440.76 499.699 441.308 500.754 C 442.198 502.471 442.834 504.289 443.125 506.182 C 443.152 506.182 443.178 506.184 443.205 506.184 C 445.873 506.184 448.153 504.531 449.085 502.195 C 448.887 501.973 448.694 501.742 448.448 501.535 C 448.006 501.16 447.483 500.867 447.021 500.514 C 445.899 499.652 445.042 498.467 443.787 497.791 C 442.841 497.283 441.834 496.93 440.827 496.566 C 440.396 496.408 439.956 496.252 439.508 496.146 C 439.371 496.168 439.235 496.188 439.1 496.207 C 439.265 496.668 439.408 497.139 439.582 497.574 Z " fill="rgb(48,44,50)"/><path d=" M 439.582 497.574 C 440.02 498.678 440.76 499.699 441.308 500.754 C 442.12 502.32 442.72 503.969 443.04 505.684 C 443.095 505.684 443.149 505.688 443.205 505.688 C 445.751 505.688 447.913 504.057 448.71 501.783 C 448.628 501.697 448.543 501.613 448.448 501.535 C 448.006 501.16 447.483 500.867 447.021 500.514 C 445.899 499.652 445.042 498.467 443.787 497.791 C 442.841 497.283 441.834 496.93 440.827 496.566 C 440.396 496.408 439.956 496.252 439.508 496.146 C 439.371 496.168 439.235 496.188 439.1 496.205 C 439.265 496.666 439.408 497.137 439.582 497.574 Z " fill="rgb(183,151,91)"/><path d=" M 441.308 500.754 C 441.665 501.441 441.979 502.146 442.249 502.865 C 442.551 502.961 442.872 503.014 443.205 503.014 C 444.918 503.014 446.309 501.65 446.359 499.949 C 445.531 499.189 444.785 498.328 443.787 497.791 C 443.185 497.469 442.559 497.209 441.924 496.969 C 441.12 497.324 440.494 498.008 440.211 498.85 C 440.574 499.488 440.976 500.115 441.308 500.754 Z " fill="rgb(73,93,167)"/><path d=" M 461.056 512.314 L 455.877 509.326 L 455.614 518.969 L 461.056 521.965 L 461.056 512.314 Z " fill="rgb(166,64,69)"/><path d=" M 454.591 508.775 L 455.88 508.775 L 455.88 518.533 L 454.591 518.533 L 454.591 508.775 Z " fill="rgb(218,226,242)"/><path d=" M 465.983 524.898 C 465.983 524.898 463.755 526.148 461.457 526.471 L 461.179 512.49 C 461.179 512.49 464.705 513.797 466.29 513.738 L 465.983 524.898 Z " fill="rgb(185,200,230)"/><path d=" M 465.983 524.898 L 466.785 524.594 L 466.785 513.834 L 465.983 513.834 L 465.983 524.898 Z " fill="rgb(117,98,98)"/><path d=" M 466.785 524.594 C 466.785 524.594 467.974 524.098 468.489 523.703 L 468.489 513.98 L 466.785 513.98 L 466.785 524.594 Z " fill="rgb(48,44,50)"/><path d=" M 455.069 509.209 L 456.358 509.209 L 456.358 518.969 L 455.069 518.969 L 455.069 509.209 Z " fill="rgb(48,44,50)"/><path d=" M 460.654 526.471 L 461.457 526.471 L 461.457 512.756 L 460.654 512.756 L 460.654 526.471 Z " fill="rgb(117,98,98)"/><path d=" M 440.148 495.973 C 440.632 495.973 441.263 496.07 442.054 496.369 C 444.677 497.363 447.882 500.098 451.584 504.5 C 456.041 509.801 460.423 511.906 463.313 512.74 C 466.44 513.643 469.84 513.227 469.861 513.223 L 470.015 514.086 C 469.923 514.102 466.436 514.541 463.128 513.6 C 460.106 512.738 455.533 510.559 450.913 505.063 C 442.599 495.178 439.428 496.977 439.397 496.996 L 438.902 496.273 C 438.966 496.229 439.361 495.973 440.148 495.973 Z " fill="rgb(164,121,83)"/><path d=" M 460.654 522.52 C 460.654 522.52 449.939 515.531 448.928 515.531 C 447.916 515.531 444.88 517.658 444.88 517.658 L 444.88 516.422 C 444.88 516.422 448.541 513.98 449.017 513.98 C 449.493 513.98 460.654 521.215 460.654 521.215 L 460.654 522.52 Z " fill="rgb(218,226,242)"/><path d=" M 459.456 525.869 C 459.456 525.869 450.401 519.211 449.115 519.211 C 447.83 519.211 444.104 522.539 444.104 522.539 L 459.456 525.869 Z " fill="rgb(183,151,91)"/><path d=" M 460.654 523.369 C 460.654 523.369 449.939 516.262 448.928 516.262 C 447.916 516.262 444.88 518.656 444.88 518.656 L 444.88 517.459 C 444.88 517.459 448.541 515.094 449.017 515.094 C 449.493 515.094 460.654 522.104 460.654 522.104 L 460.654 523.369 Z " fill="rgb(183,151,91)"/><path d=" M 445.172 522.049 C 445.172 522.049 445.196 510.742 442.553 503.285 C 439.907 495.826 433.86 485.451 431.146 484.527 L 430.213 485.48 C 432.557 486.664 440.177 498.197 441.601 503.834 C 443.346 511.006 443.405 507.904 444.248 522.52 C 445.092 537.135 445.172 522.049 445.172 522.049 Z " fill="rgb(164,121,83)"/><path d=" M 453.503 523.369 C 453.503 523.369 449.8 520.643 449.012 520.643 C 448.225 520.643 446.545 522.178 446.545 522.178 C 446.545 522.178 451.673 525.594 453.081 525.113 C 454.49 524.631 453.503 523.369 453.503 523.369 Z " fill="rgb(206,214,231)"/><path d=" M 443.189 536.729 C 443.189 536.729 441.441 534.984 441.887 530.455 C 442.333 525.926 442.711 521.389 439.396 522.773 C 436.083 524.158 438.947 527.688 440.946 525.824 C 440.946 525.824 440.937 528.057 440.646 530.996 C 440.357 533.936 440.568 536.75 443.189 536.729 Z " fill="rgb(202,131,78)"/><path d=" M 441.438 535.992 C 441.438 535.992 440.951 533.27 441.438 532.713 C 441.924 532.158 441.473 531.295 441.438 530.631 C 441.403 529.969 440.708 524.375 444.529 522.359 C 448.353 520.344 448.039 523.129 452.73 524.898 C 452.73 524.898 453.46 535.805 450.264 536.709 C 450.264 536.709 443.904 537.256 441.438 535.992 Z " fill="rgb(218,226,242)"/><path d=" M 457.049 535.293 C 457.049 535.293 458.289 534.277 458.289 531.324 C 458.289 528.369 459.821 525.281 461.874 526.385 C 463.926 527.49 461.851 529.588 460.679 528.258 C 460.679 528.258 460.542 529.701 460.542 531.617 C 460.542 533.535 459.471 535.771 457.049 535.293 Z " fill="rgb(163,109,72)"/><path d=" M 455.871 535.979 C 455.871 535.979 457.307 534.805 457.307 531.387 C 457.307 527.969 458.076 524.379 460.452 525.658 C 462.826 526.938 460.426 529.363 459.068 527.824 C 459.068 527.824 458.912 529.494 458.912 531.713 C 458.912 533.932 457.829 536.188 455.871 535.979 Z " fill="rgb(167,111,73)"/><path d=" M 454.321 536.352 C 454.321 536.352 455.683 533.947 455.683 530.271 C 455.683 526.594 456.708 523.887 459.264 525.262 C 461.818 526.639 459.235 529.248 457.775 527.592 C 457.775 527.592 457.607 529.389 457.607 531.775 C 457.607 534.16 456.426 536.576 454.321 536.352 Z " fill="rgb(172,114,74)"/><path d=" M 453.081 536.535 C 453.081 536.535 454.051 534.902 454.051 530.803 C 454.051 526.701 454.865 522.824 457.715 524.357 C 460.563 525.893 457.684 528.803 456.056 526.957 C 456.056 526.957 455.867 528.959 455.867 531.621 C 455.867 534.281 455.429 536.785 453.081 536.535 Z " fill="rgb(177,117,75)"/><path d=" M 451.438 536.713 C 451.438 536.713 453.276 535.211 453.276 530.834 C 453.276 526.459 453.343 522.082 456.383 523.721 C 459.423 525.355 456.35 528.463 454.612 526.492 C 454.612 526.492 454.412 528.631 454.412 531.469 C 454.412 534.309 453.944 536.98 451.438 536.713 Z " fill="rgb(182,120,76)"/><path d=" M 450.264 536.709 C 450.264 536.709 452.174 535.145 452.174 530.594 C 452.174 526.043 452.244 521.49 455.405 523.193 C 458.567 524.896 455.371 528.127 453.564 526.076 C 453.564 526.076 453.355 528.301 453.355 531.254 C 453.355 534.207 452.869 536.986 450.264 536.709 Z " fill="rgb(202,131,78)"/><path d=" M 459.896 534.076 C 459.896 534.076 452.721 538.033 441.051 535.514 L 440.36 537.195 C 440.36 537.195 449.405 540.738 460.345 535.875 L 459.896 534.076 Z " fill="rgb(68,66,71)"/><path d=" M 444.361 533.112 C 444.361 533.112 443.631 533.407 442.823 533.415 C 442.623 533.429 442.417 533.396 442.225 533.375 C 442.038 533.311 441.876 533.213 441.741 533.14 C 441.513 532.9 441.424 532.725 441.424 532.725 L 441.451 532.701 C 441.451 532.701 441.659 532.772 441.879 532.897 C 442.015 532.929 442.163 532.967 442.315 533.021 C 442.481 533.047 442.652 533.117 442.838 533.136 C 443.023 533.148 443.21 533.175 443.388 533.162 C 443.565 533.16 443.732 533.154 443.875 533.14 C 444.161 533.117 444.352 533.079 444.352 533.079 L 444.361 533.112 Z " fill="rgb(202,131,78)"/><path d=" M 447.558 533.079 C 447.558 533.079 447.748 533.117 448.034 533.14 C 448.177 533.154 448.344 533.16 448.521 533.162 C 448.699 533.175 448.886 533.148 449.071 533.136 C 449.257 533.117 449.428 533.047 449.594 533.021 C 449.746 532.967 449.895 532.929 450.03 532.897 C 450.25 532.772 450.458 532.701 450.458 532.701 L 450.485 532.725 C 450.485 532.725 450.396 532.9 450.168 533.14 C 450.033 533.213 449.871 533.311 449.685 533.375 C 449.492 533.396 449.286 533.429 449.086 533.415 C 448.278 533.407 447.548 533.112 447.548 533.112 L 447.558 533.079 Z " fill="rgb(202,131,78)"/><path d=" M 446.533 531.763 C 446.533 531.763 446.699 531.572 447.021 531.369 C 447.185 531.278 447.38 531.16 447.609 531.094 C 447.838 531.023 448.086 530.95 448.346 530.944 C 448.604 530.901 448.861 530.911 449.102 530.953 C 449.345 530.982 449.558 531.056 449.727 531.152 C 450.071 531.328 450.271 531.482 450.271 531.482 L 450.256 531.514 C 450.256 531.514 449.992 531.498 449.642 531.418 C 449.47 531.358 449.262 531.339 449.043 531.313 C 448.827 531.264 448.596 531.214 448.358 531.225 C 448.118 531.203 447.886 531.247 447.665 531.289 C 447.552 531.301 447.452 531.346 447.354 531.377 C 447.258 531.413 447.158 531.434 447.079 531.477 C 446.746 531.626 446.557 531.788 446.557 531.788 L 446.533 531.763 Z " fill="rgb(69,71,97)"/><path d=" M 444.24 531.788 C 444.24 531.788 444.1 531.679 443.856 531.579 C 443.737 531.528 443.591 531.484 443.438 531.443 C 443.279 531.42 443.116 531.372 442.946 531.389 C 442.777 531.385 442.613 531.402 442.462 531.441 C 442.309 531.459 442.159 531.449 442.036 531.486 C 441.784 531.525 441.584 531.514 441.584 531.514 L 441.57 531.482 C 441.57 531.482 441.706 531.354 441.957 531.219 C 442.08 531.145 442.24 531.1 442.418 531.079 C 442.596 531.049 442.785 531.071 442.972 531.109 C 443.16 531.121 443.335 531.199 443.5 531.25 C 443.66 531.315 443.804 531.395 443.916 531.472 C 444.145 531.624 444.264 531.762 444.264 531.763 L 444.24 531.788 Z " fill="rgb(69,71,97)"/><path d=" M 444.895 532.33 C 444.895 532.33 444.931 531.817 444.864 531.054 C 444.831 530.673 444.764 530.232 444.653 529.772 C 444.596 529.543 444.503 529.318 444.428 529.085 C 444.31 528.864 444.188 528.64 444.068 528.416 C 444.002 528.323 443.961 528.146 443.955 527.976 L 444.012 527.736 C 444.051 527.669 444.097 527.603 444.142 527.538 C 444.349 527.31 444.616 527.2 444.87 527.131 C 445.128 527.085 445.382 527.063 445.618 527.106 C 445.853 527.144 446.074 527.208 446.255 527.319 C 446.438 527.417 446.589 527.561 446.675 527.708 C 446.784 527.843 446.805 527.997 446.837 528.11 C 446.853 528.347 446.841 528.475 446.841 528.475 L 446.806 528.475 C 446.806 528.475 446.784 528.344 446.721 528.142 C 446.662 528.05 446.625 527.928 446.516 527.83 C 446.43 527.72 446.286 527.635 446.129 527.567 C 445.976 527.49 445.781 527.453 445.581 527.441 C 445.379 527.427 445.164 527.439 444.951 527.487 C 444.741 527.534 444.533 527.622 444.387 527.758 C 444.242 527.915 444.212 528.06 444.322 528.298 C 444.433 528.531 444.543 528.766 444.652 528.995 C 444.72 529.245 444.805 529.487 444.852 529.727 C 444.944 530.208 444.979 530.66 444.986 531.048 C 445.001 531.822 444.93 532.334 444.93 532.334 L 444.895 532.33 Z " fill="rgb(69,71,97)"/><path d=" M 447.831 525.887 C 447.831 525.887 446.789 525.964 445.746 526.01 C 445.225 526.055 444.703 526.068 444.313 526.008 C 443.922 525.963 443.661 525.887 443.661 525.887 L 443.661 525.852 C 443.661 525.852 443.922 525.775 444.313 525.73 C 444.703 525.67 445.225 525.684 445.746 525.729 C 446.789 525.774 447.831 525.852 447.831 525.852 L 447.831 525.887 Z " fill="rgb(69,71,97)"/><path d=" M 446.268 524.916 C 446.268 524.916 445.895 524.993 445.521 525.039 C 445.334 525.084 445.146 525.098 445.007 525.037 C 444.867 524.992 444.773 524.916 444.773 524.916 L 444.773 524.881 C 444.773 524.881 444.867 524.805 445.007 524.76 C 445.146 524.699 445.334 524.713 445.521 524.758 C 445.895 524.804 446.268 524.881 446.268 524.881 L 446.268 524.916 Z " fill="rgb(69,71,97)"/></g></svg>