<?xml version="1.0" encoding="UTF-8" standalone="no"?><!-- Generator: Gravit.io --><svg xmlns="http://www.w3.org/2000/svg" xmlns:xlink="http://www.w3.org/1999/xlink" style="isolation:isolate" viewBox="35.033 487.034 69.123 103.683" width="69.123pt" height="103.683pt"><g><path d=" M 104.156 587.997 C 104.156 589.501 102.937 590.717 101.434 590.717 L 37.754 590.717 C 36.251 590.717 35.033 589.501 35.033 587.997 L 35.033 489.755 C 35.033 488.253 36.251 487.034 37.754 487.034 L 101.434 487.034 C 102.937 487.034 104.156 488.253 104.156 489.755 L 104.156 587.997 Z " fill="rgb(234,232,232)"/><path d=" M 42.405 506.909 L 41.828 506.333 C 39.685 504.436 38.283 503.159 38.283 501.59 C 38.283 500.315 39.273 499.325 40.549 499.325 C 41.253 499.325 41.953 500.073 42.405 500.61 C 42.858 500.073 43.559 499.325 44.262 499.325 C 45.537 499.325 46.527 500.315 46.527 501.59 C 46.527 503.159 45.127 504.436 42.983 506.333 L 42.405 506.909 Z " fill="rgb(125,60,64)"/><path d=" M 42.396 500.604 C 41.943 500.069 41.249 499.329 40.549 499.329 C 39.273 499.329 38.283 500.319 38.283 501.594 C 38.283 503.163 39.685 504.44 41.828 506.337 L 42.396 506.903 L 42.396 500.604 Z " fill="rgb(147,67,72)"/><path d=" M 96.695 570.669 L 97.272 571.245 C 99.416 573.141 100.817 574.419 100.817 575.987 C 100.817 577.262 99.827 578.253 98.552 578.253 C 97.848 578.253 97.147 577.503 96.695 576.967 C 96.242 577.503 95.541 578.253 94.839 578.253 C 93.563 578.253 92.573 577.262 92.573 575.987 C 92.573 574.419 93.974 573.141 96.117 571.245 L 96.695 570.669 Z " fill="rgb(125,60,64)"/><path d=" M 96.704 576.973 C 97.157 577.508 97.851 578.249 98.552 578.249 C 99.827 578.249 100.817 577.258 100.817 575.983 C 100.817 574.415 99.416 573.135 97.272 571.241 L 96.704 570.672 L 96.704 576.973 Z " fill="rgb(147,67,72)"/><path d=" M 45.843 497.766 C 45.222 497.657 44.428 497.483 43.698 497.298 L 43.698 497.254 C 44.917 496.819 45.788 495.621 45.788 493.727 C 45.788 491.561 44.493 490.015 42.49 490.015 C 40.509 490.015 39.083 491.528 39.083 493.88 C 39.083 496.253 40.563 497.537 42.316 497.602 C 42.457 497.602 42.599 497.657 42.762 497.711 C 43.611 498.005 44.58 498.299 45.57 498.56 L 45.843 497.766 Z  M 42.435 496.83 C 40.933 496.83 40.084 495.425 40.084 493.858 C 40.084 492.268 40.868 490.788 42.468 490.788 C 44.025 490.788 44.787 492.301 44.787 493.782 C 44.787 495.447 43.938 496.83 42.435 496.83 Z " fill="rgb(125,60,64)"/><path d=" M 93.345 579.985 C 93.966 580.093 94.76 580.268 95.49 580.453 L 95.49 580.496 C 94.27 580.932 93.4 582.129 93.4 584.023 C 93.4 586.189 94.695 587.735 96.698 587.735 C 98.679 587.735 100.105 586.222 100.105 583.871 C 100.105 581.498 98.625 580.213 96.872 580.148 C 96.731 580.148 96.589 580.093 96.426 580.039 C 95.577 579.745 94.608 579.451 93.617 579.19 L 93.345 579.985 Z  M 96.752 580.921 C 98.255 580.921 99.104 582.325 99.104 583.893 C 99.104 585.482 98.32 586.962 96.72 586.962 C 95.163 586.962 94.401 585.449 94.401 583.969 C 94.401 582.303 95.25 580.921 96.752 580.921 Z " fill="rgb(125,60,64)"/><path d=" M 70.173 544.864 L 74.235 544.864 L 74.235 546.239 L 70.173 546.239 L 70.173 544.864 Z " fill="rgb(69,68,116)"/><path d=" M 69.819 546.239 L 73.883 546.239 L 73.883 547.614 L 69.819 547.614 L 69.819 546.239 Z " fill="rgb(166,64,69)"/><path d=" M 69.219 547.614 L 73.282 547.614 L 73.282 548.989 L 69.219 548.989 L 69.219 547.614 Z " fill="rgb(69,68,116)"/><path d=" M 68.866 548.989 L 72.929 548.989 L 72.929 550.366 L 68.866 550.366 L 68.866 548.989 Z " fill="rgb(166,64,69)"/><path d=" M 68.266 550.366 L 72.328 550.366 L 72.328 551.741 L 68.266 551.741 L 68.266 550.366 Z " fill="rgb(69,68,116)"/><path d=" M 67.912 551.741 L 71.975 551.741 L 71.975 553.116 L 67.912 553.116 L 67.912 551.741 Z " fill="rgb(166,64,69)"/><path d=" M 67.312 553.116 L 71.374 553.116 L 71.374 554.491 L 67.312 554.491 L 67.312 553.116 Z " fill="rgb(69,68,116)"/><path d=" M 69.819 544.805 L 66.847 552.508 L 59.138 553.051 L 63.552 544.227 L 69.819 544.805 Z " fill="rgb(166,64,69)"/><path d=" M 79.411 545.299 L 80.49 553.819 L 72.636 553.46 L 72.509 550.321 L 75.211 544.733 L 79.411 545.299 Z " fill="rgb(166,64,69)"/><path d=" M 70.461 553.979 L 73.947 544.96 L 76.507 545.299 C 76.507 545.299 72.924 550.014 73.484 551.805 C 74.044 553.596 78.186 552.508 78.186 552.508 L 79.962 555.684 L 70.461 553.979 Z " fill="rgb(48,44,50)"/><path d=" M 71.021 544.733 L 67.614 553.883 L 58.913 554.536 L 60.062 551.932 C 60.062 551.932 64.799 552.829 66.175 551.708 C 67.551 550.589 68.861 544.864 68.861 544.864 L 71.021 544.733 Z " fill="rgb(48,44,50)"/><path d=" M 62.627 541.499 C 69.729 541.19 79.962 542.116 79.962 542.116 L 79.962 545.299 C 79.962 545.299 69.729 544.374 62.627 544.682" fill="rgb(48,44,50)"/><path d=" M 79.962 545.299 C 79.962 545.299 69.729 544.374 62.627 544.682" fill="none" vector-effect="non-scaling-stroke" stroke-width="0.768" stroke="rgb(164,121,83)" stroke-linejoin="miter" stroke-linecap="butt" stroke-miterlimit="10"/><path d=" M 79.962 542.116 C 79.962 542.116 69.729 541.19 62.627 541.499" fill="none" vector-effect="non-scaling-stroke" stroke-width="0.768" stroke="rgb(164,121,83)" stroke-linejoin="miter" stroke-linecap="butt" stroke-miterlimit="10"/><path d=" M 85.593 551.692 L 80.7 556.184 C 80.7 556.184 76.839 554.19 77.304 550.219 C 77.767 546.251 79.908 544.864 79.908 544.864 L 85.593 551.692 Z " fill="rgb(206,214,231)"/><path d=" M 85.593 551.688 L 81.241 555.684 C 81.241 555.684 77.808 553.909 78.221 550.38 C 78.634 546.85 80.538 545.616 80.538 545.616 L 85.593 551.688 Z " fill="rgb(48,44,50)"/><path d=" M 85.593 551.684 L 81.961 555.018 C 81.961 555.018 79.095 553.538 79.44 550.59 C 79.784 547.645 81.374 546.616 81.374 546.616 L 85.593 551.684 Z " fill="rgb(69,68,116)"/><path d=" M 69.016 532.887 L 64.953 532.887 L 64.953 531.512 L 69.016 531.512 L 69.016 532.887 Z " fill="rgb(69,68,116)"/><path d=" M 69.369 531.512 L 65.307 531.512 L 65.307 530.137 L 69.369 530.137 L 69.369 531.512 Z " fill="rgb(166,64,69)"/><path d=" M 69.97 530.137 L 65.907 530.137 L 65.907 528.762 L 69.97 528.762 L 69.97 530.137 Z " fill="rgb(69,68,116)"/><path d=" M 70.323 528.762 L 66.261 528.762 L 66.261 527.385 L 70.323 527.385 L 70.323 528.762 Z " fill="rgb(166,64,69)"/><path d=" M 70.924 527.385 L 66.861 527.385 L 66.861 526.01 L 70.924 526.01 L 70.924 527.385 Z " fill="rgb(69,68,116)"/><path d=" M 71.277 526.01 L 67.214 526.01 L 67.214 524.635 L 71.277 524.635 L 71.277 526.01 Z " fill="rgb(166,64,69)"/><path d=" M 71.877 524.635 L 67.814 524.635 L 67.814 523.26 L 71.877 523.26 L 71.877 524.635 Z " fill="rgb(69,68,116)"/><path d=" M 69.369 532.946 L 72.342 525.243 L 80.052 524.7 L 75.637 533.524 L 69.369 532.946 Z " fill="rgb(166,64,69)"/><path d=" M 59.777 532.452 L 58.698 523.934 L 66.553 524.292 L 66.681 527.43 L 63.977 533.018 L 59.777 532.452 Z " fill="rgb(166,64,69)"/><path d=" M 68.727 523.772 L 65.241 532.792 L 62.682 532.452 C 62.682 532.452 66.265 527.739 65.705 525.946 C 65.144 524.155 61.003 525.243 61.003 525.243 L 59.227 522.067 L 68.727 523.772 Z " fill="rgb(48,44,50)"/><path d=" M 68.167 533.018 L 71.574 523.868 L 80.275 523.215 L 79.126 525.819 C 79.126 525.819 74.39 524.922 73.014 526.044 C 71.639 527.163 70.327 532.887 70.327 532.887 L 68.167 533.018 Z " fill="rgb(48,44,50)"/><path d=" M 76.562 536.253 C 69.459 536.561 59.227 535.637 59.227 535.637 L 59.227 532.452 C 59.227 532.452 69.459 533.378 76.562 533.069" fill="rgb(48,44,50)"/><path d=" M 59.227 532.452 C 59.227 532.452 69.459 533.378 76.562 533.069" fill="none" vector-effect="non-scaling-stroke" stroke-width="0.768" stroke="rgb(164,121,83)" stroke-linejoin="miter" stroke-linecap="butt" stroke-miterlimit="10"/><path d=" M 59.227 535.637 C 59.227 535.637 69.459 536.561 76.562 536.253" fill="none" vector-effect="non-scaling-stroke" stroke-width="0.768" stroke="rgb(164,121,83)" stroke-linejoin="miter" stroke-linecap="butt" stroke-miterlimit="10"/><path d=" M 94.875 519.573 C 93.471 519.122 91.985 518.878 90.448 518.878 C 81.815 518.878 74.817 526.532 74.817 535.975 C 74.817 545.421 81.815 553.075 90.448 553.075 C 91.985 553.075 93.471 552.831 94.875 552.378 L 94.875 519.573 Z " fill="rgb(218,226,242)"/><path d=" M 94.875 520.321 C 93.475 519.846 91.989 519.59 90.448 519.59 C 82.176 519.59 75.471 526.926 75.471 535.975 C 75.471 545.026 82.176 552.362 90.448 552.362 C 91.989 552.362 93.475 552.106 94.875 551.633 L 94.875 520.321 Z " fill="rgb(206,214,231)"/><path d=" M 94.875 523.88 C 93.506 523.278 92.014 522.944 90.448 522.944 C 83.868 522.944 78.535 528.778 78.535 535.975 C 78.535 543.172 83.868 549.008 90.448 549.008 C 92.014 549.008 93.506 548.674 94.875 548.075 L 94.875 523.88 Z " fill="rgb(164,121,83)"/><path d=" M 94.875 525.255 C 93.524 524.587 92.027 524.212 90.448 524.212 C 84.508 524.212 79.693 529.479 79.693 535.975 C 79.693 542.473 84.508 547.741 90.448 547.741 C 92.027 547.741 93.524 547.366 94.875 546.696 L 94.875 525.255 Z " fill="rgb(183,151,91)"/><path d=" M 94.875 529.247 C 93.629 528.264 92.101 527.684 90.448 527.684 C 86.262 527.684 82.867 531.397 82.867 535.975 C 82.867 540.555 86.262 544.268 90.448 544.268 C 92.101 544.268 93.629 543.688 94.875 542.704 L 94.875 529.247 Z " fill="rgb(218,226,242)"/><path d=" M 94.875 529.776 C 93.654 528.731 92.118 528.106 90.448 528.106 C 86.475 528.106 83.254 531.63 83.254 535.975 C 83.254 540.323 86.475 543.846 90.448 543.846 C 92.118 543.846 93.654 543.221 94.875 542.176 L 94.875 529.776 Z " fill="rgb(166,64,69)"/><path d=" M 94.875 534.778 C 94.625 534.614 94.379 534.442 94.138 534.264 L 94.138 534.264 C 93.892 534.085 93.652 533.897 93.419 533.702 L 93.418 533.702 C 93.184 533.508 92.957 533.307 92.736 533.102 C 92.734 533.1 92.732 533.098 92.73 533.096 C 92.512 532.893 92.3 532.682 92.092 532.467 C 92.087 532.462 92.083 532.458 92.078 532.452 C 92.051 532.676 92.017 532.899 91.98 533.12 C 91.974 533.159 91.966 533.196 91.959 533.235 C 91.927 533.411 91.893 533.587 91.857 533.762 C 91.855 533.766 91.854 533.772 91.853 533.778 C 91.84 533.84 91.823 533.905 91.809 533.967 C 91.777 534.104 91.746 534.239 91.712 534.374 C 91.705 534.399 91.698 534.426 91.691 534.452 C 91.675 534.516 91.656 534.579 91.639 534.641 C 91.602 534.77 91.567 534.899 91.528 535.024 C 91.521 535.049 91.513 535.075 91.505 535.1 C 91.485 535.165 91.463 535.227 91.442 535.29 C 91.4 535.419 91.359 535.547 91.313 535.674 C 91.284 535.758 91.253 535.839 91.222 535.921 C 91.176 536.044 91.13 536.167 91.081 536.288 C 91.047 536.372 91.012 536.454 90.975 536.538 C 90.926 536.655 90.876 536.772 90.824 536.887 C 90.786 536.971 90.745 537.053 90.705 537.137 C 90.652 537.251 90.598 537.364 90.542 537.475 C 90.499 537.557 90.456 537.641 90.411 537.723 C 90.361 537.817 90.311 537.911 90.26 538.005 C 90.25 538.024 90.239 538.042 90.228 538.061 C 90.184 538.139 90.14 538.217 90.095 538.294 C 90.047 538.376 89.999 538.456 89.95 538.538 C 89.923 538.583 89.895 538.628 89.867 538.672 C 89.83 538.733 89.792 538.792 89.754 538.85 C 89.698 538.938 89.642 539.024 89.586 539.11 C 89.545 539.171 89.503 539.229 89.462 539.29 C 89.438 539.323 89.416 539.358 89.392 539.391 C 89.325 539.487 89.257 539.583 89.187 539.678 C 89.121 539.768 89.053 539.858 88.984 539.948 C 88.92 540.032 88.855 540.116 88.789 540.198 C 88.758 540.237 88.725 540.276 88.694 540.315 C 88.638 540.385 88.58 540.454 88.523 540.52 C 88.474 540.579 88.425 540.637 88.375 540.696 C 88.326 540.753 88.277 540.807 88.227 540.862 C 88.147 540.952 88.066 541.04 87.984 541.128 C 87.97 541.143 87.956 541.161 87.941 541.174 C 87.876 541.245 87.811 541.311 87.746 541.38 C 87.645 541.483 87.543 541.585 87.439 541.684 C 87.385 541.737 87.332 541.79 87.276 541.84 C 87.235 541.881 87.192 541.919 87.15 541.958 C 87.057 542.044 86.963 542.13 86.867 542.214 C 86.844 542.235 86.82 542.255 86.797 542.276 C 86.728 542.337 86.659 542.393 86.59 542.452 C 86.481 542.542 86.374 542.631 86.265 542.719 C 86.184 542.784 86.101 542.846 86.019 542.909 C 85.941 542.969 85.864 543.028 85.786 543.087 C 85.69 543.157 85.593 543.225 85.495 543.294 C 85.416 543.35 85.337 543.405 85.257 543.46 C 85.156 543.526 85.056 543.592 84.954 543.657 C 84.873 543.708 84.793 543.76 84.712 543.811 C 84.608 543.876 84.503 543.936 84.397 543.999 C 84.315 544.046 84.234 544.094 84.151 544.141 C 84.043 544.202 83.934 544.258 83.824 544.317 C 83.742 544.36 83.66 544.405 83.578 544.446 C 83.464 544.505 83.349 544.559 83.233 544.614 C 83.152 544.653 83.072 544.692 82.991 544.729 C 82.869 544.786 82.745 544.837 82.622 544.889 C 82.544 544.922 82.469 544.956 82.392 544.989 C 82.255 545.044 82.115 545.096 81.976 545.147 C 81.91 545.171 81.847 545.198 81.78 545.221 C 81.601 545.284 81.421 545.344 81.239 545.401 C 81.212 545.411 81.184 545.421 81.157 545.428 C 80.946 545.495 80.733 545.555 80.519 545.61 C 80.487 545.62 80.454 545.626 80.423 545.633 C 80.241 545.68 80.059 545.725 79.875 545.764 C 79.808 545.778 79.74 545.79 79.673 545.803 C 79.522 545.835 79.372 545.864 79.221 545.891 C 79.142 545.903 79.061 545.915 78.981 545.926 C 78.603 545.985 78.224 546.032 77.84 546.061 C 80.684 550.313 85.277 553.075 90.462 553.075 C 91.994 553.075 93.475 552.833 94.875 552.383 L 94.875 534.778 Z " fill="rgb(164,121,83)"/><path d=" M 94.875 535.958 C 94.715 535.436 94.495 535.038 94.194 534.815 C 93.634 534.21 92.872 533.747 92.29 533.139 C 91.466 539.786 85.819 546.133 79.126 546.645 C 82.874 552.249 94.434 556.563 94.875 547.489 L 94.875 535.958 Z " fill="rgb(183,151,91)"/><path d=" M 66.203 504.577 C 66.203 504.577 61.026 516.02 61.827 519.708 C 62.629 523.395 69.999 512.96 69.999 512.96 L 66.203 504.577 Z " fill="rgb(48,44,50)"/><path d=" M 70.653 494.098 C 70.653 494.098 62.426 496.069 58.651 507.458 C 54.877 518.846 56.604 523.215 56.604 523.215 L 62.339 519.206 C 62.339 519.206 61.812 513.823 65.747 504.514 C 69.682 495.206 70.653 496.055 70.653 496.055 L 70.653 494.098 Z " fill="rgb(166,64,69)"/><path d=" M 75.367 495.096 C 75.367 495.096 67.14 497.069 63.366 508.456 C 59.591 519.842 61.402 521.901 61.402 521.901 L 63.065 521.532 C 63.065 521.532 60.967 517.829 64.901 508.52 C 68.835 499.212 75.367 497.053 75.367 497.053 L 75.367 495.096 Z " fill="rgb(183,151,91)"/><path d=" M 94.875 535.444 L 94.875 524.286 L 89.132 518.967 L 83.282 522.307 L 94.875 535.444 Z " fill="rgb(69,68,116)"/><path d=" M 82.026 522.573 C 82.026 522.573 94.569 537.012 94.875 537.174 L 94.875 534.938 L 84.37 522.307 L 82.026 522.573 Z " fill="rgb(48,44,50)"/><path d=" M 62.746 518.241 L 57.628 522.145 C 57.628 522.145 72.47 527.547 89.808 520.897 L 85.658 515.778 L 62.746 518.241 Z " fill="rgb(164,121,83)"/><path d=" M 63.769 517.438 L 58.651 521.34 C 58.651 521.34 72.47 526.452 89.808 519.801 L 85.658 514.682 L 63.769 517.438 Z " fill="rgb(183,151,91)"/><path d=" M 67.396 513.008 C 67.396 513.112 66.456 515.839 63.769 517.438 C 63.769 517.438 77.286 519.874 85.658 515.778 C 85.658 515.778 84.37 507.477 80.339 509.196 C 76.309 510.913 67.396 513.008 67.396 513.008 Z " fill="rgb(206,214,231)"/><path d=" M 65.894 502.411 C 65.894 502.411 65.555 505.438 65.894 505.887 C 66.235 506.337 66.299 506.688 66.171 507.424 C 66.043 508.161 66.043 511.717 66.62 512.485 C 67.196 513.255 69.631 517.899 71.296 517.93 C 72.961 517.964 79.976 515.081 80.072 511.333 C 80.072 511.333 80.585 512.005 81.258 511.622 C 81.931 511.237 82.026 508.45 82.026 508.45 C 82.026 508.45 76.288 495.924 70.653 496.469 C 70.653 496.469 65.875 499.895 65.894 502.411 Z " fill="rgb(218,226,242)"/><path d=" M 70.653 494.098 C 70.653 494.098 76.612 492.501 81.255 497.446 C 85.896 502.393 90.994 514.264 94.875 515.557 L 94.875 520.46 C 94.875 520.46 85.439 515.633 83.157 508.176 C 80.874 500.719 70.653 494.098 70.653 494.098 Z " fill="rgb(48,44,50)"/><path d=" M 70.653 496.717 C 70.653 496.717 72.18 503.434 78.724 503.663 C 80.55 501.913 74.542 496.717 74.542 496.717 C 74.542 496.717 73.302 495.733 70.653 496.055 L 70.653 496.717 Z " fill="rgb(202,131,78)"/><path d=" M 70.653 496.055 C 70.653 496.055 76.983 497.682 82.231 510.596 C 91.145 524.999 94.875 524.286 94.875 524.286 L 94.875 520.46 C 94.875 520.46 88.407 515.253 84.45 508.1 C 80.493 500.948 77.857 494.098 70.653 494.098 L 70.653 496.055 Z " fill="rgb(166,64,69)"/><path d=" M 70.653 494.098 C 70.653 494.098 62.426 496.069 58.651 507.458 C 54.877 518.846 56.604 523.215 56.604 523.215 L 58.116 522.307 C 58.116 522.307 56.253 516.831 60.186 507.522 C 64.121 498.212 70.653 496.055 70.653 496.055 L 70.653 494.098 Z " fill="rgb(183,151,91)"/><path d=" M 70.653 496.717 C 70.653 496.717 69.642 501.042 65.737 502.471 C 65.737 502.471 64.517 495.428 70.653 496.055 L 70.653 496.717 Z " fill="rgb(182,120,76)"/><path d=" M 53.597 526.059 L 58.489 521.567 C 58.489 521.567 62.35 523.563 61.886 527.532 C 61.421 531.501 59.28 532.887 59.28 532.887 L 53.597 526.059 Z " fill="rgb(206,214,231)"/><path d=" M 53.597 526.063 L 57.947 522.067 C 57.947 522.067 61.381 523.842 60.968 527.372 C 60.556 530.903 58.651 532.135 58.651 532.135 L 53.597 526.063 Z " fill="rgb(48,44,50)"/><path d=" M 53.597 526.067 L 57.227 522.733 C 57.227 522.733 60.094 524.215 59.749 527.161 C 59.404 530.106 57.815 531.137 57.815 531.137 L 53.597 526.067 Z " fill="rgb(69,68,116)"/><path d=" M 65.864 505.403 C 65.864 505.403 66.04 505.308 66.323 505.208 C 66.605 505.1 66.997 505.003 67.401 504.956 C 67.803 504.88 68.223 504.901 68.513 505.016 C 68.805 505.128 68.976 505.248 68.976 505.248 L 68.965 505.285 C 68.965 505.285 68.75 505.326 68.463 505.317 C 68.322 505.297 68.151 505.331 67.975 505.311 C 67.8 505.282 67.61 505.275 67.417 505.262 C 66.647 505.234 65.878 505.438 65.878 505.438 L 65.864 505.403 Z " fill="rgb(202,131,78)"/><path d=" M 75.361 505.279 C 75.361 505.28 74.357 505.086 73.355 505.122 C 73.105 505.137 72.857 505.148 72.627 505.178 C 72.396 505.198 72.175 505.161 71.99 505.178 C 71.615 505.178 71.344 505.128 71.344 505.128 L 71.335 505.085 C 71.335 505.085 71.567 504.954 71.945 504.834 C 72.134 504.77 72.361 504.744 72.605 504.723 C 72.85 504.707 73.111 504.748 73.37 504.772 C 73.886 504.823 74.394 504.922 74.765 505.034 C 75.136 505.139 75.373 505.237 75.373 505.238 L 75.361 505.279 Z " fill="rgb(202,131,78)"/><path d=" M 71.927 506.403 C 71.927 506.403 72.123 506.448 72.414 506.483 C 72.705 506.513 73.09 506.564 73.475 506.543 C 73.668 506.547 73.861 506.547 74.041 506.518 C 74.221 506.496 74.394 506.504 74.536 506.465 C 74.826 506.421 75.029 506.403 75.029 506.403 C 75.029 506.403 74.851 506.489 74.568 506.601 C 74.286 506.706 73.883 506.786 73.477 506.79 C 73.274 506.797 73.073 506.763 72.884 506.744 C 72.696 506.718 72.526 506.66 72.382 506.618 C 72.095 506.515 71.927 506.403 71.927 506.403 Z " fill="rgb(69,71,97)"/><path d=" M 68.629 506.403 C 68.629 506.403 68.506 506.508 68.283 506.607 C 68.17 506.649 68.037 506.704 67.887 506.731 C 67.736 506.75 67.575 506.784 67.411 506.775 C 67.085 506.772 66.763 506.692 66.545 506.591 C 66.326 506.484 66.191 506.403 66.191 506.403 C 66.191 506.403 66.353 506.425 66.58 506.473 C 66.69 506.511 66.829 506.508 66.969 506.53 C 67.11 506.558 67.262 506.562 67.413 506.556 C 67.716 506.577 68.017 506.525 68.246 506.49 C 68.475 506.452 68.629 506.403 68.629 506.403 Z " fill="rgb(69,71,97)"/><path d=" M 70.426 513.946 C 70.426 513.946 71.096 514.362 72.046 513.946" fill="rgb(218,226,242)"/><path d=" M 70.426 513.946 C 70.426 513.946 70.531 513.975 70.683 513.997 C 70.835 514.013 71.033 514.047 71.232 514.03 C 71.431 514.04 71.631 514.003 71.783 513.98 C 71.935 513.955 72.046 513.946 72.046 513.946 C 72.046 513.946 71.959 514.006 71.814 514.084 C 71.671 514.158 71.455 514.217 71.235 514.221 C 71.125 514.226 71.016 514.206 70.914 514.189 C 70.813 514.172 70.725 514.128 70.65 514.099 C 70.502 514.024 70.426 513.946 70.426 513.946 Z " fill="rgb(69,71,97)"/><path d=" M 69.309 512.788 C 69.309 512.788 70.272 512.684 71.235 512.692 C 72.199 512.684 73.162 512.788 73.162 512.788 C 73.162 512.788 72.199 512.891 71.235 512.883 C 70.272 512.891 69.309 512.788 69.309 512.788 Z " fill="rgb(69,71,97)"/><path d=" M 69.76 510.604 C 69.76 510.604 69.842 510.729 70.015 510.838 C 70.097 510.899 70.205 510.945 70.325 510.989 C 70.435 511.05 70.579 511.056 70.708 511.095 C 70.84 511.13 70.98 511.134 71.108 511.155 C 71.236 511.178 71.36 511.177 71.465 511.184 C 71.677 511.201 71.822 511.223 71.822 511.223 C 71.822 511.223 71.684 511.257 71.468 511.293 C 71.254 511.339 70.961 511.323 70.669 511.283 C 70.529 511.233 70.38 511.216 70.257 511.14 C 70.128 511.084 70.025 511 69.945 510.92 C 69.864 510.842 69.819 510.756 69.793 510.698 C 69.766 510.639 69.76 510.604 69.76 510.604 Z " fill="rgb(69,71,97)"/><path d=" M 44.313 558.178 C 45.718 558.631 47.203 558.874 48.741 558.874 C 57.374 558.874 64.372 551.219 64.372 541.776 C 64.372 532.331 57.374 524.676 48.741 524.676 C 47.203 524.676 45.718 524.921 44.313 525.374 L 44.313 558.178 Z " fill="rgb(218,226,242)"/><path d=" M 44.313 557.432 C 45.713 557.905 47.199 558.161 48.741 558.161 C 57.014 558.161 63.719 550.825 63.719 541.776 C 63.719 532.727 57.014 525.389 48.741 525.389 C 47.199 525.389 45.713 525.645 44.313 526.12 L 44.313 557.432 Z " fill="rgb(206,214,231)"/><path d=" M 44.313 553.874 C 45.683 554.473 47.176 554.807 48.741 554.807 C 55.32 554.807 60.653 548.973 60.653 541.776 C 60.653 534.579 55.32 528.743 48.741 528.743 C 47.176 528.743 45.683 529.077 44.313 529.678 L 44.313 553.874 Z " fill="rgb(164,121,83)"/><path d=" M 44.313 552.497 C 45.664 553.165 47.162 553.542 48.741 553.542 C 54.681 553.542 59.496 548.272 59.496 541.776 C 59.496 535.278 54.681 530.01 48.741 530.01 C 47.162 530.01 45.664 530.385 44.313 531.055 L 44.313 552.497 Z " fill="rgb(183,151,91)"/><path d=" M 44.313 548.505 C 45.559 549.487 47.088 550.067 48.741 550.067 C 52.928 550.067 56.321 546.354 56.321 541.776 C 56.321 537.196 52.928 533.483 48.741 533.483 C 47.088 533.483 45.559 534.063 44.313 535.047 L 44.313 548.505 Z " fill="rgb(218,226,242)"/><path d=" M 44.313 547.975 C 45.534 549.022 47.071 549.645 48.741 549.645 C 52.715 549.645 55.935 546.122 55.935 541.776 C 55.935 537.428 52.715 533.905 48.741 533.905 C 47.071 533.905 45.534 534.53 44.313 535.575 L 44.313 547.975 Z " fill="rgb(166,64,69)"/><path d=" M 44.313 542.973 C 44.564 543.137 44.81 543.309 45.051 543.487 L 45.051 543.487 C 45.296 543.667 45.536 543.854 45.77 544.049 L 45.771 544.049 C 46.004 544.243 46.231 544.444 46.453 544.649 C 46.455 544.651 46.456 544.653 46.458 544.655 C 46.677 544.858 46.89 545.069 47.097 545.284 C 47.101 545.29 47.106 545.294 47.111 545.299 C 47.139 545.075 47.171 544.852 47.209 544.631 C 47.215 544.592 47.224 544.555 47.23 544.516 C 47.262 544.34 47.295 544.165 47.332 543.989 C 47.333 543.985 47.334 543.979 47.336 543.975 C 47.35 543.911 47.365 543.848 47.38 543.784 C 47.411 543.647 47.442 543.512 47.476 543.378 C 47.484 543.352 47.49 543.325 47.498 543.299 C 47.514 543.235 47.533 543.172 47.551 543.11 C 47.586 542.981 47.622 542.854 47.66 542.727 C 47.669 542.702 47.677 542.676 47.684 542.651 C 47.704 542.589 47.725 542.524 47.746 542.462 C 47.788 542.333 47.83 542.204 47.875 542.077 C 47.904 541.993 47.936 541.913 47.968 541.831 C 48.013 541.708 48.059 541.585 48.107 541.464 C 48.142 541.38 48.178 541.297 48.213 541.215 C 48.263 541.096 48.312 540.981 48.365 540.864 C 48.403 540.78 48.444 540.698 48.483 540.614 C 48.537 540.501 48.591 540.387 48.646 540.276 C 48.689 540.194 48.733 540.11 48.777 540.028 C 48.827 539.934 48.878 539.84 48.929 539.747 C 48.939 539.727 48.949 539.71 48.96 539.69 C 49.004 539.612 49.05 539.534 49.095 539.458 C 49.142 539.376 49.19 539.296 49.238 539.215 C 49.266 539.169 49.294 539.124 49.322 539.079 C 49.359 539.018 49.396 538.96 49.434 538.901 C 49.49 538.813 49.547 538.727 49.603 538.641 C 49.643 538.581 49.685 538.522 49.726 538.462 C 49.75 538.428 49.772 538.393 49.797 538.36 C 49.864 538.264 49.932 538.169 50.001 538.073 C 50.068 537.983 50.136 537.893 50.204 537.803 C 50.268 537.719 50.333 537.635 50.399 537.553 C 50.431 537.514 50.463 537.475 50.495 537.436 C 50.552 537.368 50.608 537.297 50.666 537.231 C 50.715 537.172 50.764 537.114 50.814 537.055 C 50.862 537.001 50.912 536.944 50.961 536.889 C 51.041 536.799 51.123 536.712 51.204 536.624 C 51.219 536.608 51.233 536.592 51.248 536.577 C 51.312 536.508 51.377 536.44 51.443 536.372 C 51.544 536.268 51.645 536.167 51.75 536.067 C 51.804 536.014 51.857 535.962 51.912 535.911 C 51.954 535.872 51.997 535.833 52.039 535.794 C 52.132 535.708 52.226 535.622 52.322 535.538 C 52.346 535.518 52.368 535.497 52.392 535.475 C 52.46 535.417 52.53 535.358 52.6 535.299 C 52.707 535.21 52.814 535.12 52.925 535.032 C 53.005 534.967 53.087 534.905 53.169 534.842 C 53.247 534.782 53.324 534.723 53.403 534.667 C 53.499 534.594 53.597 534.526 53.694 534.458 C 53.772 534.403 53.852 534.346 53.933 534.292 C 54.032 534.225 54.134 534.161 54.235 534.094 C 54.315 534.044 54.395 533.991 54.477 533.94 C 54.581 533.876 54.686 533.815 54.792 533.755 C 54.874 533.706 54.954 533.657 55.037 533.61 C 55.145 533.549 55.255 533.493 55.365 533.434 C 55.446 533.391 55.528 533.346 55.611 533.305 C 55.725 533.247 55.84 533.192 55.955 533.137 C 56.036 533.098 56.116 533.059 56.197 533.022 C 56.32 532.965 56.443 532.915 56.567 532.862 C 56.644 532.829 56.72 532.796 56.797 532.764 C 56.934 532.708 57.073 532.657 57.213 532.604 C 57.278 532.581 57.343 532.553 57.408 532.53 C 57.587 532.467 57.767 532.407 57.949 532.35 C 57.976 532.342 58.004 532.331 58.031 532.323 C 58.243 532.258 58.455 532.196 58.67 532.141 C 58.702 532.131 58.734 532.126 58.766 532.118 C 58.947 532.071 59.13 532.026 59.314 531.987 C 59.381 531.973 59.448 531.962 59.516 531.948 C 59.666 531.917 59.816 531.887 59.968 531.862 C 60.047 531.848 60.128 531.837 60.207 531.825 C 60.585 531.766 60.965 531.719 61.35 531.69 C 58.506 527.438 53.912 524.676 48.726 524.676 C 47.194 524.676 45.714 524.919 44.313 525.37 L 44.313 542.973 Z " fill="rgb(164,121,83)"/><path d=" M 44.313 541.796 C 44.474 542.315 44.693 542.714 44.994 542.936 C 45.556 543.542 46.317 544.005 46.898 544.612 C 47.723 537.965 53.37 531.618 60.062 531.106 C 56.315 525.503 44.755 521.188 44.313 530.262 L 44.313 541.796 Z " fill="rgb(183,151,91)"/><path d=" M 44.313 542.307 L 44.313 553.465 L 50.058 558.784 L 55.906 555.446 L 44.313 542.307 Z " fill="rgb(69,68,116)"/><path d=" M 57.162 555.18 C 57.162 555.18 44.619 540.739 44.313 540.579 L 44.313 542.813 L 54.819 555.446 L 57.162 555.18 Z " fill="rgb(48,44,50)"/><path d=" M 72.985 573.174 C 72.985 573.174 78.163 561.731 77.361 558.044 C 76.56 554.356 69.189 564.792 69.189 564.792 L 72.985 573.174 Z " fill="rgb(48,44,50)"/><path d=" M 68.536 583.653 C 68.536 583.653 76.764 581.682 80.538 570.294 C 84.312 558.905 82.585 554.536 82.585 554.536 L 76.85 558.546 C 76.85 558.546 77.376 563.928 73.441 573.237 C 69.507 582.546 68.536 581.696 68.536 581.696 L 68.536 583.653 Z " fill="rgb(166,64,69)"/><path d=" M 63.822 582.655 C 63.822 582.655 72.049 580.684 75.824 569.296 C 79.599 557.909 77.786 555.85 77.786 555.85 L 76.123 556.219 C 76.123 556.219 78.222 559.922 74.288 569.231 C 70.353 578.542 63.822 580.698 63.822 580.698 L 63.822 582.655 Z " fill="rgb(183,151,91)"/><path d=" M 76.442 559.51 L 81.561 555.608 C 81.561 555.608 66.719 550.206 49.381 556.854 L 53.53 561.973 L 76.442 559.51 Z " fill="rgb(164,121,83)"/><path d=" M 75.42 560.313 L 80.538 556.411 C 80.538 556.411 66.719 551.299 49.381 557.95 L 53.53 563.069 L 75.42 560.313 Z " fill="rgb(183,151,91)"/><path d=" M 71.793 564.743 C 71.793 564.641 72.732 561.913 75.42 560.313 C 75.42 560.313 61.902 557.878 53.53 561.975 C 53.53 561.975 54.819 570.274 58.85 568.555 C 62.88 566.839 71.793 564.743 71.793 564.743 Z " fill="rgb(206,214,231)"/><path d=" M 73.294 575.34 C 73.294 575.34 73.634 572.313 73.294 571.864 C 72.954 571.417 72.89 571.063 73.017 570.327 C 73.145 569.59 73.145 566.034 72.569 565.266 C 71.993 564.497 69.559 559.852 67.892 559.821 C 66.227 559.788 59.212 562.671 59.116 566.419 C 59.116 566.419 58.603 565.747 57.932 566.13 C 57.258 566.514 57.162 569.301 57.162 569.301 C 57.162 569.301 62.901 581.827 68.536 581.282 C 68.536 581.282 73.314 577.856 73.294 575.34 Z " fill="rgb(218,226,242)"/><path d=" M 68.536 583.653 C 68.536 583.653 62.576 585.251 57.934 580.305 C 53.293 575.358 48.194 563.489 44.313 562.194 L 44.313 557.294 C 44.313 557.294 53.749 562.118 56.032 569.575 C 58.315 577.034 68.536 583.653 68.536 583.653 Z " fill="rgb(48,44,50)"/><path d=" M 68.536 581.034 C 68.536 581.034 67.01 574.317 60.466 574.089 C 58.639 575.839 64.647 581.034 64.647 581.034 C 64.647 581.034 65.887 582.018 68.536 581.696 L 68.536 581.034 Z " fill="rgb(202,131,78)"/><path d=" M 68.536 581.696 C 68.536 581.696 62.206 580.071 56.957 567.155 C 48.043 552.753 44.313 553.465 44.313 553.465 L 44.313 557.294 C 44.313 557.294 50.781 562.499 54.738 569.651 C 58.695 576.805 61.331 583.653 68.536 583.653 L 68.536 581.696 Z " fill="rgb(166,64,69)"/><path d=" M 68.536 583.653 C 68.536 583.653 76.764 581.682 80.538 570.294 C 84.312 558.905 82.585 554.536 82.585 554.536 L 81.072 555.446 C 81.072 555.446 82.936 560.921 79.002 570.229 C 75.068 579.54 68.536 581.696 68.536 581.696 L 68.536 583.653 Z " fill="rgb(183,151,91)"/><path d=" M 68.536 581.034 C 68.536 581.034 69.548 576.71 73.452 575.28 C 73.452 575.28 74.672 582.323 68.536 581.696 L 68.536 581.034 Z " fill="rgb(182,120,76)"/><path d=" M 73.324 572.348 C 73.324 572.348 73.148 572.443 72.865 572.544 C 72.583 572.651 72.191 572.749 71.788 572.796 C 71.386 572.871 70.965 572.85 70.675 572.735 C 70.383 572.624 70.212 572.504 70.212 572.504 L 70.223 572.466 C 70.223 572.466 70.438 572.425 70.725 572.434 C 70.867 572.454 71.038 572.421 71.213 572.44 C 71.389 572.469 71.579 572.476 71.771 572.489 C 72.541 572.517 73.31 572.313 73.31 572.313 L 73.324 572.348 Z " fill="rgb(202,131,78)"/><path d=" M 63.829 572.472 C 63.829 572.471 64.832 572.666 65.834 572.63 C 66.084 572.615 66.332 572.604 66.563 572.574 C 66.793 572.555 67.014 572.591 67.2 572.575 C 67.575 572.575 67.845 572.626 67.845 572.626 L 67.854 572.669 C 67.854 572.669 67.622 572.799 67.244 572.92 C 67.055 572.983 66.828 573.008 66.583 573.029 C 66.338 573.046 66.078 573.005 65.82 572.979 C 65.303 572.928 64.795 572.829 64.425 572.717 C 64.053 572.612 63.816 572.514 63.816 572.513 L 63.829 572.472 Z " fill="rgb(202,131,78)"/><path d=" M 67.263 571.35 C 67.263 571.35 67.066 571.304 66.775 571.269 C 66.484 571.239 66.099 571.189 65.713 571.21 C 65.52 571.205 65.328 571.207 65.148 571.235 C 64.968 571.256 64.794 571.25 64.652 571.287 C 64.363 571.333 64.159 571.35 64.159 571.35 C 64.159 571.35 64.337 571.263 64.62 571.152 C 64.903 571.047 65.306 570.966 65.712 570.964 C 65.915 570.956 66.117 570.989 66.305 571.008 C 66.493 571.034 66.663 571.093 66.808 571.134 C 67.094 571.238 67.263 571.35 67.263 571.35 Z " fill="rgb(69,71,97)"/><path d=" M 70.559 571.35 C 70.559 571.35 70.683 571.245 70.906 571.145 C 71.018 571.104 71.152 571.048 71.302 571.022 C 71.453 571.003 71.614 570.968 71.777 570.977 C 72.103 570.98 72.426 571.06 72.644 571.162 C 72.862 571.269 72.997 571.35 72.997 571.35 C 72.997 571.35 72.835 571.328 72.608 571.28 C 72.498 571.242 72.36 571.244 72.219 571.222 C 72.079 571.194 71.927 571.191 71.775 571.196 C 71.472 571.176 71.171 571.228 70.942 571.262 C 70.713 571.301 70.559 571.35 70.559 571.35 Z " fill="rgb(69,71,97)"/><path d=" M 68.763 563.805 C 68.763 563.805 68.093 563.389 67.142 563.805" fill="rgb(218,226,242)"/><path d=" M 68.763 563.805 C 68.763 563.805 68.658 563.776 68.506 563.755 C 68.353 563.738 68.155 563.704 67.956 563.721 C 67.758 563.712 67.557 563.749 67.406 563.771 C 67.253 563.797 67.142 563.805 67.142 563.805 C 67.142 563.805 67.229 563.745 67.374 563.668 C 67.517 563.593 67.733 563.534 67.953 563.53 C 68.063 563.525 68.172 563.546 68.274 563.562 C 68.375 563.579 68.463 563.624 68.538 563.652 C 68.686 563.727 68.763 563.805 68.763 563.805 Z " fill="rgb(69,71,97)"/><path d=" M 69.88 564.964 C 69.88 564.964 68.916 565.067 67.953 565.059 C 66.99 565.067 66.026 564.964 66.026 564.964 C 66.026 564.964 66.99 564.86 67.953 564.868 C 68.916 564.86 69.88 564.964 69.88 564.964 Z " fill="rgb(69,71,97)"/><path d=" M 69.429 567.147 C 69.429 567.147 69.347 567.022 69.174 566.914 C 69.091 566.852 68.983 566.806 68.863 566.762 C 68.753 566.701 68.609 566.694 68.48 566.656 C 68.349 566.622 68.208 566.617 68.08 566.596 C 67.952 566.573 67.829 566.574 67.723 566.567 C 67.512 566.55 67.366 566.528 67.366 566.528 C 67.366 566.528 67.505 566.494 67.72 566.459 C 67.934 566.412 68.227 566.428 68.519 566.468 C 68.66 566.518 68.809 566.535 68.931 566.611 C 69.061 566.667 69.163 566.752 69.244 566.832 C 69.325 566.909 69.369 566.995 69.395 567.053 C 69.423 567.112 69.429 567.147 69.429 567.147 Z " fill="rgb(69,71,97)"/></g></svg>