<?xml version="1.0" encoding="UTF-8" standalone="no"?><!-- Generator: Gravit.io --><svg xmlns="http://www.w3.org/2000/svg" xmlns:xlink="http://www.w3.org/1999/xlink" style="isolation:isolate" viewBox="418.385 556.383 69.123 103.683" width="69.123pt" height="103.683pt"><g><path d=" M 487.508 657.346 C 487.508 658.85 486.289 660.066 484.786 660.066 L 421.106 660.066 C 419.604 660.066 418.385 658.85 418.385 657.346 L 418.385 559.104 C 418.385 557.602 419.604 556.383 421.106 556.383 L 484.786 556.383 C 486.289 556.383 487.508 557.602 487.508 559.104 L 487.508 657.346 Z " fill="rgb(234,232,232)"/><path d=" M 425.758 576.258 L 425.181 575.682 C 423.036 573.785 421.636 572.508 421.636 570.939 C 421.636 569.664 422.626 568.674 423.901 568.674 C 424.605 568.674 425.305 569.422 425.758 569.959 C 426.211 569.422 426.911 568.674 427.614 568.674 C 428.89 568.674 429.88 569.664 429.88 570.939 C 429.88 572.508 428.479 573.785 426.335 575.682 L 425.758 576.258 Z " fill="rgb(125,60,64)"/><path d=" M 425.749 569.953 C 425.296 569.418 424.601 568.678 423.901 568.678 C 422.626 568.678 421.636 569.668 421.636 570.943 C 421.636 572.512 423.036 573.789 425.181 575.686 L 425.749 576.252 L 425.749 569.953 Z " fill="rgb(147,67,72)"/><path d=" M 480.047 640.018 L 480.625 640.594 C 482.769 642.49 484.169 643.768 484.169 645.336 C 484.169 646.611 483.179 647.602 481.903 647.602 C 481.2 647.602 480.5 646.852 480.047 646.316 C 479.594 646.852 478.894 647.602 478.19 647.602 C 476.915 647.602 475.925 646.611 475.925 645.336 C 475.925 643.768 477.325 642.49 479.47 640.594 L 480.047 640.018 Z " fill="rgb(125,60,64)"/><path d=" M 480.056 646.322 C 480.509 646.857 481.204 647.598 481.903 647.598 C 483.179 647.598 484.169 646.607 484.169 645.332 C 484.169 643.764 482.769 642.484 480.625 640.59 L 480.056 640.021 L 480.056 646.322 Z " fill="rgb(147,67,72)"/><path d=" M 423.67 566.833 L 424.617 566.833 L 424.617 564.035 L 425.325 563.23 L 427.731 566.833 L 428.852 566.833 L 425.989 562.609 L 428.645 559.496 L 427.469 559.496 L 425.227 562.25 C 425.042 562.49 424.846 562.751 424.65 563.034 L 424.617 563.034 L 424.617 559.496 L 423.67 559.496 L 423.67 566.833 Z " fill="rgb(125,60,64)"/><path d=" M 482.222 649.617 L 481.275 649.617 L 481.275 652.415 L 480.567 653.22 L 478.161 649.617 L 477.04 649.617 L 479.903 653.841 L 477.247 656.954 L 478.423 656.954 L 480.665 654.2 C 480.85 653.96 481.046 653.699 481.242 653.416 L 481.275 653.416 L 481.275 656.954 L 482.222 656.954 L 482.222 649.617 Z " fill="rgb(125,60,64)"/><path d=" M 436.031 631.789 C 436.031 631.789 431.978 630.324 428.204 626.227 L 428.204 621.211 L 436.031 621.211 L 436.031 631.789 Z " fill="rgb(166,64,69)"/><path d=" M 428.204 618.717 L 428.204 590.563 C 428.204 590.563 431.743 586.051 438.846 585.383 C 438.846 585.383 438.978 613.9 428.204 618.717 Z " fill="rgb(166,64,69)"/><path d=" M 448.982 586.93 L 452.604 586.93 L 452.604 593.578 L 448.982 593.578 L 448.982 586.93 Z " fill="rgb(48,44,50)"/><path d=" M 441.72 584.633 L 445.343 584.633 L 445.343 591.281 L 441.72 591.281 L 441.72 584.633 Z " fill="rgb(48,44,50)"/><path d=" M 452.632 584.287 L 456.253 584.287 L 456.253 590.936 L 452.632 590.936 L 452.632 584.287 Z " fill="rgb(166,64,69)"/><path d=" M 445.36 586.457 L 448.982 586.457 L 448.982 593.105 L 445.36 593.105 L 445.36 586.457 Z " fill="rgb(166,64,69)"/><path d=" M 456.139 582.285 L 459.761 582.285 L 459.761 588.934 L 456.139 588.934 L 456.139 582.285 Z " fill="rgb(48,44,50)"/><path d=" M 459.788 582.15 L 463.41 582.15 L 463.41 586.291 L 459.788 586.291 L 459.788 582.15 Z " fill="rgb(166,64,69)"/><path d=" M 437.876 585.488 C 437.876 585.488 439.144 604.115 428.204 618.717 C 428.217 620.004 428.224 620.654 428.224 620.654 C 428.224 620.654 434.662 617.629 438.326 604.867 C 441.989 592.107 440.329 585.488 440.329 585.488 L 437.876 585.488 Z " fill="rgb(48,44,50)"/><path d=" M 439.549 585.906 C 439.549 585.906 439.885 598.162 436.86 605.506 C 433.834 612.852 431.729 617.857 428.204 620.623 L 428.204 626.227 C 428.204 626.227 438.143 616.617 441.401 605.793 C 444.66 594.969 444.051 585.5 444.051 585.5 L 439.549 585.906 Z " fill="rgb(234,232,232)"/><path d=" M 439.365 585.58 C 439.365 586.041 440.298 586.412 441.448 586.412 C 442.599 586.412 443.531 586.041 443.531 585.58 C 443.531 585.121 442.599 584.748 441.448 584.748 C 440.298 584.748 439.365 585.121 439.365 585.58 Z " fill="rgb(166,64,69)"/><path d=" M 439.519 587.412 C 439.495 587.861 440.388 588.273 441.513 588.334 C 442.639 588.393 443.57 588.076 443.593 587.627 C 443.618 587.178 442.725 586.764 441.599 586.705 C 440.475 586.646 439.543 586.963 439.519 587.412 Z " fill="rgb(166,64,69)"/><path d=" M 439.551 589.52 C 439.503 589.959 440.357 590.41 441.457 590.529 C 442.557 590.648 443.487 590.387 443.534 589.947 C 443.582 589.508 442.729 589.055 441.628 588.938 C 440.528 588.818 439.599 589.078 439.551 589.52 Z " fill="rgb(166,64,69)"/><path d=" M 439.455 591.857 C 439.384 592.287 440.198 592.779 441.273 592.957 C 442.347 593.135 443.276 592.93 443.348 592.5 C 443.418 592.072 442.604 591.578 441.529 591.4 C 440.455 591.223 439.526 591.428 439.455 591.857 Z " fill="rgb(166,64,69)"/><path d=" M 439.226 594.383 C 439.132 594.803 439.905 595.336 440.955 595.572 C 442.005 595.809 442.933 595.662 443.026 595.242 C 443.121 594.822 442.347 594.291 441.298 594.053 C 440.248 593.816 439.32 593.965 439.226 594.383 Z " fill="rgb(166,64,69)"/><path d=" M 438.857 597.055 C 438.739 597.465 439.474 598.037 440.498 598.332 C 441.522 598.629 442.449 598.537 442.567 598.127 C 442.686 597.719 441.951 597.146 440.928 596.85 C 439.903 596.555 438.977 596.646 438.857 597.055 Z " fill="rgb(166,64,69)"/><path d=" M 438.345 599.828 C 438.202 600.229 438.897 600.84 439.896 601.195 C 440.896 601.551 441.82 601.516 441.962 601.115 C 442.104 600.717 441.409 600.105 440.411 599.75 C 439.411 599.395 438.486 599.43 438.345 599.828 Z " fill="rgb(166,64,69)"/><path d=" M 437.68 602.66 C 437.515 603.049 438.17 603.701 439.144 604.115 C 440.116 604.531 441.041 604.551 441.206 604.162 C 441.373 603.773 440.718 603.121 439.743 602.707 C 438.77 602.291 437.846 602.271 437.68 602.66 Z " fill="rgb(166,64,69)"/><path d=" M 436.86 605.506 C 436.67 605.885 437.286 606.578 438.234 607.051 C 439.184 607.525 440.105 607.602 440.295 607.223 C 440.484 606.844 439.869 606.152 438.92 605.678 C 437.972 605.205 437.049 605.127 436.86 605.506 Z " fill="rgb(166,64,69)"/><path d=" M 435.877 608.324 C 435.664 608.693 436.239 609.424 437.163 609.959 C 438.086 610.492 439.007 610.625 439.221 610.256 C 439.434 609.887 438.857 609.156 437.935 608.621 C 437.011 608.09 436.09 607.955 435.877 608.324 Z " fill="rgb(166,64,69)"/><path d=" M 434.726 611.07 C 434.488 611.43 435.024 612.201 435.923 612.793 C 436.821 613.387 437.741 613.576 437.978 613.217 C 438.215 612.857 437.679 612.086 436.78 611.494 C 435.883 610.902 434.963 610.713 434.726 611.07 Z " fill="rgb(166,64,69)"/><path d=" M 433.4 613.701 C 433.141 614.051 433.637 614.861 434.51 615.514 C 435.383 616.166 436.301 616.412 436.562 616.063 C 436.822 615.713 436.325 614.902 435.453 614.25 C 434.58 613.6 433.661 613.354 433.4 613.701 Z " fill="rgb(166,64,69)"/><path d=" M 431.896 616.174 C 431.612 616.514 432.068 617.363 432.916 618.074 C 433.764 618.787 434.682 619.088 434.966 618.75 C 435.25 618.41 434.793 617.561 433.945 616.85 C 433.098 616.139 432.18 615.836 431.896 616.174 Z " fill="rgb(166,64,69)"/><path d=" M 430.205 618.445 C 429.898 618.773 430.315 619.664 431.138 620.436 C 431.96 621.205 432.876 621.564 433.184 621.234 C 433.491 620.906 433.074 620.016 432.252 619.244 C 431.43 618.475 430.514 618.117 430.205 618.445 Z " fill="rgb(166,64,69)"/><path d=" M 428.324 620.471 C 427.993 620.789 428.37 621.721 429.167 622.551 C 429.965 623.379 430.88 623.793 431.211 623.475 C 431.543 623.156 431.165 622.227 430.368 621.396 C 429.57 620.566 428.656 620.152 428.324 620.471 Z " fill="rgb(166,64,69)"/><path d=" M 449.228 601.787 L 454.984 601.787 L 454.984 595.418 L 449.228 595.418 L 449.228 601.787 Z " fill="rgb(73,93,167)"/><path d=" M 454.736 601.518 L 449.228 601.518 L 449.228 607.297 L 454.736 601.518 Z " fill="rgb(183,151,91)"/><path d=" M 454.935 601.027 L 449.129 601.027 L 449.129 596.299 L 454.935 596.299 L 454.935 601.027 Z " fill="rgb(183,151,91)"/><path d=" M 454.935 595.883 L 449.228 595.883 L 449.228 594.34 L 454.935 590.885 L 454.935 595.883 Z " fill="rgb(183,151,91)"/><path d=" M 448.114 607.848 L 448.335 594.443 L 443.61 591.773 C 443.61 591.773 442.683 602.873 441.561 604.867 C 440.438 606.861 448.114 607.848 448.114 607.848 Z " fill="rgb(166,64,69)"/><path d=" M 448.032 607.889 L 449.436 607.191 L 449.436 593.475 L 448.032 593.475 L 448.032 607.889 Z " fill="rgb(218,226,242)"/><path d=" M 447.579 608.412 L 448.982 607.717 L 448.982 593.998 L 447.579 593.998 L 447.579 608.412 Z " fill="rgb(48,44,50)"/><path d=" M 438.401 613.064 C 438.877 611.863 439.683 610.75 440.279 609.604 C 441.249 607.734 441.94 605.756 442.258 603.697 C 442.287 603.697 442.314 603.695 442.345 603.695 C 445.248 603.695 447.73 605.492 448.743 608.035 C 448.528 608.277 448.319 608.529 448.051 608.756 C 447.569 609.16 447.001 609.482 446.498 609.867 C 445.276 610.803 444.343 612.094 442.978 612.828 C 441.947 613.381 440.853 613.766 439.757 614.164 C 439.286 614.334 438.809 614.504 438.319 614.619 C 438.172 614.596 438.024 614.574 437.876 614.555 C 438.056 614.051 438.212 613.539 438.401 613.064 Z " fill="rgb(48,44,50)"/><path d=" M 438.401 613.064 C 438.877 611.863 439.683 610.75 440.279 609.604 C 441.163 607.9 441.816 606.104 442.165 604.24 C 442.225 604.238 442.284 604.236 442.345 604.236 C 445.114 604.236 447.469 606.01 448.335 608.484 C 448.246 608.578 448.154 608.668 448.051 608.756 C 447.569 609.16 447.001 609.482 446.498 609.867 C 445.276 610.803 444.343 612.094 442.978 612.828 C 441.947 613.381 440.853 613.766 439.757 614.164 C 439.286 614.334 438.809 614.504 438.319 614.619 C 438.172 614.596 438.023 614.574 437.876 614.555 C 438.056 614.053 438.212 613.539 438.401 613.064 Z " fill="rgb(183,151,91)"/><path d=" M 440.279 609.604 C 440.668 608.855 441.011 608.088 441.304 607.305 C 441.631 607.201 441.981 607.145 442.345 607.145 C 444.208 607.145 445.723 608.629 445.777 610.479 C 444.877 611.309 444.063 612.244 442.978 612.828 C 442.322 613.18 441.642 613.463 440.95 613.725 C 440.075 613.336 439.394 612.592 439.086 611.678 C 439.48 610.98 439.918 610.299 440.279 609.604 Z " fill="rgb(73,93,167)"/><path d=" M 461.771 597.023 L 456.136 600.275 L 455.85 589.781 L 461.771 586.52 L 461.771 597.023 Z " fill="rgb(166,64,69)"/><path d=" M 454.736 600.875 L 456.139 600.875 L 456.139 590.254 L 454.736 590.254 L 454.736 600.875 Z " fill="rgb(218,226,242)"/><path d=" M 467.134 583.326 C 467.134 583.326 464.709 581.965 462.208 581.615 L 461.906 596.832 C 461.906 596.832 465.744 595.408 467.469 595.473 L 467.134 583.326 Z " fill="rgb(185,200,230)"/><path d=" M 467.134 583.326 L 468.008 583.658 L 468.008 595.369 L 467.134 595.369 L 467.134 583.326 Z " fill="rgb(117,98,98)"/><path d=" M 468.008 583.658 C 468.008 583.658 469.302 584.197 469.862 584.629 L 469.862 595.209 L 468.008 595.209 L 468.008 583.658 Z " fill="rgb(48,44,50)"/><path d=" M 469.862 584.629 C 469.862 584.629 473.915 586.094 477.688 590.191 L 477.688 595.209 L 469.862 595.209 L 469.862 584.629 Z " fill="rgb(166,64,69)"/><path d=" M 455.257 600.4 L 456.66 600.4 L 456.66 589.781 L 455.257 589.781 L 455.257 600.4 Z " fill="rgb(48,44,50)"/><path d=" M 461.335 581.615 L 462.208 581.615 L 462.208 596.541 L 461.335 596.541 L 461.335 581.615 Z " fill="rgb(117,98,98)"/><path d=" M 439.018 614.807 C 439.544 614.807 440.23 614.701 441.092 614.375 C 443.945 613.295 447.435 610.318 451.463 605.527 C 456.314 599.76 461.083 597.467 464.229 596.559 C 467.633 595.576 471.501 595.76 471.523 595.764 L 471.69 594.824 C 471.59 594.807 467.627 594.598 464.027 595.623 C 460.738 596.561 455.762 598.934 450.732 604.914 C 441.684 615.674 438.233 613.715 438.2 613.693 L 437.661 614.48 C 437.73 614.529 438.161 614.807 439.018 614.807 Z " fill="rgb(164,121,83)"/><path d=" M 461.335 585.916 C 461.335 585.916 449.673 593.521 448.572 593.521 C 447.472 593.521 444.167 591.207 444.167 591.207 L 444.167 592.551 C 444.167 592.551 448.151 595.209 448.67 595.209 C 449.188 595.209 461.335 587.336 461.335 587.336 L 461.335 585.916 Z " fill="rgb(218,226,242)"/><path d=" M 460.031 582.271 C 460.031 582.271 450.176 589.516 448.777 589.516 C 447.378 589.516 443.322 585.895 443.322 585.895 L 460.031 582.271 Z " fill="rgb(183,151,91)"/><path d=" M 461.335 584.992 C 461.335 584.992 449.673 592.727 448.572 592.727 C 447.472 592.727 444.167 590.119 444.167 590.119 L 444.167 591.424 C 444.167 591.424 448.151 593.998 448.67 593.998 C 449.188 593.998 461.335 586.369 461.335 586.369 L 461.335 584.992 Z " fill="rgb(183,151,91)"/><path d=" M 444.484 586.43 C 444.484 586.43 444.513 598.734 441.634 606.85 C 438.756 614.967 431.511 626.381 429.381 627.416 L 428.204 626.227 C 428.204 626.227 433.302 622.023 440.598 606.252 C 442.497 598.445 442.562 601.822 443.479 585.916 C 444.397 570.01 444.484 586.43 444.484 586.43 Z " fill="rgb(164,121,83)"/><path d=" M 477.688 597.701 L 477.688 625.857 C 477.688 625.857 474.149 630.369 467.048 631.035 C 467.048 631.035 466.915 602.52 477.688 597.701 Z " fill="rgb(166,64,69)"/><path d=" M 456.91 629.488 L 453.289 629.488 L 453.289 622.84 L 456.91 622.84 L 456.91 629.488 Z " fill="rgb(48,44,50)"/><path d=" M 464.173 631.785 L 460.55 631.785 L 460.55 625.137 L 464.173 625.137 L 464.173 631.785 Z " fill="rgb(48,44,50)"/><path d=" M 453.262 632.131 L 449.64 632.131 L 449.64 625.482 L 453.262 625.482 L 453.262 632.131 Z " fill="rgb(166,64,69)"/><path d=" M 460.533 629.963 L 456.91 629.963 L 456.91 623.313 L 460.533 623.313 L 460.533 629.963 Z " fill="rgb(166,64,69)"/><path d=" M 449.754 634.135 L 446.132 634.135 L 446.132 627.484 L 449.754 627.484 L 449.754 634.135 Z " fill="rgb(48,44,50)"/><path d=" M 446.105 634.268 L 442.482 634.268 L 442.482 630.127 L 446.105 630.127 L 446.105 634.268 Z " fill="rgb(166,64,69)"/><path d=" M 468.018 630.93 C 468.018 630.93 466.749 612.303 477.688 597.701 C 477.676 596.416 477.669 595.764 477.669 595.764 C 477.669 595.764 471.229 598.789 467.566 611.551 C 463.903 624.311 465.563 630.93 465.563 630.93 L 468.018 630.93 Z " fill="rgb(48,44,50)"/><path d=" M 466.344 630.514 C 466.344 630.514 466.008 618.256 469.033 610.912 C 472.058 603.568 474.163 598.561 477.688 595.795 L 477.688 590.191 C 477.688 590.191 472.25 591.295 464.492 610.625 C 461.232 621.451 461.842 630.918 461.842 630.918 L 466.344 630.514 Z " fill="rgb(234,232,232)"/><path d=" M 466.527 630.838 C 466.527 630.379 465.596 630.006 464.444 630.006 C 463.294 630.006 462.361 630.379 462.361 630.838 C 462.361 631.297 463.294 631.67 464.444 631.67 C 465.596 631.67 466.527 631.297 466.527 630.838 Z " fill="rgb(166,64,69)"/><path d=" M 466.374 629.006 C 466.397 628.557 465.505 628.145 464.38 628.084 C 463.254 628.025 462.323 628.342 462.299 628.791 C 462.274 629.242 463.168 629.654 464.294 629.713 C 465.419 629.771 466.351 629.457 466.374 629.006 Z " fill="rgb(166,64,69)"/><path d=" M 466.343 626.9 C 466.391 626.461 465.536 626.008 464.437 625.889 C 463.336 625.771 462.406 626.031 462.358 626.471 C 462.311 626.91 463.165 627.363 464.265 627.48 C 465.364 627.6 466.295 627.34 466.343 626.9 Z " fill="rgb(166,64,69)"/><path d=" M 466.438 624.563 C 466.508 624.133 465.695 623.641 464.62 623.463 C 463.546 623.283 462.616 623.488 462.545 623.918 C 462.476 624.348 463.288 624.84 464.363 625.018 C 465.438 625.195 466.367 624.99 466.438 624.563 Z " fill="rgb(166,64,69)"/><path d=" M 466.667 622.035 C 466.761 621.615 465.987 621.084 464.938 620.846 C 463.889 620.609 462.961 620.758 462.866 621.176 C 462.771 621.596 463.545 622.129 464.595 622.365 C 465.645 622.602 466.572 622.455 466.667 622.035 Z " fill="rgb(166,64,69)"/><path d=" M 467.035 619.363 C 467.153 618.955 466.419 618.383 465.395 618.086 C 464.37 617.789 463.443 617.881 463.325 618.291 C 463.207 618.699 463.941 619.271 464.966 619.568 C 465.99 619.865 466.916 619.771 467.035 619.363 Z " fill="rgb(166,64,69)"/><path d=" M 467.548 616.59 C 467.69 616.191 466.995 615.58 465.997 615.223 C 464.997 614.867 464.072 614.904 463.931 615.303 C 463.789 615.701 464.483 616.314 465.481 616.67 C 466.481 617.023 467.406 616.99 467.548 616.59 Z " fill="rgb(166,64,69)"/><path d=" M 468.213 613.758 C 468.378 613.369 467.724 612.717 466.749 612.303 C 465.776 611.889 464.852 611.867 464.687 612.256 C 464.52 612.645 465.176 613.297 466.149 613.711 C 467.123 614.127 468.047 614.146 468.213 613.758 Z " fill="rgb(166,64,69)"/><path d=" M 469.033 610.912 C 469.223 610.533 468.606 609.842 467.658 609.367 C 466.71 608.895 465.788 608.816 465.598 609.195 C 465.409 609.574 466.024 610.266 466.973 610.74 C 467.921 611.213 468.844 611.291 469.033 610.912 Z " fill="rgb(166,64,69)"/><path d=" M 470.016 608.094 C 470.229 607.725 469.653 606.994 468.729 606.461 C 467.807 605.926 466.886 605.793 466.673 606.162 C 466.459 606.531 467.036 607.264 467.958 607.797 C 468.882 608.33 469.803 608.463 470.016 608.094 Z " fill="rgb(166,64,69)"/><path d=" M 471.168 605.348 C 471.404 604.988 470.868 604.217 469.97 603.625 C 469.071 603.033 468.152 602.844 467.915 603.201 C 467.679 603.561 468.214 604.332 469.112 604.924 C 470.011 605.518 470.931 605.707 471.168 605.348 Z " fill="rgb(166,64,69)"/><path d=" M 472.492 602.717 C 472.753 602.367 472.256 601.557 471.383 600.904 C 470.511 600.252 469.592 600.008 469.331 600.355 C 469.071 600.705 469.567 601.516 470.439 602.168 C 471.313 602.82 472.231 603.066 472.492 602.717 Z " fill="rgb(166,64,69)"/><path d=" M 473.997 600.244 C 474.281 599.904 473.824 599.055 472.978 598.344 C 472.129 597.631 471.212 597.33 470.928 597.67 C 470.644 598.008 471.101 598.859 471.948 599.57 C 472.795 600.281 473.713 600.582 473.997 600.244 Z " fill="rgb(166,64,69)"/><path d=" M 475.688 597.973 C 475.995 597.645 475.578 596.754 474.755 595.984 C 473.934 595.213 473.018 594.855 472.709 595.184 C 472.401 595.512 472.818 596.402 473.641 597.174 C 474.463 597.943 475.38 598.301 475.688 597.973 Z " fill="rgb(166,64,69)"/><path d=" M 477.568 595.947 C 477.899 595.629 477.522 594.699 476.726 593.869 C 475.928 593.039 475.014 592.625 474.682 592.943 C 474.351 593.262 474.729 594.191 475.524 595.023 C 476.322 595.852 477.236 596.266 477.568 595.947 Z " fill="rgb(166,64,69)"/><path d=" M 456.666 614.631 L 450.908 614.631 L 450.908 621 L 456.666 621 L 456.666 614.631 Z " fill="rgb(73,93,167)"/><path d=" M 451.157 614.9 L 456.666 614.9 L 456.666 609.123 L 451.157 614.9 Z " fill="rgb(183,151,91)"/><path d=" M 450.958 615.391 L 456.765 615.391 L 456.765 620.119 L 450.958 620.119 L 450.958 615.391 Z " fill="rgb(183,151,91)"/><path d=" M 450.958 620.535 L 456.666 620.535 L 456.666 622.078 L 450.958 625.533 L 450.958 620.535 Z " fill="rgb(183,151,91)"/><path d=" M 457.778 608.57 L 457.558 621.975 L 462.282 624.645 C 462.282 624.645 463.21 613.545 464.332 611.551 C 465.454 609.557 457.778 608.57 457.778 608.57 Z " fill="rgb(166,64,69)"/><path d=" M 457.86 608.531 L 456.457 609.227 L 456.457 622.945 L 457.86 622.945 L 457.86 608.531 Z " fill="rgb(218,226,242)"/><path d=" M 458.313 608.006 L 456.91 608.701 L 456.91 622.42 L 458.313 622.42 L 458.313 608.006 Z " fill="rgb(48,44,50)"/><path d=" M 467.492 603.355 C 467.016 604.555 466.21 605.668 465.613 606.814 C 464.645 608.684 463.952 610.662 463.636 612.721 C 463.606 612.721 463.578 612.723 463.549 612.723 C 460.646 612.723 458.163 610.926 457.149 608.385 C 457.364 608.141 457.574 607.889 457.842 607.664 C 458.323 607.258 458.893 606.938 459.396 606.553 C 460.616 605.617 461.55 604.326 462.916 603.59 C 463.945 603.037 465.04 602.652 466.137 602.256 C 466.607 602.084 467.084 601.914 467.573 601.801 C 467.721 601.822 467.868 601.844 468.018 601.865 C 467.837 602.367 467.682 602.879 467.492 603.355 Z " fill="rgb(48,44,50)"/><path d=" M 467.492 603.355 C 467.016 604.555 466.21 605.668 465.613 606.814 C 464.729 608.518 464.077 610.314 463.728 612.178 C 463.668 612.18 463.608 612.184 463.549 612.184 C 460.778 612.184 458.424 610.408 457.558 607.934 C 457.646 607.842 457.739 607.75 457.842 607.664 C 458.323 607.258 458.893 606.938 459.396 606.553 C 460.616 605.617 461.55 604.326 462.916 603.59 C 463.945 603.037 465.04 602.652 466.137 602.256 C 466.607 602.084 467.084 601.914 467.573 601.801 C 467.721 601.822 467.869 601.844 468.018 601.865 C 467.837 602.367 467.682 602.879 467.492 603.355 Z " fill="rgb(183,151,91)"/><path d=" M 465.613 606.814 C 465.225 607.564 464.883 608.33 464.589 609.113 C 464.261 609.217 463.911 609.273 463.549 609.273 C 461.685 609.273 460.171 607.791 460.115 605.939 C 461.017 605.109 461.829 604.174 462.916 603.59 C 463.57 603.238 464.252 602.955 464.942 602.693 C 465.817 603.082 466.499 603.826 466.807 604.742 C 466.412 605.438 465.975 606.119 465.613 606.814 Z " fill="rgb(73,93,167)"/><path d=" M 444.121 619.395 L 449.758 616.145 L 450.043 626.637 L 444.121 629.898 L 444.121 619.395 Z " fill="rgb(166,64,69)"/><path d=" M 451.157 615.545 L 449.754 615.545 L 449.754 626.164 L 451.157 626.164 L 451.157 615.545 Z " fill="rgb(218,226,242)"/><path d=" M 438.759 633.092 C 438.759 633.092 441.184 634.453 443.685 634.803 L 443.987 619.586 C 443.987 619.586 440.148 621.01 438.424 620.945 L 438.759 633.092 Z " fill="rgb(185,200,230)"/><path d=" M 438.759 633.092 L 437.885 632.76 L 437.885 621.049 L 438.759 621.049 L 438.759 633.092 Z " fill="rgb(117,98,98)"/><path d=" M 437.885 632.76 C 437.885 632.76 436.592 632.221 436.031 631.789 L 436.031 621.211 L 437.885 621.211 L 437.885 632.76 Z " fill="rgb(48,44,50)"/><path d=" M 450.636 616.018 L 449.232 616.018 L 449.232 626.637 L 450.636 626.637 L 450.636 616.018 Z " fill="rgb(48,44,50)"/><path d=" M 444.558 634.803 L 443.685 634.803 L 443.685 619.877 L 444.558 619.877 L 444.558 634.803 Z " fill="rgb(117,98,98)"/><path d=" M 466.875 601.611 C 466.35 601.611 465.663 601.717 464.802 602.043 C 461.947 603.123 458.459 606.102 454.43 610.891 C 449.579 616.66 444.81 618.953 441.663 619.859 C 438.261 620.842 434.561 620.389 434.538 620.385 L 434.371 621.324 C 434.471 621.342 438.266 621.82 441.865 620.795 C 445.154 619.857 450.132 617.484 455.16 611.504 C 464.209 600.746 467.659 602.703 467.692 602.725 L 468.231 601.938 C 468.162 601.889 467.731 601.611 466.875 601.611 Z " fill="rgb(164,121,83)"/><path d=" M 444.558 630.502 C 444.558 630.502 456.22 622.896 457.32 622.896 C 458.421 622.896 461.726 625.213 461.726 625.213 L 461.726 623.867 C 461.726 623.867 457.741 621.211 457.224 621.211 C 456.705 621.211 444.558 629.082 444.558 629.082 L 444.558 630.502 Z " fill="rgb(218,226,242)"/><path d=" M 445.861 634.146 C 445.861 634.146 455.717 626.902 457.116 626.902 C 458.515 626.902 462.57 630.525 462.57 630.525 L 445.861 634.146 Z " fill="rgb(183,151,91)"/><path d=" M 444.558 631.428 C 444.558 631.428 456.22 623.691 457.32 623.691 C 458.421 623.691 461.726 626.299 461.726 626.299 L 461.726 624.994 C 461.726 624.994 457.741 622.42 457.224 622.42 C 456.705 622.42 444.558 630.051 444.558 630.051 L 444.558 631.428 Z " fill="rgb(183,151,91)"/><path d=" M 461.408 629.99 C 461.408 629.99 461.381 617.684 464.259 609.568 C 467.138 601.451 473.719 590.16 476.673 589.154 L 477.688 590.191 C 475.138 591.48 466.845 604.031 465.295 610.166 C 463.396 617.973 463.331 614.596 462.414 630.502 C 461.495 646.41 461.408 629.99 461.408 629.99 Z " fill="rgb(164,121,83)"/><path d=" M 443.058 569.369 C 443.058 569.369 443.685 575.205 443.058 576.4 C 442.432 577.596 441.236 580.244 441.236 580.244 C 441.236 580.244 443.826 579.305 443.884 581.98 C 443.94 584.656 441.749 584.514 440.951 584.514 C 440.154 584.514 437.849 583.574 439.357 579.875 C 440.866 576.174 441.135 577.654 441.37 574.977 C 441.606 572.301 441.37 569.541 441.37 569.541 L 443.058 569.369 Z " fill="rgb(221,220,219)"/><path d=" M 442.232 567.656 C 442.232 567.656 442.858 573.49 442.232 574.686 C 441.606 575.883 440.411 578.529 440.411 578.529 C 440.411 578.529 443.001 577.59 443.058 580.266 C 443.115 582.941 440.923 582.799 440.126 582.799 C 439.329 582.799 437.023 581.861 438.532 578.16 C 440.04 574.459 440.31 575.939 440.545 573.264 C 440.78 570.588 440.545 567.826 440.545 567.826 L 442.232 567.656 Z " fill="rgb(234,232,232)"/><path d=" M 441.139 576.053 C 441.139 576.053 436.664 593.092 446.822 593.092 C 456.98 593.092 455.774 580.09 452.6 575.514 C 449.425 570.936 441.139 576.053 441.139 576.053 Z " fill="rgb(221,220,219)"/><path d=" M 441.359 568.953 C 441.359 568.953 440.61 571.789 441.063 572.695 C 441.517 573.602 441.057 575.158 441.139 576.053 C 441.222 576.949 442.442 578.486 445.102 576.674 C 445.102 576.674 451.956 580.338 452.015 575.609 C 452.074 570.883 451.739 568.361 451.739 568.361 C 451.739 568.361 443.467 567.436 441.359 568.953 Z " fill="rgb(218,226,242)"/><path d=" M 459.946 566.857 C 459.946 566.857 459.32 572.693 459.946 573.891 C 460.572 575.086 461.769 577.732 461.769 577.732 C 461.769 577.732 459.178 576.793 459.121 579.469 C 459.063 582.145 461.256 582.002 462.053 582.002 C 462.851 582.002 465.156 581.063 463.647 577.363 C 462.139 573.662 461.87 575.143 461.634 572.467 C 461.398 569.791 461.634 567.029 461.634 567.029 L 459.946 566.857 Z " fill="rgb(107,107,110)"/><path d=" M 459.149 567.656 C 459.149 567.656 458.523 573.49 459.149 574.686 C 459.775 575.883 460.972 578.529 460.972 578.529 C 460.972 578.529 458.381 577.59 458.323 580.266 C 458.267 582.941 460.459 582.799 461.256 582.799 C 462.053 582.799 464.358 581.861 462.85 578.16 C 461.341 574.459 461.072 575.939 460.837 573.264 C 460.601 570.588 460.837 567.826 460.837 567.826 L 459.149 567.656 Z " fill="rgb(130,132,134)"/><path d=" M 457.982 568.48 C 457.982 568.48 457.356 574.316 457.982 575.512 C 458.608 576.707 459.804 579.355 459.804 579.355 C 459.804 579.355 457.214 578.416 457.157 581.092 C 457.1 583.768 459.292 583.625 460.089 583.625 C 460.886 583.625 463.191 582.686 461.683 578.986 C 460.174 575.285 459.905 576.766 459.67 574.09 C 459.435 571.412 459.67 568.652 459.67 568.652 L 457.982 568.48 Z " fill="rgb(149,153,154)"/><path d=" M 456.284 568.736 C 456.284 568.736 455.658 574.572 456.284 575.77 C 456.911 576.965 458.106 579.611 458.106 579.611 C 458.106 579.611 455.516 578.672 455.459 581.348 C 455.402 584.023 457.594 583.881 458.392 583.881 C 459.188 583.881 461.494 582.941 459.985 579.242 C 458.477 575.541 458.207 577.021 457.972 574.346 C 457.736 571.67 457.972 568.908 457.972 568.908 L 456.284 568.736 Z " fill="rgb(171,174,175)"/><path d=" M 454.634 568.48 C 454.634 568.48 454.007 574.316 454.634 575.512 C 455.26 576.707 456.455 579.355 456.455 579.355 C 456.455 579.355 453.865 578.416 453.808 581.092 C 453.751 583.768 455.942 583.625 456.739 583.625 C 457.537 583.625 459.843 582.686 458.334 578.986 C 456.825 575.285 456.557 576.766 456.32 574.09 C 456.085 571.412 456.32 568.652 456.32 568.652 L 454.634 568.48 Z " fill="rgb(196,196,195)"/><path d=" M 452.954 568.254 C 452.954 568.254 452.328 574.09 452.954 575.285 C 453.58 576.48 454.776 579.127 454.776 579.127 C 454.776 579.127 452.186 578.188 452.128 580.865 C 452.071 583.541 454.264 583.398 455.061 583.398 C 455.857 583.398 458.163 582.459 456.654 578.758 C 455.146 575.057 454.877 576.537 454.642 573.861 C 454.406 571.186 454.642 568.424 454.642 568.424 L 452.954 568.254 Z " fill="rgb(221,220,219)"/><path d=" M 451.445 567.939 C 451.445 567.939 450.819 573.775 451.445 574.971 C 452.071 576.166 453.268 578.814 453.268 578.814 C 453.268 578.814 450.677 577.875 450.62 580.551 C 450.563 583.227 452.755 583.084 453.552 583.084 C 454.349 583.084 456.654 582.145 455.146 578.445 C 453.637 574.744 453.368 576.225 453.133 573.549 C 452.897 570.873 453.133 568.111 453.133 568.111 L 451.445 567.939 Z " fill="rgb(234,232,232)"/><path d=" M 445.102 576.674 C 445.102 576.674 442.36 576.914 441.37 578.582 C 441.37 578.582 442.824 579.986 444.942 578.939 C 444.942 578.939 447.342 579.859 449.537 579.221 C 449.537 579.221 448.017 576.908 445.102 576.674 Z " fill="rgb(234,232,232)"/><path d=" M 463.151 560.982 L 459.814 560.289 L 459.141 563.533 C 458.299 563.338 457.41 563.176 456.497 563.047 L 456.875 559.951 L 453.335 559.52 L 452.948 562.684 C 451.94 562.615 450.936 562.572 449.961 562.551 L 449.961 559.303 L 446.349 559.303 L 446.349 562.547 C 445.252 562.568 444.265 562.607 443.44 562.648 L 442.893 559.393 L 439.006 560.045 L 440.319 567.855 L 441.042 567.734 L 441.051 568.082 L 460.486 568.832 L 460.521 568.525 L 461.54 568.736 L 463.151 560.982 Z " fill="rgb(183,151,91)"/><path d=" M 440.545 569.18 C 440.545 569.18 450.549 567.652 461.531 570.244 L 461.634 568.48 C 461.634 568.48 447.866 565.268 440.265 567.656 L 440.545 569.18 Z " fill="rgb(48,44,50)"/><path d=" M 443.994 571.637 C 443.994 571.637 443.82 571.602 443.56 571.582 C 443.3 571.557 442.951 571.548 442.615 571.586 C 442.446 571.602 442.293 571.67 442.139 571.683 C 442.001 571.741 441.866 571.774 441.743 571.803 C 441.543 571.916 441.353 571.981 441.353 571.981 L 441.329 571.96 C 441.329 571.96 441.409 571.801 441.617 571.583 C 441.739 571.516 441.887 571.425 442.06 571.375 C 442.23 571.346 442.42 571.32 442.602 571.331 C 443.338 571.338 444.002 571.605 444.002 571.605 L 443.994 571.637 Z " fill="rgb(130,132,134)"/><path d=" M 446.904 571.605 C 446.904 571.605 447.568 571.338 448.305 571.331 C 448.486 571.319 448.676 571.346 448.847 571.375 C 449.02 571.424 449.167 571.516 449.289 571.582 C 449.497 571.801 449.577 571.96 449.577 571.96 L 449.554 571.981 C 449.554 571.981 449.363 571.916 449.163 571.803 C 449.04 571.774 448.905 571.741 448.768 571.683 C 448.614 571.67 448.46 571.602 448.291 571.586 C 447.955 571.548 447.606 571.557 447.347 571.582 C 447.086 571.602 446.912 571.637 446.912 571.637 L 446.904 571.605 Z " fill="rgb(130,132,134)"/><path d=" M 446.002 572.813 C 446.002 572.813 446.174 572.96 446.478 573.096 C 446.632 573.153 446.811 573.229 447.011 573.267 C 447.212 573.306 447.424 573.346 447.642 573.326 C 447.858 573.337 448.067 573.287 448.266 573.252 C 448.465 573.221 448.652 573.204 448.81 573.15 C 449.129 573.078 449.369 573.063 449.369 573.063 L 449.383 573.093 C 449.383 573.093 449.201 573.233 448.887 573.393 C 448.733 573.48 448.539 573.549 448.316 573.565 C 448.1 573.615 447.864 573.62 447.63 573.581 C 447.394 573.576 447.168 573.509 446.96 573.444 C 446.751 573.385 446.573 573.276 446.425 573.194 C 446.132 573.009 445.98 572.836 445.98 572.836 L 446.002 572.813 Z " fill="rgb(69,71,97)"/><path d=" M 443.914 572.836 C 443.914 572.836 443.806 572.962 443.598 573.102 C 443.495 573.172 443.365 573.243 443.22 573.304 C 443.069 573.35 442.91 573.421 442.738 573.432 C 442.569 573.465 442.396 573.49 442.235 573.452 C 442.072 573.442 441.927 573.4 441.814 573.332 C 441.586 573.209 441.462 573.093 441.462 573.093 L 441.476 573.063 C 441.476 573.063 441.657 573.053 441.886 573.089 C 441.998 573.122 442.135 573.111 442.272 573.137 C 442.413 573.161 442.561 573.182 442.715 573.178 C 443.022 573.188 443.323 573.089 443.544 573.003 C 443.765 572.912 443.893 572.813 443.893 572.813 L 443.914 572.836 Z " fill="rgb(69,71,97)"/><path d=" M 444.521 572.317 C 444.521 572.317 444.585 572.782 444.572 573.487 C 444.566 573.84 444.533 574.252 444.449 574.689 C 444.406 574.908 444.329 575.128 444.268 575.355 C 444.169 575.565 444.068 575.778 443.968 575.991 C 443.866 576.208 443.895 576.339 444.026 576.481 C 444.159 576.604 444.346 576.689 444.538 576.736 C 444.733 576.776 444.93 576.782 445.112 576.771 C 445.295 576.76 445.472 576.727 445.611 576.655 C 445.755 576.595 445.886 576.517 445.964 576.416 C 446.063 576.328 446.098 576.217 446.15 576.133 C 446.209 575.949 446.229 575.83 446.229 575.83 L 446.26 575.83 C 446.26 575.83 446.271 575.946 446.256 576.162 C 446.228 576.265 446.208 576.404 446.108 576.528 C 446.03 576.662 445.894 576.792 445.727 576.881 C 445.562 576.983 445.359 577.041 445.146 577.075 C 444.932 577.116 444.7 577.09 444.467 577.045 C 444.237 576.986 443.99 576.893 443.803 576.683 C 443.708 576.572 443.65 576.437 443.633 576.284 C 443.639 576.129 443.676 575.967 443.736 575.883 C 443.846 575.68 443.955 575.476 444.063 575.274 C 444.132 575.062 444.217 574.856 444.269 574.648 C 444.369 574.229 444.431 573.828 444.461 573.481 C 444.521 572.787 444.489 572.319 444.489 572.319 L 444.521 572.317 Z " fill="rgb(69,71,97)"/><path d=" M 462.835 647.08 C 462.835 647.08 462.209 641.244 462.835 640.049 C 463.462 638.854 464.657 636.205 464.657 636.205 C 464.657 636.205 462.066 637.145 462.01 634.469 C 461.953 631.793 464.145 631.936 464.941 631.936 C 465.739 631.936 468.045 632.875 466.536 636.576 C 465.027 640.275 464.758 638.797 464.522 641.473 C 464.287 644.148 464.522 646.91 464.522 646.91 L 462.835 647.08 Z " fill="rgb(221,220,219)"/><path d=" M 463.66 648.795 C 463.66 648.795 463.034 642.959 463.66 641.764 C 464.286 640.566 465.482 637.92 465.482 637.92 C 465.482 637.92 462.892 638.859 462.835 636.184 C 462.777 633.508 464.97 633.65 465.767 633.65 C 466.564 633.65 468.87 634.59 467.361 638.289 C 465.853 641.99 465.584 640.51 465.348 643.186 C 465.112 645.861 465.348 648.623 465.348 648.623 L 463.66 648.795 Z " fill="rgb(234,232,232)"/><path d=" M 464.754 640.396 C 464.754 640.396 469.229 623.357 459.071 623.357 C 448.912 623.357 450.119 636.359 453.293 640.938 C 456.468 645.514 464.754 640.396 464.754 640.396 Z " fill="rgb(221,220,219)"/><path d=" M 464.533 647.496 C 464.533 647.496 465.282 644.66 464.829 643.754 C 464.376 642.848 464.837 641.291 464.754 640.396 C 464.672 639.5 463.45 637.963 460.791 639.775 C 460.791 639.775 453.938 636.113 453.878 640.84 C 453.819 645.566 454.153 648.088 454.153 648.088 C 454.153 648.088 462.426 649.014 464.533 647.496 Z " fill="rgb(218,226,242)"/><path d=" M 445.946 649.592 C 445.946 649.592 446.572 643.756 445.946 642.561 C 445.32 641.365 444.124 638.717 444.124 638.717 C 444.124 638.717 446.715 639.656 446.771 636.98 C 446.829 634.305 444.637 634.447 443.84 634.447 C 443.043 634.447 440.736 635.387 442.246 639.086 C 443.755 642.787 444.023 641.307 444.259 643.984 C 444.494 646.66 444.259 649.42 444.259 649.42 L 445.946 649.592 Z " fill="rgb(107,107,110)"/><path d=" M 446.743 648.795 C 446.743 648.795 447.37 642.959 446.743 641.764 C 446.117 640.566 444.922 637.92 444.922 637.92 C 444.922 637.92 447.512 638.859 447.569 636.184 C 447.626 633.508 445.435 633.65 444.637 633.65 C 443.84 633.65 441.534 634.59 443.043 638.289 C 444.552 641.99 444.82 640.51 445.057 643.186 C 445.292 645.861 445.057 648.623 445.057 648.623 L 446.743 648.795 Z " fill="rgb(130,132,134)"/><path d=" M 447.911 647.969 C 447.911 647.969 448.536 642.133 447.911 640.938 C 447.284 639.742 446.089 637.094 446.089 637.094 C 446.089 637.094 448.679 638.033 448.736 635.357 C 448.793 632.682 446.602 632.824 445.805 632.824 C 445.007 632.824 442.701 633.764 444.21 637.465 C 445.719 641.164 445.987 639.686 446.224 642.361 C 446.459 645.037 446.224 647.799 446.224 647.799 L 447.911 647.969 Z " fill="rgb(149,153,154)"/><path d=" M 449.608 647.713 C 449.608 647.713 450.234 641.877 449.608 640.682 C 448.982 639.486 447.786 636.838 447.786 636.838 C 447.786 636.838 450.377 637.777 450.435 635.102 C 450.491 632.426 448.299 632.568 447.502 632.568 C 446.705 632.568 444.398 633.508 445.907 637.209 C 447.416 640.908 447.686 639.428 447.921 642.105 C 448.157 644.781 447.921 647.541 447.921 647.541 L 449.608 647.713 Z " fill="rgb(171,174,175)"/><path d=" M 451.26 647.969 C 451.26 647.969 451.886 642.133 451.26 640.938 C 450.633 639.742 449.438 637.094 449.438 637.094 C 449.438 637.094 452.028 638.033 452.085 635.357 C 452.143 632.682 449.95 632.824 449.153 632.824 C 448.355 632.824 446.05 633.764 447.559 637.465 C 449.067 641.164 449.337 639.686 449.572 642.361 C 449.808 645.037 449.572 647.799 449.572 647.799 L 451.26 647.969 Z " fill="rgb(196,196,195)"/><path d=" M 452.938 648.197 C 452.938 648.197 453.565 642.361 452.938 641.164 C 452.313 639.969 451.117 637.322 451.117 637.322 C 451.117 637.322 453.708 638.262 453.765 635.586 C 453.821 632.91 451.63 633.053 450.832 633.053 C 450.035 633.053 447.729 633.99 449.238 637.691 C 450.747 641.393 451.017 639.912 451.252 642.588 C 451.487 645.264 451.252 648.025 451.252 648.025 L 452.938 648.197 Z " fill="rgb(221,220,219)"/><path d=" M 454.447 648.51 C 454.447 648.51 455.074 642.674 454.447 641.479 C 453.821 640.283 452.626 637.635 452.626 637.635 C 452.626 637.635 455.216 638.574 455.273 635.898 C 455.33 633.223 453.139 633.365 452.341 633.365 C 451.544 633.365 449.238 634.305 450.747 638.006 C 452.256 641.707 452.524 640.227 452.76 642.902 C 452.996 645.578 452.76 648.34 452.76 648.34 L 454.447 648.51 Z " fill="rgb(234,232,232)"/><path d=" M 460.791 639.775 C 460.791 639.775 463.532 639.535 464.522 637.867 C 464.522 637.867 463.069 636.463 460.95 637.51 C 460.95 637.51 458.552 636.59 456.356 637.229 C 456.356 637.229 457.876 639.541 460.791 639.775 Z " fill="rgb(234,232,232)"/><path d=" M 442.741 655.467 L 446.078 656.16 L 446.752 652.916 C 447.594 653.111 448.482 653.273 449.396 653.404 L 449.018 656.498 L 452.558 656.932 L 452.944 653.766 C 453.952 653.834 454.957 653.877 455.932 653.898 L 455.932 657.146 L 459.544 657.146 L 459.544 653.902 C 460.641 653.881 461.629 653.844 462.453 653.801 L 463 657.057 L 466.888 656.404 L 465.574 648.594 L 464.851 648.715 L 464.842 648.367 L 445.407 647.619 L 445.373 647.924 L 444.353 647.713 L 442.741 655.467 Z " fill="rgb(183,151,91)"/><path d=" M 465.348 647.27 C 465.348 647.27 455.345 648.797 444.361 646.205 L 444.259 647.969 C 444.259 647.969 458.026 651.182 465.629 648.795 L 465.348 647.27 Z " fill="rgb(48,44,50)"/><path d=" M 461.898 644.813 C 461.898 644.813 462.072 644.849 462.333 644.868 C 462.593 644.894 462.94 644.902 463.277 644.865 C 463.446 644.85 463.6 644.781 463.754 644.769 C 463.892 644.709 464.026 644.677 464.149 644.648 C 464.35 644.535 464.54 644.47 464.54 644.47 L 464.563 644.491 C 464.563 644.491 464.483 644.65 464.275 644.868 C 464.153 644.936 464.005 645.026 463.833 645.076 C 463.661 645.104 463.472 645.131 463.29 645.12 C 462.555 645.112 461.891 644.844 461.891 644.844 L 461.898 644.813 Z " fill="rgb(130,132,134)"/><path d=" M 458.988 644.844 C 458.988 644.844 458.324 645.112 457.589 645.12 C 457.406 645.131 457.218 645.104 457.046 645.076 C 456.874 645.026 456.726 644.936 456.604 644.868 C 456.396 644.65 456.315 644.491 456.315 644.491 L 456.339 644.47 C 456.339 644.47 456.529 644.535 456.729 644.648 C 456.853 644.677 456.987 644.709 457.125 644.769 C 457.278 644.781 457.433 644.85 457.602 644.865 C 457.938 644.902 458.286 644.894 458.546 644.868 C 458.807 644.849 458.98 644.813 458.98 644.813 L 458.988 644.844 Z " fill="rgb(130,132,134)"/><path d=" M 459.891 643.637 C 459.891 643.637 459.719 643.489 459.415 643.354 C 459.261 643.296 459.082 643.22 458.882 643.183 C 458.681 643.145 458.469 643.104 458.251 643.124 C 458.034 643.113 457.825 643.162 457.626 643.198 C 457.428 643.229 457.24 643.246 457.083 643.3 C 456.764 643.373 456.523 643.388 456.523 643.388 L 456.51 643.358 C 456.51 643.358 456.691 643.218 457.006 643.059 C 457.159 642.971 457.354 642.902 457.576 642.885 C 457.792 642.835 458.028 642.83 458.263 642.869 C 458.498 642.874 458.724 642.94 458.933 643.005 C 459.142 643.064 459.319 643.173 459.468 643.255 C 459.761 643.44 459.912 643.613 459.912 643.613 L 459.891 643.637 Z " fill="rgb(69,71,97)"/><path d=" M 461.979 643.613 C 461.979 643.613 462.087 643.487 462.295 643.349 C 462.398 643.278 462.528 643.207 462.674 643.146 C 462.824 643.101 462.983 643.029 463.155 643.019 C 463.324 642.985 463.498 642.961 463.658 642.999 C 463.821 643.009 463.967 643.051 464.078 643.119 C 464.308 643.242 464.432 643.358 464.432 643.358 L 464.418 643.388 C 464.418 643.388 464.236 643.398 464.008 643.362 C 463.895 643.329 463.759 643.339 463.62 643.313 C 463.48 643.29 463.332 643.269 463.179 643.273 C 462.871 643.263 462.569 643.361 462.35 643.446 C 462.129 643.537 462 643.637 462 643.637 L 461.979 643.613 Z " fill="rgb(69,71,97)"/><path d=" M 461.373 644.132 C 461.373 644.132 461.308 643.667 461.32 642.962 C 461.327 642.609 461.359 642.197 461.443 641.76 C 461.486 641.541 461.563 641.321 461.626 641.094 C 461.725 640.885 461.825 640.672 461.926 640.459 C 462.025 640.242 461.999 640.11 461.866 639.968 C 461.732 639.846 461.546 639.761 461.354 639.714 C 461.158 639.674 460.963 639.668 460.779 639.68 C 460.597 639.691 460.42 639.725 460.28 639.796 C 460.137 639.856 460.007 639.934 459.928 640.035 C 459.829 640.123 459.795 640.235 459.742 640.318 C 459.685 640.502 459.664 640.621 459.664 640.621 L 459.633 640.621 C 459.633 640.621 459.622 640.505 459.636 640.289 C 459.665 640.187 459.684 640.046 459.784 639.923 C 459.861 639.789 459.998 639.658 460.166 639.569 C 460.33 639.468 460.532 639.409 460.745 639.375 C 460.96 639.334 461.191 639.36 461.425 639.405 C 461.654 639.464 461.901 639.558 462.09 639.768 C 462.185 639.878 462.242 640.013 462.26 640.165 C 462.255 640.319 462.218 640.482 462.157 640.566 C 462.047 640.771 461.938 640.975 461.829 641.175 C 461.761 641.388 461.677 641.593 461.624 641.801 C 461.523 642.22 461.462 642.621 461.432 642.968 C 461.372 643.662 461.404 644.13 461.404 644.13 L 461.373 644.132 Z " fill="rgb(69,71,97)"/></g></svg>