<?xml version="1.0" encoding="UTF-8" standalone="no"?><!-- Generator: Gravit.io --><svg xmlns="http://www.w3.org/2000/svg" xmlns:xlink="http://www.w3.org/1999/xlink" style="isolation:isolate" viewBox="418.385 25.977 69.123 103.685" width="69.123pt" height="103.685pt"><g><path d=" M 487.508 126.94 C 487.508 128.443 486.289 129.662 484.786 129.662 L 421.106 129.662 C 419.604 129.662 418.385 128.443 418.385 126.94 L 418.385 28.699 C 418.385 27.195 419.604 25.977 421.106 25.977 L 484.786 25.977 C 486.289 25.977 487.508 27.195 487.508 28.699 L 487.508 126.94 Z " fill="rgb(234,232,232)"/><path d=" M 452.946 84.906 L 451.867 83.83 C 447.86 80.287 445.241 77.898 445.241 74.967 C 445.241 72.583 447.093 70.732 449.477 70.732 C 450.792 70.732 452.1 72.133 452.946 73.133 C 453.793 72.133 455.102 70.732 456.415 70.732 C 458.8 70.732 460.65 72.583 460.65 74.967 C 460.65 77.898 458.033 80.287 454.026 83.83 L 452.946 84.906 Z " fill="rgb(125,60,64)"/><path d=" M 452.93 73.123 C 452.082 72.124 450.783 70.741 449.477 70.741 C 447.093 70.741 445.241 72.591 445.241 74.975 C 445.241 77.906 447.86 80.294 451.867 83.838 L 452.93 84.898 L 452.93 73.123 Z " fill="rgb(147,67,72)"/><path d=" M 468.658 60.382 L 467.579 59.306 C 463.571 55.763 460.953 53.375 460.953 50.443 C 460.953 48.059 462.805 46.208 465.188 46.208 C 466.504 46.208 467.812 47.609 468.658 48.61 C 469.505 47.609 470.813 46.208 472.127 46.208 C 474.512 46.208 476.363 48.059 476.363 50.443 C 476.363 53.375 473.744 55.763 469.738 59.306 L 468.658 60.382 Z " fill="rgb(125,60,64)"/><path d=" M 468.642 48.598 C 467.794 47.6 466.495 46.216 465.188 46.216 C 462.805 46.216 460.953 48.068 460.953 50.452 C 460.953 53.382 463.571 55.771 467.579 59.314 L 468.642 60.375 L 468.642 48.598 Z " fill="rgb(147,67,72)"/><path d=" M 437.201 109.43 L 436.122 108.354 C 432.115 104.811 429.497 102.422 429.497 99.491 C 429.497 97.107 431.349 95.255 433.732 95.255 C 435.047 95.255 436.355 96.657 437.201 97.657 C 438.049 96.657 439.357 95.255 440.67 95.255 C 443.055 95.255 444.906 97.107 444.906 99.491 C 444.906 102.422 442.288 104.811 438.281 108.354 L 437.201 109.43 Z " fill="rgb(125,60,64)"/><path d=" M 437.186 97.646 C 436.338 96.647 435.038 95.264 433.732 95.264 C 431.349 95.264 429.497 97.115 429.497 99.5 C 429.497 102.43 432.115 104.818 436.122 108.362 L 437.186 109.421 L 437.186 97.646 Z " fill="rgb(147,67,72)"/><path d=" M 423.457 36.068 C 423.806 36.297 424.502 36.547 425.297 36.547 C 426.984 36.547 427.877 35.557 427.877 34.425 C 427.866 33.434 427.169 32.781 426.298 32.618 L 426.298 32.596 C 427.158 32.28 427.605 31.66 427.605 30.92 C 427.605 30.06 426.973 29.232 425.58 29.232 C 424.818 29.232 424.099 29.504 423.718 29.777 L 423.98 30.473 C 424.285 30.256 424.829 30.005 425.395 30.005 C 426.277 30.005 426.636 30.506 426.636 31.072 C 426.636 31.91 425.754 32.269 425.057 32.269 L 424.524 32.269 L 424.524 32.988 L 425.057 32.988 C 425.983 32.988 426.875 33.412 426.886 34.403 C 426.897 35.002 426.505 35.775 425.286 35.775 C 424.611 35.775 423.991 35.502 423.718 35.339 L 423.457 36.068 Z " fill="rgb(125,60,64)"/><path d=" M 482.435 119.571 C 482.086 119.343 481.39 119.092 480.595 119.092 C 478.908 119.092 478.015 120.083 478.015 121.215 C 478.026 122.206 478.723 122.859 479.594 123.022 L 479.594 123.044 C 478.734 123.359 478.287 123.98 478.287 124.72 C 478.287 125.58 478.919 126.407 480.312 126.407 C 481.074 126.407 481.793 126.135 482.174 125.863 L 481.912 125.166 C 481.607 125.384 481.063 125.635 480.497 125.635 C 479.615 125.635 479.256 125.134 479.256 124.568 C 479.256 123.73 480.138 123.37 480.835 123.37 L 481.368 123.37 L 481.368 122.652 L 480.835 122.652 C 479.909 122.652 479.017 122.227 479.006 121.237 C 478.995 120.638 479.387 119.865 480.606 119.865 C 481.281 119.865 481.901 120.137 482.174 120.301 L 482.435 119.571 Z " fill="rgb(125,60,64)"/><path d=" M 425.802 45.939 L 425.224 45.363 C 423.08 43.467 421.68 42.189 421.68 40.621 C 421.68 39.345 422.67 38.355 423.945 38.355 C 424.649 38.355 425.349 39.104 425.802 39.639 C 426.255 39.104 426.955 38.355 427.658 38.355 C 428.934 38.355 429.924 39.345 429.924 40.621 C 429.924 42.189 428.523 43.467 426.379 45.363 L 425.802 45.939 Z " fill="rgb(125,60,64)"/><path d=" M 425.793 39.634 C 425.34 39.099 424.645 38.359 423.945 38.359 C 422.67 38.359 421.68 39.349 421.68 40.625 C 421.68 42.193 423.08 43.471 425.224 45.368 L 425.793 45.934 L 425.793 39.634 Z " fill="rgb(147,67,72)"/><path d=" M 480.091 109.7 L 480.669 110.275 C 482.813 112.171 484.214 113.449 484.214 115.017 C 484.214 116.293 483.224 117.284 481.947 117.284 C 481.244 117.284 480.544 116.534 480.091 115.999 C 479.638 116.534 478.938 117.284 478.235 117.284 C 476.959 117.284 475.969 116.293 475.969 115.017 C 475.969 113.449 477.369 112.171 479.514 110.275 L 480.091 109.7 Z " fill="rgb(125,60,64)"/><path d=" M 480.1 116.004 C 480.554 116.54 481.248 117.279 481.947 117.279 C 483.224 117.279 484.214 116.289 484.214 115.013 C 484.214 113.445 482.813 112.167 480.669 110.271 L 480.1 109.704 L 480.1 116.004 Z " fill="rgb(147,67,72)"/></g></svg>