<?xml version="1.0" encoding="UTF-8" standalone="no"?><!-- Generator: Gravit.io --><svg xmlns="http://www.w3.org/2000/svg" xmlns:xlink="http://www.w3.org/1999/xlink" style="isolation:isolate" viewBox="92.662 132.707 69.123 103.683" width="69.123pt" height="103.683pt"><g><path d=" M 161.785 233.669 C 161.785 235.172 160.566 236.39 159.063 236.39 L 95.383 236.39 C 93.881 236.39 92.662 235.172 92.662 233.669 L 92.662 135.427 C 92.662 133.925 93.881 132.707 95.383 132.707 L 159.063 132.707 C 160.566 132.707 161.785 133.925 161.785 135.427 L 161.785 233.669 Z " fill="rgb(234,232,232)"/><path d=" M 142.936 167.112 L 141.855 166.036 C 137.849 162.493 135.23 160.104 135.23 157.173 C 135.23 154.789 137.082 152.938 139.466 152.938 C 140.781 152.938 142.089 154.338 142.936 155.339 C 143.782 154.338 145.091 152.938 146.403 152.938 C 148.788 152.938 150.64 154.789 150.64 157.173 C 150.64 160.104 148.021 162.493 144.015 166.036 L 142.936 167.112 Z " fill="rgb(125,60,64)"/><path d=" M 142.919 155.328 C 142.071 154.33 140.772 152.946 139.466 152.946 C 137.082 152.946 135.23 154.797 135.23 157.181 C 135.23 160.112 137.849 162.5 141.855 166.044 L 142.919 167.104 L 142.919 155.328 Z " fill="rgb(147,67,72)"/><path d=" M 111.479 216.16 L 110.399 215.083 C 106.393 211.541 103.774 209.152 103.774 206.22 C 103.774 203.836 105.625 201.985 108.01 201.985 C 109.324 201.985 110.632 203.386 111.479 204.386 C 112.325 203.386 113.634 201.985 114.947 201.985 C 117.332 201.985 119.184 203.836 119.184 206.22 C 119.184 209.152 116.565 211.541 112.559 215.083 L 111.479 216.16 Z " fill="rgb(125,60,64)"/><path d=" M 111.462 204.375 C 110.615 203.376 109.315 201.994 108.01 201.994 C 105.625 201.994 103.774 203.844 103.774 206.229 C 103.774 209.16 106.393 211.547 110.399 215.091 L 111.462 216.151 L 111.462 204.375 Z " fill="rgb(147,67,72)"/><path d=" M 111.479 167.112 L 110.399 166.036 C 106.393 162.493 103.774 160.104 103.774 157.173 C 103.774 154.789 105.625 152.938 108.01 152.938 C 109.324 152.938 110.632 154.338 111.479 155.339 C 112.325 154.338 113.634 152.938 114.947 152.938 C 117.332 152.938 119.184 154.789 119.184 157.173 C 119.184 160.104 116.565 162.493 112.559 166.036 L 111.479 167.112 Z " fill="rgb(125,60,64)"/><path d=" M 111.462 155.328 C 110.615 154.33 109.315 152.946 108.01 152.946 C 105.625 152.946 103.774 154.797 103.774 157.181 C 103.774 160.112 106.393 162.5 110.399 166.044 L 111.462 167.104 L 111.462 155.328 Z " fill="rgb(147,67,72)"/><path d=" M 142.936 216.16 L 141.855 215.083 C 137.849 211.541 135.23 209.152 135.23 206.22 C 135.23 203.836 137.082 201.985 139.466 201.985 C 140.781 201.985 142.089 203.386 142.936 204.386 C 143.782 203.386 145.091 201.985 146.403 201.985 C 148.788 201.985 150.64 203.836 150.64 206.22 C 150.64 209.152 148.021 211.541 144.015 215.083 L 142.936 216.16 Z " fill="rgb(125,60,64)"/><path d=" M 142.919 204.375 C 142.071 203.376 140.772 201.994 139.466 201.994 C 137.082 201.994 135.23 203.844 135.23 206.229 C 135.23 209.16 137.849 211.547 141.855 215.091 L 142.919 216.151 L 142.919 204.375 Z " fill="rgb(147,67,72)"/><path d=" M 101.632 143.156 L 101.632 141.218 L 102.623 141.218 L 102.623 140.478 L 101.632 140.478 L 101.632 136.08 L 100.598 136.08 L 97.441 140.598 L 97.441 141.218 L 100.729 141.218 L 100.729 143.156 L 101.632 143.156 Z  M 98.41 140.478 L 98.41 140.456 L 100.141 138.051 C 100.337 137.724 100.511 137.419 100.729 137.006 L 100.761 137.006 C 100.739 137.376 100.729 137.746 100.729 138.116 L 100.729 140.478 L 98.41 140.478 Z " fill="rgb(125,60,64)"/><path d=" M 152.813 225.939 L 152.813 227.877 L 151.822 227.877 L 151.822 228.617 L 152.813 228.617 L 152.813 233.015 L 153.847 233.015 L 157.004 228.497 L 157.004 227.877 L 153.716 227.877 L 153.716 225.939 L 152.813 225.939 Z  M 156.035 228.617 L 156.035 228.639 L 154.304 231.044 C 154.108 231.371 153.934 231.676 153.716 232.089 L 153.684 232.089 C 153.705 231.719 153.716 231.349 153.716 230.979 L 153.716 228.617 L 156.035 228.617 Z " fill="rgb(125,60,64)"/><path d=" M 100.079 152.668 L 99.501 152.092 C 97.357 150.197 95.956 148.918 95.956 147.35 C 95.956 146.075 96.946 145.084 98.223 145.084 C 98.926 145.084 99.626 145.833 100.079 146.369 C 100.532 145.833 101.232 145.084 101.936 145.084 C 103.211 145.084 104.201 146.075 104.201 147.35 C 104.201 148.918 102.801 150.197 100.656 152.092 L 100.079 152.668 Z " fill="rgb(125,60,64)"/><path d=" M 100.07 146.363 C 99.616 145.829 98.922 145.088 98.223 145.088 C 96.946 145.088 95.956 146.079 95.956 147.355 C 95.956 148.923 97.357 150.201 99.501 152.097 L 100.07 152.664 L 100.07 146.363 Z " fill="rgb(147,67,72)"/><path d=" M 154.368 216.429 L 154.945 217.004 C 157.089 218.901 158.49 220.178 158.49 221.747 C 158.49 223.023 157.5 224.013 156.225 224.013 C 155.521 224.013 154.82 223.263 154.368 222.728 C 153.915 223.263 153.215 224.013 152.512 224.013 C 151.236 224.013 150.246 223.023 150.246 221.747 C 150.246 220.178 151.646 218.901 153.791 217.004 L 154.368 216.429 Z " fill="rgb(125,60,64)"/><path d=" M 154.377 222.734 C 154.83 223.269 155.525 224.008 156.225 224.008 C 157.5 224.008 158.49 223.018 158.49 221.743 C 158.49 220.174 157.089 218.896 154.945 217 L 154.377 216.433 L 154.377 222.734 Z " fill="rgb(147,67,72)"/></g></svg>