<?xml version="1.0" encoding="UTF-8" standalone="no"?><!-- Generator: Gravit.io --><svg xmlns="http://www.w3.org/2000/svg" xmlns:xlink="http://www.w3.org/1999/xlink" style="isolation:isolate" viewBox="418.385 132.382 69.123 103.685" width="69.123pt" height="103.685pt"><g><path d=" M 487.508 233.345 C 487.508 234.848 486.289 236.067 484.786 236.067 L 421.106 236.067 C 419.604 236.067 418.385 234.848 418.385 233.345 L 418.385 135.104 C 418.385 133.601 419.604 132.382 421.106 132.382 L 484.786 132.382 C 486.289 132.382 487.508 133.601 487.508 135.104 L 487.508 233.345 Z " fill="rgb(234,232,232)"/><path d=" M 468.658 166.788 L 467.579 165.712 C 463.571 162.169 460.953 159.781 460.953 156.849 C 460.953 154.465 462.805 152.614 465.188 152.614 C 466.504 152.614 467.812 154.015 468.658 155.015 C 469.505 154.015 470.813 152.614 472.127 152.614 C 474.512 152.614 476.363 154.465 476.363 156.849 C 476.363 159.781 473.744 162.169 469.738 165.712 L 468.658 166.788 Z " fill="rgb(125,60,64)"/><path d=" M 468.642 155.004 C 467.794 154.005 466.495 152.623 465.188 152.623 C 462.805 152.623 460.953 154.473 460.953 156.858 C 460.953 159.789 463.571 162.176 467.579 165.72 L 468.642 166.78 L 468.642 155.004 Z " fill="rgb(147,67,72)"/><path d=" M 437.201 215.835 L 436.122 214.759 C 432.115 211.216 429.497 208.828 429.497 205.897 C 429.497 203.513 431.349 201.662 433.732 201.662 C 435.047 201.662 436.355 203.062 437.201 204.063 C 438.049 203.062 439.357 201.662 440.67 201.662 C 443.055 201.662 444.906 203.513 444.906 205.897 C 444.906 208.828 442.288 211.216 438.281 214.759 L 437.201 215.835 Z " fill="rgb(125,60,64)"/><path d=" M 437.186 204.051 C 436.338 203.053 435.038 201.669 433.732 201.669 C 431.349 201.669 429.497 203.521 429.497 205.905 C 429.497 208.835 432.115 211.224 436.122 214.768 L 437.186 215.828 L 437.186 204.051 Z " fill="rgb(147,67,72)"/><path d=" M 437.201 166.788 L 436.122 165.712 C 432.115 162.169 429.497 159.781 429.497 156.849 C 429.497 154.465 431.349 152.614 433.732 152.614 C 435.047 152.614 436.355 154.015 437.201 155.015 C 438.049 154.015 439.357 152.614 440.67 152.614 C 443.055 152.614 444.906 154.465 444.906 156.849 C 444.906 159.781 442.288 162.169 438.281 165.712 L 437.201 166.788 Z " fill="rgb(125,60,64)"/><path d=" M 437.186 155.004 C 436.338 154.005 435.038 152.623 433.732 152.623 C 431.349 152.623 429.497 154.473 429.497 156.858 C 429.497 159.789 432.115 162.176 436.122 165.72 L 437.186 166.78 L 437.186 155.004 Z " fill="rgb(147,67,72)"/><path d=" M 468.658 215.835 L 467.579 214.759 C 463.571 211.216 460.953 208.828 460.953 205.897 C 460.953 203.513 462.805 201.662 465.188 201.662 C 466.504 201.662 467.812 203.062 468.658 204.063 C 469.505 203.062 470.813 201.662 472.127 201.662 C 474.512 201.662 476.363 203.513 476.363 205.897 C 476.363 208.828 473.744 211.216 469.738 214.759 L 468.658 215.835 Z " fill="rgb(125,60,64)"/><path d=" M 468.642 204.051 C 467.794 203.053 466.495 201.669 465.188 201.669 C 462.805 201.669 460.953 203.521 460.953 205.905 C 460.953 208.835 463.571 211.224 467.579 214.768 L 468.642 215.828 L 468.642 204.051 Z " fill="rgb(147,67,72)"/><path d=" M 427.713 135.757 L 424.328 135.757 L 423.871 139.154 C 424.132 139.121 424.448 139.088 424.861 139.088 C 426.266 139.088 426.886 139.731 426.886 140.645 C 426.897 141.592 426.113 142.18 425.221 142.18 C 424.568 142.18 423.991 141.962 423.697 141.788 L 423.457 142.517 C 423.806 142.735 424.448 142.953 425.221 142.953 C 426.756 142.953 427.855 141.919 427.855 140.536 C 427.855 139.654 427.398 139.034 426.843 138.729 C 426.407 138.457 425.874 138.348 425.319 138.348 C 425.057 138.348 424.905 138.359 424.742 138.381 L 425.014 136.563 L 427.713 136.563 L 427.713 135.757 Z " fill="rgb(125,60,64)"/><path d=" M 478.179 232.693 L 481.564 232.693 L 482.021 229.296 C 481.76 229.329 481.444 229.362 481.031 229.362 C 479.626 229.362 479.006 228.719 479.006 227.805 C 478.995 226.858 479.779 226.27 480.671 226.27 C 481.324 226.27 481.901 226.488 482.195 226.662 L 482.435 225.933 C 482.086 225.715 481.444 225.497 480.671 225.497 C 479.136 225.497 478.037 226.531 478.037 227.914 C 478.037 228.796 478.494 229.416 479.049 229.721 C 479.485 229.993 480.018 230.102 480.573 230.102 C 480.835 230.102 480.987 230.091 481.15 230.069 L 480.878 231.887 L 478.179 231.887 L 478.179 232.693 Z " fill="rgb(125,60,64)"/><path d=" M 425.802 152.344 L 425.224 151.768 C 423.08 149.873 421.68 148.594 421.68 147.027 C 421.68 145.75 422.67 144.76 423.945 144.76 C 424.649 144.76 425.349 145.51 425.802 146.045 C 426.255 145.51 426.955 144.76 427.658 144.76 C 428.934 144.76 429.924 145.75 429.924 147.027 C 429.924 148.594 428.523 149.873 426.379 151.768 L 425.802 152.344 Z " fill="rgb(125,60,64)"/><path d=" M 425.793 146.04 C 425.34 145.504 424.645 144.765 423.945 144.765 C 422.67 144.765 421.68 145.755 421.68 147.031 C 421.68 148.599 423.08 149.877 425.224 151.773 L 425.793 152.34 L 425.793 146.04 Z " fill="rgb(147,67,72)"/><path d=" M 480.091 216.105 L 480.669 216.68 C 482.813 218.577 484.214 219.854 484.214 221.423 C 484.214 222.699 483.224 223.689 481.947 223.689 C 481.244 223.689 480.544 222.939 480.091 222.404 C 479.638 222.939 478.938 223.689 478.235 223.689 C 476.959 223.689 475.969 222.699 475.969 221.423 C 475.969 219.854 477.369 218.577 479.514 216.68 L 480.091 216.105 Z " fill="rgb(125,60,64)"/><path d=" M 480.1 222.41 C 480.554 222.945 481.248 223.684 481.947 223.684 C 483.224 223.684 484.214 222.694 484.214 221.418 C 484.214 219.85 482.813 218.572 480.669 216.676 L 480.1 216.109 L 480.1 222.41 Z " fill="rgb(147,67,72)"/><path d=" M 452.946 191.04 L 451.867 189.963 C 447.86 186.42 445.241 184.032 445.241 181.1 C 445.241 178.716 447.093 176.866 449.477 176.866 C 450.792 176.866 452.1 178.266 452.946 179.267 C 453.793 178.266 455.102 176.866 456.415 176.866 C 458.8 176.866 460.65 178.716 460.65 181.1 C 460.65 184.032 458.033 186.42 454.026 189.963 L 452.946 191.04 Z " fill="rgb(125,60,64)"/><path d=" M 452.93 179.255 C 452.082 178.257 450.783 176.874 449.477 176.874 C 447.093 176.874 445.241 178.724 445.241 181.109 C 445.241 184.04 447.86 186.428 451.867 189.971 L 452.93 191.032 L 452.93 179.255 Z " fill="rgb(147,67,72)"/></g></svg>