<?xml version="1.0" encoding="UTF-8" standalone="no"?><!-- Generator: Gravit.io --><svg xmlns="http://www.w3.org/2000/svg" xmlns:xlink="http://www.w3.org/1999/xlink" style="isolation:isolate" viewBox="12.877 151.275 69.123 103.683" width="69.123pt" height="103.683pt"><g><path d=" M 82 252.237 C 82 253.74 80.781 254.958 79.278 254.958 L 15.598 254.958 C 14.096 254.958 12.877 253.74 12.877 252.237 L 12.877 153.995 C 12.877 152.492 14.096 151.275 15.598 151.275 L 79.278 151.275 C 80.781 151.275 82 152.492 82 153.995 L 82 252.237 Z " fill="rgb(234,232,232)"/><path d=" M 63.151 185.68 L 62.07 184.604 C 58.064 181.061 55.445 178.672 55.445 175.74 C 55.445 173.357 57.297 171.505 59.681 171.505 C 60.996 171.505 62.304 172.906 63.151 173.907 C 63.997 172.906 65.306 171.505 66.618 171.505 C 69.003 171.505 70.855 173.357 70.855 175.74 C 70.855 178.672 68.236 181.061 64.23 184.604 L 63.151 185.68 Z " fill="rgb(125,60,64)"/><path d=" M 63.134 173.896 C 62.286 172.897 60.987 171.514 59.681 171.514 C 57.297 171.514 55.445 173.364 55.445 175.749 C 55.445 178.68 58.064 181.069 62.07 184.611 L 63.134 185.672 L 63.134 173.896 Z " fill="rgb(147,67,72)"/><path d=" M 31.694 234.727 L 30.614 233.652 C 26.608 230.109 23.989 227.72 23.989 224.788 C 23.989 222.404 25.84 220.553 28.225 220.553 C 29.539 220.553 30.847 221.954 31.694 222.954 C 32.54 221.954 33.849 220.553 35.162 220.553 C 37.547 220.553 39.399 222.404 39.399 224.788 C 39.399 227.72 36.78 230.109 32.774 233.652 L 31.694 234.727 Z " fill="rgb(125,60,64)"/><path d=" M 31.677 222.944 C 30.83 221.944 29.53 220.562 28.225 220.562 C 25.84 220.562 23.989 222.412 23.989 224.797 C 23.989 227.728 26.608 230.115 30.614 233.659 L 31.677 234.719 L 31.677 222.944 Z " fill="rgb(147,67,72)"/><path d=" M 31.694 185.68 L 30.614 184.604 C 26.608 181.061 23.989 178.672 23.989 175.74 C 23.989 173.357 25.84 171.505 28.225 171.505 C 29.539 171.505 30.847 172.906 31.694 173.907 C 32.54 172.906 33.849 171.505 35.162 171.505 C 37.547 171.505 39.399 173.357 39.399 175.74 C 39.399 178.672 36.78 181.061 32.774 184.604 L 31.694 185.68 Z " fill="rgb(125,60,64)"/><path d=" M 31.677 173.896 C 30.83 172.897 29.53 171.514 28.225 171.514 C 25.84 171.514 23.989 173.364 23.989 175.749 C 23.989 178.68 26.608 181.069 30.614 184.611 L 31.677 185.672 L 31.677 173.896 Z " fill="rgb(147,67,72)"/><path d=" M 63.151 210.203 L 62.07 209.127 C 58.064 205.584 55.445 203.195 55.445 200.265 C 55.445 197.88 57.297 196.029 59.681 196.029 C 60.996 196.029 62.304 197.43 63.151 198.431 C 63.997 197.43 65.306 196.029 66.618 196.029 C 69.003 196.029 70.855 197.88 70.855 200.265 C 70.855 203.195 68.236 205.584 64.23 209.127 L 63.151 210.203 Z " fill="rgb(125,60,64)"/><path d=" M 63.134 198.419 C 62.286 197.421 60.987 196.037 59.681 196.037 C 57.297 196.037 55.445 197.889 55.445 200.273 C 55.445 203.203 58.064 205.592 62.07 209.136 L 63.134 210.195 L 63.134 198.419 Z " fill="rgb(147,67,72)"/><path d=" M 31.694 210.203 L 30.614 209.127 C 26.608 205.584 23.989 203.195 23.989 200.265 C 23.989 197.88 25.84 196.029 28.225 196.029 C 29.539 196.029 30.847 197.43 31.694 198.431 C 32.54 197.43 33.849 196.029 35.162 196.029 C 37.547 196.029 39.399 197.88 39.399 200.265 C 39.399 203.195 36.78 205.584 32.774 209.127 L 31.694 210.203 Z " fill="rgb(125,60,64)"/><path d=" M 31.677 198.419 C 30.83 197.421 29.53 196.037 28.225 196.037 C 25.84 196.037 23.989 197.889 23.989 200.273 C 23.989 203.203 26.608 205.592 30.614 209.136 L 31.677 210.195 L 31.677 198.419 Z " fill="rgb(147,67,72)"/><path d=" M 63.151 234.727 L 62.07 233.652 C 58.064 230.109 55.445 227.72 55.445 224.788 C 55.445 222.404 57.297 220.553 59.681 220.553 C 60.996 220.553 62.304 221.954 63.151 222.954 C 63.997 221.954 65.306 220.553 66.618 220.553 C 69.003 220.553 70.855 222.404 70.855 224.788 C 70.855 227.72 68.236 230.109 64.23 233.652 L 63.151 234.727 Z " fill="rgb(125,60,64)"/><path d=" M 63.134 222.944 C 62.286 221.944 60.987 220.562 59.681 220.562 C 57.297 220.562 55.445 222.412 55.445 224.797 C 55.445 227.728 58.064 230.115 62.07 233.659 L 63.134 234.719 L 63.134 222.944 Z " fill="rgb(147,67,72)"/><path d=" M 22.021 154.54 C 21.847 154.54 21.608 154.55 21.325 154.594 C 20.432 154.703 19.648 155.062 19.06 155.639 C 18.353 156.336 17.863 157.435 17.863 158.828 C 17.863 160.668 18.853 161.844 20.356 161.844 C 21.836 161.844 22.718 160.646 22.718 159.34 C 22.718 157.968 21.836 157.054 20.584 157.054 C 19.801 157.054 19.202 157.424 18.864 157.881 L 18.843 157.881 C 19.006 156.706 19.79 155.617 21.303 155.378 C 21.575 155.334 21.825 155.312 22.021 155.323 L 22.021 154.54 Z  M 20.377 161.104 C 19.365 161.104 18.821 160.233 18.81 159.068 C 18.81 158.894 18.853 158.763 18.908 158.654 C 19.169 158.132 19.713 157.783 20.29 157.783 C 21.172 157.783 21.749 158.393 21.749 159.405 C 21.749 160.418 21.194 161.104 20.377 161.104 Z " fill="rgb(125,60,64)"/><path d=" M 72.854 251.692 C 73.028 251.692 73.267 251.682 73.55 251.638 C 74.443 251.529 75.227 251.17 75.814 250.593 C 76.522 249.896 77.012 248.797 77.012 247.404 C 77.012 245.564 76.021 244.388 74.519 244.388 C 73.039 244.388 72.157 245.586 72.157 246.892 C 72.157 248.264 73.039 249.178 74.29 249.178 C 75.074 249.178 75.673 248.808 76.01 248.351 L 76.032 248.351 C 75.869 249.526 75.085 250.615 73.572 250.854 C 73.3 250.898 73.05 250.92 72.854 250.909 L 72.854 251.692 Z  M 74.497 245.128 C 75.51 245.128 76.054 245.999 76.065 247.164 C 76.065 247.338 76.021 247.469 75.967 247.578 C 75.706 248.1 75.161 248.449 74.584 248.449 C 73.703 248.449 73.126 247.839 73.126 246.827 C 73.126 245.814 73.681 245.128 74.497 245.128 Z " fill="rgb(125,60,64)"/><path d=" M 20.294 171.236 L 19.716 170.66 C 17.572 168.765 16.171 167.486 16.171 165.918 C 16.171 164.643 17.161 163.652 18.438 163.652 C 19.141 163.652 19.841 164.402 20.294 164.937 C 20.747 164.402 21.447 163.652 22.151 163.652 C 23.426 163.652 24.416 164.643 24.416 165.918 C 24.416 167.486 23.016 168.765 20.871 170.66 L 20.294 171.236 Z " fill="rgb(125,60,64)"/><path d=" M 20.285 164.931 C 19.831 164.397 19.137 163.656 18.438 163.656 C 17.161 163.656 16.171 164.647 16.171 165.922 C 16.171 167.49 17.572 168.769 19.716 170.664 L 20.285 171.232 L 20.285 164.931 Z " fill="rgb(147,67,72)"/><path d=" M 74.583 234.997 L 75.16 235.572 C 77.304 237.469 78.705 238.746 78.705 240.315 C 78.705 241.59 77.715 242.58 76.44 242.58 C 75.736 242.58 75.035 241.831 74.583 241.296 C 74.13 241.831 73.43 242.58 72.727 242.58 C 71.451 242.58 70.461 241.59 70.461 240.315 C 70.461 238.746 71.861 237.469 74.006 235.572 L 74.583 234.997 Z " fill="rgb(125,60,64)"/><path d=" M 74.592 241.302 C 75.045 241.836 75.74 242.576 76.44 242.576 C 77.715 242.576 78.705 241.586 78.705 240.311 C 78.705 238.742 77.304 237.464 75.16 235.569 L 74.592 235.001 L 74.592 241.302 Z " fill="rgb(147,67,72)"/></g></svg>