<?xml version="1.0" encoding="UTF-8" standalone="no"?><!-- Generator: Gravit.io --><svg xmlns="http://www.w3.org/2000/svg" xmlns:xlink="http://www.w3.org/1999/xlink" style="isolation:isolate" viewBox="419.227 330.096 69.123 103.683" width="69.123pt" height="103.683pt"><g><path d=" M 488.35 431.058 C 488.35 432.561 487.131 433.779 485.628 433.779 L 421.948 433.779 C 420.446 433.779 419.227 432.561 419.227 431.058 L 419.227 332.816 C 419.227 331.313 420.446 330.096 421.948 330.096 L 485.628 330.096 C 487.131 330.096 488.35 331.313 488.35 332.816 L 488.35 431.058 Z " fill="rgb(234,232,232)"/><path d=" M 469.5 364.501 L 468.421 363.425 C 464.414 359.882 461.796 357.493 461.796 354.561 C 461.796 352.178 463.647 350.326 466.03 350.326 C 467.346 350.326 468.654 351.727 469.5 352.728 C 470.347 351.727 471.655 350.326 472.969 350.326 C 475.354 350.326 477.205 352.178 477.205 354.561 C 477.205 357.493 474.587 359.882 470.58 363.425 L 469.5 364.501 Z " fill="rgb(125,60,64)"/><path d=" M 469.484 352.717 C 468.636 351.718 467.337 350.335 466.03 350.335 C 463.647 350.335 461.796 352.185 461.796 354.57 C 461.796 357.501 464.414 359.89 468.421 363.432 L 469.484 364.493 L 469.484 352.717 Z " fill="rgb(147,67,72)"/><path d=" M 438.043 413.548 L 436.964 412.473 C 432.957 408.93 430.339 406.541 430.339 403.609 C 430.339 401.225 432.191 399.374 434.574 399.374 C 435.89 399.374 437.197 400.775 438.043 401.775 C 438.891 400.775 440.199 399.374 441.512 399.374 C 443.897 399.374 445.748 401.225 445.748 403.609 C 445.748 406.541 443.13 408.93 439.123 412.473 L 438.043 413.548 Z " fill="rgb(125,60,64)"/><path d=" M 438.028 401.765 C 437.18 400.765 435.881 399.383 434.574 399.383 C 432.191 399.383 430.339 401.233 430.339 403.618 C 430.339 406.549 432.957 408.936 436.964 412.48 L 438.028 413.54 L 438.028 401.765 Z " fill="rgb(147,67,72)"/><path d=" M 438.043 364.501 L 436.964 363.425 C 432.957 359.882 430.339 357.493 430.339 354.561 C 430.339 352.178 432.191 350.326 434.574 350.326 C 435.89 350.326 437.197 351.727 438.043 352.728 C 438.891 351.727 440.199 350.326 441.512 350.326 C 443.897 350.326 445.748 352.178 445.748 354.561 C 445.748 357.493 443.13 359.882 439.123 363.425 L 438.043 364.501 Z " fill="rgb(125,60,64)"/><path d=" M 438.028 352.717 C 437.18 351.718 435.881 350.335 434.574 350.335 C 432.191 350.335 430.339 352.185 430.339 354.57 C 430.339 357.501 432.957 359.89 436.964 363.432 L 438.028 364.493 L 438.028 352.717 Z " fill="rgb(147,67,72)"/><path d=" M 469.5 389.024 L 468.421 387.948 C 464.414 384.405 461.796 382.016 461.796 379.086 C 461.796 376.701 463.647 374.85 466.03 374.85 C 467.346 374.85 468.654 376.251 469.5 377.252 C 470.347 376.251 471.655 374.85 472.969 374.85 C 475.354 374.85 477.205 376.701 477.205 379.086 C 477.205 382.016 474.587 384.405 470.58 387.948 L 469.5 389.024 Z " fill="rgb(125,60,64)"/><path d=" M 469.484 377.24 C 468.636 376.242 467.337 374.858 466.03 374.858 C 463.647 374.858 461.796 376.71 461.796 379.094 C 461.796 382.024 464.414 384.413 468.421 387.957 L 469.484 389.016 L 469.484 377.24 Z " fill="rgb(147,67,72)"/><path d=" M 438.043 389.024 L 436.964 387.948 C 432.957 384.405 430.339 382.016 430.339 379.086 C 430.339 376.701 432.191 374.85 434.574 374.85 C 435.89 374.85 437.197 376.251 438.043 377.252 C 438.891 376.251 440.199 374.85 441.512 374.85 C 443.897 374.85 445.748 376.701 445.748 379.086 C 445.748 382.016 443.13 384.405 439.123 387.948 L 438.043 389.024 Z " fill="rgb(125,60,64)"/><path d=" M 438.028 377.24 C 437.18 376.242 435.881 374.858 434.574 374.858 C 432.191 374.858 430.339 376.71 430.339 379.094 C 430.339 382.024 432.957 384.413 436.964 387.957 L 438.028 389.016 L 438.028 377.24 Z " fill="rgb(147,67,72)"/><path d=" M 469.5 413.548 L 468.421 412.473 C 464.414 408.93 461.796 406.541 461.796 403.609 C 461.796 401.225 463.647 399.374 466.03 399.374 C 467.346 399.374 468.654 400.775 469.5 401.775 C 470.347 400.775 471.655 399.374 472.969 399.374 C 475.354 399.374 477.205 401.225 477.205 403.609 C 477.205 406.541 474.587 408.93 470.58 412.473 L 469.5 413.548 Z " fill="rgb(125,60,64)"/><path d=" M 469.484 401.765 C 468.636 400.765 467.337 399.383 466.03 399.383 C 463.647 399.383 461.796 401.233 461.796 403.618 C 461.796 406.549 464.414 408.936 468.421 412.48 L 469.484 413.54 L 469.484 401.765 Z " fill="rgb(147,67,72)"/><path d=" M 424.462 333.469 L 424.462 334.264 L 427.924 334.264 L 427.924 334.286 L 424.854 340.545 L 425.844 340.545 L 428.925 334.101 L 428.925 333.469 L 424.462 333.469 Z " fill="rgb(125,60,64)"/><path d=" M 483.113 430.405 L 483.113 429.61 L 479.651 429.61 L 479.651 429.588 L 482.721 423.329 L 481.731 423.329 L 478.65 429.773 L 478.65 430.405 L 483.113 430.405 Z " fill="rgb(125,60,64)"/><path d=" M 426.644 350.057 L 426.067 349.481 C 423.923 347.586 422.522 346.307 422.522 344.739 C 422.522 343.464 423.512 342.473 424.787 342.473 C 425.491 342.473 426.192 343.223 426.644 343.758 C 427.097 343.223 427.797 342.473 428.5 342.473 C 429.776 342.473 430.766 343.464 430.766 344.739 C 430.766 346.307 429.365 347.586 427.221 349.481 L 426.644 350.057 Z " fill="rgb(125,60,64)"/><path d=" M 426.635 343.752 C 426.182 343.218 425.487 342.477 424.787 342.477 C 423.512 342.477 422.522 343.468 422.522 344.743 C 422.522 346.311 423.923 347.59 426.067 349.485 L 426.635 350.053 L 426.635 343.752 Z " fill="rgb(147,67,72)"/><path d=" M 480.933 413.818 L 481.511 414.393 C 483.655 416.29 485.056 417.567 485.056 419.136 C 485.056 420.411 484.066 421.401 482.789 421.401 C 482.086 421.401 481.386 420.652 480.933 420.117 C 480.48 420.652 479.78 421.401 479.077 421.401 C 477.801 421.401 476.811 420.411 476.811 419.136 C 476.811 417.567 478.211 416.29 480.356 414.393 L 480.933 413.818 Z " fill="rgb(125,60,64)"/><path d=" M 480.942 420.123 C 481.395 420.657 482.09 421.397 482.789 421.397 C 484.066 421.397 485.056 420.407 485.056 419.132 C 485.056 417.563 483.655 416.285 481.511 414.39 L 480.942 413.822 L 480.942 420.123 Z " fill="rgb(147,67,72)"/><path d=" M 453.788 375.593 L 452.709 374.517 C 448.702 370.974 446.084 368.586 446.084 365.654 C 446.084 363.27 447.935 361.419 450.32 361.419 C 451.633 361.419 452.942 362.82 453.788 363.82 C 454.635 362.82 455.944 361.419 457.257 361.419 C 459.642 361.419 461.493 363.27 461.493 365.654 C 461.493 368.586 458.875 370.974 454.868 374.517 L 453.788 375.593 Z " fill="rgb(125,60,64)"/><path d=" M 453.773 363.809 C 452.925 362.81 451.625 361.428 450.32 361.428 C 447.935 361.428 446.084 363.278 446.084 365.663 C 446.084 368.594 448.702 370.981 452.709 374.525 L 453.773 375.585 L 453.773 363.809 Z " fill="rgb(147,67,72)"/></g></svg>