<?xml version="1.0" encoding="UTF-8" standalone="no"?><!-- Generator: Gravit.io --><svg xmlns="http://www.w3.org/2000/svg" xmlns:xlink="http://www.w3.org/1999/xlink" style="isolation:isolate" viewBox="22.81 256.144 69.123 103.684" width="69.123pt" height="103.684pt"><g><path d=" M 91.933 357.107 C 91.933 358.611 90.714 359.828 89.211 359.828 L 25.531 359.828 C 24.029 359.828 22.81 358.611 22.81 357.107 L 22.81 258.865 C 22.81 257.362 24.029 256.144 25.531 256.144 L 89.211 256.144 C 90.714 256.144 91.933 257.362 91.933 258.865 L 91.933 357.107 Z " fill="rgb(234,232,232)"/><path d=" M 73.084 290.55 L 72.003 289.474 C 67.997 285.931 65.378 283.542 65.378 280.61 C 65.378 278.227 67.23 276.375 69.614 276.375 C 70.929 276.375 72.237 277.776 73.084 278.776 C 73.93 277.776 75.239 276.375 76.551 276.375 C 78.936 276.375 80.788 278.227 80.788 280.61 C 80.788 283.542 78.169 285.931 74.163 289.474 L 73.084 290.55 Z " fill="rgb(125,60,64)"/><path d=" M 73.067 278.766 C 72.219 277.767 70.92 276.384 69.614 276.384 C 67.23 276.384 65.378 278.234 65.378 280.619 C 65.378 283.55 67.997 285.937 72.003 289.481 L 73.067 290.541 L 73.067 278.766 Z " fill="rgb(147,67,72)"/><path d=" M 41.627 339.597 L 40.547 338.521 C 36.541 334.978 33.922 332.589 33.922 329.658 C 33.922 327.275 35.773 325.423 38.158 325.423 C 39.472 325.423 40.78 326.824 41.627 327.824 C 42.473 326.824 43.782 325.423 45.095 325.423 C 47.48 325.423 49.332 327.275 49.332 329.658 C 49.332 332.589 46.713 334.978 42.707 338.521 L 41.627 339.597 Z " fill="rgb(125,60,64)"/><path d=" M 41.61 327.814 C 40.763 326.814 39.463 325.431 38.158 325.431 C 35.773 325.431 33.922 327.283 33.922 329.667 C 33.922 332.597 36.541 334.986 40.547 338.529 L 41.61 339.589 L 41.61 327.814 Z " fill="rgb(147,67,72)"/><path d=" M 41.627 290.55 L 40.547 289.474 C 36.541 285.931 33.922 283.542 33.922 280.61 C 33.922 278.227 35.773 276.375 38.158 276.375 C 39.472 276.375 40.78 277.776 41.627 278.776 C 42.473 277.776 43.782 276.375 45.095 276.375 C 47.48 276.375 49.332 278.227 49.332 280.61 C 49.332 283.542 46.713 285.931 42.707 289.474 L 41.627 290.55 Z " fill="rgb(125,60,64)"/><path d=" M 41.61 278.766 C 40.763 277.767 39.463 276.384 38.158 276.384 C 35.773 276.384 33.922 278.234 33.922 280.619 C 33.922 283.55 36.541 285.937 40.547 289.481 L 41.61 290.541 L 41.61 278.766 Z " fill="rgb(147,67,72)"/><path d=" M 73.084 315.074 L 72.003 313.998 C 67.997 310.454 65.378 308.065 65.378 305.134 C 65.378 302.75 67.23 300.898 69.614 300.898 C 70.929 300.898 72.237 302.3 73.084 303.3 C 73.93 302.3 75.239 300.898 76.551 300.898 C 78.936 300.898 80.788 302.75 80.788 305.134 C 80.788 308.065 78.169 310.454 74.163 313.998 L 73.084 315.074 Z " fill="rgb(125,60,64)"/><path d=" M 73.067 303.289 C 72.219 302.29 70.92 300.907 69.614 300.907 C 67.23 300.907 65.378 302.758 65.378 305.143 C 65.378 308.073 67.997 310.462 72.003 314.005 L 73.067 315.066 L 73.067 303.289 Z " fill="rgb(147,67,72)"/><path d=" M 41.627 315.074 L 40.547 313.998 C 36.541 310.454 33.922 308.065 33.922 305.134 C 33.922 302.75 35.773 300.898 38.158 300.898 C 39.472 300.898 40.78 302.3 41.627 303.3 C 42.473 302.3 43.782 300.898 45.095 300.898 C 47.48 300.898 49.332 302.75 49.332 305.134 C 49.332 308.065 46.713 310.454 42.707 313.998 L 41.627 315.074 Z " fill="rgb(125,60,64)"/><path d=" M 41.61 303.289 C 40.763 302.29 39.463 300.907 38.158 300.907 C 35.773 300.907 33.922 302.758 33.922 305.143 C 33.922 308.073 36.541 310.462 40.547 314.005 L 41.61 315.066 L 41.61 303.289 Z " fill="rgb(147,67,72)"/><path d=" M 73.084 339.597 L 72.003 338.521 C 67.997 334.978 65.378 332.589 65.378 329.658 C 65.378 327.275 67.23 325.423 69.614 325.423 C 70.929 325.423 72.237 326.824 73.084 327.824 C 73.93 326.824 75.239 325.423 76.551 325.423 C 78.936 325.423 80.788 327.275 80.788 329.658 C 80.788 332.589 78.169 334.978 74.163 338.521 L 73.084 339.597 Z " fill="rgb(125,60,64)"/><path d=" M 73.067 327.814 C 72.219 326.814 70.92 325.431 69.614 325.431 C 67.23 325.431 65.378 327.283 65.378 329.667 C 65.378 332.597 67.997 334.986 72.003 338.529 L 73.067 339.589 L 73.067 327.814 Z " fill="rgb(147,67,72)"/><path d=" M 29.233 262.904 C 28.362 263.274 27.829 263.916 27.829 264.809 C 27.829 265.843 28.721 266.714 30.202 266.714 C 31.551 266.714 32.607 265.897 32.607 264.656 C 32.607 263.807 32.063 263.176 31.181 262.828 L 31.181 262.795 C 32.052 262.392 32.357 261.739 32.357 261.14 C 32.357 260.248 31.66 259.399 30.289 259.399 C 29.037 259.399 28.09 260.161 28.09 261.282 C 28.09 261.891 28.427 262.501 29.222 262.871 L 29.233 262.904 Z  M 30.223 266.017 C 29.32 266.017 28.776 265.386 28.808 264.678 C 28.808 264.003 29.255 263.448 30.082 263.209 C 31.04 263.481 31.639 263.905 31.639 264.754 C 31.639 265.484 31.083 266.017 30.223 266.017 Z  M 30.234 260.084 C 31.094 260.084 31.432 260.672 31.432 261.238 C 31.432 261.881 30.964 262.316 30.354 262.523 C 29.538 262.305 28.993 261.924 29.004 261.217 C 29.004 260.607 29.44 260.084 30.234 260.084 Z " fill="rgb(125,60,64)"/><path d=" M 85.508 353.068 C 86.379 352.698 86.912 352.056 86.912 351.163 C 86.912 350.129 86.02 349.258 84.539 349.258 C 83.189 349.258 82.133 350.075 82.133 351.316 C 82.133 352.165 82.678 352.796 83.559 353.144 L 83.559 353.177 C 82.689 353.58 82.384 354.233 82.384 354.832 C 82.384 355.724 83.081 356.573 84.452 356.573 C 85.704 356.573 86.651 355.811 86.651 354.69 C 86.651 354.081 86.314 353.471 85.519 353.101 L 85.508 353.068 Z  M 84.517 349.955 C 85.421 349.955 85.965 350.586 85.933 351.294 C 85.933 351.969 85.486 352.524 84.659 352.763 C 83.701 352.491 83.102 352.067 83.102 351.218 C 83.102 350.488 83.657 349.955 84.517 349.955 Z  M 84.507 355.888 C 83.647 355.888 83.309 355.3 83.309 354.734 C 83.309 354.091 83.777 353.656 84.387 353.449 C 85.203 353.667 85.747 354.048 85.737 354.755 C 85.737 355.365 85.301 355.888 84.507 355.888 Z " fill="rgb(125,60,64)"/><path d=" M 30.227 276.105 L 29.649 275.529 C 27.505 273.634 26.104 272.355 26.104 270.788 C 26.104 269.513 27.094 268.521 28.371 268.521 C 29.074 268.521 29.774 269.271 30.227 269.807 C 30.68 269.271 31.38 268.521 32.084 268.521 C 33.359 268.521 34.349 269.513 34.349 270.788 C 34.349 272.355 32.949 273.634 30.804 275.529 L 30.227 276.105 Z " fill="rgb(125,60,64)"/><path d=" M 30.218 269.801 C 29.764 269.267 29.07 268.526 28.371 268.526 C 27.094 268.526 26.104 269.517 26.104 270.792 C 26.104 272.36 27.505 273.639 29.649 275.534 L 30.218 276.102 L 30.218 269.801 Z " fill="rgb(147,67,72)"/><path d=" M 84.516 339.867 L 85.093 340.443 C 87.237 342.337 88.638 343.617 88.638 345.185 C 88.638 346.46 87.648 347.451 86.373 347.451 C 85.669 347.451 84.968 346.701 84.516 346.165 C 84.063 346.701 83.363 347.451 82.66 347.451 C 81.384 347.451 80.394 346.46 80.394 345.185 C 80.394 343.617 81.794 342.337 83.939 340.443 L 84.516 339.867 Z " fill="rgb(125,60,64)"/><path d=" M 84.525 346.171 C 84.978 346.707 85.673 347.447 86.373 347.447 C 87.648 347.447 88.638 346.455 88.638 345.179 C 88.638 343.611 87.237 342.333 85.093 340.437 L 84.525 339.871 L 84.525 346.171 Z " fill="rgb(147,67,72)"/><path d=" M 57.372 301.642 L 56.293 300.566 C 52.285 297.023 49.667 294.635 49.667 291.703 C 49.667 289.319 51.518 287.468 53.902 287.468 C 55.217 287.468 56.525 288.869 57.372 289.869 C 58.218 288.869 59.527 287.468 60.839 287.468 C 63.225 287.468 65.076 289.319 65.076 291.703 C 65.076 294.635 62.458 297.023 58.451 300.566 L 57.372 301.642 Z " fill="rgb(125,60,64)"/><path d=" M 57.355 289.858 C 56.507 288.859 55.209 287.477 53.902 287.477 C 51.518 287.477 49.667 289.327 49.667 291.712 C 49.667 294.643 52.285 297.03 56.293 300.574 L 57.355 301.634 L 57.355 289.858 Z " fill="rgb(147,67,72)"/><path d=" M 57.372 327.673 L 56.293 326.597 C 52.285 323.054 49.667 320.665 49.667 317.736 C 49.667 315.351 51.518 313.499 53.902 313.499 C 55.217 313.499 56.525 314.902 57.372 315.902 C 58.218 314.902 59.527 313.499 60.839 313.499 C 63.225 313.499 65.076 315.351 65.076 317.736 C 65.076 320.665 62.458 323.054 58.451 326.597 L 57.372 327.673 Z " fill="rgb(125,60,64)"/><path d=" M 57.355 315.89 C 56.507 314.892 55.209 313.509 53.902 313.509 C 51.518 313.509 49.667 315.359 49.667 317.744 C 49.667 320.673 52.285 323.062 56.293 326.607 L 57.355 327.665 L 57.355 315.89 Z " fill="rgb(147,67,72)"/></g></svg>