<?xml version="1.0" encoding="UTF-8" standalone="no"?><!-- Generator: Gravit.io --><svg xmlns="http://www.w3.org/2000/svg" xmlns:xlink="http://www.w3.org/1999/xlink" style="isolation:isolate" viewBox="493.438 447.809 69.123 103.684" width="69.123pt" height="103.684pt"><g><path d=" M 562.561 548.772 C 562.561 550.276 561.342 551.493 559.839 551.493 L 496.159 551.493 C 494.657 551.493 493.438 550.276 493.438 548.772 L 493.438 450.53 C 493.438 449.027 494.657 447.809 496.159 447.809 L 559.839 447.809 C 561.342 447.809 562.561 449.027 562.561 450.53 L 562.561 548.772 Z " fill="rgb(234,232,232)"/><path d=" M 543.728 477.321 L 542.649 476.245 C 538.641 472.702 536.023 470.313 536.023 467.382 C 536.023 464.998 537.874 463.146 540.258 463.146 C 541.574 463.146 542.881 464.548 543.728 465.548 C 544.574 464.548 545.883 463.146 547.197 463.146 C 549.581 463.146 551.432 464.998 551.432 467.382 C 551.432 470.313 548.814 472.702 544.808 476.245 L 543.728 477.321 Z " fill="rgb(125,60,64)"/><path d=" M 543.711 465.537 C 542.864 464.538 541.565 463.155 540.258 463.155 C 537.874 463.155 536.023 465.006 536.023 467.391 C 536.023 470.321 538.641 472.709 542.649 476.253 L 543.711 477.312 L 543.711 465.537 Z " fill="rgb(147,67,72)"/><path d=" M 512.271 477.321 L 511.192 476.245 C 507.185 472.702 504.567 470.313 504.567 467.382 C 504.567 464.998 506.417 463.146 508.802 463.146 C 510.116 463.146 511.425 464.548 512.271 465.548 C 513.118 464.548 514.427 463.146 515.74 463.146 C 518.124 463.146 519.976 464.998 519.976 467.382 C 519.976 470.313 517.358 472.702 513.351 476.245 L 512.271 477.321 Z " fill="rgb(125,60,64)"/><path d=" M 512.255 465.537 C 511.407 464.538 510.108 463.155 508.802 463.155 C 506.417 463.155 504.567 465.006 504.567 467.391 C 504.567 470.321 507.185 472.709 511.192 476.253 L 512.255 477.312 L 512.255 465.537 Z " fill="rgb(147,67,72)"/><path d=" M 543.728 496.93 L 542.649 495.853 C 538.641 492.31 536.023 489.922 536.023 486.991 C 536.023 484.607 537.874 482.756 540.258 482.756 C 541.574 482.756 542.881 484.157 543.728 485.157 C 544.574 484.157 545.883 482.756 547.197 482.756 C 549.581 482.756 551.432 484.607 551.432 486.991 C 551.432 489.922 548.814 492.31 544.808 495.853 L 543.728 496.93 Z " fill="rgb(125,60,64)"/><path d=" M 543.711 485.146 C 542.864 484.147 541.565 482.765 540.258 482.765 C 537.874 482.765 536.023 484.615 536.023 486.999 C 536.023 489.93 538.641 492.318 542.649 495.862 L 543.711 496.922 L 543.711 485.146 Z " fill="rgb(147,67,72)"/><path d=" M 512.271 496.93 L 511.192 495.853 C 507.185 492.31 504.567 489.922 504.567 486.991 C 504.567 484.607 506.417 482.756 508.802 482.756 C 510.116 482.756 511.425 484.157 512.271 485.157 C 513.118 484.157 514.427 482.756 515.74 482.756 C 518.124 482.756 519.976 484.607 519.976 486.991 C 519.976 489.922 517.358 492.31 513.351 495.853 L 512.271 496.93 Z " fill="rgb(125,60,64)"/><path d=" M 512.255 485.146 C 511.407 484.147 510.108 482.765 508.802 482.765 C 506.417 482.765 504.567 484.615 504.567 486.999 C 504.567 489.93 507.185 492.318 511.192 495.862 L 512.255 496.922 L 512.255 485.146 Z " fill="rgb(147,67,72)"/><path d=" M 512.271 516.539 L 511.192 515.463 C 507.185 511.92 504.567 509.532 504.567 506.6 C 504.567 504.216 506.417 502.364 508.802 502.364 C 510.116 502.364 511.425 503.766 512.271 504.766 C 513.118 503.766 514.427 502.364 515.74 502.364 C 518.124 502.364 519.976 504.216 519.976 506.6 C 519.976 509.532 517.358 511.92 513.351 515.463 L 512.271 516.539 Z " fill="rgb(125,60,64)"/><path d=" M 512.255 504.754 C 511.407 503.756 510.108 502.373 508.802 502.373 C 506.417 502.373 504.567 504.224 504.567 506.608 C 504.567 509.539 507.185 511.926 511.192 515.471 L 512.255 516.53 L 512.255 504.754 Z " fill="rgb(147,67,72)"/><path d=" M 543.728 516.539 L 542.649 515.463 C 538.641 511.92 536.023 509.532 536.023 506.6 C 536.023 504.216 537.874 502.364 540.258 502.364 C 541.574 502.364 542.881 503.766 543.728 504.766 C 544.574 503.766 545.883 502.364 547.197 502.364 C 549.581 502.364 551.432 504.216 551.432 506.6 C 551.432 509.532 548.814 511.92 544.808 515.463 L 543.728 516.539 Z " fill="rgb(125,60,64)"/><path d=" M 543.711 504.754 C 542.864 503.756 541.565 502.373 540.258 502.373 C 537.874 502.373 536.023 504.224 536.023 506.608 C 536.023 509.539 538.641 511.926 542.649 515.471 L 543.711 516.53 L 543.711 504.754 Z " fill="rgb(147,67,72)"/><path d=" M 512.271 536.155 L 511.192 535.08 C 507.185 531.536 504.567 529.147 504.567 526.217 C 504.567 523.832 506.417 521.981 508.802 521.981 C 510.116 521.981 511.425 523.383 512.271 524.383 C 513.118 523.383 514.427 521.981 515.74 521.981 C 518.124 521.981 519.976 523.832 519.976 526.217 C 519.976 529.147 517.358 531.536 513.351 535.08 L 512.271 536.155 Z " fill="rgb(125,60,64)"/><path d=" M 512.255 524.372 C 511.407 523.373 510.108 521.991 508.802 521.991 C 506.417 521.991 504.567 523.84 504.567 526.225 C 504.567 529.157 507.185 531.543 511.192 535.088 L 512.255 536.147 L 512.255 524.372 Z " fill="rgb(147,67,72)"/><path d=" M 543.728 536.155 L 542.649 535.08 C 538.641 531.536 536.023 529.147 536.023 526.217 C 536.023 523.832 537.874 521.981 540.258 521.981 C 541.574 521.981 542.881 523.383 543.728 524.383 C 544.574 523.383 545.883 521.981 547.197 521.981 C 549.581 521.981 551.432 523.832 551.432 526.217 C 551.432 529.147 548.814 531.536 544.808 535.08 L 543.728 536.155 Z " fill="rgb(125,60,64)"/><path d=" M 543.711 524.372 C 542.864 523.373 541.565 521.991 540.258 521.991 C 537.874 521.991 536.023 523.84 536.023 526.225 C 536.023 529.157 538.641 531.543 542.649 535.088 L 543.711 536.147 L 543.711 524.372 Z " fill="rgb(147,67,72)"/><path d=" M 499.098 458.368 C 499.327 458.379 499.631 458.368 499.98 458.313 C 500.742 458.226 501.493 457.9 502.037 457.366 C 502.734 456.691 503.256 455.603 503.256 454.057 C 503.256 452.228 502.364 451.064 500.916 451.064 C 499.468 451.064 498.499 452.239 498.499 453.578 C 498.499 454.786 499.316 455.744 500.578 455.744 C 501.297 455.744 501.863 455.472 502.255 454.993 L 502.287 454.993 C 502.157 455.821 501.819 456.441 501.351 456.866 C 500.949 457.258 500.426 457.475 499.871 457.551 C 499.544 457.584 499.305 457.606 499.098 457.584 L 499.098 458.368 Z  M 500.829 451.793 C 501.841 451.793 502.287 452.718 502.287 453.927 C 502.287 454.09 502.255 454.188 502.2 454.286 C 501.95 454.71 501.449 455.026 500.807 455.026 C 499.98 455.026 499.446 454.405 499.446 453.524 C 499.446 452.511 500.023 451.793 500.829 451.793 Z " fill="rgb(125,60,64)"/><path d=" M 556.9 540.934 C 556.671 540.923 556.367 540.934 556.018 540.989 C 555.256 541.076 554.505 541.402 553.961 541.936 C 553.264 542.611 552.742 543.699 552.742 545.245 C 552.742 547.074 553.634 548.238 555.082 548.238 C 556.53 548.238 557.499 547.063 557.499 545.724 C 557.499 544.516 556.682 543.558 555.42 543.558 C 554.701 543.558 554.135 543.83 553.743 544.309 L 553.711 544.309 C 553.841 543.481 554.179 542.861 554.647 542.436 C 555.049 542.044 555.572 541.827 556.127 541.751 C 556.454 541.718 556.693 541.696 556.9 541.718 L 556.9 540.934 Z  M 555.169 547.509 C 554.157 547.509 553.711 546.584 553.711 545.375 C 553.711 545.212 553.743 545.114 553.798 545.016 C 554.048 544.592 554.549 544.276 555.191 544.276 C 556.018 544.276 556.552 544.897 556.552 545.778 C 556.552 546.791 555.975 547.509 555.169 547.509 Z " fill="rgb(125,60,64)"/><path d=" M 500.855 467.77 L 500.278 467.194 C 498.134 465.299 496.733 464.02 496.733 462.453 C 496.733 461.178 497.723 460.186 498.998 460.186 C 499.702 460.186 500.403 460.936 500.855 461.472 C 501.308 460.936 502.008 460.186 502.711 460.186 C 503.987 460.186 504.977 461.178 504.977 462.453 C 504.977 464.02 503.576 465.299 501.432 467.194 L 500.855 467.77 Z " fill="rgb(125,60,64)"/><path d=" M 500.846 461.466 C 500.393 460.932 499.698 460.191 498.998 460.191 C 497.723 460.191 496.733 461.182 496.733 462.457 C 496.733 464.025 498.134 465.304 500.278 467.199 L 500.846 467.767 L 500.846 461.466 Z " fill="rgb(147,67,72)"/><path d=" M 555.144 531.532 L 555.722 532.108 C 557.866 534.002 559.267 535.282 559.267 536.85 C 559.267 538.125 558.277 539.116 557 539.116 C 556.297 539.116 555.597 538.366 555.144 537.83 C 554.691 538.366 553.991 539.116 553.288 539.116 C 552.012 539.116 551.022 538.125 551.022 536.85 C 551.022 535.282 552.422 534.002 554.567 532.108 L 555.144 531.532 Z " fill="rgb(125,60,64)"/><path d=" M 555.153 537.836 C 555.607 538.372 556.301 539.112 557 539.112 C 558.277 539.112 559.267 538.122 559.267 536.846 C 559.267 535.278 557.866 533.998 555.722 532.104 L 555.153 531.536 L 555.153 537.836 Z " fill="rgb(147,67,72)"/><path d=" M 527.999 506.739 L 526.92 505.663 C 522.913 502.119 520.294 499.73 520.294 496.799 C 520.294 494.415 522.146 492.563 524.53 492.563 C 525.845 492.563 527.153 493.965 527.999 494.965 C 528.846 493.965 530.155 492.563 531.468 492.563 C 533.853 492.563 535.704 494.415 535.704 496.799 C 535.704 499.73 533.086 502.119 529.079 505.663 L 527.999 506.739 Z " fill="rgb(125,60,64)"/><path d=" M 527.984 494.954 C 527.135 493.955 525.836 492.572 524.53 492.572 C 522.146 492.572 520.294 494.423 520.294 496.808 C 520.294 499.738 522.913 502.126 526.92 505.67 L 527.984 506.729 L 527.984 494.954 Z " fill="rgb(147,67,72)"/></g></svg>