<?xml version="1.0" encoding="UTF-8" standalone="no"?><!-- Generator: Gravit.io --><svg xmlns="http://www.w3.org/2000/svg" xmlns:xlink="http://www.w3.org/1999/xlink" style="isolation:isolate" viewBox="638.216 670.34 69.122 103.683" width="69.122pt" height="103.683pt"><g><path d=" M 707.338 771.303 C 707.338 772.805 706.119 774.023 704.617 774.023 L 640.937 774.023 C 639.434 774.023 638.216 772.805 638.216 771.303 L 638.216 673.061 C 638.216 671.559 639.434 670.34 640.937 670.34 L 704.617 670.34 C 706.119 670.34 707.338 671.559 707.338 673.061 L 707.338 771.303 Z " fill="rgb(234,232,232)"/><path d=" M 680.441 709.695 C 678.167 707.828 675.805 705.898 674 703.756 C 673.695 703.395 673.246 703.193 672.784 703.193 L 672.69 703.193 C 672.222 703.193 671.772 703.395 671.467 703.756 C 669.661 705.898 667.299 707.828 665.023 709.695 C 660.201 713.641 655.22 717.729 655.22 724.051 C 655.22 729.787 659.228 733.795 664.978 733.795 C 667.753 733.795 670.174 732.16 671.818 730.666 C 671.028 734.041 669.554 738.037 666.768 741.17 L 678.69 741.17 C 675.903 738.031 674.429 734.029 673.638 730.65 C 675.281 732.15 677.706 733.795 680.489 733.795 C 686.229 733.795 690.248 729.787 690.248 724.051 C 690.248 717.736 685.259 713.648 680.441 709.695 Z " fill="rgb(68,66,71)"/><path d=" M 672.691 741.17 L 672.691 703.193 L 672.69 703.193 C 672.222 703.193 671.772 703.395 671.467 703.756 C 669.661 705.898 667.299 707.828 665.023 709.695 C 660.201 713.641 655.22 717.729 655.22 724.051 C 655.22 729.787 659.228 733.795 664.978 733.795 C 667.753 733.795 670.174 732.16 671.818 730.666 C 671.028 734.041 669.554 738.037 666.768 741.17 L 672.691 741.17 Z " fill="rgb(87,86,90)"/><path d=" M 647.156 684.113 C 646.704 683.742 646.234 683.359 645.876 682.934 C 645.815 682.861 645.726 682.822 645.634 682.822 L 645.615 682.822 C 645.521 682.822 645.433 682.861 645.372 682.934 C 645.013 683.359 644.544 683.742 644.092 684.113 C 643.133 684.898 642.143 685.711 642.143 686.969 C 642.143 688.107 642.939 688.904 644.082 688.904 C 644.634 688.904 645.115 688.58 645.442 688.283 C 645.285 688.953 644.992 689.748 644.438 690.371 L 646.808 690.371 C 646.254 689.746 645.961 688.951 645.804 688.279 C 646.13 688.578 646.612 688.904 647.165 688.904 C 648.307 688.904 649.105 688.107 649.105 686.969 C 649.105 685.713 648.113 684.9 647.156 684.113 Z " fill="rgb(68,66,71)"/><path d=" M 645.615 690.371 L 645.615 682.822 L 645.615 682.822 C 645.521 682.822 645.433 682.861 645.372 682.934 C 645.013 683.359 644.544 683.742 644.092 684.113 C 643.133 684.898 642.143 685.711 642.143 686.969 C 642.143 688.107 642.939 688.904 644.082 688.904 C 644.634 688.904 645.115 688.58 645.442 688.283 C 645.285 688.953 644.992 689.748 644.438 690.371 L 645.615 690.371 Z " fill="rgb(87,86,90)"/><path d=" M 646.908 678.481 L 647.692 680.789 L 648.705 680.789 L 646.201 673.452 L 645.069 673.452 L 642.565 680.789 L 643.545 680.789 L 644.307 678.481 L 646.908 678.481 Z  M 644.503 677.741 L 645.221 675.618 C 645.374 675.172 645.482 674.715 645.591 674.29 L 645.613 674.29 C 645.722 674.715 645.831 675.15 645.994 675.629 L 646.723 677.741 L 644.503 677.741 Z " fill="rgb(68,66,71)"/><path d=" M 698.397 760.248 C 698.85 760.619 699.319 761.004 699.678 761.43 C 699.738 761.502 699.827 761.541 699.919 761.541 L 699.938 761.541 C 700.031 761.541 700.121 761.502 700.182 761.43 C 700.54 761.004 701.01 760.619 701.462 760.248 C 702.421 759.465 703.411 758.652 703.411 757.395 C 703.411 756.254 702.614 755.459 701.472 755.459 C 700.92 755.459 700.438 755.783 700.111 756.08 C 700.269 755.408 700.562 754.615 701.115 753.992 L 698.745 753.992 C 699.3 754.615 699.593 755.412 699.75 756.084 C 699.423 755.785 698.94 755.459 698.388 755.459 C 697.247 755.459 696.448 756.254 696.448 757.395 C 696.448 758.65 697.439 759.463 698.397 760.248 Z " fill="rgb(68,66,71)"/><path d=" M 699.938 753.992 L 699.938 761.541 L 699.938 761.541 C 700.031 761.541 700.121 761.502 700.182 761.43 C 700.54 761.004 701.01 760.619 701.462 760.248 C 702.421 759.465 703.411 758.652 703.411 757.395 C 703.411 756.254 702.614 755.459 701.472 755.459 C 700.92 755.459 700.438 755.783 700.111 756.08 C 700.269 755.408 700.562 754.615 701.115 753.992 L 699.938 753.992 Z " fill="rgb(87,86,90)"/><path d=" M 698.645 765.881 L 697.861 763.573 L 696.848 763.573 L 699.352 770.91 L 700.484 770.91 L 702.988 763.573 L 702.008 763.573 L 701.246 765.881 L 698.645 765.881 Z  M 701.05 766.621 L 700.332 768.744 C 700.179 769.19 700.071 769.647 699.962 770.072 L 699.94 770.072 C 699.831 769.647 699.722 769.212 699.559 768.733 L 698.83 766.621 L 701.05 766.621 Z " fill="rgb(68,66,71)"/></g></svg>