<?xml version="1.0" encoding="UTF-8" standalone="no"?><!-- Generator: Gravit.io --><svg xmlns="http://www.w3.org/2000/svg" xmlns:xlink="http://www.w3.org/1999/xlink" style="isolation:isolate" viewBox="143.81 330.094 69.122 103.685" width="69.122pt" height="103.685pt"><g><path d=" M 212.932 431.057 C 212.932 432.56 211.714 433.779 210.212 433.779 L 146.532 433.779 C 145.029 433.779 143.81 432.56 143.81 431.057 L 143.81 332.814 C 143.81 331.312 145.029 330.094 146.532 330.094 L 210.212 330.094 C 211.714 330.094 212.932 331.312 212.932 332.814 L 212.932 431.057 Z " fill="rgb(234,232,232)"/><path d=" M 152.751 343.869 C 152.298 343.498 151.829 343.113 151.47 342.689 C 151.41 342.617 151.32 342.576 151.228 342.576 L 151.21 342.576 C 151.117 342.576 151.028 342.617 150.967 342.689 C 150.608 343.113 150.138 343.498 149.686 343.869 C 148.727 344.652 147.737 345.467 147.737 346.723 C 147.737 347.863 148.534 348.66 149.677 348.66 C 150.229 348.66 150.71 348.334 151.037 348.037 C 150.88 348.709 150.587 349.502 150.033 350.125 L 152.403 350.125 C 151.848 349.502 151.555 348.707 151.398 348.035 C 151.725 348.332 152.207 348.66 152.76 348.66 C 153.901 348.66 154.7 347.863 154.7 346.723 C 154.7 345.467 153.708 344.654 152.751 343.869 Z " fill="rgb(68,66,71)"/><path d=" M 151.211 350.125 L 151.211 342.576 L 151.21 342.576 C 151.117 342.576 151.028 342.617 150.967 342.689 C 150.608 343.113 150.138 343.498 149.686 343.869 C 148.727 344.652 147.737 345.467 147.737 346.723 C 147.737 347.863 148.534 348.66 149.677 348.66 C 150.229 348.66 150.71 348.334 151.037 348.037 C 150.88 348.709 150.587 349.502 150.033 350.125 L 151.211 350.125 Z " fill="rgb(87,86,90)"/><path d=" M 203.993 420.004 C 204.445 420.375 204.914 420.758 205.273 421.183 C 205.334 421.256 205.422 421.297 205.514 421.297 L 205.533 421.297 C 205.627 421.297 205.715 421.256 205.776 421.183 C 206.135 420.758 206.604 420.375 207.057 420.004 C 208.015 419.219 209.006 418.406 209.006 417.15 C 209.006 416.01 208.209 415.213 207.066 415.213 C 206.514 415.213 206.033 415.539 205.707 415.836 C 205.863 415.164 206.157 414.369 206.711 413.746 L 204.34 413.746 C 204.894 414.371 205.187 415.166 205.344 415.838 C 205.018 415.541 204.537 415.213 203.983 415.213 C 202.841 415.213 202.043 416.01 202.043 417.15 C 202.043 418.404 203.035 419.217 203.993 420.004 Z " fill="rgb(68,66,71)"/><path d=" M 205.533 413.746 L 205.533 421.297 L 205.533 421.297 C 205.627 421.297 205.715 421.256 205.776 421.183 C 206.135 420.758 206.604 420.375 207.057 420.004 C 208.015 419.219 209.006 418.406 209.006 417.15 C 209.006 416.01 208.209 415.213 207.066 415.213 C 206.514 415.213 206.033 415.539 205.707 415.836 C 205.863 415.164 206.157 414.369 206.711 413.746 L 205.533 413.746 Z " fill="rgb(87,86,90)"/><path d=" M 165.569 347.928 C 164.696 347.211 163.79 346.469 163.097 345.648 C 162.98 345.51 162.807 345.432 162.631 345.432 L 162.594 345.432 C 162.414 345.432 162.242 345.51 162.125 345.648 C 161.432 346.469 160.525 347.211 159.652 347.928 C 157.8 349.441 155.889 351.01 155.889 353.437 C 155.889 355.639 157.427 357.176 159.634 357.176 C 160.7 357.176 161.629 356.549 162.259 355.975 C 161.957 357.271 161.39 358.805 160.321 360.006 L 164.897 360.006 C 163.828 358.803 163.261 357.266 162.958 355.969 C 163.589 356.545 164.519 357.176 165.588 357.176 C 167.791 357.176 169.332 355.639 169.332 353.437 C 169.332 351.014 167.418 349.445 165.569 347.928 Z " fill="rgb(68,66,71)"/><path d=" M 162.594 360.006 L 162.594 345.432 L 162.594 345.432 C 162.414 345.432 162.242 345.51 162.125 345.648 C 161.432 346.469 160.525 347.211 159.652 347.928 C 157.8 349.441 155.889 351.01 155.889 353.437 C 155.889 355.639 157.427 357.176 159.634 357.176 C 160.7 357.176 161.629 356.549 162.259 355.975 C 161.957 357.271 161.39 358.805 160.321 360.006 L 162.594 360.006 Z " fill="rgb(87,86,90)"/><path d=" M 197.025 347.928 C 196.152 347.211 195.246 346.469 194.553 345.648 C 194.437 345.51 194.264 345.432 194.087 345.432 L 194.05 345.432 C 193.871 345.432 193.699 345.51 193.582 345.648 C 192.888 346.469 191.982 347.211 191.109 347.928 C 189.257 349.441 187.346 351.01 187.346 353.437 C 187.346 355.639 188.884 357.176 191.09 357.176 C 192.156 357.176 193.085 356.549 193.716 355.975 C 193.414 357.271 192.847 358.805 191.778 360.006 L 196.353 360.006 C 195.284 358.803 194.717 357.266 194.415 355.969 C 195.045 356.545 195.975 357.176 197.044 357.176 C 199.247 357.176 200.789 355.639 200.789 353.437 C 200.789 351.014 198.874 349.445 197.025 347.928 Z " fill="rgb(68,66,71)"/><path d=" M 194.051 360.006 L 194.051 345.432 L 194.05 345.432 C 193.871 345.432 193.699 345.51 193.582 345.648 C 192.888 346.469 191.982 347.211 191.109 347.928 C 189.257 349.441 187.346 351.01 187.346 353.437 C 187.346 355.639 188.884 357.176 191.09 357.176 C 192.156 357.176 193.085 356.549 193.716 355.975 C 193.414 357.271 192.847 358.805 191.778 360.006 L 194.051 360.006 Z " fill="rgb(87,86,90)"/><path d=" M 165.569 367.127 C 164.696 366.412 163.79 365.67 163.097 364.848 C 162.98 364.709 162.807 364.633 162.631 364.633 L 162.594 364.633 C 162.414 364.633 162.242 364.709 162.125 364.848 C 161.432 365.67 160.525 366.412 159.652 367.127 C 157.8 368.642 155.889 370.211 155.889 372.637 C 155.889 374.838 157.427 376.377 159.634 376.377 C 160.7 376.377 161.629 375.748 162.259 375.176 C 161.957 376.471 161.39 378.004 160.321 379.207 L 164.897 379.207 C 163.828 378.002 163.261 376.467 162.958 375.17 C 163.589 375.744 164.519 376.377 165.588 376.377 C 167.791 376.377 169.332 374.838 169.332 372.637 C 169.332 370.213 167.418 368.644 165.569 367.127 Z " fill="rgb(68,66,71)"/><path d=" M 162.594 379.207 L 162.594 364.633 L 162.594 364.633 C 162.414 364.633 162.242 364.709 162.125 364.848 C 161.432 365.67 160.525 366.412 159.652 367.127 C 157.8 368.642 155.889 370.211 155.889 372.637 C 155.889 374.838 157.427 376.377 159.634 376.377 C 160.7 376.377 161.629 375.748 162.259 375.176 C 161.957 376.471 161.39 378.004 160.321 379.207 L 162.594 379.207 Z " fill="rgb(87,86,90)"/><path d=" M 197.025 367.127 C 196.152 366.412 195.246 365.67 194.553 364.848 C 194.437 364.709 194.264 364.633 194.087 364.633 L 194.05 364.633 C 193.871 364.633 193.699 364.709 193.582 364.848 C 192.888 365.67 191.982 366.412 191.109 367.127 C 189.257 368.642 187.346 370.211 187.346 372.637 C 187.346 374.838 188.884 376.377 191.09 376.377 C 192.156 376.377 193.085 375.748 193.716 375.176 C 193.414 376.471 192.847 378.004 191.778 379.207 L 196.353 379.207 C 195.284 378.002 194.717 376.467 194.415 375.17 C 195.045 375.744 195.975 376.377 197.044 376.377 C 199.247 376.377 200.789 374.838 200.789 372.637 C 200.789 370.213 198.874 368.644 197.025 367.127 Z " fill="rgb(68,66,71)"/><path d=" M 194.051 379.207 L 194.051 364.633 L 194.05 364.633 C 193.871 364.633 193.699 364.709 193.582 364.848 C 192.888 365.67 191.982 366.412 191.109 367.127 C 189.257 368.642 187.346 370.211 187.346 372.637 C 187.346 374.838 188.884 376.377 191.09 376.377 C 192.156 376.377 193.085 375.748 193.716 375.176 C 193.414 376.471 192.847 378.004 191.778 379.207 L 194.051 379.207 Z " fill="rgb(87,86,90)"/><path d=" M 165.569 386.328 C 164.696 385.611 163.79 384.871 163.097 384.049 C 162.98 383.91 162.807 383.832 162.631 383.832 L 162.594 383.832 C 162.414 383.832 162.242 383.91 162.125 384.049 C 161.432 384.871 160.525 385.611 159.652 386.328 C 157.8 387.842 155.889 389.412 155.889 391.838 C 155.889 394.039 157.427 395.576 159.634 395.576 C 160.7 395.576 161.629 394.949 162.259 394.375 C 161.957 395.672 161.39 397.205 160.321 398.406 L 164.897 398.406 C 163.828 397.203 163.261 395.666 162.958 394.369 C 163.589 394.945 164.519 395.576 165.588 395.576 C 167.791 395.576 169.332 394.039 169.332 391.838 C 169.332 389.414 167.418 387.846 165.569 386.328 Z " fill="rgb(68,66,71)"/><path d=" M 162.594 398.406 L 162.594 383.832 L 162.594 383.832 C 162.414 383.832 162.242 383.91 162.125 384.049 C 161.432 384.871 160.525 385.611 159.652 386.328 C 157.8 387.842 155.889 389.412 155.889 391.838 C 155.889 394.039 157.427 395.576 159.634 395.576 C 160.7 395.576 161.629 394.949 162.259 394.375 C 161.957 395.672 161.39 397.205 160.321 398.406 L 162.594 398.406 Z " fill="rgb(87,86,90)"/><path d=" M 197.025 386.328 C 196.152 385.611 195.246 384.871 194.553 384.049 C 194.437 383.91 194.264 383.832 194.087 383.832 L 194.05 383.832 C 193.871 383.832 193.699 383.91 193.582 384.049 C 192.888 384.871 191.982 385.611 191.109 386.328 C 189.257 387.842 187.346 389.412 187.346 391.838 C 187.346 394.039 188.884 395.576 191.09 395.576 C 192.156 395.576 193.085 394.949 193.716 394.375 C 193.414 395.672 192.847 397.205 191.778 398.406 L 196.353 398.406 C 195.284 397.203 194.717 395.666 194.415 394.369 C 195.045 394.945 195.975 395.576 197.044 395.576 C 199.247 395.576 200.789 394.039 200.789 391.838 C 200.789 389.414 198.874 387.846 197.025 386.328 Z " fill="rgb(68,66,71)"/><path d=" M 194.051 398.406 L 194.051 383.832 L 194.05 383.832 C 193.871 383.832 193.699 383.91 193.582 384.049 C 192.888 384.871 191.982 385.611 191.109 386.328 C 189.257 387.842 187.346 389.412 187.346 391.838 C 187.346 394.039 188.884 395.576 191.09 395.576 C 192.156 395.576 193.085 394.949 193.716 394.375 C 193.414 395.672 192.847 397.205 191.778 398.406 L 194.051 398.406 Z " fill="rgb(87,86,90)"/><path d=" M 165.569 405.529 C 164.696 404.812 163.79 404.07 163.097 403.25 C 162.98 403.109 162.807 403.033 162.631 403.033 L 162.594 403.033 C 162.414 403.033 162.242 403.109 162.125 403.25 C 161.432 404.07 160.525 404.812 159.652 405.529 C 157.8 407.043 155.889 408.611 155.889 411.037 C 155.889 413.24 157.427 414.777 159.634 414.777 C 160.7 414.777 161.629 414.148 162.259 413.576 C 161.957 414.871 161.39 416.406 160.321 417.607 L 164.897 417.607 C 163.828 416.402 163.261 414.867 162.958 413.57 C 163.589 414.146 164.519 414.777 165.588 414.777 C 167.791 414.777 169.332 413.24 169.332 411.037 C 169.332 408.615 167.418 407.047 165.569 405.529 Z " fill="rgb(68,66,71)"/><path d=" M 162.594 417.607 L 162.594 403.033 L 162.594 403.033 C 162.414 403.033 162.242 403.109 162.125 403.25 C 161.432 404.07 160.525 404.812 159.652 405.529 C 157.8 407.043 155.889 408.611 155.889 411.037 C 155.889 413.24 157.427 414.777 159.634 414.777 C 160.7 414.777 161.629 414.148 162.259 413.576 C 161.957 414.871 161.39 416.406 160.321 417.607 L 162.594 417.607 Z " fill="rgb(87,86,90)"/><path d=" M 197.025 405.529 C 196.152 404.812 195.246 404.07 194.553 403.25 C 194.437 403.109 194.264 403.033 194.087 403.033 L 194.05 403.033 C 193.871 403.033 193.699 403.109 193.582 403.25 C 192.888 404.07 191.982 404.812 191.109 405.529 C 189.257 407.043 187.346 408.611 187.346 411.037 C 187.346 413.24 188.884 414.777 191.09 414.777 C 192.156 414.777 193.085 414.148 193.716 413.576 C 193.414 414.871 192.847 416.406 191.778 417.607 L 196.353 417.607 C 195.284 416.402 194.717 414.867 194.415 413.57 C 195.045 414.146 195.975 414.777 197.044 414.777 C 199.247 414.777 200.789 413.24 200.789 411.037 C 200.789 408.615 198.874 407.047 197.025 405.529 Z " fill="rgb(68,66,71)"/><path d=" M 194.051 417.607 L 194.051 403.033 L 194.05 403.033 C 193.871 403.033 193.699 403.109 193.582 403.25 C 192.888 404.07 191.982 404.812 191.109 405.529 C 189.257 407.043 187.346 408.611 187.346 411.037 C 187.346 413.24 188.884 414.777 191.09 414.777 C 192.156 414.777 193.085 414.148 193.716 413.576 C 193.414 414.871 192.847 416.406 191.778 417.607 L 194.051 417.607 Z " fill="rgb(87,86,90)"/><path d=" M 148.881 338.805 L 149.598 338.805 L 149.598 333.321 L 148.965 333.321 L 147.767 333.963 L 147.911 334.528 L 148.864 334.013 L 148.881 334.013 L 148.881 338.805 Z  M 153.436 333.229 C 152.323 333.229 151.521 334.233 151.521 336.08 C 151.538 337.894 152.272 338.898 153.344 338.898 C 154.55 338.898 155.25 337.869 155.25 336.004 C 155.25 334.258 154.584 333.229 153.436 333.229 Z  M 153.386 333.802 C 154.162 333.802 154.499 334.688 154.499 336.038 C 154.499 337.438 154.137 338.324 153.386 338.324 C 152.711 338.324 152.272 337.514 152.272 336.089 C 152.272 334.595 152.745 333.802 153.386 333.802 Z " fill="rgb(68,66,71)"/><path d=" M 207.86 425.066 L 207.143 425.066 L 207.143 430.55 L 207.776 430.55 L 208.974 429.908 L 208.83 429.343 L 207.877 429.858 L 207.86 429.858 L 207.86 425.066 Z  M 203.305 430.642 C 204.418 430.642 205.22 429.638 205.22 427.791 C 205.203 425.977 204.469 424.973 203.397 424.973 C 202.191 424.973 201.491 426.002 201.491 427.867 C 201.491 429.613 202.157 430.642 203.305 430.642 Z  M 203.355 430.069 C 202.579 430.069 202.242 429.183 202.242 427.833 C 202.242 426.433 202.604 425.547 203.355 425.547 C 204.03 425.547 204.469 426.357 204.469 427.782 C 204.469 429.276 203.996 430.069 203.355 430.069 Z " fill="rgb(68,66,71)"/><path d=" M 181.33 358.035 C 180.457 357.32 179.55 356.578 178.857 355.756 C 178.741 355.617 178.568 355.541 178.391 355.541 L 178.355 355.541 C 178.174 355.541 178.003 355.617 177.885 355.756 C 177.192 356.578 176.286 357.32 175.413 358.035 C 173.561 359.551 171.65 361.119 171.65 363.545 C 171.65 365.746 173.188 367.285 175.394 367.285 C 176.461 367.285 177.389 366.656 178.02 366.084 C 177.717 367.379 177.151 368.912 176.082 370.115 L 180.658 370.115 C 179.588 368.91 179.022 367.375 178.718 366.078 C 179.349 366.652 180.279 367.285 181.347 367.285 C 183.55 367.285 185.092 365.746 185.092 363.545 C 185.092 361.121 183.177 359.553 181.33 358.035 Z " fill="rgb(68,66,71)"/><path d=" M 178.355 370.115 L 178.355 355.541 L 178.355 355.541 C 178.174 355.541 178.003 355.617 177.885 355.756 C 177.192 356.578 176.286 357.32 175.413 358.035 C 173.561 359.551 171.65 361.119 171.65 363.545 C 171.65 365.746 173.188 367.285 175.394 367.285 C 176.461 367.285 177.389 366.656 178.02 366.084 C 177.717 367.379 177.151 368.912 176.082 370.115 L 178.355 370.115 Z " fill="rgb(87,86,90)"/><path d=" M 181.33 396.408 C 180.457 395.691 179.55 394.951 178.857 394.129 C 178.741 393.988 178.568 393.912 178.391 393.912 L 178.355 393.912 C 178.174 393.912 178.003 393.988 177.885 394.129 C 177.192 394.951 176.286 395.691 175.413 396.408 C 173.561 397.922 171.65 399.49 171.65 401.916 C 171.65 404.119 173.188 405.656 175.394 405.656 C 176.461 405.656 177.389 405.029 178.02 404.455 C 177.717 405.75 177.151 407.285 176.082 408.486 L 180.658 408.486 C 179.588 407.281 179.022 405.746 178.718 404.449 C 179.349 405.025 180.279 405.656 181.347 405.656 C 183.55 405.656 185.092 404.119 185.092 401.916 C 185.092 399.494 183.177 397.926 181.33 396.408 Z " fill="rgb(68,66,71)"/><path d=" M 178.355 408.486 L 178.355 393.912 L 178.355 393.912 C 178.174 393.912 178.003 393.988 177.885 394.129 C 177.192 394.951 176.286 395.691 175.413 396.408 C 173.561 397.922 171.65 399.49 171.65 401.916 C 171.65 404.119 173.188 405.656 175.394 405.656 C 176.461 405.656 177.389 405.029 178.02 404.455 C 177.717 405.75 177.151 407.285 176.082 408.486 L 178.355 408.486 Z " fill="rgb(87,86,90)"/></g></svg>