<?xml version="1.0" encoding="UTF-8" standalone="no"?><!-- Generator: Gravit.io --><svg xmlns="http://www.w3.org/2000/svg" xmlns:xlink="http://www.w3.org/1999/xlink" style="isolation:isolate" viewBox="700.617 433.717 69.123 103.684" width="69.123pt" height="103.684pt"><g><path d=" M 769.74 534.68 C 769.74 536.182 768.521 537.401 767.018 537.401 L 703.339 537.401 C 701.836 537.401 700.617 536.182 700.617 534.68 L 700.617 436.438 C 700.617 434.936 701.836 433.717 703.339 433.717 L 767.018 433.717 C 768.521 433.717 769.74 434.936 769.74 436.438 L 769.74 534.68 Z " fill="rgb(234,232,232)"/><path d=" M 709.557 447.491 C 709.105 447.122 708.635 446.737 708.277 446.311 C 708.216 446.239 708.128 446.2 708.036 446.2 L 708.017 446.2 C 707.923 446.2 707.834 446.239 707.773 446.311 C 707.415 446.737 706.945 447.122 706.493 447.491 C 705.534 448.276 704.544 449.088 704.544 450.346 C 704.544 451.485 705.34 452.282 706.483 452.282 C 707.035 452.282 707.516 451.958 707.843 451.661 C 707.686 452.331 707.393 453.126 706.84 453.749 L 709.21 453.749 C 708.655 453.126 708.362 452.329 708.205 451.657 C 708.532 451.956 709.014 452.282 709.567 452.282 C 710.708 452.282 711.506 451.485 711.506 450.346 C 711.506 449.09 710.515 448.278 709.557 447.491 Z " fill="rgb(68,66,71)"/><path d=" M 708.017 453.749 L 708.017 446.2 L 708.017 446.2 C 707.923 446.2 707.834 446.239 707.773 446.311 C 707.415 446.737 706.945 447.122 706.493 447.491 C 705.534 448.276 704.544 449.088 704.544 450.346 C 704.544 451.485 705.34 452.282 706.483 452.282 C 707.035 452.282 707.516 451.958 707.843 451.661 C 707.686 452.331 707.393 453.126 706.84 453.749 L 708.017 453.749 Z " fill="rgb(87,86,90)"/><path d=" M 708.33 441.663 C 708.33 443.1 707.84 443.481 706.991 443.481 C 706.664 443.481 706.381 443.416 706.185 443.34 L 706.055 444.113 C 706.283 444.211 706.708 444.287 707.067 444.287 C 708.33 444.287 709.288 443.688 709.288 441.74 L 709.288 436.83 L 708.33 436.83 L 708.33 441.663 Z " fill="rgb(68,66,71)"/><path d=" M 760.798 523.626 C 761.251 523.997 761.721 524.381 762.079 524.807 C 762.139 524.879 762.229 524.919 762.321 524.919 L 762.34 524.919 C 762.433 524.919 762.522 524.879 762.583 524.807 C 762.942 524.381 763.411 523.997 763.864 523.626 C 764.822 522.842 765.812 522.03 765.812 520.772 C 765.812 519.633 765.016 518.837 763.873 518.837 C 763.321 518.837 762.84 519.161 762.512 519.458 C 762.671 518.788 762.964 517.993 763.517 517.37 L 761.147 517.37 C 761.701 517.993 761.994 518.79 762.151 519.462 C 761.825 519.163 761.342 518.837 760.79 518.837 C 759.648 518.837 758.849 519.633 758.849 520.772 C 758.849 522.028 759.841 522.84 760.798 523.626 Z " fill="rgb(68,66,71)"/><path d=" M 762.34 517.37 L 762.34 524.919 L 762.34 524.919 C 762.433 524.919 762.522 524.879 762.583 524.807 C 762.942 524.381 763.411 523.997 763.864 523.626 C 764.822 522.842 765.812 522.03 765.812 520.772 C 765.812 519.633 765.016 518.837 763.873 518.837 C 763.321 518.837 762.84 519.161 762.512 519.458 C 762.671 518.788 762.964 517.993 763.517 517.37 L 762.34 517.37 Z " fill="rgb(87,86,90)"/><path d=" M 762.026 529.454 C 762.026 528.017 762.516 527.636 763.365 527.636 C 763.692 527.636 763.975 527.701 764.171 527.777 L 764.301 527.004 C 764.073 526.906 763.648 526.83 763.289 526.83 C 762.026 526.83 761.068 527.429 761.068 529.377 L 761.068 534.287 L 762.026 534.287 L 762.026 529.454 Z " fill="rgb(68,66,71)"/><path d=" M 750.721 507.225 C 750.721 507.225 754.445 505.879 757.913 502.114 L 757.913 497.504 L 750.721 497.504 L 750.721 507.225 Z " fill="rgb(68,66,71)"/><path d=" M 747.764 450.399 L 751.623 445.393 C 751.623 445.393 744.097 440.399 742.58 440.311 C 741.061 440.223 723.907 445.53 723.907 445.53 L 727.78 451.719 L 747.764 450.399 Z " fill="rgb(68,66,71)"/><path d=" M 727.78 444.348 C 727.78 444.348 729.906 451.151 730.456 451.602 C 731.006 452.053 733.804 450.768 733.804 450.768 C 733.804 450.768 731.646 448.631 730.581 443.508 L 727.78 444.348 Z " fill="rgb(166,64,69)"/><path d=" M 757.913 495.213 L 757.913 469.344 C 757.913 469.344 754.661 465.2 748.134 464.585 C 748.134 464.585 748.013 490.788 757.913 495.213 Z " fill="rgb(68,66,71)"/><path d=" M 738.821 466.006 L 735.493 466.006 L 735.493 472.116 L 738.821 472.116 L 738.821 466.006 Z " fill="rgb(48,44,50)"/><path d=" M 745.494 463.897 L 742.165 463.897 L 742.165 470.006 L 745.494 470.006 L 745.494 463.897 Z " fill="rgb(48,44,50)"/><path d=" M 735.467 463.579 L 732.14 463.579 L 732.14 469.688 L 735.467 469.688 L 735.467 463.579 Z " fill="rgb(166,64,69)"/><path d=" M 742.149 465.573 L 738.821 465.573 L 738.821 471.682 L 742.149 471.682 L 742.149 465.573 Z " fill="rgb(166,64,69)"/><path d=" M 732.245 461.739 L 728.917 461.739 L 728.917 467.848 L 732.245 467.848 L 732.245 461.739 Z " fill="rgb(48,44,50)"/><path d=" M 728.892 461.616 L 725.564 461.616 L 725.564 465.42 L 728.892 465.42 L 728.892 461.616 Z " fill="rgb(166,64,69)"/><path d=" M 745.465 461.727 L 744.704 464.448 L 747.262 464.585 L 745.465 461.727 Z " fill="rgb(167,111,73)"/><path d=" M 749.026 464.684 C 749.026 464.684 747.861 481.797 757.913 495.213 C 757.901 496.395 757.894 496.995 757.894 496.995 C 757.894 496.995 751.978 494.213 748.612 482.489 C 745.247 470.764 746.772 464.684 746.772 464.684 L 749.026 464.684 Z " fill="rgb(48,44,50)"/><path d=" M 747.489 465.065 C 747.489 465.065 747.18 476.327 749.96 483.075 C 752.739 489.823 754.673 494.424 757.913 496.965 L 757.913 502.114 C 757.913 502.114 748.781 493.286 745.787 483.338 C 742.793 473.393 743.352 464.694 743.352 464.694 L 747.489 465.065 Z " fill="rgb(69,68,116)"/><path d=" M 747.657 464.768 C 747.657 465.19 746.8 465.532 745.743 465.532 C 744.686 465.532 743.829 465.19 743.829 464.768 C 743.829 464.344 744.686 464.003 745.743 464.003 C 746.8 464.003 747.657 464.344 747.657 464.768 Z " fill="rgb(166,64,69)"/><path d=" M 747.516 466.45 C 747.538 466.864 746.717 467.243 745.684 467.297 C 744.649 467.35 743.794 467.061 743.772 466.647 C 743.75 466.235 744.571 465.856 745.605 465.801 C 746.638 465.747 747.494 466.038 747.516 466.45 Z " fill="rgb(166,64,69)"/><path d=" M 747.487 468.385 C 747.53 468.79 746.747 469.206 745.735 469.313 C 744.725 469.422 743.87 469.184 743.827 468.78 C 743.783 468.376 744.567 467.962 745.578 467.852 C 746.589 467.743 747.443 467.981 747.487 468.385 Z " fill="rgb(166,64,69)"/><path d=" M 747.575 470.534 C 747.64 470.928 746.892 471.381 745.904 471.545 C 744.918 471.708 744.064 471.52 743.999 471.126 C 743.933 470.731 744.68 470.278 745.669 470.116 C 746.656 469.952 747.509 470.139 747.575 470.534 Z " fill="rgb(166,64,69)"/><path d=" M 747.786 472.856 C 747.872 473.241 747.161 473.729 746.197 473.948 C 745.232 474.167 744.38 474.03 744.294 473.645 C 744.206 473.26 744.918 472.77 745.881 472.553 C 746.846 472.335 747.698 472.471 747.786 472.856 Z " fill="rgb(166,64,69)"/><path d=" M 748.124 475.311 C 748.232 475.686 747.558 476.212 746.616 476.485 C 745.675 476.756 744.824 476.672 744.715 476.297 C 744.606 475.92 745.282 475.395 746.222 475.122 C 747.164 474.85 748.014 474.934 748.124 475.311 Z " fill="rgb(166,64,69)"/><path d=" M 748.594 477.858 C 748.725 478.225 748.088 478.788 747.17 479.114 C 746.252 479.44 745.401 479.409 745.271 479.042 C 745.14 478.674 745.779 478.112 746.697 477.786 C 747.615 477.46 748.465 477.493 748.594 477.858 Z " fill="rgb(166,64,69)"/><path d=" M 749.206 480.46 C 749.358 480.817 748.756 481.417 747.861 481.797 C 746.966 482.178 746.118 482.198 745.965 481.84 C 745.813 481.483 746.415 480.883 747.309 480.503 C 748.204 480.122 749.053 480.102 749.206 480.46 Z " fill="rgb(166,64,69)"/><path d=" M 749.96 483.075 C 750.133 483.424 749.568 484.059 748.696 484.495 C 747.825 484.93 746.977 485.003 746.803 484.653 C 746.63 484.305 747.195 483.669 748.067 483.233 C 748.938 482.799 749.786 482.727 749.96 483.075 Z " fill="rgb(166,64,69)"/><path d=" M 750.862 485.665 C 751.058 486.004 750.529 486.676 749.68 487.167 C 748.833 487.657 747.986 487.78 747.79 487.44 C 747.594 487.1 748.124 486.428 748.971 485.938 C 749.821 485.45 750.667 485.327 750.862 485.665 Z " fill="rgb(166,64,69)"/><path d=" M 751.921 488.188 C 752.138 488.518 751.646 489.227 750.82 489.772 C 749.995 490.315 749.15 490.491 748.932 490.161 C 748.715 489.831 749.208 489.122 750.032 488.577 C 750.858 488.034 751.703 487.858 751.921 488.188 Z " fill="rgb(166,64,69)"/><path d=" M 753.137 490.606 C 753.377 490.926 752.921 491.672 752.119 492.27 C 751.317 492.87 750.473 493.096 750.233 492.776 C 749.994 492.456 750.451 491.71 751.252 491.11 C 752.054 490.512 752.899 490.286 753.137 490.606 Z " fill="rgb(166,64,69)"/><path d=" M 754.52 492.878 C 754.781 493.19 754.362 493.971 753.584 494.624 C 752.804 495.278 751.961 495.555 751.7 495.245 C 751.439 494.932 751.858 494.151 752.637 493.499 C 753.417 492.844 754.259 492.567 754.52 492.878 Z " fill="rgb(166,64,69)"/><path d=" M 756.073 494.965 C 756.356 495.266 755.973 496.085 755.217 496.794 C 754.462 497.501 753.62 497.829 753.338 497.528 C 753.054 497.225 753.437 496.407 754.193 495.7 C 754.949 494.991 755.791 494.663 756.073 494.965 Z " fill="rgb(166,64,69)"/><path d=" M 757.801 496.825 C 758.106 497.118 757.76 497.973 757.028 498.735 C 756.296 499.499 755.455 499.879 755.15 499.587 C 754.845 499.294 755.192 498.438 755.924 497.676 C 756.657 496.915 757.498 496.534 757.801 496.825 Z " fill="rgb(166,64,69)"/><path d=" M 738.596 479.659 L 733.306 479.659 L 733.306 473.807 L 738.596 473.807 L 738.596 479.659 Z " fill="rgb(73,93,167)"/><path d=" M 733.534 479.411 L 738.596 479.411 L 738.596 484.719 L 733.534 479.411 Z " fill="rgb(183,151,91)"/><path d=" M 733.351 478.962 L 738.686 478.962 L 738.686 474.618 L 733.351 474.618 L 733.351 478.962 Z " fill="rgb(183,151,91)"/><path d=" M 733.351 474.235 L 738.596 474.235 L 738.596 472.817 L 733.351 469.641 L 733.351 474.235 Z " fill="rgb(183,151,91)"/><path d=" M 739.619 485.227 L 739.416 472.911 L 743.756 470.458 C 743.756 470.458 744.61 480.657 745.64 482.489 C 746.672 484.321 739.619 485.227 739.619 485.227 Z " fill="rgb(68,66,71)"/><path d=" M 739.694 485.264 L 738.405 484.626 L 738.405 472.02 L 739.694 472.02 L 739.694 485.264 Z " fill="rgb(218,226,242)"/><path d=" M 740.11 485.747 L 738.821 485.108 L 738.821 472.503 L 740.11 472.503 L 740.11 485.747 Z " fill="rgb(48,44,50)"/><path d=" M 748.544 490.02 C 748.106 488.917 747.365 487.895 746.817 486.84 C 745.926 485.124 745.291 483.305 745 481.413 C 744.973 481.413 744.947 481.411 744.92 481.411 C 742.253 481.411 739.971 483.063 739.041 485.399 C 739.238 485.622 739.43 485.852 739.676 486.061 C 740.12 486.434 740.641 486.729 741.104 487.083 C 742.225 487.942 743.084 489.128 744.339 489.803 C 745.285 490.311 746.291 490.665 747.298 491.03 C 747.73 491.186 748.169 491.344 748.618 491.448 C 748.754 491.428 748.889 491.407 749.026 491.389 C 748.86 490.926 748.717 490.458 748.544 490.02 Z " fill="rgb(48,44,50)"/><path d=" M 748.544 490.02 C 748.106 488.917 747.365 487.895 746.817 486.84 C 746.006 485.276 745.405 483.626 745.085 481.913 C 745.03 481.911 744.975 481.907 744.92 481.907 C 742.375 481.907 740.212 483.54 739.416 485.813 C 739.498 485.897 739.582 485.981 739.676 486.061 C 740.12 486.434 740.641 486.729 741.104 487.083 C 742.225 487.942 743.084 489.128 744.339 489.803 C 745.285 490.311 746.291 490.665 747.298 491.03 C 747.73 491.186 748.169 491.344 748.618 491.448 C 748.754 491.428 748.89 491.407 749.026 491.389 C 748.86 490.928 748.717 490.458 748.544 490.02 Z " fill="rgb(183,151,91)"/><path d=" M 746.817 486.84 C 746.461 486.153 746.145 485.448 745.877 484.729 C 745.575 484.633 745.254 484.581 744.92 484.581 C 743.208 484.581 741.816 485.944 741.765 487.645 C 742.593 488.407 743.34 489.266 744.339 489.803 C 744.94 490.126 745.566 490.387 746.201 490.628 C 747.006 490.27 747.631 489.587 747.914 488.747 C 747.551 488.106 747.149 487.479 746.817 486.84 Z " fill="rgb(73,93,167)"/><path d=" M 727.07 475.28 L 732.249 478.268 L 732.511 468.628 L 727.07 465.629 L 727.07 475.28 Z " fill="rgb(68,66,71)"/><path d=" M 733.534 478.819 L 732.245 478.819 L 732.245 469.061 L 733.534 469.061 L 733.534 478.819 Z " fill="rgb(218,226,242)"/><path d=" M 722.142 462.698 C 722.142 462.698 724.37 461.446 726.669 461.124 L 726.946 475.106 C 726.946 475.106 723.42 473.797 721.835 473.858 L 722.142 462.698 Z " fill="rgb(185,200,230)"/><path d=" M 722.142 462.698 L 721.34 463.001 L 721.34 473.76 L 722.142 473.76 L 722.142 462.698 Z " fill="rgb(117,98,98)"/><path d=" M 721.34 463.001 C 721.34 463.001 720.151 463.497 719.636 463.893 L 719.636 473.614 L 721.34 473.614 L 721.34 463.001 Z " fill="rgb(48,44,50)"/><path d=" M 719.636 463.893 C 719.636 463.893 715.912 465.239 712.444 469.003 L 712.444 473.614 L 719.636 473.614 L 719.636 463.893 Z " fill="rgb(68,66,71)"/><path d=" M 733.056 478.385 L 731.766 478.385 L 731.766 468.628 L 733.056 468.628 L 733.056 478.385 Z " fill="rgb(48,44,50)"/><path d=" M 727.471 461.124 L 726.669 461.124 L 726.669 474.838 L 727.471 474.838 L 727.471 461.124 Z " fill="rgb(117,98,98)"/><path d=" M 747.977 491.622 C 747.493 491.622 746.863 491.526 746.071 491.225 C 743.449 490.231 740.243 487.497 736.542 483.094 C 732.085 477.795 727.703 475.688 724.811 474.854 C 721.684 473.952 718.131 474.12 718.109 474.124 L 717.956 473.26 C 718.048 473.245 721.69 473.053 724.997 473.995 C 728.019 474.856 732.591 477.038 737.213 482.532 C 745.527 492.419 748.697 490.618 748.728 490.598 L 749.223 491.321 C 749.16 491.366 748.763 491.622 747.977 491.622 Z " fill="rgb(164,121,83)"/><path d=" M 727.471 465.075 C 727.471 465.075 738.186 472.063 739.198 472.063 C 740.209 472.063 743.245 469.936 743.245 469.936 L 743.245 471.172 C 743.245 471.172 739.585 473.614 739.108 473.614 C 738.632 473.614 727.471 466.379 727.471 466.379 L 727.471 465.075 Z " fill="rgb(218,226,242)"/><path d=" M 728.669 461.727 C 728.669 461.727 737.724 468.383 739.009 468.383 C 740.295 468.383 744.022 465.055 744.022 465.055 L 728.669 461.727 Z " fill="rgb(183,151,91)"/><path d=" M 727.471 464.227 C 727.471 464.227 738.186 471.333 739.198 471.333 C 740.209 471.333 743.245 468.938 743.245 468.938 L 743.245 470.135 C 743.245 470.135 739.585 472.503 739.108 472.503 C 738.632 472.503 727.471 465.491 727.471 465.491 L 727.471 464.227 Z " fill="rgb(183,151,91)"/><path d=" M 742.954 465.547 C 742.954 465.547 742.927 476.852 745.573 484.311 C 748.217 491.768 754.874 502.256 756.831 503.208 L 757.913 502.114 C 757.913 502.114 753.228 498.253 746.525 483.76 C 744.78 476.588 744.72 479.69 743.877 465.075 C 743.034 450.46 742.954 465.547 742.954 465.547 Z " fill="rgb(164,121,83)"/><path d=" M 734.622 464.227 C 734.622 464.227 738.325 466.952 739.113 466.952 C 739.9 466.952 741.58 465.419 741.58 465.419 C 741.58 465.419 736.452 462.001 735.044 462.483 C 733.634 462.963 734.622 464.227 734.622 464.227 Z " fill="rgb(206,214,231)"/><path d=" M 744.936 450.868 C 744.936 450.868 746.684 452.61 746.238 457.139 C 745.792 461.67 745.415 466.206 748.728 464.823 C 752.042 463.438 749.177 459.909 747.178 461.77 C 747.178 461.77 747.189 459.538 747.478 456.598 C 747.768 453.659 747.556 450.846 744.936 450.868 Z " fill="rgb(202,131,78)"/><path d=" M 746.687 451.602 C 746.687 451.602 747.173 454.327 746.687 454.881 C 746.201 455.438 746.653 456.299 746.687 456.963 C 746.722 457.628 747.417 463.221 743.595 465.237 C 739.773 467.251 740.086 464.467 735.395 462.698 C 735.395 462.698 734.666 451.79 737.862 450.885 C 737.862 450.885 744.22 450.338 746.687 451.602 Z " fill="rgb(218,226,242)"/><path d=" M 731.076 452.301 C 731.076 452.301 729.836 453.317 729.836 456.272 C 729.836 459.225 728.304 462.315 726.252 461.21 C 724.199 460.104 726.274 458.006 727.447 459.337 C 727.447 459.337 727.583 457.893 727.583 455.977 C 727.583 454.059 728.654 451.825 731.076 452.301 Z " fill="rgb(163,109,72)"/><path d=" M 732.254 451.616 C 732.254 451.616 730.819 452.79 730.819 456.21 C 730.819 459.628 730.048 463.215 727.673 461.936 C 725.298 460.657 727.7 458.231 729.056 459.77 C 729.056 459.77 729.214 458.1 729.214 455.881 C 729.214 453.665 730.297 451.407 732.254 451.616 Z " fill="rgb(167,111,73)"/><path d=" M 733.804 451.245 C 733.804 451.245 732.443 453.647 732.443 457.325 C 732.443 461.001 731.417 463.708 728.862 462.333 C 726.307 460.958 728.889 458.346 730.349 460.003 C 730.349 460.003 730.518 458.206 730.518 455.821 C 730.518 453.434 731.699 451.018 733.804 451.245 Z " fill="rgb(172,114,74)"/><path d=" M 735.044 451.059 C 735.044 451.059 734.075 452.692 734.075 456.794 C 734.075 460.893 733.26 464.77 730.411 463.237 C 727.562 461.704 730.442 458.792 732.07 460.639 C 732.07 460.639 732.258 458.635 732.258 455.975 C 732.258 453.313 732.696 450.809 735.044 451.059 Z " fill="rgb(177,117,75)"/><path d=" M 736.686 450.881 C 736.686 450.881 734.848 452.385 734.848 456.76 C 734.848 461.135 734.783 465.512 731.743 463.876 C 728.703 462.239 731.776 459.131 733.512 461.102 C 733.512 461.102 733.714 458.965 733.714 456.126 C 733.714 453.286 734.181 450.614 736.686 450.881 Z " fill="rgb(182,120,76)"/><path d=" M 737.862 450.885 C 737.862 450.885 735.951 452.45 735.951 457.001 C 735.951 461.553 735.881 466.104 732.72 464.403 C 729.558 462.7 732.755 459.467 734.561 461.518 C 734.561 461.518 734.769 459.295 734.769 456.34 C 734.769 453.387 735.256 450.608 737.862 450.885 Z " fill="rgb(202,131,78)"/><path d=" M 728.229 453.52 C 728.229 453.52 735.405 449.561 747.074 452.083 L 747.764 450.399 C 747.764 450.399 738.719 446.856 727.78 451.719 L 728.229 453.52 Z " fill="rgb(68,66,71)"/><path d=" M 743.763 454.482 C 743.763 454.482 744.494 454.187 745.301 454.179 C 745.502 454.166 745.708 454.199 745.9 454.219 C 746.087 454.284 746.249 454.381 746.383 454.455 C 746.612 454.694 746.701 454.87 746.701 454.87 L 746.673 454.893 C 746.673 454.893 746.465 454.822 746.246 454.697 C 746.11 454.666 745.963 454.628 745.809 454.573 C 745.643 454.547 745.472 454.477 745.287 454.459 C 745.101 454.446 744.915 454.42 744.737 454.432 C 744.559 454.434 744.392 454.44 744.25 454.455 C 743.964 454.477 743.773 454.515 743.773 454.515 L 743.763 454.482 Z " fill="rgb(202,131,78)"/><path d=" M 740.567 454.515 C 740.567 454.515 740.377 454.477 740.09 454.455 C 739.948 454.44 739.781 454.434 739.603 454.432 C 739.425 454.42 739.239 454.446 739.053 454.459 C 738.869 454.477 738.698 454.547 738.532 454.573 C 738.379 454.628 738.231 454.666 738.095 454.697 C 737.876 454.822 737.668 454.893 737.668 454.893 L 737.64 454.87 C 737.64 454.87 737.729 454.694 737.958 454.455 C 738.091 454.381 738.254 454.284 738.441 454.219 C 738.632 454.199 738.839 454.166 739.039 454.179 C 739.847 454.187 740.577 454.482 740.577 454.482 L 740.567 454.515 Z " fill="rgb(202,131,78)"/><path d=" M 741.591 455.834 C 741.591 455.834 741.425 456.024 741.104 456.227 C 740.94 456.317 740.745 456.436 740.515 456.502 C 740.287 456.572 740.039 456.645 739.78 456.651 C 739.522 456.695 739.264 456.684 739.024 456.642 C 738.781 456.613 738.568 456.54 738.399 456.443 C 738.054 456.268 737.854 456.114 737.854 456.114 L 737.87 456.083 C 737.87 456.083 738.133 456.098 738.484 456.178 C 738.656 456.237 738.863 456.257 739.083 456.282 C 739.298 456.333 739.53 456.381 739.767 456.371 C 740.006 456.392 740.239 456.348 740.46 456.306 C 740.574 456.295 740.673 456.25 740.771 456.218 C 740.867 456.183 740.966 456.162 741.046 456.119 C 741.379 455.969 741.568 455.808 741.568 455.808 L 741.591 455.834 Z " fill="rgb(69,71,97)"/><path d=" M 743.884 455.808 C 743.884 455.808 744.026 455.918 744.268 456.017 C 744.387 456.068 744.534 456.112 744.687 456.153 C 744.845 456.176 745.008 456.224 745.179 456.208 C 745.347 456.212 745.511 456.194 745.664 456.155 C 745.816 456.137 745.965 456.147 746.09 456.11 C 746.34 456.071 746.541 456.083 746.541 456.083 L 746.554 456.114 C 746.554 456.114 746.419 456.242 746.168 456.378 C 746.045 456.453 745.884 456.497 745.707 456.517 C 745.529 456.547 745.34 456.524 745.153 456.487 C 744.965 456.475 744.79 456.397 744.625 456.346 C 744.465 456.28 744.322 456.202 744.209 456.125 C 743.98 455.972 743.861 455.835 743.861 455.834 L 743.884 455.808 Z " fill="rgb(69,71,97)"/><path d=" M 743.23 455.266 C 743.23 455.266 743.194 455.779 743.26 456.542 C 743.294 456.922 743.361 457.363 743.471 457.823 C 743.528 458.052 743.622 458.277 743.697 458.51 C 743.815 458.731 743.935 458.956 744.056 459.179 C 744.123 459.272 744.164 459.449 744.17 459.619 L 744.113 459.858 C 744.074 459.926 744.029 459.992 743.984 460.057 C 743.776 460.286 743.508 460.395 743.256 460.463 C 742.998 460.51 742.744 460.532 742.507 460.489 C 742.273 460.451 742.051 460.387 741.871 460.276 C 741.687 460.178 741.537 460.036 741.451 459.888 C 741.341 459.753 741.32 459.599 741.288 459.486 C 741.272 459.25 741.284 459.122 741.284 459.122 L 741.319 459.122 C 741.319 459.122 741.34 459.253 741.405 459.455 C 741.463 459.545 741.501 459.669 741.609 459.765 C 741.695 459.876 741.839 459.961 741.997 460.028 C 742.15 460.105 742.344 460.141 742.545 460.154 C 742.746 460.169 742.962 460.155 743.173 460.108 C 743.384 460.06 743.592 459.973 743.738 459.837 C 743.882 459.68 743.914 459.537 743.801 459.297 C 743.691 459.064 743.581 458.83 743.472 458.6 C 743.405 458.35 743.32 458.108 743.273 457.869 C 743.18 457.388 743.145 456.935 743.138 456.548 C 743.124 455.774 743.195 455.262 743.195 455.262 L 743.23 455.266 Z " fill="rgb(69,71,97)"/><path d=" M 740.294 461.71 C 740.294 461.71 741.336 461.632 742.379 461.587 C 742.9 461.542 743.422 461.528 743.812 461.588 C 744.203 461.633 744.464 461.71 744.464 461.71 L 744.464 461.745 C 744.464 461.745 744.203 461.821 743.812 461.866 C 743.422 461.926 742.9 461.913 742.379 461.868 C 741.336 461.822 740.294 461.745 740.294 461.745 L 740.294 461.71 Z " fill="rgb(69,71,97)"/><path d=" M 741.858 462.68 C 741.858 462.68 742.232 462.603 742.605 462.557 C 742.792 462.512 742.978 462.499 743.119 462.559 C 743.258 462.604 743.352 462.68 743.352 462.68 L 743.352 462.715 C 743.352 462.715 743.258 462.792 743.119 462.837 C 742.978 462.897 742.792 462.883 742.605 462.838 C 742.232 462.793 741.858 462.715 741.858 462.715 L 741.858 462.68 Z " fill="rgb(69,71,97)"/><path d=" M 722.592 520.719 L 718.735 525.725 C 718.735 525.725 726.259 530.719 727.777 530.807 C 729.296 530.895 746.45 525.588 746.45 525.588 L 742.577 519.399 L 722.592 520.719 Z " fill="rgb(68,66,71)"/><path d=" M 742.577 526.77 C 742.577 526.77 740.452 519.967 739.901 519.516 C 739.351 519.065 736.552 520.35 736.552 520.35 C 736.552 520.35 738.711 522.487 739.776 527.612 L 742.577 526.77 Z " fill="rgb(166,64,69)"/><path d=" M 712.444 475.905 L 712.444 501.774 C 712.444 501.774 715.696 505.92 722.221 506.532 C 722.221 506.532 722.343 480.331 712.444 475.905 Z " fill="rgb(68,66,71)"/><path d=" M 731.536 505.112 L 734.864 505.112 L 734.864 499.003 L 731.536 499.003 L 731.536 505.112 Z " fill="rgb(48,44,50)"/><path d=" M 724.864 507.221 L 728.192 507.221 L 728.192 501.112 L 724.864 501.112 L 724.864 507.221 Z " fill="rgb(48,44,50)"/><path d=" M 734.889 507.54 L 738.217 507.54 L 738.217 501.43 L 734.889 501.43 L 734.889 507.54 Z " fill="rgb(166,64,69)"/><path d=" M 728.208 505.545 L 731.536 505.545 L 731.536 499.438 L 728.208 499.438 L 728.208 505.545 Z " fill="rgb(166,64,69)"/><path d=" M 738.112 509.379 L 741.44 509.379 L 741.44 503.27 L 738.112 503.27 L 738.112 509.379 Z " fill="rgb(48,44,50)"/><path d=" M 741.465 509.503 L 744.793 509.503 L 744.793 505.698 L 741.465 505.698 L 741.465 509.503 Z " fill="rgb(166,64,69)"/><path d=" M 724.892 509.393 L 725.653 506.67 L 723.095 506.532 L 724.892 509.393 Z " fill="rgb(167,111,73)"/><path d=" M 721.331 506.434 C 721.331 506.434 722.496 489.321 712.444 475.905 C 712.456 474.723 712.463 474.124 712.463 474.124 C 712.463 474.124 718.379 476.905 721.745 488.629 C 725.111 500.354 723.586 506.434 723.586 506.434 L 721.331 506.434 Z " fill="rgb(48,44,50)"/><path d=" M 722.868 506.053 C 722.868 506.053 723.177 494.792 720.398 488.044 C 717.618 481.294 715.683 476.694 712.444 474.153 L 712.444 469.003 C 712.444 469.003 717.442 470.018 724.57 487.78 C 727.565 497.725 727.005 506.424 727.005 506.424 L 722.868 506.053 Z " fill="rgb(69,68,116)"/><path d=" M 722.7 506.352 C 722.7 505.928 723.556 505.587 724.614 505.587 C 725.671 505.587 726.528 505.928 726.528 506.352 C 726.528 506.774 725.671 507.116 724.614 507.116 C 723.556 507.116 722.7 506.774 722.7 506.352 Z " fill="rgb(166,64,69)"/><path d=" M 722.841 504.669 C 722.819 504.254 723.639 503.876 724.673 503.823 C 725.708 503.768 726.563 504.057 726.585 504.471 C 726.607 504.883 725.786 505.264 724.753 505.317 C 723.718 505.372 722.862 505.083 722.841 504.669 Z " fill="rgb(166,64,69)"/><path d=" M 722.87 502.733 C 722.826 502.329 723.611 501.913 724.622 501.805 C 725.632 501.696 726.487 501.934 726.53 502.338 C 726.574 502.743 725.79 503.159 724.779 503.266 C 723.768 503.376 722.914 503.137 722.87 502.733 Z " fill="rgb(166,64,69)"/><path d=" M 722.782 500.585 C 722.717 500.19 723.465 499.737 724.452 499.575 C 725.44 499.411 726.294 499.598 726.359 499.993 C 726.423 500.387 725.676 500.84 724.688 501.003 C 723.701 501.167 722.847 500.979 722.782 500.585 Z " fill="rgb(166,64,69)"/><path d=" M 722.572 498.262 C 722.485 497.878 723.196 497.389 724.161 497.17 C 725.125 496.954 725.977 497.088 726.064 497.473 C 726.151 497.86 725.44 498.348 724.475 498.567 C 723.51 498.784 722.659 498.649 722.572 498.262 Z " fill="rgb(166,64,69)"/><path d=" M 722.233 495.809 C 722.125 495.432 722.799 494.907 723.741 494.633 C 724.681 494.362 725.533 494.446 725.641 494.823 C 725.751 495.198 725.076 495.723 724.134 495.997 C 723.193 496.268 722.342 496.184 722.233 495.809 Z " fill="rgb(166,64,69)"/><path d=" M 721.762 493.26 C 721.631 492.893 722.27 492.331 723.188 492.004 C 724.105 491.678 724.956 491.71 725.086 492.077 C 725.216 492.444 724.578 493.006 723.661 493.333 C 722.742 493.659 721.892 493.628 721.762 493.26 Z " fill="rgb(166,64,69)"/><path d=" M 721.151 490.659 C 721 490.301 721.601 489.702 722.496 489.321 C 723.39 488.94 724.24 488.92 724.391 489.278 C 724.544 489.635 723.942 490.235 723.048 490.616 C 722.153 490.997 721.303 491.016 721.151 490.659 Z " fill="rgb(166,64,69)"/><path d=" M 720.398 488.044 C 720.223 487.694 720.789 487.059 721.661 486.624 C 722.532 486.188 723.38 486.118 723.553 486.465 C 723.727 486.813 723.162 487.45 722.291 487.885 C 721.42 488.321 720.571 488.391 720.398 488.044 Z " fill="rgb(166,64,69)"/><path d=" M 719.495 485.454 C 719.298 485.114 719.828 484.442 720.676 483.952 C 721.524 483.462 722.371 483.34 722.566 483.678 C 722.762 484.018 722.233 484.69 721.385 485.18 C 720.537 485.67 719.69 485.792 719.495 485.454 Z " fill="rgb(166,64,69)"/><path d=" M 718.436 482.93 C 718.219 482.6 718.712 481.891 719.537 481.346 C 720.362 480.803 721.208 480.628 721.424 480.958 C 721.642 481.288 721.15 481.997 720.324 482.542 C 719.5 483.087 718.654 483.26 718.436 482.93 Z " fill="rgb(166,64,69)"/><path d=" M 717.219 480.512 C 716.98 480.192 717.436 479.446 718.239 478.848 C 719.04 478.249 719.884 478.022 720.124 478.344 C 720.363 478.665 719.907 479.409 719.105 480.008 C 718.303 480.608 717.459 480.833 717.219 480.512 Z " fill="rgb(166,64,69)"/><path d=" M 715.837 478.241 C 715.576 477.93 715.995 477.147 716.774 476.493 C 717.553 475.84 718.396 475.563 718.657 475.874 C 718.918 476.186 718.498 476.967 717.719 477.622 C 716.941 478.274 716.097 478.551 715.837 478.241 Z " fill="rgb(166,64,69)"/><path d=" M 714.284 476.155 C 714.001 475.852 714.384 475.034 715.14 474.325 C 715.895 473.618 716.737 473.288 717.02 473.59 C 717.302 473.893 716.92 474.712 716.164 475.419 C 715.408 476.128 714.566 476.456 714.284 476.155 Z " fill="rgb(166,64,69)"/><path d=" M 712.555 474.294 C 712.251 474.001 712.597 473.145 713.33 472.383 C 714.062 471.622 714.902 471.239 715.208 471.532 C 715.512 471.825 715.165 472.68 714.433 473.442 C 713.701 474.206 712.86 474.587 712.555 474.294 Z " fill="rgb(166,64,69)"/><path d=" M 731.761 491.46 L 737.05 491.46 L 737.05 497.313 L 731.761 497.313 L 731.761 491.46 Z " fill="rgb(73,93,167)"/><path d=" M 736.823 491.708 L 731.761 491.708 L 731.761 486.399 L 736.823 491.708 Z " fill="rgb(183,151,91)"/><path d=" M 737.006 492.157 L 731.671 492.157 L 731.671 496.503 L 737.006 496.503 L 737.006 492.157 Z " fill="rgb(183,151,91)"/><path d=" M 737.006 496.885 L 731.761 496.885 L 731.761 498.303 L 737.006 501.477 L 737.006 496.885 Z " fill="rgb(183,151,91)"/><path d=" M 730.739 485.891 L 730.942 498.208 L 726.6 500.661 C 726.6 500.661 725.748 490.462 724.716 488.629 C 723.685 486.797 730.739 485.891 730.739 485.891 Z " fill="rgb(68,66,71)"/><path d=" M 730.663 485.854 L 731.953 486.493 L 731.953 499.098 L 730.663 499.098 L 730.663 485.854 Z " fill="rgb(218,226,242)"/><path d=" M 730.247 485.372 L 731.536 486.01 L 731.536 498.616 L 730.247 498.616 L 730.247 485.372 Z " fill="rgb(48,44,50)"/><path d=" M 721.813 481.098 C 722.251 482.202 722.992 483.223 723.54 484.278 C 724.43 485.995 725.066 487.813 725.357 489.706 C 725.383 489.706 725.41 489.708 725.437 489.708 C 728.105 489.708 730.385 488.055 731.317 485.719 C 731.119 485.495 730.926 485.266 730.68 485.057 C 730.238 484.684 729.715 484.391 729.254 484.036 C 728.131 483.176 727.273 481.991 726.018 481.315 C 725.073 480.807 724.066 480.454 723.059 480.088 C 722.627 479.932 722.188 479.776 721.739 479.67 C 721.603 479.69 721.467 479.712 721.331 479.729 C 721.497 480.19 721.639 480.661 721.813 481.098 Z " fill="rgb(48,44,50)"/><path d=" M 721.813 481.098 C 722.251 482.202 722.992 483.223 723.54 484.278 C 724.351 485.844 724.952 487.493 725.272 489.206 C 725.327 489.208 725.381 489.212 725.437 489.212 C 727.982 489.212 730.145 487.581 730.942 485.305 C 730.86 485.221 730.775 485.137 730.68 485.057 C 730.238 484.684 729.715 484.391 729.254 484.036 C 728.131 483.176 727.273 481.991 726.018 481.315 C 725.073 480.807 724.066 480.454 723.059 480.088 C 722.627 479.932 722.188 479.776 721.739 479.67 C 721.603 479.69 721.467 479.712 721.331 479.729 C 721.497 480.19 721.639 480.661 721.813 481.098 Z " fill="rgb(183,151,91)"/><path d=" M 723.54 484.278 C 723.897 484.965 724.212 485.67 724.481 486.389 C 724.783 486.485 725.104 486.538 725.437 486.538 C 727.149 486.538 728.541 485.174 728.591 483.473 C 727.763 482.712 727.016 481.852 726.018 481.315 C 725.417 480.993 724.791 480.733 724.156 480.491 C 723.352 480.848 722.725 481.532 722.443 482.374 C 722.806 483.012 723.208 483.639 723.54 484.278 Z " fill="rgb(73,93,167)"/><path d=" M 743.287 495.838 L 738.108 492.85 L 737.846 502.493 L 743.287 505.489 L 743.287 495.838 Z " fill="rgb(68,66,71)"/><path d=" M 736.823 492.299 L 738.112 492.299 L 738.112 502.057 L 736.823 502.057 L 736.823 492.299 Z " fill="rgb(218,226,242)"/><path d=" M 748.215 508.422 C 748.215 508.422 745.987 509.672 743.688 509.995 L 743.411 496.014 C 743.411 496.014 746.937 497.321 748.522 497.262 L 748.215 508.422 Z " fill="rgb(185,200,230)"/><path d=" M 748.215 508.422 L 749.017 508.118 L 749.017 497.358 L 748.215 497.358 L 748.215 508.422 Z " fill="rgb(117,98,98)"/><path d=" M 749.017 508.118 C 749.017 508.118 750.206 507.622 750.721 507.225 L 750.721 497.504 L 749.017 497.504 L 749.017 508.118 Z " fill="rgb(48,44,50)"/><path d=" M 737.301 492.733 L 738.59 492.733 L 738.59 502.493 L 737.301 502.493 L 737.301 492.733 Z " fill="rgb(48,44,50)"/><path d=" M 742.885 509.995 L 743.688 509.995 L 743.688 496.28 L 742.885 496.28 L 742.885 509.995 Z " fill="rgb(117,98,98)"/><path d=" M 722.381 479.497 C 722.864 479.497 723.495 479.594 724.286 479.893 C 726.908 480.887 730.114 483.622 733.815 488.024 C 738.273 493.323 742.655 495.43 745.546 496.264 C 748.673 497.167 752.072 496.751 752.092 496.747 L 752.246 497.61 C 752.154 497.626 748.668 498.065 745.36 497.124 C 742.338 496.262 737.765 494.083 733.144 488.587 C 724.83 478.702 721.66 480.501 721.63 480.52 L 721.133 479.797 C 721.198 479.753 721.593 479.497 722.381 479.497 Z " fill="rgb(164,121,83)"/><path d=" M 742.885 506.044 C 742.885 506.044 732.171 499.055 731.16 499.055 C 730.148 499.055 727.112 501.182 727.112 501.182 L 727.112 499.946 C 727.112 499.946 730.772 497.504 731.249 497.504 C 731.725 497.504 742.885 504.739 742.885 504.739 L 742.885 506.044 Z " fill="rgb(218,226,242)"/><path d=" M 741.688 509.393 C 741.688 509.393 732.632 502.735 731.347 502.735 C 730.062 502.735 726.336 506.063 726.336 506.063 L 741.688 509.393 Z " fill="rgb(183,151,91)"/><path d=" M 742.885 506.893 C 742.885 506.893 732.171 499.786 731.16 499.786 C 730.148 499.786 727.112 502.18 727.112 502.18 L 727.112 500.983 C 727.112 500.983 730.772 498.616 731.249 498.616 C 731.725 498.616 742.885 505.628 742.885 505.628 L 742.885 506.893 Z " fill="rgb(183,151,91)"/><path d=" M 727.404 505.571 C 727.404 505.571 727.428 494.266 724.784 486.807 C 722.139 479.35 716.092 468.975 713.378 468.051 L 712.444 469.003 C 714.789 470.188 722.409 481.721 723.833 487.356 C 725.578 494.53 725.637 491.428 726.48 506.044 C 727.323 520.659 727.404 505.571 727.404 505.571 Z " fill="rgb(164,121,83)"/><path d=" M 735.735 506.893 C 735.735 506.893 732.032 504.167 731.244 504.167 C 730.457 504.167 728.777 505.7 728.777 505.7 C 728.777 505.7 733.905 509.118 735.313 508.637 C 736.722 508.155 735.735 506.893 735.735 506.893 Z " fill="rgb(206,214,231)"/><path d=" M 725.421 520.253 C 725.421 520.253 723.673 518.508 724.119 513.979 C 724.565 509.448 724.943 504.913 721.629 506.295 C 718.315 507.68 721.179 511.21 723.178 509.346 C 723.178 509.346 723.168 511.581 722.879 514.52 C 722.59 517.46 722.8 520.272 725.421 520.253 Z " fill="rgb(202,131,78)"/><path d=" M 723.67 519.516 C 723.67 519.516 723.183 516.794 723.67 516.237 C 724.156 515.68 723.704 514.819 723.67 514.155 C 723.635 513.493 722.94 507.897 726.761 505.883 C 730.585 503.868 730.271 506.653 734.962 508.422 C 734.962 508.422 735.692 519.329 732.495 520.233 C 732.495 520.233 726.136 520.78 723.67 519.516 Z " fill="rgb(218,226,242)"/><path d=" M 739.281 518.817 C 739.281 518.817 740.521 517.801 740.521 514.848 C 740.521 511.893 742.053 508.803 744.106 509.909 C 746.158 511.014 744.083 513.112 742.911 511.782 C 742.911 511.782 742.774 513.225 742.774 515.141 C 742.774 517.059 741.703 519.295 739.281 518.817 Z " fill="rgb(163,109,72)"/><path d=" M 738.103 519.503 C 738.103 519.503 739.539 518.329 739.539 514.911 C 739.539 511.491 740.308 507.903 742.684 509.182 C 745.058 510.462 742.657 512.887 741.3 511.348 C 741.3 511.348 741.143 513.018 741.143 515.237 C 741.143 517.456 740.061 519.712 738.103 519.503 Z " fill="rgb(167,111,73)"/><path d=" M 736.552 519.876 C 736.552 519.876 737.914 517.471 737.914 513.794 C 737.914 510.118 738.94 507.411 741.496 508.786 C 744.049 510.161 741.467 512.772 740.007 511.116 C 740.007 511.116 739.84 512.913 739.84 515.299 C 739.84 517.684 738.658 520.1 736.552 519.876 Z " fill="rgb(172,114,74)"/><path d=" M 735.313 520.059 C 735.313 520.059 736.282 518.426 736.282 514.327 C 736.282 510.225 737.097 506.348 739.947 507.881 C 742.795 509.417 739.915 512.327 738.287 510.479 C 738.287 510.479 738.099 512.483 738.099 515.145 C 738.099 517.805 737.661 520.309 735.313 520.059 Z " fill="rgb(177,117,75)"/><path d=" M 733.671 520.237 C 733.671 520.237 735.507 518.735 735.507 514.358 C 735.507 509.983 735.575 505.606 738.615 507.245 C 741.654 508.879 738.581 511.987 736.844 510.016 C 736.844 510.016 736.643 512.155 736.643 514.993 C 736.643 517.833 736.176 520.504 733.671 520.237 Z " fill="rgb(182,120,76)"/><path d=" M 732.495 520.233 C 732.495 520.233 734.406 518.669 734.406 514.118 C 734.406 509.565 734.475 505.014 737.637 506.717 C 740.799 508.419 737.602 511.651 735.796 509.6 C 735.796 509.6 735.587 511.825 735.587 514.778 C 735.587 517.731 735.1 520.51 732.495 520.233 Z " fill="rgb(202,131,78)"/><path d=" M 742.128 517.6 C 742.128 517.6 734.952 521.557 723.283 519.036 L 722.592 520.719 C 722.592 520.719 731.637 524.262 742.577 519.399 L 742.128 517.6 Z " fill="rgb(68,66,71)"/><path d=" M 726.593 516.636 C 726.593 516.636 725.863 516.931 725.055 516.939 C 724.855 516.953 724.649 516.92 724.457 516.899 C 724.27 516.835 724.108 516.737 723.973 516.664 C 723.745 516.424 723.656 516.249 723.656 516.249 L 723.683 516.225 C 723.683 516.225 723.891 516.296 724.111 516.421 C 724.247 516.453 724.394 516.491 724.548 516.545 C 724.714 516.571 724.884 516.641 725.07 516.66 C 725.256 516.672 725.442 516.699 725.62 516.686 C 725.798 516.684 725.965 516.678 726.107 516.664 C 726.393 516.641 726.584 516.603 726.584 516.603 L 726.593 516.636 Z " fill="rgb(202,131,78)"/><path d=" M 729.79 516.603 C 729.79 516.603 729.98 516.641 730.266 516.664 C 730.409 516.678 730.576 516.684 730.754 516.686 C 730.931 516.699 731.118 516.672 731.303 516.66 C 731.489 516.641 731.66 516.571 731.826 516.545 C 731.978 516.491 732.127 516.453 732.262 516.421 C 732.482 516.296 732.69 516.225 732.69 516.225 L 732.717 516.249 C 732.717 516.249 732.629 516.424 732.4 516.664 C 732.265 516.737 732.103 516.835 731.917 516.899 C 731.724 516.92 731.518 516.953 731.318 516.939 C 730.509 516.931 729.78 516.636 729.78 516.636 L 729.79 516.603 Z " fill="rgb(202,131,78)"/><path d=" M 728.765 515.287 C 728.765 515.287 728.931 515.096 729.253 514.893 C 729.417 514.802 729.611 514.684 729.84 514.618 C 730.07 514.547 730.318 514.473 730.577 514.468 C 730.835 514.424 731.092 514.434 731.333 514.476 C 731.576 514.505 731.789 514.579 731.958 514.675 C 732.302 514.85 732.503 515.004 732.503 515.004 L 732.487 515.036 C 732.487 515.036 732.223 515.02 731.873 514.94 C 731.701 514.881 731.494 514.862 731.274 514.837 C 731.058 514.787 730.827 514.737 730.59 514.749 C 730.35 514.726 730.117 514.77 729.896 514.813 C 729.783 514.824 729.684 514.87 729.586 514.901 C 729.489 514.937 729.39 514.958 729.311 515.001 C 728.978 515.15 728.789 515.312 728.789 515.312 L 728.765 515.287 Z " fill="rgb(69,71,97)"/><path d=" M 726.472 515.312 C 726.472 515.312 726.332 515.203 726.089 515.102 C 725.969 515.052 725.823 515.007 725.671 514.966 C 725.511 514.943 725.348 514.895 725.178 514.911 C 725.009 514.907 724.846 514.925 724.694 514.963 C 724.541 514.981 724.391 514.971 724.268 515.008 C 724.016 515.047 723.816 515.036 723.816 515.036 L 723.802 515.004 C 723.802 515.004 723.938 514.877 724.189 514.741 C 724.312 514.666 724.472 514.623 724.651 514.601 C 724.828 514.571 725.018 514.594 725.204 514.631 C 725.393 514.644 725.568 514.722 725.733 514.773 C 725.893 514.839 726.036 514.918 726.148 514.995 C 726.377 515.148 726.496 515.286 726.496 515.287 L 726.472 515.312 Z " fill="rgb(69,71,97)"/><path d=" M 727.126 515.852 C 727.126 515.852 727.162 515.339 727.095 514.577 C 727.063 514.195 726.995 513.755 726.885 513.295 C 726.828 513.066 726.735 512.841 726.66 512.607 C 726.541 512.387 726.421 512.163 726.299 511.939 C 726.234 511.847 726.192 511.668 726.187 511.499 L 726.245 511.259 L 726.374 511.061 C 726.582 510.833 726.849 510.723 727.102 510.655 C 727.36 510.609 727.615 510.587 727.85 510.63 C 728.085 510.668 728.306 510.732 728.487 510.844 C 728.672 510.942 728.821 511.085 728.907 511.232 C 729.016 511.368 729.037 511.521 729.069 511.634 C 729.085 511.871 729.073 511.999 729.073 511.999 L 729.038 511.999 C 729.038 511.999 729.016 511.868 728.953 511.666 C 728.894 511.575 728.857 511.452 728.748 511.354 C 728.663 511.244 728.519 511.159 728.361 511.092 C 728.208 511.014 728.013 510.977 727.813 510.965 C 727.612 510.951 727.396 510.963 727.184 511.01 C 726.974 511.058 726.765 511.146 726.62 511.282 C 726.474 511.438 726.444 511.583 726.554 511.821 C 726.665 512.054 726.775 512.288 726.883 512.518 C 726.952 512.768 727.036 513.01 727.084 513.25 C 727.175 513.73 727.212 514.182 727.218 514.57 C 727.232 515.344 727.161 515.856 727.161 515.856 L 727.126 515.852 Z " fill="rgb(69,71,97)"/><path d=" M 730.063 509.411 C 730.063 509.411 729.021 509.488 727.978 509.534 C 727.457 509.579 726.935 509.592 726.545 509.532 C 726.154 509.487 725.893 509.411 725.893 509.411 L 725.893 509.376 C 725.893 509.376 726.154 509.299 726.545 509.254 C 726.935 509.194 727.457 509.208 727.978 509.253 C 729.021 509.298 730.063 509.376 730.063 509.376 L 730.063 509.411 Z " fill="rgb(69,71,97)"/><path d=" M 728.499 508.44 C 728.499 508.44 728.125 508.517 727.752 508.563 C 727.565 508.608 727.379 508.622 727.238 508.561 C 727.098 508.516 727.005 508.44 727.005 508.44 L 727.005 508.405 C 727.005 508.405 727.098 508.329 727.238 508.284 C 727.379 508.223 727.565 508.237 727.752 508.282 C 728.125 508.328 728.499 508.405 728.499 508.405 L 728.499 508.44 Z " fill="rgb(69,71,97)"/></g></svg>