<?xml version="1.0" encoding="UTF-8" standalone="no"?><!-- Generator: Gravit.io --><svg xmlns="http://www.w3.org/2000/svg" xmlns:xlink="http://www.w3.org/1999/xlink" style="isolation:isolate" viewBox="312.492 556.383 69.122 103.683" width="69.122pt" height="103.683pt"><g><path d=" M 381.614 657.346 C 381.614 658.848 380.396 660.066 378.894 660.066 L 315.214 660.066 C 313.71 660.066 312.492 658.848 312.492 657.346 L 312.492 559.104 C 312.492 557.602 313.71 556.383 315.214 556.383 L 378.894 556.383 C 380.396 556.383 381.614 557.602 381.614 559.104 L 381.614 657.346 Z " fill="rgb(234,232,232)"/><path d=" M 321.433 570.158 C 320.98 569.785 320.511 569.402 320.152 568.977 C 320.092 568.904 320.002 568.865 319.91 568.865 L 319.892 568.865 C 319.799 568.865 319.709 568.904 319.648 568.977 C 319.29 569.402 318.82 569.785 318.368 570.158 C 317.409 570.941 316.419 571.754 316.419 573.012 C 316.419 574.15 317.216 574.947 318.358 574.947 C 318.91 574.947 319.392 574.623 319.719 574.326 C 319.562 574.996 319.269 575.791 318.715 576.414 L 321.085 576.414 C 320.53 575.789 320.237 574.994 320.08 574.322 C 320.407 574.621 320.889 574.947 321.441 574.947 C 322.583 574.947 323.382 574.15 323.382 573.012 C 323.382 571.756 322.39 570.943 321.433 570.158 Z " fill="rgb(68,66,71)"/><path d=" M 319.892 576.414 L 319.892 568.865 L 319.892 568.865 C 319.799 568.865 319.709 568.904 319.648 568.977 C 319.29 569.402 318.82 569.785 318.368 570.158 C 317.409 570.941 316.419 571.754 316.419 573.012 C 316.419 574.15 317.216 574.947 318.358 574.947 C 318.91 574.947 319.392 574.623 319.719 574.326 C 319.562 574.996 319.269 575.791 318.715 576.414 L 319.892 576.414 Z " fill="rgb(87,86,90)"/><path d=" M 323.302 567.115 C 322.681 567.006 321.887 566.832 321.157 566.647 L 321.157 566.603 C 322.377 566.168 323.247 564.971 323.247 563.076 C 323.247 560.91 321.952 559.364 319.949 559.364 C 317.968 559.364 316.542 560.878 316.542 563.229 C 316.542 565.602 318.022 566.886 319.775 566.952 C 319.916 566.952 320.058 567.006 320.221 567.061 C 321.07 567.355 322.039 567.648 323.03 567.91 L 323.302 567.115 Z  M 319.895 566.179 C 318.392 566.179 317.543 564.775 317.543 563.207 C 317.543 561.618 318.327 560.137 319.927 560.137 C 321.484 560.137 322.246 561.65 322.246 563.131 C 322.246 564.796 321.397 566.179 319.895 566.179 Z " fill="rgb(68,66,71)"/><path d=" M 372.674 646.291 C 373.126 646.664 373.596 647.047 373.954 647.473 C 374.015 647.545 374.104 647.584 374.196 647.584 L 374.215 647.584 C 374.308 647.584 374.397 647.545 374.458 647.473 C 374.816 647.047 375.286 646.664 375.738 646.291 C 376.697 645.508 377.688 644.695 377.688 643.438 C 377.688 642.297 376.891 641.502 375.748 641.502 C 375.196 641.502 374.715 641.826 374.388 642.123 C 374.545 641.451 374.838 640.658 375.392 640.035 L 373.021 640.035 C 373.576 640.658 373.869 641.455 374.026 642.127 C 373.699 641.828 373.218 641.502 372.665 641.502 C 371.523 641.502 370.725 642.297 370.725 643.438 C 370.725 644.693 371.717 645.506 372.674 646.291 Z " fill="rgb(68,66,71)"/><path d=" M 374.215 640.035 L 374.215 647.584 L 374.215 647.584 C 374.308 647.584 374.397 647.545 374.458 647.473 C 374.816 647.047 375.286 646.664 375.738 646.291 C 376.697 645.508 377.688 644.695 377.688 643.438 C 377.688 642.297 376.891 641.502 375.748 641.502 C 375.196 641.502 374.715 641.826 374.388 642.123 C 374.545 641.451 374.838 640.658 375.392 640.035 L 374.215 640.035 Z " fill="rgb(87,86,90)"/><path d=" M 370.804 649.334 C 371.425 649.443 372.219 649.617 372.949 649.802 L 372.949 649.846 C 371.729 650.281 370.859 651.478 370.859 653.373 C 370.859 655.539 372.154 657.085 374.157 657.085 C 376.138 657.085 377.564 655.571 377.564 653.22 C 377.564 650.847 376.084 649.563 374.331 649.497 C 374.19 649.497 374.048 649.443 373.885 649.388 C 373.036 649.094 372.067 648.801 371.076 648.539 L 370.804 649.334 Z  M 374.211 650.27 C 375.714 650.27 376.563 651.674 376.563 653.242 C 376.563 654.831 375.779 656.312 374.179 656.312 C 372.622 656.312 371.86 654.799 371.86 653.318 C 371.86 651.653 372.709 650.27 374.211 650.27 Z " fill="rgb(68,66,71)"/><path d=" M 346.475 602.236 L 342.412 602.236 L 342.412 600.861 L 346.475 600.861 L 346.475 602.236 Z " fill="rgb(69,68,116)"/><path d=" M 346.828 600.861 L 342.766 600.861 L 342.766 599.486 L 346.828 599.486 L 346.828 600.861 Z " fill="rgb(166,64,69)"/><path d=" M 347.429 599.486 L 343.366 599.486 L 343.366 598.109 L 347.429 598.109 L 347.429 599.486 Z " fill="rgb(69,68,116)"/><path d=" M 347.782 598.109 L 343.72 598.109 L 343.72 596.734 L 347.782 596.734 L 347.782 598.109 Z " fill="rgb(166,64,69)"/><path d=" M 348.383 596.734 L 344.319 596.734 L 344.319 595.359 L 348.383 595.359 L 348.383 596.734 Z " fill="rgb(69,68,116)"/><path d=" M 348.736 595.359 L 344.673 595.359 L 344.673 593.984 L 348.736 593.984 L 348.736 595.359 Z " fill="rgb(166,64,69)"/><path d=" M 349.336 593.984 L 345.273 593.984 L 345.273 592.607 L 349.336 592.607 L 349.336 593.984 Z " fill="rgb(69,68,116)"/><path d=" M 346.828 602.295 L 349.801 594.592 L 357.511 594.047 L 353.096 602.871 L 346.828 602.295 Z " fill="rgb(68,66,71)"/><path d=" M 337.236 601.801 L 336.157 593.281 L 344.012 593.641 L 344.14 596.777 L 341.437 602.367 L 337.236 601.801 Z " fill="rgb(68,66,71)"/><path d=" M 346.187 593.121 L 342.7 602.141 L 340.141 601.801 C 340.141 601.801 343.724 597.086 343.164 595.295 C 342.604 593.504 338.462 594.592 338.462 594.592 L 336.687 591.416 L 346.187 593.121 Z " fill="rgb(48,44,50)"/><path d=" M 345.626 602.367 L 349.033 593.217 L 357.734 592.564 L 356.586 595.168 C 356.586 595.168 351.849 594.271 350.473 595.391 C 349.098 596.512 347.786 602.236 347.786 602.236 L 345.626 602.367 Z " fill="rgb(48,44,50)"/><path d=" M 354.021 605.602 C 346.918 605.91 336.687 604.984 336.687 604.984 L 336.687 601.801 C 336.687 601.801 346.918 602.727 354.021 602.418" fill="rgb(48,44,50)"/><path d=" M 336.687 601.801 C 336.687 601.801 346.918 602.727 354.021 602.418" fill="none" vector-effect="non-scaling-stroke" stroke-width="0.768" stroke="rgb(164,121,83)" stroke-linejoin="miter" stroke-linecap="butt" stroke-miterlimit="10"/><path d=" M 336.687 604.984 C 336.687 604.984 346.918 605.91 354.021 605.602" fill="none" vector-effect="non-scaling-stroke" stroke-width="0.768" stroke="rgb(164,121,83)" stroke-linejoin="miter" stroke-linecap="butt" stroke-miterlimit="10"/><path d=" M 331.055 595.408 L 335.947 590.916 C 335.947 590.916 339.809 592.91 339.345 596.881 C 338.88 600.85 336.739 602.236 336.739 602.236 L 331.055 595.408 Z " fill="rgb(206,214,231)"/><path d=" M 331.055 595.41 L 335.406 591.416 C 335.406 591.416 338.84 593.189 338.427 596.721 C 338.015 600.25 336.11 601.484 336.11 601.484 L 331.055 595.41 Z " fill="rgb(48,44,50)"/><path d=" M 331.055 595.416 L 334.687 592.082 C 334.687 592.082 337.553 593.563 337.208 596.51 C 336.863 599.455 335.274 600.484 335.274 600.484 L 331.055 595.416 Z " fill="rgb(69,68,116)"/><path d=" M 347.632 614.213 L 351.694 614.213 L 351.694 615.588 L 347.632 615.588 L 347.632 614.213 Z " fill="rgb(69,68,116)"/><path d=" M 347.278 615.588 L 351.342 615.588 L 351.342 616.963 L 347.278 616.963 L 347.278 615.588 Z " fill="rgb(166,64,69)"/><path d=" M 346.678 616.963 L 350.741 616.963 L 350.741 618.338 L 346.678 618.338 L 346.678 616.963 Z " fill="rgb(69,68,116)"/><path d=" M 346.325 618.338 L 350.388 618.338 L 350.388 619.713 L 346.325 619.713 L 346.325 618.338 Z " fill="rgb(166,64,69)"/><path d=" M 345.725 619.713 L 349.787 619.713 L 349.787 621.09 L 345.725 621.09 L 345.725 619.713 Z " fill="rgb(69,68,116)"/><path d=" M 345.371 621.09 L 349.434 621.09 L 349.434 622.465 L 345.371 622.465 L 345.371 621.09 Z " fill="rgb(166,64,69)"/><path d=" M 344.771 622.465 L 348.833 622.465 L 348.833 623.84 L 344.771 623.84 L 344.771 622.465 Z " fill="rgb(69,68,116)"/><path d=" M 347.278 614.154 L 344.306 621.857 L 336.597 622.4 L 341.011 613.576 L 347.278 614.154 Z " fill="rgb(68,66,71)"/><path d=" M 356.87 614.648 L 357.949 623.168 L 350.095 622.809 L 349.968 619.67 L 352.67 614.082 L 356.87 614.648 Z " fill="rgb(68,66,71)"/><path d=" M 347.92 623.328 L 351.406 614.309 L 353.966 614.648 C 353.966 614.648 350.383 619.361 350.943 621.152 C 351.503 622.945 355.646 621.857 355.646 621.857 L 357.421 625.033 L 347.92 623.328 Z " fill="rgb(48,44,50)"/><path d=" M 348.48 614.082 L 345.073 623.232 L 336.372 623.883 L 337.521 621.281 C 337.521 621.281 342.258 622.178 343.634 621.057 C 345.01 619.938 346.32 614.213 346.32 614.213 L 348.48 614.082 Z " fill="rgb(48,44,50)"/><path d=" M 340.086 610.848 C 347.189 610.539 357.421 611.465 357.421 611.465 L 357.421 614.648 C 357.421 614.648 347.189 613.723 340.086 614.031" fill="rgb(48,44,50)"/><path d=" M 357.421 614.648 C 357.421 614.648 347.189 613.723 340.086 614.031" fill="none" vector-effect="non-scaling-stroke" stroke-width="0.768" stroke="rgb(164,121,83)" stroke-linejoin="miter" stroke-linecap="butt" stroke-miterlimit="10"/><path d=" M 357.421 611.465 C 357.421 611.465 347.189 610.539 340.086 610.848" fill="none" vector-effect="non-scaling-stroke" stroke-width="0.768" stroke="rgb(164,121,83)" stroke-linejoin="miter" stroke-linecap="butt" stroke-miterlimit="10"/><path d=" M 321.772 627.525 C 323.177 627.979 324.662 628.223 326.2 628.223 C 334.833 628.223 341.831 620.568 341.831 611.123 C 341.831 601.68 334.833 594.025 326.2 594.025 C 324.662 594.025 323.177 594.27 321.772 594.721 L 321.772 627.525 Z " fill="rgb(218,226,242)"/><path d=" M 321.772 626.781 C 323.172 627.254 324.658 627.508 326.2 627.508 C 334.473 627.508 341.178 620.174 341.178 611.123 C 341.178 602.074 334.473 594.738 326.2 594.738 C 324.658 594.738 323.172 594.994 321.772 595.467 L 321.772 626.781 Z " fill="rgb(206,214,231)"/><path d=" M 321.772 623.223 C 323.142 623.822 324.635 624.156 326.2 624.156 C 332.779 624.156 338.112 618.32 338.112 611.123 C 338.112 603.926 332.779 598.092 326.2 598.092 C 324.635 598.092 323.142 598.426 321.772 599.025 L 321.772 623.223 Z " fill="rgb(164,121,83)"/><path d=" M 321.772 621.844 C 323.123 622.514 324.621 622.889 326.2 622.889 C 332.14 622.889 336.954 617.621 336.954 611.123 C 336.954 604.627 332.14 599.359 326.2 599.359 C 324.621 599.359 323.123 599.734 321.772 600.402 L 321.772 621.844 Z " fill="rgb(183,151,91)"/><path d=" M 321.772 617.852 C 323.019 618.836 324.547 619.416 326.2 619.416 C 330.387 619.416 333.78 615.703 333.78 611.123 C 333.78 606.545 330.387 602.832 326.2 602.832 C 324.547 602.832 323.019 603.412 321.772 604.395 L 321.772 617.852 Z " fill="rgb(218,226,242)"/><path d=" M 321.772 617.324 C 322.993 618.369 324.53 618.994 326.2 618.994 C 330.174 618.994 333.395 615.471 333.395 611.123 C 333.395 606.777 330.174 603.254 326.2 603.254 C 324.53 603.254 322.993 603.879 321.772 604.924 L 321.772 617.324 Z " fill="rgb(68,66,71)"/><path d=" M 321.772 612.322 C 322.023 612.486 322.27 612.658 322.51 612.834 L 322.51 612.834 C 322.755 613.016 322.995 613.203 323.229 613.398 L 323.23 613.398 C 323.464 613.592 323.69 613.793 323.912 613.998 C 323.914 614 323.915 614.002 323.917 614.004 C 324.136 614.207 324.349 614.418 324.556 614.633 C 324.561 614.639 324.565 614.643 324.57 614.648 C 324.598 614.424 324.63 614.201 324.668 613.98 C 324.674 613.941 324.683 613.904 324.689 613.865 C 324.721 613.689 324.754 613.512 324.791 613.338 C 324.792 613.332 324.793 613.328 324.795 613.322 C 324.808 613.26 324.824 613.195 324.839 613.133 C 324.87 612.996 324.901 612.861 324.936 612.727 C 324.943 612.701 324.95 612.674 324.957 612.648 C 324.973 612.584 324.992 612.521 325.01 612.459 C 325.045 612.33 325.081 612.203 325.12 612.076 C 325.127 612.051 325.136 612.025 325.143 612 C 325.163 611.936 325.185 611.873 325.205 611.811 C 325.247 611.682 325.289 611.553 325.334 611.424 C 325.363 611.342 325.396 611.26 325.427 611.178 C 325.472 611.057 325.518 610.934 325.566 610.813 C 325.601 610.729 325.637 610.646 325.672 610.563 C 325.722 610.445 325.771 610.328 325.824 610.213 C 325.862 610.129 325.903 610.047 325.942 609.963 C 325.996 609.85 326.05 609.736 326.105 609.625 C 326.148 609.543 326.192 609.459 326.236 609.377 C 326.286 609.283 326.337 609.189 326.388 609.096 C 326.398 609.076 326.408 609.057 326.419 609.039 C 326.463 608.961 326.509 608.883 326.554 608.805 C 326.602 608.725 326.649 608.643 326.697 608.563 C 326.725 608.518 326.753 608.473 326.781 608.428 C 326.818 608.367 326.855 608.309 326.894 608.248 C 326.949 608.162 327.006 608.076 327.063 607.99 C 327.103 607.93 327.145 607.869 327.186 607.811 C 327.209 607.777 327.231 607.742 327.256 607.709 C 327.323 607.611 327.391 607.516 327.461 607.422 C 327.527 607.33 327.595 607.242 327.663 607.152 C 327.728 607.068 327.792 606.984 327.858 606.902 C 327.89 606.863 327.922 606.824 327.954 606.785 C 328.011 606.717 328.067 606.646 328.125 606.578 C 328.174 606.52 328.223 606.463 328.273 606.404 C 328.322 606.35 328.371 606.293 328.42 606.238 C 328.5 606.148 328.582 606.061 328.663 605.973 C 328.678 605.955 328.692 605.939 328.707 605.924 C 328.771 605.855 328.836 605.787 328.902 605.721 C 329.003 605.617 329.105 605.516 329.209 605.416 C 329.263 605.363 329.316 605.311 329.371 605.26 C 329.413 605.221 329.456 605.182 329.498 605.143 C 329.591 605.057 329.686 604.971 329.781 604.887 C 329.805 604.865 329.828 604.844 329.851 604.824 C 329.919 604.764 329.989 604.707 330.059 604.648 C 330.166 604.559 330.273 604.469 330.384 604.381 C 330.464 604.316 330.546 604.254 330.628 604.191 C 330.706 604.131 330.783 604.072 330.862 604.014 C 330.958 603.943 331.056 603.875 331.153 603.807 C 331.231 603.752 331.312 603.695 331.392 603.641 C 331.491 603.574 331.593 603.508 331.693 603.443 C 331.774 603.393 331.854 603.34 331.937 603.289 C 332.04 603.225 332.146 603.164 332.251 603.102 C 332.332 603.055 332.413 603.006 332.496 602.959 C 332.604 602.898 332.714 602.842 332.824 602.783 C 332.905 602.74 332.987 602.695 333.07 602.652 C 333.184 602.596 333.299 602.541 333.414 602.486 C 333.495 602.447 333.575 602.408 333.656 602.371 C 333.779 602.314 333.902 602.264 334.026 602.211 C 334.104 602.178 334.179 602.143 334.256 602.111 C 334.394 602.057 334.532 602.006 334.672 601.953 C 334.737 601.928 334.802 601.902 334.867 601.879 C 335.046 601.814 335.227 601.756 335.408 601.699 C 335.436 601.689 335.463 601.68 335.49 601.672 C 335.702 601.605 335.914 601.545 336.129 601.488 C 336.161 601.48 336.193 601.475 336.225 601.467 C 336.406 601.42 336.589 601.375 336.773 601.336 C 336.84 601.32 336.908 601.311 336.975 601.297 C 337.125 601.266 337.275 601.236 337.427 601.209 C 337.506 601.195 337.587 601.186 337.666 601.174 C 338.044 601.115 338.424 601.068 338.809 601.039 C 335.965 596.787 331.371 594.025 326.186 594.025 C 324.653 594.025 323.173 594.268 321.772 594.717 L 321.772 612.322 Z " fill="rgb(164,121,83)"/><path d=" M 321.772 611.143 C 321.933 611.664 322.152 612.063 322.453 612.285 C 323.015 612.891 323.776 613.354 324.357 613.961 C 325.182 607.314 330.829 600.967 337.521 600.455 C 333.774 594.852 322.214 590.537 321.772 599.609 L 321.772 611.143 Z " fill="rgb(183,151,91)"/><path d=" M 350.444 642.523 C 350.444 642.523 355.622 631.08 354.82 627.393 C 354.02 623.705 346.649 634.141 346.649 634.141 L 350.444 642.523 Z " fill="rgb(48,44,50)"/><path d=" M 345.995 653.002 C 345.995 653.002 354.222 651.029 357.996 639.643 C 361.771 628.254 360.044 623.883 360.044 623.883 L 354.31 627.895 C 354.31 627.895 354.835 633.275 350.9 642.586 C 346.966 651.895 345.995 651.043 345.995 651.043 L 345.995 653.002 Z " fill="rgb(68,66,71)"/><path d=" M 341.281 652.004 C 341.281 652.004 349.508 650.031 353.282 638.645 C 357.057 627.256 355.245 625.199 355.245 625.199 L 353.582 625.568 C 353.582 625.568 355.681 629.271 351.747 638.58 C 347.813 647.889 341.281 650.047 341.281 650.047 L 341.281 652.004 Z " fill="rgb(183,151,91)"/><path d=" M 321.772 611.656 L 321.772 622.814 L 327.517 628.133 L 333.365 624.795 L 321.772 611.656 Z " fill="rgb(69,68,116)"/><path d=" M 334.621 624.527 C 334.621 624.527 322.078 610.088 321.772 609.928 L 321.772 612.162 L 332.278 624.795 L 334.621 624.527 Z " fill="rgb(48,44,50)"/><path d=" M 353.901 628.859 L 359.021 624.957 C 359.021 624.957 344.178 619.553 326.84 626.203 L 330.989 631.322 L 353.901 628.859 Z " fill="rgb(164,121,83)"/><path d=" M 352.879 629.662 L 357.996 625.76 C 357.996 625.76 344.178 620.648 326.84 627.299 L 330.989 632.418 L 352.879 629.662 Z " fill="rgb(183,151,91)"/><path d=" M 349.252 634.092 C 349.252 633.99 350.191 631.262 352.879 629.662 C 352.879 629.662 339.361 627.227 330.989 631.322 C 330.989 631.322 332.278 639.623 336.309 637.904 C 340.339 636.188 349.252 634.092 349.252 634.092 Z " fill="rgb(206,214,231)"/><path d=" M 350.753 644.689 C 350.753 644.689 351.093 641.66 350.753 641.213 C 350.413 640.764 350.349 640.412 350.477 639.676 C 350.604 638.938 350.604 635.383 350.028 634.615 C 349.452 633.846 347.018 629.201 345.352 629.17 C 343.687 629.137 336.671 632.02 336.575 635.768 C 336.575 635.768 336.063 635.096 335.391 635.479 C 334.717 635.863 334.621 638.65 334.621 638.65 C 334.621 638.65 340.36 651.174 345.995 650.629 C 345.995 650.629 350.772 647.205 350.753 644.689 Z " fill="rgb(218,226,242)"/><path d=" M 345.995 653.002 C 345.995 653.002 340.035 654.6 335.394 649.654 C 330.752 644.707 325.653 632.836 321.772 631.543 L 321.772 626.643 C 321.772 626.643 331.208 631.467 333.491 638.924 C 335.774 646.381 345.995 653.002 345.995 653.002 Z " fill="rgb(48,44,50)"/><path d=" M 345.995 650.381 C 345.995 650.381 344.469 643.666 337.925 643.438 C 336.099 645.188 342.106 650.381 342.106 650.381 C 342.106 650.381 343.346 651.367 345.995 651.043 L 345.995 650.381 Z " fill="rgb(202,131,78)"/><path d=" M 345.995 651.043 C 345.995 651.043 339.665 649.418 334.416 636.504 C 325.502 622.102 321.772 622.814 321.772 622.814 L 321.772 626.643 C 321.772 626.643 328.24 631.848 332.197 639 C 336.154 646.154 338.79 653.002 345.995 653.002 L 345.995 651.043 Z " fill="rgb(68,66,71)"/><path d=" M 345.995 653.002 C 345.995 653.002 354.222 651.029 357.996 639.643 C 361.771 628.254 360.044 623.883 360.044 623.883 L 358.531 624.795 C 358.531 624.795 360.396 630.27 356.461 639.578 C 352.526 648.887 345.995 651.043 345.995 651.043 L 345.995 653.002 Z " fill="rgb(183,151,91)"/><path d=" M 345.995 650.381 C 345.995 650.381 347.007 646.059 350.911 644.629 C 350.911 644.629 352.131 651.672 345.995 651.043 L 345.995 650.381 Z " fill="rgb(182,120,76)"/><path d=" M 363.052 621.041 L 358.159 625.533 C 358.159 625.533 354.298 623.537 354.763 619.568 C 355.227 615.6 357.367 614.213 357.367 614.213 L 363.052 621.041 Z " fill="rgb(206,214,231)"/><path d=" M 363.052 621.037 L 358.7 625.033 C 358.7 625.033 355.267 623.258 355.68 619.729 C 356.093 616.197 357.996 614.965 357.996 614.965 L 363.052 621.037 Z " fill="rgb(48,44,50)"/><path d=" M 363.052 621.033 L 359.42 624.367 C 359.42 624.367 356.554 622.887 356.899 619.939 C 357.243 616.992 358.833 615.963 358.833 615.963 L 363.052 621.033 Z " fill="rgb(69,68,116)"/><path d=" M 350.783 641.697 C 350.783 641.697 350.607 641.792 350.324 641.893 C 350.043 642 349.65 642.098 349.247 642.145 C 348.845 642.22 348.424 642.199 348.134 642.084 C 347.842 641.973 347.672 641.853 347.672 641.853 L 347.682 641.815 C 347.682 641.815 347.897 641.774 348.184 641.783 C 348.326 641.803 348.497 641.77 348.672 641.789 C 348.848 641.818 349.038 641.825 349.23 641.838 C 350 641.866 350.769 641.662 350.77 641.662 L 350.783 641.697 Z " fill="rgb(202,131,78)"/><path d=" M 341.288 641.821 C 341.288 641.82 342.292 642.014 343.293 641.978 C 343.543 641.962 343.791 641.951 344.022 641.921 C 344.252 641.902 344.473 641.938 344.659 641.922 C 345.034 641.922 345.304 641.973 345.304 641.973 L 345.313 642.016 C 345.313 642.016 345.082 642.146 344.703 642.267 C 344.514 642.33 344.287 642.356 344.043 642.376 C 343.798 642.393 343.537 642.352 343.279 642.327 C 342.762 642.276 342.254 642.178 341.884 642.066 C 341.512 641.961 341.275 641.863 341.275 641.862 L 341.288 641.821 Z " fill="rgb(202,131,78)"/><path d=" M 344.722 640.697 C 344.722 640.697 344.525 640.652 344.234 640.617 C 343.943 640.587 343.559 640.537 343.173 640.558 C 342.98 640.553 342.787 640.554 342.607 640.582 C 342.428 640.604 342.254 640.597 342.112 640.635 C 341.822 640.68 341.619 640.697 341.619 640.697 C 341.619 640.697 341.797 640.611 342.08 640.499 C 342.363 640.395 342.766 640.314 343.171 640.311 C 343.375 640.304 343.576 640.337 343.764 640.356 C 343.952 640.382 344.122 640.44 344.267 640.482 C 344.553 640.585 344.722 640.697 344.722 640.697 Z " fill="rgb(69,71,97)"/><path d=" M 348.019 640.697 C 348.019 640.697 348.142 640.592 348.365 640.493 C 348.478 640.451 348.611 640.396 348.761 640.369 C 348.912 640.351 349.073 640.316 349.236 640.325 C 349.562 640.328 349.885 640.408 350.103 640.509 C 350.321 640.616 350.456 640.697 350.456 640.697 C 350.456 640.697 350.294 640.675 350.067 640.627 C 349.957 640.589 349.819 640.592 349.678 640.57 C 349.538 640.542 349.386 640.538 349.234 640.544 C 348.932 640.523 348.63 640.575 348.401 640.61 C 348.172 640.648 348.019 640.697 348.019 640.697 Z " fill="rgb(69,71,97)"/><path d=" M 346.222 633.154 C 346.222 633.154 345.552 632.738 344.602 633.154" fill="rgb(218,226,242)"/><path d=" M 346.222 633.154 C 346.222 633.154 346.117 633.125 345.965 633.104 C 345.812 633.087 345.614 633.053 345.415 633.07 C 345.217 633.061 345.016 633.098 344.865 633.12 C 344.712 633.146 344.602 633.154 344.602 633.154 C 344.602 633.154 344.688 633.094 344.833 633.017 C 344.977 632.942 345.192 632.883 345.412 632.879 C 345.522 632.874 345.631 632.895 345.733 632.911 C 345.834 632.928 345.922 632.973 345.998 633.001 C 346.145 633.076 346.222 633.154 346.222 633.154 Z " fill="rgb(69,71,97)"/><path d=" M 347.339 634.313 C 347.339 634.313 346.375 634.416 345.412 634.408 C 344.449 634.416 343.485 634.313 343.485 634.313 C 343.485 634.313 344.449 634.209 345.412 634.217 C 346.375 634.209 347.339 634.313 347.339 634.313 Z " fill="rgb(69,71,97)"/><path d=" M 346.888 636.496 C 346.888 636.496 346.806 636.371 346.633 636.263 C 346.55 636.201 346.442 636.155 346.322 636.111 C 346.212 636.05 346.068 636.043 345.939 636.005 C 345.808 635.971 345.667 635.966 345.539 635.945 C 345.411 635.922 345.287 635.923 345.182 635.916 C 344.971 635.899 344.825 635.877 344.825 635.877 C 344.825 635.877 344.964 635.843 345.179 635.808 C 345.393 635.761 345.687 635.777 345.978 635.817 C 346.119 635.867 346.268 635.884 346.39 635.96 C 346.52 636.016 346.623 636.101 346.703 636.181 C 346.784 636.258 346.828 636.344 346.854 636.402 C 346.882 636.461 346.888 636.496 346.888 636.496 Z " fill="rgb(69,71,97)"/><path d=" M 372.335 588.922 C 370.931 588.471 369.444 588.225 367.907 588.225 C 359.274 588.225 352.276 595.881 352.276 605.324 C 352.276 614.77 359.274 622.424 367.907 622.424 C 369.444 622.424 370.931 622.18 372.335 621.727 L 372.335 588.922 Z " fill="rgb(218,226,242)"/><path d=" M 372.335 589.668 C 370.935 589.195 369.448 588.939 367.907 588.939 C 359.635 588.939 352.929 596.275 352.929 605.324 C 352.929 614.375 359.635 621.709 367.907 621.709 C 369.448 621.709 370.935 621.453 372.335 620.98 L 372.335 589.668 Z " fill="rgb(206,214,231)"/><path d=" M 372.335 593.227 C 370.965 592.627 369.473 592.293 367.907 592.293 C 361.327 592.293 355.994 598.127 355.994 605.324 C 355.994 612.521 361.327 618.355 367.907 618.355 C 369.473 618.355 370.965 618.023 372.335 617.422 L 372.335 593.227 Z " fill="rgb(164,121,83)"/><path d=" M 372.335 594.604 C 370.983 593.936 369.486 593.561 367.907 593.561 C 361.967 593.561 357.151 598.828 357.151 605.324 C 357.151 611.822 361.967 617.09 367.907 617.09 C 369.486 617.09 370.983 616.715 372.335 616.045 L 372.335 594.604 Z " fill="rgb(183,151,91)"/><path d=" M 372.335 598.596 C 371.088 597.613 369.561 597.031 367.907 597.031 C 363.721 597.031 360.326 600.744 360.326 605.324 C 360.326 609.904 363.721 613.617 367.907 613.617 C 369.561 613.617 371.088 613.037 372.335 612.053 L 372.335 598.596 Z " fill="rgb(218,226,242)"/><path d=" M 372.335 599.125 C 371.113 598.078 369.577 597.455 367.907 597.455 C 363.933 597.455 360.713 600.979 360.713 605.324 C 360.713 609.672 363.933 613.195 367.907 613.195 C 369.577 613.195 371.113 612.57 372.335 611.525 L 372.335 599.125 Z " fill="rgb(68,66,71)"/><path d=" M 372.335 604.125 C 372.084 603.963 371.838 603.791 371.597 603.613 L 371.597 603.613 C 371.352 603.434 371.111 603.246 370.878 603.051 L 370.877 603.051 C 370.644 602.857 370.416 602.656 370.195 602.451 C 370.193 602.449 370.191 602.447 370.189 602.445 C 369.971 602.24 369.759 602.031 369.551 601.814 C 369.546 601.811 369.542 601.807 369.537 601.801 C 369.51 602.025 369.477 602.248 369.439 602.469 C 369.433 602.508 369.425 602.545 369.418 602.582 C 369.386 602.76 369.353 602.936 369.316 603.109 C 369.314 603.115 369.313 603.121 369.313 603.125 C 369.299 603.189 369.282 603.252 369.269 603.316 C 369.236 603.451 369.205 603.588 369.171 603.721 C 369.164 603.748 369.157 603.775 369.15 603.801 C 369.134 603.865 369.115 603.928 369.098 603.99 C 369.062 604.119 369.026 604.246 368.987 604.373 C 368.979 604.398 368.972 604.424 368.964 604.449 C 368.944 604.512 368.923 604.576 368.901 604.639 C 368.859 604.768 368.818 604.896 368.772 605.023 C 368.743 605.107 368.712 605.188 368.681 605.27 C 368.635 605.393 368.589 605.516 368.54 605.637 C 368.506 605.721 368.471 605.803 368.435 605.885 C 368.386 606.002 368.335 606.121 368.283 606.236 C 368.245 606.32 368.204 606.402 368.164 606.486 C 368.11 606.6 368.057 606.711 368.001 606.824 C 367.958 606.906 367.914 606.988 367.87 607.072 C 367.82 607.166 367.771 607.26 367.719 607.354 C 367.709 607.371 367.698 607.391 367.688 607.41 C 367.645 607.488 367.599 607.566 367.554 607.643 C 367.506 607.725 367.458 607.805 367.409 607.885 C 367.382 607.932 367.354 607.977 367.326 608.021 C 367.289 608.08 367.251 608.141 367.213 608.199 C 367.158 608.285 367.102 608.373 367.045 608.457 C 367.004 608.518 366.962 608.578 366.921 608.639 C 366.897 608.672 366.875 608.707 366.851 608.74 C 366.784 608.836 366.716 608.932 366.646 609.027 C 366.58 609.117 366.512 609.207 366.443 609.297 C 366.379 609.381 366.314 609.465 366.248 609.547 C 366.217 609.586 366.185 609.625 366.153 609.664 C 366.097 609.732 366.039 609.801 365.981 609.869 C 365.933 609.928 365.884 609.986 365.834 610.043 C 365.785 610.1 365.736 610.156 365.687 610.211 C 365.606 610.301 365.525 610.389 365.443 610.477 C 365.429 610.492 365.415 610.508 365.4 610.523 C 365.335 610.592 365.271 610.66 365.205 610.727 C 365.104 610.83 365.002 610.932 364.898 611.033 C 364.844 611.086 364.79 611.139 364.735 611.189 C 364.694 611.229 364.651 611.268 364.609 611.307 C 364.516 611.393 364.422 611.479 364.326 611.563 C 364.303 611.584 364.279 611.604 364.256 611.625 C 364.188 611.684 364.117 611.742 364.049 611.801 C 363.94 611.891 363.833 611.98 363.724 612.066 C 363.643 612.131 363.561 612.195 363.479 612.258 C 363.4 612.316 363.323 612.377 363.245 612.436 C 363.149 612.506 363.052 612.574 362.954 612.643 C 362.875 612.697 362.796 612.754 362.716 612.809 C 362.615 612.875 362.515 612.939 362.412 613.006 C 362.332 613.057 362.252 613.109 362.171 613.16 C 362.067 613.223 361.962 613.285 361.856 613.348 C 361.774 613.395 361.693 613.443 361.61 613.488 C 361.502 613.549 361.393 613.607 361.282 613.666 C 361.201 613.709 361.12 613.754 361.037 613.795 C 360.923 613.854 360.808 613.908 360.692 613.963 C 360.611 614.002 360.531 614.041 360.45 614.078 C 360.328 614.135 360.204 614.186 360.081 614.238 C 360.004 614.271 359.928 614.305 359.851 614.336 C 359.713 614.393 359.574 614.443 359.436 614.496 C 359.369 614.52 359.306 614.545 359.239 614.57 C 359.061 614.633 358.88 614.693 358.698 614.75 C 358.671 614.758 358.645 614.77 358.616 614.777 C 358.405 614.842 358.192 614.904 357.978 614.959 C 357.946 614.969 357.913 614.975 357.882 614.982 C 357.7 615.029 357.518 615.072 357.334 615.113 C 357.267 615.127 357.199 615.139 357.132 615.152 C 356.981 615.184 356.832 615.213 356.68 615.238 C 356.601 615.252 356.521 615.264 356.44 615.275 C 356.063 615.334 355.683 615.381 355.299 615.41 C 358.143 619.662 362.736 622.424 367.921 622.424 C 369.454 622.424 370.935 622.182 372.335 621.732 L 372.335 604.125 Z " fill="rgb(164,121,83)"/><path d=" M 372.335 605.305 C 372.174 604.785 371.954 604.387 371.653 604.164 C 371.093 603.559 370.331 603.096 369.749 602.488 C 368.925 609.135 363.278 615.482 356.586 615.994 C 360.333 621.598 371.894 625.912 372.335 616.838 L 372.335 605.305 Z " fill="rgb(183,151,91)"/><path d=" M 372.335 604.791 L 372.335 593.635 L 366.591 588.316 L 360.741 591.654 L 372.335 604.791 Z " fill="rgb(69,68,116)"/><path d=" M 359.485 591.92 C 359.485 591.92 372.028 606.361 372.335 606.521 L 372.335 604.287 L 361.829 591.654 L 359.485 591.92 Z " fill="rgb(48,44,50)"/><path d=" M 343.662 573.926 C 343.662 573.926 338.485 585.369 339.286 589.057 C 340.088 592.744 347.458 582.309 347.458 582.309 L 343.662 573.926 Z " fill="rgb(48,44,50)"/><path d=" M 348.112 563.447 C 348.112 563.447 339.885 565.418 336.11 576.807 C 332.336 588.193 334.063 592.564 334.063 592.564 L 339.798 588.555 C 339.798 588.555 339.271 583.172 343.206 573.863 C 347.141 564.555 348.112 565.404 348.112 565.404 L 348.112 563.447 Z " fill="rgb(68,66,71)"/><path d=" M 352.826 564.445 C 352.826 564.445 344.6 566.416 340.824 577.805 C 337.05 589.191 338.861 591.25 338.861 591.25 L 340.524 590.881 C 340.524 590.881 338.426 587.178 342.36 577.869 C 346.294 568.559 352.826 566.402 352.826 566.402 L 352.826 564.445 Z " fill="rgb(183,151,91)"/><path d=" M 340.205 587.59 L 335.087 591.492 C 335.087 591.492 349.929 596.895 367.267 590.246 L 363.117 585.127 L 340.205 587.59 Z " fill="rgb(164,121,83)"/><path d=" M 341.229 586.787 L 336.11 590.689 C 336.11 590.689 349.929 595.801 367.267 589.15 L 363.117 584.031 L 341.229 586.787 Z " fill="rgb(183,151,91)"/><path d=" M 344.855 582.357 C 344.855 582.459 343.915 585.188 341.229 586.787 C 341.229 586.787 354.746 589.223 363.117 585.125 C 363.117 585.125 361.829 576.826 357.798 578.543 C 353.768 580.262 344.855 582.357 344.855 582.357 Z " fill="rgb(206,214,231)"/><path d=" M 343.354 571.76 C 343.354 571.76 343.014 574.787 343.354 575.236 C 343.694 575.684 343.758 576.037 343.63 576.773 C 343.502 577.51 343.502 581.066 344.079 581.834 C 344.655 582.604 347.09 587.248 348.755 587.279 C 350.42 587.313 357.436 584.43 357.531 580.682 C 357.531 580.682 358.044 581.354 358.717 580.969 C 359.39 580.586 359.485 577.799 359.485 577.799 C 359.485 577.799 353.747 565.273 348.112 565.818 C 348.112 565.818 343.334 569.244 343.354 571.76 Z " fill="rgb(218,226,242)"/><path d=" M 348.112 563.447 C 348.112 563.447 354.071 561.85 358.714 566.795 C 363.355 571.742 368.453 583.613 372.335 584.906 L 372.335 589.807 C 372.335 589.807 362.898 584.982 360.616 577.525 C 358.333 570.066 348.112 563.447 348.112 563.447 Z " fill="rgb(48,44,50)"/><path d=" M 348.112 566.066 C 348.112 566.066 349.639 572.783 356.183 573.012 C 358.009 571.262 352.001 566.066 352.001 566.066 C 352.001 566.066 350.761 565.082 348.112 565.404 L 348.112 566.066 Z " fill="rgb(202,131,78)"/><path d=" M 348.112 565.404 C 348.112 565.404 354.442 567.029 359.69 579.945 C 368.604 594.348 372.335 593.635 372.335 593.635 L 372.335 589.807 C 372.335 589.807 365.866 584.602 361.909 577.449 C 357.952 570.295 355.316 563.447 348.112 563.447 L 348.112 565.404 Z " fill="rgb(68,66,71)"/><path d=" M 348.112 563.447 C 348.112 563.447 339.885 565.418 336.11 576.807 C 332.336 588.193 334.063 592.564 334.063 592.564 L 335.575 591.654 C 335.575 591.654 333.711 586.18 337.646 576.871 C 341.58 567.561 348.112 565.404 348.112 565.404 L 348.112 563.447 Z " fill="rgb(183,151,91)"/><path d=" M 348.112 566.066 C 348.112 566.066 347.101 570.391 343.195 571.82 C 343.195 571.82 341.976 564.777 348.112 565.404 L 348.112 566.066 Z " fill="rgb(182,120,76)"/><path d=" M 343.323 574.75 C 343.323 574.75 343.5 574.656 343.783 574.555 C 344.064 574.448 344.457 574.352 344.86 574.304 C 345.262 574.229 345.683 574.25 345.972 574.365 C 346.264 574.477 346.435 574.597 346.435 574.597 L 346.424 574.634 C 346.424 574.634 346.209 574.675 345.922 574.666 C 345.781 574.646 345.61 574.679 345.435 574.66 C 345.259 574.631 345.069 574.623 344.876 574.61 C 344.106 574.582 343.337 574.785 343.337 574.785 L 343.323 574.75 Z " fill="rgb(202,131,78)"/><path d=" M 352.82 574.628 C 352.82 574.629 351.816 574.435 350.814 574.471 C 350.564 574.485 350.316 574.496 350.085 574.526 C 349.855 574.545 349.634 574.509 349.449 574.525 C 349.074 574.525 348.803 574.475 348.803 574.475 L 348.794 574.432 C 348.794 574.432 349.026 574.301 349.405 574.181 C 349.593 574.117 349.82 574.092 350.065 574.071 C 350.31 574.055 350.57 574.096 350.829 574.121 C 351.346 574.172 351.854 574.271 352.224 574.383 C 352.595 574.488 352.833 574.586 352.833 574.587 L 352.82 574.628 Z " fill="rgb(202,131,78)"/><path d=" M 349.386 575.75 C 349.386 575.75 349.582 575.795 349.873 575.83 C 350.165 575.86 350.549 575.911 350.935 575.89 C 351.127 575.895 351.32 575.894 351.5 575.865 C 351.68 575.843 351.854 575.851 351.995 575.813 C 352.285 575.768 352.488 575.75 352.488 575.75 C 352.488 575.75 352.31 575.836 352.027 575.948 C 351.745 576.053 351.342 576.133 350.936 576.137 C 350.733 576.144 350.532 576.11 350.343 576.091 C 350.155 576.065 349.985 576.007 349.841 575.965 C 349.554 575.862 349.386 575.75 349.386 575.75 Z " fill="rgb(69,71,97)"/><path d=" M 346.088 575.75 C 346.088 575.75 345.965 575.855 345.742 575.954 C 345.629 575.996 345.496 576.051 345.346 576.078 C 345.195 576.097 345.034 576.131 344.87 576.122 C 344.544 576.119 344.222 576.039 344.004 575.938 C 343.785 575.831 343.65 575.75 343.65 575.75 C 343.65 575.75 343.813 575.772 344.04 575.82 C 344.149 575.858 344.288 575.855 344.428 575.877 C 344.569 575.905 344.721 575.909 344.872 575.903 C 345.175 575.924 345.477 575.872 345.706 575.837 C 345.934 575.799 346.088 575.75 346.088 575.75 Z " fill="rgb(69,71,97)"/><path d=" M 347.885 583.295 C 347.885 583.295 348.555 583.711 349.505 583.295" fill="rgb(218,226,242)"/><path d=" M 347.885 583.295 C 347.885 583.295 347.99 583.324 348.142 583.346 C 348.294 583.362 348.492 583.396 348.691 583.379 C 348.89 583.389 349.09 583.352 349.242 583.329 C 349.394 583.304 349.505 583.295 349.505 583.295 C 349.505 583.295 349.418 583.355 349.273 583.433 C 349.13 583.507 348.914 583.566 348.694 583.57 C 348.584 583.575 348.475 583.555 348.374 583.538 C 348.272 583.521 348.184 583.477 348.109 583.448 C 347.961 583.373 347.885 583.295 347.885 583.295 Z " fill="rgb(69,71,97)"/><path d=" M 346.768 582.137 C 346.768 582.137 347.731 582.033 348.694 582.041 C 349.658 582.033 350.621 582.137 350.621 582.137 C 350.621 582.137 349.658 582.24 348.694 582.232 C 347.731 582.24 346.768 582.137 346.768 582.137 Z " fill="rgb(69,71,97)"/><path d=" M 347.219 579.953 C 347.219 579.953 347.301 580.078 347.474 580.187 C 347.556 580.248 347.665 580.294 347.784 580.338 C 347.894 580.399 348.039 580.405 348.167 580.444 C 348.299 580.479 348.439 580.483 348.567 580.504 C 348.695 580.527 348.819 580.526 348.924 580.533 C 349.136 580.55 349.281 580.572 349.281 580.572 C 349.281 580.572 349.143 580.606 348.927 580.642 C 348.713 580.688 348.42 580.672 348.128 580.632 C 347.988 580.582 347.839 580.565 347.716 580.489 C 347.587 580.433 347.484 580.349 347.404 580.269 C 347.323 580.191 347.278 580.105 347.252 580.047 C 347.225 579.988 347.219 579.953 347.219 579.953 Z " fill="rgb(69,71,97)"/></g></svg>