<?xml version="1.0" encoding="UTF-8" standalone="no"?><!-- Generator: Gravit.io --><svg xmlns="http://www.w3.org/2000/svg" xmlns:xlink="http://www.w3.org/1999/xlink" style="isolation:isolate" viewBox="478.206 608.225 69.123 103.683" width="69.123pt" height="103.683pt"><g><path d=" M 547.329 709.188 C 547.329 710.69 546.11 711.908 544.607 711.908 L 480.928 711.908 C 479.425 711.908 478.206 710.69 478.206 709.188 L 478.206 610.946 C 478.206 609.444 479.425 608.225 480.928 608.225 L 544.607 608.225 C 546.11 608.225 547.329 609.444 547.329 610.946 L 547.329 709.188 Z " fill="rgb(234,232,232)"/><path d=" M 487.146 622 C 486.694 621.627 486.225 621.244 485.866 620.819 C 485.805 620.746 485.717 620.707 485.625 620.707 L 485.606 620.707 C 485.512 620.707 485.423 620.746 485.362 620.819 C 485.004 621.244 484.534 621.627 484.082 622 C 483.123 622.783 482.134 623.596 482.134 624.853 C 482.134 625.992 482.929 626.789 484.073 626.789 C 484.625 626.789 485.105 626.465 485.432 626.168 C 485.276 626.838 484.982 627.633 484.429 628.256 L 486.799 628.256 C 486.245 627.631 485.951 626.836 485.795 626.164 C 486.121 626.463 486.603 626.789 487.156 626.789 C 488.298 626.789 489.095 625.992 489.095 624.853 C 489.095 623.598 488.104 622.785 487.146 622 Z " fill="rgb(68,66,71)"/><path d=" M 485.606 628.256 L 485.606 620.707 L 485.606 620.707 C 485.512 620.707 485.423 620.746 485.362 620.819 C 485.004 621.244 484.534 621.627 484.082 622 C 483.123 622.783 482.134 623.596 482.134 624.853 C 482.134 625.992 482.929 626.789 484.073 626.789 C 484.625 626.789 485.105 626.465 485.432 626.168 C 485.276 626.838 484.982 627.633 484.429 628.256 L 485.606 628.256 Z " fill="rgb(87,86,90)"/><path d=" M 483.492 618.674 L 484.439 618.674 L 484.439 615.876 L 485.146 615.07 L 487.552 618.674 L 488.673 618.674 L 485.81 614.45 L 488.467 611.337 L 487.291 611.337 L 485.048 614.091 C 484.863 614.33 484.667 614.591 484.472 614.874 L 484.439 614.874 L 484.439 611.337 L 483.492 611.337 L 483.492 618.674 Z " fill="rgb(68,66,71)"/><path d=" M 538.388 698.133 C 538.84 698.506 539.31 698.889 539.669 699.315 C 539.728 699.387 539.818 699.426 539.91 699.426 L 539.929 699.426 C 540.022 699.426 540.111 699.387 540.172 699.315 C 540.531 698.889 541.001 698.506 541.453 698.133 C 542.411 697.35 543.401 696.537 543.401 695.28 C 543.401 694.139 542.605 693.344 541.462 693.344 C 540.91 693.344 540.429 693.668 540.101 693.965 C 540.26 693.293 540.553 692.5 541.106 691.877 L 538.736 691.877 C 539.29 692.5 539.583 693.297 539.74 693.969 C 539.414 693.67 538.931 693.344 538.379 693.344 C 537.237 693.344 536.439 694.139 536.439 695.28 C 536.439 696.535 537.43 697.348 538.388 698.133 Z " fill="rgb(68,66,71)"/><path d=" M 539.929 691.877 L 539.929 699.426 L 539.929 699.426 C 540.022 699.426 540.111 699.387 540.172 699.315 C 540.531 698.889 541.001 698.506 541.453 698.133 C 542.411 697.35 543.401 696.537 543.401 695.28 C 543.401 694.139 542.605 693.344 541.462 693.344 C 540.91 693.344 540.429 693.668 540.101 693.965 C 540.26 693.293 540.553 692.5 541.106 691.877 L 539.929 691.877 Z " fill="rgb(87,86,90)"/><path d=" M 542.042 701.459 L 541.095 701.459 L 541.095 704.256 L 540.388 705.062 L 537.982 701.459 L 536.861 701.459 L 539.724 705.682 L 537.067 708.795 L 538.243 708.795 L 540.486 706.041 C 540.671 705.802 540.867 705.541 541.062 705.258 L 541.095 705.258 L 541.095 708.795 L 542.042 708.795 L 542.042 701.459 Z " fill="rgb(68,66,71)"/><path d=" M 495.852 683.631 C 495.852 683.631 491.799 682.166 488.025 678.069 L 488.025 673.051 L 495.852 673.051 L 495.852 683.631 Z " fill="rgb(68,66,71)"/><path d=" M 488.025 670.559 L 488.025 642.405 C 488.025 642.405 491.564 637.893 498.667 637.225 C 498.667 637.225 498.799 665.742 488.025 670.559 Z " fill="rgb(68,66,71)"/><path d=" M 508.804 638.772 L 512.425 638.772 L 512.425 645.42 L 508.804 645.42 L 508.804 638.772 Z " fill="rgb(48,44,50)"/><path d=" M 501.541 636.475 L 505.164 636.475 L 505.164 643.123 L 501.541 643.123 L 501.541 636.475 Z " fill="rgb(48,44,50)"/><path d=" M 512.453 636.129 L 516.073 636.129 L 516.073 642.778 L 512.453 642.778 L 512.453 636.129 Z " fill="rgb(166,64,69)"/><path d=" M 505.18 638.297 L 508.804 638.297 L 508.804 644.947 L 505.18 644.947 L 505.18 638.297 Z " fill="rgb(166,64,69)"/><path d=" M 515.96 634.125 L 519.582 634.125 L 519.582 640.776 L 515.96 640.776 L 515.96 634.125 Z " fill="rgb(48,44,50)"/><path d=" M 519.608 633.992 L 523.231 633.992 L 523.231 638.133 L 519.608 638.133 L 519.608 633.992 Z " fill="rgb(166,64,69)"/><path d=" M 497.696 637.33 C 497.696 637.33 498.965 655.957 488.025 670.559 C 488.038 671.844 488.045 672.496 488.045 672.496 C 488.045 672.496 494.483 669.471 498.146 656.709 C 501.81 643.949 500.15 637.33 500.15 637.33 L 497.696 637.33 Z " fill="rgb(48,44,50)"/><path d=" M 499.37 637.748 C 499.37 637.748 499.706 650.004 496.68 657.348 C 493.655 664.692 491.551 669.699 488.025 672.465 L 488.025 678.069 C 488.025 678.069 497.964 668.459 501.222 657.635 C 504.481 646.811 503.872 637.342 503.872 637.342 L 499.37 637.748 Z " fill="rgb(234,232,232)"/><path d=" M 499.185 637.422 C 499.185 637.881 500.119 638.254 501.269 638.254 C 502.42 638.254 503.352 637.881 503.352 637.422 C 503.352 636.963 502.42 636.59 501.269 636.59 C 500.119 636.59 499.185 636.963 499.185 637.422 Z " fill="rgb(166,64,69)"/><path d=" M 499.34 639.254 C 499.316 639.703 500.209 640.115 501.334 640.176 C 502.46 640.235 503.391 639.918 503.414 639.469 C 503.439 639.018 502.546 638.606 501.42 638.547 C 500.296 638.488 499.364 638.805 499.34 639.254 Z " fill="rgb(166,64,69)"/><path d=" M 499.372 641.36 C 499.324 641.799 500.179 642.252 501.278 642.371 C 502.378 642.49 503.308 642.228 503.355 641.789 C 503.403 641.35 502.55 640.897 501.449 640.78 C 500.349 640.66 499.419 640.92 499.372 641.36 Z " fill="rgb(166,64,69)"/><path d=" M 499.275 643.697 C 499.205 644.129 500.018 644.621 501.094 644.797 C 502.168 644.977 503.097 644.772 503.169 644.342 C 503.239 643.912 502.426 643.42 501.35 643.242 C 500.276 643.065 499.347 643.27 499.275 643.697 Z " fill="rgb(166,64,69)"/><path d=" M 499.047 646.225 C 498.953 646.645 499.726 647.176 500.776 647.414 C 501.825 647.651 502.754 647.502 502.847 647.084 C 502.942 646.664 502.168 646.133 501.119 645.895 C 500.069 645.658 499.141 645.805 499.047 646.225 Z " fill="rgb(166,64,69)"/><path d=" M 498.679 648.897 C 498.56 649.307 499.295 649.877 500.319 650.174 C 501.344 650.471 502.27 650.379 502.388 649.969 C 502.507 649.561 501.772 648.988 500.749 648.692 C 499.723 648.397 498.798 648.487 498.679 648.897 Z " fill="rgb(166,64,69)"/><path d=" M 498.166 651.67 C 498.023 652.069 498.719 652.682 499.717 653.037 C 500.717 653.393 501.64 653.358 501.783 652.957 C 501.926 652.559 501.23 651.947 500.232 651.592 C 499.232 651.237 498.307 651.272 498.166 651.67 Z " fill="rgb(166,64,69)"/><path d=" M 497.501 654.502 C 497.336 654.891 497.99 655.541 498.965 655.957 C 499.937 656.371 500.862 656.393 501.027 656.004 C 501.194 655.615 500.539 654.963 499.564 654.549 C 498.591 654.133 497.667 654.112 497.501 654.502 Z " fill="rgb(166,64,69)"/><path d=" M 496.68 657.348 C 496.491 657.727 497.107 658.418 498.055 658.893 C 499.004 659.367 499.927 659.444 500.116 659.065 C 500.305 658.686 499.689 657.994 498.741 657.52 C 497.793 657.047 496.87 656.969 496.68 657.348 Z " fill="rgb(166,64,69)"/><path d=" M 495.698 660.166 C 495.485 660.535 496.06 661.266 496.984 661.799 C 497.907 662.334 498.828 662.467 499.042 662.098 C 499.255 661.728 498.679 660.998 497.756 660.463 C 496.832 659.93 495.911 659.797 495.698 660.166 Z " fill="rgb(166,64,69)"/><path d=" M 494.546 662.912 C 494.309 663.272 494.845 664.043 495.744 664.635 C 496.642 665.228 497.562 665.418 497.799 665.059 C 498.036 664.699 497.5 663.928 496.601 663.336 C 495.703 662.742 494.784 662.553 494.546 662.912 Z " fill="rgb(166,64,69)"/><path d=" M 493.221 665.543 C 492.961 665.893 493.458 666.703 494.331 667.356 C 495.204 668.008 496.122 668.252 496.383 667.905 C 496.643 667.555 496.146 666.744 495.274 666.092 C 494.401 665.442 493.482 665.196 493.221 665.543 Z " fill="rgb(166,64,69)"/><path d=" M 491.717 668.016 C 491.433 668.356 491.889 669.205 492.737 669.916 C 493.585 670.629 494.503 670.93 494.786 670.592 C 495.071 670.252 494.614 669.403 493.765 668.69 C 492.919 667.981 492.001 667.678 491.717 668.016 Z " fill="rgb(166,64,69)"/><path d=" M 490.026 670.287 C 489.719 670.615 490.137 671.506 490.959 672.278 C 491.781 673.047 492.697 673.406 493.005 673.076 C 493.312 672.748 492.895 671.858 492.073 671.086 C 491.251 670.317 490.335 669.957 490.026 670.287 Z " fill="rgb(166,64,69)"/><path d=" M 488.145 672.313 C 487.814 672.631 488.191 673.563 488.988 674.391 C 489.785 675.221 490.701 675.635 491.032 675.317 C 491.363 674.998 490.986 674.067 490.188 673.238 C 489.391 672.408 488.477 671.994 488.145 672.313 Z " fill="rgb(166,64,69)"/><path d=" M 509.049 653.629 L 514.804 653.629 L 514.804 647.26 L 509.049 647.26 L 509.049 653.629 Z " fill="rgb(73,93,167)"/><path d=" M 514.556 653.36 L 509.049 653.36 L 509.049 659.137 L 514.556 653.36 Z " fill="rgb(183,151,91)"/><path d=" M 514.756 652.869 L 508.95 652.869 L 508.95 648.141 L 514.756 648.141 L 514.756 652.869 Z " fill="rgb(183,151,91)"/><path d=" M 514.756 647.725 L 509.049 647.725 L 509.049 646.182 L 514.756 642.727 L 514.756 647.725 Z " fill="rgb(183,151,91)"/><path d=" M 507.935 659.69 L 508.156 646.285 L 503.431 643.613 C 503.431 643.613 502.503 654.715 501.382 656.709 C 500.26 658.703 507.935 659.69 507.935 659.69 Z " fill="rgb(68,66,71)"/><path d=" M 507.852 659.728 L 509.257 659.033 L 509.257 645.317 L 507.852 645.317 L 507.852 659.728 Z " fill="rgb(218,226,242)"/><path d=" M 507.4 660.254 L 508.804 659.559 L 508.804 645.84 L 507.4 645.84 L 507.4 660.254 Z " fill="rgb(48,44,50)"/><path d=" M 498.222 664.905 C 498.698 663.705 499.504 662.592 500.1 661.446 C 501.07 659.576 501.762 657.598 502.078 655.539 C 502.107 655.539 502.136 655.535 502.166 655.535 C 505.068 655.535 507.552 657.334 508.564 659.877 C 508.349 660.119 508.14 660.371 507.872 660.596 C 507.39 661.002 506.822 661.322 506.319 661.707 C 505.097 662.645 504.164 663.936 502.798 664.67 C 501.768 665.223 500.674 665.608 499.578 666.004 C 499.107 666.176 498.63 666.346 498.14 666.459 C 497.993 666.438 497.845 666.416 497.696 666.395 C 497.877 665.893 498.033 665.381 498.222 664.905 Z " fill="rgb(48,44,50)"/><path d=" M 498.222 664.905 C 498.698 663.705 499.504 662.592 500.1 661.446 C 500.984 659.742 501.637 657.946 501.986 656.082 C 502.046 656.08 502.105 656.076 502.166 656.076 C 504.935 656.076 507.29 657.852 508.156 660.326 C 508.067 660.418 507.975 660.51 507.872 660.596 C 507.39 661.002 506.822 661.322 506.319 661.707 C 505.097 662.645 504.164 663.936 502.798 664.67 C 501.768 665.223 500.674 665.608 499.578 666.004 C 499.107 666.176 498.63 666.346 498.14 666.459 C 497.993 666.438 497.845 666.416 497.696 666.397 C 497.877 665.893 498.033 665.381 498.222 664.905 Z " fill="rgb(183,151,91)"/><path d=" M 500.1 661.446 C 500.488 660.696 500.832 659.93 501.125 659.147 C 501.452 659.043 501.803 658.987 502.166 658.987 C 504.029 658.987 505.544 660.469 505.598 662.321 C 504.698 663.151 503.885 664.086 502.798 664.67 C 502.143 665.022 501.463 665.305 500.771 665.567 C 499.896 665.178 499.215 664.434 498.907 663.518 C 499.302 662.822 499.739 662.141 500.1 661.446 Z " fill="rgb(73,93,167)"/><path d=" M 521.592 648.863 L 515.957 652.117 L 515.67 641.623 L 521.592 638.362 L 521.592 648.863 Z " fill="rgb(68,66,71)"/><path d=" M 514.556 652.715 L 515.96 652.715 L 515.96 642.096 L 514.556 642.096 L 514.556 652.715 Z " fill="rgb(218,226,242)"/><path d=" M 526.955 635.168 C 526.955 635.168 524.53 633.807 522.029 633.457 L 521.727 648.674 C 521.727 648.674 525.565 647.25 527.29 647.315 L 526.955 635.168 Z " fill="rgb(185,200,230)"/><path d=" M 526.955 635.168 L 527.829 635.5 L 527.829 647.211 L 526.955 647.211 L 526.955 635.168 Z " fill="rgb(117,98,98)"/><path d=" M 527.829 635.5 C 527.829 635.5 529.122 636.039 529.683 636.471 L 529.683 647.051 L 527.829 647.051 L 527.829 635.5 Z " fill="rgb(48,44,50)"/><path d=" M 529.683 636.471 C 529.683 636.471 533.736 637.936 537.51 642.033 L 537.51 647.051 L 529.683 647.051 L 529.683 636.471 Z " fill="rgb(68,66,71)"/><path d=" M 515.077 652.242 L 516.481 652.242 L 516.481 641.623 L 515.077 641.623 L 515.077 652.242 Z " fill="rgb(48,44,50)"/><path d=" M 521.156 633.457 L 522.029 633.457 L 522.029 648.383 L 521.156 648.383 L 521.156 633.457 Z " fill="rgb(117,98,98)"/><path d=" M 498.839 666.649 C 499.365 666.649 500.051 666.543 500.913 666.217 C 503.766 665.137 507.256 662.158 511.284 657.369 C 516.135 651.602 520.904 649.309 524.051 648.401 C 527.454 647.418 531.322 647.602 531.345 647.606 L 531.512 646.666 C 531.412 646.649 527.448 646.44 523.849 647.465 C 520.559 648.403 515.583 650.776 510.554 656.756 C 501.505 667.516 498.054 665.557 498.021 665.535 L 497.482 666.322 C 497.552 666.371 497.982 666.649 498.839 666.649 Z " fill="rgb(164,121,83)"/><path d=" M 521.156 637.758 C 521.156 637.758 509.494 645.363 508.393 645.363 C 507.293 645.363 503.988 643.049 503.988 643.049 L 503.988 644.393 C 503.988 644.393 507.972 647.051 508.491 647.051 C 509.009 647.051 521.156 639.178 521.156 639.178 L 521.156 637.758 Z " fill="rgb(218,226,242)"/><path d=" M 519.852 634.113 C 519.852 634.113 509.996 641.358 508.598 641.358 C 507.199 641.358 503.143 637.735 503.143 637.735 L 519.852 634.113 Z " fill="rgb(183,151,91)"/><path d=" M 521.156 636.832 C 521.156 636.832 509.494 644.569 508.393 644.569 C 507.293 644.569 503.988 641.961 503.988 641.961 L 503.988 643.266 C 503.988 643.266 507.972 645.84 508.491 645.84 C 509.009 645.84 521.156 638.211 521.156 638.211 L 521.156 636.832 Z " fill="rgb(183,151,91)"/><path d=" M 504.306 638.27 C 504.306 638.27 504.334 650.574 501.455 658.692 C 498.577 666.809 491.332 678.223 489.202 679.258 L 488.025 678.069 C 488.025 678.069 493.123 673.865 500.419 658.094 C 502.318 650.287 502.383 653.664 503.301 637.758 C 504.219 621.85 504.306 638.27 504.306 638.27 Z " fill="rgb(164,121,83)"/><path d=" M 537.51 649.543 L 537.51 677.697 C 537.51 677.697 533.97 682.209 526.869 682.877 C 526.869 682.877 526.736 654.36 537.51 649.543 Z " fill="rgb(68,66,71)"/><path d=" M 516.731 681.33 L 513.109 681.33 L 513.109 674.682 L 516.731 674.682 L 516.731 681.33 Z " fill="rgb(48,44,50)"/><path d=" M 523.994 683.627 L 520.371 683.627 L 520.371 676.978 L 523.994 676.978 L 523.994 683.627 Z " fill="rgb(48,44,50)"/><path d=" M 513.083 683.973 L 509.461 683.973 L 509.461 677.324 L 513.083 677.324 L 513.083 683.973 Z " fill="rgb(166,64,69)"/><path d=" M 520.352 681.803 L 516.731 681.803 L 516.731 675.155 L 520.352 675.155 L 520.352 681.803 Z " fill="rgb(166,64,69)"/><path d=" M 509.575 685.975 L 505.953 685.975 L 505.953 679.326 L 509.575 679.326 L 509.575 685.975 Z " fill="rgb(48,44,50)"/><path d=" M 505.926 686.108 L 502.304 686.108 L 502.304 681.969 L 505.926 681.969 L 505.926 686.108 Z " fill="rgb(166,64,69)"/><path d=" M 527.838 682.772 C 527.838 682.772 526.57 664.145 537.51 649.543 C 537.497 648.258 537.49 647.606 537.49 647.606 C 537.49 647.606 531.051 650.631 527.387 663.393 C 523.724 676.153 525.385 682.772 525.385 682.772 L 527.838 682.772 Z " fill="rgb(48,44,50)"/><path d=" M 526.165 682.353 C 526.165 682.353 525.83 670.098 528.853 662.754 C 531.879 655.408 533.984 650.403 537.51 647.637 L 537.51 642.033 C 537.51 642.033 532.071 643.137 524.313 662.467 C 521.054 673.293 521.663 682.76 521.663 682.76 L 526.165 682.353 Z " fill="rgb(234,232,232)"/><path d=" M 526.348 682.68 C 526.348 682.219 525.417 681.848 524.265 681.848 C 523.115 681.848 522.182 682.219 522.182 682.68 C 522.182 683.139 523.115 683.512 524.265 683.512 C 525.417 683.512 526.348 683.139 526.348 682.68 Z " fill="rgb(166,64,69)"/><path d=" M 526.194 680.848 C 526.219 680.399 525.326 679.987 524.201 679.926 C 523.074 679.867 522.144 680.184 522.12 680.633 C 522.095 681.082 522.989 681.494 524.115 681.555 C 525.24 681.613 526.172 681.297 526.194 680.848 Z " fill="rgb(166,64,69)"/><path d=" M 526.164 678.742 C 526.211 678.301 525.357 677.85 524.258 677.731 C 523.157 677.613 522.227 677.873 522.179 678.313 C 522.133 678.752 522.986 679.205 524.086 679.322 C 525.185 679.442 526.115 679.182 526.164 678.742 Z " fill="rgb(166,64,69)"/><path d=" M 526.259 676.403 C 526.329 675.975 525.515 675.483 524.441 675.303 C 523.367 675.125 522.437 675.33 522.366 675.76 C 522.297 676.19 523.109 676.682 524.183 676.86 C 525.26 677.037 526.188 676.832 526.259 676.403 Z " fill="rgb(166,64,69)"/><path d=" M 526.487 673.877 C 526.582 673.457 525.808 672.926 524.759 672.688 C 523.71 672.451 522.782 672.598 522.687 673.018 C 522.593 673.438 523.366 673.971 524.416 674.207 C 525.466 674.444 526.392 674.295 526.487 673.877 Z " fill="rgb(166,64,69)"/><path d=" M 526.855 671.205 C 526.974 670.795 526.24 670.225 525.216 669.928 C 524.191 669.631 523.264 669.723 523.146 670.131 C 523.028 670.541 523.762 671.113 524.787 671.41 C 525.81 671.705 526.737 671.613 526.855 671.205 Z " fill="rgb(166,64,69)"/><path d=" M 527.369 668.432 C 527.512 668.031 526.816 667.422 525.818 667.065 C 524.818 666.709 523.893 666.744 523.752 667.145 C 523.61 667.543 524.304 668.155 525.303 668.51 C 526.303 668.865 527.227 668.832 527.369 668.432 Z " fill="rgb(166,64,69)"/><path d=" M 528.034 665.6 C 528.199 665.211 527.544 664.559 526.57 664.145 C 525.597 663.731 524.673 663.709 524.508 664.098 C 524.342 664.487 524.997 665.139 525.97 665.553 C 526.944 665.969 527.868 665.988 528.034 665.6 Z " fill="rgb(166,64,69)"/><path d=" M 528.853 662.754 C 529.044 662.375 528.428 661.684 527.479 661.209 C 526.531 660.735 525.609 660.658 525.419 661.037 C 525.23 661.416 525.845 662.108 526.794 662.582 C 527.742 663.055 528.665 663.133 528.853 662.754 Z " fill="rgb(166,64,69)"/><path d=" M 529.837 659.936 C 530.051 659.567 529.474 658.836 528.551 658.301 C 527.628 657.768 526.707 657.635 526.494 658.004 C 526.28 658.373 526.857 659.103 527.779 659.639 C 528.702 660.172 529.624 660.305 529.837 659.936 Z " fill="rgb(166,64,69)"/><path d=" M 530.989 657.19 C 531.224 656.83 530.689 656.059 529.791 655.467 C 528.892 654.873 527.973 654.684 527.736 655.043 C 527.5 655.403 528.035 656.174 528.933 656.766 C 529.832 657.36 530.752 657.549 530.989 657.19 Z " fill="rgb(166,64,69)"/><path d=" M 532.313 654.559 C 532.573 654.209 532.077 653.399 531.204 652.746 C 530.332 652.094 529.413 651.848 529.152 652.197 C 528.892 652.547 529.388 653.358 530.261 654.01 C 531.134 654.66 532.053 654.906 532.313 654.559 Z " fill="rgb(166,64,69)"/><path d=" M 533.818 652.086 C 534.102 651.746 533.645 650.897 532.799 650.184 C 531.95 649.473 531.032 649.172 530.749 649.51 C 530.465 649.85 530.922 650.699 531.768 651.41 C 532.616 652.123 533.534 652.424 533.818 652.086 Z " fill="rgb(166,64,69)"/><path d=" M 535.509 649.815 C 535.816 649.487 535.399 648.596 534.576 647.824 C 533.755 647.055 532.838 646.697 532.53 647.026 C 532.222 647.353 532.639 648.244 533.462 649.016 C 534.284 649.785 535.201 650.143 535.509 649.815 Z " fill="rgb(166,64,69)"/><path d=" M 537.389 647.789 C 537.72 647.471 537.344 646.539 536.547 645.711 C 535.749 644.881 534.835 644.467 534.503 644.785 C 534.171 645.103 534.549 646.033 535.345 646.863 C 536.143 647.694 537.057 648.108 537.389 647.789 Z " fill="rgb(166,64,69)"/><path d=" M 516.487 666.473 L 510.729 666.473 L 510.729 672.842 L 516.487 672.842 L 516.487 666.473 Z " fill="rgb(73,93,167)"/><path d=" M 510.978 666.742 L 516.487 666.742 L 516.487 660.965 L 510.978 666.742 Z " fill="rgb(183,151,91)"/><path d=" M 510.779 667.233 L 516.585 667.233 L 516.585 671.959 L 510.779 671.959 L 510.779 667.233 Z " fill="rgb(183,151,91)"/><path d=" M 510.779 672.377 L 516.487 672.377 L 516.487 673.92 L 510.779 677.375 L 510.779 672.377 Z " fill="rgb(183,151,91)"/><path d=" M 517.599 660.412 L 517.379 673.817 L 522.102 676.487 C 522.102 676.487 523.031 665.385 524.153 663.393 C 525.275 661.399 517.599 660.412 517.599 660.412 Z " fill="rgb(68,66,71)"/><path d=" M 517.681 660.371 L 516.278 661.067 L 516.278 674.787 L 517.681 674.787 L 517.681 660.371 Z " fill="rgb(218,226,242)"/><path d=" M 518.135 659.848 L 516.731 660.543 L 516.731 674.262 L 518.135 674.262 L 518.135 659.848 Z " fill="rgb(48,44,50)"/><path d=" M 527.313 655.196 C 526.837 656.397 526.031 657.508 525.434 658.656 C 524.465 660.526 523.773 662.504 523.456 664.563 C 523.427 664.563 523.398 664.565 523.37 664.565 C 520.467 664.565 517.984 662.768 516.97 660.225 C 517.185 659.983 517.395 659.731 517.663 659.506 C 518.144 659.1 518.714 658.78 519.217 658.395 C 520.437 657.457 521.371 656.168 522.736 655.432 C 523.766 654.879 524.861 654.494 525.958 654.098 C 526.428 653.926 526.905 653.756 527.394 653.641 C 527.542 653.664 527.689 653.686 527.838 653.707 C 527.658 654.209 527.503 654.721 527.313 655.196 Z " fill="rgb(48,44,50)"/><path d=" M 527.313 655.196 C 526.837 656.397 526.031 657.508 525.434 658.656 C 524.551 660.36 523.898 662.155 523.549 664.02 C 523.489 664.022 523.429 664.026 523.37 664.026 C 520.599 664.026 518.245 662.25 517.379 659.776 C 517.468 659.684 517.56 659.592 517.663 659.506 C 518.144 659.1 518.714 658.78 519.217 658.395 C 520.437 657.457 521.371 656.168 522.736 655.432 C 523.766 654.879 524.861 654.494 525.958 654.098 C 526.428 653.926 526.905 653.756 527.394 653.641 C 527.542 653.664 527.69 653.686 527.838 653.707 C 527.658 654.209 527.503 654.721 527.313 655.196 Z " fill="rgb(183,151,91)"/><path d=" M 525.434 658.656 C 525.046 659.405 524.704 660.172 524.41 660.955 C 524.081 661.059 523.732 661.115 523.37 661.115 C 521.506 661.115 519.992 659.631 519.936 657.781 C 520.838 656.951 521.65 656.016 522.736 655.432 C 523.391 655.08 524.073 654.797 524.763 654.535 C 525.638 654.924 526.32 655.668 526.628 656.582 C 526.233 657.28 525.796 657.961 525.434 658.656 Z " fill="rgb(73,93,167)"/><path d=" M 503.942 671.237 L 509.579 667.985 L 509.863 678.478 L 503.942 681.74 L 503.942 671.237 Z " fill="rgb(68,66,71)"/><path d=" M 510.978 667.387 L 509.575 667.387 L 509.575 678.006 L 510.978 678.006 L 510.978 667.387 Z " fill="rgb(218,226,242)"/><path d=" M 498.579 684.932 C 498.579 684.932 501.005 686.295 503.506 686.645 L 503.808 671.428 C 503.808 671.428 499.97 672.852 498.245 672.787 L 498.579 684.932 Z " fill="rgb(185,200,230)"/><path d=" M 498.579 684.932 L 497.706 684.602 L 497.706 672.891 L 498.579 672.891 L 498.579 684.932 Z " fill="rgb(117,98,98)"/><path d=" M 497.706 684.602 C 497.706 684.602 496.412 684.063 495.852 683.631 L 495.852 673.051 L 497.706 673.051 L 497.706 684.602 Z " fill="rgb(48,44,50)"/><path d=" M 510.457 667.86 L 509.054 667.86 L 509.054 678.478 L 510.457 678.478 L 510.457 667.86 Z " fill="rgb(48,44,50)"/><path d=" M 504.379 686.645 L 503.506 686.645 L 503.506 671.719 L 504.379 671.719 L 504.379 686.645 Z " fill="rgb(117,98,98)"/><path d=" M 526.696 653.453 C 526.17 653.453 525.484 653.559 524.623 653.885 C 521.768 654.965 518.28 657.942 514.251 662.733 C 509.399 668.502 504.631 670.795 501.484 671.701 C 498.081 672.684 494.382 672.231 494.358 672.227 L 494.192 673.166 C 494.292 673.184 498.087 673.662 501.686 672.635 C 504.975 671.699 509.952 669.326 514.981 663.346 C 524.03 652.586 527.48 654.545 527.513 654.567 L 528.053 653.78 C 527.984 653.731 527.553 653.453 526.696 653.453 Z " fill="rgb(164,121,83)"/><path d=" M 504.379 682.344 C 504.379 682.344 516.041 674.738 517.141 674.738 C 518.242 674.738 521.547 677.053 521.547 677.053 L 521.547 675.709 C 521.547 675.709 517.562 673.051 517.045 673.051 C 516.525 673.051 504.379 680.924 504.379 680.924 L 504.379 682.344 Z " fill="rgb(218,226,242)"/><path d=" M 505.682 685.988 C 505.682 685.988 515.538 678.744 516.937 678.744 C 518.336 678.744 522.391 682.367 522.391 682.367 L 505.682 685.988 Z " fill="rgb(183,151,91)"/><path d=" M 504.379 683.27 C 504.379 683.27 516.041 675.533 517.141 675.533 C 518.242 675.533 521.547 678.141 521.547 678.141 L 521.547 676.836 C 521.547 676.836 517.562 674.262 517.045 674.262 C 516.525 674.262 504.379 681.893 504.379 681.893 L 504.379 683.27 Z " fill="rgb(183,151,91)"/><path d=" M 521.229 681.83 C 521.229 681.83 521.201 669.526 524.08 661.41 C 526.959 653.293 533.54 642.002 536.494 640.996 L 537.51 642.033 C 534.959 643.322 526.666 655.873 525.115 662.008 C 523.217 669.815 523.15 666.438 522.235 682.344 C 521.316 698.252 521.229 681.83 521.229 681.83 Z " fill="rgb(164,121,83)"/><path d=" M 502.879 621.211 C 502.879 621.211 503.505 627.047 502.879 628.242 C 502.253 629.438 501.056 632.086 501.056 632.086 C 501.056 632.086 503.647 631.147 503.705 633.822 C 503.762 636.498 501.57 636.356 500.772 636.356 C 499.975 636.356 497.67 635.416 499.179 631.715 C 500.687 628.016 500.956 629.494 501.192 626.819 C 501.428 624.143 501.192 621.383 501.192 621.383 L 502.879 621.211 Z " fill="rgb(221,220,219)"/><path d=" M 502.054 619.496 C 502.054 619.496 502.679 625.332 502.054 626.528 C 501.428 627.725 500.232 630.371 500.232 630.371 C 500.232 630.371 502.822 629.432 502.879 632.108 C 502.936 634.783 500.744 634.641 499.947 634.641 C 499.15 634.641 496.844 633.701 498.353 630.002 C 499.861 626.301 500.131 627.781 500.366 625.106 C 500.601 622.43 500.366 619.668 500.366 619.668 L 502.054 619.496 Z " fill="rgb(234,232,232)"/><path d=" M 500.96 627.895 C 500.96 627.895 496.485 644.934 506.643 644.934 C 516.802 644.934 515.595 631.932 512.42 627.353 C 509.247 622.778 500.96 627.895 500.96 627.895 Z " fill="rgb(221,220,219)"/><path d=" M 501.18 620.795 C 501.18 620.795 500.431 623.631 500.885 624.537 C 501.338 625.442 500.878 627 500.96 627.895 C 501.043 628.791 502.263 630.326 504.923 628.516 C 504.923 628.516 511.776 632.18 511.836 627.451 C 511.895 622.725 511.56 620.203 511.56 620.203 C 511.56 620.203 503.288 619.278 501.18 620.795 Z " fill="rgb(218,226,242)"/><path d=" M 519.766 618.699 C 519.766 618.699 519.141 624.535 519.766 625.731 C 520.393 626.928 521.59 629.574 521.59 629.574 C 521.59 629.574 518.999 628.635 518.942 631.311 C 518.885 633.987 521.077 633.844 521.875 633.844 C 522.67 633.844 524.976 632.905 523.468 629.203 C 521.96 625.504 521.691 626.985 521.455 624.307 C 521.22 621.633 521.455 618.871 521.455 618.871 L 519.766 618.699 Z " fill="rgb(107,107,110)"/><path d=" M 518.97 619.496 C 518.97 619.496 518.343 625.332 518.97 626.528 C 519.596 627.725 520.792 630.371 520.792 630.371 C 520.792 630.371 518.202 629.432 518.144 632.108 C 518.088 634.783 520.28 634.641 521.077 634.641 C 521.875 634.641 524.179 633.701 522.67 630.002 C 521.162 626.301 520.893 627.781 520.658 625.106 C 520.423 622.43 520.658 619.668 520.658 619.668 L 518.97 619.496 Z " fill="rgb(130,132,134)"/><path d=" M 517.804 620.322 C 517.804 620.322 517.178 626.158 517.804 627.353 C 518.429 628.549 519.625 631.197 519.625 631.197 C 519.625 631.197 517.035 630.258 516.977 632.934 C 516.92 635.61 519.112 635.467 519.91 635.467 C 520.707 635.467 523.012 634.528 521.504 630.826 C 519.995 627.125 519.726 628.608 519.49 625.93 C 519.255 623.254 519.49 620.494 519.49 620.494 L 517.804 620.322 Z " fill="rgb(149,153,154)"/><path d=" M 516.105 620.578 C 516.105 620.578 515.479 626.414 516.105 627.61 C 516.732 628.807 517.928 631.453 517.928 631.453 C 517.928 631.453 515.337 630.514 515.28 633.19 C 515.222 635.865 517.415 635.723 518.212 635.723 C 519.01 635.723 521.314 634.783 519.806 631.082 C 518.297 627.383 518.028 628.863 517.794 626.186 C 517.557 623.512 517.794 620.75 517.794 620.75 L 516.105 620.578 Z " fill="rgb(171,174,175)"/><path d=" M 514.454 620.322 C 514.454 620.322 513.828 626.158 514.454 627.353 C 515.081 628.549 516.275 631.197 516.275 631.197 C 516.275 631.197 513.685 630.258 513.629 632.934 C 513.572 635.61 515.763 635.467 516.56 635.467 C 517.358 635.467 519.664 634.528 518.155 630.826 C 516.646 627.125 516.378 628.608 516.141 625.93 C 515.906 623.254 516.141 620.494 516.141 620.494 L 514.454 620.322 Z " fill="rgb(196,196,195)"/><path d=" M 512.775 620.096 C 512.775 620.096 512.148 625.93 512.775 627.125 C 513.4 628.322 514.596 630.969 514.596 630.969 C 514.596 630.969 512.006 630.03 511.949 632.705 C 511.892 635.381 514.085 635.238 514.881 635.238 C 515.679 635.238 517.984 634.299 516.475 630.6 C 514.967 626.899 514.698 628.379 514.463 625.703 C 514.227 623.028 514.463 620.266 514.463 620.266 L 512.775 620.096 Z " fill="rgb(221,220,219)"/><path d=" M 511.266 619.781 C 511.266 619.781 510.64 625.617 511.266 626.813 C 511.892 628.008 513.089 630.656 513.089 630.656 C 513.089 630.656 510.498 629.717 510.441 632.393 C 510.384 635.069 512.576 634.926 513.372 634.926 C 514.17 634.926 516.475 633.987 514.967 630.287 C 513.458 626.586 513.189 628.067 512.954 625.389 C 512.718 622.713 512.954 619.953 512.954 619.953 L 511.266 619.781 Z " fill="rgb(234,232,232)"/><path d=" M 504.923 628.516 C 504.923 628.516 502.181 628.756 501.192 630.424 C 501.192 630.424 502.645 631.828 504.763 630.781 C 504.763 630.781 507.162 631.701 509.357 631.063 C 509.357 631.063 507.838 628.75 504.923 628.516 Z " fill="rgb(234,232,232)"/><path d=" M 522.973 612.824 L 519.636 612.131 L 518.962 615.375 C 518.12 615.18 517.231 615.018 516.318 614.887 L 516.696 611.793 L 513.156 611.36 L 512.769 614.524 C 511.762 614.457 510.757 614.414 509.782 614.393 L 509.782 611.145 L 506.17 611.145 L 506.17 614.389 C 505.073 614.41 504.086 614.449 503.262 614.49 L 502.714 611.235 L 498.826 611.887 L 500.14 619.697 L 500.863 619.576 L 500.872 619.924 L 520.306 620.674 L 520.342 620.367 L 521.361 620.578 L 522.973 612.824 Z " fill="rgb(183,151,91)"/><path d=" M 500.366 621.022 C 500.366 621.022 510.37 619.494 521.352 622.086 L 521.455 620.322 C 521.455 620.322 507.687 617.11 500.085 619.496 L 500.366 621.022 Z " fill="rgb(48,44,50)"/><path d=" M 503.815 623.478 C 503.815 623.478 503.641 623.444 503.381 623.424 C 503.121 623.399 502.773 623.39 502.437 623.427 C 502.267 623.443 502.114 623.511 501.96 623.524 C 501.822 623.582 501.687 623.615 501.564 623.644 C 501.364 623.756 501.174 623.821 501.174 623.821 L 501.15 623.8 C 501.15 623.8 501.23 623.641 501.439 623.423 C 501.561 623.357 501.709 623.265 501.881 623.216 C 502.053 623.187 502.242 623.161 502.424 623.172 C 503.159 623.18 503.823 623.447 503.823 623.447 L 503.815 623.478 Z " fill="rgb(130,132,134)"/><path d=" M 506.725 623.447 C 506.725 623.447 507.389 623.18 508.125 623.172 C 508.306 623.161 508.496 623.187 508.668 623.216 C 508.84 623.265 508.987 623.357 509.109 623.423 C 509.318 623.641 509.398 623.8 509.398 623.8 L 509.375 623.821 C 509.375 623.821 509.184 623.756 508.984 623.643 C 508.861 623.615 508.726 623.582 508.589 623.524 C 508.434 623.511 508.281 623.443 508.111 623.427 C 507.775 623.39 507.428 623.399 507.168 623.424 C 506.907 623.444 506.733 623.478 506.733 623.478 L 506.725 623.447 Z " fill="rgb(130,132,134)"/><path d=" M 505.823 624.655 C 505.823 624.655 505.995 624.802 506.299 624.938 C 506.453 624.995 506.632 625.071 506.832 625.109 C 507.033 625.147 507.245 625.188 507.463 625.167 C 507.679 625.178 507.888 625.129 508.088 625.093 C 508.286 625.062 508.473 625.045 508.631 624.991 C 508.95 624.918 509.19 624.904 509.19 624.904 L 509.204 624.933 C 509.204 624.933 509.022 625.073 508.708 625.233 C 508.554 625.321 508.36 625.389 508.137 625.406 C 507.922 625.456 507.685 625.461 507.451 625.422 C 507.216 625.417 506.99 625.351 506.781 625.286 C 506.572 625.227 506.394 625.118 506.246 625.036 C 505.953 624.851 505.802 624.678 505.802 624.678 L 505.823 624.655 Z " fill="rgb(69,71,97)"/><path d=" M 503.735 624.678 C 503.735 624.678 503.627 624.804 503.419 624.943 C 503.316 625.013 503.186 625.084 503.04 625.145 C 502.89 625.191 502.73 625.262 502.559 625.273 C 502.389 625.306 502.216 625.33 502.056 625.292 C 501.893 625.282 501.747 625.24 501.636 625.172 C 501.407 625.049 501.283 624.933 501.283 624.933 L 501.297 624.904 C 501.297 624.904 501.478 624.893 501.707 624.929 C 501.819 624.962 501.955 624.952 502.094 624.978 C 502.234 625.001 502.382 625.023 502.536 625.018 C 502.843 625.029 503.144 624.93 503.365 624.845 C 503.585 624.754 503.714 624.655 503.714 624.655 L 503.735 624.678 Z " fill="rgb(69,71,97)"/><path d=" M 504.342 624.159 C 504.342 624.159 504.406 624.624 504.393 625.329 C 504.387 625.682 504.354 626.094 504.27 626.531 C 504.227 626.75 504.15 626.97 504.089 627.197 C 503.99 627.407 503.889 627.62 503.789 627.833 C 503.687 628.05 503.716 628.181 503.847 628.323 C 503.98 628.446 504.167 628.531 504.359 628.578 C 504.554 628.618 504.751 628.624 504.933 628.613 C 505.116 628.602 505.293 628.569 505.432 628.497 C 505.576 628.437 505.707 628.359 505.785 628.258 C 505.884 628.17 505.919 628.059 505.971 627.975 C 506.03 627.791 506.05 627.672 506.05 627.672 L 506.081 627.672 C 506.081 627.672 506.092 627.788 506.077 628.004 C 506.049 628.107 506.029 628.246 505.929 628.37 C 505.851 628.504 505.715 628.634 505.548 628.723 C 505.383 628.825 505.18 628.883 504.968 628.917 C 504.753 628.958 504.521 628.932 504.288 628.887 C 504.058 628.828 503.811 628.735 503.624 628.525 C 503.529 628.414 503.471 628.279 503.454 628.126 C 503.46 627.971 503.497 627.809 503.557 627.725 C 503.667 627.522 503.776 627.318 503.885 627.116 C 503.953 626.904 504.038 626.698 504.09 626.49 C 504.19 626.071 504.252 625.67 504.282 625.323 C 504.343 624.629 504.31 624.161 504.31 624.161 L 504.342 624.159 Z " fill="rgb(69,71,97)"/><path d=" M 522.656 698.922 C 522.656 698.922 522.03 693.086 522.656 691.891 C 523.282 690.696 524.478 688.047 524.478 688.047 C 524.478 688.047 521.887 688.987 521.831 686.311 C 521.774 683.635 523.966 683.778 524.762 683.778 C 525.56 683.778 527.866 684.717 526.356 688.418 C 524.848 692.117 524.579 690.639 524.344 693.315 C 524.108 695.99 524.344 698.752 524.344 698.752 L 522.656 698.922 Z " fill="rgb(221,220,219)"/><path d=" M 523.481 700.637 C 523.481 700.637 522.855 694.801 523.481 693.603 C 524.107 692.408 525.304 689.762 525.304 689.762 C 525.304 689.762 522.713 690.701 522.656 688.026 C 522.598 685.35 524.791 685.492 525.588 685.492 C 526.386 685.492 528.69 686.432 527.182 690.131 C 525.674 693.832 525.405 692.352 525.169 695.028 C 524.933 697.703 525.169 700.465 525.169 700.465 L 523.481 700.637 Z " fill="rgb(234,232,232)"/><path d=" M 524.575 692.237 C 524.575 692.237 529.05 675.197 518.891 675.197 C 508.733 675.197 509.939 688.201 513.114 692.778 C 516.289 697.356 524.575 692.237 524.575 692.237 Z " fill="rgb(221,220,219)"/><path d=" M 524.354 699.338 C 524.354 699.338 525.103 696.502 524.65 695.596 C 524.197 694.69 524.657 693.133 524.575 692.237 C 524.493 691.342 523.271 689.805 520.612 691.617 C 520.612 691.617 513.758 687.955 513.698 692.682 C 513.64 697.408 513.974 699.93 513.974 699.93 C 513.974 699.93 522.246 700.856 524.354 699.338 Z " fill="rgb(218,226,242)"/><path d=" M 505.767 701.434 C 505.767 701.434 506.393 695.598 505.767 694.403 C 505.141 693.207 503.945 690.559 503.945 690.559 C 503.945 690.559 506.536 691.498 506.594 688.822 C 506.65 686.147 504.458 686.289 503.661 686.289 C 502.864 686.289 500.557 687.228 502.066 690.928 C 503.576 694.629 503.845 693.149 504.08 695.824 C 504.315 698.5 504.08 701.262 504.08 701.262 L 505.767 701.434 Z " fill="rgb(107,107,110)"/><path d=" M 506.564 700.637 C 506.564 700.637 507.19 694.801 506.564 693.603 C 505.938 692.408 504.742 689.762 504.742 689.762 C 504.742 689.762 507.333 690.701 507.39 688.026 C 507.447 685.35 505.256 685.492 504.458 685.492 C 503.661 685.492 501.355 686.432 502.864 690.131 C 504.373 693.832 504.642 692.352 504.878 695.028 C 505.113 697.703 504.878 700.465 504.878 700.465 L 506.564 700.637 Z " fill="rgb(130,132,134)"/><path d=" M 507.731 699.811 C 507.731 699.811 508.357 693.975 507.731 692.78 C 507.105 691.584 505.91 688.936 505.91 688.936 C 505.91 688.936 508.5 689.875 508.557 687.199 C 508.614 684.524 506.423 684.666 505.625 684.666 C 504.828 684.666 502.522 685.606 504.031 689.307 C 505.54 693.006 505.808 691.528 506.044 694.203 C 506.28 696.879 506.044 699.641 506.044 699.641 L 507.731 699.811 Z " fill="rgb(149,153,154)"/><path d=" M 509.429 699.555 C 509.429 699.555 510.055 693.719 509.429 692.524 C 508.804 691.328 507.607 688.68 507.607 688.68 C 507.607 688.68 510.198 689.619 510.256 686.944 C 510.311 684.268 508.12 684.41 507.323 684.41 C 506.525 684.41 504.22 685.35 505.728 689.049 C 507.237 692.75 507.507 691.27 507.742 693.946 C 507.977 696.621 507.742 699.383 507.742 699.383 L 509.429 699.555 Z " fill="rgb(171,174,175)"/><path d=" M 511.08 699.811 C 511.08 699.811 511.707 693.975 511.08 692.78 C 510.454 691.584 509.259 688.936 509.259 688.936 C 509.259 688.936 511.849 689.875 511.906 687.199 C 511.963 684.524 509.771 684.666 508.974 684.666 C 508.177 684.666 505.871 685.606 507.38 689.307 C 508.888 693.006 509.158 691.528 509.393 694.203 C 509.629 696.879 509.393 699.641 509.393 699.641 L 511.08 699.811 Z " fill="rgb(196,196,195)"/><path d=" M 512.76 700.037 C 512.76 700.037 513.386 694.203 512.76 693.006 C 512.134 691.811 510.937 689.164 510.937 689.164 C 510.937 689.164 513.528 690.103 513.586 687.428 C 513.641 684.752 511.451 684.895 510.653 684.895 C 509.856 684.895 507.551 685.832 509.059 689.533 C 510.568 693.235 510.838 691.754 511.073 694.43 C 511.308 697.106 511.073 699.867 511.073 699.867 L 512.76 700.037 Z " fill="rgb(221,220,219)"/><path d=" M 514.268 700.352 C 514.268 700.352 514.895 694.516 514.268 693.321 C 513.641 692.123 512.447 689.477 512.447 689.477 C 512.447 689.477 515.037 690.416 515.095 687.74 C 515.15 685.065 512.96 685.207 512.162 685.207 C 511.365 685.207 509.059 686.147 510.568 689.848 C 512.077 693.547 512.345 692.067 512.581 694.744 C 512.817 697.42 512.581 700.18 512.581 700.18 L 514.268 700.352 Z " fill="rgb(234,232,232)"/><path d=" M 520.612 691.617 C 520.612 691.617 523.352 691.377 524.344 689.709 C 524.344 689.709 522.89 688.305 520.771 689.352 C 520.771 689.352 518.371 688.432 516.178 689.071 C 516.178 689.071 517.697 691.383 520.612 691.617 Z " fill="rgb(234,232,232)"/><path d=" M 502.562 707.309 L 505.899 708.002 L 506.573 704.758 C 507.416 704.953 508.304 705.115 509.218 705.244 L 508.839 708.34 L 512.379 708.772 L 512.765 705.608 C 513.773 705.676 514.778 705.719 515.753 705.74 L 515.753 708.988 L 519.365 708.988 L 519.365 705.744 C 520.462 705.723 521.449 705.684 522.274 705.643 L 522.821 708.899 L 526.709 708.246 L 525.395 700.436 L 524.672 700.557 L 524.663 700.209 L 505.227 699.459 L 505.193 699.766 L 504.174 699.555 L 502.562 707.309 Z " fill="rgb(183,151,91)"/><path d=" M 525.169 699.112 C 525.169 699.112 515.166 700.639 504.182 698.047 L 504.08 699.811 C 504.08 699.811 517.847 703.024 525.45 700.637 L 525.169 699.112 Z " fill="rgb(48,44,50)"/><path d=" M 521.72 696.655 C 521.72 696.655 521.893 696.69 522.154 696.709 C 522.414 696.735 522.762 696.743 523.097 696.706 C 523.266 696.691 523.42 696.622 523.574 696.61 C 523.713 696.551 523.847 696.518 523.97 696.489 C 524.17 696.377 524.361 696.312 524.361 696.312 L 524.385 696.333 C 524.385 696.333 524.304 696.492 524.095 696.71 C 523.973 696.777 523.826 696.868 523.654 696.917 C 523.482 696.946 523.293 696.972 523.111 696.961 C 522.376 696.953 521.712 696.686 521.712 696.686 L 521.72 696.655 Z " fill="rgb(130,132,134)"/><path d=" M 518.809 696.686 C 518.809 696.686 518.145 696.953 517.41 696.961 C 517.227 696.972 517.039 696.946 516.867 696.917 C 516.695 696.868 516.548 696.777 516.426 696.71 C 516.217 696.492 516.137 696.333 516.137 696.333 L 516.16 696.312 C 516.16 696.312 516.35 696.377 516.551 696.49 C 516.674 696.518 516.808 696.551 516.946 696.61 C 517.1 696.622 517.254 696.691 517.424 696.706 C 517.76 696.743 518.107 696.735 518.367 696.709 C 518.628 696.69 518.802 696.655 518.802 696.655 L 518.809 696.686 Z " fill="rgb(130,132,134)"/><path d=" M 519.712 695.478 C 519.712 695.478 519.54 695.331 519.236 695.196 C 519.082 695.138 518.903 695.062 518.703 695.025 C 518.502 694.986 518.29 694.946 518.072 694.965 C 517.856 694.954 517.646 695.004 517.448 695.039 C 517.249 695.071 517.061 695.087 516.904 695.141 C 516.585 695.213 516.345 695.228 516.345 695.228 L 516.331 695.198 C 516.331 695.198 516.512 695.058 516.827 694.899 C 516.98 694.811 517.175 694.742 517.397 694.726 C 517.614 694.676 517.849 694.671 518.083 694.71 C 518.32 694.715 518.545 694.782 518.754 694.847 C 518.963 694.906 519.14 695.015 519.289 695.097 C 519.582 695.282 519.733 695.455 519.733 695.455 L 519.712 695.478 Z " fill="rgb(69,71,97)"/><path d=" M 521.8 695.455 C 521.8 695.455 521.908 695.329 522.116 695.191 C 522.218 695.12 522.348 695.049 522.495 694.988 C 522.645 694.943 522.804 694.871 522.975 694.861 C 523.145 694.827 523.319 694.802 523.479 694.84 C 523.641 694.85 523.788 694.891 523.899 694.959 C 524.129 695.082 524.253 695.198 524.253 695.198 L 524.239 695.228 C 524.239 695.228 524.057 695.238 523.829 695.202 C 523.716 695.17 523.58 695.18 523.441 695.155 C 523.302 695.131 523.153 695.11 523 695.114 C 522.692 695.105 522.39 695.202 522.17 695.288 C 521.949 695.379 521.821 695.478 521.821 695.478 L 521.8 695.455 Z " fill="rgb(69,71,97)"/><path d=" M 521.194 695.974 C 521.194 695.974 521.129 695.509 521.141 694.804 C 521.148 694.451 521.179 694.039 521.264 693.602 C 521.307 693.383 521.385 693.163 521.446 692.936 C 521.545 692.727 521.645 692.514 521.746 692.301 C 521.847 692.083 521.819 691.952 521.688 691.81 C 521.554 691.688 521.368 691.603 521.176 691.556 C 520.98 691.515 520.785 691.51 520.601 691.522 C 520.419 691.532 520.242 691.566 520.102 691.636 C 519.958 691.697 519.828 691.775 519.75 691.875 C 519.65 691.963 519.616 692.075 519.563 692.158 C 519.505 692.342 519.485 692.461 519.485 692.461 L 519.454 692.461 C 519.454 692.461 519.443 692.345 519.458 692.129 C 519.486 692.027 519.506 691.887 519.605 691.763 C 519.683 691.629 519.82 691.499 519.987 691.41 C 520.151 691.309 520.354 691.25 520.567 691.217 C 520.782 691.176 521.013 691.202 521.246 691.246 C 521.476 691.306 521.723 691.4 521.912 691.61 C 522.006 691.72 522.063 691.856 522.081 692.008 C 522.076 692.163 522.038 692.324 521.977 692.408 C 521.868 692.613 521.759 692.817 521.65 693.017 C 521.582 693.23 521.496 693.435 521.445 693.643 C 521.345 694.062 521.283 694.463 521.253 694.81 C 521.193 695.504 521.225 695.972 521.225 695.972 L 521.194 695.974 Z " fill="rgb(69,71,97)"/></g></svg>