<?xml version="1.0" encoding="UTF-8" standalone="no"?><!-- Generator: Gravit.io --><svg xmlns="http://www.w3.org/2000/svg" xmlns:xlink="http://www.w3.org/1999/xlink" style="isolation:isolate" viewBox="638.215 25.977 69.123 103.685" width="69.123pt" height="103.685pt"><g><path d=" M 707.338 126.94 C 707.338 128.443 706.119 129.662 704.616 129.662 L 640.937 129.662 C 639.434 129.662 638.215 128.443 638.215 126.94 L 638.215 28.699 C 638.215 27.195 639.434 25.977 640.937 25.977 L 704.616 25.977 C 706.119 25.977 707.338 27.195 707.338 28.699 L 707.338 126.94 Z " fill="rgb(234,232,232)"/><path d=" M 691.479 48.503 C 690.605 47.787 689.699 47.045 689.006 46.224 C 688.89 46.085 688.717 46.008 688.54 46.008 L 688.504 46.008 C 688.323 46.008 688.151 46.085 688.034 46.224 C 687.342 47.045 686.435 47.787 685.562 48.503 C 683.71 50.017 681.8 51.586 681.8 54.013 C 681.8 56.214 683.337 57.752 685.544 57.752 C 686.609 57.752 687.538 57.125 688.169 56.55 C 687.866 57.846 687.3 59.38 686.23 60.582 L 690.807 60.582 C 689.737 59.378 689.171 57.842 688.867 56.545 C 689.498 57.121 690.429 57.752 691.497 57.752 C 693.7 57.752 695.241 56.214 695.241 54.013 C 695.241 51.589 693.327 50.021 691.479 48.503 Z " fill="rgb(68,66,71)"/><path d=" M 688.504 60.582 L 688.504 46.008 L 688.504 46.008 C 688.323 46.008 688.151 46.085 688.034 46.224 C 687.342 47.045 686.435 47.787 685.562 48.503 C 683.71 50.017 681.8 51.586 681.8 54.013 C 681.8 56.214 683.337 57.752 685.544 57.752 C 686.609 57.752 687.538 57.125 688.169 56.55 C 687.866 57.846 687.3 59.38 686.23 60.582 L 688.504 60.582 Z " fill="rgb(87,86,90)"/><path d=" M 659.989 97.551 C 659.116 96.835 658.21 96.093 657.518 95.272 C 657.401 95.132 657.229 95.055 657.051 95.055 L 657.015 95.055 C 656.834 95.055 656.663 95.132 656.545 95.272 C 655.853 96.093 654.946 96.835 654.072 97.551 C 652.222 99.065 650.311 100.634 650.311 103.06 C 650.311 105.261 651.848 106.799 654.055 106.799 C 655.12 106.799 656.049 106.171 656.681 105.598 C 656.377 106.894 655.812 108.428 654.741 109.63 L 659.317 109.63 C 658.248 108.425 657.682 106.89 657.379 105.592 C 658.009 106.168 658.939 106.799 660.008 106.799 C 662.211 106.799 663.753 105.261 663.753 103.06 C 663.753 100.637 661.838 99.069 659.989 97.551 Z " fill="rgb(68,66,71)"/><path d=" M 657.015 109.63 L 657.015 95.055 L 657.015 95.055 C 656.834 95.055 656.663 95.132 656.545 95.272 C 655.853 96.093 654.946 96.835 654.072 97.551 C 652.222 99.065 650.311 100.634 650.311 103.06 C 650.311 105.261 651.848 106.799 654.055 106.799 C 655.12 106.799 656.049 106.171 656.681 105.598 C 656.377 106.894 655.812 108.428 654.741 109.63 L 657.015 109.63 Z " fill="rgb(87,86,90)"/><path d=" M 675.734 73.027 C 674.861 72.31 673.955 71.57 673.263 70.748 C 673.146 70.609 672.974 70.532 672.796 70.532 L 672.76 70.532 C 672.579 70.532 672.407 70.609 672.29 70.748 C 671.598 71.57 670.691 72.31 669.817 73.027 C 667.967 74.542 666.055 76.11 666.055 78.537 C 666.055 80.738 667.594 82.276 669.8 82.276 C 670.865 82.276 671.794 81.648 672.426 81.075 C 672.122 82.371 671.557 83.904 670.487 85.106 L 675.063 85.106 C 673.993 83.902 673.427 82.366 673.124 81.069 C 673.754 81.644 674.685 82.276 675.753 82.276 C 677.956 82.276 679.498 80.738 679.498 78.537 C 679.498 76.113 677.583 74.544 675.734 73.027 Z " fill="rgb(68,66,71)"/><path d=" M 672.761 85.106 L 672.761 70.532 L 672.76 70.532 C 672.579 70.532 672.407 70.609 672.29 70.748 C 671.598 71.57 670.691 72.31 669.817 73.027 C 667.967 74.542 666.055 76.11 666.055 78.537 C 666.055 80.738 667.594 82.276 669.8 82.276 C 670.865 82.276 671.794 81.648 672.426 81.075 C 672.122 82.371 671.557 83.904 670.487 85.106 L 672.761 85.106 Z " fill="rgb(87,86,90)"/><path d=" M 647.14 39.751 C 646.687 39.38 646.218 38.997 645.858 38.572 C 645.798 38.5 645.709 38.46 645.617 38.46 L 645.599 38.46 C 645.506 38.46 645.416 38.5 645.354 38.572 C 644.996 38.997 644.526 39.38 644.074 39.751 C 643.116 40.536 642.126 41.349 642.126 42.605 C 642.126 43.746 642.922 44.543 644.065 44.543 C 644.617 44.543 645.099 44.217 645.425 43.92 C 645.269 44.591 644.975 45.385 644.421 46.008 L 646.791 46.008 C 646.237 45.384 645.944 44.589 645.787 43.918 C 646.113 44.215 646.596 44.543 647.148 44.543 C 648.29 44.543 649.089 43.746 649.089 42.605 C 649.089 41.35 648.097 40.538 647.14 39.751 Z " fill="rgb(68,66,71)"/><path d=" M 645.599 46.008 L 645.599 38.46 L 645.599 38.46 C 645.506 38.46 645.416 38.5 645.354 38.572 C 644.996 38.997 644.526 39.38 644.074 39.751 C 643.116 40.536 642.126 41.349 642.126 42.605 C 642.126 43.746 642.922 44.543 644.065 44.543 C 644.617 44.543 645.099 44.217 645.425 43.92 C 645.269 44.591 644.975 45.385 644.421 46.008 L 645.599 46.008 Z " fill="rgb(87,86,90)"/><path d=" M 698.381 115.886 C 698.833 116.257 699.303 116.641 699.661 117.066 C 699.722 117.139 699.811 117.178 699.902 117.178 L 699.922 117.178 C 700.015 117.178 700.104 117.139 700.164 117.066 C 700.523 116.641 700.993 116.257 701.445 115.886 C 702.403 115.102 703.394 114.29 703.394 113.033 C 703.394 111.892 702.598 111.096 701.454 111.096 C 700.902 111.096 700.422 111.42 700.095 111.717 C 700.252 111.046 700.545 110.252 701.099 109.63 L 698.729 109.63 C 699.282 110.253 699.575 111.049 699.733 111.72 C 699.406 111.422 698.925 111.096 698.371 111.096 C 697.229 111.096 696.432 111.892 696.432 113.033 C 696.432 114.288 697.423 115.1 698.381 115.886 Z " fill="rgb(68,66,71)"/><path d=" M 699.921 109.63 L 699.921 117.178 L 699.922 117.178 C 700.015 117.178 700.104 117.139 700.164 117.066 C 700.523 116.641 700.993 116.257 701.445 115.886 C 702.403 115.102 703.394 114.29 703.394 113.033 C 703.394 111.892 702.598 111.096 701.454 111.096 C 700.902 111.096 700.422 111.42 700.095 111.717 C 700.252 111.046 700.545 110.252 701.099 109.63 L 699.921 109.63 Z " fill="rgb(87,86,90)"/><path d=" M 643.289 36.068 C 643.638 36.297 644.334 36.547 645.129 36.547 C 646.816 36.547 647.709 35.557 647.709 34.425 C 647.698 33.434 647.001 32.781 646.13 32.618 L 646.13 32.596 C 646.99 32.28 647.437 31.66 647.437 30.92 C 647.437 30.06 646.805 29.232 645.412 29.232 C 644.65 29.232 643.931 29.504 643.55 29.777 L 643.812 30.473 C 644.117 30.256 644.661 30.005 645.227 30.005 C 646.109 30.005 646.468 30.506 646.468 31.072 C 646.468 31.91 645.586 32.269 644.889 32.269 L 644.356 32.269 L 644.356 32.988 L 644.889 32.988 C 645.815 32.988 646.707 33.412 646.718 34.403 C 646.729 35.002 646.337 35.775 645.118 35.775 C 644.443 35.775 643.823 35.502 643.55 35.339 L 643.289 36.068 Z " fill="rgb(68,66,71)"/><path d=" M 702.265 119.571 C 701.916 119.343 701.22 119.092 700.425 119.092 C 698.738 119.092 697.845 120.083 697.845 121.215 C 697.856 122.206 698.553 122.859 699.424 123.022 L 699.424 123.044 C 698.564 123.359 698.117 123.98 698.117 124.72 C 698.117 125.58 698.749 126.407 700.142 126.407 C 700.904 126.407 701.623 126.135 702.004 125.863 L 701.742 125.166 C 701.437 125.384 700.893 125.635 700.327 125.635 C 699.445 125.635 699.086 125.134 699.086 124.568 C 699.086 123.73 699.968 123.37 700.665 123.37 L 701.198 123.37 L 701.198 122.652 L 700.665 122.652 C 699.739 122.652 698.847 122.227 698.836 121.237 C 698.825 120.638 699.217 119.865 700.436 119.865 C 701.111 119.865 701.731 120.137 702.004 120.301 L 702.265 119.571 Z " fill="rgb(68,66,71)"/></g></svg>