<?xml version="1.0" encoding="UTF-8" standalone="no"?><!-- Generator: Gravit.io --><svg xmlns="http://www.w3.org/2000/svg" xmlns:xlink="http://www.w3.org/1999/xlink" style="isolation:isolate" viewBox="312.492 132.434 69.122 103.685" width="69.122pt" height="103.685pt"><g><path d=" M 381.614 233.397 C 381.614 234.9 380.396 236.119 378.894 236.119 L 315.214 236.119 C 313.711 236.119 312.492 234.9 312.492 233.397 L 312.492 135.156 C 312.492 133.653 313.711 132.434 315.214 132.434 L 378.894 132.434 C 380.396 132.434 381.614 133.653 381.614 135.156 L 381.614 233.397 Z " fill="rgb(234,232,232)"/><path d=" M 334.251 154.96 C 333.378 154.244 332.472 153.503 331.779 152.681 C 331.662 152.542 331.489 152.465 331.313 152.465 L 331.276 152.465 C 331.096 152.465 330.924 152.542 330.807 152.681 C 330.114 153.503 329.207 154.244 328.334 154.96 C 326.482 156.475 324.571 158.043 324.571 160.47 C 324.571 162.671 326.109 164.209 328.316 164.209 C 329.382 164.209 330.311 163.582 330.941 163.008 C 330.639 164.304 330.072 165.837 329.003 167.04 L 333.579 167.04 C 332.51 165.835 331.943 164.299 331.64 163.002 C 332.271 163.578 333.201 164.209 334.27 164.209 C 336.473 164.209 338.014 162.671 338.014 160.47 C 338.014 158.046 336.1 156.478 334.251 154.96 Z " fill="rgb(68,66,71)"/><path d=" M 331.276 167.04 L 331.276 152.465 L 331.276 152.465 C 331.096 152.465 330.924 152.542 330.807 152.681 C 330.114 153.503 329.207 154.244 328.334 154.96 C 326.482 156.475 324.571 158.043 324.571 160.47 C 324.571 162.671 326.109 164.209 328.316 164.209 C 329.382 164.209 330.311 163.582 330.941 163.008 C 330.639 164.304 330.072 165.837 329.003 167.04 L 331.276 167.04 Z " fill="rgb(87,86,90)"/><path d=" M 321.433 146.208 C 320.98 145.837 320.511 145.455 320.152 145.029 C 320.092 144.957 320.002 144.917 319.91 144.917 L 319.892 144.917 C 319.799 144.917 319.71 144.957 319.649 145.029 C 319.29 145.455 318.82 145.837 318.368 146.208 C 317.409 146.993 316.419 147.806 316.419 149.063 C 316.419 150.203 317.216 151 318.359 151 C 318.911 151 319.392 150.674 319.719 150.377 C 319.562 151.048 319.269 151.842 318.715 152.465 L 321.085 152.465 C 320.53 151.841 320.237 151.046 320.08 150.375 C 320.407 150.672 320.889 151 321.442 151 C 322.583 151 323.382 150.203 323.382 149.063 C 323.382 147.807 322.39 146.995 321.433 146.208 Z " fill="rgb(68,66,71)"/><path d=" M 319.893 152.465 L 319.893 144.917 L 319.892 144.917 C 319.799 144.917 319.71 144.957 319.649 145.029 C 319.29 145.455 318.82 145.837 318.368 146.208 C 317.409 146.993 316.419 147.806 316.419 149.063 C 316.419 150.203 317.216 151 318.359 151 C 318.911 151 319.392 150.674 319.719 150.377 C 319.562 151.048 319.269 151.842 318.715 152.465 L 319.893 152.465 Z " fill="rgb(87,86,90)"/><path d=" M 372.675 222.343 C 373.127 222.714 373.596 223.098 373.955 223.524 C 374.016 223.596 374.104 223.636 374.196 223.636 L 374.215 223.636 C 374.309 223.636 374.397 223.596 374.458 223.524 C 374.817 223.098 375.286 222.714 375.739 222.343 C 376.697 221.559 377.688 220.747 377.688 219.49 C 377.688 218.35 376.891 217.553 375.748 217.553 C 375.196 217.553 374.715 217.878 374.389 218.175 C 374.545 217.504 374.839 216.709 375.393 216.087 L 373.022 216.087 C 373.576 216.711 373.869 217.506 374.026 218.178 C 373.7 217.88 373.219 217.553 372.665 217.553 C 371.523 217.553 370.725 218.35 370.725 219.49 C 370.725 220.745 371.717 221.557 372.675 222.343 Z " fill="rgb(68,66,71)"/><path d=" M 374.215 216.087 L 374.215 223.636 L 374.215 223.636 C 374.309 223.636 374.397 223.596 374.458 223.524 C 374.817 223.098 375.286 222.714 375.739 222.343 C 376.697 221.559 377.688 220.747 377.688 219.49 C 377.688 218.35 376.891 217.553 375.748 217.553 C 375.196 217.553 374.715 217.878 374.389 218.175 C 374.545 217.504 374.839 216.709 375.393 216.087 L 374.215 216.087 Z " fill="rgb(87,86,90)"/><path d=" M 365.707 154.96 C 364.834 154.244 363.928 153.503 363.235 152.681 C 363.119 152.542 362.946 152.465 362.769 152.465 L 362.732 152.465 C 362.553 152.465 362.381 152.542 362.264 152.681 C 361.57 153.503 360.664 154.244 359.791 154.96 C 357.939 156.475 356.028 158.043 356.028 160.47 C 356.028 162.671 357.566 164.209 359.772 164.209 C 360.838 164.209 361.767 163.582 362.398 163.008 C 362.096 164.304 361.529 165.837 360.46 167.04 L 365.035 167.04 C 363.966 165.835 363.399 164.299 363.097 163.002 C 363.727 163.578 364.657 164.209 365.726 164.209 C 367.929 164.209 369.471 162.671 369.471 160.47 C 369.471 158.046 367.556 156.478 365.707 154.96 Z " fill="rgb(68,66,71)"/><path d=" M 362.733 167.04 L 362.733 152.465 L 362.732 152.465 C 362.553 152.465 362.381 152.542 362.264 152.681 C 361.57 153.503 360.664 154.244 359.791 154.96 C 357.939 156.475 356.028 158.043 356.028 160.47 C 356.028 162.671 357.566 164.209 359.772 164.209 C 360.838 164.209 361.767 163.582 362.398 163.008 C 362.096 164.304 361.529 165.837 360.46 167.04 L 362.733 167.04 Z " fill="rgb(87,86,90)"/><path d=" M 334.251 204.008 C 333.378 203.292 332.472 202.55 331.779 201.729 C 331.662 201.589 331.489 201.513 331.313 201.513 L 331.276 201.513 C 331.096 201.513 330.924 201.589 330.807 201.729 C 330.114 202.55 329.207 203.292 328.334 204.008 C 326.482 205.522 324.571 207.091 324.571 209.517 C 324.571 211.718 326.109 213.256 328.316 213.256 C 329.382 213.256 330.311 212.628 330.941 212.055 C 330.639 213.351 330.072 214.885 329.003 216.087 L 333.579 216.087 C 332.51 214.882 331.943 213.347 331.64 212.05 C 332.271 212.625 333.201 213.256 334.27 213.256 C 336.473 213.256 338.014 211.718 338.014 209.517 C 338.014 207.094 336.1 205.526 334.251 204.008 Z " fill="rgb(68,66,71)"/><path d=" M 331.276 216.087 L 331.276 201.513 L 331.276 201.513 C 331.096 201.513 330.924 201.589 330.807 201.729 C 330.114 202.55 329.207 203.292 328.334 204.008 C 326.482 205.522 324.571 207.091 324.571 209.517 C 324.571 211.718 326.109 213.256 328.316 213.256 C 329.382 213.256 330.311 212.628 330.941 212.055 C 330.639 213.351 330.072 214.885 329.003 216.087 L 331.276 216.087 Z " fill="rgb(87,86,90)"/><path d=" M 365.707 204.008 C 364.834 203.292 363.928 202.55 363.235 201.729 C 363.119 201.589 362.946 201.513 362.769 201.513 L 362.732 201.513 C 362.553 201.513 362.381 201.589 362.264 201.729 C 361.57 202.55 360.664 203.292 359.791 204.008 C 357.939 205.522 356.028 207.091 356.028 209.517 C 356.028 211.718 357.566 213.256 359.772 213.256 C 360.838 213.256 361.767 212.628 362.398 212.055 C 362.096 213.351 361.529 214.885 360.46 216.087 L 365.035 216.087 C 363.966 214.882 363.399 213.347 363.097 212.05 C 363.727 212.625 364.657 213.256 365.726 213.256 C 367.929 213.256 369.471 211.718 369.471 209.517 C 369.471 207.094 367.556 205.526 365.707 204.008 Z " fill="rgb(68,66,71)"/><path d=" M 362.733 216.087 L 362.733 201.513 L 362.732 201.513 C 362.553 201.513 362.381 201.589 362.264 201.729 C 361.57 202.55 360.664 203.292 359.791 204.008 C 357.939 205.522 356.028 207.091 356.028 209.517 C 356.028 211.718 357.566 213.256 359.772 213.256 C 360.838 213.256 361.767 212.628 362.398 212.055 C 362.096 213.351 361.529 214.885 360.46 216.087 L 362.733 216.087 Z " fill="rgb(87,86,90)"/><path d=" M 321.462 142.885 L 321.462 140.947 L 322.453 140.947 L 322.453 140.207 L 321.462 140.207 L 321.462 135.809 L 320.428 135.809 L 317.271 140.327 L 317.271 140.947 L 320.559 140.947 L 320.559 142.885 L 321.462 142.885 Z  M 318.24 140.207 L 318.24 140.185 L 319.971 137.78 C 320.167 137.453 320.341 137.148 320.559 136.735 L 320.591 136.735 C 320.57 137.105 320.559 137.475 320.559 137.845 L 320.559 140.207 L 318.24 140.207 Z " fill="rgb(68,66,71)"/><path d=" M 372.644 225.669 L 372.644 227.607 L 371.653 227.607 L 371.653 228.347 L 372.644 228.347 L 372.644 232.745 L 373.678 232.745 L 376.835 228.227 L 376.835 227.607 L 373.547 227.607 L 373.547 225.669 L 372.644 225.669 Z  M 375.866 228.347 L 375.866 228.369 L 374.135 230.774 C 373.939 231.101 373.765 231.406 373.547 231.819 L 373.515 231.819 C 373.536 231.449 373.547 231.079 373.547 230.709 L 373.547 228.347 L 375.866 228.347 Z " fill="rgb(68,66,71)"/></g></svg>