<?xml version="1.0" encoding="UTF-8" standalone="no"?><!-- Generator: Gravit.io --><svg xmlns="http://www.w3.org/2000/svg" xmlns:xlink="http://www.w3.org/1999/xlink" style="isolation:isolate" viewBox="638.215 132.382 69.123 103.685" width="69.123pt" height="103.685pt"><g><path d=" M 707.338 233.345 C 707.338 234.848 706.12 236.067 704.616 236.067 L 640.937 236.067 C 639.434 236.067 638.215 234.848 638.215 233.345 L 638.215 135.104 C 638.215 133.601 639.434 132.382 640.937 132.382 L 704.616 132.382 C 706.12 132.382 707.338 133.601 707.338 135.104 L 707.338 233.345 Z " fill="rgb(234,232,232)"/><path d=" M 659.974 154.91 C 659.101 154.193 658.194 153.452 657.502 152.63 C 657.385 152.491 657.213 152.414 657.035 152.414 L 656.999 152.414 C 656.819 152.414 656.646 152.491 656.529 152.63 C 655.837 153.452 654.931 154.193 654.057 154.91 C 652.206 156.423 650.294 157.992 650.294 160.418 C 650.294 162.62 651.833 164.158 654.039 164.158 C 655.104 164.158 656.033 163.53 656.665 162.957 C 656.361 164.252 655.796 165.786 654.727 166.989 L 659.302 166.989 C 658.232 165.784 657.666 164.248 657.363 162.951 C 657.993 163.526 658.924 164.158 659.992 164.158 C 662.195 164.158 663.737 162.62 663.737 160.418 C 663.737 157.996 661.822 156.426 659.974 154.91 Z " fill="rgb(68,66,71)"/><path d=" M 657 166.989 L 657 152.414 L 656.999 152.414 C 656.819 152.414 656.646 152.491 656.529 152.63 C 655.837 153.452 654.931 154.193 654.057 154.91 C 652.206 156.423 650.294 157.992 650.294 160.418 C 650.294 162.62 651.833 164.158 654.039 164.158 C 655.104 164.158 656.033 163.53 656.665 162.957 C 656.361 164.252 655.796 165.786 654.727 166.989 L 657 166.989 Z " fill="rgb(87,86,90)"/><path d=" M 647.155 146.158 C 646.703 145.787 646.234 145.403 645.875 144.977 C 645.814 144.905 645.726 144.865 645.634 144.865 L 645.615 144.865 C 645.521 144.865 645.433 144.905 645.372 144.977 C 645.013 145.403 644.543 145.787 644.091 146.158 C 643.132 146.942 642.143 147.754 642.143 149.011 C 642.143 150.151 642.938 150.948 644.082 150.948 C 644.634 150.948 645.114 150.623 645.441 150.326 C 645.285 150.997 644.991 151.792 644.438 152.414 L 646.808 152.414 C 646.254 151.79 645.96 150.995 645.804 150.323 C 646.13 150.621 646.612 150.948 647.165 150.948 C 648.307 150.948 649.104 150.151 649.104 149.011 C 649.104 147.756 648.113 146.944 647.155 146.158 Z " fill="rgb(68,66,71)"/><path d=" M 645.615 152.414 L 645.615 144.865 L 645.615 144.865 C 645.521 144.865 645.433 144.905 645.372 144.977 C 645.013 145.403 644.543 145.787 644.091 146.158 C 643.132 146.942 642.143 147.754 642.143 149.011 C 642.143 150.151 642.938 150.948 644.082 150.948 C 644.634 150.948 645.114 150.623 645.441 150.326 C 645.285 150.997 644.991 151.792 644.438 152.414 L 645.615 152.414 Z " fill="rgb(87,86,90)"/><path d=" M 698.397 222.292 C 698.85 222.664 699.319 223.047 699.678 223.472 C 699.738 223.544 699.827 223.584 699.919 223.584 L 699.938 223.584 C 700.031 223.584 700.12 223.544 700.182 223.472 C 700.54 223.047 701.01 222.664 701.462 222.292 C 702.421 221.508 703.411 220.695 703.411 219.439 C 703.411 218.298 702.614 217.501 701.472 217.501 C 700.919 217.501 700.438 217.827 700.111 218.125 C 700.269 217.453 700.562 216.659 701.115 216.036 L 698.745 216.036 C 699.299 216.66 699.593 217.455 699.75 218.126 C 699.423 217.829 698.941 217.501 698.388 217.501 C 697.247 217.501 696.448 218.298 696.448 219.439 C 696.448 220.694 697.44 221.506 698.397 222.292 Z " fill="rgb(68,66,71)"/><path d=" M 699.938 216.036 L 699.938 223.584 L 699.938 223.584 C 700.031 223.584 700.12 223.544 700.182 223.472 C 700.54 223.047 701.01 222.664 701.462 222.292 C 702.421 221.508 703.411 220.695 703.411 219.439 C 703.411 218.298 702.614 217.501 701.472 217.501 C 700.919 217.501 700.438 217.827 700.111 218.125 C 700.269 217.453 700.562 216.659 701.115 216.036 L 699.938 216.036 Z " fill="rgb(87,86,90)"/><path d=" M 691.431 154.91 C 690.558 154.193 689.651 153.452 688.958 152.63 C 688.842 152.491 688.669 152.414 688.492 152.414 L 688.456 152.414 C 688.275 152.414 688.104 152.491 687.986 152.63 C 687.293 153.452 686.387 154.193 685.514 154.91 C 683.662 156.423 681.751 157.992 681.751 160.418 C 681.751 162.62 683.289 164.158 685.495 164.158 C 686.562 164.158 687.49 163.53 688.121 162.957 C 687.818 164.252 687.252 165.786 686.183 166.989 L 690.759 166.989 C 689.688 165.784 689.123 164.248 688.819 162.951 C 689.45 163.526 690.38 164.158 691.448 164.158 C 693.651 164.158 695.193 162.62 695.193 160.418 C 695.193 157.996 693.278 156.426 691.431 154.91 Z " fill="rgb(68,66,71)"/><path d=" M 688.456 166.989 L 688.456 152.414 L 688.456 152.414 C 688.275 152.414 688.104 152.491 687.986 152.63 C 687.293 153.452 686.387 154.193 685.514 154.91 C 683.662 156.423 681.751 157.992 681.751 160.418 C 681.751 162.62 683.289 164.158 685.495 164.158 C 686.562 164.158 687.49 163.53 688.121 162.957 C 687.818 164.252 687.252 165.786 686.183 166.989 L 688.456 166.989 Z " fill="rgb(87,86,90)"/><path d=" M 659.974 203.957 C 659.101 203.24 658.194 202.5 657.502 201.678 C 657.385 201.539 657.213 201.461 657.035 201.461 L 656.999 201.461 C 656.819 201.461 656.646 201.539 656.529 201.678 C 655.837 202.5 654.931 203.24 654.057 203.957 C 652.206 205.471 650.294 207.04 650.294 209.466 C 650.294 211.667 651.833 213.206 654.039 213.206 C 655.104 213.206 656.033 212.578 656.665 212.004 C 656.361 213.3 655.796 214.833 654.727 216.036 L 659.302 216.036 C 658.232 214.832 657.666 213.295 657.363 211.999 C 657.993 212.574 658.924 213.206 659.992 213.206 C 662.195 213.206 663.737 211.667 663.737 209.466 C 663.737 207.043 661.822 205.474 659.974 203.957 Z " fill="rgb(68,66,71)"/><path d=" M 657 216.036 L 657 201.461 L 656.999 201.461 C 656.819 201.461 656.646 201.539 656.529 201.678 C 655.837 202.5 654.931 203.24 654.057 203.957 C 652.206 205.471 650.294 207.04 650.294 209.466 C 650.294 211.667 651.833 213.206 654.039 213.206 C 655.104 213.206 656.033 212.578 656.665 212.004 C 656.361 213.3 655.796 214.833 654.727 216.036 L 657 216.036 Z " fill="rgb(87,86,90)"/><path d=" M 691.431 203.957 C 690.558 203.24 689.651 202.5 688.958 201.678 C 688.842 201.539 688.669 201.461 688.492 201.461 L 688.456 201.461 C 688.275 201.461 688.104 201.539 687.986 201.678 C 687.293 202.5 686.387 203.24 685.514 203.957 C 683.662 205.471 681.751 207.04 681.751 209.466 C 681.751 211.667 683.289 213.206 685.495 213.206 C 686.562 213.206 687.49 212.578 688.121 212.004 C 687.818 213.3 687.252 214.833 686.183 216.036 L 690.759 216.036 C 689.688 214.832 689.123 213.295 688.819 211.999 C 689.45 212.574 690.38 213.206 691.448 213.206 C 693.651 213.206 695.193 211.667 695.193 209.466 C 695.193 207.043 693.278 205.474 691.431 203.957 Z " fill="rgb(68,66,71)"/><path d=" M 688.456 216.036 L 688.456 201.461 L 688.456 201.461 C 688.275 201.461 688.104 201.539 687.986 201.678 C 687.293 202.5 686.387 203.24 685.514 203.957 C 683.662 205.471 681.751 207.04 681.751 209.466 C 681.751 211.667 683.289 213.206 685.495 213.206 C 686.562 213.206 687.49 212.578 688.121 212.004 C 687.818 213.3 687.252 214.833 686.183 216.036 L 688.456 216.036 Z " fill="rgb(87,86,90)"/><path d=" M 647.545 135.757 L 644.16 135.757 L 643.703 139.154 C 643.964 139.121 644.28 139.088 644.693 139.088 C 646.098 139.088 646.718 139.731 646.718 140.645 C 646.729 141.592 645.945 142.18 645.053 142.18 C 644.4 142.18 643.823 141.962 643.529 141.788 L 643.289 142.517 C 643.638 142.735 644.28 142.953 645.053 142.953 C 646.588 142.953 647.687 141.919 647.687 140.536 C 647.687 139.654 647.23 139.034 646.675 138.729 C 646.239 138.457 645.706 138.348 645.151 138.348 C 644.889 138.348 644.737 138.359 644.574 138.381 L 644.846 136.563 L 647.545 136.563 L 647.545 135.757 Z " fill="rgb(68,66,71)"/><path d=" M 698.01 232.693 L 701.395 232.693 L 701.852 229.296 C 701.591 229.329 701.275 229.362 700.862 229.362 C 699.457 229.362 698.837 228.719 698.837 227.805 C 698.826 226.858 699.61 226.27 700.502 226.27 C 701.155 226.27 701.732 226.488 702.026 226.662 L 702.266 225.933 C 701.917 225.715 701.275 225.497 700.502 225.497 C 698.967 225.497 697.868 226.531 697.868 227.914 C 697.868 228.796 698.325 229.416 698.88 229.721 C 699.316 229.993 699.849 230.102 700.404 230.102 C 700.666 230.102 700.818 230.091 700.981 230.069 L 700.709 231.887 L 698.01 231.887 L 698.01 232.693 Z " fill="rgb(68,66,71)"/><path d=" M 675.734 179.706 C 674.861 178.989 673.955 178.248 673.263 177.426 C 673.146 177.287 672.974 177.21 672.796 177.21 L 672.76 177.21 C 672.579 177.21 672.407 177.287 672.29 177.426 C 671.598 178.248 670.691 178.989 669.817 179.706 C 667.967 181.219 666.055 182.789 666.055 185.214 C 666.055 187.416 667.594 188.954 669.8 188.954 C 670.865 188.954 671.794 188.327 672.426 187.752 C 672.122 189.048 671.557 190.583 670.487 191.785 L 675.063 191.785 C 673.993 190.58 673.427 189.044 673.124 187.748 C 673.754 188.323 674.685 188.954 675.753 188.954 C 677.956 188.954 679.498 187.416 679.498 185.214 C 679.498 182.792 677.583 181.223 675.734 179.706 Z " fill="rgb(68,66,71)"/><path d=" M 672.761 191.785 L 672.761 177.21 L 672.76 177.21 C 672.579 177.21 672.407 177.287 672.29 177.426 C 671.598 178.248 670.691 178.989 669.817 179.706 C 667.967 181.219 666.055 182.789 666.055 185.214 C 666.055 187.416 667.594 188.954 669.8 188.954 C 670.865 188.954 671.794 188.327 672.426 187.752 C 672.122 189.048 671.557 190.583 670.487 191.785 L 672.761 191.785 Z " fill="rgb(87,86,90)"/></g></svg>