<?xml version="1.0" encoding="UTF-8" standalone="no"?><!-- Generator: Gravit.io --><svg xmlns="http://www.w3.org/2000/svg" xmlns:xlink="http://www.w3.org/1999/xlink" style="isolation:isolate" viewBox="201.119 180.851 69.122 103.683" width="69.122pt" height="103.683pt"><g><path d=" M 270.241 281.813 C 270.241 283.316 269.023 284.534 267.521 284.534 L 203.841 284.534 C 202.338 284.534 201.119 283.316 201.119 281.813 L 201.119 183.571 C 201.119 182.068 202.338 180.851 203.841 180.851 L 267.521 180.851 C 269.023 180.851 270.241 182.068 270.241 183.571 L 270.241 281.813 Z " fill="rgb(234,232,232)"/><path d=" M 222.878 203.377 C 222.005 202.66 221.099 201.919 220.406 201.098 C 220.289 200.958 220.116 200.882 219.94 200.882 L 219.903 200.882 C 219.723 200.882 219.551 200.958 219.434 201.098 C 218.741 201.919 217.834 202.66 216.961 203.377 C 215.109 204.891 213.198 206.46 213.198 208.886 C 213.198 211.088 214.736 212.625 216.943 212.625 C 218.009 212.625 218.938 211.998 219.568 211.424 C 219.266 212.72 218.699 214.254 217.63 215.456 L 222.206 215.456 C 221.137 214.251 220.57 212.716 220.267 211.419 C 220.898 211.994 221.828 212.625 222.897 212.625 C 225.1 212.625 226.641 211.088 226.641 208.886 C 226.641 206.463 224.727 204.895 222.878 203.377 Z " fill="rgb(68,66,71)"/><path d=" M 219.903 215.456 L 219.903 200.882 L 219.903 200.882 C 219.723 200.882 219.551 200.958 219.434 201.098 C 218.741 201.919 217.834 202.66 216.961 203.377 C 215.109 204.891 213.198 206.46 213.198 208.886 C 213.198 211.088 214.736 212.625 216.943 212.625 C 218.009 212.625 218.938 211.998 219.568 211.424 C 219.266 212.72 218.699 214.254 217.63 215.456 L 219.903 215.456 Z " fill="rgb(87,86,90)"/><path d=" M 210.06 194.625 C 209.607 194.254 209.138 193.87 208.779 193.445 C 208.719 193.373 208.629 193.333 208.537 193.333 L 208.519 193.333 C 208.426 193.333 208.337 193.373 208.276 193.445 C 207.917 193.87 207.447 194.254 206.995 194.625 C 206.036 195.409 205.046 196.222 205.046 197.479 C 205.046 198.619 205.843 199.415 206.986 199.415 C 207.538 199.415 208.019 199.091 208.346 198.793 C 208.189 199.465 207.896 200.259 207.342 200.882 L 209.712 200.882 C 209.157 200.258 208.864 199.462 208.707 198.79 C 209.034 199.089 209.516 199.415 210.069 199.415 C 211.21 199.415 212.009 198.619 212.009 197.479 C 212.009 196.224 211.017 195.411 210.06 194.625 Z " fill="rgb(68,66,71)"/><path d=" M 208.52 200.882 L 208.52 193.333 L 208.519 193.333 C 208.426 193.333 208.337 193.373 208.276 193.445 C 207.917 193.87 207.447 194.254 206.995 194.625 C 206.036 195.409 205.046 196.222 205.046 197.479 C 205.046 198.619 205.843 199.415 206.986 199.415 C 207.538 199.415 208.019 199.091 208.346 198.793 C 208.189 199.465 207.896 200.259 207.342 200.882 L 208.52 200.882 Z " fill="rgb(87,86,90)"/><path d=" M 261.302 270.76 C 261.754 271.131 262.223 271.515 262.582 271.94 C 262.643 272.013 262.731 272.052 262.823 272.052 L 262.842 272.052 C 262.936 272.052 263.024 272.013 263.085 271.94 C 263.444 271.515 263.913 271.131 264.366 270.76 C 265.324 269.976 266.315 269.163 266.315 267.906 C 266.315 266.766 265.518 265.97 264.375 265.97 C 263.823 265.97 263.342 266.295 263.016 266.592 C 263.172 265.92 263.466 265.126 264.02 264.503 L 261.649 264.503 C 262.203 265.127 262.496 265.923 262.653 266.595 C 262.327 266.296 261.846 265.97 261.292 265.97 C 260.15 265.97 259.352 266.766 259.352 267.906 C 259.352 269.161 260.344 269.974 261.302 270.76 Z " fill="rgb(68,66,71)"/><path d=" M 262.842 264.503 L 262.842 272.052 L 262.842 272.052 C 262.936 272.052 263.024 272.013 263.085 271.94 C 263.444 271.515 263.913 271.131 264.366 270.76 C 265.324 269.976 266.315 269.163 266.315 267.906 C 266.315 266.766 265.518 265.97 264.375 265.97 C 263.823 265.97 263.342 266.295 263.016 266.592 C 263.172 265.92 263.466 265.126 264.02 264.503 L 262.842 264.503 Z " fill="rgb(87,86,90)"/><path d=" M 254.334 203.377 C 253.461 202.66 252.555 201.919 251.862 201.098 C 251.746 200.958 251.573 200.882 251.396 200.882 L 251.359 200.882 C 251.18 200.882 251.008 200.958 250.891 201.098 C 250.197 201.919 249.291 202.66 248.418 203.377 C 246.566 204.891 244.655 206.46 244.655 208.886 C 244.655 211.088 246.193 212.625 248.399 212.625 C 249.465 212.625 250.394 211.998 251.025 211.424 C 250.723 212.72 250.156 214.254 249.087 215.456 L 253.662 215.456 C 252.593 214.251 252.026 212.716 251.724 211.419 C 252.354 211.994 253.284 212.625 254.353 212.625 C 256.556 212.625 258.098 211.088 258.098 208.886 C 258.098 206.463 256.183 204.895 254.334 203.377 Z " fill="rgb(68,66,71)"/><path d=" M 251.36 215.456 L 251.36 200.882 L 251.359 200.882 C 251.18 200.882 251.008 200.958 250.891 201.098 C 250.197 201.919 249.291 202.66 248.418 203.377 C 246.566 204.891 244.655 206.46 244.655 208.886 C 244.655 211.088 246.193 212.625 248.399 212.625 C 249.465 212.625 250.394 211.998 251.025 211.424 C 250.723 212.72 250.156 214.254 249.087 215.456 L 251.36 215.456 Z " fill="rgb(87,86,90)"/><path d=" M 222.878 227.9 C 222.005 227.184 221.099 226.442 220.406 225.621 C 220.289 225.482 220.116 225.405 219.94 225.405 L 219.903 225.405 C 219.723 225.405 219.551 225.482 219.434 225.621 C 218.741 226.442 217.834 227.184 216.961 227.9 C 215.109 229.414 213.198 230.983 213.198 233.409 C 213.198 235.611 214.736 237.149 216.943 237.149 C 218.009 237.149 218.938 236.521 219.568 235.947 C 219.266 237.243 218.699 238.777 217.63 239.979 L 222.206 239.979 C 221.137 238.774 220.57 237.239 220.267 235.942 C 220.898 236.518 221.828 237.149 222.897 237.149 C 225.1 237.149 226.641 235.611 226.641 233.409 C 226.641 230.986 224.727 229.418 222.878 227.9 Z " fill="rgb(68,66,71)"/><path d=" M 219.903 239.979 L 219.903 225.405 L 219.903 225.405 C 219.723 225.405 219.551 225.482 219.434 225.621 C 218.741 226.442 217.834 227.184 216.961 227.9 C 215.109 229.414 213.198 230.983 213.198 233.409 C 213.198 235.611 214.736 237.149 216.943 237.149 C 218.009 237.149 218.938 236.521 219.568 235.947 C 219.266 237.243 218.699 238.777 217.63 239.979 L 219.903 239.979 Z " fill="rgb(87,86,90)"/><path d=" M 254.334 227.9 C 253.461 227.184 252.555 226.442 251.862 225.621 C 251.746 225.482 251.573 225.405 251.396 225.405 L 251.359 225.405 C 251.18 225.405 251.008 225.482 250.891 225.621 C 250.197 226.442 249.291 227.184 248.418 227.9 C 246.566 229.414 244.655 230.983 244.655 233.409 C 244.655 235.611 246.193 237.149 248.399 237.149 C 249.465 237.149 250.394 236.521 251.025 235.947 C 250.723 237.243 250.156 238.777 249.087 239.979 L 253.662 239.979 C 252.593 238.774 252.026 237.239 251.724 235.942 C 252.354 236.518 253.284 237.149 254.353 237.149 C 256.556 237.149 258.098 235.611 258.098 233.409 C 258.098 230.986 256.183 229.418 254.334 227.9 Z " fill="rgb(68,66,71)"/><path d=" M 251.36 239.979 L 251.36 225.405 L 251.359 225.405 C 251.18 225.405 251.008 225.482 250.891 225.621 C 250.197 226.442 249.291 227.184 248.418 227.9 C 246.566 229.414 244.655 230.983 244.655 233.409 C 244.655 235.611 246.193 237.149 248.399 237.149 C 249.465 237.149 250.394 236.521 251.025 235.947 C 250.723 237.243 250.156 238.777 249.087 239.979 L 251.36 239.979 Z " fill="rgb(87,86,90)"/><path d=" M 222.878 252.425 C 222.005 251.708 221.099 250.967 220.406 250.145 C 220.289 250.006 220.116 249.929 219.94 249.929 L 219.903 249.929 C 219.723 249.929 219.551 250.006 219.434 250.145 C 218.741 250.967 217.834 251.708 216.961 252.425 C 215.109 253.938 213.198 255.507 213.198 257.934 C 213.198 260.135 214.736 261.673 216.943 261.673 C 218.009 261.673 218.938 261.045 219.568 260.472 C 219.266 261.768 218.699 263.302 217.63 264.504 L 222.206 264.504 C 221.137 263.299 220.57 261.763 220.267 260.466 C 220.898 261.042 221.828 261.673 222.897 261.673 C 225.1 261.673 226.641 260.135 226.641 257.934 C 226.641 255.511 224.727 253.942 222.878 252.425 Z " fill="rgb(68,66,71)"/><path d=" M 219.903 264.504 L 219.903 249.929 L 219.903 249.929 C 219.723 249.929 219.551 250.006 219.434 250.145 C 218.741 250.967 217.834 251.708 216.961 252.425 C 215.109 253.938 213.198 255.507 213.198 257.934 C 213.198 260.135 214.736 261.673 216.943 261.673 C 218.009 261.673 218.938 261.045 219.568 260.472 C 219.266 261.768 218.699 263.302 217.63 264.504 L 219.903 264.504 Z " fill="rgb(87,86,90)"/><path d=" M 254.334 252.425 C 253.461 251.708 252.555 250.967 251.862 250.145 C 251.746 250.006 251.573 249.929 251.396 249.929 L 251.359 249.929 C 251.18 249.929 251.008 250.006 250.891 250.145 C 250.197 250.967 249.291 251.708 248.418 252.425 C 246.566 253.938 244.655 255.507 244.655 257.934 C 244.655 260.135 246.193 261.673 248.399 261.673 C 249.465 261.673 250.394 261.045 251.025 260.472 C 250.723 261.768 250.156 263.302 249.087 264.504 L 253.662 264.504 C 252.593 263.299 252.026 261.763 251.724 260.466 C 252.354 261.042 253.284 261.673 254.353 261.673 C 256.556 261.673 258.098 260.135 258.098 257.934 C 258.098 255.511 256.183 253.942 254.334 252.425 Z " fill="rgb(68,66,71)"/><path d=" M 251.36 264.504 L 251.36 249.929 L 251.359 249.929 C 251.18 249.929 251.008 250.006 250.891 250.145 C 250.197 250.967 249.291 251.708 248.418 252.425 C 246.566 253.938 244.655 255.507 244.655 257.934 C 244.655 260.135 246.193 261.673 248.399 261.673 C 249.465 261.673 250.394 261.045 251.025 260.472 C 250.723 261.768 250.156 263.302 249.087 264.504 L 251.36 264.504 Z " fill="rgb(87,86,90)"/><path d=" M 210.263 184.116 C 210.089 184.116 209.85 184.127 209.567 184.17 C 208.674 184.279 207.89 184.638 207.303 185.215 C 206.595 185.912 206.105 187.011 206.105 188.405 C 206.105 190.244 207.096 191.42 208.598 191.42 C 210.078 191.42 210.96 190.222 210.96 188.916 C 210.96 187.545 210.078 186.63 208.827 186.63 C 208.043 186.63 207.444 187 207.107 187.458 L 207.085 187.458 C 207.248 186.282 208.032 185.193 209.545 184.954 C 209.817 184.91 210.067 184.889 210.263 184.899 L 210.263 184.116 Z  M 208.62 190.68 C 207.607 190.68 207.063 189.809 207.052 188.644 C 207.052 188.47 207.096 188.339 207.15 188.23 C 207.411 187.708 207.956 187.36 208.533 187.36 C 209.414 187.36 209.991 187.969 209.991 188.982 C 209.991 189.994 209.436 190.68 208.62 190.68 Z " fill="rgb(68,66,71)"/><path d=" M 261.097 281.269 C 261.271 281.269 261.51 281.258 261.793 281.214 C 262.686 281.105 263.47 280.746 264.057 280.169 C 264.765 279.473 265.255 278.373 265.255 276.98 C 265.255 275.14 264.264 273.964 262.762 273.964 C 261.282 273.964 260.4 275.162 260.4 276.468 C 260.4 277.84 261.282 278.754 262.533 278.754 C 263.317 278.754 263.916 278.384 264.253 277.927 L 264.275 277.927 C 264.112 279.102 263.328 280.191 261.815 280.43 C 261.543 280.474 261.293 280.496 261.097 280.485 L 261.097 281.269 Z  M 262.74 274.705 C 263.753 274.705 264.297 275.575 264.308 276.74 C 264.308 276.914 264.264 277.045 264.21 277.154 C 263.949 277.676 263.404 278.025 262.827 278.025 C 261.946 278.025 261.369 277.415 261.369 276.403 C 261.369 275.39 261.924 274.705 262.74 274.705 Z " fill="rgb(68,66,71)"/></g></svg>