<?xml version="1.0" encoding="UTF-8" standalone="no"?><!-- Generator: Gravit.io --><svg xmlns="http://www.w3.org/2000/svg" xmlns:xlink="http://www.w3.org/1999/xlink" style="isolation:isolate" viewBox="588.892 247.351 69.123 103.683" width="69.123pt" height="103.683pt"><g><path d=" M 658.015 348.313 C 658.015 349.816 656.797 351.034 655.293 351.034 L 591.614 351.034 C 590.111 351.034 588.892 349.816 588.892 348.313 L 588.892 250.071 C 588.892 248.568 590.111 247.351 591.614 247.351 L 655.293 247.351 C 656.797 247.351 658.015 248.568 658.015 250.071 L 658.015 348.313 Z " fill="rgb(234,232,232)"/><path d=" M 610.651 269.877 C 609.778 269.16 608.871 268.419 608.179 267.598 C 608.062 267.458 607.89 267.382 607.712 267.382 L 607.676 267.382 C 607.496 267.382 607.323 267.458 607.206 267.598 C 606.514 268.419 605.608 269.16 604.734 269.877 C 602.883 271.391 600.972 272.96 600.972 275.386 C 600.972 277.588 602.51 279.125 604.716 279.125 C 605.781 279.125 606.71 278.498 607.342 277.924 C 607.038 279.22 606.473 280.754 605.404 281.956 L 609.979 281.956 C 608.909 280.751 608.343 279.216 608.04 277.919 C 608.67 278.494 609.601 279.125 610.669 279.125 C 612.872 279.125 614.414 277.588 614.414 275.386 C 614.414 272.963 612.499 271.395 610.651 269.877 Z " fill="rgb(68,66,71)"/><path d=" M 607.677 281.956 L 607.677 267.382 L 607.676 267.382 C 607.496 267.382 607.323 267.458 607.206 267.598 C 606.514 268.419 605.608 269.16 604.734 269.877 C 602.883 271.391 600.972 272.96 600.972 275.386 C 600.972 277.588 602.51 279.125 604.716 279.125 C 605.781 279.125 606.71 278.498 607.342 277.924 C 607.038 279.22 606.473 280.754 605.404 281.956 L 607.677 281.956 Z " fill="rgb(87,86,90)"/><path d=" M 597.832 261.125 C 597.38 260.754 596.911 260.37 596.552 259.945 C 596.491 259.873 596.403 259.833 596.311 259.833 L 596.292 259.833 C 596.198 259.833 596.11 259.873 596.049 259.945 C 595.69 260.37 595.22 260.754 594.768 261.125 C 593.809 261.909 592.82 262.722 592.82 263.979 C 592.82 265.119 593.615 265.915 594.759 265.915 C 595.311 265.915 595.791 265.591 596.118 265.293 C 595.962 265.965 595.668 266.759 595.115 267.382 L 597.485 267.382 C 596.931 266.758 596.637 265.962 596.481 265.29 C 596.807 265.589 597.289 265.915 597.842 265.915 C 598.984 265.915 599.781 265.119 599.781 263.979 C 599.781 262.724 598.79 261.911 597.832 261.125 Z " fill="rgb(68,66,71)"/><path d=" M 596.292 267.382 L 596.292 259.833 L 596.292 259.833 C 596.198 259.833 596.11 259.873 596.049 259.945 C 595.69 260.37 595.22 260.754 594.768 261.125 C 593.809 261.909 592.82 262.722 592.82 263.979 C 592.82 265.119 593.615 265.915 594.759 265.915 C 595.311 265.915 595.791 265.591 596.118 265.293 C 595.962 265.965 595.668 266.759 595.115 267.382 L 596.292 267.382 Z " fill="rgb(87,86,90)"/><path d=" M 649.074 337.26 C 649.527 337.631 649.996 338.015 650.355 338.44 C 650.415 338.513 650.504 338.552 650.596 338.552 L 650.615 338.552 C 650.708 338.552 650.798 338.513 650.859 338.44 C 651.217 338.015 651.687 337.631 652.139 337.26 C 653.098 336.476 654.088 335.663 654.088 334.406 C 654.088 333.266 653.291 332.47 652.149 332.47 C 651.597 332.47 651.115 332.795 650.788 333.092 C 650.946 332.42 651.239 331.626 651.792 331.003 L 649.422 331.003 C 649.977 331.627 650.27 332.423 650.427 333.095 C 650.1 332.796 649.618 332.47 649.065 332.47 C 647.924 332.47 647.125 333.266 647.125 334.406 C 647.125 335.661 648.117 336.474 649.074 337.26 Z " fill="rgb(68,66,71)"/><path d=" M 650.615 331.003 L 650.615 338.552 L 650.615 338.552 C 650.708 338.552 650.798 338.513 650.859 338.44 C 651.217 338.015 651.687 337.631 652.139 337.26 C 653.098 336.476 654.088 335.663 654.088 334.406 C 654.088 333.266 653.291 332.47 652.149 332.47 C 651.597 332.47 651.115 332.795 650.788 333.092 C 650.946 332.42 651.239 331.626 651.792 331.003 L 650.615 331.003 Z " fill="rgb(87,86,90)"/><path d=" M 642.108 269.877 C 641.235 269.16 640.328 268.419 639.635 267.598 C 639.519 267.458 639.346 267.382 639.169 267.382 L 639.133 267.382 C 638.952 267.382 638.781 267.458 638.663 267.598 C 637.971 268.419 637.064 269.16 636.191 269.877 C 634.339 271.391 632.428 272.96 632.428 275.386 C 632.428 277.588 633.966 279.125 636.173 279.125 C 637.239 279.125 638.167 278.498 638.798 277.924 C 638.495 279.22 637.929 280.754 636.86 281.956 L 641.436 281.956 C 640.365 280.751 639.8 279.216 639.496 277.919 C 640.127 278.494 641.058 279.125 642.126 279.125 C 644.329 279.125 645.87 277.588 645.87 275.386 C 645.87 272.963 643.956 271.395 642.108 269.877 Z " fill="rgb(68,66,71)"/><path d=" M 639.133 281.956 L 639.133 267.382 L 639.133 267.382 C 638.952 267.382 638.781 267.458 638.663 267.598 C 637.971 268.419 637.064 269.16 636.191 269.877 C 634.339 271.391 632.428 272.96 632.428 275.386 C 632.428 277.588 633.966 279.125 636.173 279.125 C 637.239 279.125 638.167 278.498 638.798 277.924 C 638.495 279.22 637.929 280.754 636.86 281.956 L 639.133 281.956 Z " fill="rgb(87,86,90)"/><path d=" M 610.651 294.4 C 609.778 293.684 608.871 292.942 608.179 292.121 C 608.062 291.982 607.89 291.905 607.712 291.905 L 607.676 291.905 C 607.496 291.905 607.323 291.982 607.206 292.121 C 606.514 292.942 605.608 293.684 604.734 294.4 C 602.883 295.914 600.972 297.483 600.972 299.91 C 600.972 302.11 602.51 303.649 604.716 303.649 C 605.781 303.649 606.71 303.021 607.342 302.448 C 607.038 303.743 606.473 305.277 605.404 306.479 L 609.979 306.479 C 608.909 305.275 608.343 303.739 608.04 302.442 C 608.67 303.018 609.601 303.649 610.669 303.649 C 612.872 303.649 614.414 302.11 614.414 299.91 C 614.414 297.486 612.499 295.918 610.651 294.4 Z " fill="rgb(68,66,71)"/><path d=" M 607.677 306.479 L 607.677 291.905 L 607.676 291.905 C 607.496 291.905 607.323 291.982 607.206 292.121 C 606.514 292.942 605.608 293.684 604.734 294.4 C 602.883 295.914 600.972 297.483 600.972 299.91 C 600.972 302.11 602.51 303.649 604.716 303.649 C 605.781 303.649 606.71 303.021 607.342 302.448 C 607.038 303.743 606.473 305.277 605.404 306.479 L 607.677 306.479 Z " fill="rgb(87,86,90)"/><path d=" M 642.108 294.4 C 641.235 293.684 640.328 292.942 639.635 292.121 C 639.519 291.982 639.346 291.905 639.169 291.905 L 639.133 291.905 C 638.952 291.905 638.781 291.982 638.663 292.121 C 637.971 292.942 637.064 293.684 636.191 294.4 C 634.339 295.914 632.428 297.483 632.428 299.91 C 632.428 302.11 633.966 303.649 636.173 303.649 C 637.239 303.649 638.167 303.021 638.798 302.448 C 638.495 303.743 637.929 305.277 636.86 306.479 L 641.436 306.479 C 640.365 305.275 639.8 303.739 639.496 302.442 C 640.127 303.018 641.058 303.649 642.126 303.649 C 644.329 303.649 645.87 302.11 645.87 299.91 C 645.87 297.486 643.956 295.918 642.108 294.4 Z " fill="rgb(68,66,71)"/><path d=" M 639.133 306.479 L 639.133 291.905 L 639.133 291.905 C 638.952 291.905 638.781 291.982 638.663 292.121 C 637.971 292.942 637.064 293.684 636.191 294.4 C 634.339 295.914 632.428 297.483 632.428 299.91 C 632.428 302.11 633.966 303.649 636.173 303.649 C 637.239 303.649 638.167 303.021 638.798 302.448 C 638.495 303.743 637.929 305.277 636.86 306.479 L 639.133 306.479 Z " fill="rgb(87,86,90)"/><path d=" M 610.651 318.925 C 609.778 318.208 608.871 317.467 608.179 316.645 C 608.062 316.506 607.89 316.429 607.712 316.429 L 607.676 316.429 C 607.496 316.429 607.323 316.506 607.206 316.645 C 606.514 317.467 605.608 318.208 604.734 318.925 C 602.883 320.438 600.972 322.007 600.972 324.434 C 600.972 326.635 602.51 328.173 604.716 328.173 C 605.781 328.173 606.71 327.545 607.342 326.972 C 607.038 328.268 606.473 329.802 605.404 331.004 L 609.979 331.004 C 608.909 329.799 608.343 328.263 608.04 326.966 C 608.67 327.542 609.601 328.173 610.669 328.173 C 612.872 328.173 614.414 326.635 614.414 324.434 C 614.414 322.011 612.499 320.442 610.651 318.925 Z " fill="rgb(68,66,71)"/><path d=" M 607.677 331.004 L 607.677 316.429 L 607.676 316.429 C 607.496 316.429 607.323 316.506 607.206 316.645 C 606.514 317.467 605.608 318.208 604.734 318.925 C 602.883 320.438 600.972 322.007 600.972 324.434 C 600.972 326.635 602.51 328.173 604.716 328.173 C 605.781 328.173 606.71 327.545 607.342 326.972 C 607.038 328.268 606.473 329.802 605.404 331.004 L 607.677 331.004 Z " fill="rgb(87,86,90)"/><path d=" M 642.108 318.925 C 641.235 318.208 640.328 317.467 639.635 316.645 C 639.519 316.506 639.346 316.429 639.169 316.429 L 639.133 316.429 C 638.952 316.429 638.781 316.506 638.663 316.645 C 637.971 317.467 637.064 318.208 636.191 318.925 C 634.339 320.438 632.428 322.007 632.428 324.434 C 632.428 326.635 633.966 328.173 636.173 328.173 C 637.239 328.173 638.167 327.545 638.798 326.972 C 638.495 328.268 637.929 329.802 636.86 331.004 L 641.436 331.004 C 640.365 329.799 639.8 328.263 639.496 326.966 C 640.127 327.542 641.058 328.173 642.126 328.173 C 644.329 328.173 645.87 326.635 645.87 324.434 C 645.87 322.011 643.956 320.442 642.108 318.925 Z " fill="rgb(68,66,71)"/><path d=" M 639.133 331.004 L 639.133 316.429 L 639.133 316.429 C 638.952 316.429 638.781 316.506 638.663 316.645 C 637.971 317.467 637.064 318.208 636.191 318.925 C 634.339 320.438 632.428 322.007 632.428 324.434 C 632.428 326.635 633.966 328.173 636.173 328.173 C 637.239 328.173 638.167 327.545 638.798 326.972 C 638.495 328.268 637.929 329.802 636.86 331.004 L 639.133 331.004 Z " fill="rgb(87,86,90)"/><path d=" M 594.13 250.724 L 594.13 251.519 L 597.592 251.519 L 597.592 251.54 L 594.522 257.8 L 595.512 257.8 L 598.593 251.355 L 598.593 250.724 L 594.13 250.724 Z " fill="rgb(68,66,71)"/><path d=" M 652.779 347.659 L 652.779 346.865 L 649.317 346.865 L 649.317 346.843 L 652.387 340.584 L 651.396 340.584 L 648.316 347.028 L 648.316 347.659 L 652.779 347.659 Z " fill="rgb(68,66,71)"/><path d=" M 626.411 280.97 C 625.538 280.253 624.632 279.512 623.94 278.69 C 623.823 278.551 623.651 278.474 623.473 278.474 L 623.437 278.474 C 623.256 278.474 623.084 278.551 622.967 278.69 C 622.275 279.512 621.368 280.253 620.494 280.97 C 618.644 282.483 616.732 284.052 616.732 286.479 C 616.732 288.68 618.271 290.218 620.477 290.218 C 621.542 290.218 622.471 289.59 623.103 289.017 C 622.799 290.312 622.234 291.847 621.164 293.049 L 625.74 293.049 C 624.67 291.844 624.104 290.308 623.801 289.011 C 624.431 289.587 625.362 290.218 626.43 290.218 C 628.633 290.218 630.175 288.68 630.175 286.479 C 630.175 284.056 628.26 282.487 626.411 280.97 Z " fill="rgb(68,66,71)"/><path d=" M 623.438 293.049 L 623.438 278.474 L 623.437 278.474 C 623.256 278.474 623.084 278.551 622.967 278.69 C 622.275 279.512 621.368 280.253 620.494 280.97 C 618.644 282.483 616.732 284.052 616.732 286.479 C 616.732 288.68 618.271 290.218 620.477 290.218 C 621.542 290.218 622.471 289.59 623.103 289.017 C 622.799 290.312 622.234 291.847 621.164 293.049 L 623.438 293.049 Z " fill="rgb(87,86,90)"/></g></svg>