<?xml version="1.0" encoding="UTF-8" standalone="no"?><!-- Generator: Gravit.io --><svg xmlns="http://www.w3.org/2000/svg" xmlns:xlink="http://www.w3.org/1999/xlink" style="isolation:isolate" viewBox="312.492 344.125 69.122 103.684" width="69.122pt" height="103.684pt"><g><path d=" M 381.614 445.088 C 381.614 446.592 380.396 447.809 378.894 447.809 L 315.214 447.809 C 313.711 447.809 312.492 446.592 312.492 445.088 L 312.492 346.846 C 312.492 345.343 313.711 344.125 315.214 344.125 L 378.894 344.125 C 380.396 344.125 381.614 345.343 381.614 346.846 L 381.614 445.088 Z " fill="rgb(234,232,232)"/><path d=" M 334.251 366.652 C 333.378 365.935 332.472 365.194 331.779 364.373 C 331.662 364.233 331.489 364.156 331.313 364.156 L 331.276 364.156 C 331.096 364.156 330.924 364.233 330.807 364.373 C 330.114 365.194 329.207 365.935 328.334 366.652 C 326.482 368.166 324.571 369.734 324.571 372.161 C 324.571 374.362 326.109 375.9 328.316 375.9 C 329.382 375.9 330.311 375.272 330.941 374.699 C 330.639 375.995 330.072 377.529 329.003 378.731 L 333.579 378.731 C 332.51 377.526 331.943 375.99 331.64 374.693 C 332.271 375.269 333.201 375.9 334.27 375.9 C 336.473 375.9 338.014 374.362 338.014 372.161 C 338.014 369.738 336.1 368.169 334.251 366.652 Z " fill="rgb(68,66,71)"/><path d=" M 331.276 378.731 L 331.276 364.156 L 331.276 364.156 C 331.096 364.156 330.924 364.233 330.807 364.373 C 330.114 365.194 329.207 365.935 328.334 366.652 C 326.482 368.166 324.571 369.734 324.571 372.161 C 324.571 374.362 326.109 375.9 328.316 375.9 C 329.382 375.9 330.311 375.272 330.941 374.699 C 330.639 375.995 330.072 377.529 329.003 378.731 L 331.276 378.731 Z " fill="rgb(87,86,90)"/><path d=" M 321.433 357.9 C 320.98 357.529 320.511 357.145 320.152 356.719 C 320.092 356.647 320.002 356.607 319.91 356.607 L 319.892 356.607 C 319.799 356.607 319.71 356.647 319.649 356.719 C 319.29 357.145 318.82 357.529 318.368 357.9 C 317.409 358.684 316.419 359.497 316.419 360.753 C 316.419 361.894 317.216 362.69 318.359 362.69 C 318.911 362.69 319.392 362.365 319.719 362.068 C 319.562 362.74 319.269 363.534 318.715 364.157 L 321.085 364.157 C 320.53 363.533 320.237 362.737 320.08 362.065 C 320.407 362.363 320.889 362.69 321.442 362.69 C 322.583 362.69 323.382 361.894 323.382 360.753 C 323.382 359.499 322.39 358.686 321.433 357.9 Z " fill="rgb(68,66,71)"/><path d=" M 319.893 364.157 L 319.893 356.607 L 319.892 356.607 C 319.799 356.607 319.71 356.647 319.649 356.719 C 319.29 357.145 318.82 357.529 318.368 357.9 C 317.409 358.684 316.419 359.497 316.419 360.753 C 316.419 361.894 317.216 362.69 318.359 362.69 C 318.911 362.69 319.392 362.365 319.719 362.068 C 319.562 362.74 319.269 363.534 318.715 364.157 L 319.893 364.157 Z " fill="rgb(87,86,90)"/><path d=" M 372.675 434.035 C 373.127 434.406 373.596 434.789 373.955 435.215 C 374.016 435.287 374.104 435.326 374.196 435.326 L 374.215 435.326 C 374.309 435.326 374.397 435.287 374.458 435.215 C 374.817 434.789 375.286 434.406 375.739 434.035 C 376.697 433.25 377.688 432.438 377.688 431.18 C 377.688 430.041 376.891 429.244 375.748 429.244 C 375.196 429.244 374.715 429.568 374.389 429.865 C 374.545 429.195 374.839 428.4 375.393 427.777 L 373.022 427.777 C 373.576 428.402 373.869 429.197 374.026 429.869 C 373.7 429.57 373.219 429.244 372.665 429.244 C 371.523 429.244 370.725 430.041 370.725 431.18 C 370.725 432.436 371.717 433.248 372.675 434.035 Z " fill="rgb(68,66,71)"/><path d=" M 374.215 427.777 L 374.215 435.326 L 374.215 435.326 C 374.309 435.326 374.397 435.287 374.458 435.215 C 374.817 434.789 375.286 434.406 375.739 434.035 C 376.697 433.25 377.688 432.438 377.688 431.18 C 377.688 430.041 376.891 429.244 375.748 429.244 C 375.196 429.244 374.715 429.568 374.389 429.865 C 374.545 429.195 374.839 428.4 375.393 427.777 L 374.215 427.777 Z " fill="rgb(87,86,90)"/><path d=" M 365.707 366.652 C 364.834 365.935 363.928 365.194 363.235 364.373 C 363.119 364.233 362.946 364.156 362.769 364.156 L 362.732 364.156 C 362.553 364.156 362.381 364.233 362.264 364.373 C 361.57 365.194 360.664 365.935 359.791 366.652 C 357.939 368.166 356.028 369.734 356.028 372.161 C 356.028 374.362 357.566 375.9 359.772 375.9 C 360.838 375.9 361.767 375.272 362.398 374.699 C 362.096 375.995 361.529 377.529 360.46 378.731 L 365.035 378.731 C 363.966 377.526 363.399 375.99 363.097 374.693 C 363.727 375.269 364.657 375.9 365.726 375.9 C 367.929 375.9 369.471 374.362 369.471 372.161 C 369.471 369.738 367.556 368.169 365.707 366.652 Z " fill="rgb(68,66,71)"/><path d=" M 362.733 378.731 L 362.733 364.156 L 362.732 364.156 C 362.553 364.156 362.381 364.233 362.264 364.373 C 361.57 365.194 360.664 365.935 359.791 366.652 C 357.939 368.166 356.028 369.734 356.028 372.161 C 356.028 374.362 357.566 375.9 359.772 375.9 C 360.838 375.9 361.767 375.272 362.398 374.699 C 362.096 375.995 361.529 377.529 360.46 378.731 L 362.733 378.731 Z " fill="rgb(87,86,90)"/><path d=" M 334.251 391.175 C 333.378 390.458 332.472 389.717 331.779 388.896 C 331.662 388.756 331.489 388.679 331.313 388.679 L 331.276 388.679 C 331.096 388.679 330.924 388.756 330.807 388.896 C 330.114 389.717 329.207 390.458 328.334 391.175 C 326.482 392.689 324.571 394.258 324.571 396.684 C 324.571 398.886 326.109 400.423 328.316 400.423 C 329.382 400.423 330.311 399.795 330.941 399.222 C 330.639 400.518 330.072 402.053 329.003 403.254 L 333.579 403.254 C 332.51 402.049 331.943 400.514 331.64 399.217 C 332.271 399.792 333.201 400.423 334.27 400.423 C 336.473 400.423 338.014 398.886 338.014 396.684 C 338.014 394.261 336.1 392.693 334.251 391.175 Z " fill="rgb(68,66,71)"/><path d=" M 331.276 403.254 L 331.276 388.679 L 331.276 388.679 C 331.096 388.679 330.924 388.756 330.807 388.896 C 330.114 389.717 329.207 390.458 328.334 391.175 C 326.482 392.689 324.571 394.258 324.571 396.684 C 324.571 398.886 326.109 400.423 328.316 400.423 C 329.382 400.423 330.311 399.795 330.941 399.222 C 330.639 400.518 330.072 402.053 329.003 403.254 L 331.276 403.254 Z " fill="rgb(87,86,90)"/><path d=" M 365.707 391.175 C 364.834 390.458 363.928 389.717 363.235 388.896 C 363.119 388.756 362.946 388.679 362.769 388.679 L 362.732 388.679 C 362.553 388.679 362.381 388.756 362.264 388.896 C 361.57 389.717 360.664 390.458 359.791 391.175 C 357.939 392.689 356.028 394.258 356.028 396.684 C 356.028 398.886 357.566 400.423 359.772 400.423 C 360.838 400.423 361.767 399.795 362.398 399.222 C 362.096 400.518 361.529 402.053 360.46 403.254 L 365.035 403.254 C 363.966 402.049 363.399 400.514 363.097 399.217 C 363.727 399.792 364.657 400.423 365.726 400.423 C 367.929 400.423 369.471 398.886 369.471 396.684 C 369.471 394.261 367.556 392.693 365.707 391.175 Z " fill="rgb(68,66,71)"/><path d=" M 362.733 403.254 L 362.733 388.679 L 362.732 388.679 C 362.553 388.679 362.381 388.756 362.264 388.896 C 361.57 389.717 360.664 390.458 359.791 391.175 C 357.939 392.689 356.028 394.258 356.028 396.684 C 356.028 398.886 357.566 400.423 359.772 400.423 C 360.838 400.423 361.767 399.795 362.398 399.222 C 362.096 400.518 361.529 402.053 360.46 403.254 L 362.733 403.254 Z " fill="rgb(87,86,90)"/><path d=" M 334.251 415.699 C 333.378 414.982 332.472 414.242 331.779 413.42 C 331.662 413.281 331.489 413.203 331.313 413.203 L 331.276 413.203 C 331.096 413.203 330.924 413.281 330.807 413.42 C 330.114 414.242 329.207 414.982 328.334 415.699 C 326.482 417.213 324.571 418.781 324.571 421.209 C 324.571 423.41 326.109 424.947 328.316 424.947 C 329.382 424.947 330.311 424.32 330.941 423.746 C 330.639 425.043 330.072 426.576 329.003 427.779 L 333.579 427.779 C 332.51 426.574 331.943 425.037 331.64 423.74 C 332.271 424.316 333.201 424.947 334.27 424.947 C 336.473 424.947 338.014 423.41 338.014 421.209 C 338.014 418.785 336.1 417.217 334.251 415.699 Z " fill="rgb(68,66,71)"/><path d=" M 331.276 427.779 L 331.276 413.203 L 331.276 413.203 C 331.096 413.203 330.924 413.281 330.807 413.42 C 330.114 414.242 329.207 414.982 328.334 415.699 C 326.482 417.213 324.571 418.781 324.571 421.209 C 324.571 423.41 326.109 424.947 328.316 424.947 C 329.382 424.947 330.311 424.32 330.941 423.746 C 330.639 425.043 330.072 426.576 329.003 427.779 L 331.276 427.779 Z " fill="rgb(87,86,90)"/><path d=" M 365.707 415.699 C 364.834 414.982 363.928 414.242 363.235 413.42 C 363.119 413.281 362.946 413.203 362.769 413.203 L 362.732 413.203 C 362.553 413.203 362.381 413.281 362.264 413.42 C 361.57 414.242 360.664 414.982 359.791 415.699 C 357.939 417.213 356.028 418.781 356.028 421.209 C 356.028 423.41 357.566 424.947 359.772 424.947 C 360.838 424.947 361.767 424.32 362.398 423.746 C 362.096 425.043 361.529 426.576 360.46 427.779 L 365.035 427.779 C 363.966 426.574 363.399 425.037 363.097 423.74 C 363.727 424.316 364.657 424.947 365.726 424.947 C 367.929 424.947 369.471 423.41 369.471 421.209 C 369.471 418.785 367.556 417.217 365.707 415.699 Z " fill="rgb(68,66,71)"/><path d=" M 362.733 427.779 L 362.733 413.203 L 362.732 413.203 C 362.553 413.203 362.381 413.281 362.264 413.42 C 361.57 414.242 360.664 414.982 359.791 415.699 C 357.939 417.213 356.028 418.781 356.028 421.209 C 356.028 423.41 357.566 424.947 359.772 424.947 C 360.838 424.947 361.767 424.32 362.398 423.746 C 362.096 425.043 361.529 426.576 360.46 427.779 L 362.733 427.779 Z " fill="rgb(87,86,90)"/><path d=" M 318.915 350.885 C 318.044 351.255 317.511 351.897 317.511 352.79 C 317.511 353.824 318.403 354.695 319.884 354.695 C 321.234 354.695 322.29 353.878 322.29 352.637 C 322.29 351.788 321.745 351.157 320.864 350.809 L 320.864 350.776 C 321.734 350.373 322.039 349.72 322.039 349.121 C 322.039 348.229 321.342 347.38 319.971 347.38 C 318.719 347.38 317.772 348.142 317.772 349.263 C 317.772 349.872 318.109 350.482 318.904 350.852 L 318.915 350.885 Z  M 319.906 353.998 C 319.002 353.998 318.458 353.367 318.49 352.659 C 318.49 351.984 318.937 351.429 319.764 351.19 C 320.722 351.462 321.321 351.886 321.321 352.735 C 321.321 353.465 320.766 353.998 319.906 353.998 Z  M 319.916 348.065 C 320.776 348.065 321.114 348.653 321.114 349.219 C 321.114 349.862 320.646 350.297 320.036 350.504 C 319.22 350.286 318.676 349.905 318.686 349.198 C 318.686 348.588 319.122 348.065 319.916 348.065 Z " fill="rgb(68,66,71)"/><path d=" M 375.191 441.049 C 376.062 440.679 376.595 440.037 376.595 439.144 C 376.595 438.11 375.703 437.239 374.222 437.239 C 372.872 437.239 371.816 438.056 371.816 439.297 C 371.816 440.146 372.361 440.777 373.242 441.125 L 373.242 441.158 C 372.372 441.561 372.067 442.214 372.067 442.813 C 372.067 443.705 372.764 444.554 374.135 444.554 C 375.387 444.554 376.334 443.792 376.334 442.671 C 376.334 442.062 375.997 441.452 375.202 441.082 L 375.191 441.049 Z  M 374.2 437.936 C 375.104 437.936 375.648 438.567 375.616 439.275 C 375.616 439.95 375.169 440.505 374.342 440.744 C 373.384 440.472 372.785 440.048 372.785 439.199 C 372.785 438.469 373.34 437.936 374.2 437.936 Z  M 374.19 443.869 C 373.33 443.869 372.992 443.281 372.992 442.715 C 372.992 442.072 373.46 441.637 374.07 441.43 C 374.886 441.648 375.43 442.029 375.42 442.736 C 375.42 443.346 374.984 443.869 374.19 443.869 Z " fill="rgb(68,66,71)"/><path d=" M 350.012 377.744 C 349.139 377.028 348.232 376.287 347.539 375.464 C 347.423 375.326 347.25 375.249 347.073 375.249 L 347.037 375.249 C 346.856 375.249 346.685 375.326 346.567 375.464 C 345.874 376.287 344.968 377.028 344.095 377.744 C 342.243 379.258 340.332 380.827 340.332 383.253 C 340.332 385.455 341.87 386.993 344.076 386.993 C 345.143 386.993 346.071 386.365 346.702 385.792 C 346.399 387.087 345.833 388.621 344.764 389.824 L 349.34 389.824 C 348.27 388.619 347.704 387.083 347.4 385.786 C 348.031 386.361 348.961 386.993 350.029 386.993 C 352.232 386.993 353.774 385.455 353.774 383.253 C 353.774 380.83 351.859 379.261 350.012 377.744 Z " fill="rgb(68,66,71)"/><path d=" M 347.037 389.824 L 347.037 375.249 L 347.037 375.249 C 346.856 375.249 346.685 375.326 346.567 375.464 C 345.874 376.287 344.968 377.028 344.095 377.744 C 342.243 379.258 340.332 380.827 340.332 383.253 C 340.332 385.455 341.87 386.993 344.076 386.993 C 345.143 386.993 346.071 386.365 346.702 385.792 C 346.399 387.087 345.833 388.621 344.764 389.824 L 347.037 389.824 Z " fill="rgb(87,86,90)"/><path d=" M 350.012 403.775 C 349.139 403.059 348.232 402.318 347.539 401.496 C 347.423 401.357 347.25 401.281 347.073 401.281 L 347.037 401.281 C 346.856 401.281 346.685 401.357 346.567 401.496 C 345.874 402.318 344.968 403.059 344.095 403.775 C 342.243 405.291 340.332 406.859 340.332 409.285 C 340.332 411.486 341.87 413.023 344.076 413.023 C 345.143 413.023 346.071 412.396 346.702 411.822 C 346.399 413.119 345.833 414.652 344.764 415.855 L 349.34 415.855 C 348.27 414.65 347.704 413.115 347.4 411.818 C 348.031 412.393 348.961 413.023 350.029 413.023 C 352.232 413.023 353.774 411.486 353.774 409.285 C 353.774 406.861 351.859 405.293 350.012 403.775 Z " fill="rgb(68,66,71)"/><path d=" M 347.037 415.855 L 347.037 401.281 L 347.037 401.281 C 346.856 401.281 346.685 401.357 346.567 401.496 C 345.874 402.318 344.968 403.059 344.095 403.775 C 342.243 405.291 340.332 406.859 340.332 409.285 C 340.332 411.486 341.87 413.023 344.076 413.023 C 345.143 413.023 346.071 412.396 346.702 411.822 C 346.399 413.119 345.833 414.652 344.764 415.855 L 347.037 415.855 Z " fill="rgb(87,86,90)"/></g></svg>