<?xml version="1.0" encoding="UTF-8" standalone="no"?><!-- Generator: Gravit.io --><svg xmlns="http://www.w3.org/2000/svg" xmlns:xlink="http://www.w3.org/1999/xlink" style="isolation:isolate" viewBox="496.897 462.567 69.123 103.684" width="69.123pt" height="103.684pt"><g><path d=" M 566.02 563.53 C 566.02 565.034 564.802 566.251 563.298 566.251 L 499.619 566.251 C 498.116 566.251 496.897 565.034 496.897 563.53 L 496.897 465.288 C 496.897 463.785 498.116 462.567 499.619 462.567 L 563.298 462.567 C 564.802 462.567 566.02 463.785 566.02 465.288 L 566.02 563.53 Z " fill="rgb(234,232,232)"/><path d=" M 505.837 476.342 C 505.385 475.971 504.916 475.587 504.557 475.161 C 504.496 475.089 504.408 475.049 504.316 475.049 L 504.297 475.049 C 504.203 475.049 504.115 475.089 504.054 475.161 C 503.695 475.587 503.225 475.971 502.773 476.342 C 501.814 477.126 500.825 477.939 500.825 479.195 C 500.825 480.336 501.62 481.132 502.764 481.132 C 503.316 481.132 503.796 480.807 504.123 480.51 C 503.967 481.182 503.673 481.976 503.12 482.599 L 505.49 482.599 C 504.936 481.975 504.642 481.179 504.486 480.507 C 504.812 480.805 505.294 481.132 505.847 481.132 C 506.989 481.132 507.786 480.336 507.786 479.195 C 507.786 477.941 506.795 477.128 505.837 476.342 Z " fill="rgb(68,66,71)"/><path d=" M 504.297 482.599 L 504.297 475.049 L 504.297 475.049 C 504.203 475.049 504.115 475.089 504.054 475.161 C 503.695 475.587 503.225 475.971 502.773 476.342 C 501.814 477.126 500.825 477.939 500.825 479.195 C 500.825 480.336 501.62 481.132 502.764 481.132 C 503.316 481.132 503.796 480.807 504.123 480.51 C 503.967 481.182 503.673 481.976 503.12 482.599 L 504.297 482.599 Z " fill="rgb(87,86,90)"/><path d=" M 557.079 552.477 C 557.532 552.848 558.001 553.231 558.36 553.657 C 558.42 553.729 558.509 553.768 558.601 553.768 L 558.62 553.768 C 558.713 553.768 558.803 553.729 558.864 553.657 C 559.222 553.231 559.692 552.848 560.144 552.477 C 561.103 551.692 562.093 550.88 562.093 549.624 C 562.093 548.483 561.296 547.686 560.154 547.686 C 559.602 547.686 559.12 548.01 558.793 548.309 C 558.951 547.637 559.244 546.842 559.797 546.219 L 557.427 546.219 C 557.982 546.844 558.275 547.639 558.432 548.311 C 558.105 548.012 557.623 547.686 557.07 547.686 C 555.929 547.686 555.13 548.483 555.13 549.624 C 555.13 550.878 556.122 551.69 557.079 552.477 Z " fill="rgb(68,66,71)"/><path d=" M 558.62 546.219 L 558.62 553.768 L 558.62 553.768 C 558.713 553.768 558.803 553.729 558.864 553.657 C 559.222 553.231 559.692 552.848 560.144 552.477 C 561.103 551.692 562.093 550.88 562.093 549.624 C 562.093 548.483 561.296 547.686 560.154 547.686 C 559.602 547.686 559.12 548.01 558.793 548.309 C 558.951 547.637 559.244 546.842 559.797 546.219 L 558.62 546.219 Z " fill="rgb(87,86,90)"/><path d=" M 518.656 480.4 C 517.783 479.684 516.876 478.942 516.184 478.121 C 516.067 477.982 515.895 477.904 515.717 477.904 L 515.681 477.904 C 515.501 477.904 515.328 477.982 515.211 478.121 C 514.519 478.942 513.613 479.684 512.739 480.4 C 510.888 481.914 508.977 483.484 508.977 485.909 C 508.977 488.11 510.515 489.649 512.721 489.649 C 513.786 489.649 514.715 489.021 515.347 488.447 C 515.043 489.743 514.478 491.277 513.409 492.48 L 517.984 492.48 C 516.914 491.275 516.348 489.738 516.045 488.442 C 516.675 489.018 517.606 489.649 518.674 489.649 C 520.877 489.649 522.419 488.11 522.419 485.909 C 522.419 483.486 520.504 481.918 518.656 480.4 Z " fill="rgb(68,66,71)"/><path d=" M 515.682 492.48 L 515.682 477.904 L 515.681 477.904 C 515.501 477.904 515.328 477.982 515.211 478.121 C 514.519 478.942 513.613 479.684 512.739 480.4 C 510.888 481.914 508.977 483.484 508.977 485.909 C 508.977 488.11 510.515 489.649 512.721 489.649 C 513.786 489.649 514.715 489.021 515.347 488.447 C 515.043 489.743 514.478 491.277 513.409 492.48 L 515.682 492.48 Z " fill="rgb(87,86,90)"/><path d=" M 550.113 480.4 C 549.24 479.684 548.333 478.942 547.64 478.121 C 547.524 477.982 547.351 477.904 547.174 477.904 L 547.138 477.904 C 546.957 477.904 546.786 477.982 546.668 478.121 C 545.976 478.942 545.069 479.684 544.196 480.4 C 542.344 481.914 540.433 483.484 540.433 485.909 C 540.433 488.11 541.971 489.649 544.178 489.649 C 545.244 489.649 546.172 489.021 546.803 488.447 C 546.5 489.743 545.934 491.277 544.865 492.48 L 549.441 492.48 C 548.37 491.275 547.805 489.738 547.501 488.442 C 548.132 489.018 549.063 489.649 550.131 489.649 C 552.334 489.649 553.875 488.11 553.875 485.909 C 553.875 483.486 551.961 481.918 550.113 480.4 Z " fill="rgb(68,66,71)"/><path d=" M 547.138 492.48 L 547.138 477.904 L 547.138 477.904 C 546.957 477.904 546.786 477.982 546.668 478.121 C 545.976 478.942 545.069 479.684 544.196 480.4 C 542.344 481.914 540.433 483.484 540.433 485.909 C 540.433 488.11 541.971 489.649 544.178 489.649 C 545.244 489.649 546.172 489.021 546.803 488.447 C 546.5 489.743 545.934 491.277 544.865 492.48 L 547.138 492.48 Z " fill="rgb(87,86,90)"/><path d=" M 518.656 499.601 C 517.783 498.884 516.876 498.143 516.184 497.321 C 516.067 497.182 515.895 497.106 515.717 497.106 L 515.681 497.106 C 515.501 497.106 515.328 497.182 515.211 497.321 C 514.519 498.143 513.613 498.884 512.739 499.601 C 510.888 501.114 508.977 502.684 508.977 505.109 C 508.977 507.312 510.515 508.849 512.721 508.849 C 513.786 508.849 514.715 508.222 515.347 507.648 C 515.043 508.943 514.478 510.478 513.409 511.68 L 517.984 511.68 C 516.914 510.475 516.348 508.94 516.045 507.643 C 516.675 508.218 517.606 508.849 518.674 508.849 C 520.877 508.849 522.419 507.312 522.419 505.109 C 522.419 502.687 520.504 501.118 518.656 499.601 Z " fill="rgb(68,66,71)"/><path d=" M 515.682 511.68 L 515.682 497.106 L 515.681 497.106 C 515.501 497.106 515.328 497.182 515.211 497.321 C 514.519 498.143 513.613 498.884 512.739 499.601 C 510.888 501.114 508.977 502.684 508.977 505.109 C 508.977 507.312 510.515 508.849 512.721 508.849 C 513.786 508.849 514.715 508.222 515.347 507.648 C 515.043 508.943 514.478 510.478 513.409 511.68 L 515.682 511.68 Z " fill="rgb(87,86,90)"/><path d=" M 550.113 499.601 C 549.24 498.884 548.333 498.143 547.64 497.321 C 547.524 497.182 547.351 497.106 547.174 497.106 L 547.138 497.106 C 546.957 497.106 546.786 497.182 546.668 497.321 C 545.976 498.143 545.069 498.884 544.196 499.601 C 542.344 501.114 540.433 502.684 540.433 505.109 C 540.433 507.312 541.971 508.849 544.178 508.849 C 545.244 508.849 546.172 508.222 546.803 507.648 C 546.5 508.943 545.934 510.478 544.865 511.68 L 549.441 511.68 C 548.37 510.475 547.805 508.94 547.501 507.643 C 548.132 508.218 549.063 508.849 550.131 508.849 C 552.334 508.849 553.875 507.312 553.875 505.109 C 553.875 502.687 551.961 501.118 550.113 499.601 Z " fill="rgb(68,66,71)"/><path d=" M 547.138 511.68 L 547.138 497.106 L 547.138 497.106 C 546.957 497.106 546.786 497.182 546.668 497.321 C 545.976 498.143 545.069 498.884 544.196 499.601 C 542.344 501.114 540.433 502.684 540.433 505.109 C 540.433 507.312 541.971 508.849 544.178 508.849 C 545.244 508.849 546.172 508.222 546.803 507.648 C 546.5 508.943 545.934 510.478 544.865 511.68 L 547.138 511.68 Z " fill="rgb(87,86,90)"/><path d=" M 518.656 518.801 C 517.783 518.084 516.876 517.344 516.184 516.522 C 516.067 516.383 515.895 516.306 515.717 516.306 L 515.681 516.306 C 515.501 516.306 515.328 516.383 515.211 516.522 C 514.519 517.344 513.613 518.084 512.739 518.801 C 510.888 520.315 508.977 521.883 508.977 524.311 C 508.977 526.512 510.515 528.049 512.721 528.049 C 513.786 528.049 514.715 527.422 515.347 526.848 C 515.043 528.143 514.478 529.678 513.409 530.88 L 517.984 530.88 C 516.914 529.676 516.348 528.139 516.045 526.842 C 516.675 527.419 517.606 528.049 518.674 528.049 C 520.877 528.049 522.419 526.512 522.419 524.311 C 522.419 521.887 520.504 520.319 518.656 518.801 Z " fill="rgb(68,66,71)"/><path d=" M 515.682 530.88 L 515.682 516.306 L 515.681 516.306 C 515.501 516.306 515.328 516.383 515.211 516.522 C 514.519 517.344 513.613 518.084 512.739 518.801 C 510.888 520.315 508.977 521.883 508.977 524.311 C 508.977 526.512 510.515 528.049 512.721 528.049 C 513.786 528.049 514.715 527.422 515.347 526.848 C 515.043 528.143 514.478 529.678 513.409 530.88 L 515.682 530.88 Z " fill="rgb(87,86,90)"/><path d=" M 550.113 518.801 C 549.24 518.084 548.333 517.344 547.64 516.522 C 547.524 516.383 547.351 516.306 547.174 516.306 L 547.138 516.306 C 546.957 516.306 546.786 516.383 546.668 516.522 C 545.976 517.344 545.069 518.084 544.196 518.801 C 542.344 520.315 540.433 521.883 540.433 524.311 C 540.433 526.512 541.971 528.049 544.178 528.049 C 545.244 528.049 546.172 527.422 546.803 526.848 C 546.5 528.143 545.934 529.678 544.865 530.88 L 549.441 530.88 C 548.37 529.676 547.805 528.139 547.501 526.842 C 548.132 527.419 549.063 528.049 550.131 528.049 C 552.334 528.049 553.875 526.512 553.875 524.311 C 553.875 521.887 551.961 520.319 550.113 518.801 Z " fill="rgb(68,66,71)"/><path d=" M 547.138 530.88 L 547.138 516.306 L 547.138 516.306 C 546.957 516.306 546.786 516.383 546.668 516.522 C 545.976 517.344 545.069 518.084 544.196 518.801 C 542.344 520.315 540.433 521.883 540.433 524.311 C 540.433 526.512 541.971 528.049 544.178 528.049 C 545.244 528.049 546.172 527.422 546.803 526.848 C 546.5 528.143 545.934 529.678 544.865 530.88 L 547.138 530.88 Z " fill="rgb(87,86,90)"/><path d=" M 518.656 538.003 C 517.783 537.284 516.876 536.544 516.184 535.723 C 516.067 535.583 515.895 535.506 515.717 535.506 L 515.681 535.506 C 515.501 535.506 515.328 535.583 515.211 535.723 C 514.519 536.544 513.613 537.284 512.739 538.003 C 510.888 539.516 508.977 541.085 508.977 543.51 C 508.977 545.712 510.515 547.251 512.721 547.251 C 513.786 547.251 514.715 546.622 515.347 546.049 C 515.043 547.344 514.478 548.878 513.409 550.081 L 517.984 550.081 C 516.914 548.876 516.348 547.34 516.045 546.044 C 516.675 546.618 517.606 547.251 518.674 547.251 C 520.877 547.251 522.419 545.712 522.419 543.51 C 522.419 541.088 520.504 539.52 518.656 538.003 Z " fill="rgb(68,66,71)"/><path d=" M 515.682 550.081 L 515.682 535.506 L 515.681 535.506 C 515.501 535.506 515.328 535.583 515.211 535.723 C 514.519 536.544 513.613 537.284 512.739 538.003 C 510.888 539.516 508.977 541.085 508.977 543.51 C 508.977 545.712 510.515 547.251 512.721 547.251 C 513.786 547.251 514.715 546.622 515.347 546.049 C 515.043 547.344 514.478 548.878 513.409 550.081 L 515.682 550.081 Z " fill="rgb(87,86,90)"/><path d=" M 550.113 538.003 C 549.24 537.284 548.333 536.544 547.64 535.723 C 547.524 535.583 547.351 535.506 547.174 535.506 L 547.138 535.506 C 546.957 535.506 546.786 535.583 546.668 535.723 C 545.976 536.544 545.069 537.284 544.196 538.003 C 542.344 539.516 540.433 541.085 540.433 543.51 C 540.433 545.712 541.971 547.251 544.178 547.251 C 545.244 547.251 546.172 546.622 546.803 546.049 C 546.5 547.344 545.934 548.878 544.865 550.081 L 549.441 550.081 C 548.37 548.876 547.805 547.34 547.501 546.044 C 548.132 546.618 549.063 547.251 550.131 547.251 C 552.334 547.251 553.875 545.712 553.875 543.51 C 553.875 541.088 551.961 539.52 550.113 538.003 Z " fill="rgb(68,66,71)"/><path d=" M 547.138 550.081 L 547.138 535.506 L 547.138 535.506 C 546.957 535.506 546.786 535.583 546.668 535.723 C 545.976 536.544 545.069 537.284 544.196 538.003 C 542.344 539.516 540.433 541.085 540.433 543.51 C 540.433 545.712 541.971 547.251 544.178 547.251 C 545.244 547.251 546.172 546.622 546.803 546.049 C 546.5 547.344 545.934 548.878 544.865 550.081 L 547.138 550.081 Z " fill="rgb(87,86,90)"/><path d=" M 502.559 473.126 C 502.788 473.137 503.093 473.126 503.441 473.071 C 504.203 472.984 504.954 472.658 505.499 472.124 C 506.195 471.449 506.718 470.361 506.718 468.815 C 506.718 466.986 505.825 465.822 504.377 465.822 C 502.93 465.822 501.961 466.997 501.961 468.336 C 501.961 469.544 502.777 470.502 504.04 470.502 C 504.758 470.502 505.324 470.23 505.716 469.751 L 505.749 469.751 C 505.618 470.579 505.281 471.199 504.813 471.624 C 504.41 472.016 503.888 472.233 503.332 472.309 C 503.006 472.342 502.766 472.364 502.559 472.342 L 502.559 473.126 Z  M 504.29 466.551 C 505.303 466.551 505.749 467.476 505.749 468.685 C 505.749 468.848 505.716 468.946 505.662 469.044 C 505.412 469.468 504.911 469.784 504.269 469.784 C 503.441 469.784 502.908 469.163 502.908 468.282 C 502.908 467.269 503.485 466.551 504.29 466.551 Z " fill="rgb(68,66,71)"/><path d=" M 560.359 555.692 C 560.131 555.681 559.826 555.692 559.478 555.747 C 558.716 555.834 557.965 556.16 557.42 556.694 C 556.724 557.369 556.201 558.457 556.201 560.003 C 556.201 561.832 557.094 562.996 558.542 562.996 C 559.989 562.996 560.958 561.821 560.958 560.482 C 560.958 559.274 560.142 558.316 558.879 558.316 C 558.161 558.316 557.595 558.588 557.203 559.067 L 557.17 559.067 C 557.301 558.239 557.638 557.619 558.106 557.194 C 558.509 556.802 559.031 556.585 559.587 556.509 C 559.913 556.476 560.153 556.454 560.359 556.476 L 560.359 555.692 Z  M 558.629 562.267 C 557.616 562.267 557.17 561.342 557.17 560.133 C 557.17 559.97 557.203 559.872 557.257 559.774 C 557.507 559.35 558.008 559.034 558.65 559.034 C 559.478 559.034 560.011 559.655 560.011 560.536 C 560.011 561.549 559.434 562.267 558.629 562.267 Z " fill="rgb(68,66,71)"/><path d=" M 534.416 509.616 C 533.543 508.9 532.637 508.159 531.945 507.338 C 531.828 507.198 531.656 507.121 531.478 507.121 L 531.442 507.121 C 531.261 507.121 531.089 507.198 530.972 507.338 C 530.28 508.159 529.373 508.9 528.499 509.616 C 526.649 511.131 524.737 512.699 524.737 515.126 C 524.737 517.327 526.276 518.865 528.482 518.865 C 529.547 518.865 530.476 518.237 531.108 517.664 C 530.804 518.96 530.239 520.495 529.169 521.696 L 533.745 521.696 C 532.675 520.491 532.109 518.955 531.806 517.658 C 532.436 518.234 533.367 518.865 534.435 518.865 C 536.638 518.865 538.18 517.327 538.18 515.126 C 538.18 512.702 536.265 511.134 534.416 509.616 Z " fill="rgb(68,66,71)"/><path d=" M 531.443 521.696 L 531.443 507.121 L 531.442 507.121 C 531.261 507.121 531.089 507.198 530.972 507.338 C 530.28 508.159 529.373 508.9 528.499 509.616 C 526.649 511.131 524.737 512.699 524.737 515.126 C 524.737 517.327 526.276 518.865 528.482 518.865 C 529.547 518.865 530.476 518.237 531.108 517.664 C 530.804 518.96 530.239 520.495 529.169 521.696 L 531.443 521.696 Z " fill="rgb(87,86,90)"/></g></svg>